<?xml version="1.0" encoding="utf-8"?>
<!-- Generator: Adobe Illustrator 26.3.1, SVG Export Plug-In . SVG Version: 6.00 Build 0)  -->
<svg version="1.1" id="pfeil" xmlns="http://www.w3.org/2000/svg" xmlns:xlink="http://www.w3.org/1999/xlink" x="0px" y="0px"
	 viewBox="0 0 500.5 509" style="enable-background:new 0 0 500.5 509;" xml:space="preserve">
<style type="text/css">
	.st0{fill:#F8E9CB;}
	.st1{fill:#211F1B;}
</style>
<path id="farbe" class="st0" d="M304.89,212.82c-34.01-11.51-68.57-21.29-102.68-32.51c-1.8-0.59-3.37,1.26-2.96,2.96
	c2.64,10.78,5.1,21.6,7.72,32.38c-25.93,11.13-51.85,22.26-77.77,33.39c-1.44,0.62-1.69,2.68-1.02,3.9
	c12.01,21.71,20.79,44.94,26.19,69.15c0.45,2.01,2.72,2.53,4.35,1.77c26.73-12.48,53.47-24.97,80.2-37.47
	c5.46,9.74,10.93,19.47,16.39,29.21c1.09,1.95,4.33,2.11,5.38,0c16.33-32.83,32.67-65.67,49-98.5
	C311.33,213.81,307.16,210.88,304.89,212.82z"/>
<g id="ol">
	<path class="st1" d="M313.85,195.49c-1.7-0.9-4-0.86-5.61,0.23c-26.06-9-52.51-16.75-78.8-25.04c-7.51-2.37-15.02-4.77-22.5-7.25
		c-2.87-0.95-5.35,2.01-4.7,4.7c2.52,10.33,4.76,20.73,7.22,31.07c-19.72,8.44-39.44,16.88-59.15,25.33
		c-5.87,2.52-11.74,5.03-17.61,7.55c-2.28,0.98-2.69,4.27-1.62,6.2c2.37,4.26,4.62,8.59,6.74,12.98c1.06,2.2,2.09,4.41,3.09,6.63
		c0.44,0.97,0.87,1.95,1.29,2.93c0.24,0.56,0.48,1.12,0.72,1.68c0.36,0.85,0.15,0.35,0.07,0.17c0.15,0.35,0.29,0.7,0.44,1.05
		c3.7,8.94,6.9,18.08,9.57,27.38c1.52,5.27,2.86,10.59,4.03,15.95c0.71,3.21,4.33,4.02,6.92,2.81c21.6-10.06,43.21-20.12,64.8-30.2
		c4.58-2.14,9.16-4.28,13.75-6.42c5.19,9.26,10.38,18.52,15.57,27.78c1.74,3.1,6.89,3.35,8.57,0
		c12.72-25.55,25.45-51.09,38.18-76.63c3.63-7.28,7.27-14.55,10.88-21.83C316.9,200.13,316.43,196.85,313.85,195.49z M268.88,274.12
		c-2.27,4.59-4.54,9.19-6.81,13.78c-4.42-7.84-8.85-15.67-13.27-23.51c-1.38-2.45-4.34-2.87-6.71-1.76
		c-21.55,10.15-43.1,20.3-64.64,30.47c-4.21,1.99-8.42,3.97-12.64,5.96c-4.32-17.43-10.45-34.39-18.21-50.58
		c-1.68-3.49-3.44-6.95-5.27-10.36c19.26-8.36,38.51-16.72,57.76-25.09c5.85-2.54,11.71-5.09,17.56-7.63
		c1.75-0.76,2.4-3.17,1.98-4.86c-2.32-9.26-4.87-18.47-7.28-27.7c25.38,8.08,50.95,15.59,76.46,23.26
		c5.69,1.71,11.39,3.39,17.08,5.1C292.85,225.48,280.89,249.82,268.88,274.12z"/>
	<path class="st1" d="M342.91,189.96c1.63-0.21,2.93-0.51,4.39-1.3c0.99-0.54,1.95-1.14,2.92-1.73c1.52-0.92,3.04-1.84,4.55-2.76
		c2.41-1.46,4.82-2.9,7.21-4.39c5.8-3.62,11.6-7.25,17.4-10.87c3.5-2.19,0.38-7.58-3.24-5.55c-5.96,3.35-11.92,6.7-17.87,10.06
		c-2.45,1.38-4.88,2.8-7.31,4.22c-1.53,0.89-3.07,1.78-4.6,2.67c-0.98,0.57-1.97,1.12-2.92,1.73c-1.37,0.89-2.29,1.86-3.25,3.17
		C338.87,187.02,340.61,190.25,342.91,189.96z"/>
	<path class="st1" d="M386.47,216.78c-3.11-1.55-6.31-2.2-9.72-2.73c-3.35-0.52-6.73-0.91-10.09-1.37
		c-6.64-0.9-13.29-1.8-19.93-2.69c-2.01-0.27-4.27,0.48-4.78,2.71c-0.42,1.85,0.56,4.46,2.71,4.78c6.7,0.99,13.41,1.98,20.11,2.97
		c3.27,0.48,6.54,0.99,9.81,1.45c3.78,0.53,7.4,0.9,11.19,0.2C388.2,221.67,388.64,217.87,386.47,216.78z"/>
	<path class="st1" d="M336.68,134.42c-4.08,6.65-8.24,13.25-12.42,19.84c-2.05,3.23-4.07,6.46-6.06,9.72
		c-1.04,1.7-2.04,3.42-3.01,5.16c-0.96,1.73-1.99,3.91-2.33,5.87c-0.52,3.02,2.64,4.86,5.01,2.92c1.55-1.27,2.92-3.21,3.96-4.91
		c0.99-1.63,1.96-3.28,2.89-4.94c1.9-3.41,3.75-6.84,5.59-10.28c3.67-6.89,7.36-13.76,11.13-20.59
		C343.15,134.09,338.53,131.4,336.68,134.42z"/>
</g>
</svg>
