<?xml version="1.0" encoding="utf-8"?>
<!-- Generator: Adobe Illustrator 26.3.1, SVG Export Plug-In . SVG Version: 6.00 Build 0)  -->
<svg version="1.1" id="Biene" xmlns="http://www.w3.org/2000/svg" xmlns:xlink="http://www.w3.org/1999/xlink" x="0px" y="0px"
	 viewBox="0 0 500.5 509" style="enable-background:new 0 0 500.5 509;" xml:space="preserve">
<style type="text/css">
	.st0{fill:#DBECEF;}
	.st1{fill:#FAEC9C;}
	.st2{fill:#6C5A38;}
	.st3{fill:#E9AD99;}
	.st4{fill:#211F1B;}
	.st5{fill:#FFFFFF;}
</style>
<g id="farbe">
	<path class="st0" d="M192.6,104.9c-3.9-7.4-7.3-15.5-18.2-17.5c-7.7-1.4-12.3,2.4-15.9,9.1c-3.9,7.2-4.9,15.8-4.2,23.8
		c0.7,8.4,3.2,17.8,6.2,25.7c6.7,17.6,20.5,31.3,36.5,41.3c0.4,1.6-1.7,4.9-0.9,3c6.5-14.6,9.8-30.8,9.7-46.8c0-8-3-0.9-4.7-8.7
		C199.2,126,196.9,112.9,192.6,104.9z"/>
	<path class="st1" d="M290.1,189.4c-0.9-3.1-4.1-3.2-6.7-2.9c-3.6,0.4-7.2,0.8-10.8,1.2c-6.1,0.6-12.2,1.1-18.4,1.6
		c-0.3,0-0.5,0.1-0.8,0.3c-4.8-4.4-10.6-7.9-16.5-10.8c-7.3-3.6-15.1-6.2-23.1-7.8c-16.1-3.1-32.7-1.9-48.3,3.1
		c-13.7,4.3-26.4,11.6-36.6,21.7c-10.1,10.1-17.4,22.7-21.8,36.3c-5.1,15.7-4.7,33.8,3.7,48.3c7.4,12.8,18.4,22.6,32.7,26.8
		c8.6,2.5,17.7,3.8,26.6,4.5c9.2,0.8,18.4,0.6,27.5-0.8c16.6-2.6,32.2-10.2,44.9-21.2c12-10.4,21.4-24.2,25.4-39.6
		c2.8-10.9,3.2-22.4,0.8-33.4c0.2-0.1,0.3-0.1,0.5-0.3c4.1-3.5,8.4-6.7,12.3-10.4c2.7-2.6,4.8-5.6,6.6-8.8
		C289.5,194.7,290.9,192,290.1,189.4z"/>
	<g>
		<path class="st2" d="M213.1,237.4c-1.8-14.8-6.7-29.6-16.5-40.8c-9.8-11.2-25.1-17.5-39.9-15.4c-4.2,0.6-7.6,1-10.3,1.2
			c-6.3,3.7-12.2,8.1-17.5,13.3c-6.1,6.1-11.2,13.1-15.2,20.7c6.7-7.1,12.3-12.6,12.3-12.6c6.2-6.5,16.8-7.6,25.2-4.2
			c8.4,3.4,14.8,10.5,19.5,18.2c13.2,21.7,14.6,50.2,3.5,73c-2.4,4.8-5.3,7.5-9.6,10.8s-10,5.1-15.2,3.7c-6.1-0.9-11.1-1.6-15.1-1.9
			c2.9,1.5,5.9,2.7,9.1,3.6c8.6,2.5,17.7,3.8,26.6,4.5c4.1,0.3,8.2,0.5,12.3,0.4c0.4-0.2,0.8-0.5,1.2-0.7
			C212.2,296.6,216.3,264.4,213.1,237.4z"/>
	</g>
	<g>
		<path class="st2" d="M256.1,224c-2.4-19.6-9.5-31.6-24.1-44.9c-1.7-1.6-3.4-3.1-5.1-4.7c-4.3-1.5-8.6-2.7-13.1-3.6
			c-8.3-1.6-16.7-2-25.1-1.4c7.7,1.8,15.1,4.4,19.8,6.8c16,8.2,28.2,26,31.5,50.3c3.3,24.3,5.2,52-14,71.2c-1.9,1.9-5.5,4.6-9.4,7.6
			c7.2-2.9,14-6.8,20.3-11.4c1.5-2.5,3.2-5.2,5.4-8.2C253.6,269.6,258.7,244.6,256.1,224z"/>
	</g>
	<path class="st0" d="M244.5,106.5c-0.7-7.1-4.1-14.2-10.2-18.2c-6.6-4.3-15.1-3.6-21.8-0.2c-7.3,3.7-12.5,10.5-16.6,17.5
		c-4.2,7.3-7.4,15.3-9.5,23.5c-4.5,18.2-3.8,38.1,3.6,55.4c-0.6,1.5,1,3.6,2.8,2.5c13.7-8.3,25.6-19.7,34.7-32.9
		c4.5-6.6,8.4-13.7,11.4-21.1C242.4,124.7,245.4,115.6,244.5,106.5z"/>
	<ellipse transform="matrix(0.9903 -0.139 0.139 0.9903 -33.5808 25.657)" class="st3" cx="166.9" cy="253.2" rx="7.5" ry="4.3"/>
	
		<ellipse transform="matrix(0.139 -0.9903 0.9903 0.139 -153.1202 332.8582)" class="st3" cx="114.9" cy="254.5" rx="4.3" ry="7.5"/>
</g>
<g id="ol">
	<path class="st4" d="M270,245.7c2.8-10.9,3.2-22.4,0.8-33.4c0.2-0.1,0.3-0.2,0.5-0.3c4-3.4,8.3-6.6,12.2-10.3
		c2.7-2.6,4.9-5.7,6.7-8.9c1.3-2.3,2.8-5.1,1.9-7.8c-1.1-3.2-4.4-3-7.2-2.7c-3.5,0.3-7,0.8-10.5,1.1c-6,0.6-12.1,1.1-18.1,1.5
		c-0.3,0-0.5,0.1-0.7,0.2c-0.4-0.4-0.8-0.7-1.2-1c-1.6-1.3-3.3-2.5-5-3.6c-3.3-2.3-6.8-4.3-10.4-6.1c-7.2-3.5-14.9-6.1-22.8-7.7
		c-0.2,0-0.3-0.1-0.5-0.1c5-4.9,9.5-10.3,13.5-15.9c4.5-6.4,8.3-13.3,11.4-20.5c3.4-8.1,6.5-17,6.2-26c-0.3-7.6-3.5-15.4-10-19.8
		c-6.8-4.7-16-3.9-23,0c-7.2,4-12.3,10.9-16.3,17.9c-0.1,0.2-0.2,0.4-0.3,0.6c-3.3-8.1-7.5-16.5-16-20c-8.4-3.5-17.2,0.9-21.6,8.3
		c-4.9,8.1-5,18.7-4.1,27.8c0.8,9,3.2,17.7,6.9,25.9c3.7,8.3,8.9,15.8,15.5,22.1c-3.4,0.7-6.7,1.6-10,2.6
		c-5.5,1.7-10.8,3.9-15.8,6.6c-0.1-0.7-0.2-1.3-0.4-2c-2.2-10.7-6.1-21-11.4-30.6c-1.5-2.6-3.1-5.2-4.8-7.7c-0.7-1-1.4-2-2.1-3
		c1-0.9,1.8-1.9,2.4-3.1c1.4-3.1,1.2-6.6-0.6-9.5c-1.8-2.9-4.7-4.9-8.1-5.2c-1.7-0.1-3.3,0.2-4.9,1c-0.1,0-0.1,0-0.2,0
		c-0.5,0.1-0.9,0.4-1.2,0.8c-0.8,0.6-1.6,1.2-2.2,1.9c-2.1,2.5-3.3,6-2.2,9.2c0.6,1.8,1.7,3.2,3.2,4.3c0.1,0.1,0.2,0.3,0.4,0.4
		c2.2,2.3,5.3,3.2,8.4,2.6c0.6,0.9,1.3,1.9,1.9,2.8c1.5,2.2,2.9,4.5,4.3,6.8c2.6,4.4,4.8,9.1,6.7,13.8c2.5,6.5,4.5,13.3,5.8,20.1
		c-5.6,3.4-10.9,7.5-15.6,12.1c-1.5,1.5-3,3.1-4.4,4.7c-0.1-0.4-0.1-0.7-0.2-1.1c-1.2-4.9-2.9-9.6-4.9-14.3
		c-4-9.2-9.4-17.7-15.9-25.3c-1.8-2-3.6-4-5.6-5.9c-0.9-0.8-1.7-1.7-2.7-2.5c1-1.3,1.6-2.9,1.8-4.6c0.3-2.9-1.1-5.9-3.4-7.8
		c-2.4-1.9-5.5-2.9-8.5-2c-1.1,0.3-2.1,0.8-3,1.5c-0.6,0.2-1.1,0.6-1.3,1.2c-0.7,0.7-1.3,1.6-1.7,2.5c-1,2.1-1.3,4.5-0.6,6.7
		c0.1,0.5,0.3,1.1,0.6,1.5c0,0,0,0,0,0c0.8,1.5,2.2,2.6,3.7,3.3c0.3,0.2,0.6,0.5,1,0.7c2.3,1.3,5,1.4,7.4,0.4
		c0.7,0.7,1.4,1.4,2.2,2.1c1.7,1.6,3.4,3.3,5,5.1c3.2,3.5,6.1,7.3,8.7,11.2c5.3,8,9.4,16.7,12.3,25.9c0.6,1.9,1.2,3.9,1.7,5.8
		c-6.2,8.2-10.9,17.4-14.1,27.1c-5.2,15.7-5,34,3.4,48.6c3.6,6.3,8.2,12.3,13.8,16.9c5.6,4.7,12,8,19,10c4.2,1.2,8.6,2,12.9,2.8
		c4.6,0.8,9.2,1.4,13.9,1.8c4.2,0.3,8.4,0.5,12.5,0.4c0.2,0.3,0.6,0.4,1,0.3c0.4-0.1,0.7-0.2,1-0.4c4.5-0.2,8.9-0.6,13.4-1.3
		c16.5-2.7,32-10.4,44.5-21.3C256.7,274.7,266,261,270,245.7z M122.4,128.2C122.4,128.2,122.3,128.2,122.4,128.2
		C122.3,128.2,122.3,128.1,122.4,128.2C122.3,128.1,122.4,128.2,122.4,128.2C122.4,128.2,122.4,128.2,122.4,128.2z M124.6,128.9
		C124.6,129,124.6,129,124.6,128.9C124.6,129,124.5,129,124.6,128.9z M124.7,128.8C124.7,128.8,124.7,128.8,124.7,128.8
		C124.7,128.9,124.7,128.9,124.7,128.8C124.7,128.9,124.7,128.9,124.7,128.8z M92.5,143.3c0,0.1,0,0.1,0.1-0.1c0,0,0,0,0,0
		C92.5,143.2,92.5,143.2,92.5,143.3C92.5,143.2,92.5,143.3,92.5,143.3z M89,144.2C89,144.2,89,144.2,89,144.2
		C88.9,144.2,88.9,144.2,89,144.2z M89.1,144.2c0,0,0,0,0.2,0c0,0,0,0,0,0C89.2,144.2,89.1,144.2,89.1,144.2z M90.2,143.9
		C90.3,143.9,90.3,143.9,90.2,143.9C90.3,143.9,90.3,143.9,90.2,143.9C90.3,143.9,90.2,143.9,90.2,143.9z M88.8,144.2
		C88.8,144.2,88.8,144.2,88.8,144.2C88.8,144.2,88.8,144.2,88.8,144.2z M281.8,186.1c0.9-0.1,1.7-0.2,2.6-0.3
		c1.1-0.1,2.6-0.5,3.7-0.2c2,0.5-0.2,4.3-0.7,5.2c-1.8,3-3.5,5.8-6.1,8.2c-3.6,3.5-7.6,6.5-11.4,9.7c-1-3.7-2.4-7.3-4.1-10.8
		c-1.7-3.6-4-6.7-6.3-9.9c0,0,0,0,0,0C267,187.5,274.4,186.9,281.8,186.1z M252.9,186.4c1.2,0.9,2.5,1.7,3.7,2.5
		c0,0.2,0.1,0.4,0.3,0.6c4.4,6.2,7.1,13.9,8.9,21.2c1.8,7.5,2.2,15.3,1.4,23c-1.3,12.9-6.4,25.1-14.2,35.4c1.1-2.6,2.1-5.3,2.9-8
		c2.5-7.9,3.9-16.3,4.4-24.5c0.5-8.2-0.1-16.4-1.7-24.4c-1.4-7-3.7-13.8-7.3-20c-2.9-5-6.7-9.6-10.9-13.6c2.7,1.4,5.2,2.9,7.8,4.5
		C249.8,184.2,251.4,185.3,252.9,186.4z M232.8,175.1c0,0.3,0.1,0.6,0.4,0.8c5.3,4.8,10.4,9.9,14.2,16c3.6,5.7,6,12,7.5,18.6
		c3.5,15.4,2.9,31.6-1.3,46.7c-1.2,4.3-2.6,8.5-4.3,12.6c-1.3,2.9-2.8,5.7-4.3,8.5c-2.2,2.2-4.6,4.2-7,6.2c0.1-0.1,0.2-0.3,0.3-0.4
		c2.4-3.9,4.2-8.2,5.4-12.6c2.5-9,2.9-18.5,2.5-27.8c-0.2-4.7-0.7-9.4-1.2-14c-0.6-4.9-1.2-9.8-2.2-14.6c-1.9-9.5-5.1-19-10.4-27.1
		c-5-7.7-12-14.6-21-17.2c0.4-0.3,0.7-0.7,1.1-1C219.4,170.7,226.2,172.5,232.8,175.1z M193.9,178.8c-1-3.2-1.9-6.4-2.6-9.6
		c4.4-0.4,8.9-0.4,13.3-0.2c1,0.1,2,0.1,3,0.2c-3.2,2.6-6.5,5-10,7.3C196.4,177.3,195.1,178,193.9,178.8z M209.6,91.2
		c5.5-5.2,13.5-8.5,21.1-6.3c6.9,2.1,11.1,8.8,12.4,15.6c1.6,8.5-1.2,17.3-4.2,25.1c-2.7,6.9-6.1,13.5-10.1,19.7
		c-4.1,6.2-8.8,12-14,17.3c-1.1,1.1-2.3,2.2-3.4,3.3c-6.9-1-13.9-1.2-20.9-0.6c-2-10.6-2.3-21.4-0.5-32.1c1.3-7.8,3.5-15.5,6.8-22.7
		C199.9,103.5,204,96.5,209.6,91.2z M159.1,124c-1.4-8.2-1.8-17.4,0.6-25.5c2.1-7.4,8.4-15,16.9-13.8c10.3,1.4,15,12.3,18.7,20.7
		c0.1,0.2,0.2,0.3,0.3,0.4c-3.2,6.2-5.6,12.9-7.2,19.7c-2,8.1-2.8,16.5-2.6,24.8c0.1,5.1,0.6,10.3,1.7,15.3c-2.4,0.3-4.8,0.6-7.2,1
		C169.4,154.7,161.7,139.9,159.1,124z M148.4,189.3c0.1,1,0.2,2.1,0.3,3.1c-4.7-0.9-9.5-0.6-13.8,1.1c3.9-3.8,8.2-7.1,12.8-10
		C148,185.4,148.2,187.3,148.4,189.3z M137.3,294.7c-5.9-3.1-11-7.4-15.2-12.6c-4.7-5.9-8.4-12.6-10.3-20c-2-7.7-2.3-15.8-1-23.6
		c1.2-7.2,3.7-14.2,6.8-20.8c2-4.2,4.4-8.3,7-12.2c0.3,1.5,0.6,3,0.8,4.6c0.3,1.9,3.5,1.5,3.4-0.5c-0.2-2.8-0.5-5.6-1-8.4
		c0.1-0.2,0.2-0.3,0.4-0.5c0,0,0,0,0.1-0.1c0.2,0,0.4-0.1,0.5-0.3c5.3-5,13-6.2,20-4.5c0.2,3.7,0.2,7.5,0,11.2
		c-0.1,1,0.9,1.9,1.9,1.9c1.1,0,1.8-0.9,1.9-1.9c0.4-3.2,0.7-6.4,0.9-9.7c0.6,0.3,1.2,0.5,1.7,0.8c9,4.9,15.1,13.7,19.5,22.7
		c8.9,18.7,9.6,41.2,1.9,60.5c-1,2.6-2.2,5.2-3.8,7.6c-1.4,2.1-3.3,3.9-5.3,5.5c-2.3,1.9-4.6,3.6-7.4,4.6c-2.7,0.9-5.2,0.9-8,0.6
		C147.1,298.5,142,297.1,137.3,294.7z M163.2,301.6c1.4-0.6,2.6-1.4,3.8-2.2c4.3-3.1,8.3-6.8,10.7-11.5c5.1-10.1,7.7-21.5,7.9-32.8
		c0.2-11.2-1.9-22.4-6.3-32.7c-4.3-10.1-10.8-20.1-20.2-26c-1.7-1.1-3.5-1.9-5.4-2.6c0-1,0-2,0-3c-0.1-3.4-0.5-6.8-1-10.2
		c2.1-1.1,4.2-2.2,6.3-3.1c3.1-0.5,6.3-0.1,9.4,0.3c2.9,0.4,5.9,1,8.7,1.9c5.8,1.9,11.2,5.1,15.8,9.1c9.7,8.5,15.6,20.5,18.6,32.9
		c2.6,10.4,3.4,21.3,3,32c-0.4,9.7-2.1,19.6-6.2,28.5c-2.3,4.9-5.3,9.4-9,13.4c-1.9,2.1-4,3.9-6.2,5.7c-0.7,0.5-1.4,1-2.2,1.5
		C181.6,303.4,172.3,302.9,163.2,301.6z M196.5,302.1c1.2-0.9,2.3-1.8,3.3-2.8c3.8-3.5,6.9-7.7,9.4-12.2c5-9.2,7.3-19.6,8.1-29.9
		c0.8-10.9,0.1-22-2.1-32.7c-2.7-13.2-8.3-26.2-18-35.8c-5.1-5-11.3-8.9-18.1-11.3c-3.3-1.1-6.7-2-10.1-2.2
		c-2.1-0.1-4.1,0.1-6.1,0.4c8.1-3.2,16.6-5.3,25.3-6.2c0.5,1.8,1,3.6,1.6,5.3c0.7,1.8,1.4,3.6,2.2,5.4c-0.6,1.5,1,3.7,2.9,2.6
		c5-3,9.8-6.5,14.3-10.3c0.1,0.4,0.4,0.8,1,1c16.3,5.9,24.6,23.4,28.3,39.2c2.1,8.9,3.1,18.3,3.8,27.4c0.6,8.9,0.7,18-1.2,26.7
		c-1,4.7-2.6,9.4-4.9,13.7c-1.1,2.1-2.4,4.2-3.7,6.2c-0.7,1.1-1.5,2.1-2.4,3c-0.1,0.1-0.2,0.2-0.2,0.3c-5.8,3.6-11.9,6.5-18.3,8.6
		C206.7,300.3,201.6,301.4,196.5,302.1z"/>
	<path class="st4" d="M156,237.5c0,0.1,0.1,0.2,0.1,0.2c0.3,0.6,0.6,1.1,1,1.6c0.1,0.2,0.3,0.3,0.5,0.5c0.3,0.5,0.8,1,1.3,1.4
		c0.2,0.2,0.5,0.3,0.8,0.4c0.2,0.2,0.5,0.3,0.8,0.5c1.7,0.9,3.7,0.9,5.5,0c1.4-0.8,2.5-2.2,3-3.8c0.8-1.6,1.1-3.5,0.8-5.3
		c-0.4-2.3-1.9-4.1-3.9-5.2c-0.2-0.3-0.4-0.7-0.6-1c-0.6-0.9-1.5-1.2-2.5-1c-1,0.1-1.9,0.5-2.8,1c0,0-0.1,0-0.1,0c0,0,0,0-0.1,0
		c-1.6,0.9-3,2.4-3.7,4c-0.9,2.1-0.9,4.3-0.1,6.2C155.9,237.3,156,237.4,156,237.5z M162.6,236.8c0.1,0,0.2,0,0.2,0
		C162.8,236.8,162.7,236.9,162.6,236.8C162.6,236.9,162.6,236.9,162.6,236.8z M163.4,236.8c0.1,0,0.1-0.1,0.1-0.1
		C163.5,236.7,163.4,236.8,163.4,236.8C163.4,236.8,163.4,236.8,163.4,236.8z M163.6,236.7C163.6,236.7,163.6,236.7,163.6,236.7
		C163.6,236.7,163.6,236.7,163.6,236.7C163.6,236.7,163.6,236.7,163.6,236.7C163.6,236.7,163.6,236.7,163.6,236.7z"/>
	<path class="st4" d="M128.4,233.1c-0.4-2.3-1.9-4.1-3.9-5.2c-0.2-0.3-0.4-0.7-0.6-1c-0.6-0.9-1.5-1.2-2.5-1c-1,0.1-1.9,0.5-2.8,1
		c0,0-0.1,0-0.1,0c0,0,0,0-0.1,0c-1.6,0.9-3,2.4-3.7,4c-0.9,2.1-0.9,4.3-0.1,6.2c0,0.1,0.1,0.1,0.1,0.2c0,0.1,0.1,0.2,0.1,0.2
		c0.3,0.6,0.6,1.1,1,1.6c0.1,0.2,0.3,0.3,0.5,0.5c0.3,0.5,0.8,1,1.3,1.4c0.2,0.2,0.5,0.3,0.8,0.4c0.2,0.2,0.5,0.3,0.8,0.5
		c1.7,0.9,3.7,0.9,5.5,0c1.4-0.8,2.5-2.2,3-3.8C128.5,236.8,128.8,234.9,128.4,233.1z M121.3,236.8c0.1,0,0.2,0,0.2,0
		C121.5,236.8,121.4,236.9,121.3,236.8C121.3,236.9,121.3,236.9,121.3,236.8z M122.1,236.8c0.1,0,0.1-0.1,0.1-0.1
		C122.2,236.7,122.2,236.8,122.1,236.8C122.1,236.8,122.1,236.8,122.1,236.8z M122.4,236.7C122.4,236.7,122.4,236.7,122.4,236.7
		C122.4,236.7,122.4,236.7,122.4,236.7C122.4,236.7,122.4,236.7,122.4,236.7C122.3,236.7,122.3,236.7,122.4,236.7z"/>
	<path class="st4" d="M147.9,242.1c-0.4,0.4-0.6,0.8-0.8,1.4c0,0.1,0,0.1,0,0.1c0,0,0,0,0,0.1c-0.1,0.1-0.1,0.3-0.2,0.4
		c-0.4,0.7-0.6,0.9-1,1.4c-0.2,0.2-0.4,0.4-0.7,0.6c-0.1,0-0.3,0.2-0.3,0.2c-0.1,0.1-0.3,0.2-0.4,0.2c-0.1,0.1-0.3,0.1-0.4,0.2
		c0,0-0.1,0-0.1,0c0,0,0,0-0.1,0c-0.3,0.1-0.7,0.2-1,0.3c-0.3,0.1,0,0-0.2,0c-0.2,0-0.3,0-0.5,0c-0.3,0-0.6,0-0.9,0
		c-0.1,0-0.4-0.1-0.3-0.1c-0.2,0-0.3-0.1-0.5-0.1c-0.3-0.1-0.6-0.2-0.9-0.3c-1-0.4-2-1.2-2.7-2.2c-0.9-1.5-3.1-0.2-2.4,1.4
		c1.6,3.5,5.4,5.4,9.1,4.8c1.8-0.3,3.4-1.1,4.7-2.3c1.3-1.2,2.9-3.4,2.4-5.3C150.5,241.6,148.8,241.1,147.9,242.1z"/>
	<path class="st4" d="M412.3,315.4c-0.8-0.5-1.9-0.1-2.4,0.7c-2,3.7-4.1,7.4-6.3,10.9c-0.5,0.8-0.3,1.9,0.6,2.4
		c0.3,0.2,0.6,0.3,0.9,0.3c0.6,0,1.2-0.3,1.5-0.8c2.2-3.6,4.4-7.3,6.4-11.1C413.5,317,413.1,315.9,412.3,315.4z"/>
	<path class="st4" d="M178.8,345.2c-3.7-2.5-7.3-4.6-11-6.6c-0.9-0.5-1.9-0.1-2.4,0.7c-0.5,0.9-0.1,1.9,0.7,2.4
		c3.6,1.9,7.1,4,10.7,6.4c0.3,0.2,0.6,0.3,1,0.3c0.6,0,1.1-0.3,1.5-0.8C179.8,346.9,179.6,345.8,178.8,345.2z"/>
	<path class="st4" d="M429.9,272.5c-0.9-0.3-1.9,0.2-2.2,1.2c-1.2,3.9-2.5,7.9-4,11.9c-0.3,0.9,0.1,1.9,1,2.3
		c0.2,0.1,0.4,0.1,0.6,0.1c0.7,0,1.4-0.4,1.6-1.2c1.5-4.1,2.9-8.1,4.1-12.1C431.4,273.7,430.9,272.8,429.9,272.5z"/>
	<path class="st4" d="M135.7,327.2c-4-0.8-8.3-1.5-12.6-2c-1-0.1-1.8,0.6-1.9,1.5c-0.1,1,0.6,1.8,1.5,1.9c4.2,0.5,8.4,1.2,12.3,2
		c0.1,0,0.2,0,0.4,0c0.8,0,1.5-0.6,1.7-1.4C137.2,328.4,136.6,327.4,135.7,327.2z"/>
	<path class="st4" d="M197.5,359.3c-3.1-2.5-6.5-5.3-10-7.9c-0.8-0.6-1.9-0.4-2.5,0.3c-0.6,0.8-0.4,1.9,0.3,2.5
		c3.4,2.6,6.8,5.3,9.9,7.8c0.3,0.3,0.7,0.4,1.1,0.4c0.5,0,1-0.2,1.4-0.6C198.3,361,198.2,359.9,197.5,359.3z"/>
	<path class="st4" d="M421.1,199.8c0.4,0,0.8-0.1,1.1-0.4c0.8-0.6,0.9-1.7,0.3-2.5c-2.7-3.5-5.7-6.6-8.9-9.5
		c-0.7-0.6-1.8-0.6-2.5,0.2c-0.6,0.7-0.6,1.8,0.2,2.5c3,2.7,5.9,5.7,8.4,9C420,199.6,420.5,199.8,421.1,199.8z"/>
	<path class="st4" d="M436.9,228.1c-0.1-1-1-1.6-2-1.5c-1,0.1-1.6,1-1.5,2c0.4,2.6,0.5,5.5,0.5,8.5c0,1.2,0,2.5-0.1,3.8
		c0,1,0.7,1.8,1.7,1.8c0,0,0.1,0,0.1,0c0.9,0,1.7-0.7,1.8-1.7c0.1-1.4,0.1-2.7,0.1-4C437.5,233.9,437.3,230.9,436.9,228.1z"/>
	<path class="st4" d="M422.2,294.4c-0.9-0.4-1.9,0-2.3,0.9c-1.6,3.8-3.4,7.7-5.2,11.5c-0.4,0.9-0.1,1.9,0.8,2.3
		c0.2,0.1,0.5,0.2,0.8,0.2c0.7,0,1.3-0.4,1.6-1c1.9-3.8,3.6-7.7,5.3-11.6C423.5,295.8,423.1,294.8,422.2,294.4z"/>
	<path class="st4" d="M434.8,249.8c-1-0.1-1.9,0.5-2,1.5c-0.6,3.9-1.4,8.1-2.4,12.3c-0.2,0.9,0.4,1.9,1.3,2.1c0.1,0,0.3,0,0.4,0
		c0.8,0,1.5-0.5,1.7-1.4c1-4.3,1.8-8.6,2.4-12.6C436.5,250.8,435.8,249.9,434.8,249.8z"/>
	<path class="st4" d="M112.4,324.3c-4.1-0.2-8.4-0.3-12.8-0.3c-1,0-1.8,0.8-1.7,1.8c0,1,0.8,1.7,1.8,1.7c0,0,0,0,0,0
		c4.3,0,8.5,0.1,12.5,0.3c0,0,0.1,0,0.1,0c0.9,0,1.7-0.7,1.8-1.7C114.1,325.2,113.4,324.4,112.4,324.3z"/>
	<path class="st4" d="M158.1,334.1c-3.9-1.6-8-3.1-12.1-4.3c-0.9-0.3-1.9,0.3-2.2,1.2s0.3,1.9,1.2,2.2c4,1.2,8,2.6,11.7,4.1
		c0.2,0.1,0.4,0.1,0.7,0.1c0.7,0,1.3-0.4,1.6-1.1C159.5,335.5,159,334.5,158.1,334.1z"/>
	<path class="st4" d="M369.9,173.3c4.2,0.4,8.4,1.1,12.2,2.1c0.1,0,0.3,0,0.4,0c0.8,0,1.5-0.5,1.7-1.3c0.2-0.9-0.4-1.9-1.3-2.1
		c-4-1-8.3-1.7-12.7-2.1c-1-0.1-1.8,0.6-1.9,1.6C368.3,172.4,369,173.2,369.9,173.3z"/>
	<path class="st4" d="M333.6,369.4c0.3,0.5,0.9,0.8,1.5,0.8c0.3,0,0.7-0.1,1-0.3c3.6-2.4,7.1-5.1,10.2-7.9c0.7-0.7,0.8-1.8,0.1-2.5
		c-0.7-0.7-1.8-0.8-2.5-0.1c-3,2.7-6.3,5.3-9.8,7.6C333.2,367.5,333,368.6,333.6,369.4z"/>
	<path class="st4" d="M346.9,173.3c0.1,0,0.1,0,0.2,0c4.1-0.4,8-0.5,11.8-0.5l0.7,0c0.9,0,1.8-0.8,1.8-1.7c0-1-0.8-1.8-1.7-1.8
		l-0.7,0c-3.9,0-8,0.2-12.1,0.5c-1,0.1-1.7,0.9-1.6,1.9C345.2,172.7,346,173.3,346.9,173.3z"/>
	<path class="st4" d="M215.8,373.3c-3-2-6.3-4.4-10.1-7.4c-0.8-0.6-1.9-0.5-2.5,0.3c-0.6,0.8-0.5,1.9,0.3,2.5
		c3.9,3.1,7.2,5.5,10.3,7.6c0.3,0.2,0.6,0.3,1,0.3c0.6,0,1.1-0.3,1.5-0.8C216.8,374.9,216.6,373.8,215.8,373.3z"/>
	<path class="st4" d="M430.8,218.8c0.3,0.7,0.9,1.1,1.6,1.1c0.2,0,0.4,0,0.7-0.1c0.9-0.4,1.3-1.4,1-2.3c-1.7-4.1-3.6-8-5.6-11.6
		c-0.5-0.8-1.6-1.1-2.4-0.6c-0.8,0.5-1.1,1.6-0.6,2.4C427.4,211.1,429.2,214.9,430.8,218.8z"/>
	<path class="st4" d="M324,176.9c0.1,0,0.2,0,0.4,0c4.2-0.9,8.4-1.7,12.4-2.3c1-0.1,1.6-1,1.5-2c-0.1-1-1-1.6-2-1.5
		c-4,0.6-8.3,1.4-12.6,2.3c-0.9,0.2-1.6,1.1-1.3,2.1C322.4,176.3,323.2,176.9,324,176.9z"/>
	<path class="st4" d="M65.8,326.6l-1.2,0.2c-1,0.1-1.6,1-1.5,2c0.1,0.9,0.9,1.5,1.7,1.5c0.1,0,0.2,0,0.2,0l1.2-0.2
		c1-0.1,1.6-1,1.5-2C67.6,327.1,66.7,326.4,65.8,326.6z"/>
	<path class="st4" d="M301.5,182.8c0.2,0,0.3,0,0.5-0.1c4.3-1.3,8.3-2.4,12.1-3.4c0.9-0.2,1.5-1.2,1.3-2.1c-0.2-0.9-1.2-1.5-2.1-1.3
		c-3.9,1-7.9,2.1-12.3,3.5c-0.9,0.3-1.5,1.3-1.2,2.2C300,182.3,300.7,182.8,301.5,182.8z"/>
	<path class="st4" d="M321,307.6c0.2,0.7,0.8,1.2,1.5,1.2c0.1,0,0.1,0,0.2,0c0.6,0,1.2-0.3,1.5-0.9c0.3-0.5,0.5-0.9,0.8-1.3
		c0.5-0.8,0.2-1.9-0.6-2.4c-0.3-0.2-0.6-0.2-0.9-0.2c-1.1-2.9-2.4-5.6-4-7.9c-0.5-0.8-1.6-1-2.4-0.5c-0.8,0.5-1,1.6-0.5,2.4
		C318.4,300.7,319.9,304,321,307.6z"/>
	<path class="st4" d="M89,324.4c-4.1,0.2-8.4,0.5-12.7,1c-1,0.1-1.7,1-1.6,1.9c0.1,0.9,0.9,1.6,1.7,1.6c0.1,0,0.1,0,0.2,0
		c4.3-0.4,8.5-0.7,12.6-1c1-0.1,1.7-0.9,1.7-1.8C90.8,325.1,90,324.3,89,324.4z"/>
	<path class="st4" d="M325.1,372.2c-1.8,0.9-3.7,1.8-5.6,2.7c-1.9-1-3.8-2.2-5.6-3.6c-0.8-0.6-1.9-0.4-2.5,0.4
		c-0.6,0.8-0.4,1.9,0.4,2.5c1.2,0.9,2.4,1.7,3.6,2.5c-0.6,0.2-1.2,0.5-1.7,0.7c-0.9,0.3-1.4,1.4-1,2.3c0.3,0.7,0.9,1.1,1.6,1.1
		c0.2,0,0.4,0,0.6-0.1c1.5-0.6,3-1.2,4.4-1.8c1.3,0.6,2.6,1.2,3.9,1.7c0.9,0.3,1.9-0.1,2.3-1c0.3-0.9-0.1-1.9-1-2.3
		c-0.3-0.1-0.6-0.2-0.9-0.3c1.1-0.5,2.1-1,3.1-1.5c0.9-0.4,1.2-1.5,0.8-2.4S326,371.8,325.1,372.2z"/>
	<path class="st4" d="M284.2,325.1c-1-4.2-1.6-8.1-1.6-11.9l0-0.2c0-1-0.8-1.8-1.7-1.8c0,0,0,0,0,0c-1,0-1.7,0.8-1.8,1.7l0,0.3
		c0,4,0.6,8.3,1.7,12.7c0.2,0.8,0.9,1.3,1.7,1.3c0.1,0,0.3,0,0.4-0.1C283.9,327,284.5,326,284.2,325.1z"/>
	<path class="st4" d="M292.3,348.4c0.8-0.5,1.1-1.6,0.7-2.4c-2.2-3.8-4-7.5-5.5-11.2c-0.4-0.9-1.4-1.3-2.3-1c-0.9,0.4-1.3,1.4-1,2.3
		c1.5,3.8,3.5,7.7,5.7,11.6c0.3,0.6,0.9,0.9,1.5,0.9C291.7,348.7,292,348.6,292.3,348.4z"/>
	<path class="st4" d="M405.4,183.5c0.5-0.8,0.3-1.9-0.6-2.4c-3.6-2.3-7.5-4.2-11.6-5.8c-0.9-0.4-1.9,0.1-2.3,1
		c-0.4,0.9,0.1,1.9,1,2.3c3.9,1.5,7.6,3.4,11,5.5c0.3,0.2,0.6,0.3,0.9,0.3C404.5,184.3,405.1,184,405.4,183.5z"/>
	<path class="st4" d="M312.1,290.7c0.5-0.8,0.2-1.9-0.6-2.4c-4.1-2.5-8.8-3.4-13.4-2.6c-1,0.2-1.6,1.1-1.4,2c0.2,1,1.1,1.6,2,1.4
		c3.7-0.6,7.6,0.2,11,2.2c0.3,0.2,0.6,0.2,0.9,0.2C311.2,291.5,311.8,291.2,312.1,290.7z"/>
	<path class="st4" d="M303.8,380.6c-3.9,1.1-8,2.1-12.2,2.9c-1,0.2-1.6,1.1-1.4,2.1c0.2,0.8,0.9,1.4,1.7,1.4c0.1,0,0.2,0,0.3,0
		c4.3-0.8,8.5-1.8,12.5-3c0.9-0.3,1.5-1.2,1.2-2.2C305.7,380.8,304.8,380.3,303.8,380.6z"/>
	<path class="st4" d="M287.9,290.6c-3.2,2.9-5.6,6.8-7.1,11.4c-0.3,0.9,0.2,1.9,1.1,2.2c0.2,0.1,0.4,0.1,0.5,0.1
		c0.7,0,1.4-0.5,1.7-1.2c1.3-4,3.4-7.4,6.1-9.9c0.7-0.7,0.8-1.8,0.1-2.5C289.7,290,288.6,290,287.9,290.6z"/>
	<path class="st4" d="M236.1,383.2c-3.9-1.2-7.6-2.7-11.4-4.7c-0.9-0.4-1.9-0.1-2.4,0.8c-0.4,0.9-0.1,1.9,0.8,2.4
		c4,2,7.9,3.6,12,4.9c0.2,0.1,0.3,0.1,0.5,0.1c0.7,0,1.4-0.5,1.7-1.2C237.5,384.5,237,383.5,236.1,383.2z"/>
	<path class="st4" d="M281.3,385.1c-4,0.5-8.3,0.9-12.5,1.1c-1,0.1-1.7,0.9-1.7,1.9c0.1,0.9,0.8,1.7,1.8,1.7c0,0,0.1,0,0.1,0
		c4.3-0.3,8.6-0.6,12.7-1.2c1-0.1,1.6-1,1.5-2C283.2,385.6,282.3,385,281.3,385.1z"/>
	<path class="st4" d="M258.4,386.5c-4.3,0-8.4-0.4-12.3-1c-1-0.1-1.9,0.5-2,1.5c-0.2,1,0.5,1.9,1.5,2c4.1,0.6,8.4,1,12.8,1
		c0,0,0,0,0,0c1,0,1.7-0.8,1.8-1.7C260.1,387.3,259.4,386.5,258.4,386.5z"/>
	<path class="st4" d="M298.5,354.8c-0.6-0.8-1.6-1-2.4-0.4c-0.8,0.6-1,1.7-0.4,2.4c2.6,3.7,5.3,7.1,8.1,10c0.3,0.4,0.8,0.5,1.3,0.5
		c0.4,0,0.9-0.2,1.2-0.5c0.7-0.7,0.7-1.8,0.1-2.5C303.7,361.6,301,358.4,298.5,354.8z"/>
	<path class="st4" d="M340.2,290.7c0.9-0.5,1.2-1.5,0.7-2.4c-0.5-0.9-1.5-1.2-2.4-0.7c-3.6,1.9-7,4.8-10.2,8.4
		c-0.6,0.7-0.6,1.8,0.2,2.5c0.3,0.3,0.7,0.4,1.2,0.4c0.5,0,1-0.2,1.3-0.6C333.8,295,337,292.4,340.2,290.7z"/>
	<path class="st4" d="M383.6,353.8c-2.9,3.2-5.9,6.1-8.9,8.8c-0.7,0.6-0.8,1.8-0.2,2.5c0.3,0.4,0.8,0.6,1.3,0.6
		c0.4,0,0.8-0.1,1.2-0.4c3.1-2.7,6.1-5.7,9.2-9c0.7-0.7,0.6-1.8-0.1-2.5C385.3,353.1,384.2,353.1,383.6,353.8z"/>
	<path class="st4" d="M400.3,335.4c-0.8-0.6-1.9-0.4-2.4,0.4c-2.4,3.5-5,6.9-7.5,10.1c-0.6,0.8-0.5,1.9,0.3,2.5
		c0.3,0.3,0.7,0.4,1.1,0.4c0.5,0,1-0.2,1.4-0.7c2.6-3.2,5.2-6.7,7.6-10.3C401.3,337,401.1,335.9,400.3,335.4z"/>
	<path class="st4" d="M369.1,319.8c-0.9-0.2-1.9,0.4-2.1,1.3c-0.8,3.8-2.2,7.7-3.9,11.7c-0.4,0.9,0,1.9,0.9,2.3
		c0.2,0.1,0.5,0.2,0.7,0.2c0.7,0,1.3-0.4,1.6-1c1.9-4.2,3.3-8.3,4.1-12.3C370.6,320.9,370,320,369.1,319.8z"/>
	<path class="st4" d="M366.7,297.1c-0.9,0.4-1.3,1.4-0.9,2.3c1.5,3.4,2.3,7.3,2.3,11.7c0,1,0.8,1.7,1.8,1.7c0,0,0,0,0,0
		c1,0,1.7-0.8,1.7-1.8c-0.1-4.8-0.9-9.2-2.6-13C368.6,297.1,367.6,296.7,366.7,297.1z"/>
	<path class="st4" d="M366.5,369c-3.6,2.5-7.1,4.6-10.7,6.2c-0.9,0.4-1.3,1.5-0.9,2.3c0.3,0.6,0.9,1,1.6,1c0.2,0,0.5-0.1,0.7-0.2
		c3.7-1.7,7.5-3.9,11.2-6.5c0.8-0.6,1-1.7,0.4-2.4S367.3,368.5,366.5,369z"/>
	<path class="st4" d="M361.1,292c0.5,0,1-0.2,1.4-0.7c0.6-0.8,0.5-1.9-0.3-2.5c-3.6-2.9-7.8-4.4-12.4-4.4c-0.2,0-0.3,0-0.5,0
		c-1,0-1.7,0.8-1.7,1.8c0,1,0.8,1.7,1.8,1.7c0,0,0,0,0,0c0.1,0,0.3,0,0.4,0c3.7,0,7.3,1.2,10.2,3.6C360.4,291.9,360.8,292,361.1,292
		z"/>
	<path class="st4" d="M346.3,378.6c-4.1,0.9-8.1,1.3-12,0.9c-1-0.1-1.8,0.6-1.9,1.6c-0.1,1,0.6,1.8,1.6,1.9c1.1,0.1,2.3,0.1,3.4,0.1
		c3.2,0,6.4-0.4,9.7-1.1c0.9-0.2,1.5-1.2,1.3-2.1C348.2,378.9,347.2,378.3,346.3,378.6z"/>
	<path class="st4" d="M360.7,341.3c-0.8-0.5-1.9-0.2-2.4,0.6c-2.1,3.5-4.6,6.9-7.2,10c-0.6,0.7-0.5,1.8,0.2,2.5
		c0.3,0.3,0.7,0.4,1.1,0.4c0.5,0,1-0.2,1.3-0.6c2.8-3.3,5.3-6.8,7.6-10.5C361.8,342.9,361.5,341.8,360.7,341.3z"/>
</g>
<g id="Glow">
	<ellipse class="st5" cx="165.8" cy="233.9" rx="3.2" ry="3.8"/>
	<ellipse class="st5" cx="124.3" cy="233.9" rx="3.2" ry="3.8"/>
</g>
</svg>
