<?xml version="1.0" encoding="utf-8"?>
<!-- Generator: Adobe Illustrator 26.3.1, SVG Export Plug-In . SVG Version: 6.00 Build 0)  -->
<svg version="1.1" id="krone" xmlns="http://www.w3.org/2000/svg" xmlns:xlink="http://www.w3.org/1999/xlink" x="0px" y="0px"
	 viewBox="0 0 500.5 509" style="enable-background:new 0 0 500.5 509;" xml:space="preserve">
<style type="text/css">
	.st0{fill:#F7F5C0;}
	.st1{fill:#EFC6E1;}
	.st2{fill:#211F1B;}
</style>
<g id="Farbe">
	<path class="st0" d="M370.35,164.04c-1.25-0.32-2.65-0.17-4.09,0.73c-19.47,12.17-38.94,24.35-58.42,36.52
		c-12.05-27.97-22.03-56.43-43.32-79.16c-2.51-2.68-6.75-1.75-8.59,1.11c-17.94,27.8-34.42,56.42-52.97,83.81
		c-20.04-14.27-43.18-23.45-63.01-38.11c-2.04-1.51-4.37-0.58-5.71,1.15c-1.32,0.75-2.29,2.02-2.19,3.8
		c1.74,30.91,5.09,61.41,11.01,91.82c2.88,14.77,6.2,29.44,10.17,43.95c2.08,7.58,4.29,15.13,6.64,22.64
		c2.28,7.3,3.71,15.61,10.1,20.44c0.87,0.66,1.87,0.86,2.86,0.79c0.17,0.12,0.33,0.26,0.53,0.37
		c21.74,12.34,44.82,20.03,69.84,21.66c24.53,1.59,49.88-1.86,72.7-11.18c11.91-4.87,25.73-11,33.88-21.42
		c1.16-0.87,2.04-2.06,2.27-3.51c9.21-57.66,19-115.17,24.33-173.35C376.68,162.77,372.06,161.78,370.35,164.04z"/>
	<path class="st1" d="M305.85,215.91c-9.1-3.71-20.11-2.13-28.08,3.5c-9.17,6.47-16.01,16.21-21.59,26.04
		c-4.81-8.23-11.12-15.95-19.96-19.76c-10.07-4.34-21.68-1.21-27.8,7.99c-5.57,8.37-5.95,19.76-2.09,28.87
		c4.9,11.58,15.16,19.6,25.26,26.5c11.28,7.71,23.81,15.8,30.99,27.78c2.38,3.96,7.65,2.07,8.5-1.4c4.9-5.34,8.89-11.56,12.99-17.52
		c4.37-6.36,8.68-12.77,13.02-19.16c7.62-11.22,17.97-23.01,21.19-36.5C320.9,231.33,316.54,220.27,305.85,215.91z"/>
</g>
<g id="ol">
	<path class="st2" d="M378.53,145.48c-0.01,0.07-0.03,0.13-0.04,0.2c-1.16-0.42-2.46-0.38-3.59,0.33
		c-16.54,10.33-33.08,20.66-49.62,31c-3.35,2.09-6.7,4.19-10.05,6.28c-0.03-0.06-0.05-0.12-0.08-0.18c-0.33-0.77-0.67-1.55-1-2.33
		c-0.11-0.26-0.22-0.52-0.33-0.77c0.3,0.71-0.32-0.77-0.38-0.91c-1.18-2.81-2.33-5.63-3.48-8.44c-2.4-5.88-4.79-11.76-7.29-17.6
		c-4.81-11.19-10.16-22.18-16.97-32.3c-4.21-6.25-8.92-12.17-14.1-17.65c-1.93-2.04-5.17-1.35-6.6,0.85
		c-7.99,12.36-15.7,24.89-23.3,37.5c-6.23,10.32-12.46,20.64-19.06,30.73c-3.67,5.62-7.45,11.17-11.27,16.69
		c-7.21-5.36-14.84-10.04-22.73-14.37c-8.78-4.81-17.7-9.37-26.25-14.58c-5.14-3.14-10.19-6.35-14.99-10
		c-1.35-1.03-3.54-0.35-4.46,0.89c-0.03,0.04-0.06,0.1-0.09,0.14c-1.05,0.62-1.83,1.72-1.74,3.01c0.79,11.87,1.56,23.79,2.91,35.62
		c1.35,11.78,2.91,23.53,4.87,35.22c3.78,22.6,8.55,45.05,14.69,67.13c1.76,6.33,3.62,12.64,5.57,18.92
		c1.02,3.27,2.06,6.53,3.12,9.79c1.25,3.83,2.49,7.57,5.47,10.43c0.82,0.78,2.03,1.16,3.22,1.12c0.26,0.32,0.57,0.6,0.94,0.81
		c10.44,5.89,21.49,10.83,32.9,14.5c11.68,3.76,24.14,5.66,36.36,6.43c23.92,1.52,48.57-1.77,70.88-10.68
		c6.4-2.55,12.65-5.46,18.61-8.92c2.79-1.62,5.52-3.35,8.18-5.18c1.7-1.18,3.33-2.42,4.87-3.81c1.25-1.13,2.27-2.42,3.31-3.74
		c0.01-0.01,0.02-0.03,0.03-0.04c0.74-0.62,1.28-1.45,1.44-2.47c3.58-22.35,7.15-44.7,10.73-67.05c3.62-22.6,7.01-45.24,10.04-67.93
		c0.87-6.49,1.57-12.4,2.27-18.98c0.68-6.33,1.36-12.65,2.04-18.98C383.88,143.29,379.13,142.67,378.53,145.48z M365.44,211.88
		c-3.8,22.22-7.45,44.45-11.05,66.7c-1.97,12.17-3.95,24.34-5.92,36.52c-1.67,0.9-3.31,1.85-4.88,2.97
		c-2.34,1.66-4.73,3.24-7.18,4.74c-4.81,2.94-9.82,5.57-14.96,7.88c-0.66,0.3-1.32,0.58-1.99,0.87c-0.01,0-0.01,0.01-0.02,0.01
		c-0.3,0.12-0.6,0.25-0.9,0.37c-1.34,0.55-2.7,1.08-4.06,1.58c-2.73,1.02-5.49,1.95-8.28,2.8c-5.49,1.68-11.08,3.04-16.73,4.09
		c-1.45,0.27-2.9,0.52-4.36,0.75c-0.61,0.1-1.22,0.19-1.82,0.28c-0.37,0.05-0.73,0.1-1.1,0.16c-0.05,0.01-0.09,0.01-0.13,0.02
		c-0.06,0.01-0.12,0.02-0.18,0.02c-2.94,0.38-5.89,0.68-8.84,0.9c-5.8,0.43-11.63,0.57-17.44,0.41c-5.95-0.16-11.86-0.69-17.76-1.4
		c-0.61-0.07-1.22-0.15-1.84-0.22c-0.04-0.01-0.1-0.01-0.15-0.01c-0.32-0.02-0.66-0.1-0.97-0.14c-1.47-0.21-2.94-0.44-4.4-0.69
		c-2.92-0.49-5.82-1.06-8.71-1.71c-6.32-1.42-12.6-2.96-18.76-4.97c-3.09-1.01-6.15-2.11-9.17-3.32c-0.04-0.02-0.52-0.21-0.64-0.26
		c-0.36-0.16-0.73-0.32-1.09-0.48c-0.66-0.3-1.32-0.6-1.97-0.9c-1.52-0.71-3.03-1.45-4.53-2.21c-0.19-0.1-0.39-0.17-0.59-0.24
		c0-0.02,0-0.04,0-0.06c-0.04-0.99-0.23-2.02-0.38-2.99c-0.25-1.58-0.73-3.04-1.23-4.56c-0.95-2.89-1.89-5.78-2.8-8.69
		c-1.75-5.56-3.43-11.15-5.03-16.75c-3.17-11.09-6.07-22.27-8.72-33.51c-5.24-22.22-9.23-44.72-12.75-67.27
		c-1.69-10.8-3.41-21.6-4.98-32.41c6.35,4.84,13.06,9.1,20.05,13.04c8.66,4.87,17.49,9.43,25.9,14.72c5,3.14,9.87,6.56,14.21,10.1
		c2.27,1.85,5.02,1.54,6.73-0.87c7.93-11.16,15.45-22.6,22.63-34.26c6.48-10.51,12.72-21.16,19.16-31.69
		c3.74-6.11,7.54-12.17,11.38-18.21c1.05,1.21,2.09,2.44,3.09,3.69c1.66,2.06,3.36,4.36,5.16,6.97c3.45,5.01,6.54,10.25,9.37,15.63
		c5.81,11.08,9.81,21.17,14.4,32.51c2.71,6.68,5.44,13.35,8.35,19.94c0.93,2.09,4.09,2.67,5.89,1.55
		c16.56-10.29,33.13-20.59,49.69-30.88c3.73-2.32,7.46-4.63,11.19-6.95c-1.69,7.69-3.38,15.38-4.84,23.11
		C369.42,189.65,367.34,200.75,365.44,211.88z"/>
	<path class="st2" d="M312.12,209.08c-9.38-3.71-20.56-1.5-28.44,4.52c-5.3,4.05-9.62,9.14-13.52,14.51
		c-2.55,3.51-4.88,7.18-7.04,10.94c-4.95-8.54-11.63-16.52-20.88-20.26c-5.24-2.12-11.27-2.27-16.53-0.11
		c-4.88,2-8.83,5.64-11.27,10.33c-5.06,9.73-4.13,21.49,1.33,30.82c6.22,10.63,16.62,17.65,26.58,24.42
		c2.64,1.79,5.25,3.64,7.8,5.55c0.27,0.2,0.54,0.4,0.81,0.61c0.08,0.06,0.58,0.44,0.72,0.55c0.6,0.47,1.2,0.94,1.8,1.42
		c1.39,1.12,2.77,2.27,4.11,3.45c2.53,2.22,4.96,4.55,7.2,7.07c0.51,0.58,1.02,1.16,1.51,1.76c0.2,0.24,0.4,0.49,0.6,0.74
		c0.07,0.09,0.38,0.5,0.51,0.65c0.87,1.18,1.69,2.39,2.43,3.66c1.11,1.91,3.87,2.75,5.79,1.52c1-0.64,1.67-1.59,1.93-2.65
		c4.91-5.42,8.94-11.72,13.07-17.75c4.13-6.02,8.21-12.07,12.31-18.11c4.01-5.9,8.02-11.8,12.03-17.7
		c3.66-5.39,7.09-11.01,9.14-17.23c2.08-6.3,2.24-13.13-0.85-19.13C320.92,214.12,316.79,210.93,312.12,209.08z M314.92,220.19
		C315.05,220.35,315.2,220.58,314.92,220.19L314.92,220.19z M317.46,230.74c-0.01,0.06-0.01,0.11-0.01,0.15
		c-0.01,0.03-0.02,0.08-0.03,0.16c-0.06,0.33-0.11,0.66-0.18,0.99c-0.16,0.8-0.37,1.6-0.6,2.39c-0.84,2.86-1.61,4.54-3.06,7.26
		c-1.42,2.67-3.03,5.23-4.72,7.73c-3.76,5.58-7.6,11.1-11.41,16.64c-4.32,6.29-8.63,12.59-12.95,18.89
		c-2.2,3.21-4.35,6.47-6.52,9.71c-1.34,2.01-2.65,4.03-3.87,6.1c-5.7-7.8-13.75-14.04-21.43-19.62c-4.4-3.2-9-6.11-13.42-9.28
		c-1.06-0.76-2.12-1.54-3.15-2.33c-0.07-0.05-0.14-0.11-0.16-0.13c-0.31-0.25-0.63-0.5-0.94-0.75c-0.62-0.5-1.24-1.01-1.84-1.53
		c-2.1-1.8-4.11-3.72-5.94-5.79c-0.43-0.49-0.86-0.99-1.27-1.49c-0.1-0.13-0.21-0.26-0.31-0.38c-0.02-0.03-0.44-0.58-0.47-0.62
		c-0.84-1.16-1.63-2.35-2.34-3.6c-0.59-1.03-1.12-2.09-1.61-3.17c-0.03-0.1-0.37-0.94-0.42-1.1c-0.21-0.6-0.39-1.21-0.56-1.82
		c-0.24-0.9-0.42-1.82-0.57-2.73c0.01-0.04-0.12-1.02-0.13-1.2c-0.05-0.64-0.08-1.28-0.08-1.93c-0.01-1.07,0.04-2.14,0.15-3.2
		c0-0.04,0.08-0.57,0.09-0.62c0.01-0.08,0.03-0.15,0.03-0.16c0.11-0.62,0.24-1.24,0.39-1.86c0.25-1.02,0.59-1.99,0.94-2.98
		c0.01-0.04,0.02-0.07,0.04-0.1c0.01-0.01,0.01-0.02,0.02-0.04c0.09-0.19,0.17-0.37,0.26-0.56c0.27-0.55,0.55-1.09,0.86-1.62
		c0.26-0.43,0.53-0.86,0.82-1.27c0.1-0.14,0.53-0.69,0.31-0.42c0.05-0.06,0.09-0.12,0.14-0.17c0.63-0.74,1.33-1.4,2.06-2.04
		c0.02,0.01,0.73-0.55,0.91-0.67c0.43-0.28,0.87-0.53,1.32-0.77c0.24-0.13,0.49-0.24,0.74-0.36c0.67-0.24,1.34-0.47,2.04-0.65
		c0.46-0.12,0.92-0.2,1.38-0.28c0.03,0.02,1.05-0.1,1.27-0.1c0.56-0.02,1.12-0.01,1.69,0.03c0.19,0.01,0.38,0.03,0.57,0.05
		c0,0.01,0.55,0.08,0.66,0.1c1.34,0.26,2.63,0.69,3.91,1.18c0.04,0.01,0.06,0.02,0.09,0.04c0.01,0.01,0.02,0.01,0.04,0.02
		c0.37,0.18,0.75,0.34,1.11,0.53c0.64,0.32,1.26,0.67,1.88,1.03c0.62,0.37,1.23,0.77,1.83,1.19c0.2,0.14,0.4,0.28,0.6,0.43
		c0.17,0.12,0.33,0.25,0.5,0.37c0.01,0.01,0.02,0.01,0.03,0.02c1.14,0.91,2.24,1.88,3.29,2.9c4.5,4.38,7.97,8.82,11.01,14.28
		c0.84,1.51,2.91,2.01,4.38,1.15c1.05-0.61,1.54-1.65,1.53-2.74c4.94-8.8,10.66-17.34,18.17-24.12c1.87-1.69,3.08-2.66,5.27-3.98
		c0.87-0.52,1.76-0.98,2.68-1.4c0.01,0.01,0.87-0.35,1.07-0.42c0.6-0.21,1.21-0.4,1.83-0.57c0.96-0.26,1.94-0.46,2.93-0.63
		c-0.06,0.02,0.96-0.12,1.15-0.13c0.64-0.05,1.28-0.08,1.91-0.09c1.01-0.01,2.01,0.05,3.01,0.14c0.08,0.01,0.22,0.03,0.33,0.04
		c0.18,0.03,0.37,0.06,0.55,0.09c0.56,0.1,1.12,0.23,1.67,0.37c0.5,0.13,0.99,0.28,1.48,0.44c0.17,0.06,1,0.39,1.06,0.4
		c0.92,0.42,1.81,0.89,2.65,1.45c0.17,0.11,0.33,0.23,0.49,0.34c0.05,0.03,0.07,0.04,0.1,0.06c0.02,0.02,0.03,0.03,0.06,0.06
		c0.37,0.33,0.75,0.65,1.1,0.99c0.36,0.35,0.68,0.73,1.01,1.1c0.01,0.01,0.03,0.03,0.04,0.05c0.17,0.24,0.35,0.49,0.51,0.74
		c0.28,0.43,0.53,0.88,0.77,1.33c0.11,0.22,0.22,0.44,0.32,0.66c0.04,0.1,0.11,0.29,0.13,0.32c0.21,0.64,0.42,1.27,0.57,1.92
		c0.09,0.39,0.16,0.77,0.23,1.16c0.02,0.11,0.04,0.18,0.05,0.25c0,0.06,0.01,0.14,0.01,0.24
		C317.6,228.12,317.58,229.42,317.46,230.74z"/>
</g>
</svg>
