<?xml version="1.0" encoding="utf-8"?>
<!-- Generator: Adobe Illustrator 26.3.1, SVG Export Plug-In . SVG Version: 6.00 Build 0)  -->
<svg version="1.1" id="Diamant" xmlns="http://www.w3.org/2000/svg" xmlns:xlink="http://www.w3.org/1999/xlink" x="0px" y="0px"
	 viewBox="0 0 500.5 509" style="enable-background:new 0 0 500.5 509;" xml:space="preserve">
<style type="text/css">
	.st0{fill:#F4DAEB;}
	.st1{fill:#211F1B;}
</style>
<path id="farbe" class="st0" d="M347.53,212.09c-1.19-1.26-2.66-2.2-4.34-3.3c-2.45-1.6-4.87-3.24-7.27-4.91
	c-5.05-3.52-10-7.19-14.8-11.04c-8.06-6.47-15.8-13.35-23.29-20.47c-0.29-1.08-1.09-1.98-2.46-2.29c-0.53-0.51-1.09-0.99-1.62-1.51
	c-1.74-1.7-3.92-0.81-4.79,0.81c-6.78-0.2-13.87,0.96-20.43,1.37c-9.3,0.59-18.6,1.19-27.89,1.86c-18.61,1.35-37.2,2.9-55.78,4.59
	c-1.83,0.17-2.78,1.62-2.82,3.04c-0.65,0.07-1.28,0.33-1.77,0.96c-14.02,17.83-27.98,35.7-41.83,53.66
	c-1.26,1.63-0.24,4.23,1.36,5.19c0.15,0.09,0.29,0.09,0.44,0.15c17.56,23.54,36,46.33,55.21,68.55
	c9.52,11.01,19.15,21.95,28.99,32.68c5.05,5.51,10.16,10.97,15.29,16.41c4.99,5.29,9.81,11.62,16.18,15.27
	c2.48,1.42,5.01-0.16,5.67-2.41c0,0,0.01,0,0.01-0.01c29.67-50.86,59.29-101.75,88.38-152.94
	C351.44,215.16,349.72,212.78,347.53,212.09z"/>
<g id="ol">
	<path class="st1" d="M369.38,211.62c-0.24-0.13-0.48-0.23-0.73-0.31c-0.29-0.3-0.62-0.58-1-0.86c-1.02-0.75-2.12-1.4-3.18-2.09
		c-1.94-1.26-3.86-2.55-5.77-3.86c-3.87-2.66-7.69-5.4-11.43-8.23c-6.94-5.26-14.33-11.46-21.08-17.54
		c-2.56-2.31-5.08-4.66-7.58-7.04c-0.39-1.1-1.27-1.95-2.42-2.33c-0.52-0.51-1.06-1.01-1.58-1.52c-1.19-1.17-3.18-1.18-4.37,0
		c-0.27,0.27-0.46,0.57-0.61,0.89c-1.67,0.08-3.34,0.26-4.95,0.36c-3.48,0.22-6.96,0.44-10.44,0.66
		c-7.13,0.45-14.26,0.88-21.39,1.35c-14.27,0.94-28.53,2.04-42.77,3.25c-8.13,0.69-16.25,1.41-24.37,2.13
		c-1.58,0.14-2.94,1.25-2.94,2.94c0,0.06,0.02,0.12,0.02,0.19c-0.64,0.09-1.24,0.37-1.65,0.9c-10.94,13.92-21.9,27.82-32.71,41.84
		c-3.04,3.94-6.08,7.88-9.12,11.82c-1.24,1.61-0.25,4.22,1.35,5.16c0.16,0.1,0.33,0.16,0.49,0.23
		c13.68,18.36,27.85,36.33,42.63,53.82c14.75,17.45,29.79,34.68,45.32,51.45c4.31,4.66,8.65,9.29,13.01,13.9
		c2.24,2.36,4.48,4.72,6.73,7.07c2.39,2.5,4.8,5.03,7.94,6.59c1.51,0.75,3.52,0.72,4.74-0.61c0.56-0.6,0.88-1.28,1.01-1.98
		c11.53-19.76,23.06-39.53,34.55-59.31c11.53-19.85,23.15-39.64,34.49-59.6c6.41-11.28,12.82-22.56,19.23-33.84
		C371.81,215.22,371.28,212.62,369.38,211.62z M352.56,210.16c2.18,1.57,4.39,3.1,6.62,4.6c0.78,0.53,1.69,1.23,2.66,1.87
		c-0.45,0.75-0.9,1.5-1.35,2.26c-3.06-0.29-6.17,0.06-9.24,0.23c-3.16,0.17-6.31,0.34-9.47,0.51c-6.4,0.35-12.8,0.7-19.19,1.04
		c-6,0.33-12,0.65-18,0.98c-0.01-0.28-0.06-0.56-0.17-0.85c-0.21-0.57-0.4-1.17-0.66-1.73c-0.14-0.3-0.32-0.56-0.5-0.82
		c0.14-0.46,0.28-0.91,0.43-1.36c0.69-2.05,1.37-4.1,2.06-6.16c1.4-4.18,2.81-8.36,4.17-12.56c2.13-6.57,3.99-13.21,6.02-19.81
		C327.08,190.13,339.37,200.7,352.56,210.16z M276.75,335.77c-0.18,1.69-0.33,3.38-0.49,5.07c-1.56-3.42-3.08-6.84-4.58-10.29
		c-0.4-0.93-0.8-1.86-1.2-2.8c-0.21-0.5-0.43-1.01-0.64-1.51c-0.04-0.08-0.06-0.13-0.07-0.17c-0.1-0.23-0.19-0.45-0.29-0.68
		c-0.85-2.02-1.68-4.04-2.51-6.07c-1.65-4.05-3.25-8.12-4.81-12.21c-6.17-16.15-11.43-32.57-16.56-49.07
		c-2.61-8.37-5.02-16.8-7.22-25.3c1.15-0.06,2.29-0.11,3.44-0.17c18.35-0.89,36.7-1.88,55.05-2.88c-1.99,6.83-3.97,13.67-5.68,20.58
		c-2.31,9.31-4.33,18.66-6.13,28.08C281.43,297.37,278.74,316.54,276.75,335.77z M267.56,185.37c5.16,6.47,10.12,13.09,15.28,19.56
		c2.6,3.26,5.23,6.5,7.88,9.72c1.38,1.67,2.76,3.35,4.13,5.02c0.05,0.06,0.1,0.12,0.15,0.18c-0.02,0.66,0.06,1.34,0.24,2.08
		c0.02,0.09,0.07,0.16,0.09,0.24c-3.63,0.2-7.27,0.39-10.9,0.59c-12.84,0.7-25.68,1.35-38.52,2.06c-0.22-0.86-0.78-1.64-1.57-2.17
		c-0.25-0.17-0.5-0.33-0.75-0.49c4.68-7.17,9.72-14.1,14.31-21.34c2.57-4.06,5.11-8.14,7.66-12.21
		C266.24,187.54,266.9,186.46,267.56,185.37z M291.76,178.75c3.98-0.22,7.96-0.44,11.94-0.66c2.42-0.13,4.91-0.15,7.34-0.42
		c-2.51,6.25-5.18,12.44-7.6,18.74c-1.56,4.05-3.07,8.12-4.58,12.18c-0.39,1.04-0.77,2.08-1.16,3.12c-0.51-0.59-1.02-1.19-1.53-1.78
		c-2.76-3.22-5.54-6.42-8.35-9.6c-5.67-6.41-11.55-12.63-17.21-19.05c-0.11-0.12-0.23-0.23-0.36-0.32c0.23-0.37,0.45-0.75,0.66-1.12
		C277.85,179.49,284.8,179.13,291.76,178.75z M261.7,180.25c-0.84,1.44-1.69,2.89-2.5,4.35c-2.38,4.26-4.78,8.52-7.15,12.79
		c-4.12,7.44-7.75,15.13-11.76,22.62c-1.69-1.09-3.38-2.18-5.02-3.36c-2.86-2.07-5.43-4.13-8.2-6.66c-5.32-4.86-10-10.3-14.01-16.03
		c-2.36-3.38-4.48-6.92-6.37-10.59c0.05-0.34,0.03-0.7-0.04-1.05C225.02,181.78,243.36,181.08,261.7,180.25z M203.16,188.57
		c6.15,13.01,15.42,24.38,26.89,33.1c1.7,1.29,3.45,2.57,5.25,3.74c-9.13,0.53-18.26,1.11-27.39,1.76
		c-7.06,0.51-14.14,0.95-21.19,1.6c-5.09,0.47-10.16,1.14-15.24,1.71c8.65-11.35,17.27-22.72,25.83-34.14
		C199.27,193.76,201.21,191.17,203.16,188.57z M258.91,341.04c-7.8-8.34-15.56-16.72-23.24-25.18
		c-15.25-16.78-30.11-33.91-44.87-51.12c-8.02-9.35-16.02-18.72-23.95-28.14c0.45-0.59,0.9-1.19,1.36-1.78
		c5.43-0.02,10.85,0.16,16.28,0.08c6.32-0.09,12.63-0.32,18.94-0.55c9.23-0.33,18.46-0.77,27.69-1.23c1.72,8.03,3.55,16.04,5.54,24
		c2.11,8.41,4.59,16.72,7.21,24.98c5.25,16.6,11.38,32.93,18.13,48.98c1.97,4.69,3.99,9.35,6.07,13.99c0.99,2.21,2,4.41,3.01,6.61
		c0.53,1.15,1.03,2.26,1.79,3.28c0.69,0.93,1.39,1.7,2.04,2.5c-0.01,0.15-0.02,0.29-0.03,0.43c-1.4-1.46-2.81-2.93-4.21-4.39
		C266.73,349.36,262.81,345.21,258.91,341.04z M328.76,272.2c-11.6,19.8-23.23,39.59-34.8,59.42c-3.82,6.55-7.64,13.1-11.47,19.65
		c0.34-3.73,0.69-7.45,1.05-11.18c0.91-9.38,1.99-18.75,3.27-28.09c2.61-19.01,5.99-37.91,9.69-56.74
		c1.69-8.62,3.35-17.26,5.29-25.83c5.51-0.3,11.03-0.6,16.54-0.89c7.15-0.38,14.29-0.76,21.44-1.15c3.57-0.19,7.15-0.38,10.72-0.57
		c1.78-0.1,3.58-0.14,5.37-0.25C346.78,241.76,337.7,256.94,328.76,272.2z"/>
	<path class="st1" d="M325.91,142.61c2.19,0.5,4.04-0.66,4.79-2.72c2.46-6.8,4.91-13.59,7.37-20.39c1.21-3.36,2.43-6.71,3.59-10.09
		c0.59-1.72,1.22-3.44,1.76-5.18c0.61-1.97,0.66-4.07,0.31-6.09c-0.4-2.3-3.36-2.58-4.84-1.28c-2.98,2.64-3.97,6.72-5.26,10.34
		c-1.2,3.36-2.34,6.74-3.49,10.12c-2.31,6.83-4.63,13.67-6.94,20.5C322.54,139.76,323.95,142.16,325.91,142.61z"/>
	<path class="st1" d="M402.32,152.72c-0.25-1.66-1.6-2.91-3.32-2.93c-3.69-0.04-7.25,0.67-10.86,1.31
		c-3.43,0.61-6.83,1.33-10.25,2.03c-6.82,1.39-13.55,3.15-20.38,4.48c-1.33,0.26-2.09,1.85-1.75,3.08c0.4,1.44,1.74,1.94,3.08,1.75
		c6.73-0.95,13.5-1.47,20.23-2.36c3.54-0.47,7.09-0.89,10.62-1.45c3.47-0.55,6.88-1.01,10.2-2.2
		C401.48,155.87,402.58,154.46,402.32,152.72z"/>
	<path class="st1" d="M260.61,120.72c1.24,1.32,2.57,2.58,3.85,3.87c2.57,2.58,5.12,5.16,7.75,7.68
		c5.25,5.05,10.66,9.91,15.95,14.91c2.47,2.33,6.01-1.23,3.71-3.71c-4.94-5.36-9.74-10.83-14.73-16.14
		c-2.49-2.65-5.04-5.24-7.59-7.84c-2.61-2.66-5.08-5.6-8.48-7.24c-2.55-1.22-4.94,1.23-3.76,3.76
		C258.14,117.8,259.25,119.28,260.61,120.72z"/>
</g>
</svg>
