<?xml version="1.0" encoding="utf-8"?>
<!-- Generator: Adobe Illustrator 26.3.1, SVG Export Plug-In . SVG Version: 6.00 Build 0)  -->
<svg version="1.1" id="Dino_x5F_Trizi" xmlns="http://www.w3.org/2000/svg" xmlns:xlink="http://www.w3.org/1999/xlink" x="0px"
	 y="0px" viewBox="0 0 500.5 509" style="enable-background:new 0 0 500.5 509;" xml:space="preserve">
<style type="text/css">
	.st0{fill:#C7E0D0;}
	.st1{fill:#E9AD99;}
	.st2{fill:#211F1B;}
</style>
<g id="Farbe">
	<path class="st0" d="M400.2,135.2c3-7.9,1.2-17.5-1.9-25.1c-4-9.7-10.9-17.5-19.5-23.4c-9.1-6.3-19.8-10.3-30.4-13.3
		c-8.4-2.4-17.9-4.7-25.1,0.4c-0.2-0.6-0.5-1.2-1.1-1.6c-8.8-6.1-20.4-7.4-30.7-5c-4.7,1.1-9.2,3.1-13.3,5.8
		c-1.9,1.3-3.8,2.8-5.5,4.4c-1.2,1.2-2.9,2.7-3.5,4.5c-6.6-3.6-14.8,1.2-19.9,5.5c-2.7,2.3-5,5.1-6.9,8.1c-0.7,1.2-1.3,2.4-1.7,3.7
		c-3.4-5.1-6.9-10.1-10.1-15.4c-0.8-1.4-2.3-1.2-3.2-0.3c-0.6-1.8-2.5-2.3-4.2-1.6c-3.9,1.7-5.4,8-6.8,11.7
		c-1.8,4.7-2.9,9.7-3.6,14.7c-1.2,8.6-1,17.2,0.5,25.7c-4.7-4.6-8.6-9.9-11.4-16.1c-4.6-10-6.2-21.2-9.8-31.6
		c-0.8-2.3-4.7-2.1-4.5,0.6c0,0,0,0,0,0c0,0,0,0-0.1,0c-3.1,1.3-4.7,4.8-6.2,7.6c-1.8,3.3-3.1,6.8-4.2,10.4
		c-2.3,7.5-3.2,15.5-2.7,23.4c0.4,7.7,1.9,15.3,4.4,22.6c2.8,7.8,6.6,13.9,12,20.1c-0.8,0.9-1.7,1.7-2.5,2.6
		c-9.2,10.2-17.1,21.3-24.1,33c-0.3,0.5-0.4,0.9-0.5,1.4c-12.3-5.7-24.6-11.3-37.6-14.8c-1.6-1.5-5.1,0.1-4.2,2.6
		c3.4,9.3,7.7,18.3,12.4,26.9c2.5,4.5,5,8.9,7.7,13.2c-6.2,15.2-4.5,33.6,1.6,48.5c0.9,2.3,4.2,3.3,5.6,0.7c2.3-4.2,5.3-6.4,8.8-7.4
		c-7,6.5-12.4,14.2-16.1,22.9c-0.6,0.1-1.1,0.3-1.6,1c-10.4,15.1-22.9,29.2-36.9,41.2c-7,5.9-14.4,11.4-22.1,16.3
		c-3.9,2.5-7.9,4.9-11.8,7.4c-3.8,2.5-8.9,6.3-13.6,6.9c-2.3,0.3-3,2.8-1.1,4.2c10.3,7.6,26.5,7,38.5,4.9c13-2.3,25.1-7.7,37-13.1
		c-0.5,3.7-1,7.4-1.3,11.2c-0.3,5.3-0.4,11.4,2.4,16c3.4,5.5,9.3,7.7,15.4,8.6c15.3,2.3,31.2,2.5,46.5-0.3c1.2-0.2,1.7-1.1,1.7-2.1
		c0.1,0,0.1,0,0.2-0.1c3.1-1.5,2.9-5.9,3.2-8.8c0.3-3.1,0.4-6.1,0.5-9.2c0.2-6.1-0.3-12.3-1-18.4c2.4,1.1,4.7,2.1,7.1,3
		c2.4,0.9,4.9,1.8,7.4,2.6c2.5,0.8,5.4,2,8,1.1c0.5-0.2,0.9-0.4,1.3-0.8c-1.2,9.9-1.9,19.9-1.9,29.9c0,10.6,0.7,22.4,12.2,26.6
		c5.5,2,11.7,1.2,17.5,1.6c6.9,0.6,13.8,1.1,20.8,0.3c6.7-0.8,13.3-2.9,18.7-7.1c5-3.9,6.4-9.5,5.8-15.7c-0.4-3.6-1.1-7.2-1.1-10.8
		c0-3.5,0.5-7,0.5-10.5c0-7.6-1-14.9-2.5-22.3c3.8-0.5,7.6-1.4,11.3-2.5c-0.1,0.5-0.1,1.1-0.1,1.7c1.9,12.7,0.7,25.3-0.6,37.9
		c-0.7,6.8,0.3,13.5,6,17.9c7.3,5.6,17.4,5.5,26.2,6.1c8.6,0.6,17.3,1.1,25.9,0.1c6.4-0.7,15.7-2.3,17.8-9.7
		c1.9-6.5-0.1-15-0.8-21.6c-2-17.7-5.5-35.4-4.7-53.3c0.6-14.3,2.1-28.7,1-43c-0.8-10.8-2.7-20.8-8.8-29.4c2.9-1.3,5.6-3,8.1-4.8
		c1.7-1.3,2.4-3.3,1.4-5.3c-1.5-2.9-3.4-4.8-5.8-6.4c1-0.2,1.9-0.4,2.9-0.7c4.3-1.3,8.2-3.5,11.7-6.5c6.4-5.6,10.3-13.5,10-22.1
		c0,0,0,0,0-0.1c7.3-3.1,12.9-11.1,16.8-17.8c4.2-7.5,6.8-15.8,7.5-24.4C419.2,164.7,413.3,145.3,400.2,135.2z"/>
	<path class="st1" d="M276.7,241.5c-12.2,0.4-15.7,11.2-10.3,16.6c5.4,5.4,21.8,0.7,26.1-6.1C296.8,245.1,289.2,241,276.7,241.5z"/>
</g>
<g id="ol">
	<path class="st2" d="M376.5,404.9c0.1-0.1,0.2-0.1,0.3-0.2c0,0,0.1,0,0.1-0.1C376.5,404.8,376.4,404.9,376.5,404.9z"/>
	<path class="st2" d="M377,404.5c0,0-0.1,0.1-0.1,0.1C376.9,404.6,377,404.5,377,404.5c0.1,0,0.1-0.1,0.1-0.1
		C377.1,404.4,377,404.5,377,404.5z"/>
	<path class="st2" d="M374.9,405.7c0,0,0.1,0,0.1,0c0.1,0,0.2-0.1,0.3-0.1c0.1,0,0.1-0.1,0.2-0.1
		C375.6,405.4,375.4,405.4,374.9,405.7z"/>
	<path class="st2" d="M377.1,404.4C377.1,404.4,377.1,404.4,377.1,404.4c0.1-0.2,0.2-0.3,0.3-0.4c0,0,0,0,0,0
		C377.3,404,377.2,404.1,377.1,404.4z"/>
	<polygon class="st2" points="377.1,404.5 377.1,404.5 377.1,404.5 377.1,404.5 	"/>
	<path class="st2" d="M241.7,396.9c-0.1,0.1-0.1,0.1-0.2,0.2c0,0,0,0,0,0C241.7,397,241.7,396.9,241.7,396.9z"/>
	<path class="st2" d="M292.2,395.9C292.2,395.9,292.2,395.9,292.2,395.9c-0.1-0.1-0.1-0.1-0.2-0.2c0,0,0,0,0,0
		C292,395.7,292.1,395.8,292.2,395.9z"/>
	<path class="st2" d="M292.9,397.1C292.9,397.1,292.9,397.1,292.9,397.1c0-0.1-0.1-0.2-0.1-0.3C292.7,396.8,292.7,396.8,292.9,397.1
		z"/>
	<path class="st2" d="M147.8,386.8C147.8,386.8,147.8,386.8,147.8,386.8c0-0.1-0.1-0.2-0.1-0.2C147.7,386.7,147.8,386.7,147.8,386.8
		z"/>
	<path class="st2" d="M271,207.2c-0.8-4.1-3.9-7.6-7.8-9c-4.1-1.6-8.7-0.9-12.4,1.6c-8.2,5.6-9.9,15.7-8.8,25
		c1,8.1,5.7,17.9,15.4,17c8.4-0.8,13.1-8.8,15.1-16.1c1.4-5.4,0.9-11.9-1.5-17.2C271.1,208,271.1,207.6,271,207.2z M252.5,222.8
		c-0.5,0.4-1.4,0.6-2,0.1c-0.4-0.3-0.8-0.6-1.1-0.9c-0.4-0.4-0.6-0.8-0.8-1.2c-0.4-0.9-0.8-1.8-0.8-2.8c-0.1-1.5,0.2-3,0.7-4.4
		c0.3-0.7,0.9-1.2,1.7-1.1c0.7,0.1,1.4,0.7,1.3,1.5c0,0.6,0.1,1.1,0,1.7c0-0.5,0,0,0,0.1c0,0.1,0,0.2,0.1,0.4
		c0.1,0.3,0.1,0.5,0.2,0.8c0.2,0.5,0.3,1.1,0.5,1.6c0,0.1,0.1,0.2,0.1,0.3c0.1,0.2,0.3,0.7,0,0.1c0.1,0.1,0.1,0.2,0.2,0.3
		c0.2,0.5,0.3,0.8,0.3,1.3c0-0.2,0-0.4-0.1-0.6c0,0.3,0.1,0.5,0.1,0.8C253.3,221.6,253.1,222.3,252.5,222.8z M265.5,214.6
		c0,0.2,0,0.3,0,0.5c0,0,0,0,0,0c0,0.1,0,0.2,0,0.2c0,0.2-0.1,0.3-0.1,0.5c0,0.1-0.1,0.2-0.1,0.3c-0.1,0.2-0.2,0.3-0.3,0.5
		c0,0-0.1,0.2-0.2,0.3c0,0,0,0.1-0.1,0.1c0,0,0-0.1,0-0.1c-0.1,0.1-0.2,0.2-0.4,0.4c-0.1,0.1-0.1,0.1-0.2,0.2c0,0-0.1,0.1-0.1,0.1
		c-0.2,0.2-0.5,0.3-0.8,0.4c-0.1,0.1-0.3,0.1-0.4,0.1c-0.3,0.1-0.5,0.1-0.8,0.2c-0.2,0-0.3,0-0.5,0c-0.3,0-0.7,0-1,0
		c-0.1,0-0.2,0-0.2,0c0,0-0.1,0-0.1,0c-0.3-0.1-0.6-0.1-0.9-0.2c-0.1,0-0.3-0.1-0.4-0.1c0,0,0,0,0,0c-0.3-0.2-0.6-0.3-0.9-0.5
		c0,0-0.1-0.1-0.1-0.1c-0.1-0.1-0.1-0.1-0.2-0.2c-0.1-0.1-0.2-0.2-0.3-0.3c0-0.1-0.2-0.2-0.2-0.3c-0.1-0.2-0.2-0.3-0.3-0.5
		c0,0-0.1-0.1-0.1-0.2c0-0.1-0.1-0.2-0.1-0.2c0-0.2-0.1-0.3-0.1-0.5c0-0.1,0-0.1,0-0.2c0-0.3,0-0.6,0-0.9c0-0.2,0.1-0.4,0-0.5
		c0-0.1,0-0.2,0-0.3c0-0.1,0-0.2,0.1-0.3c0-0.2,0.1-0.4,0.1-0.5c0.1-0.2,0.1-0.4,0.2-0.6c0,0,0-0.1,0.1-0.1c0,0,0,0,0,0
		c0.2-0.4,0.4-0.7,0.6-1.1c0.1-0.1,0.1-0.2,0.2-0.3c0,0,0.3-0.4,0.3-0.5c0.1-0.1,0.1-0.2,0.2-0.3c0.1-0.1,0.2-0.3,0.2-0.3
		c0.1-0.1,0.2-0.2,0.3-0.3c0.3-0.4,0.8-0.7,1-1.1c0.1-0.1,0.1-0.2,0.2-0.3c0.2,0,0.4,0,0.6,0c0,0,0.1,0,0.1,0c0,0,0.1,0,0.2,0
		c0.3,0.1,0.5,0.1,0.8,0.2c0,0,0,0.1,0.1,0.1c0.3,0.3,0.6,0.5,1,0.8c0,0,0,0,0.1,0c0,0,0,0,0,0c0.1,0.1,0.2,0.2,0.4,0.3
		c0.1,0.1,0.2,0.2,0.3,0.4c0.1,0.3,0.4,0.6,0.5,0.8c0.2,0.3,0.4,0.6,0.5,0.9c0,0,0,0.1,0.1,0.1c0,0.1,0.1,0.1,0.1,0.2
		c0.1,0.3,0.3,0.6,0.4,1c0.1,0.3,0.2,0.6,0.3,1c0,0.1,0.1,0.3,0.1,0.4c0,0.1,0,0.2,0.1,0.3c0.1,0.3-0.1-0.5-0.1-0.5
		C265.6,213.8,265.5,214.4,265.5,214.6z"/>
	<path class="st2" d="M419.7,142.1c-1.5-3.4-3.3-6.7-5.6-9.6c-1.2-1.6-2.5-3.1-3.8-4.5c-0.9-0.9-1.9-1.7-3-2.5
		c2.2-5.9,1.7-12.9,0.2-18.8c-1.9-7.5-5.8-14.5-10.9-20.3c-11.1-12.6-27.5-18.9-43.2-23.2c-5.1-1.4-10.2-2.7-15.5-2
		c-2.7,0.4-5.2,1.4-7.3,2.9c-0.2-0.6-0.6-1.1-1.2-1.5c-12.9-9-31.7-7.8-44.4,1.1c-3.1,2.2-6.2,4.7-8.3,7.9c-0.1,0.2-0.2,0.4-0.3,0.6
		c-3.1-1.8-7.3-1.3-10.5-0.2c-3.5,1.3-6.6,3.3-9.4,5.7c-2.7,2.3-5,5.1-6.9,8c-0.7,1.2-1.3,2.4-1.8,3.7c-3.4-5.1-6.9-10.1-10.1-15.3
		c-0.8-1.3-2.3-1.2-3.1-0.4c-0.1-0.2-0.2-0.3-0.3-0.5c-0.5-0.8-1.5-1.5-2.5-1.4c-1.3,0.1-2.3,0.4-3.3,1.4c-0.8,0.8-1.3,2.1-1.8,3.1
		c-0.4,0.8-0.7,1.6-1.1,2.4c-0.5,1.2-0.8,1.7-1.4,3.2c-1.5,3.5-2.6,7.2-3.4,10.9c-1.7,7.5-2.2,15.4-1.6,23c0.2,2.9,0.5,5.7,1,8.5
		c-0.4-0.4-0.8-0.8-1.2-1.2c-1.4-1.5-2.8-3-4-4.6c-0.1-0.2-0.4-0.6-0.5-0.7c-0.3-0.4-0.5-0.7-0.8-1.1c-0.6-0.9-1.2-1.8-1.7-2.7
		c-1-1.6-1.9-3.3-2.7-5c-0.2-0.4-0.4-0.9-0.6-1.3c-0.1-0.1-0.3-0.8-0.4-0.9c-0.3-0.8-0.7-1.7-1-2.5c-1.4-3.9-2.5-7.9-3.6-11.8
		c-0.7-2.5-1.3-5.1-1.9-7.6c-0.7-2.8-1.7-5.5-2.6-8.2c-0.8-2.3-4.7-2.1-4.5,0.6c0,0,0,0,0,0c-1.6,0.3-2.3,1.4-3.3,2.7
		c-0.9,1.2-1.7,2.6-2.4,3.9c-1.5,2.6-2.7,5.4-3.7,8.2c-2.1,5.7-3.3,11.5-3.7,17.6c-0.9,11.7,1.1,23.7,5.5,34.6
		c1.3,3.2,2.7,6.3,4.5,9.3c1.8,2.9,4,5.3,6.3,7.8c-6.1,6.3-11.6,13.4-16.6,20.5c-3.5,4.9-6.8,10-9.9,15.2c-0.3,0.5-0.4,1-0.5,1.5
		c-1.4-0.6-2.8-1.2-4.2-1.9c-4-1.8-8-3.5-12.1-5.2c-3.9-1.7-7.8-3.5-11.8-4.8c-3.2-1.1-6.3-2.1-9.5-3c-1.6-1.5-5.1,0.2-4.2,2.6
		c5.2,14,12.2,27.4,20.1,40.1c-0.7,1.6-1.4,3.3-1.8,5.1c-0.5,2-0.9,4-1.2,6c-0.6,4.3-0.9,8.6-0.8,12.9c0.3,8.4,2.2,16.8,5.4,24.5
		c0.5,1.2,1.2,2,2.5,2.2c1.2,0.1,2.5-0.4,3.1-1.5c1.1-2.1,2.3-3.6,4.1-5c1.2-1,2.7-1.6,4.3-2.1c-3.3,3-6.2,6.4-8.8,10
		c-2.8,4-5.1,8.2-7,12.6c-0.6,0.1-1.1,0.4-1.5,1c-8.3,12.1-17.9,23.2-28.4,33.4c-10.7,10.4-22,18.5-34.6,26.5
		c-3.4,2.2-6.9,4.3-10.4,6.5c-1.8,1.1-3.6,2.1-5.5,3.1c-1.7,0.8-3.6,2.1-5.5,2.2c-2.3,0.1-3,3-1.1,4.2c1.1,0.7,2.1,1.4,3.3,2
		c1.3,0.5,2.6,1.1,3.9,1.5c2.5,0.8,5,1.5,7.6,1.9c5.3,0.8,10.6,1,15.9,0.6c10.9-0.9,21.3-4.1,31.4-8.2c4.5-1.9,9-3.9,13.5-5.9
		c-0.4,3-0.8,5.9-1.1,8.9c-0.5,5.7-0.9,12.3,1.8,17.5c3.2,6.1,9.7,8.4,16.1,9.4c6.1,0.9,12.2,1.7,18.4,1.7c4.3,0,8.7-0.1,13-0.5
		c0.6,0.3,1.4,0.2,2-0.2c2.5-0.2,5-0.5,7.4-0.8c1.8-0.3,3.6-0.3,5.5-0.7c1-0.2,1.6-1.1,1.7-2.1c0.1,0,0.1,0,0.2-0.1
		c3.2-1.5,3-6.3,3.2-9.4c0.3-3,0.4-6,0.5-9c0.2-6-0.3-12-1-18c2.9,1.3,5.8,2.5,8.8,3.6c2,0.7,4.1,1.4,6.2,2.1
		c1.1,0.3,2.1,0.6,3.2,0.9c1.5,0.4,2.8,0.5,4.4,0c0.5-0.2,0.9-0.4,1.2-0.7c-1.1,9.5-1.7,19-1.8,28.6c-0.1,5.6,0,11.4,1.5,16.8
		c1.5,5.5,5.6,9.3,10.9,11.2c5.6,2,11.8,1,17.6,1.6c6.4,0.6,12.9,1,19.3,0.4c6.9-0.7,13.7-2.6,19.2-6.8c2.9-2.2,5.3-5,6.1-8.7
		c0.7-3.1,0.5-6.2,0.1-9.4c-0.1-1.1-0.3-2.2-0.5-3.4c0.1,1,0-0.2,0-0.4c-0.1-0.5-0.1-1-0.2-1.5c-0.2-1.8-0.3-3.6-0.2-5.4
		c0.2-3.3,0.4-6.6,0.4-9.9c0-4-0.2-7.8-0.8-11.7c-0.4-3.2-1-6.3-1.6-9.5c3.8-0.5,7.5-1.3,11.2-2.4c-0.1,0.5-0.1,1.1,0,1.6
		c0.1,0.4,0.1,0.8,0.2,1.2c0,0.1,0,0.2,0,0.3c0,0.1,0,0.1,0,0.3c0.1,0.9,0.2,1.7,0.3,2.6c0.2,1.7,0.3,3.5,0.4,5.3
		c0.2,3.5,0.2,7,0.1,10.5c-0.2,5.6-0.8,11.1-1.5,16.7c-0.4,3.3-0.6,6.5,0,9.8c0.7,3.9,3,7.1,6.1,9.5c3.8,2.8,8.6,4.1,13.2,4.8
		c4.2,0.6,8.5,0.9,12.8,1.2c8.4,0.6,16.9,1.1,25.2,0.2c7.3-0.8,17.6-2.7,18.6-11.7c0.3-2.8,0.1-5.8-0.1-8.6
		c-0.3-4.2-0.7-8.4-1.2-12.6c-1.1-9.4-2.4-18.9-3.5-28.3c-0.4-3.8-0.9-7.5-1.1-11.3c-0.3-4-0.1-8.1,0.1-12.1
		c0.6-12.6,1.6-25.3,1.3-38c-0.1-6-0.8-12-1.9-17.9c-1-5.1-2.7-10.3-5.6-14.7c-0.4-0.7-0.9-1.3-1.4-2c2.8-1.3,5.5-3,8-4.8
		c1.8-1.3,2.4-3.3,1.4-5.3c-1-2-2.3-4.4-4.3-5.6c-0.3-0.2-0.7-0.3-1-0.4c0,0-0.2-0.2-0.2-0.2c0.2,0.2-0.2-0.2-0.2-0.2c0,0,0,0,0,0
		c1-0.2,1.9-0.4,2.9-0.7c4.3-1.3,8.2-3.5,11.6-6.5c3.1-2.6,5.9-6,7.5-9.8c0.9-1.9,1.7-4,2.1-6.1c0.4-2,0.4-4.2,0.4-6.2
		c0,0,0,0,0-0.1c1.6-0.7,3-1.4,4.4-2.5c1.3-1.1,2.5-2.3,3.6-3.5c2.3-2.4,4.4-5.1,6.3-7.9c3.6-5.4,6.4-11.4,8.1-17.6
		C426.7,168.4,425.3,154.5,419.7,142.1z M228.4,107.9c0.1-1.8,0.2-3.5,0.3-5.3c0.1-0.8,0.2-1.6,0.3-2.4c0-0.2,0.1-0.7,0.1-0.8
		c0.1-0.6,0.2-1.2,0.3-1.7c0.7-3.9,1.6-7.7,2.6-11.6c0.5-2,1.1-3.9,1.8-5.8c0.4-0.9,0.8-1.9,1.1-2.8c2.3,4.9,4.5,9.9,6.9,14.8
		c2.6,5.3,5.6,10.3,8.6,15.2c6.1,10,12.5,19.7,19.2,29.3c1.8,2.6,3.7,5.2,5.6,7.8c1.8,2.5,3.6,5.1,5.6,7.5c0,0.5,0,0.9-0.1,1.4
		c0,0.1,0,0.2,0,0.3c0,0.1,0,0.3-0.1,0.4c-0.1,0.5-0.2,1-0.3,1.5c-0.2,0.9-0.5,1.7-0.8,2.5c-0.1,0.2-0.2,0.5-0.3,0.7
		c0.2-0.5,0.2-0.5,0-0.1c-0.2,0.3-0.3,0.7-0.5,1c-0.4,0.9-0.9,1.8-1.5,2.6c-0.2,0.3-0.4,0.6-0.6,0.9c0,0.1-0.1,0.1-0.1,0.1
		c-0.1,0.1-0.2,0.3-0.4,0.4c-0.6,0.7-1.3,1.4-2,2c-0.2,0.2-0.5,0.4-0.8,0.7c0,0-0.8,0.6-0.9,0.7c-0.7,0.5-1.5,1-2.3,1.4
		c-0.1,0.1-0.8,0.4-1,0.5c-0.4,0.2-0.8,0.3-1.2,0.4c-0.9,0.3-1.7,0.5-2.6,0.7c-0.8,0.2-1.6,0.3-2.4,0.4c0.4-0.1-0.9,0.1-1,0.1
		c-0.8,0.1-1.5,0.1-2.3,0.2c0.9-0.1-0.3,0-0.4,0c-0.5,0-1,0.1-1.5,0.1c-1,0-1.3-0.1-2.3-0.3c-0.1-0.7-0.4-1.3-1-1.9
		c-2.3-2.5-4.5-5-6.7-7.5c-1.1-1.2-2.1-2.4-3.1-3.7c-0.1-0.1-0.1-0.1-0.1-0.2c0-0.1-0.1-0.1-0.1-0.2c-0.2-0.3-0.5-0.6-0.7-1
		c-0.5-0.7-1-1.4-1.5-2.1c-1.9-2.7-3.6-5.5-5.1-8.4c-0.8-1.4-1.5-2.9-2.2-4.3c-0.3-0.7-0.6-1.3-0.9-2c-0.1-0.2-0.2-0.6-0.3-0.6
		c-0.2-0.5-0.4-1-0.6-1.5c-1.1-3-2.1-6.1-2.9-9.2c-0.4-1.6-0.7-3.3-1-4.9c-0.2-0.9-0.3-1.7-0.4-2.6c0-0.1,0-0.2,0-0.3
		c0-0.1,0-0.2,0-0.3c-0.1-0.6-0.1-1.2-0.2-1.7C228.4,115,228.2,111.4,228.4,107.9z M197.1,144.1c0-0.1-0.2-0.5-0.3-0.7
		c-0.1-0.2-0.3-0.6-0.3-0.6c-0.1-0.4-0.3-0.7-0.4-1.1c-0.2-0.6-0.5-1.2-0.7-1.8c-0.5-1.3-0.9-2.6-1.3-4c-0.8-2.7-1.4-5.4-1.9-8.2
		c-0.1-0.6-0.2-1.3-0.3-1.9c0-0.3-0.1-0.6-0.1-0.9c0,0,0,0,0-0.1c-0.2-1.4-0.3-2.8-0.4-4.2c-0.2-2.8-0.3-5.6-0.2-8.4
		c0-1.3,0.1-2.5,0.2-3.8c0.1-0.7,0.1-1.4,0.2-2.1c0-0.3,0.1-0.6,0.1-0.9c0-0.3,0.1-0.5,0.1-0.8c0,0.1,0,0.2,0,0.3
		c0.1-1,0.2-1.9,0.3-2.9c0-0.2,0.2-1.4,0.2-1.4c0.2-1.3,0.4-2.6,0.7-3.8c0.6-3,1.4-5.9,2.2-8.9c0.2-0.6,0.4-1.3,0.6-1.9
		c0.4,2.3,0.8,4.7,1.3,7c0.9,4.3,1.9,8.6,3.3,12.7c2.8,8.1,6.9,15.6,12.7,22c3.1,3.4,6.7,6.4,10.5,9.2c0.3,0.8,0.5,1.6,0.8,2.4
		c-7.4,5.4-14.5,11.1-21.1,17.3c-0.5-0.8-0.9-1.6-1.3-2.5c-0.1-0.2-0.2-0.5-0.3-0.7c0-0.1,0-0.1-0.1-0.1c0-0.1-0.1-0.1-0.1-0.2
		c-0.4-1-0.8-1.8-1.3-2.7c-0.6-1.1-1.1-2.3-1.7-3.4c-0.3-0.6-0.6-1.3-0.9-1.9C197.4,144.6,197.2,144.3,197.1,144.1z M135,186.9
		c1.8,0.8,3.5,1.6,5.3,2.5c3.7,1.8,7.6,3.4,11.4,5c7.6,3.4,15.2,6.9,22.9,10.3c1.7,0.8,3.4,1.5,5.1,2.3c-0.6,0.7-0.9,1.6-0.9,2.6
		c0.1,1.6,0.1,3.2,0,4.8c0,0.1,0,0.2,0,0.2c0,0.1,0,0.1,0,0.2c-0.1,0.3-0.1,0.7-0.2,1c-0.2,0.7-0.3,1.4-0.5,2.1
		c-0.1,0.4-0.2,0.8-0.4,1.1c0,0-0.3,0.7-0.3,0.7c-0.3,0.6-0.6,1.3-1,1.9c-0.4,0.6-0.8,1.3-1.2,1.9c-0.1,0.1-0.2,0.3-0.3,0.4
		c-0.3,0.3-0.5,0.6-0.8,0.9c-0.5,0.5-1,1.1-1.6,1.6c-0.3,0.3-0.6,0.5-0.9,0.8c-0.1,0.1-0.1,0.1-0.2,0.1c-0.1,0-0.1,0.1-0.2,0.2
		c-1.3,0.9-2.6,1.6-4,2.3c-0.2,0.1-0.5,0.2-0.7,0.3c-0.1,0-0.6,0.2-0.7,0.3c-0.8,0.3-1.5,0.5-2.3,0.7c-0.6,0.2-1.2,0.4-1.7,0.5
		c-0.3-0.5-0.5-1-0.9-1.4c-1-1.4-2-2.7-2.9-4.2c-2.2-3.3-4.3-6.7-6.3-10.1c-4.4-7.3-8.5-14.8-12.7-22.2
		C137.6,191.6,136.3,189.3,135,186.9z M79.9,367.7c-2.6-0.3-5.2-0.7-7.7-1.3c-0.8-0.2-1.6-0.4-2.5-0.6c0,0,0.1,0,0.1,0
		c1.7-0.7,3.4-1.3,5.1-1.9c3.6-1.3,7.2-2.7,10.7-4.4c6.7-3.3,13.2-7.3,19.2-11.7c6.2-4.6,12.1-9.5,17.7-14.8
		c5.6-5.3,10.6-11,15.3-17.1c2.3-3,4.5-6.1,6.6-9.3c-2.1,9-3.2,18.2-4,27.4c-0.5,5.8-0.9,11.7-1.5,17.6c-0.3,0.1-0.7,0.2-1,0.4
		C120.2,361.2,100.5,369.8,79.9,367.7z M151.6,389.5c-1.1-0.3-2.1-0.7-3-1.2c-0.1-0.4-0.3-0.8-0.6-1.2c0.4,0.6-0.1-0.2-0.2-0.4
		c0,0,0,0,0,0.1c0,0,0-0.1,0-0.1c0,0,0,0,0,0c-0.1-0.1-0.1-0.3-0.1-0.2c0,0,0-0.1,0-0.1c-0.1-0.3-0.2-0.6-0.2-1c0,0,0,0,0,0
		c0,0,0,0,0,0c0-0.2,0-0.4,0-0.6c0-0.7,0-1.5,0.1-2.2c0,0,0,0,0-0.1c0-0.2,0.1-0.3,0.1-0.5c0.1-0.4,0.2-0.8,0.3-1.3
		c0.2-0.8,0.4-1.5,0.7-2.2c0,0,0-0.1,0-0.1c0-0.1,0.1-0.2,0.1-0.3c0.2-0.4,0.4-0.8,0.6-1.2c0.1-0.2,0.3-0.4,0.4-0.7
		c0.1-0.1,0.3-0.3,0.4-0.4c0.1-0.1,0.4-0.4,0.5-0.5c0.1,0,0.1-0.1,0.1-0.1c0.1-0.1,0.2-0.1,0.4-0.2c0.1,0,0.3-0.1,0.4-0.1
		c0.5-0.1,0.9-0.2,1.4-0.4c0.5-0.1,0.9-0.2,1.4-0.3c0.2,0,0.4-0.1,0.6-0.1c0.1,0,0.4-0.1,0.5-0.1c0.8-0.1,1.7-0.1,2.5-0.1
		c0,0,0,0,0,0c0.2,0,0.4,0.1,0.6,0.1c0.2,0,0.3,0.1,0.5,0.2c0,0,0,0,0,0c0.1,0,0.1,0.1,0.2,0.1c0.2,0.1,0.3,0.2,0.5,0.3c0,0,0,0,0,0
		c0.1,0.1,0.3,0.3,0.4,0.4c0,0,0,0,0.1,0.1c0,0,0,0.1,0.1,0.1c0.2,0.3,0.4,0.7,0.5,1c0,0,0,0,0,0c0.1,0.2,0.2,0.5,0.2,0.7
		c0.2,0.8,0.4,1.6,0.6,2.5c0,0.1,0.1,0.7,0.1,0.8c0.1,0.5,0.1,0.9,0.1,1.4c0.1,1.3,0.1,2.5,0.1,3.8c-0.2,1.8-0.4,3.6-0.6,5.3
		c0,0.2,0,0.5,0,0.7c-0.3-0.1-0.6-0.1-1-0.2C157.8,390.9,154.6,390.5,151.6,389.5z M148.7,378.4
		C148.7,378.3,148.7,378.3,148.7,378.4L148.7,378.4z M158.3,374.1C158.6,374.1,158.5,374.1,158.3,374.1L158.3,374.1z M160.1,374.7
		C160,374.6,159.9,374.5,160.1,374.7L160.1,374.7z M168.1,392.6c0.2-1.2,0.3-2.5,0.4-3.7c0.2-2.2,0.2-4.5,0.1-6.7c0-0.3,0-0.7-0.1-1
		c0.1-0.2,0.2-0.3,0.3-0.5c0,0,0,0,0,0c0.1-0.1,0.2-0.2,0.2-0.2c0.3-0.3,0.7-0.6,1-0.9c0.1-0.1,0.3-0.2,0.4-0.3
		c0.4-0.2,0.7-0.5,1.1-0.7c0.4-0.2,0.4-0.2,0.7-0.3c0.4-0.1,0.8-0.2,1.1-0.3c0.6-0.1,0.4-0.1,0.9-0.1c0.4,0,0.9,0,1.3,0
		c0.6,0,0.4,0,0.9,0.1c0.4,0.1,0.8,0.2,1.2,0.3c0.8,0.2,1.4,0.5,2.2,1.1c1.2,0.7,2,1.8,2.8,3.1c0.2,0.3,0.3,0.6,0.4,0.8
		c0.1,0.1,0.1,0.3,0.2,0.4c0,0,0,0,0,0c0.2,0.6,0.4,1.1,0.5,1.7c0,0.1,0,0.3,0.1,0.4c0,0.1,0,0.1,0,0.1c0,0,0,0,0,0
		c0,0.3,0.1,0.6,0.1,1c0.1,0.8,0.1,1.6,0.1,2.4c0,1.2,0,2.4,0.1,3.6c-2,0.1-4.1,0.2-6.1,0.2C174.7,393.1,171.4,392.9,168.1,392.6z
		 M194.3,391.8c-1.7,0.2-3.3,0.4-5,0.6c0-0.1,0-0.1,0-0.2c0.9-0.3,1.6-1.2,1.6-2.2c0-2.7,0-5.1,0.6-7.5c0.1-0.4,0.2-0.8,0.3-1.1
		c0,0,0.2-0.4,0.2-0.5c0.2-0.4,0.4-0.9,0.7-1.3c0.1-0.2,0.3-0.4,0.4-0.6c0,0,0.1-0.1,0.1-0.1c0.1-0.1,0.1-0.2,0.2-0.3
		c0.3-0.4,0.7-0.7,1-1c0.1-0.1,0.2-0.1,0.3-0.2c0.2-0.1,0.4-0.2,0.6-0.3c0.1,0,0.1-0.1,0.2-0.1c0,0,0,0,0.1,0
		c0.3-0.1,0.5-0.1,0.8-0.2c0,0,0.1,0,0.1,0c0,0,0,0,0.1,0c0.3,0,0.6-0.1,0.9-0.1c0.3,0,0.6-0.1,1-0.1c-0.1,2.4-0.2,4.8-0.3,7.1
		c-0.2,2.3-0.9,5.2-0.1,7.5C196.8,391.3,195.6,391.6,194.3,391.8z M244.9,413.8c-1.7,0-3.4,0.1-5-0.1c-0.1-0.3-0.3-0.5-0.5-0.8
		c0-0.1-0.1-0.2-0.1-0.2c0-0.1-0.1-0.3-0.2-0.4c-0.1-0.2-0.1-0.4-0.1-0.5c-0.1-0.3-0.2-0.7-0.2-1c0-0.1,0-0.1,0-0.2
		c0-0.1,0-0.1,0-0.2c0-0.3-0.1-0.7-0.1-1c0-0.7,0-1.4,0-2.1c0-0.4,0-0.7,0.1-1c0-0.2,0-0.4,0.1-0.6c0,0,0,0,0-0.1c0,0,0,0,0,0
		c0.1-0.8,0.3-1.6,0.4-2.4c0.3-1.3,0.7-2.6,1.2-3.9c0,0,0.2-0.5,0.3-0.6c0.1-0.3,0.3-0.5,0.4-0.8c0.1-0.3,0.3-0.5,0.5-0.7
		c0,0-0.1,0.1-0.1,0.1c0.1-0.1,0.1-0.1,0.1-0.2c0,0,0,0,0,0c0-0.1,0.1-0.2,0.1-0.2c0,0,0,0,0,0c0,0,0.2-0.2,0.4-0.4c0,0,0,0,0,0
		c0.2,0,0.5-0.2,0.5-0.2c0.1,0,0.3-0.1,0.4-0.1c0,0,0.5-0.1,0.6-0.1c1.8-0.1,3.2,0.3,4.8,1.3c1.4,0.8,2.9,2.2,3.7,3.5
		c1.4,2.1,2,4.1,2.7,6.6c0.3,1.3,0.6,2.6,0.8,3.9c0.1,0.6,0.2,1.3,0.4,1.9c-1,0-2.1,0.1-3.1,0.1
		C250.4,413.6,247.6,413.8,244.9,413.8z M262.4,413.3c-0.6-5.2-1.2-12.2,4.2-15.2c2-1.1,4.1-0.8,5.7,0.8c1.8,1.8,2.7,4.3,2.9,6.8
		c0.1,1.6,0.1,3.2,0,4.8c-0.1,0.8-0.2,1.6-0.3,2.5c-1.3,0.1-2.5,0.2-3.8,0.3C268.2,413.5,265.3,413.4,262.4,413.3z M289.6,408.4
		c-0.7,0.5-1.5,0.9-2.3,1.3c-0.5,0.2-1,0.5-1.5,0.7c-0.2,0.1-0.6,0.2-0.6,0.2c-0.4,0.1-0.7,0.3-1.1,0.4c-0.7,0.2-1.4,0.4-2.1,0.6
		c-0.1-0.2-0.1-0.3-0.1-0.4c-0.1-0.3-0.2-0.5-0.2-0.8c-0.2-0.9-0.2-1.2-0.3-1.9c-0.1-1.7-0.1-3.3,0-5c0-0.1,0.1-0.6,0.1-0.7
		c0.1-0.4,0.1-0.8,0.2-1.2c0.2-0.8,0.3-1.5,0.5-2.3c0.1-0.3,0.2-0.6,0.3-1c0.1-0.1,0.1-0.3,0.2-0.4c0.1-0.3,0.3-0.5,0.4-0.7
		c0.2-0.2,0.3-0.4,0.5-0.6c0.2-0.2,0.3-0.3,0.5-0.5c0,0,0.2-0.1,0.3-0.2c0.3-0.2,0.5-0.4,0.8-0.5c0.2-0.1,0.4-0.2,0.6-0.3
		c0.1,0,0.1,0,0.1-0.1c0,0,0.1,0,0.1,0c0.4-0.1,0.9-0.3,1.3-0.4c0,0,0.3,0,0.4-0.1c0.2,0,0.4,0,0.4,0c0.4,0,0.7,0,1.1,0
		c0,0,0.2,0,0.4,0c0.2,0,0.4,0.1,0.4,0.1c0.2,0,0.3,0.1,0.5,0.1c0,0,0.3,0.1,0.4,0.2c0.2,0.2,0.6,0.4,0.8,0.5c0,0,0.1,0.1,0.1,0.1
		c0,0,0.1,0.1,0.2,0.2c0,0,0,0,0,0c0,0,0,0.1,0.1,0.1c0,0,0,0-0.1-0.1c0.2,0.3,0.4,0.6,0.5,0.9c0,0,0,0,0,0c0,0,0.1,0.1,0.1,0.2
		c0,0,0,0,0,0.1c0,0,0,0.1,0,0.1c0,0,0,0,0-0.1c0.1,0.3,0.2,0.6,0.3,1c0.2,0.7,0.3,1.4,0.5,2.1c0,0,0,0,0,0c0,0.2,0,0.5,0.1,0.7
		c0,0.4,0,0.8,0.1,1.2c0,0.3,0,0.6,0,0.9c0,0,0,0.1,0,0.1c0,0,0,0,0,0c0,0,0,0.1,0,0.1c-0.1,0.2-0.1,0.4-0.1,0.6
		c-0.1,0.3-0.2,0.6-0.3,0.9c-0.1,0.2-0.2,0.3-0.2,0.5c-0.1,0.2-0.2,0.3-0.3,0.5c0,0-0.3,0.4-0.4,0.5c-0.4,0.4-0.8,0.7-1.2,1.1
		c-0.1,0.1-0.5,0.4-0.6,0.4C290.3,408,290,408.2,289.6,408.4z M282.7,398.4C282.7,398.2,282.7,398.3,282.7,398.4L282.7,398.4z
		 M283.4,397.2C283.4,397.1,283.4,397.1,283.4,397.2L283.4,397.2z M324.4,404.6c-0.2-0.1-0.4-0.1-0.5-0.2c-0.4-0.2-0.8-0.4-1.2-0.6
		c-0.3-0.2-0.7-0.4-1-0.6c-0.2-0.1-0.3-0.2-0.5-0.3c-0.4-0.4-0.9-1.1-1.4-1.4c0,0,0,0,0-0.1c-0.2-0.3-0.4-0.6-0.5-0.9
		c0-0.1-0.1-0.1-0.1-0.2c0,0,0-0.1,0-0.1c0.1-0.5,0.3-1.1,0.4-1.6c0.1-0.3,0.2-0.6,0.3-0.9c0.1-0.2,0.1-0.4,0.2-0.5
		c0-0.1,0-0.1,0-0.1c0-0.1,0-0.1,0.1-0.2c0.6-1.4,1.3-2.7,2.1-3.9c0.8-1.3,1.1-1.7,2.2-2.8c0.2-0.2,0.4-0.4,0.6-0.6
		c0.1-0.1,0.2-0.2,0.3-0.2c0,0,0,0,0,0c0.6-0.3,0.8-0.5,1.3-0.6c1.1-0.2,2-0.2,3.2,0.3c2.4,1,4.3,3.4,4.9,6.1c0,0.2,0.1,0.3,0.1,0.5
		c-0.8,1.5-1.4,3-1.8,4.5c-0.6,1.9-1.1,4.1-1.1,6.3c-0.2,0-0.4-0.1-0.5-0.1C329,405.9,326.7,405.4,324.4,404.6z M339.1,406.9
		c0.8-2.9,1.3-6,1.2-9c0.2-0.4,0.5-0.9,0.8-1.3c0.1-0.1,0.2-0.3,0.3-0.4c0,0,0,0,0,0c0.3-0.3,0.6-0.6,0.9-0.9
		c0.1-0.1,0.1-0.1,0.1-0.1c0,0,0.1,0,0.1-0.1c0.2-0.1,0.4-0.3,0.7-0.4c0.2-0.1,0.3-0.2,0.5-0.2c0,0,0.1,0,0.1,0
		c0.1-0.1,0.3-0.1,0.4-0.2c0.4-0.1,0.9-0.2,1.3-0.3c0.1,0,0.4,0,0.5,0c0.3,0,0.5,0,0.8,0c0.2,0,0.4,0,0.5,0c0.1,0,0.1,0,0.1,0
		c0,0,0.1,0,0.1,0c0.5,0.1,1.1,0.3,1.6,0.5c0.1,0.1,0.4,0.2,0.4,0.2c0.2,0.1,0.4,0.3,0.7,0.4c0,0,0.1,0,0.1,0.1
		c0.1,0.1,0.3,0.2,0.4,0.4c0.1,0.1,0.2,0.2,0.3,0.3c0.2,0.4,0.5,0.7,0.7,1.1c0.2,0.3,0.3,0.6,0.5,0.9c0,0.1,0.1,0.3,0.2,0.4
		c0,0.1,0.1,0.2,0.1,0.3c0.3,0.9,0.6,1.8,0.8,2.7c0.2,0.9,0.4,1.7,0.5,2.6c0,0,0.1,0.7,0.1,0.9c0,0.5,0.1,1.1,0.1,1.6
		c0,0.4,0,0.9,0,1.3c0,0,0,0,0,0c-1.9,0-3.9-0.1-5.8-0.2C345.1,407.3,342.1,407.1,339.1,406.9z M377,404.6
		C377,404.5,377.1,404.5,377,404.6c-0.1,0-0.1,0-0.2,0.1c-0.1,0.1-0.3,0.2-0.3,0.2c-0.3,0.2-0.6,0.4-1,0.6c0,0-0.1,0.1-0.3,0.2
		c-0.1,0-0.1,0-0.2,0.1c-0.1,0-0.2,0.1-0.2,0.1c0,0,0.1,0,0.1-0.1c-0.3,0.1-0.5,0.2-0.8,0.3c-0.8,0.3-1.7,0.5-2.6,0.7
		c-0.9,0.2-1.7,0.3-2.6,0.5c-0.1,0-0.2,0-0.4,0.1c-0.6,0.1-1.2,0.1-1.8,0.2c-1.6,0.1-3.2,0.2-4.8,0.3c-0.1-0.5-0.3-1-0.4-1.5
		c0-0.2-0.1-0.4-0.1-0.6c0,0,0,0,0,0c0,0,0,0,0,0c0-0.5-0.1-0.9-0.1-1.4c0-0.8,0-1.7,0-2.5c0-0.4,0.1-0.7,0.1-1.1
		c0-0.1,0-0.3,0.1-0.4c0-0.2,0.1-0.4,0.1-0.5c0.2-0.9,0.4-1.7,0.7-2.5c0.1-0.2,0.2-0.4,0.2-0.6c0,0,0,0,0-0.1c0,0,0,0,0-0.1
		c0.2-0.4,0.4-0.8,0.6-1.2c0.2-0.4,0.5-0.7,0.7-1.1c0,0,0,0,0-0.1c0,0,0,0,0.1-0.1c0.2-0.2,0.3-0.3,0.5-0.5c0.3-0.3,0.7-0.6,1-1
		c0,0,0.1-0.1,0.1-0.1c0,0,0,0,0.1-0.1c0.3-0.2,0.5-0.4,0.8-0.5c1.6-1,3.7-1.6,5.5-1.8c1.1-0.1,2.2-0.2,3.2-0.1
		c0.1,0,0.4,0.1,0.5,0.1c0.2,0.1,0.5,0.1,0.7,0.2c0.1,0,0.3,0.1,0.4,0.1c0.1,0,0.1,0.1,0.2,0.1c0.3,3,0.5,6.1,0.5,9.1
		c0,1.3,0,2.6,0,3.9c0,0.1,0,0.3,0,0.4c0,0,0,0.1,0,0.1c0,0,0,0,0,0c0,0,0,0,0,0c0,0,0,0,0,0.1c0,0.1,0,0.1-0.1,0.2c0,0,0,0,0,0
		c-0.1,0.1-0.1,0.1-0.2,0.2C377.1,404.4,377.1,404.4,377,404.6c0.1-0.1,0.1-0.1,0.1-0.1C377.1,404.5,377.1,404.5,377,404.6
		C377.1,404.5,377,404.5,377,404.6z M361.6,400.4c0-0.1,0-0.1,0-0.2C361.6,400.2,361.6,400.3,361.6,400.4z M371.5,270.5
		c0.5,2.5,1,5,1.4,7.6c0,0.2,0.1,0.6,0.1,0.6c0,0.3,0.1,0.6,0.1,0.9c0.1,0.7,0.1,1.3,0.2,2c0.1,1.5,0.2,2.9,0.3,4.4
		c0.6,12.1-0.2,24.2-0.9,36.3c-0.3,5.8-0.8,11.6-0.9,17.4c0,3,0.2,5.9,0.5,8.9c0.8,8.8,2,17.5,3,26.3c0.4,3.1,0.7,6.2,1.1,9.2
		c-0.7-0.1-1.4-0.2-2.2-0.2c-5.3,0-11,1.9-14.4,6.1c-1.1,1.3-1.9,2.8-2.5,4.3c-0.6-1.2-1.3-2.2-2.3-3.1c-3.6-3.6-9.4-4.2-13.9-2.1
		c-0.9,0.4-1.6,0.9-2.3,1.4c-1.1-2.4-2.9-4.5-5.6-6c-3.4-1.9-7.7-2.2-11,0.1c-1.1,0.8-2.1,1.8-3,2.9c0.2-1.5,0.4-3,0.5-4.5
		c0.7-7.1,0.9-14.2,0.4-21.3c-0.2-3.4-0.6-6.8-1.2-10.1c-0.1-0.7-0.5-1.3-1-1.9c2.3-0.9,4.6-2,6.9-3.1c4-2,8.3-4.3,11.4-7.6
		c1.1-1.2,1.3-3,0.3-4.4c-1.1-1.4-2.7-1.5-4.3-0.9c-3.9,1.7-7.5,4.3-11.3,6.3c-3.6,1.9-7.3,3.6-10.9,5c-7.8,3.1-16.1,5.3-24.4,6.4
		c-2.3,0.3-1.7,4,0.5,4c2.9,0,5.9-0.1,8.8-0.4c-0.3,6-1,12-1.4,18.1c-0.3,5.3-1.2,10.8-0.9,16.1c-3.5-1.1-7.6-0.4-10.6,1.6
		c-1.7,1.1-3.3,2.7-4.1,4.6c-0.4,0.8-0.6,1.6-0.8,2.4c-0.5-0.7-1-1.3-1.6-1.9c-2.5-2.5-6.2-3.5-9.5-2.2c-3.2,1.3-5.6,4-6.7,7.2
		c0,0,0,0,0,0c-0.4-0.9-0.8-1.7-1.3-2.5c-2.7-4.6-7.4-7.9-12.8-8.4c-2.1-0.2-4.5,0.1-6.3,1.3c-1.4,0.9-2.4,2.3-3.2,3.7
		c-1.7,3.3-2.4,7.1-2.6,10.7c0,0.6,0,1.3,0,1.9c-1.6-4.5-1.7-9.6-1.8-14.3c-0.1-8,0.3-16.1,0.9-24c0.7-8.6,1.6-17.2,2.8-25.8
		c0.3-1.8-2.4-2.6-2.8-0.8c-1.1,5.4-1.9,10.8-2.7,16.2c-0.1-0.2-0.2-0.3-0.4-0.5c-0.9-0.9-1.7-1.5-2.9-1.8c-1-0.3-2-0.5-3-0.8
		c-1.8-0.5-3.6-1.1-5.4-1.7c-3.5-1.2-7.1-2.5-10.4-4c-7-3.1-13.8-7-20.3-11.1c-3.7-2.3-7.5-4.3-10.9-7c-1.5-1.1-3.5,0.7-2.1,2.1
		c2.7,2.8,5.2,5.9,8.2,8.4c3.1,2.7,6.4,5.1,9.9,7.3c2.3,1.4,4.6,2.7,7,3.9c-0.3,5.6-0.6,11.2-0.8,16.8c-0.3,0-0.6,0.1-1,0.1
		c0,0,0,0,0,0c-0.1,0-0.2,0-0.3,0c-0.3,0-0.5,0.1-0.8,0.1c-4.6,0.5-8.1,3.9-9.6,8.1c-1-1.6-2.2-3-3.7-4.1c-3.4-2.5-8.2-3.5-12.2-2.1
		c-1.2,0.4-2.5,1.1-3.7,1.9c-0.8-2.2-2-4.1-4-5.5c-3.9-2.7-9.6-1.7-13.8-0.3c-3.5,1.1-5.7,4.4-6.9,7.7c0-0.2,0-0.4,0-0.7
		c0-1.5,0-2.9,0.1-4.4c0.3-6,1.2-11,2-16.9c0.8-5.7,1.1-11.4,1.6-17.1c1-12.2,2-23.7,5.1-35.5c3.2-12,8.7-23.3,17.2-32.5
		c0.6-0.7,1.3-1.4,1.9-2c4-0.1,8,0.9,11.9,2.1c-0.2,0.5-0.4,1.1-0.5,1.7c-0.2,1.1-0.3,2.3-0.5,3.4c-0.2,1.7-0.4,3.5-0.5,5.2
		c-0.2,3.8,0.2,7.5,1,11.2c0.7,2.9,1.8,5.5,3.2,8c0.3,0.6,0.7,1.2,1.1,1.7c0.1,0.4,0.3,0.9,0.7,1.1c2.3,1.8,4.8,3.2,7.6,4
		c2.6,0.8,5.7,1.3,8.4,1c6-0.6,11.8-2.2,17.7-3.6c2.9-0.7,5.7-1.3,8.6-1.9c1.3-0.3,2.7-0.5,4-0.7c0.7-0.1,1.3-0.2,2-0.3
		c0.4-0.1,0.8-0.1,1.2-0.2c0.1,0,0.4-0.1,0.6-0.1c5.5-0.7,11.1-1,16.6-0.7c6,0.3,11.9,0.9,17.9,0.8c6.1,0,12.2-0.4,18.2-1.1
		c11.4-1.3,23.1-3.1,33-9.3c5.6-3.5,10.6-7.8,15.2-12.5c4.7-4.9,9.2-10.3,12.7-16.1c0,0,0,0,0-0.1c4.7,0.6,9.5,0.9,14.3,0
		c1.1-0.2,2.2-0.5,3.3-0.9C369.9,263.7,370.8,267.2,371.5,270.5z M191,296.1C190.9,295.8,191,295.9,191,296.1L191,296.1z
		 M203.9,290.6c-0.6-1.2-1.3-2.5-1.7-3.8c-0.5-1.6-0.7-3.3-0.6-5c0.1-2.5,0.7-4.8,1.8-7c5,0.2,10.1-0.7,14.4-3.3
		c-3.2,5.9-6.7,11.6-11.4,16.6C205.6,289,204.7,289.8,203.9,290.6z M201.2,293.3c-0.1,0.1-0.2,0.2-0.3,0.3c-1.8,1.7-3.8,3.6-6,4.6
		c-0.8,0.3-1.5,0.5-2.3,0.2c-0.1,0-0.2-0.1-0.2-0.1c-0.1-0.1-0.2-0.1-0.2-0.1c0,0-0.1-0.1-0.1-0.1c0,0-0.1-0.2-0.2-0.2
		c-0.1-0.2-0.3-0.4-0.4-0.7c0,0-0.1-0.3-0.2-0.5c-0.1-0.2-0.2-0.6-0.2-0.5c0,0,0-0.1,0-0.1c0-0.3-0.1-0.5-0.1-0.8c0-0.3,0-0.7,0-1
		c0-0.1,0.1-0.9,0.1-1.3c0-0.5,0-1.1,0.1-1.6c0.2-3.4,0.5-6.8,0.7-10.2c0.1-0.9,0.2-1.7,0.3-2.6c0-0.1,0-0.1,0-0.2
		c0.1-0.5,0.1-0.9,0.2-1.4c0.2-1.4,0.6-2.7,0.7-4.1c2.1,0.6,4.2,1,6.3,1.3c-1,2.4-1.6,5-1.6,7.6
		C197.7,285.9,198.7,290.2,201.2,293.3z M410.9,194.1c-1.7,2.8-3.6,5.3-5.8,7.7c-1.1,1.2-2.3,2.4-3.6,3.6c-1.4,1.3-2.6,2.7-3.8,4.2
		c-0.4,0.5-0.4,1-0.3,1.6c-0.5,0.2-0.9,0.7-1.1,1.4c-1,3.3-2.3,6.4-4.1,9.3c-2,3.2-3.6,5.5-6.5,7.9c-2.2,1.9-5.9,3.9-8.7,4.8
		c-1.7,0.6-3.5,1.1-5.3,1.3c-0.1,0-0.7,0.1-0.8,0.1c-0.5,0.1-1.1,0.1-1.6,0.1c-1,0.1-1.9,0.3-2.9,0.7c-1.6-0.6-3.3-1.1-5-1.4
		c-1.5-0.2-3,0.5-3.3,2.2c-0.2,1.7,1,2.8,2.6,3c1.6,0.2,3.4,0.7,5,1.3c0,0,0,0,0.1,0.1c0.5,0.4,1.1,0.6,1.7,0.8
		c0.9,0.5,1.7,1,2.4,1.7c0.5,0.5,1,1.2,1.5,1.7c0.2,0.2,0.7,0.8,0.7,0.8c0.1,0.2,0.1,0.2,0.2,0.2c0,0-0.1,0,0,0.3
		c0.1,0.8,0.7,1.5,1.2,2.2c-1.3,0.8-2.6,1.6-3.9,2.2c-0.4,0.2-0.8,0.4-1.3,0.6c-0.1,0-0.4,0.2-0.5,0.2c-0.3,0.1-0.6,0.2-0.9,0.3
		c-1.1,0.4-2.2,0.7-3.3,0.9c-0.5,0.1-1,0.2-1.5,0.3c-0.1,0-0.2,0-0.3,0c-0.1,0-0.3,0-0.4,0c-1.1,0.1-2.2,0.2-3.4,0.2
		c-2.1,0-4.2-0.2-6.4-0.4c-0.1,0-0.1,0-0.1,0c0,0-0.1,0-0.1,0c-0.2,0-0.5-0.1-0.7-0.1c-0.5-0.1-1.1-0.2-1.6-0.3
		c-1.2-0.2-2.4-0.4-3.6-0.6c-2-0.3-3.9-0.6-5.9-0.7c-3.9-0.4-7.9-0.5-11.8,0.3c-3.6,0.8-7.1,3.1-8.4,6.8c-0.5,1.4,1.6,2.2,2.3,1
		c0.7-1.1,1.7-1.5,3-1.7c0.3-0.1,1.3-0.1,1.9-0.1c0.9,0,1.8-0.1,2.7-0.1c1.8,0,3.7,0.2,5.6,0.3c0.8,0.1,1.6,0.2,2.4,0.3
		c0.2,0,0.7,0.1,0.9,0.1c0.5,0.1,0.9,0.1,1.4,0.2c1.2,0.2,2.4,0.4,3.6,0.6c-2.8,3.4-5.6,6.9-8.8,10.2c-2,2-4,4-6.2,5.9
		c-1,0.9-2.1,1.8-3.2,2.7c-0.8,0.6-1.8,1.4-3,2.2c-2.2,1.5-4.5,2.9-6.8,4.2c-1.1,0.6-2.2,1.1-3.3,1.6c-0.1,0-0.1,0-0.1,0.1
		c0,0-0.1,0-0.1,0.1c-0.3,0.1-0.6,0.2-0.9,0.3c-0.6,0.2-1.3,0.5-2,0.7c-5.3,1.7-10.8,2.7-16.3,3.5c-5.2,0.8-11.3,1.3-17,1.5
		c-5.7,0.2-11.5,0.1-17.2-0.4c-5.7-0.5-11.4-0.8-17.2-0.5c-5.6,0.3-11.1,1-16.6,2c-6.4,1.1-12.6,2.8-18.9,4.1
		c-0.2,0-0.5,0.1-0.7,0.1c1-0.9,2-1.8,3-2.8c4.2-4.1,7.8-9,10.6-14.1c3.1-5.6,5.6-11.6,6.3-18.1c1.4-2.7,2-5.8,1.3-8.9
		c-0.8-3.5-6.2-2.7-6.1,0.8c0,4.2-1.7,7.8-5.4,10.2c-2.1,1.4-4,2.1-6.7,2.5c-2.6,0.4-5.5,0.3-8.1-0.1c-11.6-1.8-23.1-7.5-35.1-4.7
		c-3.6,0.8-7.1,2.4-9.9,4.8c-1.8-5.6-2.8-11.4-3.1-17.4c-0.2-4-0.1-7.9,0.3-11.9c0.2-2.1,0.6-4.2,1-6.3c0.3,0.4,0.5,0.8,0.8,1.1
		c0.6,0.9,1.2,1.8,2,2.5c0.2,0.2,0.5,0.4,0.8,0.6c0.5,1.3,1.7,1.9,3.1,2.1c7.7,0.9,15.5-2.5,20.6-8.3c5.4-6.1,7.9-14.2,6.8-22.2
		c-0.1-0.4-0.2-0.7-0.4-1c0.1-0.8-0.2-1.7-1-2c-2.5-1.1-4.9-2.2-7.4-3.3c0.1-0.2,0.3-0.3,0.4-0.5c2.7-4.6,5.6-9,8.6-13.4
		c1.5-2.1,3-4.3,4.5-6.4c0.7-1,1.4-1.9,2.1-2.9c0.1-0.1,0.2-0.3,0.3-0.4c0.1-0.1,0.3-0.4,0.3-0.4c0.4-0.6,0.9-1.1,1.3-1.7
		c6.2-7.8,13.1-15.3,20.3-22.3c3.3-3.2,6.7-6.2,10.2-9.2c1.9,4.2,4.1,8.2,6.7,12c2.3,3.4,4.9,6.7,7.6,9.8c1.2,1.4,2.5,2.8,4,4
		c1.7,1.4,3.5,2.7,5.3,3.9c0.4,0.3,0.9,0.4,1.4,0.5c0.2,0.6,0.7,1.2,1.3,1.5c3.5,1.5,7,2.7,10.9,2.6c3.9-0.1,7.7-1.3,11.1-3
		c6.7-3.3,11.8-9.7,13.8-16.8c1.1-4,2.5-11.1-1.8-13.6c-0.4-0.3-0.9-0.4-1.4-0.4c-1.1-1.4-2.1-2.8-3.2-4.2c-1.7-2.3-3.4-4.7-5.1-7
		c-3.3-4.7-6.6-9.4-9.8-14.2c-3.2-4.9-6.5-9.7-9.6-14.6c-2.2-3.5-4.4-7-6.6-10.4c2.2-4.4,5.1-8.7,8.7-12c2-1.8,4.5-3.5,6.9-4.5
		c1.2-0.5,2.7-0.9,3.8-1c0.6,0,1.5,0,1.7,0c0.8,0.2,1,0.3,1.7,0.7c1.4,0.8,3.4,0.3,4.2-1.1c0.2-0.4,0.3-0.7,0.4-1.1
		c0.2,0,0.4-0.1,0.7-0.1c0.9-0.3,1.6-1.1,2.4-1.7c0.7-0.6,1.5-1.2,2.2-1.8c2.6-2.2,5.7-3.9,8.8-5.3c0.5-0.2,1.4-0.6,2-0.8
		c0.9-0.3,1.8-0.7,2.7-0.9c1.7-0.5,3.5-1,5.3-1.3c8.1-1.4,16.7,0.4,24.4,3.5c-0.1,0.1-0.1,0.1-0.2,0.2c-0.7,1,0.8,1.9,1.6,1.2
		c2.7-2.3,6.4-2.9,9.9-2.9c4.2,0,8.4,1,12.5,2.1c7.2,2,14.4,4.3,21.2,7.6c12.9,6.1,24.5,15.6,29.1,29.5c1.2,3.6,1.9,7.3,1.9,11.1
		c0,3.8-0.6,7.5-1.2,11.2c-0.3,1.8,1.6,3.1,3,2.2c0.3,0.5,0.7,1,1.1,1.4c0.9,1.2,1.8,2.4,2.6,3.6c1.7,2.5,3.3,5.1,4.7,7.9
		c2.6,5.3,4.5,11.3,5.2,17.1C419.9,171.8,417.2,183.8,410.9,194.1z"/>
</g>
</svg>
