<?xml version="1.0" encoding="utf-8"?>
<!-- Generator: Adobe Illustrator 26.3.1, SVG Export Plug-In . SVG Version: 6.00 Build 0)  -->
<svg version="1.1" id="Dinospuren" xmlns="http://www.w3.org/2000/svg" xmlns:xlink="http://www.w3.org/1999/xlink" x="0px" y="0px"
	 viewBox="0 0 500.5 509" style="enable-background:new 0 0 500.5 509;" xml:space="preserve">
<style type="text/css">
	.st0{fill:#AACD99;}
	.st1{fill:#211F1B;}
</style>
<g id="Farbe">
	<g>
		<path class="st0" d="M334.53,400.22c-2.21-8.38-11.92-12.46-19.48-8.42c-4.6,2.46-6.85,6.96-7.37,12
			c-0.48,4.59,0.57,10.93-2.65,14.69c-0.07-9.96-2.1-19.75-1.77-29.74c0.25-7.86-0.25-16.78-7.96-21.08
			c-6.84-3.81-15.98-2.05-21.5,3.29c-2.81,2.72-5,6.51-5.5,10.41c-0.57,4.38,0.57,8.83,1.78,13.02c1.37,4.73,2.65,9.43,4.48,14.01
			c1.54,3.85,2.73,7.54,2.72,11.52c-3.05-7.53-7.04-14.98-14.86-18.35c-7.38-3.18-17.62-0.33-19.65,8.25
			c-2.1,8.89,7.06,15.47,10.59,22.59c2.2,4.43,3.56,9.26,6.21,13.47c2.33,3.71,5.39,6.95,8.72,9.77
			c7.85,6.65,17.57,11.15,27.76,12.64c0.73,0.11,1.34-0.12,1.81-0.5c6.4-0.97,12.98-4.07,17.52-8.66
			c7.61-7.69,9.5-17.79,11.74-27.97c1.29-5.84,3.59-10.99,5.61-16.56C334.37,410.03,335.8,405.04,334.53,400.22z"/>
		<path class="st0" d="M272.91,366.22c0.92,0.21,2.08-0.4,2.4-1.32c0,0,0,0,0,0c0.57-0.28,1.14-0.55,1.69-0.8
			c1.24-0.57,2.51-1.01,3.84-1.32c2.68-0.61,5.46-0.57,8.12,0.11c1.67,0.43,3.14-1.08,2.74-2.74c-0.47-1.91-1.03-3.86-1.93-5.62
			c-0.74-1.46-1.78-2.79-2.86-4.01c-2.3-2.6-4.93-4.91-7.25-7.5c-1.33-1.48-3.58-0.56-4.15,1.1c-1.14,3.32-2.46,6.61-3.31,10.03
			c-0.4,1.59-0.63,3.22-0.76,4.85c-0.11,1.45-0.24,3.06-0.03,4.56c-0.07,0.07-0.13,0.13-0.2,0.2
			C270.1,364.91,271.47,366.96,272.91,366.22z"/>
		<path class="st0" d="M244.35,398.94c0.05-0.04,0.11-0.07,0.17-0.11c0.35-0.1,0.68-0.29,0.93-0.59c2.97-1.72,6.45-2.13,9.74-1.07
			c1.51,0.48,2.82-1.04,2.47-2.47c-0.64-2.61-1.56-5.13-2.72-7.55c-1.11-2.32-2.45-4.76-4.19-6.66c-1.93-2.11-5.18-2.64-7.02-0.11
			c-1.41,1.95-1.17,4.7-1.24,6.98c-0.05,1.71-0.1,3.42-0.15,5.13c-0.02,0.83-0.02,1.65-0.01,2.48c0,0.19,0,0.38,0,0.57
			c-0.85,0.63-1.27,1.71-0.69,2.69C242.14,399.08,243.48,399.57,244.35,398.94z"/>
		<path class="st0" d="M317.43,385.88c0.09,0,0.16-0.04,0.24-0.05c3.09,1.02,6.27,1.81,9.4,2.69c1.34,0.38,2.7-0.68,2.7-2.06
			c0.01-6.46-0.81-12.92-2.46-19.17c-0.4-1.53-2.38-2.02-3.49-0.92c-4.74,4.72-7.63,10.88-8.4,17.51
			C315.3,384.95,316.44,385.88,317.43,385.88z"/>
	</g>
	<g>
		<path class="st0" d="M221.67,359.98c0.44-8.65-7.58-15.49-16.01-13.94c-5.13,0.95-8.63,4.55-10.67,9.2
			c-1.85,4.23-2.77,10.58-6.98,13.2c2.95-9.51,4-19.46,7.34-28.88c2.63-7.41,4.86-16.07-1.19-22.51c-5.36-5.71-14.61-6.8-21.48-3.39
			c-3.5,1.74-6.74,4.68-8.4,8.24c-1.87,4.01-2.14,8.59-2.26,12.94c-0.13,4.92-0.34,9.79,0.02,14.71c0.3,4.13,0.31,8.01-0.9,11.8
			c-0.62-8.1-2.16-16.41-8.59-22c-6.06-5.27-16.68-5.66-21.22,1.9c-4.71,7.84,2.03,16.89,3.23,24.74c0.75,4.89,0.58,9.9,1.82,14.72
			c1.09,4.24,3.03,8.25,5.34,11.95c5.46,8.72,13.35,15.96,22.61,20.47c0.66,0.32,1.32,0.3,1.88,0.07
			c6.39,1.02,13.61,0.06,19.33-2.93c9.59-5.02,14.46-14.07,19.68-23.09c3-5.17,6.75-9.38,10.37-14.07
			C218.54,369.29,221.42,364.97,221.67,359.98z"/>
		<path class="st0" d="M173.28,308.88c0.82,0.48,2.1,0.25,2.68-0.53c0,0,0,0,0,0c0.62-0.09,1.25-0.17,1.86-0.25
			c1.35-0.16,2.7-0.2,4.06-0.09c2.74,0.23,5.38,1.11,7.7,2.56c1.46,0.91,3.32-0.07,3.44-1.78c0.14-1.96,0.19-4-0.13-5.94
			c-0.27-1.62-0.85-3.2-1.5-4.69c-1.4-3.18-3.2-6.18-4.63-9.35c-0.82-1.81-3.24-1.62-4.29-0.22c-2.1,2.82-4.35,5.55-6.2,8.55
			c-0.86,1.39-1.58,2.87-2.19,4.39c-0.54,1.35-1.16,2.84-1.41,4.34c-0.08,0.04-0.17,0.09-0.25,0.13
			C171,306.78,171.68,309.15,173.28,308.88z"/>
		<path class="st0" d="M136.14,331.39c0.06-0.02,0.13-0.03,0.19-0.05c0.36,0.02,0.74-0.07,1.06-0.28c3.35-0.74,6.79-0.07,9.61,1.93
			c1.29,0.92,3-0.14,3.1-1.6c0.18-2.68,0.07-5.36-0.3-8.02c-0.35-2.54-0.89-5.28-1.97-7.62c-1.2-2.6-4.14-4.09-6.65-2.23
			c-1.94,1.43-2.55,4.12-3.3,6.27c-0.57,1.61-1.13,3.23-1.7,4.84c-0.27,0.78-0.52,1.57-0.77,2.36c-0.06,0.18-0.11,0.36-0.17,0.55
			c-1,0.35-1.73,1.25-1.48,2.36C133.99,330.86,135.12,331.73,136.14,331.39z"/>
		<path class="st0" d="M209.74,341.13c0.09,0.03,0.16,0.01,0.24,0.03c2.64,1.91,5.43,3.62,8.14,5.41c1.16,0.77,2.78,0.17,3.2-1.14
			c1.97-6.15,3.15-12.56,3.48-19.01c0.08-1.58-1.66-2.65-3.04-1.94c-5.95,3.06-10.57,8.05-13.32,14.13
			C207.99,339.6,208.79,340.83,209.74,341.13z"/>
	</g>
	<g>
		<path class="st0" d="M342.13,253.9c-2.21-8.38-11.92-12.46-19.48-8.42c-4.6,2.46-6.85,6.96-7.37,12
			c-0.48,4.59,0.57,10.93-2.65,14.69c-0.07-9.96-2.1-19.75-1.77-29.74c0.25-7.86-0.25-16.78-7.96-21.08
			c-6.84-3.81-15.98-2.05-21.5,3.29c-2.81,2.72-5,6.51-5.5,10.41c-0.57,4.38,0.57,8.83,1.78,13.02c1.37,4.73,2.65,9.43,4.48,14.01
			c1.54,3.85,2.73,7.54,2.72,11.52c-3.05-7.53-7.04-14.98-14.86-18.35c-7.38-3.18-17.62-0.33-19.65,8.25
			c-2.1,8.89,7.06,15.47,10.59,22.59c2.2,4.43,3.56,9.26,6.21,13.47c2.33,3.71,5.39,6.95,8.72,9.77
			c7.85,6.65,17.57,11.15,27.76,12.64c0.73,0.11,1.34-0.12,1.81-0.5c6.4-0.97,12.98-4.07,17.52-8.66
			c7.61-7.69,9.5-17.79,11.74-27.97c1.29-5.84,3.59-10.99,5.61-16.56C341.98,263.71,343.4,258.73,342.13,253.9z"/>
		<path class="st0" d="M280.51,219.9c0.92,0.21,2.08-0.4,2.4-1.32c0,0,0,0,0,0c0.57-0.28,1.14-0.55,1.69-0.8
			c1.24-0.57,2.51-1.01,3.84-1.32c2.68-0.61,5.46-0.57,8.12,0.11c1.67,0.43,3.14-1.08,2.74-2.74c-0.47-1.91-1.03-3.86-1.93-5.62
			c-0.74-1.46-1.78-2.79-2.86-4.01c-2.3-2.6-4.93-4.91-7.25-7.5c-1.33-1.48-3.58-0.56-4.15,1.1c-1.14,3.32-2.46,6.61-3.31,10.03
			c-0.4,1.59-0.63,3.22-0.76,4.85c-0.11,1.45-0.24,3.06-0.03,4.56c-0.07,0.07-0.13,0.13-0.2,0.2
			C277.7,218.59,279.07,220.64,280.51,219.9z"/>
		<path class="st0" d="M251.96,252.62c0.05-0.04,0.11-0.07,0.17-0.11c0.35-0.1,0.68-0.29,0.93-0.59c2.97-1.72,6.45-2.13,9.74-1.07
			c1.51,0.48,2.82-1.04,2.47-2.47c-0.64-2.61-1.56-5.13-2.72-7.55c-1.11-2.32-2.45-4.76-4.19-6.66c-1.93-2.11-5.18-2.64-7.02-0.11
			c-1.41,1.95-1.17,4.7-1.24,6.98c-0.05,1.71-0.1,3.42-0.15,5.13c-0.02,0.83-0.02,1.65-0.01,2.48c0,0.19,0,0.38,0,0.57
			c-0.85,0.63-1.27,1.71-0.69,2.69C249.75,252.76,251.09,253.25,251.96,252.62z"/>
		<path class="st0" d="M325.04,239.56c0.09,0,0.16-0.04,0.24-0.05c3.09,1.02,6.27,1.81,9.4,2.69c1.34,0.38,2.7-0.68,2.7-2.06
			c0.01-6.46-0.81-12.92-2.46-19.17c-0.4-1.53-2.38-2.02-3.49-0.92c-4.74,4.72-7.63,10.88-8.4,17.51
			C322.91,238.63,324.05,239.56,325.04,239.56z"/>
	</g>
	<g>
		<path class="st0" d="M231.6,204.39c0.44-8.65-7.58-15.49-16.01-13.94c-5.13,0.95-8.63,4.55-10.67,9.2
			c-1.85,4.23-2.77,10.58-6.98,13.2c2.95-9.51,4-19.46,7.34-28.88c2.63-7.41,4.86-16.07-1.19-22.51c-5.36-5.71-14.61-6.8-21.48-3.39
			c-3.5,1.74-6.74,4.68-8.4,8.24c-1.87,4.01-2.14,8.59-2.26,12.94c-0.13,4.92-0.34,9.79,0.02,14.71c0.3,4.13,0.31,8.01-0.9,11.8
			c-0.62-8.1-2.16-16.41-8.59-22c-6.06-5.27-16.68-5.66-21.22,1.9c-4.71,7.84,2.03,16.89,3.23,24.74c0.75,4.89,0.58,9.9,1.82,14.72
			c1.09,4.24,3.03,8.25,5.34,11.95c5.46,8.72,13.35,15.96,22.61,20.47c0.66,0.32,1.32,0.3,1.88,0.07
			c6.39,1.02,13.61,0.06,19.33-2.93c9.59-5.02,14.46-14.07,19.68-23.09c3-5.17,6.75-9.38,10.37-14.07
			C228.47,213.69,231.34,209.37,231.6,204.39z"/>
		<path class="st0" d="M183.2,153.28c0.82,0.48,2.1,0.25,2.68-0.53c0,0,0,0,0,0c0.62-0.09,1.25-0.17,1.86-0.25
			c1.35-0.16,2.7-0.2,4.06-0.09c2.74,0.23,5.38,1.11,7.7,2.56c1.46,0.91,3.32-0.07,3.44-1.78c0.14-1.96,0.19-4-0.13-5.94
			c-0.27-1.62-0.85-3.2-1.5-4.69c-1.4-3.18-3.2-6.18-4.63-9.35c-0.82-1.81-3.24-1.62-4.29-0.22c-2.1,2.82-4.35,5.55-6.2,8.55
			c-0.86,1.39-1.58,2.87-2.19,4.39c-0.54,1.35-1.16,2.84-1.41,4.34c-0.08,0.04-0.17,0.09-0.25,0.13
			C180.92,151.18,181.61,153.55,183.2,153.28z"/>
		<path class="st0" d="M146.06,175.8c0.06-0.02,0.13-0.03,0.19-0.05c0.36,0.02,0.74-0.07,1.06-0.28c3.35-0.74,6.79-0.07,9.61,1.93
			c1.29,0.92,3-0.14,3.1-1.6c0.18-2.68,0.07-5.36-0.3-8.02c-0.35-2.54-0.89-5.28-1.97-7.62c-1.2-2.6-4.14-4.09-6.65-2.23
			c-1.94,1.43-2.55,4.12-3.3,6.27c-0.57,1.61-1.13,3.23-1.7,4.84c-0.27,0.78-0.52,1.57-0.77,2.36c-0.06,0.18-0.11,0.36-0.17,0.55
			c-1,0.35-1.73,1.25-1.48,2.36C143.91,175.26,145.04,176.13,146.06,175.8z"/>
		<path class="st0" d="M219.66,185.53c0.09,0.03,0.16,0.01,0.24,0.03c2.64,1.91,5.43,3.62,8.14,5.41c1.16,0.77,2.78,0.17,3.2-1.14
			c1.97-6.15,3.15-12.56,3.48-19.01c0.08-1.58-1.66-2.65-3.04-1.94c-5.95,3.06-10.57,8.05-13.32,14.13
			C217.92,184,218.72,185.23,219.66,185.53z"/>
	</g>
	<g>
		<path class="st0" d="M343.2,106.1c-2.21-8.38-11.92-12.46-19.48-8.42c-4.6,2.46-6.85,6.96-7.37,12
			c-0.48,4.59,0.57,10.93-2.65,14.69c-0.07-9.96-2.1-19.75-1.77-29.74c0.25-7.86-0.25-16.78-7.96-21.08
			c-6.84-3.81-15.98-2.05-21.5,3.29c-2.81,2.72-5,6.51-5.5,10.41c-0.57,4.38,0.57,8.83,1.78,13.02c1.37,4.73,2.65,9.43,4.48,14.01
			c1.54,3.85,2.73,7.54,2.72,11.52c-3.05-7.53-7.04-14.98-14.86-18.35c-7.38-3.18-17.62-0.33-19.65,8.25
			c-2.1,8.89,7.06,15.47,10.59,22.59c2.2,4.43,3.56,9.26,6.21,13.47c2.33,3.71,5.39,6.95,8.72,9.77
			c7.85,6.65,17.57,11.15,27.76,12.64c0.73,0.11,1.34-0.12,1.81-0.5c6.4-0.97,12.98-4.07,17.52-8.66
			c7.61-7.69,9.5-17.79,11.74-27.97c1.29-5.84,3.59-10.99,5.61-16.56C343.05,115.91,344.48,110.92,343.2,106.1z"/>
		<path class="st0" d="M281.58,72.09c0.92,0.21,2.08-0.4,2.4-1.32c0,0,0,0,0,0c0.57-0.28,1.14-0.55,1.69-0.8
			c1.24-0.57,2.51-1.01,3.84-1.32c2.68-0.61,5.46-0.57,8.12,0.11c1.67,0.43,3.14-1.08,2.74-2.74c-0.47-1.91-1.03-3.86-1.93-5.62
			c-0.74-1.46-1.78-2.79-2.86-4.01c-2.3-2.6-4.93-4.91-7.25-7.5c-1.33-1.48-3.58-0.56-4.15,1.1c-1.14,3.32-2.46,6.61-3.31,10.03
			c-0.4,1.59-0.63,3.22-0.76,4.85c-0.11,1.45-0.24,3.06-0.03,4.56c-0.07,0.07-0.13,0.13-0.2,0.2
			C278.77,70.78,280.14,72.83,281.58,72.09z"/>
		<path class="st0" d="M253.03,104.81c0.05-0.04,0.11-0.07,0.17-0.11c0.35-0.1,0.68-0.29,0.93-0.59c2.97-1.72,6.45-2.13,9.74-1.07
			c1.51,0.48,2.82-1.04,2.47-2.47c-0.64-2.61-1.56-5.13-2.72-7.55c-1.11-2.32-2.45-4.76-4.19-6.66c-1.93-2.11-5.18-2.64-7.02-0.11
			c-1.41,1.95-1.17,4.7-1.24,6.98c-0.05,1.71-0.1,3.42-0.15,5.13c-0.02,0.83-0.02,1.65-0.01,2.48c0,0.19,0,0.38,0,0.57
			c-0.85,0.63-1.27,1.71-0.69,2.69C250.82,104.96,252.16,105.45,253.03,104.81z"/>
		<path class="st0" d="M326.11,91.75c0.09,0,0.16-0.04,0.24-0.05c3.09,1.02,6.27,1.81,9.4,2.69c1.34,0.38,2.7-0.68,2.7-2.06
			c0.01-6.46-0.81-12.92-2.46-19.17c-0.4-1.53-2.38-2.02-3.49-0.92c-4.74,4.72-7.63,10.88-8.4,17.51
			C323.98,90.83,325.12,91.75,326.11,91.75z"/>
	</g>
</g>
<g id="ol">
	<path class="st1" d="M331.28,386.56c-4.15-1.78-8.98-1.27-12.71,1.26c-4.85,3.28-6.27,8.53-6.42,14.12
		c-0.1,3.79,0.13,8.84-2.48,11.92c-0.03-4.95-0.66-9.87-1.16-14.78c-0.49-4.87-0.81-9.62-0.64-14.51c0.14-4.01,0.28-8.13-0.77-12.04
		c-1.1-4.07-3.65-7.65-7.42-9.64c-7.28-3.85-17.01-1.64-22.32,4.53c-2.79,3.24-4.59,7.23-4.6,11.54c-0.01,4.5,1.38,8.91,2.65,13.18
		c0.71,2.38,1.27,4.81,2.07,7.16c0.71,2.07,1.57,4.08,2.36,6.12c1.27,3.27,2.13,6.52,2.09,9.92c-3.16-7.79-7.31-15.42-15.55-18.71
		c-4.16-1.66-8.77-1.5-12.72,0.66c-3.72,2.03-6.4,5.71-6.56,10.01c-0.16,4.38,2.29,8.22,4.85,11.56c2.75,3.58,5.31,7.02,7.09,11.21
		c1.82,4.28,3.36,8.72,6.07,12.54c2.49,3.51,5.52,6.59,8.88,9.27c7.66,6.12,16.93,10.37,26.66,11.74c0.78,0.11,1.56-0.06,2.1-0.54
		c3.82-0.65,7.69-2.19,11.11-3.95c2.37-1.22,4.41-2.91,6.26-4.81c3.45-3.53,5.89-7.57,7.64-12.18c1.85-4.89,2.77-10.04,3.87-15.13
		c0.58-2.68,1.21-5.35,2.05-7.97c0.82-2.52,1.98-4.86,2.99-7.31c1.94-4.73,3.58-9.99,2.71-15.14
		C338.64,392.16,335.38,388.33,331.28,386.56z M332.7,408.76c-2.47,4.44-4.23,9.27-5.48,14.19c-2.22,8.75-3.27,18.94-9.69,25.86
		c-0.99,1.07-2.04,2.12-3.15,3.07c-0.18,0.16-0.36,0.3-0.55,0.45c-0.05,0.04-0.35,0.26-0.48,0.35c-0.53,0.36-1.08,0.7-1.64,1
		c-0.65,0.35-1.31,0.66-1.98,0.96c-0.01,0-0.01,0-0.02,0.01c0,0,0,0,0,0c-0.21,0.09-0.43,0.17-0.64,0.26
		c-0.47,0.18-0.94,0.36-1.41,0.53c-2.47,0.9-5.02,1.6-7.33,2.89c-0.3,0.16-0.53,0.39-0.72,0.64c-6.92-1.26-13.61-3.93-19.53-7.69
		c-3.26-2.07-6.25-4.48-8.86-7.33c-2.72-2.97-4.74-6.32-6.34-10c-1.69-3.9-3.06-7.99-5.28-11.64c-2.03-3.34-4.77-6.21-6.61-9.68
		c-1.53-2.9-1.77-6.11,0.37-8.77c2.01-2.5,5.37-3.67,8.52-3.3c9.61,1.12,13.98,11.75,17.05,19.53c0.45,1.14,1.53,1.94,2.81,1.59
		c0.34-0.09,0.67-0.3,0.94-0.56c0.13,0.07,0.27,0.12,0.42,0.17c1.03,0.28,2.39-0.35,2.6-1.47c0.75-4.06,0.58-8.1-0.59-12.07
		c-1.03-3.5-2.65-6.79-3.75-10.26c-1.26-3.95-2.39-8.03-3.37-12.06c-0.85-3.54-1.54-7.68,0.18-11.08c0.77-1.53,1.93-2.54,3.33-3.51
		c0.7-0.48,1.43-0.92,2.18-1.3c0.61-0.31,1.77-0.88,2.05-1c0.78-0.32,1.59-0.58,2.41-0.78c1.04-0.26,1.29-0.3,2.13-0.36
		c0.83-0.06,1.64-0.03,2.47,0.02c0.04,0,0.17,0.02,0.25,0.03c0.17,0.03,0.34,0.06,0.51,0.09c0.42,0.09,0.85,0.2,1.26,0.33
		c0.1,0.03,0.78,0.28,0.84,0.29c0.32,0.14,0.63,0.3,0.94,0.47c0.9,0.51,1.17,0.71,1.76,1.29c0.25,0.24,0.49,0.5,0.71,0.77
		c0,0.03,0.39,0.57,0.48,0.71c0.22,0.36,0.41,0.74,0.6,1.12c0,0.01,0.03,0.08,0.06,0.15c0.04,0.12,0.18,0.5,0.19,0.55
		c0.26,0.78,0.45,1.58,0.6,2.39c0.01,0.05,0.05,0.29,0.07,0.42c0.01,0.09,0.03,0.19,0.03,0.2c0.06,0.52,0.11,1.03,0.15,1.55
		c0.14,1.84,0.14,3.69,0.11,5.54c-0.07,5.11,0.02,10.13,0.81,15.2c0.85,5.46,2.12,10.82,2.34,16.36c0.07,1.66,1.34,2.5,2.61,2.53
		c0.32,0.92,1.36,1.64,2.49,1.03c3.72-2.02,5.39-6.13,5.95-10.14c0.62-4.46-0.35-9.62,1.82-13.74c1.83-3.47,5.69-5.66,9.61-5.41
		c3.71,0.24,7.21,2.98,8.52,6.42C337.2,400.15,334.91,404.78,332.7,408.76z"/>
	<path class="st1" d="M277.57,361.58c0.92,0.19,2.05-0.41,2.37-1.32c0,0,0,0,0-0.01c0.57-0.28,1.14-0.54,1.69-0.8
		c1.24-0.57,2.51-1.01,3.84-1.32c2.68-0.61,5.46-0.57,8.12,0.11c1.67,0.43,3.14-1.08,2.74-2.74c-0.47-1.91-1.03-3.86-1.93-5.62
		c-0.74-1.46-1.78-2.79-2.86-4.01c-2.3-2.6-4.93-4.91-7.25-7.5c-1.33-1.48-3.58-0.56-4.15,1.1c-1.14,3.32-2.46,6.61-3.31,10.03
		c-0.4,1.59-0.63,3.22-0.76,4.84c-0.11,1.46-0.25,3.07-0.04,4.57c-0.06,0.06-0.13,0.12-0.19,0.19
		C274.73,360.27,276.12,362.36,277.57,361.58z M281.03,350.4c0.55-2.03,1.36-3.89,2.21-5.77c1.46,1.5,3,2.91,4.48,4.43
		c0.47,0.49,0.93,1,1.35,1.53c-0.16-0.2-0.07-0.1,0.03,0.05c0.11,0.16,0.23,0.31,0.34,0.47c0.2,0.3,0.4,0.6,0.58,0.91
		c0.28,0.47,0.53,0.94,0.76,1.41c-2.1-0.09-4.21,0.12-6.26,0.64c-1.46,0.37-2.92,0.9-4.27,1.58c0.02-0.39,0.02-0.79,0.05-1.18
		C280.42,353.12,280.64,351.83,281.03,350.4z"/>
	<path class="st1" d="M248.99,394.3c0.05-0.04,0.11-0.07,0.17-0.11c0.35-0.1,0.68-0.29,0.93-0.59c2.97-1.72,6.45-2.13,9.74-1.07
		c1.51,0.48,2.82-1.04,2.47-2.47c-0.64-2.61-1.56-5.13-2.72-7.55c-1.11-2.32-2.45-4.76-4.19-6.66c-1.93-2.11-5.18-2.64-7.02-0.11
		c-1.41,1.95-1.17,4.7-1.24,6.98c-0.05,1.71-0.1,3.42-0.15,5.13c-0.02,0.83-0.02,1.65-0.01,2.48c0,0.19,0,0.38,0,0.57
		c-0.85,0.63-1.26,1.71-0.69,2.69C246.78,394.44,248.12,394.93,248.99,394.3z M251.11,383.37c0.04-0.88,0.08-1.77,0.11-2.65
		c0.01-0.29,0.02-0.58,0.04-0.86c0-0.06,0.06-0.53,0.06-0.57c0.05-0.25,0.12-0.5,0.17-0.75c0.02-0.08,0.02-0.12,0.02-0.14
		c0.01-0.02,0.03-0.05,0.07-0.12c0.04-0.07,0.08-0.14,0.13-0.21c0.02,0.01,0.03,0.02,0.05,0.03c0.22,0.14,0.35,0.23,0.56,0.44
		c0.41,0.41,0.66,0.78,1,1.26c0.79,1.15,1.52,2.35,2.17,3.58c0.79,1.49,1.43,3.03,1.98,4.61c-2.24-0.18-4.51,0.13-6.63,0.88
		c0.02-0.29,0.05-0.58,0.06-0.87C250.98,386.46,251.05,384.91,251.11,383.37z"/>
	<path class="st1" d="M322.37,381.21c3.07,1.01,6.24,1.79,9.35,2.67c1.34,0.38,2.7-0.68,2.7-2.06c0.01-6.46-0.81-12.92-2.46-19.17
		c-0.4-1.53-2.38-2.02-3.49-0.92c-4.74,4.72-7.63,10.88-8.4,17.51c-0.13,1.08,1.01,2,2,2C322.18,381.24,322.27,381.22,322.37,381.21
		z M324.4,377.36c0.74-3.5,2.27-6.82,4.41-9.68c0.73,3.72,1.16,7.49,1.29,11.28C328.21,378.39,326.31,377.84,324.4,377.36z"/>
	<path class="st1" d="M210.48,343.26c-5.65,1.49-8.71,6.07-10.56,11.3c-1.3,3.69-2.58,8.67-6.07,10.87c1.44-4.57,2.32-9.3,3.3-13.98
		c1.02-4.9,2.15-9.65,3.83-14.37c1.55-4.35,3.26-8.96,2.94-13.66c-0.32-4.76-2.65-8.85-6.53-11.6c-6.42-4.56-15.97-4.02-22.01,0.85
		c-3.03,2.44-5.21,5.14-6.31,8.94c-1.08,3.76-1.18,7.76-1.26,11.65c-0.09,4.63-0.25,9.18,0.08,13.8c0.17,2.35,0.31,4.71,0.09,7.07
		c-0.14,1.49-0.49,2.95-0.99,4.35c-0.6-8.08-2.11-16.55-8.52-22.07c-3.15-2.72-7.12-4.39-11.34-3.98c-3.95,0.39-7.75,2.22-9.9,5.65
		c-2.48,3.96-1.83,8.84-0.44,13.05c0.72,2.2,1.63,4.33,2.35,6.52c0.77,2.33,1.25,4.74,1.49,7.19c0.49,4.89,0.57,9.87,2.08,14.58
		c1.3,4.05,3.26,7.89,5.62,11.43c5.44,8.18,13.07,15.05,21.93,19.31c0.67,0.32,1.42,0.36,2.05,0.08c3.95,0.57,8.28,0.22,12.17-0.47
		c2.71-0.48,5.21-1.6,7.61-2.9c9.34-5.05,14.1-14.33,19.23-23.15c1.42-2.44,2.89-4.86,4.61-7.11c1.43-1.88,3.14-3.51,4.59-5.37
		c2.89-3.69,5.89-7.64,6.75-12.37c0.83-4.56-0.71-9.29-4.07-12.49C219.81,343.17,214.97,342.07,210.48,343.26z M197.21,322.76
		C197.2,322.67,197.19,322.55,197.21,322.76L197.21,322.76z M223.95,356.95c-0.22,4.33-3.49,7.66-6.45,10.46
		c-3.52,3.33-6.57,7.12-9.17,11.2c-4.98,7.79-8.95,17.33-17.22,22.29c-1.35,0.81-2.77,1.49-4.19,2.15
		c-0.14,0.06-0.28,0.11-0.43,0.17c-0.3,0.11-0.6,0.22-0.91,0.31c-0.6,0.19-1.21,0.34-1.82,0.47c-0.35,0.07-0.7,0.12-1.05,0.18
		c-0.21,0.02-0.43,0.05-0.64,0.07c-0.88,0.09-1.76,0.14-2.64,0.18c-2.72,0.12-5.43,0.03-8.1,0.57c-0.3,0.06-0.57,0.18-0.8,0.33
		c-6.2-3.29-11.75-7.87-16.25-13.24c-2.49-2.96-4.61-6.22-6.24-9.73c-1.74-3.75-2.62-7.7-3-11.81c-0.4-4.4-0.53-8.89-1.7-13.18
		c-1.07-3.92-3.11-7.79-3.31-11.9c-0.17-3.3,1.49-6.11,4.56-7.39c2.71-1.13,5.77-0.92,8.35,0.47c8.32,4.47,9.16,15.24,9.72,23.56
		c0.13,1.87,2.05,2.55,3.35,2.01c0.91,0.85,2.47,1.01,3.22-0.39c2.11-3.96,3.09-8.2,3.06-12.68c-0.03-4.07-0.63-8.1-0.4-12.17
		c0.2-3.6,0.13-7.22,0.43-10.82c0.26-3.16,0.87-6.56,2.86-9.13c0.94-1.21,2.05-2.01,3.47-2.55c0.71-0.27,1.42-0.52,2.15-0.72
		c0.42-0.11,0.85-0.21,1.28-0.3c0.16-0.03,0.32-0.06,0.49-0.09c0.21-0.03,0.22-0.04,0.01-0.01c0.11-0.01,0.21-0.03,0.32-0.04
		c1.32-0.19,1.24-0.22,2.43-0.28c0.87-0.04,1.73-0.02,2.6,0.05c0.04,0,0.26,0.03,0.39,0.04c0.09,0.02,0.21,0.03,0.21,0.04
		c0.42,0.09,0.84,0.16,1.25,0.27c0.36,0.09,0.71,0.2,1.07,0.32c0.2,0.07,0.4,0.14,0.6,0.21c0.06,0.02,0.1,0.04,0.12,0.04
		c0.04,0.02,0.07,0.04,0.13,0.06c0.66,0.33,1.3,0.67,1.9,1.08c0.13,0.09,0.25,0.18,0.38,0.27c0.06,0.05,0.17,0.15,0.2,0.17
		c0.35,0.33,0.7,0.64,1.02,0.99c0.54,0.59,0.73,0.84,1.25,1.82c0.32,0.6,0.61,1.55,0.76,2.45c0,0.02,0,0.04,0.01,0.07
		c0.03,0.25,0.04,0.51,0.05,0.76c0.02,0.45,0.01,0.9-0.01,1.35c-0.05,1.07-0.14,1.52-0.37,2.65c-0.44,2.14-1.1,4.22-1.79,6.29
		c-1.64,4.92-3.12,9.81-3.84,14.96c-0.75,5.38-1.29,10.79-2.73,16.04c-0.44,1.61,0.52,2.74,1.74,3.1c0.07,0.97,0.9,1.96,2.15,1.72
		c4.38-0.84,7.3-4.67,9-8.54c1.74-3.99,2.51-8.9,5.77-12.02c2.8-2.68,7.34-3.52,10.89-1.93
		C221.77,348.88,224.16,352.93,223.95,356.95z"/>
	<path class="st1" d="M179.23,305.86c0.76,0.48,1.83,0.35,2.54-0.53c0.61-0.09,1.22-0.17,1.82-0.24c1.4-0.16,2.8-0.21,4.21-0.09
		c2.74,0.23,5.38,1.17,7.71,2.62c1.52,0.95,3.24-0.31,3.35-1.92c0.13-1.96,0.18-3.96-0.15-5.9c-0.28-1.66-0.87-3.22-1.55-4.75
		c-1.41-3.18-3.21-6.18-4.63-9.35c-0.35-0.77-1.34-1.23-2.15-1.23c-0.95,0-1.61,0.51-2.15,1.23c-2.07,2.78-4.27,5.47-6.11,8.41
		c-0.85,1.35-1.53,2.78-2.14,4.26c-0.35,0.84-0.66,1.7-0.94,2.57c-0.21,0.64-0.44,1.29-0.58,1.95c-0.1,0.05-0.19,0.1-0.29,0.15
		C176.69,303.84,177.63,306.18,179.23,305.86z M183.72,300.36c-0.01,0.01,0.13-0.32,0.16-0.4c0.55-1.31,1.23-2.58,2.01-3.78
		c0.18-0.28,0.37-0.56,0.57-0.84c0.04-0.06,0.11-0.16,0.15-0.2c0.09-0.11,0.18-0.23,0.27-0.34c0.48-0.6,0.98-1.19,1.49-1.77
		c0.43-0.5,0.86-0.99,1.3-1.48c0.25,0.5,0.5,1,0.77,1.5c0.73,1.33,1.5,2.64,2.18,4c0.15,0.31,0.3,0.62,0.45,0.93
		c0.01,0.02,0.06,0.13,0.09,0.22c0.04,0.11,0.13,0.33,0.14,0.36c0.25,0.67,0.46,1.35,0.63,2.05c0.13,0.53,0.22,1.03,0.3,1.52
		c-2.01-0.72-4.11-1.15-6.26-1.29c-1.49-0.09-3.02-0.01-4.5,0.22c0.01-0.04,0.03-0.08,0.04-0.12
		C183.57,300.74,183.64,300.55,183.72,300.36z"/>
	<path class="st1" d="M142.05,328.36c0.43,0.05,0.81-0.06,1.14-0.3c3.37-0.77,6.85-0.07,9.72,1.97c1.34,0.95,2.93-0.35,3.02-1.73
		c0.19-2.81,0.04-5.6-0.37-8.38c-0.38-2.52-0.9-5.31-2.1-7.59c-1.25-2.35-4.12-3.59-6.41-1.85c-2.05,1.56-2.66,4.37-3.46,6.68
		c-0.53,1.51-1.06,3.02-1.59,4.53c-0.32,0.9-0.7,1.87-0.99,2.85c-1.01,0.34-1.68,1.37-1.38,2.44
		C139.89,327.97,141.03,328.69,142.05,328.36z M149.66,313.65c-0.09,0.03-0.13,0.04-0.16,0.06
		C149.55,313.64,149.44,313.71,149.66,313.65z M149.48,313.74C149.48,313.74,149.47,313.74,149.48,313.74
		C149.47,313.74,149.48,313.73,149.48,313.74C149.48,313.73,149.48,313.74,149.48,313.74z M147.33,318.54
		c0.45-1.22,0.9-2.71,1.38-3.67c0.25-0.5,0.38-0.76,0.7-1.06c0.03-0.02,0.03-0.03,0.04-0.05c0.03,0.02,0.08,0.04,0.1,0.05
		c0.06,0.06,0.13,0.12,0.28,0.38c0.3,0.52,0.34,0.67,0.53,1.26c0.44,1.37,0.8,2.77,1.07,4.18c0.34,1.76,0.5,3.54,0.55,5.33
		c-2.08-0.85-4.34-1.24-6.59-1.17c0.1-0.25,0.2-0.49,0.29-0.74C146.22,321.54,146.78,320.04,147.33,318.54z"/>
	<path class="st1" d="M227.49,321.52c-5.71,2.93-10.41,7.82-13.05,13.68c-0.45,0.99-0.28,2.16,0.72,2.74
		c0.2,0.12,0.44,0.19,0.69,0.23c2.65,1.92,5.46,3.64,8.19,5.44c1.2,0.79,2.74-0.03,3.14-1.28c1.98-6.16,3.13-12.56,3.45-19.01
		C230.72,321.65,228.82,320.84,227.49,321.52z M226.11,327.25c-0.44,3.76-1.17,7.48-2.2,11.13c-1.62-1.1-3.26-2.2-4.92-3.24
		C220.79,332.02,223.2,329.34,226.11,327.25z"/>
	<path class="st1" d="M338.89,240.24c-4.15-1.78-8.98-1.27-12.71,1.26c-4.85,3.28-6.27,8.53-6.42,14.12
		c-0.1,3.79,0.13,8.84-2.48,11.92c-0.03-4.95-0.66-9.87-1.16-14.78c-0.49-4.87-0.81-9.62-0.64-14.51c0.14-4.01,0.28-8.13-0.77-12.04
		c-1.1-4.07-3.65-7.65-7.42-9.64c-7.28-3.85-17.01-1.64-22.32,4.53c-2.79,3.24-4.59,7.23-4.6,11.54c-0.01,4.5,1.38,8.91,2.65,13.18
		c0.71,2.38,1.27,4.81,2.07,7.16c0.71,2.07,1.57,4.08,2.36,6.12c1.27,3.27,2.13,6.52,2.09,9.92c-3.16-7.79-7.31-15.42-15.55-18.71
		c-4.16-1.66-8.77-1.5-12.72,0.66c-3.72,2.03-6.4,5.71-6.56,10.01c-0.16,4.38,2.29,8.22,4.85,11.56c2.75,3.58,5.31,7.02,7.09,11.21
		c1.82,4.28,3.36,8.72,6.07,12.54c2.49,3.51,5.52,6.59,8.88,9.27c7.66,6.12,16.93,10.37,26.66,11.74c0.78,0.11,1.56-0.06,2.1-0.54
		c3.82-0.65,7.69-2.19,11.11-3.95c2.37-1.22,4.41-2.91,6.26-4.81c3.45-3.53,5.89-7.57,7.64-12.18c1.85-4.89,2.77-10.04,3.87-15.13
		c0.58-2.68,1.21-5.35,2.05-7.97c0.82-2.52,1.98-4.86,2.99-7.31c1.94-4.73,3.58-9.99,2.71-15.14
		C346.24,245.85,342.99,242.01,338.89,240.24z M340.31,262.44c-2.47,4.44-4.23,9.27-5.48,14.19c-2.22,8.75-3.27,18.94-9.69,25.86
		c-0.99,1.07-2.04,2.12-3.15,3.07c-0.18,0.16-0.36,0.3-0.55,0.45c-0.05,0.04-0.35,0.26-0.48,0.35c-0.53,0.36-1.08,0.7-1.64,1
		c-0.65,0.35-1.31,0.66-1.98,0.96c-0.01,0-0.01,0-0.02,0.01c0,0,0,0,0,0c-0.21,0.09-0.43,0.17-0.64,0.26
		c-0.47,0.18-0.94,0.36-1.41,0.53c-2.47,0.9-5.02,1.6-7.33,2.89c-0.3,0.16-0.53,0.39-0.72,0.64c-6.92-1.26-13.61-3.93-19.53-7.69
		c-3.26-2.07-6.25-4.48-8.86-7.33c-2.72-2.97-4.74-6.32-6.34-10c-1.69-3.9-3.06-7.99-5.28-11.64c-2.03-3.34-4.77-6.21-6.61-9.68
		c-1.53-2.9-1.77-6.11,0.37-8.77c2.01-2.5,5.37-3.67,8.52-3.3c9.61,1.12,13.98,11.76,17.05,19.53c0.45,1.14,1.53,1.94,2.81,1.59
		c0.34-0.09,0.67-0.3,0.94-0.56c0.13,0.07,0.27,0.12,0.42,0.17c1.03,0.28,2.39-0.35,2.6-1.47c0.75-4.06,0.58-8.1-0.59-12.07
		c-1.03-3.5-2.65-6.79-3.75-10.26c-1.26-3.95-2.39-8.03-3.37-12.06c-0.85-3.54-1.54-7.68,0.18-11.08c0.77-1.53,1.93-2.54,3.33-3.51
		c0.7-0.48,1.43-0.92,2.18-1.3c0.61-0.31,1.77-0.88,2.05-1c0.78-0.32,1.59-0.58,2.41-0.78c1.04-0.26,1.29-0.3,2.13-0.36
		c0.83-0.06,1.64-0.03,2.47,0.02c0.04,0,0.17,0.02,0.25,0.03c0.17,0.03,0.34,0.06,0.51,0.09c0.42,0.09,0.85,0.2,1.26,0.33
		c0.1,0.03,0.78,0.28,0.84,0.29c0.32,0.14,0.63,0.3,0.94,0.47c0.9,0.51,1.17,0.71,1.76,1.29c0.25,0.24,0.49,0.5,0.71,0.77
		c0,0.02,0.39,0.57,0.48,0.71c0.22,0.36,0.41,0.74,0.6,1.12c0,0.01,0.03,0.08,0.06,0.15c0.04,0.12,0.18,0.5,0.19,0.55
		c0.26,0.78,0.45,1.58,0.6,2.39c0.01,0.05,0.05,0.29,0.07,0.42c0.01,0.09,0.03,0.19,0.03,0.2c0.06,0.52,0.11,1.03,0.15,1.55
		c0.14,1.84,0.14,3.69,0.11,5.54c-0.07,5.11,0.02,10.13,0.81,15.2c0.85,5.46,2.12,10.82,2.34,16.36c0.07,1.66,1.34,2.5,2.61,2.53
		c0.32,0.92,1.36,1.64,2.49,1.03c3.72-2.02,5.39-6.13,5.95-10.14c0.62-4.46-0.35-9.62,1.82-13.74c1.83-3.47,5.69-5.66,9.61-5.41
		c3.71,0.24,7.21,2.98,8.52,6.42C344.8,253.83,342.52,258.47,340.31,262.44z"/>
	<path class="st1" d="M285.18,215.26c0.92,0.19,2.05-0.41,2.37-1.32c0,0,0,0,0-0.01c0.57-0.28,1.14-0.54,1.69-0.8
		c1.24-0.57,2.51-1.01,3.84-1.32c2.68-0.61,5.46-0.57,8.12,0.11c1.67,0.43,3.14-1.08,2.74-2.74c-0.47-1.91-1.03-3.86-1.93-5.62
		c-0.74-1.46-1.78-2.79-2.86-4.01c-2.3-2.6-4.93-4.91-7.25-7.5c-1.33-1.48-3.58-0.56-4.15,1.1c-1.14,3.32-2.46,6.61-3.31,10.03
		c-0.4,1.59-0.63,3.22-0.76,4.84c-0.11,1.46-0.25,3.07-0.04,4.57c-0.06,0.06-0.13,0.12-0.19,0.19
		C282.34,213.95,283.73,216.05,285.18,215.26z M288.64,204.09c0.55-2.03,1.36-3.89,2.21-5.77c1.46,1.5,3,2.91,4.48,4.43
		c0.47,0.49,0.93,1,1.35,1.53c-0.16-0.2-0.07-0.1,0.03,0.05c0.11,0.16,0.23,0.31,0.34,0.47c0.2,0.3,0.4,0.6,0.58,0.91
		c0.28,0.47,0.53,0.94,0.76,1.41c-2.1-0.09-4.21,0.12-6.26,0.64c-1.46,0.37-2.92,0.9-4.27,1.58c0.02-0.39,0.02-0.79,0.05-1.18
		C288.02,206.8,288.25,205.51,288.64,204.09z"/>
	<path class="st1" d="M256.6,247.98c0.05-0.04,0.11-0.07,0.17-0.11c0.35-0.1,0.68-0.29,0.93-0.59c2.97-1.72,6.45-2.13,9.74-1.07
		c1.51,0.48,2.82-1.04,2.47-2.47c-0.64-2.61-1.56-5.13-2.72-7.55c-1.11-2.32-2.45-4.76-4.19-6.66c-1.93-2.11-5.18-2.64-7.02-0.11
		c-1.41,1.95-1.17,4.7-1.24,6.98c-0.05,1.71-0.1,3.42-0.15,5.13c-0.02,0.83-0.02,1.65-0.01,2.48c0,0.19,0,0.38,0,0.57
		c-0.85,0.63-1.26,1.71-0.69,2.69C254.39,248.12,255.73,248.61,256.6,247.98z M258.72,237.05c0.04-0.88,0.08-1.77,0.11-2.65
		c0.01-0.29,0.02-0.58,0.04-0.86c0-0.06,0.06-0.53,0.06-0.57c0.05-0.25,0.12-0.5,0.17-0.75c0.02-0.08,0.02-0.12,0.02-0.14
		c0.01-0.02,0.03-0.05,0.07-0.12c0.04-0.07,0.08-0.14,0.13-0.21c0.02,0.01,0.03,0.02,0.05,0.03c0.22,0.14,0.35,0.23,0.56,0.44
		c0.41,0.41,0.66,0.78,1,1.26c0.79,1.15,1.52,2.35,2.17,3.58c0.79,1.49,1.43,3.03,1.98,4.61c-2.24-0.18-4.51,0.13-6.63,0.88
		c0.02-0.29,0.05-0.58,0.06-0.87C258.59,240.14,258.65,238.6,258.72,237.05z"/>
	<path class="st1" d="M336.08,215.41c-4.74,4.72-7.63,10.88-8.4,17.51c-0.13,1.08,1.01,2,2,2c0.1,0,0.2-0.02,0.29-0.03
		c3.07,1.01,6.24,1.79,9.35,2.67c1.34,0.38,2.7-0.68,2.7-2.06c0.01-6.46-0.81-12.92-2.46-19.17
		C339.17,214.8,337.19,214.31,336.08,215.41z M337.71,232.63c-1.89-0.56-3.79-1.11-5.7-1.6c0.74-3.5,2.27-6.82,4.41-9.68
		C337.15,225.08,337.58,228.84,337.71,232.63z"/>
	<path class="st1" d="M220.41,187.66c-5.65,1.49-8.71,6.07-10.56,11.3c-1.3,3.69-2.58,8.67-6.07,10.87c1.44-4.57,2.32-9.3,3.3-13.98
		c1.02-4.9,2.15-9.65,3.83-14.37c1.55-4.35,3.26-8.96,2.94-13.66c-0.32-4.76-2.65-8.85-6.53-11.6c-6.42-4.56-15.97-4.02-22.01,0.85
		c-3.03,2.44-5.21,5.14-6.31,8.94c-1.08,3.76-1.18,7.76-1.26,11.65c-0.09,4.63-0.25,9.18,0.08,13.8c0.17,2.35,0.31,4.71,0.09,7.07
		c-0.14,1.49-0.49,2.95-0.99,4.35c-0.6-8.08-2.11-16.55-8.52-22.08c-3.15-2.72-7.12-4.39-11.34-3.98c-3.95,0.39-7.75,2.22-9.9,5.65
		c-2.48,3.96-1.83,8.84-0.44,13.05c0.72,2.2,1.63,4.33,2.35,6.52c0.77,2.33,1.25,4.74,1.49,7.19c0.49,4.89,0.57,9.87,2.08,14.58
		c1.3,4.05,3.26,7.89,5.62,11.43c5.44,8.18,13.07,15.05,21.93,19.31c0.67,0.32,1.42,0.36,2.05,0.08c3.95,0.57,8.28,0.22,12.17-0.47
		c2.71-0.48,5.21-1.6,7.61-2.9c9.34-5.05,14.1-14.33,19.23-23.15c1.42-2.44,2.89-4.86,4.61-7.11c1.43-1.88,3.14-3.51,4.59-5.37
		c2.89-3.69,5.89-7.64,6.75-12.37c0.83-4.56-0.71-9.29-4.07-12.49C229.74,187.58,224.9,186.47,220.41,187.66z M207.14,167.16
		C207.12,167.07,207.11,166.95,207.14,167.16L207.14,167.16z M233.88,201.35c-0.22,4.33-3.49,7.66-6.45,10.46
		c-3.52,3.33-6.57,7.12-9.17,11.2c-4.98,7.79-8.95,17.33-17.22,22.29c-1.35,0.81-2.77,1.49-4.19,2.15
		c-0.14,0.06-0.28,0.11-0.43,0.17c-0.3,0.11-0.6,0.22-0.91,0.31c-0.6,0.19-1.21,0.34-1.82,0.47c-0.35,0.07-0.7,0.12-1.05,0.18
		c-0.21,0.02-0.43,0.05-0.64,0.07c-0.88,0.09-1.76,0.14-2.64,0.18c-2.72,0.12-5.43,0.03-8.1,0.57c-0.3,0.06-0.57,0.18-0.8,0.33
		c-6.2-3.29-11.75-7.87-16.25-13.24c-2.49-2.96-4.61-6.22-6.24-9.73c-1.74-3.75-2.62-7.7-3-11.81c-0.4-4.4-0.53-8.89-1.7-13.18
		c-1.07-3.92-3.11-7.79-3.31-11.9c-0.17-3.3,1.49-6.11,4.56-7.39c2.71-1.13,5.77-0.92,8.35,0.47c8.32,4.47,9.16,15.24,9.72,23.56
		c0.13,1.87,2.05,2.55,3.35,2.01c0.91,0.85,2.47,1.01,3.22-0.39c2.11-3.96,3.09-8.2,3.06-12.68c-0.03-4.07-0.63-8.1-0.4-12.17
		c0.2-3.6,0.13-7.22,0.43-10.82c0.26-3.16,0.87-6.56,2.86-9.13c0.94-1.21,2.05-2.01,3.47-2.55c0.71-0.27,1.42-0.52,2.15-0.72
		c0.42-0.11,0.85-0.21,1.28-0.3c0.16-0.03,0.32-0.06,0.49-0.09c0.21-0.03,0.22-0.04,0.01-0.01c0.11-0.01,0.21-0.03,0.32-0.04
		c1.32-0.19,1.24-0.22,2.43-0.28c0.87-0.04,1.73-0.02,2.6,0.05c0.04,0,0.26,0.03,0.39,0.04c0.09,0.02,0.21,0.03,0.21,0.04
		c0.42,0.09,0.84,0.16,1.25,0.27c0.36,0.09,0.71,0.2,1.07,0.32c0.2,0.07,0.4,0.14,0.6,0.21c0.06,0.02,0.1,0.04,0.12,0.04
		c0.04,0.02,0.07,0.04,0.13,0.06c0.66,0.33,1.3,0.67,1.9,1.08c0.13,0.09,0.25,0.18,0.38,0.27c0.06,0.05,0.17,0.15,0.2,0.17
		c0.35,0.33,0.7,0.64,1.02,0.99c0.54,0.59,0.73,0.84,1.25,1.82c0.32,0.6,0.61,1.55,0.76,2.45c0,0.02,0,0.04,0.01,0.07
		c0.03,0.25,0.04,0.51,0.05,0.76c0.02,0.45,0.01,0.9-0.01,1.35c-0.05,1.07-0.14,1.52-0.37,2.65c-0.44,2.14-1.1,4.22-1.79,6.29
		c-1.64,4.92-3.12,9.81-3.84,14.96c-0.75,5.38-1.29,10.79-2.73,16.04c-0.44,1.61,0.52,2.74,1.74,3.1c0.07,0.97,0.9,1.96,2.15,1.72
		c4.38-0.84,7.3-4.67,9-8.54c1.74-3.99,2.51-8.9,5.77-12.02c2.8-2.68,7.34-3.52,10.89-1.93
		C231.7,193.28,234.08,197.34,233.88,201.35z"/>
	<path class="st1" d="M189.16,150.26c0.76,0.48,1.83,0.35,2.54-0.53c0.61-0.09,1.22-0.17,1.82-0.24c1.4-0.16,2.8-0.21,4.21-0.09
		c2.74,0.23,5.38,1.17,7.71,2.62c1.52,0.95,3.24-0.31,3.35-1.92c0.13-1.96,0.18-3.96-0.15-5.9c-0.28-1.66-0.87-3.22-1.55-4.75
		c-1.41-3.18-3.21-6.18-4.63-9.35c-0.35-0.77-1.34-1.23-2.15-1.23c-0.95,0-1.61,0.51-2.15,1.23c-2.07,2.78-4.27,5.47-6.11,8.41
		c-0.85,1.35-1.53,2.78-2.14,4.26c-0.35,0.84-0.66,1.7-0.94,2.57c-0.21,0.64-0.44,1.29-0.58,1.95c-0.1,0.05-0.19,0.1-0.29,0.15
		C186.62,148.24,187.56,150.58,189.16,150.26z M193.64,144.76c-0.01,0.01,0.13-0.32,0.16-0.4c0.55-1.31,1.23-2.58,2.01-3.78
		c0.18-0.28,0.37-0.56,0.57-0.84c0.04-0.06,0.11-0.16,0.15-0.2c0.09-0.11,0.18-0.23,0.27-0.34c0.48-0.6,0.98-1.19,1.49-1.77
		c0.43-0.5,0.86-0.99,1.3-1.48c0.25,0.5,0.5,1,0.77,1.5c0.73,1.33,1.5,2.64,2.18,4c0.15,0.31,0.3,0.62,0.45,0.93
		c0.01,0.02,0.06,0.13,0.09,0.22c0.04,0.11,0.13,0.33,0.14,0.36c0.25,0.67,0.46,1.35,0.63,2.05c0.13,0.53,0.22,1.03,0.3,1.52
		c-2.01-0.72-4.11-1.15-6.26-1.29c-1.49-0.09-3.02-0.01-4.5,0.22c0.01-0.04,0.03-0.08,0.04-0.12
		C193.49,145.14,193.57,144.95,193.64,144.76z"/>
	<path class="st1" d="M151.98,172.76c0.43,0.05,0.81-0.06,1.14-0.3c3.37-0.77,6.85-0.07,9.72,1.97c1.34,0.95,2.93-0.35,3.02-1.73
		c0.19-2.81,0.04-5.6-0.37-8.38c-0.38-2.52-0.9-5.31-2.1-7.59c-1.25-2.35-4.12-3.59-6.41-1.85c-2.05,1.56-2.66,4.37-3.46,6.68
		c-0.53,1.51-1.06,3.02-1.59,4.53c-0.32,0.9-0.7,1.87-0.99,2.85c-1.01,0.34-1.68,1.37-1.38,2.44
		C149.82,172.37,150.96,173.09,151.98,172.76z M159.59,158.05c-0.09,0.03-0.13,0.04-0.16,0.06
		C159.48,158.04,159.36,158.11,159.59,158.05z M159.4,158.14C159.4,158.14,159.4,158.14,159.4,158.14
		C159.4,158.14,159.4,158.14,159.4,158.14C159.4,158.14,159.4,158.14,159.4,158.14z M157.25,162.94c0.45-1.22,0.9-2.71,1.38-3.67
		c0.25-0.5,0.38-0.76,0.7-1.06c0.03-0.02,0.03-0.03,0.04-0.05c0.03,0.02,0.08,0.04,0.1,0.05c0.06,0.06,0.13,0.12,0.28,0.38
		c0.3,0.52,0.34,0.67,0.53,1.26c0.44,1.37,0.8,2.77,1.07,4.18c0.34,1.76,0.5,3.54,0.55,5.33c-2.08-0.85-4.34-1.24-6.59-1.17
		c0.1-0.25,0.2-0.49,0.29-0.74C156.15,165.95,156.7,164.44,157.25,162.94z"/>
	<path class="st1" d="M237.42,165.92c-5.71,2.93-10.41,7.82-13.05,13.68c-0.45,0.99-0.28,2.16,0.72,2.74
		c0.2,0.12,0.44,0.19,0.69,0.23c2.65,1.92,5.46,3.64,8.19,5.44c1.2,0.79,2.74-0.03,3.14-1.28c1.98-6.16,3.13-12.56,3.45-19.01
		C240.64,166.06,238.75,165.24,237.42,165.92z M236.03,171.65c-0.44,3.76-1.17,7.48-2.2,11.13c-1.62-1.1-3.26-2.2-4.92-3.24
		C230.71,176.42,233.13,173.75,236.03,171.65z"/>
	<path class="st1" d="M275.07,102.51c-4.16-1.66-8.77-1.5-12.72,0.66c-3.72,2.03-6.4,5.71-6.56,10.01
		c-0.16,4.38,2.29,8.22,4.85,11.56c2.75,3.58,5.31,7.02,7.09,11.21c1.82,4.28,3.36,8.72,6.07,12.54c2.49,3.51,5.52,6.59,8.88,9.27
		c7.66,6.12,16.93,10.37,26.66,11.74c0.78,0.11,1.56-0.06,2.1-0.54c3.82-0.65,7.69-2.19,11.11-3.95c2.37-1.22,4.41-2.91,6.26-4.81
		c3.45-3.53,5.89-7.57,7.64-12.18c1.85-4.89,2.77-10.04,3.87-15.13c0.58-2.68,1.21-5.35,2.05-7.97c0.82-2.52,1.98-4.86,2.99-7.31
		c1.94-4.73,3.58-9.99,2.71-15.14c-0.75-4.44-4.01-8.28-8.11-10.04c-4.15-1.78-8.98-1.27-12.71,1.26
		c-4.85,3.28-6.27,8.53-6.42,14.12c-0.1,3.79,0.13,8.84-2.48,11.92c-0.03-4.95-0.66-9.87-1.16-14.78
		c-0.49-4.87-0.81-9.62-0.64-14.51c0.14-4.01,0.28-8.13-0.77-12.04c-1.1-4.07-3.65-7.65-7.42-9.64c-7.28-3.85-17.01-1.64-22.32,4.53
		c-2.79,3.24-4.59,7.23-4.6,11.54c-0.01,4.5,1.38,8.91,2.65,13.18c0.71,2.38,1.27,4.81,2.07,7.16c0.71,2.07,1.57,4.08,2.36,6.12
		c1.27,3.27,2.13,6.52,2.09,9.92C287.46,113.43,283.31,105.8,275.07,102.51z M290.02,103.36c-1.26-3.95-2.39-8.03-3.37-12.06
		c-0.85-3.54-1.54-7.68,0.18-11.08c0.77-1.53,1.93-2.54,3.33-3.51c0.7-0.48,1.43-0.92,2.18-1.3c0.61-0.31,1.77-0.88,2.05-1
		c0.78-0.32,1.59-0.58,2.41-0.78c1.04-0.26,1.29-0.3,2.13-0.36c0.83-0.06,1.64-0.03,2.47,0.02c0.04,0,0.17,0.02,0.25,0.03
		c0.17,0.03,0.34,0.06,0.51,0.09c0.42,0.09,0.85,0.2,1.26,0.33c0.1,0.03,0.78,0.28,0.84,0.29c0.32,0.14,0.63,0.3,0.94,0.47
		c0.9,0.51,1.17,0.71,1.76,1.29c0.25,0.24,0.49,0.5,0.71,0.77c0,0.03,0.39,0.57,0.48,0.71c0.22,0.36,0.41,0.74,0.6,1.12
		c0,0.01,0.03,0.08,0.06,0.15c0.04,0.12,0.18,0.5,0.19,0.55c0.26,0.78,0.45,1.58,0.6,2.39c0.01,0.05,0.05,0.29,0.07,0.42
		c0.01,0.09,0.03,0.19,0.03,0.2c0.06,0.52,0.11,1.03,0.15,1.55c0.14,1.84,0.14,3.69,0.11,5.54c-0.07,5.11,0.02,10.13,0.81,15.2
		c0.85,5.46,2.12,10.82,2.34,16.36c0.07,1.66,1.34,2.5,2.61,2.53c0.32,0.92,1.36,1.64,2.49,1.03c3.72-2.02,5.39-6.13,5.95-10.14
		c0.62-4.46-0.35-9.62,1.82-13.74c1.83-3.47,5.69-5.66,9.61-5.41c3.71,0.24,7.21,2.98,8.52,6.42c1.76,4.6-0.53,9.23-2.74,13.21
		c-2.47,4.44-4.23,9.27-5.48,14.19c-2.22,8.75-3.27,18.94-9.69,25.86c-0.99,1.07-2.04,2.12-3.15,3.07c-0.18,0.16-0.36,0.3-0.55,0.45
		c-0.05,0.04-0.35,0.26-0.48,0.35c-0.53,0.36-1.08,0.7-1.64,1c-0.65,0.35-1.31,0.66-1.98,0.96c-0.01,0-0.01,0-0.02,0.01c0,0,0,0,0,0
		c-0.21,0.09-0.43,0.17-0.64,0.26c-0.47,0.18-0.94,0.36-1.41,0.53c-2.47,0.9-5.02,1.6-7.33,2.89c-0.3,0.16-0.53,0.39-0.72,0.64
		c-6.92-1.26-13.61-3.93-19.53-7.69c-3.26-2.07-6.25-4.48-8.86-7.33c-2.72-2.97-4.74-6.32-6.34-10c-1.69-3.9-3.06-7.99-5.28-11.64
		c-2.03-3.34-4.77-6.21-6.61-9.68c-1.53-2.9-1.77-6.11,0.37-8.77c2.01-2.5,5.37-3.67,8.52-3.3c9.61,1.12,13.98,11.76,17.05,19.53
		c0.45,1.14,1.53,1.94,2.81,1.59c0.34-0.09,0.67-0.3,0.94-0.56c0.13,0.07,0.27,0.12,0.42,0.17c1.03,0.28,2.39-0.35,2.6-1.47
		c0.75-4.06,0.58-8.1-0.59-12.07C292.74,110.12,291.12,106.83,290.02,103.36z"/>
	<path class="st1" d="M286.25,67.46c0.92,0.19,2.05-0.41,2.37-1.32c0,0,0,0,0-0.01c0.57-0.28,1.14-0.54,1.69-0.8
		c1.24-0.57,2.51-1.01,3.84-1.32c2.68-0.61,5.46-0.57,8.12,0.11c1.67,0.43,3.14-1.08,2.74-2.74c-0.47-1.91-1.03-3.86-1.93-5.62
		c-0.74-1.46-1.78-2.79-2.86-4.01c-2.3-2.6-4.93-4.91-7.25-7.5c-1.33-1.48-3.58-0.56-4.15,1.1c-1.14,3.32-2.46,6.61-3.31,10.03
		c-0.4,1.59-0.63,3.22-0.76,4.84c-0.11,1.46-0.25,3.07-0.04,4.57c-0.06,0.06-0.13,0.12-0.19,0.19
		C283.41,66.15,284.8,68.24,286.25,67.46z M289.71,56.28c0.55-2.03,1.36-3.89,2.21-5.77c1.46,1.5,3,2.91,4.48,4.43
		c0.47,0.49,0.93,1,1.35,1.53c-0.16-0.2-0.07-0.1,0.03,0.05c0.11,0.16,0.23,0.31,0.34,0.47c0.2,0.3,0.4,0.6,0.58,0.91
		c0.28,0.47,0.53,0.94,0.76,1.41c-2.1-0.09-4.21,0.12-6.26,0.64c-1.46,0.37-2.92,0.9-4.27,1.58c0.02-0.39,0.02-0.79,0.05-1.18
		C289.1,58.99,289.32,57.71,289.71,56.28z"/>
	<path class="st1" d="M257.67,100.17c0.05-0.04,0.11-0.07,0.17-0.11c0.35-0.1,0.68-0.29,0.93-0.59c2.97-1.72,6.45-2.13,9.74-1.07
		c1.51,0.48,2.82-1.04,2.47-2.47c-0.64-2.61-1.56-5.13-2.72-7.55c-1.11-2.32-2.45-4.76-4.19-6.66c-1.93-2.11-5.18-2.64-7.02-0.11
		c-1.41,1.95-1.17,4.7-1.24,6.98c-0.05,1.71-0.1,3.42-0.15,5.13c-0.02,0.83-0.02,1.65-0.01,2.48c0,0.19,0,0.38,0,0.57
		c-0.85,0.63-1.26,1.71-0.69,2.69C255.46,100.32,256.8,100.81,257.67,100.17z M259.79,89.25c0.04-0.88,0.08-1.77,0.11-2.65
		c0.01-0.29,0.02-0.58,0.04-0.86c0-0.06,0.06-0.53,0.06-0.57c0.05-0.25,0.12-0.5,0.17-0.75c0.02-0.08,0.02-0.12,0.02-0.14
		c0.01-0.02,0.03-0.05,0.07-0.12c0.04-0.07,0.08-0.14,0.13-0.21c0.02,0.01,0.03,0.02,0.05,0.03c0.22,0.14,0.35,0.23,0.56,0.44
		c0.41,0.41,0.66,0.78,1,1.26c0.79,1.15,1.52,2.35,2.17,3.58c0.79,1.49,1.43,3.03,1.98,4.61c-2.24-0.18-4.51,0.13-6.63,0.88
		c0.02-0.29,0.05-0.58,0.06-0.87C259.66,92.33,259.72,90.79,259.79,89.25z"/>
	<path class="st1" d="M330.75,87.11c0.1,0,0.2-0.02,0.29-0.03c3.07,1.01,6.24,1.79,9.35,2.67c1.34,0.38,2.7-0.68,2.7-2.06
		c0.01-6.46-0.81-12.92-2.46-19.17c-0.4-1.53-2.38-2.02-3.49-0.92c-4.74,4.72-7.63,10.88-8.4,17.51
		C328.62,86.19,329.76,87.11,330.75,87.11z M333.08,83.23c0.74-3.5,2.27-6.82,4.41-9.68c0.73,3.72,1.16,7.49,1.29,11.28
		C336.89,84.27,334.99,83.72,333.08,83.23z"/>
</g>
</svg>
