<?xml version="1.0" encoding="utf-8"?>
<!-- Generator: Adobe Illustrator 26.3.1, SVG Export Plug-In . SVG Version: 6.00 Build 0)  -->
<svg version="1.1" id="Federn" xmlns="http://www.w3.org/2000/svg" xmlns:xlink="http://www.w3.org/1999/xlink" x="0px" y="0px"
	 viewBox="0 0 500.5 509" style="enable-background:new 0 0 500.5 509;" xml:space="preserve">
<style type="text/css">
	.st0{fill:#C5B8DD;}
	.st1{fill:#E7CDE2;}
	.st2{fill:#211F1B;}
</style>
<g id="Farbe">
	<path class="st0" d="M456.43,410.61c-3.47-11.56-7.7-22.83-13.64-33.37c-4.74-8.42-10.43-16.21-16.42-23.77
		c-1.59-2.01-3.2-4-4.8-5.99c-1.39-1.73-2.71-4.09-4.38-5.53c-2.42-2.09-8.17-0.25-10.93,0.51c-3.73,1.03-7.34,2.41-11.08,3.41
		c-3.45,0.92-6.93,1.51-10.45,1.88c4.09-3.64,8.18-7.28,12.27-10.92c1.37-1.22,0.88-3.45-0.56-4.34
		c-18.12-11.18-39.51-15.28-60.21-18.76c-8.94-1.5-18.08-4.37-26.7-0.24c-7.7,3.69-13.88,10.48-19.66,16.99
		c0.98-6.07,3.89-11.33,10.09-14.2c2.1-0.97,1.38-4.17-0.62-4.74c-11.04-3.14-22.6-4.38-34.03-3.09c-9.74,1.1-18.74,4.02-27.28,8.51
		c3.94-10.83,2.89-23.05-2.58-33.3c-0.8-1.5-3.42-1.25-3.76,0.49c-2.12,10.77-4.4,21.52-6.45,32.3
		c-2.98-7.69-8.07-14.33-15.03-19.13c-1.47-1.02-3.18,0.94-2.36,2.36c2.8,4.89,5.31,9.94,7.42,15.17c1.34,3.33,2.32,6.8,3.41,10.22
		c-6.14-4.33-13.13-7.19-20.62-8.24c-1.49-0.21-2.44,1.6-1.06,2.51c6.43,4.25,9.82,11.08,13.53,17.62
		c-0.29-0.12-0.58-0.24-0.88-0.36c-1.04-0.43-2.63-1.28-3.81-1.98c-2.49-1.47-5.01-3.43-6.77-5.74c-0.84-1.09-2.6-0.17-1.9,1.11
		c1.65,3.03,3.65,5.66,6.38,7.8c1.04,0.81,2.15,1.48,3.3,2.09c-6.68-0.21-13.37-0.27-20.04-0.13c-12.09,0.26-24.16,1.08-36.19,2.28
		c-6.12,0.61-12.25,1.31-18.32,2.27c-6.01,0.95-11.97,1.75-17.46,4.47c-2.38,1.18-1.03,4.54,1.27,4.68
		c5.25,0.31,10.35-0.83,15.52-1.71c5.22-0.89,10.45-1.76,15.69-2.52c10.62-1.55,21.31-2.57,32.02-3.21
		c10.15-0.61,20.36-0.95,30.56-0.92c-1.02,0.72-2,1.51-2.95,2.32c-3.09,2.65-5.87,5.65-8.57,8.69
		c-5.15,5.79-10.04,12.48-16.49,16.91c-1.93,1.33-1.06,3.9,1.13,4.17c9.98,1.23,19.96-0.23,29.14-4.1
		c-1.17,1.82-2.27,3.69-3.44,5.49c-2.12,3.25-4.31,6.44-6.57,9.59c-4.8,6.67-9.96,13.12-15.48,19.21c-1.14,1.26,0.28,2.93,1.74,2.26
		c14.71-6.68,26.52-19.4,33.38-34.15c0.34,2.81,0.95,5.56,2.01,8.17c2.86,7.04,8.72,9.21,15.46,11.58
		c15.08,5.29,31.13,8.55,47.03,10.09c2.09,0.2,3.54-2.18,3.05-4c-1.45-5.42-2.25-10.94-2.42-16.49c1.21,2.85,2.48,5.68,3.87,8.44
		c3.05,6.07,6.72,12.96,12.41,16.99c7.31,5.17,16.53,8.51,24.81,11.81c8.53,3.41,17.2,6.47,25.55,10.31c2.28,1.05,5.44-0.7,4.55-3.5
		c-1.83-5.77-2.74-11.7-2.76-17.66c2.76,5.45,6.19,10.58,9.93,15.35c2.57,3.29,5.32,6.49,8.38,9.34c1.08,1.01,2.22,2.05,3.46,2.86
		c1.9,1.26,4.1,1.28,6.32,1.57c17.73,2.38,36.28,4.49,54.12,1.99c7.19-1.01,17.03-2.5,20.56-9.84
		C461.33,425.78,458.42,417.26,456.43,410.61z"/>
	<path class="st1" d="M116.62,316.29c1.15-1.3,2.24-2.71,3.21-4.15c1.95-2.89,3.43-6.29,3.93-9.75c0.53-3.65,0.06-7.38-1.58-10.52
		c4.52,1.92,9.76,2.33,14.54,1.68c2.71-0.37,5.37-1.09,7.88-2.19c1.42-0.63,2.79-1.39,4.07-2.27c0.78-0.53,1.61-1.41,2.46-2.05
		c0.45-0.21,0.88-0.45,1.29-0.73c-0.02-0.02-0.04-0.04-0.05-0.05c0.8-0.53,0.61-1.72-0.46-1.83c-3.36-0.35-6.92,0.79-10.3,0.96
		c-3.24,0.17-6.54,0.07-9.76-0.33c-5.54-0.69-11-2.25-16.07-4.59c35.53,4.6,72.76-11.86,92.83-41.85c1.02-1.52,0.06-4.09-1.8-4.42
		c-1.63-0.29-3.21-0.7-4.76-1.16c5.62,0.23,11.87-0.47,16.44-3.29c4.16-2.57,7.16-6.27,10.03-10.16c4.27-5.8,8.64-11.33,13.85-16.34
		c1.79-1.72,0.45-4.97-2.04-4.93c-3.83,0.07-7.62-0.19-11.35-0.76c4.38-0.53,8.74-1.4,13.04-2.55c4.88-1.31,9.66-2.96,14.37-4.76
		c1.72-0.66,3.9-1.18,5.44-2.17c1.86-1.18,3.37-3.59,4.78-5.27c13.6-16.18,25.26-34,36.52-51.85c1.89-3-2.15-5.43-4.56-3.52
		c-6.71,5.34-15.85,6.24-23.6,3.22c6.98-2.5,13.94-5.1,20.57-8.43c3.33-1.67,8.8-3.97,10.95-7.19c0.9-1.34,0.87-3.48,1.19-5.05
		c0.44-2.19,0.95-4.36,1.46-6.53c2.04-8.7,4.78-18.18,3.41-27.19c-0.82-5.4-3.56-11.28-9.28-12.72c-7.12-1.79-16.04,1.27-22.85,3.06
		c-5.54,1.45-10.9,3.62-16.1,5.99c-8.25,3.74-16.16,8.23-23.76,13.17c-4.86,3.16-9.56,6.56-14.16,10.1
		c-4.04,3.11-9.05,6.32-12.26,10.29c-0.65,0.8-0.15,0.31-0.22,0.45c-0.14,0.3-0.29,0.6-0.43,0.89c-0.49,1.02-0.93,2.07-1.37,3.11
		c-1.37,3.29-2.56,6.66-3.57,10.09c-2.41,8.13-3.98,16.45-4.73,24.87c-1.62-4.5-2.54-9.21-2.71-14.13
		c-0.22-6.32,0.64-12.57,1.33-18.84c0.25-2.3-2.75-2.97-4.18-1.73c-10.2,8.8-21.19,16.63-31.42,25.39
		c-6.11,5.23-11.94,10.78-17.53,16.56c-1.75,1.81-3.48,3.64-5.19,5.49c-1.57,1.7-3.61,3.43-4.74,5.44
		c-2.32,4.13-3.63,9.28-5.21,13.75c-1.08,3.05-2.07,6.13-3.05,9.21c0.02-3.32,0.06-6.64,0.07-9.97c0.01-1.81-2.23-3.36-3.84-2.21
		c-26.2,18.66-39.25,53.42-32.12,84.45c-13.73-4.53-29.03-2.4-40.99,6.04c-1.59,1.12-0.67,3.71,1.36,3.22
		c4.54-1.11,9.19-1.52,13.86-1.26c2.25,0.12,4.5,0.4,6.73,0.78c1.42,0.24,2.81,0.63,4.23,0.73c-13.66,4.59-24.79,16.47-28.24,30.56
		c-0.5,2.04,2.31,2.7,3.07,0.85c3.01-7.39,11.13-10.88,18.42-12.53c4.36-0.99,8.82-1.48,13.21-2.27c2.98-0.54,6.52-1.07,9.49-2.39
		c-3.69,5.97-7.22,12.05-10.52,18.27c-5.39,10.16-10.18,20.66-14.21,31.44c-3.97,10.61-7.61,21.69-8.8,33
		c-0.35,3.32,4.7,3.72,5.62,0.76c2.98-9.56,5.31-19.27,8.68-28.72c3.38-9.47,7.4-18.69,11.92-27.67
		c3.63-7.22,7.58-14.26,11.78-21.15c1.86,8.48-0.04,16.86-3.67,24.64c-0.84,1.79,1.5,3.17,2.65,1.55c4.88-6.91,5.74-16.13,3.81-24.3
		c0.04,0.05,0.08,0.1,0.12,0.15c2.04,2.59,3.94,5.31,5.5,8.23c1.61,3,2.85,5.9,3.32,9.29c0.46,3.36,0.52,6.82-0.16,10.16
		c-0.09,0.43,0.43,0.8,0.77,0.45c0.4-0.41,1.12-0.42,1.6-0.72C115.49,317.66,116.08,316.91,116.62,316.29z"/>
</g>
<g id="ol">
	<path class="st2" d="M467.23,428.22c-0.58-4.71-1.91-9.28-3.3-13.8c-3.49-11.34-7.74-22.36-13.64-32.68
		c-4.71-8.24-10.33-15.87-16.22-23.29c-2.6-3.28-5.25-6.51-7.83-9.8c-0.93-1.18-1.63-2.16-3.29-2.2c-0.86-0.02-1.74,0.06-2.6,0.15
		c-1.7,0.18-3.38,0.47-5.03,0.88c-3.17,0.79-6.24,1.94-9.37,2.89c-4.03,1.23-8.18,2.18-12.36,2.66c-0.32,0.04-0.65,0.06-0.98,0.1
		c4.11-3.66,8.23-7.32,12.34-10.98c1.37-1.22,0.87-3.45-0.56-4.34c-13.8-8.59-29.83-12.98-45.64-16.13
		c-7.81-1.56-15.68-2.81-23.54-4.12c-3.78-0.63-7.42-1.39-11.25-0.83c-3.49,0.51-6.8,2-9.73,3.92c-6.26,4.11-11.46,9.71-16.5,15.29
		c0.3-2.05,0.81-4.07,1.63-6c1.68-3.95,4.67-6.63,8.54-8.35c2.13-0.95,1.35-4.17-0.62-4.74c-16.85-4.86-35.41-5.06-51.99,1.02
		c-3.17,1.16-6.27,2.65-9.27,4.29c3.9-10.77,2.83-23.05-2.63-33.19c-0.81-1.49-3.42-1.25-3.76,0.49
		c-2.12,10.75-4.39,21.49-6.45,32.25c-2.98-7.68-8.1-14.34-15.04-19.09c-1.48-1.01-3.18,0.94-2.36,2.36c2.78,4.83,5.26,9.83,7.35,15
		c1.03,2.54,1.98,5.12,2.84,7.73c0.31,0.93,0.58,1.87,0.85,2.81c-6.19-4.42-13.25-7.33-20.83-8.4c-1.49-0.21-2.44,1.6-1.06,2.51
		c6.43,4.25,9.81,11.08,13.52,17.62c-0.29-0.12-0.58-0.24-0.87-0.36c-1.04-0.43-2.63-1.28-3.81-1.98c-2.49-1.47-5.01-3.43-6.77-5.74
		c-0.84-1.09-2.6-0.17-1.9,1.11c1.65,3.03,3.65,5.66,6.38,7.8c1.02,0.8,2.08,1.48,3.2,2.08c-6.43-0.2-12.86-0.26-19.28-0.13
		c-10.85,0.22-21.67,0.89-32.47,1.88c-10.85,1-21.78,2.15-32.45,4.42c-2.76,0.59-5.19,1.49-7.72,2.74
		c-2.38,1.18-1.04,4.54,1.27,4.68c2.88,0.17,5.51-0.04,8.36-0.49c2.66-0.42,5.3-0.9,7.95-1.35c5.23-0.88,10.45-1.75,15.7-2.5
		c10.52-1.52,21.12-2.5,31.73-3.13c9.99-0.59,20.02-0.91,30.04-0.88c-0.27,0.19-0.53,0.39-0.8,0.59c-2.56,1.95-4.89,4.17-7.12,6.49
		c-4.53,4.74-8.61,9.87-13.14,14.61c-2.14,2.24-4.41,4.48-6.95,6.22c-1.94,1.33-1.06,3.9,1.13,4.17c9.95,1.24,19.95-0.21,29.12-4.06
		c-1.13,1.78-2.2,3.6-3.34,5.35c-2.22,3.4-4.52,6.75-6.9,10.05c-4.72,6.54-9.76,12.93-15.23,18.86c-1.16,1.25,0.29,2.92,1.74,2.26
		c14.69-6.62,26.58-19.65,33.44-34.16c0.14,1.24,0.32,2.47,0.58,3.7c1.05,4.98,3.52,10.29,8.3,12.67
		c5.49,2.74,11.61,4.53,17.49,6.21c6.26,1.79,12.63,3.25,19.03,4.47c6.3,1.2,12.66,2.18,19.05,2.79c2.08,0.2,3.55-2.17,3.05-4
		c-1.48-5.4-2.29-10.97-2.45-16.56c0.54,1.28,1.1,2.55,1.67,3.81c2.46,5.44,5.21,10.87,8.82,15.65c1.56,2.07,3.21,4.01,5.26,5.6
		c2.7,2.09,5.98,3.52,9.02,5.03c6.69,3.32,13.59,6.16,20.55,8.86c7.16,2.78,14.37,5.43,21.35,8.66c1.15,0.53,2.39,0.59,3.44-0.24
		c0.93-0.74,1.5-2.06,1.11-3.25c-1.86-5.72-2.8-11.69-2.81-17.67c2.75,5.4,6.19,10.48,9.86,15.21c2.57,3.31,5.33,6.52,8.39,9.39
		c1.16,1.09,2.39,2.14,3.69,3.06c2.07,1.46,5.21,1.36,7.65,1.69c9,1.2,18.04,2.25,27.12,2.63c3.33,0.14,6.67,0.11,9.99,0.07
		c5.23-0.05,10.43-0.19,15.62-0.91c4.97-0.69,10.07-1.74,14.61-3.95c2.81-1.36,4.95-3.62,6.16-6.49
		C467.52,434.36,467.61,431.25,467.23,428.22z M460.12,436.63C460.18,436.55,460.36,436.37,460.12,436.63L460.12,436.63z
		 M461.74,432.24c-0.02,0.26-0.05,0.52-0.07,0.78c0.08-0.83,0-0.05-0.04,0.17c-0.1,0.52-0.25,1.03-0.42,1.53
		c-0.02,0.06-0.03,0.09-0.04,0.12c-0.1,0.2-0.19,0.4-0.29,0.59c-0.23,0.42-0.51,0.8-0.76,1.2c-0.03,0.03-0.06,0.06-0.1,0.11
		c-0.16,0.18-0.31,0.36-0.48,0.53c-0.14,0.14-0.29,0.27-0.44,0.41c-0.13,0.08-0.26,0.17-0.39,0.26c-0.54,0.34-1.11,0.64-1.7,0.9
		c-0.11,0.05-0.23,0.1-0.35,0.15c-0.06,0.02-0.21,0.08-0.25,0.1c-0.47,0.18-0.95,0.36-1.43,0.52c-7.88,2.65-16.24,2.88-24.47,2.75
		c-13.45-0.22-26.77-1.48-40.1-3.31c-0.3-0.04-0.65-0.12-0.96-0.13c-0.08,0-0.46-0.02-0.48,0.03c-0.11-0.07-0.21-0.15-0.3-0.21
		c-0.17-0.11-0.33-0.24-0.5-0.35c-0.07-0.05-0.13-0.11-0.2-0.16c-0.95-0.78-1.85-1.61-2.73-2.47c-2.41-2.36-4.63-4.91-6.73-7.54
		c-0.61-0.76-0.77-0.97-1.42-1.84c-0.62-0.82-1.22-1.66-1.81-2.5c-1.18-1.69-2.32-3.42-3.39-5.19c-2.14-3.54-4.12-7.33-5.49-10.98
		c-0.71-1.89-1.31-3.82-1.78-5.78c-0.74-3.08-5.56-3.12-6.27,0c-2.1,9.12-2.12,18.63-0.06,27.72c-10.64-4.37-21.52-8.15-31.94-13.05
		c-3.54-1.66-7.04-3.44-10.46-5.35c-0.47-0.26-0.92-0.53-1.36-0.83c-0.07-0.04-0.28-0.21-0.35-0.27c-0.11-0.09-0.22-0.18-0.33-0.28
		c-0.87-0.76-1.67-1.61-2.42-2.5c-0.19-0.22-0.37-0.45-0.56-0.67c-0.07-0.08-0.11-0.13-0.14-0.17c-0.03-0.04-0.06-0.08-0.11-0.15
		c-0.38-0.5-0.74-1.01-1.1-1.53c-0.82-1.2-1.6-2.43-2.34-3.68c-1.55-2.62-2.94-5.32-4.24-8.07c-2.8-5.9-5.15-11.93-7.23-18.23
		c-0.44-1.32-1.59-2.3-3.02-2.3c-1.28,0-2.79,0.96-3.02,2.3c-1.68,9.61-1.57,19.42,0.4,28.95c-3.6-0.45-7.06-1-11-1.72
		c-5.97-1.09-11.91-2.4-17.77-3.96c-5.78-1.54-11.52-3.28-17.08-5.49c-1.18-0.47-1.81-0.66-2.86-1.25
		c-0.23-0.13-0.44-0.28-0.67-0.41c-0.06-0.03-0.08-0.05-0.12-0.07c-0.02-0.02-0.04-0.04-0.07-0.07c-0.43-0.39-0.83-0.78-1.22-1.21
		c-0.04-0.05-0.13-0.15-0.19-0.23c-0.13-0.18-0.26-0.36-0.38-0.55c-0.31-0.48-0.59-0.98-0.84-1.49c-0.09-0.18-0.17-0.35-0.25-0.53
		c-0.04-0.08-0.06-0.12-0.08-0.16c-0.02-0.05-0.03-0.1-0.06-0.2c-0.24-0.7-0.49-1.39-0.68-2.1c-1.67-6.07-1.5-13.07-0.85-19.61
		c0.16-1.61-1.49-2.99-2.99-2.99c-1.75,0-2.83,1.37-2.99,2.99c-0.31,3.16-0.56,6.35-0.58,9.53c-5.3,11.68-13.31,22.24-23.32,30.18
		c-0.87,0.69-1.75,1.37-2.64,2.04c2.93-3.57,5.81-7.19,8.58-10.9c2.43-3.26,4.78-6.58,7.05-9.96c2.07-3.08,4.31-6.17,5.82-9.57
		c0.01-0.01,0.03-0.01,0.04-0.02c1.7-0.91,0.21-3.31-1.49-2.54c-8.28,3.77-17.67,5.53-26.81,5.04c2.97-2.69,5.63-5.77,8.24-8.76
		c4.21-4.83,8.32-9.85,13.2-14.04c2.27-1.94,4.8-3.51,7.26-5.18c0.05-0.03,0.09-0.07,0.14-0.11c8.97,0.2,17.93,0.69,26.85,1.6
		c21.44,2.17,42.7,6.02,63.55,11.46c20.72,5.41,41.05,12.44,60.59,21.23c9.75,4.38,19.37,9.06,28.74,14.21
		c9.25,5.09,18.24,10.64,27.18,16.24c2.26,1.42,4.51,2.87,6.74,4.34c0.58,0.38,1.31-0.53,0.75-0.98
		c-16.71-13.44-35.11-24.44-54.35-33.87c-19.41-9.52-39.92-17.05-60.69-23c-20.99-6.01-42.46-10.25-64.12-12.91
		c-12.19-1.49-24.47-2.62-36.76-3.27c-2.21-3.81-4.46-7.62-6.81-11.33c-1.91-3-4.02-5.93-6.54-8.44c6.17,1.5,12.05,4.21,17.17,7.93
		c0.23,0.7,0.48,1.39,0.76,2.07c0.54,1.31,2.95,1.37,2.77-0.37c-0.3-2.86-1.23-5.62-2.1-8.35c-0.88-2.76-1.86-5.49-2.94-8.18
		c-0.99-2.48-2.06-4.92-3.2-7.32c4.57,5.19,7.74,11.65,8.74,18.47c0.27,1.81,3.13,1.66,3.51,0c2.51-10.98,4.7-22.06,6.96-33.1
		c2.96,9.22,2.35,19.4-1.33,28.41c-0.09,0.16-0.15,0.32-0.18,0.49c-0.47,1.41,1.37,2.4,2.51,1.78c3.83-1.79,7.77-3.32,11.82-4.53
		c4.05-1.21,8.08-2.41,12.23-3.2c8.09-1.53,16.39-1.83,24.57-0.9c2.81,0.32,5.59,0.82,8.34,1.43c-2.22,2.02-3.96,4.54-5.13,7.39
		c-1.88,4.56-2.15,9.61-2.35,14.47c-0.09,2.1,2.56,2.95,3.97,1.64c6.03-5.59,11.36-12.11,17.9-17.13c2.59-1.99,5.45-3.71,8.61-4.52
		c3.06-0.79,6.03-0.31,9.2,0.23c15.32,2.63,30.77,5.01,45.65,9.64c7,2.18,13.83,4.91,20.23,8.49c-5.15,4.58-10.29,9.15-15.44,13.73
		c-1.81,1.61-0.36,4.76,1.96,4.72c6.63-0.11,13.26-0.86,19.67-2.57c4.17-1.11,8.19-2.72,12.37-3.75c1.03-0.25,2.06-0.46,3.11-0.61
		c0,0,0,0,0,0c0.15-0.02,0.3-0.03,0.46-0.05c0.27-0.03,0.54-0.05,0.81-0.07c0.21-0.01,0.42-0.01,0.63-0.02
		c8.7,11.16,17.6,21.63,24.51,34.14c4.56,8.24,8.08,16.91,10.95,25.88c1.32,4.12,2.6,8.28,3.54,12.51c0.17,0.77,0.33,1.54,0.46,2.32
		c0.06,0.36,0.12,0.72,0.18,1.07c0.01,0.03,0.02,0.1,0.02,0.16c0.02,0.16,0.04,0.32,0.06,0.48
		C461.76,429.8,461.82,431.02,461.74,432.24z"/>
	<path class="st2" d="M123.3,322.97c0.61-0.58,1.18-1.24,1.72-1.89c1.13-1.36,2.26-2.77,3.19-4.27c1.76-2.84,3.1-6.02,3.55-9.34
		c0.48-3.54,0-7.19-1.59-10.27c4.5,1.91,9.75,2.31,14.5,1.67c2.86-0.39,5.66-1.16,8.29-2.37c1.32-0.61,2.59-1.34,3.79-2.16
		c0.86-0.59,1.69-1.44,2.58-2.08c0.37-0.19,0.73-0.39,1.06-0.63c1.03-0.44,0.36-1.8-0.51-1.89c-1.69-0.16-3.42,0.16-5.09,0.41
		c-1.7,0.25-3.39,0.46-5.11,0.55c-3.36,0.18-6.78,0.08-10.11-0.36c-5.45-0.71-10.84-2.22-15.84-4.54c11.43,1.5,23.1,0.83,34.36-1.84
		c15.12-3.58,29.33-10.74,41.23-20.72c6.65-5.57,12.46-12.1,17.25-19.33c1-1.51,0.07-4.1-1.8-4.42c-1.73-0.3-3.44-0.71-5.11-1.21
		c3.1,0.1,6.2-0.12,9.25-0.68c2.57-0.48,5.17-1.12,7.42-2.48c1.7-1.03,3.29-2.28,4.71-3.66c2.78-2.7,4.99-5.97,7.27-9.09
		c3.57-4.88,7.53-9.54,12.02-13.83c1.79-1.71,0.44-4.99-2.04-4.93c-3.86,0.09-7.72-0.16-11.53-0.75c10-1.22,19.83-4.28,29.23-7.96
		c1.77-0.69,3.71-1.21,5-2.65c1.19-1.33,2.36-2.68,3.51-4.05c2.63-3.12,5.15-6.32,7.63-9.56c5.07-6.62,9.88-13.42,14.57-20.31
		c4.93-7.26,9.71-14.63,14.39-22.07c0.76-1.21,0.37-2.91-0.75-3.74c-1.23-0.92-2.66-0.71-3.81,0.23
		c-6.58,5.37-15.89,6.31-23.66,3.24c6.91-2.48,13.8-5.05,20.39-8.32c2.02-1,4-2.07,5.9-3.27c1.73-1.09,3.65-2.28,5.08-3.76
		c0.7-0.73,0.76-1.55,0.89-2.48c-0.09,0.68,0.1-0.58,0.12-0.73c0.15-0.92,0.33-1.83,0.52-2.75c0.44-2.09,0.93-4.18,1.42-6.26
		c1.07-4.56,2.16-9.13,2.87-13.76c0.69-4.48,1.12-9.01,0.39-13.51c-0.5-3.13-1.78-6.42-3.78-8.89c-1.72-2.12-4.16-3.27-6.83-3.63
		c-3.51-0.47-7.09,0.15-10.54,0.82c-4.03,0.77-8.07,1.67-12.02,2.78c-5.67,1.6-11.16,3.88-16.49,6.37
		c-8.09,3.78-15.86,8.26-23.32,13.17c-4.77,3.13-9.37,6.52-13.88,10.01c-2.47,1.91-4.9,3.88-7.29,5.89c-1.18,1-2.44,1.96-3.54,3.03
		c-0.27,0.26-0.51,0.53-0.69,0.85c-0.79,1.43-0.26,0.51-0.09,0.21c-0.03,0.07-0.07,0.13-0.1,0.2c-0.14,0.28-0.27,0.56-0.41,0.84
		c-0.41,0.88-0.8,1.77-1.17,2.66c-1.16,2.74-2.18,5.52-3.09,8.36c-2.8,8.78-4.62,17.87-5.43,27.05c-1.55-4.31-2.45-8.83-2.66-13.49
		c-0.29-6.53,0.6-12.99,1.31-19.47c0.25-2.3-2.75-2.97-4.18-1.73c-10.06,8.69-20.9,16.42-31.02,25.04
		c-6.12,5.22-11.96,10.75-17.56,16.52c-1.73,1.79-3.44,3.59-5.13,5.42c-0.85,0.92-1.7,1.84-2.54,2.77c-0.94,1.04-2.2,2.1-2.74,3.41
		c-1.89,4.59-3.61,9.25-5.25,13.94c-1.01,2.89-1.96,5.81-2.88,8.74c0.02-3.32,0.06-6.64,0.07-9.96c0.01-1.81-2.22-3.35-3.84-2.21
		c-12.11,8.55-21.43,20.52-27.2,34.14c-5.75,13.57-8.12,28.56-6.32,43.23c0.29,2.37,0.72,4.71,1.26,7.02
		c-13.66-4.48-29.01-2.32-40.85,6.1c-1.58,1.12-0.67,3.72,1.36,3.22c4.42-1.1,8.96-1.5,13.51-1.28c2.27,0.11,4.54,0.38,6.78,0.75
		c1.45,0.24,2.91,0.68,4.38,0.8c-9.86,3.35-18.35,10.54-23.64,19.58c-2,3.41-3.54,7.12-4.47,10.96c-0.49,2.03,2.32,2.71,3.07,0.85
		c2.86-7.19,10.76-10.7,17.81-12.39c4.41-1.06,8.93-1.56,13.39-2.34c2.3-0.4,4.58-0.87,6.83-1.52c1.07-0.31,2.14-0.62,3.16-1.04
		c-3.67,5.91-7.17,11.93-10.44,18.07c-9.54,17.94-17.63,37.1-21.99,57c-0.56,2.56-0.91,5.13-1.18,7.74c-0.14,1.4,1.2,2.66,2.48,2.81
		c1.43,0.17,2.71-0.66,3.14-2.05c2.97-9.58,5.32-19.32,8.7-28.78c3.4-9.52,7.17-18.19,11.74-27.28c3.68-7.34,7.69-14.49,11.95-21.49
		c1.87,8.49-0.05,16.88-3.68,24.66c-0.84,1.79,1.5,3.17,2.65,1.55c4.87-6.89,5.74-16.11,3.83-24.27c0.15,0.19,0.31,0.38,0.46,0.57
		c2.01,2.58,3.85,5.3,5.37,8.2c0.77,1.46,1.6,2.93,2.14,4.49c0.53,1.55,0.82,3.25,1.02,4.87c0.38,3.19,0.45,6.51-0.23,9.66
		c-0.12,0.54,0.54,0.77,0.85,0.36c0.19-0.26,0.73-0.26,1.02-0.36C122.65,323.5,122.98,323.27,123.3,322.97z M315.04,82.75
		C315.1,83.12,315.06,82.88,315.04,82.75L315.04,82.75z M310.72,74.64C310.83,74.68,310.86,74.71,310.72,74.64L310.72,74.64z
		 M106.82,238.53c1.63-13.67,6.74-26.94,14.81-38.1c3.55-4.91,7.76-9.38,12.45-13.23c-0.01,7.34-0.02,14.68,0.01,22.02
		c0.01,2.75,4.09,3.35,4.82,0.65c1.64-6.04,3.26-12.09,5.17-18.06c2.23-6.95,4.77-13.79,7.48-20.56
		c7.96-8.83,16.3-17.32,25.29-25.11c6.67-5.77,13.69-11.09,20.63-16.52c2.49-1.95,4.96-3.94,7.4-5.95
		c-0.53,4.8-0.93,9.61-0.66,14.46c0.48,8.5,2.95,16.65,7.41,23.91c1.29,2.1,4.62,1.24,4.65-1.26c0.1-8.79,1.12-17.54,3.16-26.09
		c0.79-3.3,1.74-6.56,2.86-9.76c0.44-1.25,0.9-2.5,1.38-3.73c0.21-0.54,0.43-1.07,0.65-1.61c0.03-0.08,0.07-0.16,0.1-0.23
		c0.01-0.01,0.01-0.02,0.02-0.04c0.1-0.23,0.19-0.45,0.29-0.68c0.56-1.28,1.15-2.56,1.8-3.8c0.06-0.11,0.19-0.27,0.21-0.4
		c-0.03,0.18-1.06,0.87,0.08-0.13c0.02-0.02,0.02-0.08,0.05-0.09c0.09-0.06-0.05,0.22-0.04,0.21c0.5-0.43,1.02-0.84,1.53-1.26
		c1.07-0.87,2.14-1.73,3.22-2.59c7.22-5.7,14.7-11.07,22.47-16c6.07-3.84,12.33-7.39,18.81-10.49c1.34-0.64,2.69-1.26,4.05-1.86
		c0.31-0.14,0.62-0.27,0.93-0.41c0.07-0.03,0.4-0.17,0.55-0.24c0.14-0.06,0.58-0.24,0.67-0.28c0.33-0.13,0.65-0.27,0.98-0.4
		c2.07-0.83,4.17-1.61,6.29-2.3c5.61-1.82,11.5-3.22,17.32-4.13c0.18-0.03,0.37-0.06,0.55-0.08c0.03,0,0.04-0.01,0.05-0.01
		c0.33-0.04,0.66-0.08,1-0.11c0.66-0.06,1.32-0.11,1.97-0.12c0.55-0.01,1.1,0.01,1.65,0.05c0.07,0,0.14,0.01,0.21,0.02
		c0.22,0.04,0.44,0.07,0.66,0.13c0.22,0.05,0.44,0.12,0.65,0.18c0.08,0.02,0.15,0.05,0.21,0.07c0.35,0.19,0.7,0.38,1.04,0.59
		c0.01,0,0.01,0,0.01,0.01c0.01,0.01,0.01,0.02,0.03,0.04c0.13,0.14,0.28,0.25,0.41,0.39c0.13,0.14,0.25,0.29,0.39,0.43
		c0.07,0.1,0.15,0.21,0.22,0.31c0.26,0.39,0.49,0.79,0.7,1.21c0.12,0.23,0.22,0.46,0.33,0.7c0.06,0.15,0.12,0.29,0.17,0.44
		c0.48,1.27,0.86,2.57,1.08,3.92c0.01,0.04,0.01,0.07,0.02,0.11c0.02,0.19,0.04,0.38,0.06,0.57c0.04,0.4,0.06,0.79,0.08,1.19
		c0.04,0.88,0.04,1.77,0.01,2.66c-0.06,1.69-0.24,3.65-0.45,5.12c-1.04,7.35-3.17,14.47-4.62,21.74c-0.21,1.03-0.38,2.07-0.53,3.11
		c-1.88,1.52-4.32,3.02-6.67,4.29c-2.97,1.6-6.04,3.02-9.16,4.31c-6.11,2.54-12.36,4.69-18.59,6.91c-2.48,0.88-2.68,3.75-0.69,5.26
		c7.42,5.59,17.25,6.86,25.96,4.27c-7.84,12.14-15.98,24.12-24.9,35.48c-2.88,3.67-5.85,7.26-8.97,10.73
		c-15.44,6.13-32.2,11.41-48.95,8.34c-1.44-0.26-2.9,0.27-3.47,1.7c-0.51,1.27-0.13,3.02,1.2,3.68c8.22,4.06,17.15,6.51,26.27,7.15
		c-2.29,2.51-4.48,5.11-6.54,7.82c-2.42,3.19-4.28,6.04-6.64,8.69c-0.54,0.61-1.1,1.19-1.69,1.75c-0.29,0.28-0.59,0.55-0.9,0.82
		c-0.12,0.11-0.25,0.21-0.37,0.31c-0.09,0.07-0.18,0.14-0.27,0.22c-0.01,0.01-0.01,0.01-0.02,0.01c-1.77,1.3-3.12,1.97-5.14,2.49
		c-4.92,1.28-10.18,1.48-15.18,0.58c-5.86-1.06-11.3-3.43-16.04-7.04c-1.16-0.89-3.04-0.3-3.83,0.77c-0.92,1.23-0.77,2.76,0.23,3.9
		c6.23,7.08,14.6,12.28,23.69,14.77c-7.79,10.44-18.03,18.92-29.62,25.05c-12.71,6.71-27.08,10.47-41.36,10.84
		c-6.69,0.17-12.9-0.35-19.22-1.65c3.84-5.65,7.81-11.22,11.9-16.69c13.18-17.63,27.7-34.55,42.71-50.76
		c15.56-16.8,31.83-32.94,48.44-48.7c16.51-15.67,33.33-31,50.16-46.31c2-1.82,4-3.64,6-5.45c0.52-0.47-0.24-1.21-0.76-0.76
		c-17.33,14.9-34.71,29.76-51.8,44.95c-17.26,15.33-34.26,30.96-50.61,47.26c-15.92,15.88-31.24,32.37-45.16,50.05
		c-6.37,8.09-12.47,16.4-18.21,24.94c-2.21-5.79-3.53-11.85-4.43-17.99C105.97,252.32,106,245.34,106.82,238.53z M106.23,284.2
		c-1.86,0.33-3.57,1.14-5.38,1.68c-1.74,0.52-3.52,0.93-5.3,1.28c-3.75,0.74-7.54,1.22-11.29,1.89c-6.07,1.09-12.16,2.92-17.16,6.65
		c4.65-8.3,12.07-14.94,20.93-18.72c3.37-1.44,6.97-2.52,10.59-3.11c1.15-0.19,0.89-2.1-0.28-2.04c-2.58,0.15-5.1,0.57-7.56,1.22
		c0.02-0.23-0.05-0.47-0.21-0.64c-1.58-1.68-4.13-2.09-6.29-2.57c-2.36-0.53-4.78-0.8-7.19-0.94c-1.39-0.08-2.79-0.08-4.18-0.04
		c9.99-3.7,21.27-3.81,31.33-0.25c1.25,4.11,2.87,8.11,4.83,11.97c-0.79,1.21-1.59,2.42-2.37,3.64
		C106.56,284.18,106.39,284.17,106.23,284.2z M119.75,304.38c-1.29-3.14-3.12-6.08-5.05-8.86c-1.17-1.69-2.4-3.43-3.72-5.08
		c1.31-2.09,2.64-4.17,3.99-6.24c2,0.47,4,0.86,6.02,1.19c5.47,3.83,11.63,6.55,18.22,7.76c3.53,0.65,7.1,0.94,10.68,0.78
		c1.31-0.06,2.74-0.12,4.17-0.28c-0.69,0.34-1.39,0.66-2.11,0.95c-2.44,0.98-5.01,1.67-7.63,1.95c-5.44,0.58-10.51-0.54-15.49-2.7
		c-0.4-0.17-0.78-0.14-1.09,0.01c-0.59-0.6-1.24-1.15-1.97-1.64c-0.99-0.67-2.19,0.87-1.28,1.66c3.78,3.32,4.8,9,3.7,13.75
		c-0.68,2.93-2,5.53-3.5,8.11c-0.7,1.2-1.46,2.35-2.24,3.5c0.22-1.66,0.23-3.35,0-5.06C122.01,310.89,121,307.45,119.75,304.38z"/>
</g>
</svg>
