<?xml version="1.0" encoding="utf-8"?>
<!-- Generator: Adobe Illustrator 26.3.1, SVG Export Plug-In . SVG Version: 6.00 Build 0)  -->
<svg version="1.1" id="Brief" xmlns="http://www.w3.org/2000/svg" xmlns:xlink="http://www.w3.org/1999/xlink" x="0px" y="0px"
	 viewBox="0 0 500.5 509" style="enable-background:new 0 0 500.5 509;" xml:space="preserve">
<style type="text/css">
	.st0{fill:#ECF6FC;}
	.st1{fill:#211F1B;}
</style>
<path id="farbe" class="st0" d="M471.87,227.35c-2.34-9.35-10.22-16.39-16.92-22.8c-7.94-7.6-16.29-14.77-24.97-21.49
	c-15.24-11.8-33.18-22.85-52.8-14.71c-18.74,7.77-28.38,25.78-35.73,43.67c-0.87-7.89-1.83-15.77-2.9-23.64
	c-0.12-0.86-1.13-1.44-1.92-1.46c-0.09,0-0.18,0-0.27,0c-0.99-1-2.8-1.31-3.96-0.07c-46.46-0.95-92.96-0.32-139.36,2.1
	c-13.49,0.7-26.95,1.6-40.41,2.74c-0.92,0.08-1.42,0.75-1.53,1.47c-0.87,0.16-1.69,0.83-1.75,1.85c-0.18,3.16-0.18,6.34-0.12,9.51
	c-8.26-14.32-18.25-28.05-33.96-34.64c-8.63-3.62-18.19-4.5-27.15-1.54c-8.84,2.93-16.35,8.76-23.11,15.01
	c-7.91,7.31-15.32,15.21-22.34,23.37c-6.44,7.49-13.91,15.44-17.75,24.66c-2.97,7.14-3.01,16.08,2.37,22.16
	c6.19,6.99,16.01,5.49,23.58,1.91c4.21-1.99,8.25-4.59,12.09-7.48c-1.36,2.39-2.71,4.79-4,7.23c-2.29,4.33-5.03,9.3-3.85,14.38
	c2.18,9.38,13.88,10.37,21.64,9.09c7.74-1.27,14.52-4.65,20.5-9.27c-1.07,2.55-1.65,5.27-1.31,8.23c0.86,7.43,6.89,11.8,14.22,10.75
	c6.73-0.97,13.23-4.7,18.49-8.86c0.97-0.77,1.89-1.62,2.8-2.46c-0.2,3.62,1.1,7.35,3.56,10.06c4.4,4.84,11.87,4.98,17,1.21
	c0.69-0.51,1.33-1.07,1.92-1.67c0.26,2.89,0.59,5.77,1.1,8.65c0.87,4.88,0.56,9.95,1.64,14.78c0.15,0.68,0.91,1.26,1.61,1.23
	c5.91-0.29,12.07,1.13,17.95,1.75c5.99,0.62,11.99,1.15,17.99,1.59c11.79,0.87,23.61,1.6,35.42,2.05
	c24.07,0.92,48.14,0.01,72.12-2.1c13.32-1.17,26.6-2.75,39.83-4.66c2.49-0.36,2.58-2.99,1.27-4.55c0.27,0.1,0.54,0.14,0.82,0.1
	c1.23,0.8,3.25,0.27,3.31-1.66c0.13-4.35,0.05-8.72-0.09-13.09c0.64,0.62,1.32,1.19,2.08,1.7c2.51,1.68,5.74,2.61,8.76,2.35
	c3.13-0.27,6.1-1.59,8.18-3.99c2.04-2.36,3.3-5.4,3.37-8.53c0.02-1-0.09-1.98-0.28-2.96c0.37,0.27,0.71,0.56,1.08,0.82
	c8.75,5.98,31.03,14.79,34.04-1.83c0.74-4.06-0.29-7.65-2.18-10.87c6.61,3.92,13.88,6.47,21.89,6.76
	c7.81,0.28,19.39-2.42,20.04-12.03c0.37-5.45-3.25-10.11-6.2-14.31c-1.47-2.09-2.99-4.13-4.52-6.17c2.09,1.18,4.21,2.3,6.35,3.36
	c7.24,3.56,16.34,6.67,24.14,2.99C471.41,244.4,473.81,235.13,471.87,227.35z"/>
<path id="ol" class="st1" d="M480.03,213.34c-2.96-9.48-11.07-16.56-18.06-23.17c-7.63-7.22-15.63-14.04-23.94-20.46
	c-7.88-6.09-16.08-12.05-25.58-15.36c-9.04-3.14-18.74-2.97-27.58,0.72c-18.03,7.52-28.22,24.8-35.27,42.14
	c-0.81-7.24-1.7-14.47-2.69-21.69c-0.14-1-1.24-1.69-2.18-1.8c-0.24-0.29-0.51-0.54-0.83-0.73c-1.39-0.81-2.99-0.45-4.04,0.62
	c-22.41-0.47-44.83-0.55-67.25-0.25c-23.97,0.32-47.93,1.09-71.87,2.36c-13.43,0.71-26.84,1.63-40.24,2.82
	c-0.96,0.09-1.58,0.69-1.84,1.42c-1.14,0.24-1.82,1.15-1.92,2.31c-0.21,2.42-0.29,4.86-0.3,7.29c-3-5.17-6.24-10.19-10.04-14.89
	c-6.01-7.42-13.42-13.91-22.25-17.74c-8.79-3.82-18.52-4.99-27.77-2.08c-9.15,2.88-16.91,8.85-23.86,15.28
	c-7.54,6.97-14.62,14.47-21.36,22.21c-3.4,3.91-6.71,7.91-9.91,11.99c-3.01,3.84-6.05,7.74-8.17,12.16
	c-3.82,7.99-4.5,18.3,2.04,25.16c7.12,7.48,18.15,4.83,26.15,0.46c2.75-1.5,5.36-3.26,7.9-5.11c-0.03,0.06-0.07,0.12-0.11,0.19
	c-2.2,4.03-4.75,8.18-6.11,12.59c-1.26,4.06-0.92,8.42,1.84,11.79c2.17,2.64,5.51,4.2,8.81,4.88c7.73,1.61,15.87-0.51,22.86-3.84
	c2.65-1.26,5.16-2.77,7.55-4.46c-0.75,2.42-1.02,4.93-0.65,7.53c0.47,3.29,2.1,6.36,4.75,8.39c3.26,2.5,7.43,2.73,11.33,1.95
	c6.65-1.32,12.97-5.07,18.16-9.3c0.42-0.34,0.82-0.7,1.23-1.06c0.13,3.31,1.44,6.62,3.68,9.1c4.54,5.04,12.35,5.23,17.68,1.32
	c0.35-0.26,0.69-0.53,1.02-0.81c0.14,1.06,0.3,2.11,0.43,3.18c0.14,1.12,0.24,2.24,0.48,3.34c0.19,0.88,0.49,1.74,0.59,2.64
	c0.49,4.29,0.33,8.84,1.44,13.02c0.22,0.83,1.12,1.61,2.02,1.53c3.07-0.25,5.99,0.22,9.02,0.67c2.98,0.44,6,0.73,9,1.05
	c5.85,0.63,11.7,1.15,17.57,1.6c11.97,0.91,23.96,1.71,35.95,2.23c23.82,1.03,47.65,0.14,71.39-1.93
	c13.57-1.18,27.11-2.78,40.59-4.73c1.88-0.27,2.93-2.58,2.58-4.29c1.44,0.27,3.09-0.55,3.17-2.5c0.15-3.93,0.07-7.87-0.08-11.82
	c0.35,0.29,0.71,0.55,1.05,0.79c2.55,1.78,5.9,2.79,9.02,2.58c3.31-0.23,6.51-1.59,8.73-4.11c2.15-2.44,3.5-5.62,3.57-8.89
	c0.01-0.59-0.03-1.18-0.09-1.77c5.2,3.57,11.21,6.24,17.41,7.42c3.91,0.74,8.05,0.86,11.66-1.06c3.01-1.6,5.13-4.71,5.83-8.02
	c0.72-3.46,0.18-6.98-1.26-10.16c1.68,0.91,3.41,1.74,5.19,2.48c7.36,3.03,15.89,4.55,23.75,2.7c3.36-0.79,6.84-2.39,9.16-5.01
	c2.71-3.05,3.57-7.05,2.5-10.99c-1.32-4.85-4.83-8.96-7.66-12.99c-0.35-0.5-0.73-0.99-1.09-1.49c0.88,0.47,1.75,0.94,2.64,1.4
	c7.86,4.01,17.58,7.67,26.18,3.66C480.27,231.94,482.58,221.51,480.03,213.34z M342.7,181.06c3.86,28.12,6.33,56.44,7.11,84.81
	c0.16,5.91,0.07,11.83,0.14,17.74c-1.26-2.25-2.57-4.47-3.99-6.64c-2.75-4.2-5.88-8.17-9.12-12c-6.39-7.56-13.51-14.47-21.33-20.53
	c-2.27-1.76-4.57-3.47-6.93-5.1c-2.1-1.45-4.23-3.05-6.55-4.17c3.04-3.63,6.04-7.28,9-10.97c10.7-13.37,20.88-27.16,30.48-41.35
	C341.91,182.25,342.3,181.65,342.7,181.06z M232.33,179.54c23.96-0.78,47.92-1.24,71.89-1.24c10.74,0,21.49,0.1,32.23,0.26
	c-8.22,12.22-16.83,24.19-25.9,35.8c-10.23,13.09-20.94,25.83-32.25,38c-2.81,3.03-5.66,6.03-8.53,9c-2.49,2.58-5.05,5.56-7.94,7.34
	c-2.82,1.74-5.16,1.81-7.93,0.17c-3.05-1.8-5.64-4.76-8.29-7.37c-12.87-12.68-25.71-25.38-38.6-38.03
	c-12.9-12.66-25.71-25.38-38.94-37.69c-1.19-1.11-2.39-2.22-3.58-3.33C187.09,181.36,209.7,180.27,232.33,179.54z M168.34,290.8
	c-0.08-1.62-0.19-3.23-0.22-4.84c-0.04-1.87,0.19-3.62,0.33-5.48c0.14-1.88,0.1-3.85,0.12-5.73c0.03-3.72-0.44-7.5-0.67-11.22
	c-0.24-3.82-0.47-7.64-0.71-11.46c-0.93-14.96-1.96-29.91-2.97-44.86c-0.44-6.42-0.78-12.91-1.68-19.3
	c5.37,5.66,10.73,11.32,16.26,16.82c6.55,6.52,13.09,13.04,19.64,19.56c6.12,6.1,12.26,12.19,18.39,18.28
	c-15.12,11.21-28.73,24.67-40.91,38.94C173.32,284.54,170.81,287.65,168.34,290.8z M158.92,269.47
	C158.94,269.44,158.94,269.44,158.92,269.47L158.92,269.47z M160.02,267.39c-0.03,0.1-0.11,0.32-0.14,0.4
	c-0.12,0.26-0.25,0.52-0.39,0.77c-0.15,0.26-0.31,0.51-0.47,0.76c-0.05,0.08-0.11,0.15-0.16,0.23c-0.03,0.04-0.06,0.08-0.08,0.1
	c-0.4,0.45-0.81,0.88-1.26,1.28c-0.1,0.09-0.21,0.18-0.32,0.27c-0.01,0,0,0-0.01,0.01c-0.25,0.17-0.49,0.34-0.75,0.5
	c-0.26,0.16-0.52,0.31-0.79,0.45c-0.11,0.06-0.23,0.12-0.35,0.17c-0.04,0.02-0.27,0.12-0.39,0.17c-0.16,0.05-0.52,0.18-0.6,0.2
	c-0.24,0.08-0.49,0.15-0.74,0.21c-0.29,0.07-0.58,0.13-0.88,0.19c-0.02,0-0.04,0.01-0.05,0.01c-0.15,0.02-0.3,0.03-0.45,0.04
	c-0.49,0.03-0.97,0.02-1.45-0.01c-0.01-0.01-0.47-0.06-0.59-0.09c-0.34-0.07-0.66-0.17-0.99-0.27c-0.04-0.01-0.23-0.08-0.32-0.11
	c-0.03-0.01-0.06-0.03-0.07-0.03c-0.26-0.13-0.51-0.26-0.76-0.4c-0.25-0.15-0.48-0.31-0.72-0.47c-0.01-0.01-0.04-0.03-0.07-0.05
	c-0.06-0.06-0.21-0.18-0.23-0.2c-0.42-0.39-0.81-0.78-1.17-1.22c-0.09-0.12-0.17-0.24-0.25-0.36c-0.18-0.27-0.36-0.56-0.52-0.84
	c-0.12-0.22-0.22-0.44-0.34-0.66c-0.02-0.05-0.04-0.08-0.06-0.11c-0.04-0.09-0.08-0.19-0.11-0.28c-0.21-0.58-0.42-1.17-0.58-1.77
	c-0.56-2.1-0.45-4.44,0.78-6.57c0.04-0.07,0.07-0.15,0.1-0.22c1.99-2.44,3.76-5.05,5.27-7.79c1.82-3.3,3.3-6.83,4.35-10.44
	c0.49-1.68,0.88-3.39,1.17-5.12c0.36-2.17,1.08-4.74-0.34-6.65c-0.96-1.29-2.78-1.81-4.04-0.52c-0.85,0.87-1.31,1.67-1.45,2.9
	c-0.04,0.36-0.07,0.72-0.11,1.08c0.01-0.05-0.07,0.55-0.08,0.69c-0.2,1.4-0.47,2.8-0.81,4.17c-0.66,2.68-1.63,5.53-2.67,7.78
	c-2.39,5.18-5.48,9.62-9.44,13.58c-3.99,3.99-8.63,7.23-13.96,9.45c-2.27,0.95-5.47,2.11-8.2,1.79c-1.09-0.13-2.45-0.72-3.01-1.2
	c-0.47-0.4-0.84-0.82-1.05-1.11c-0.19-0.27-0.36-0.56-0.51-0.85c-0.03-0.05-0.27-0.55-0.29-0.57c-1.22-2.88-1.03-5.65,0.02-8.58
	c1.26-3.51,3.56-6.66,5.71-9.66c0.29-0.4,0.38-0.82,0.34-1.22c3.06-3.61,5.86-7.46,8.38-11.47c2.56-4.08,5.09-8.27,7.25-12.59
	c1.73-3.47-3.18-6.42-5.24-3.06c-4.1,6.7-7.7,13.64-12.32,20.02c-4.26,5.89-9.37,11.3-15.49,15.28c-5.89,3.84-12.71,6.38-19.81,6.36
	c-5.32-0.01-12.2-2.4-11.06-8.94c0.77-4.42,3.56-8.52,5.61-12.43c1.75-3.34,3.26-6.78,4.8-10.22c1.92-1.64,3.8-3.33,5.62-5.08
	c6.8-6.56,12.86-13.9,18.05-21.8c1.25-1.9,2.23-3.99,3.27-6c1.66-3.2-2.88-5.87-4.84-2.83c-1.2,1.87-2.57,3.61-3.78,5.47
	c-1.2,1.85-2.46,3.67-3.76,5.46c-2.49,3.41-5.18,6.67-8.02,9.79c-5.82,6.38-12.3,12.19-19.36,17.18c-3.39,2.4-6.93,4.8-10.83,6.32
	c-3.72,1.45-7.58,2.28-11.29,0.98c-3.08-1.08-5.11-3.79-6.02-6.73c-1.11-3.56-0.89-7.02,0.28-10.59c1.35-4.12,3.85-7.81,6.42-11.26
	c2.79-3.75,5.77-7.37,8.78-10.95c6.33-7.52,13.02-14.74,20.03-21.63c6.2-6.09,12.73-12.07,20.6-15.93
	c7.58-3.72,15.94-4.38,24.02-1.98c17.52,5.21,28.23,20.86,37.42,35.56c0.76,1.21,1.5,2.44,2.25,3.66c0.08,1.63,0.17,3.27,0.26,4.89
	c0.41,7.48,0.82,14.95,1.23,22.43c0.71,12.91,1.49,25.81,2.28,38.71C160.29,266.34,160.18,266.88,160.02,267.39z M347.76,290.86
	c-23.25,3.42-46.68,5.62-70.16,6.65c-23.6,1.03-47.34,1.98-70.95,0.81c-6.68-0.33-13.35-0.77-20.02-1.25
	c-3.25-0.24-6.5-0.52-9.75-0.78c-2.18-0.17-4.33-0.25-6.46-0.56c11.67-15.18,24.88-29.25,39.23-41.92c3.27-2.88,6.58-5.72,9.9-8.55
	c6.13,6.08,12.26,12.16,18.39,18.24c3.02,2.99,5.93,6.21,9.22,8.91c3.12,2.56,6.81,4.7,11,4.52c4.27-0.19,7.88-2.49,10.95-5.3
	c2.97-2.71,5.65-5.78,8.39-8.72c6.98-7.5,13.79-15.16,20.44-22.96c1.91,1.66,4.24,2.88,6.33,4.31c1.97,1.34,3.91,2.73,5.82,4.17
	c3.71,2.8,7.34,5.88,10.81,9.04c7.19,6.55,13.49,13.83,19.42,21.52c2.93,3.8,5.77,7.74,8.34,11.81
	C348.36,290.81,348.06,290.82,347.76,290.86z M356.69,271.9C356.71,271.95,356.71,271.96,356.69,271.9L356.69,271.9z M357.54,273.4
	C357.46,273.3,357.49,273.33,357.54,273.4L357.54,273.4z M474.57,223.42c-0.39,1.57-1.03,3.07-1.88,4.16
	c-1.01,1.3-2.49,2.4-3.75,2.93c-1.81,0.77-3.29,0.93-5.14,0.91c-3.64-0.04-7.59-1.22-10.99-2.71c-7.98-3.5-15.55-8.32-22.45-13.61
	c-6.9-5.3-13.23-11.4-18.83-18.05c-1.42-1.68-2.98-3.23-4.4-4.92c-2.02-2.42-6.2,0.77-4.4,3.39c1.39,2.02,2.74,4.12,4.33,5.99
	c1.52,1.79,3.09,3.54,4.71,5.24c3.24,3.4,6.67,6.62,10.27,9.63c3.73,3.12,7.63,6.03,11.69,8.72c1.56,2.56,3.1,5.13,4.76,7.64
	c2.31,3.49,4.98,6.8,7.02,10.46c1.54,2.75,2.58,6.08,0.63,8.87c-1.48,2.12-4.15,3.31-6.61,3.97c-6.64,1.77-14.24,0.4-20.51-2.23
	c-6.91-2.89-12.92-7.49-18.16-12.79c-6.17-6.24-11.08-13.4-16.52-20.24c-0.93-1.17-2.91-1.09-3.98-0.24
	c-1.12,0.89-1.63,2.63-0.78,3.91c2.41,3.63,5.14,7.09,7.85,10.5c2.59,3.27,5.34,6.41,8.3,9.35c0.85,0.85,1.73,1.67,2.62,2.48
	c0.04,0.44,0.22,0.89,0.6,1.31c3.97,4.28,8.72,9.42,8.1,15.5c-0.22,2.14-1.23,4.35-3.18,5.39c-2.44,1.3-5.53,0.85-8.16,0.24
	c-10.76-2.51-20.4-9.41-26.52-18.43c-1.69-2.49-3.4-5.6-4.4-8.05c-0.58-1.44-1.09-2.9-1.52-4.39c-0.54-1.86-0.65-3.86-2.25-5.15
	c-1.25-1.01-3.15-1.04-4.04,0.52c-0.62,1.09-0.85,2.12-0.6,3.37c0.16,0.82,0.38,1.63,0.61,2.43c0.43,1.55,0.95,3.08,1.55,4.57
	c1.26,3.14,2.76,6.16,4.61,8.99c2.21,3.38,4.8,6.48,7.69,9.26c0.03,0.04,0.04,0.09,0.08,0.13c0.35,0.46,0.67,0.94,0.94,1.46
	c0.28,0.53,0.35,0.71,0.54,1.4c0.07,0.26,0.14,0.52,0.19,0.78c0.03,0.15,0.06,0.3,0.08,0.46c-0.02-0.1-0.03-0.41,0.01,0.06
	c0.05,0.62,0.07,1.23,0.04,1.85c-0.01,0.16-0.03,0.31-0.04,0.47c0,0.01-0.01,0.06-0.01,0.1c-0.02,0.11-0.09,0.51-0.11,0.6
	c-0.12,0.61-0.26,1.22-0.45,1.81c-0.08,0.24-0.17,0.48-0.26,0.72c-0.03,0.07-0.17,0.37-0.22,0.47c-0.28,0.55-0.6,1.06-0.95,1.56
	c-0.01,0.01-0.01,0.01-0.01,0.01c-0.08,0.09-0.15,0.18-0.23,0.26c-0.2,0.23-0.42,0.45-0.64,0.66c-0.08,0.07-0.35,0.3-0.44,0.38
	c-0.07,0.05-0.15,0.11-0.17,0.12c-0.16,0.11-0.32,0.21-0.49,0.31c-0.24,0.14-0.49,0.26-0.73,0.39c-0.02,0.01-0.02,0.01-0.04,0.02
	c-0.13,0.05-0.26,0.1-0.38,0.14c-0.26,0.09-0.52,0.16-0.79,0.23c-0.15,0.04-0.3,0.07-0.46,0.1c-0.05,0.01-0.28,0.04-0.39,0.06
	c-0.16,0.01-0.4,0.03-0.47,0.03c-0.31,0.01-0.62,0.01-0.94,0c-0.26-0.01-0.52-0.05-0.78-0.06c-0.18-0.03-0.37-0.06-0.55-0.1
	c-0.54-0.11-1.07-0.27-1.59-0.45c-0.12-0.04-0.25-0.09-0.37-0.14c-0.02-0.01-0.02-0.01-0.04-0.02c-0.28-0.14-0.57-0.28-0.84-0.43
	c-0.31-0.17-0.61-0.36-0.9-0.56c-0.1-0.07-0.19-0.14-0.29-0.2c-0.02-0.01-0.03-0.02-0.05-0.03c-0.01-0.01-0.01-0.01-0.02-0.03
	c-0.45-0.48-0.96-0.91-1.41-1.4c-0.01-0.01-0.01-0.01-0.02-0.02c-0.1-0.14-0.2-0.28-0.3-0.43c-0.19-0.29-0.37-0.6-0.53-0.91
	c-0.05-0.1-0.1-0.2-0.15-0.31c-0.01-0.03-0.02-0.04-0.03-0.08c-0.26-0.73-0.55-1.25-1.08-1.82c-0.18-0.19-0.39-0.34-0.61-0.46
	c-0.02-0.38-0.03-0.77-0.05-1.15c-0.29-7.5-0.71-15-1.15-22.49c-0.76-12.96-1.79-25.89-3.1-38.8c3.78-8.39,7.6-16.89,12.47-24.71
	c4.55-7.29,10.27-13.86,17.58-18.48c6.87-4.34,14.92-6.76,23.05-5.57c8.95,1.31,16.95,6.13,24.2,11.3
	c7.87,5.62,15.36,11.81,22.58,18.24c3.7,3.29,7.32,6.68,10.86,10.14c3.15,3.08,6.4,6.19,8.98,9.78c1.21,1.68,2.32,3.47,3.15,5.37
	c0.71,1.65,1.24,3.69,1.37,5.17C475.05,220.17,474.96,221.84,474.57,223.42z"/>
</svg>
