<?xml version="1.0" encoding="utf-8"?>
<!-- Generator: Adobe Illustrator 26.3.1, SVG Export Plug-In . SVG Version: 6.00 Build 0)  -->
<svg version="1.1" id="GESCHENK" xmlns="http://www.w3.org/2000/svg" xmlns:xlink="http://www.w3.org/1999/xlink" x="0px" y="0px"
	 viewBox="0 0 500.5 509" style="enable-background:new 0 0 500.5 509;" xml:space="preserve">
<style type="text/css">
	.st0{fill:#FFEED4;}
	.st1{fill:#FFC0E1;}
	.st2{fill:#211F1B;}
</style>
<g id="FARBE">
	<path class="st0" d="M394.8,227.8c-0.5-16.8-1.3-33.6-2.4-50.4c0-0.7-0.3-1.2-0.6-1.6c0.7-0.6,1.2-1.4,1.3-2.4
		c0.2-1.9-0.9-4-2.9-4.4c-3.6-0.8-7.7-0.6-11.4-0.8c-3.1-0.1-6.2-0.2-9.3-0.3c-3-0.1-6-0.1-9-0.2c-2.8-0.1-5.6,0.1-8.4,0.2
		c0.1-3.7,0.3-7.5,0.6-11.2c1-13.2,2.5-26.4,3.3-39.6c0.6-10.7,1.3-22.3-1.6-32.8c-2.1-7.5-7.1-14.5-15.6-14.8
		c-8.8-0.3-17.5,7.8-24.1,12.6c-10.4,7.7-20.7,16.1-29.6,25.5c-10.8,11.4-17.1,27.6-21,42.8c-2.7-1.8-5.7-3.3-9-4.2
		c-9.2-2.6-19.6-1.1-27.8,3.8c-1.2-7.2-2.9-14.3-5.6-21.3c-3.4-8.7-7.8-17-13.1-24.7c-8.5-12.3-19-23.3-30.9-32.3
		c-6.4-4.9-18.3-14-26.3-7.3c-5.3,4.5-8,12.3-10.2,18.6c-7.3,20.6-11.3,42.7-14.7,64.3c-1.4,8.8-2.7,17.7-3.4,26.7
		c-0.2,2.2-0.4,4.5-0.2,6.7c0.3,4.6,4.1,8.8,6.7,12.3c0.1,0.1,0.1,0.2,0.2,0.3c-11.5,8.5-22.6,17.4-34,26.1c-1.3,1-2,2.6-1.1,4.2
		c0,0.1,0.1,0.1,0.2,0.2c-1.6,35.4-1.7,70.7-1.9,106.1c-0.1,17.6-0.2,35.2-0.3,52.8c0,8.9-0.1,17.9-0.1,26.8
		c0,8.8-0.9,18.1,0.2,26.8c0.1,1,0.5,1.8,1.1,2.4c-2.4,0.4-2.2,3.9,0.3,4.1c33.9,2.8,68.1,3.2,102.1,3.9
		c33.8,0.7,67.5,1.3,101.3,2.1c19.2,0.5,38.5,1.6,57.7,1.2c0.7,0,1.4-0.2,1.9-0.4c0.8,0,1.5-0.4,2.2-0.9c3.3-2.9,6.1-6.6,9-9.9
		c2.7-3.1,5.5-6.3,8.2-9.4c5.7-6.5,11.2-13.1,16.8-19.7c1.3-1.5,0.6-3.4-0.6-4.2c1.4-14.6,1.3-29.5,1.7-44.1
		c0.4-14.8,0.7-29.7,0.8-44.5C395.8,287.1,395.7,257.4,394.8,227.8z M157.5,70.2c-0.1,0-0.1,0-0.2,0
		C157.3,70.2,157.4,70.2,157.5,70.2z"/>
	<path class="st1" d="M389.8,271.2c-2.6,2.4-5.3,4.9-7.9,7.3c0-8.1-0.1-16.2-0.1-24.2c-0.2-20.6-0.8-41.2-1.6-61.8
		c0-0.5-0.3-0.9-0.6-1.1c1.5-0.8,2.6-2.3,2.5-4.1c-0.1-2.4-2.2-5.2-4.9-4.9c-5,0.6-10.1,0.7-15.2,0.6c-3.2,0-6.3,0-9.5,0.2
		c-0.2-2.9-0.5-5.8-0.6-8.6c0-5.9,0.3-11.8,0.7-17.7c1-13.2,2.5-26.4,3.3-39.6c0.6-10.7,1.3-22.3-1.6-32.8
		c-2.1-7.5-7.1-14.5-15.6-14.8c-8.8-0.3-17.5,7.8-24.1,12.6c-10.4,7.7-20.7,16.1-29.6,25.5c-10.8,11.4-17.1,27.6-21,42.8
		c-2.7-1.8-5.7-3.3-9-4.2c-9.2-2.6-19.6-1.1-27.8,3.8c-1.2-7.2-2.9-14.3-5.6-21.3c-3.4-8.7-7.8-17-13.1-24.7
		c-8.5-12.3-19-23.3-30.9-32.3c-6.4-4.9-18.3-14-26.3-7.3c-5.3,4.5-8,12.3-10.2,18.6c-7.3,20.6-11.3,42.7-14.7,64.3
		c-1.4,8.8-2.7,17.7-3.4,26.7c-0.2,2.2-0.4,4.5-0.2,6.7c0.3,4.6,4.1,8.8,6.7,12.3c4.1,5.6,8.9,10.7,15.4,13.5
		c7.8,3.4,16.2,3,24.5,2.9c9.4-0.1,18.8-0.2,28.1-1.6c1.4-0.2,2.7-0.5,4.1-0.8c-1.2,1.3-2.5,2.7-3.8,3.9c-4.5,4.3-9,8.4-14.4,11.5
		c-1.2,0.7-1.7,2.4-1,3.6c0.7,1.1,1.8,1.4,3,1.1c-1.3,25.3-2.3,50.6-3,76c-7.3-0.4-14.6,0.1-21.9,0.4c-8,0.2-16,0.4-24.1,0.5
		c-13.6,0.2-27.3,0.2-40.9-0.2c-1.6-0.1-3.2,1.5-3.1,3.1c1.2,15.4,2.4,30.9,3.6,46.3c0.1,1.5,1.2,2.9,2.9,2.9
		c27.4-0.2,54.7-0.5,82.1-1.1c-0.3,13.1-0.6,26.3-0.9,39.4c-0.4,16.2-0.8,32.4-1.2,48.6c-0.1,2,1.7,3.6,3.6,3.6
		c21.1,0.9,42.2,1.7,63.3,2.6c3,0.1,4.1-2.8,3.3-5c0.4-0.6,0.7-1.4,0.7-2.3c0.3-28.9,1.1-57.7,2-86.6c32.7-0.4,65.4,1.8,98,0.5
		c1.3-0.1,2-1,2.2-2c0,0,0,0,0,0c0.1-0.1,0.1-0.1,0.1-0.1c0,0,0,0,0.1,0c0.7-0.5,1.4-1,2.1-1.5c1.8-1.2,3.7-2.4,5.5-3.5
		c1.8-1.1,3.6-2.3,5.3-3.5c0.3-0.2,0.6-0.5,1-0.7c0.3,10.2,0.5,20.4,0.7,30.6c0.3,18.1,0.6,36.3,0.6,54.4c0,1.8,2.4,2.9,3.7,1.5
		c2.3-2.5,4.7-5,7-7.5c2.4-2.5,4.7-4.1,4.7-7.6c0-18.1-0.7-36.3-0.8-54.5c-0.1-9.5-0.1-19.1-0.2-28.6c0.5,0,1-0.1,1.5-0.6
		c1.9-1.7,3.7-3.4,5.6-5.2c1-1,2-1.6,2.2-3c0.1-0.6,0.1-1.4,0.1-2c0.1-3.8,0.3-7.6,0.4-11.4c0.4-10.2,0.8-20.4,1.2-30.5
		c0.1-2.5,0.2-5,0.3-7.5C393.6,270.8,391.1,270,389.8,271.2z M254.6,283.1c0.7-19.9,0.7-39.8,0.5-59.7c1.2-0.7,2-1.8,2.5-3.2
		c0.3-1,0.5-2,0.8-3c0.5-1.9,1-3.9,1.5-5.8c0.9-3.3,1.7-6.6,2.5-9.9c2.3-1.2,4.4-2.7,6.1-4.4c4.5,5.2,9.7,9.1,16.3,11.5
		c6.3,2.3,13.1,3.3,19.7,4.6c12.2,2.4,26.5,2.9,37-4.8c1-0.7,1.9-1.6,2.8-2.4c3.1,0.5,6.3,0.9,9.4,1.4c2.8,0.4,5.6,0.7,8.5,0.9
		c0.7,28.1,1.7,56.1,2.6,84.2c-0.4-0.1-0.7-0.2-1.1-0.1c-0.6,0.1-1.1,0.4-1.6,0.7c-1.6,0.9-3.1,2-4.7,3c-1.3,0.9-2.6,1.8-4,2.5
		c-33.2,0.7-66.4,0.9-99.6,2.2C254.2,294.7,254.4,288.9,254.6,283.1z"/>
</g>
<g id="OL">
	<path class="st2" d="M404.9,217.4c-0.2-8.3-0.5-16.6-0.8-24.9c-0.4-8.4-1-16.8-1.5-25.2c0-0.2,0-0.4-0.1-0.6c0.4-0.5,0.7-1,1.1-1.4
		c1.6-2.1,0.4-5.6-1.8-6.8c-1.6-0.9-3.3-0.8-4.6-0.1c-1.2,0-2.3,0-3.4-0.1c-1.7-0.1-3.4-0.2-5.1-0.2c-3-0.1-6.1-0.2-9.1-0.3
		c-3-0.1-5.9-0.1-8.9-0.2c-2.8-0.1-5.6,0.1-8.5,0.2c0.2-4.5,0.4-9,0.8-13.5c1-12.7,2.4-25.3,3.2-38c0.6-10.5,1.1-21.8-1.6-32.1
		c-1-3.9-2.8-7.8-5.8-10.6c-2.8-2.7-6.8-4.4-10.7-4.2c-3.9,0.1-7.8,2.2-11.1,4.2c-4.7,2.8-9.1,6.1-13.4,9.4
		c-9.2,6.9-18.2,14.4-26.3,22.5c-3.3,3.3-6,6.7-8.4,10.7c-4.9,7.9-9,16.4-12,25.2c-1,2.9-1.8,5.9-2.5,8.8c-2.8-1.8-5.9-3.2-9.1-4.1
		c-9.1-2.5-19.4-1.1-27.6,3.7c-0.3-2.3-0.7-4.7-1.2-7c-1-4.5-2.5-9-4.1-13.3c-3.4-8.9-7.8-17.3-13.2-25.2
		c-8.2-12-18.4-22.8-29.8-31.7c-5.2-4.1-11.1-8.4-17.6-10.2c-2.1-0.5-4.3-0.9-6.4-0.3c-1.5,0.4-2.8,1.3-4,2.4
		c-2.3,2-3.9,4.8-5.3,7.4c-1.9,3.8-3.5,7.7-4.9,11.7c-3.4,9.7-5.9,19.8-8.1,29.8c-2.4,10.8-4.4,21.6-6.1,32.5
		c-1.4,8.8-2.7,17.7-3.5,26.6c-0.2,2.4-0.4,4.8-0.4,7.3c0,0.9,0.1,1.9,0.3,2.7c0.3,1.2,1.2,2.3,1.9,3.4c1,1.6,2,3.2,3.1,4.8
		c0.5,0.8,1.1,1.6,1.7,2.3c-11.7,8.6-22.6,17.4-34,26.1c-0.8,0.6-1.4,1.5-1.5,2.4c-1.3,0.9-1.2,3.2,0.5,3.8
		c-0.3,6.3-0.7,12.6-0.8,19c-0.1,6.8-0.3,13.7-0.4,20.5c-0.3,13.8-0.4,27.6-0.5,41.5c-0.2,27.7-0.3,55.4-0.4,83.2
		c0,7.7,0,15.5-0.1,23.2c0,3.8,0,7.7,0,11.5c0,4-0.3,8,0.2,12c0.1,0.9,0.4,1.7,1,2.4c-2.2,0.5-2.1,3.9,0.5,4.1c28.9,2.4,58,3,87,3.6
		c0.5,0.2,1,0.4,1.6,0.4c0.5,0,1-0.1,1.5-0.3c4,0.1,8.1,0.2,12.1,0.2c33.9,0.7,67.8,1.3,101.6,2.1c9.6,0.2,19.1,0.5,28.7,0.7
		c9.5,0.2,19.1,0.7,28.7,0.5c0.6,0,1.2-0.2,1.8-0.4c0.8,0,1.6-0.3,2.3-0.9c3.3-2.8,6.1-6.5,8.9-9.8c2.8-3.2,5.5-6.3,8.3-9.5
		c5.7-6.5,11.2-13.1,16.8-19.7c1-1.1,1.1-2.8,0-3.9c-0.2-0.2-0.4-0.3-0.6-0.4c0.7-7.3,0.7-14.7,1-22c0.3-7.5,0.5-15,0.7-22.4
		c0.4-14.8,0.7-29.6,0.8-44.4C405.9,276.8,405.8,247.1,404.9,217.4z M372.8,332.5c-0.3,0.2-0.6,0.5-0.9,0.7
		c-0.8,0.6-1.6,1.2-2.4,1.8c-0.6,0.4-1.1,0.9-1.7,1.3c0-15.1,0-30.3,0-45.4c0.5-0.3,0.9-0.6,1.4-0.9c1.6-1,3.2-2,4.8-3
		c0.3-0.2,0.6-0.4,1-0.6c0,0,0.1-0.1,0.1-0.1c0.4,11.6,0.7,23.3,1.1,34.9c0.1,2.7,0.1,5.5,0.2,8.2c-0.8,0.9-1.8,1.7-2.7,2.4
		c-0.2,0.1-0.3,0.3-0.5,0.4C373.1,332.3,372.9,332.5,372.8,332.5z M152.4,195c6.4,3.6,13.7,4.4,20.9,4.3c8.2-0.1,16.3,0,24.5-0.6
		c4.8-0.3,9.6-0.8,14.3-1.9c-1.3,1.4-2.6,2.7-3.9,4c-3.3,3.1-6.6,6.1-10.2,8.8c-12-0.1-24-0.1-36.1,0c-15.7,0.1-31.4,0.1-47.1,1
		c10.2-6.9,20.3-14.2,30.5-21.2C147.4,191.6,149.8,193.5,152.4,195z M153.5,185.9c0.1,0.1,0.3,0.3,0.3,0.3
		C153.8,186.2,153.6,186.1,153.5,185.9z M229.6,178.4C229.6,178.6,229.6,178.9,229.6,178.4L229.6,178.4z M130.5,216.2
		c8.4,0.2,16.8,0.2,25.1,0.2c12.6,0.1,25.3,0.2,37.9,0.3c0.6,0.5,1.5,0.6,2.3,0.4c-0.2,2.9-0.4,5.8-0.7,8.7
		c-0.3,3.6-0.4,7.2-0.6,10.9c-0.3,7.2-0.5,14.3-0.7,21.5c-0.3,11.5-0.6,23-0.9,34.5c-23.6,1.1-47.3,1.3-70.9,1.5
		c-3.6,0-7.3,0.2-10.9,0.3c0-11.5-0.1-23-0.2-34.4c-0.1-7.7-0.2-15.5-0.3-23.2c-0.1-7.1-0.4-14.1-0.7-21.2
		C116.7,215.9,123.6,216.1,130.5,216.2z M111,299.5c3,0.3,6.1,0.5,9.1,0.7c5.5,0.2,11,0.4,16.6,0.4c12.4,0.1,24.8,0,37.2-0.4
		c6.3-0.2,12.5-0.4,18.8-0.7c0,0.3,0,0.7,0,1c-0.4,13.2-0.7,26.3-1,39.5c-2.2-0.4-4.5-0.3-6.8-0.2c-2.7,0-5.3,0.1-8,0.1
		c-5.4,0.1-10.9,0.1-16.3,0.2c-11,0.1-22,0.3-33,0.5c-5.5,0.1-11.1,0.4-16.6,0.7C111,327.4,111,313.4,111,299.5z M213.6,206.5
		c2.4-2.1,4.6-4.4,6.8-6.7c1.1-1.2,2.2-2.3,3.2-3.5c0.6-0.6,1.1-1.2,1.7-1.8c1.1-1.3,1.5-2.4,1.6-4.1c0.6,0.3,1.1,0.6,1.8,0.7
		c0.9,0.2,1.9,0.3,2.9,0.5c1.8,0.3,3.6,0.7,5.4,1.1c3.8,0.8,7.6,1.4,11.5,1.9c4.9,0.6,10,0.8,14.8,0c-0.4,1.5-0.9,2.9-1.3,4.4
		c-0.5,1.9-1.1,3.9-1.6,5.8c-0.3,1-0.6,2-0.8,3c-0.2,0.8-0.2,1.6-0.1,2.4c-15.6-0.2-31.2-0.3-46.8-0.4c-1,0-2,0-3,0
		C211.1,208.7,212.4,207.7,213.6,206.5z M278.6,187c4.7,5.5,10.6,9.5,17.6,11.8c3.2,1,6.5,1.7,9.8,2.3c3.5,0.7,7,1.5,10.5,2.1
		c12.6,2.2,26.8,2.1,37-6.6c0.4-0.3,0.7-0.6,1.1-1c3.1,0.5,6.2,0.9,9.3,1.4c1.4,0.2,2.8,0.4,4.3,0.6c-1.3,2-2.6,4.1-3.9,6.1
		c-1.6,2.7-3.3,5.4-4.9,8.1c-7.2-0.3-14.4-0.4-21.6-0.5c-8.1-0.2-16.3-0.3-24.4-0.5c-15.2-0.3-30.5-0.5-45.7-0.7
		c0-0.1,0.1-0.2,0.1-0.2c0.3-1,0.5-2,0.8-3c0.5-1.9,1-3.9,1.5-5.8c0.9-3.3,1.7-6.6,2.4-9.8C274.8,190.2,276.8,188.7,278.6,187z
		 M307.2,218.5c16.2,0.4,32.4,0.7,48.6,1.1c0.3,0,0.7,0,1,0c0.9,0.9,2.5,1.3,3.5,0c0.3,0,0.6,0,0.9,0c-0.2,22.9-0.4,45.8-0.6,68.6
		c-25.2,0.5-50.4,0.8-75.5,1.4c-6.9,0.2-13.9,0.5-20.8,0.7c0.2-5.8,0.4-11.6,0.6-17.4c0.3-8.6,0.5-17.2,0.7-25.8
		c0.2-9.3,0.1-18.5-0.1-27.8c0-0.6,0-1.2,0-1.8C279.3,217.9,293.2,218.2,307.2,218.5z M263.1,320c0.3-8.7,0.6-17.4,0.9-26
		c26.2,0,52.4-0.2,78.5-0.5c6-0.1,11.9-0.2,17.9-0.3c0,1.4,0,2.9,0,4.3c-0.2,14.5-0.4,29-0.5,43.5c-25.6,0.9-51.2-0.5-76.7-0.1
		c-6.9,0.1-13.8,0.4-20.8,0.8C262.7,334.5,262.9,327.3,263.1,320z M373.6,237.2c0.3,13.8,0.9,27.6,1.3,41.4c0,1.2,0.1,2.4,0.1,3.7
		c-0.3-0.1-0.7-0.2-1.1-0.1c-0.6,0.1-1.1,0.4-1.6,0.7c-1.6,0.9-3,1.9-4.5,2.9c0-8.7-0.1-17.4-0.1-26.1c-0.1-15.6-0.6-31.1-1.3-46.6
		c0-0.1,0-0.2,0-0.3c0.9-1,1.8-2,2.7-3c1.4-1.5,2.7-3.1,4-4.7C373.1,215.7,373.3,226.4,373.6,237.2z M374,189.2
		c-3-0.3-6.1-0.4-9.1-0.5c-1.7,0-3.3-0.1-5-0.1c1.4-2.7,2.3-5.7,2.7-8.6c0.8,0.1,1.5,0.3,2.3,0.4c2.1,0.4,4.3,0.8,6.5,1.1
		c2.6,0.3,5.1,0.6,7.6,0.7C377.3,184.5,375.7,186.9,374,189.2z M392.4,322.8c0.5,0,1-0.2,1.5-0.6c1.1-1,2.1-1.9,3.2-2.9
		c-0.1,8.8-0.3,17.5-0.5,26.3c-0.2,8.3-0.4,16.6-0.6,24.9c-0.2,8.4-0.8,16.8-0.7,25.2c0,1.2,0.6,2.3,1.5,3.1
		c-1.1,1.2-2.3,2.4-3.4,3.6C392.7,375.8,392.5,349.3,392.4,322.8z M397.1,313.4c-1.6,1.5-3.2,3-4.8,4.4c-0.1-15.1-0.1-30.2-0.2-45.3
		c0.5,0.1,1.1-0.1,1.6-0.5c1.2-1.1,2.5-2.3,3.7-3.4C397.4,283.6,397.3,298.5,397.1,313.4z M397.3,212.2c0.1,14.8,0.2,29.6,0.2,44.4
		c0,2.4,0,4.9,0,7.3c-1.8,1.7-3.5,3.3-5.3,5c-0.1-12.2-0.1-24.3-0.3-36.5c-0.2-16.5-0.5-33-1.5-49.4c1.3-1.8,2.7-3.6,4-5.4
		c0.9-1.2,1.8-2.4,2.7-3.7C397.1,186.7,397.2,199.4,397.3,212.2z M379.5,165.7c3,0.2,5.9,0.3,8.9,0.5c0.7,0,1.4,0.1,2,0.1
		c-1.5,2-2.9,4-4.4,6c-4.6,0.5-9.3,0.5-13.9,0.4c-3.2,0-6.4,0-9.6,0.1c-0.1-1-0.2-2-0.3-3c-0.1-2-0.1-4-0.1-6
		c2.8,0.4,5.6,0.9,8.4,1.1C373.5,165.3,376.5,165.6,379.5,165.7z M286.3,120.5c2-4,4.2-7.9,6.6-11.7c1-1.5,2-3.1,3.1-4.6
		c0.1-0.1,0.1-0.2,0.2-0.3c0.2-0.3,0.5-0.6,0.7-0.9c2.8-3.2,5.9-6,9.1-8.8c4.2-3.8,8.6-7.4,13.1-10.9c2-1.6,4.4-3.4,6.8-5.1
		c2.3-1.7,4.6-3.3,7-4.8c2.1-1.3,4.3-2.6,6.6-3.8c0.5-0.3,1-0.5,1.5-0.8c0.2-0.1,0.5-0.2,0.7-0.3c0,0,0,0,0,0c0,0,0,0,0,0
		c0.3-0.1,0.5-0.2,0.8-0.4c0.4-0.2,0.8-0.4,1.3-0.6c0.2-0.1,0.4-0.2,0.7-0.3c0,0,0,0,0,0c0.8-0.3,1.5-0.6,2.3-0.8
		c0.3-0.1,0.7-0.2,1-0.2c0,0,0,0,0,0c0,0,0,0,0.1,0c0.3,0,0.6,0,0.9,0c0.1,0,0.3,0,0.4,0c0,0,0.1,0,0.1,0c0.7,0.1,1.4,0.4,2.1,0.6
		c0.1,0.1,0.3,0.1,0.4,0.2c0.3,0.2,0.7,0.4,1,0.6c0,0,0,0,0,0c0,0,0.1,0.1,0.2,0.2c0.1,0,0.1,0.1,0.2,0.1c0,0-0.1,0-0.1,0
		c0.3,0.2,0.5,0.5,0.8,0.7c0.2,0.2,0.4,0.5,0.7,0.7c0.1,0.2,0.2,0.4,0.4,0.5c0.5,0.7,0.8,1.4,1.2,2.2c0,0.1,0,0.1,0.1,0.2
		c0,0,0.1,0.1,0.1,0.3c0,0,0,0.1,0,0.1c0,0,0,0,0,0c0,0,0,0,0,0c0.2,0.4,0.3,0.8,0.5,1.3c0.3,0.9,0.6,1.8,0.8,2.8
		c0.3,1,0.5,2.1,0.7,3.1c0.1,0.5,0.2,1,0.2,1.5c0,0,0,0.1,0,0.1c0,0,0,0,0,0c0,0.3,0.1,0.6,0.1,0.9c0.6,5.1,0.6,10.3,0.5,15.5
		c-0.3,12.1-1.6,24.2-2.8,36.3c-1.1,11.4-2.2,22.8-1.8,34.3c0.1,3.6,0.7,7.1,0.4,10.6c0,0.1,0,0.2-0.1,0.4c-0.1,0.4-0.2,0.8-0.3,1.2
		c-0.2,0.8-0.4,1.5-0.7,2.3c-0.1,0.3-0.4,0.7-0.4,1.1c-0.1,0.2-0.2,0.4-0.3,0.5c-0.4,0.8-0.8,1.5-1.3,2.3c-0.2,0.3-0.5,0.7-0.7,1
		c0,0,0,0,0,0c0,0,0,0,0,0c0,0,0,0-0.1,0.1c-0.2,0.2-0.2,0.3-0.2,0.3c-0.1,0.1-0.1,0.2-0.2,0.3c-0.6,0.8-1.3,1.5-2.1,2.1
		c-0.3,0.3-0.7,0.6-1,0.9c-0.2,0.2-0.5,0.4-0.7,0.5c-0.9,0.6-1.8,1.2-2.8,1.7c-0.5,0.2-1,0.5-1.4,0.7c-0.1,0-0.1,0-0.2,0.1
		c-0.3,0.1-0.7,0.3-1,0.4c-1.3,0.4-2.5,0.8-3.8,1.1c-0.6,0.1-1.3,0.3-1.9,0.4c-0.3,0-0.6,0.1-0.8,0.1c-0.2,0-0.5,0.1-0.7,0.1
		c-1.6,0.2-3.1,0.2-4.7,0.2c-1.8,0-3.6-0.1-5.4-0.2c-0.9-0.1-1.9-0.2-2.8-0.3c0,0-0.1,0-0.2,0c-0.2,0-0.4-0.1-0.5-0.1
		c-0.6-0.1-1.2-0.2-1.8-0.3c-3.4-0.6-6.8-1.4-10.3-2.1c-3.2-0.6-6.4-1.2-9.4-2.2c-0.7-0.2-1.4-0.5-2.2-0.7c-0.4-0.1-0.8-0.3-1.2-0.5
		c0,0,0,0-0.1,0c-0.1-0.1-0.5-0.2-0.5-0.2c-1.6-0.7-3.1-1.5-4.5-2.5c-0.4-0.3-0.8-0.5-1.2-0.8c-0.1-0.1-0.3-0.2-0.4-0.3
		c0,0-0.1,0-0.1-0.1c-0.7-0.6-1.4-1.2-2.1-1.9c-1.4-1.3-2.5-2.7-3.5-4c0.1-0.2,0.2-0.3,0.3-0.5c1.5-2.9,2.6-6.1,3.1-9.4
		c10.3-1,20.7-1.6,30.8-3.9c3.4-0.8,2.7-6.3-0.8-6.1c-9.9,0.4-19.7,2.3-29.5,3.9c0-0.5,0-1-0.1-1.6c0-0.3-0.1-0.7-0.1-1
		c7.6-10.6,14.8-21,24.7-29.6c0.3-0.3,0.6-0.5,0.9-0.8c0.1-0.1,0.3-0.2,0.4-0.3c0.1-0.1,0.1-0.1,0.1-0.1c0,0,0.1,0,0.1-0.1
		c0.7-0.5,1.3-1,2-1.4c1.4-0.9,2.8-1.9,4.2-2.7c2.8-1.6,0.9-5.9-2.2-5.2c-6.7,1.7-12,6.5-16.6,11.5c-4.9,5.4-9.2,11.3-13.2,17.3
		c-0.8,1.2-1.6,2.4-2.4,3.6c-1.1-2.9-2.6-5.7-4.6-8.3c-0.9-1.2-2-2.3-3.2-3.3C279.8,135.1,282.7,127.6,286.3,120.5z M240.7,148.5
		c0.5-0.3,1-0.7,1.6-1c0.5-0.3,1.1-0.6,1.6-0.9c0.3-0.1,0.6-0.3,0.9-0.4c0,0,0,0,0,0c0.1-0.1,0.3-0.1,0.4-0.2
		c1.2-0.4,2.3-0.8,3.5-1.1c0.7-0.2,1.3-0.3,2-0.4c0.3-0.1,0.6-0.1,0.9-0.2c0.2,0,0.3,0,0.5-0.1c1.2-0.1,2.5-0.2,3.7-0.2
		c0.7,0,1.3,0,2,0.1c0.3,0,0.6,0,0.8,0.1c0.1,0,0.2,0,0.2,0c0,0,0,0,0,0c1.3,0.2,2.6,0.5,3.9,0.9c0.5,0.2,1.1,0.3,1.6,0.5
		c0.3,0.1,0.6,0.2,0.9,0.3c0,0,0,0,0,0c0.1,0.1,0.3,0.1,0.4,0.2c1.1,0.5,2.2,1.1,3.2,1.8c0.3,0.2,0.6,0.4,0.8,0.6
		c0.1,0,0.2,0.1,0.3,0.2c0.6,0.4,1.1,0.9,1.6,1.4c0.4,0.4,0.9,0.8,1.3,1.3c0.2,0.2,0.3,0.4,0.5,0.6c0.1,0.1,0.1,0.2,0.2,0.2
		c0.3,0.4,0.3,0.3-0.2-0.2c0.3,0.1,0.9,1.2,1,1.5c0.4,0.6,0.7,1.1,1,1.7c0.1,0.2,0.8,1.4,0.7,1.5c-0.1-0.2-0.2-0.4-0.2-0.6
		c0.1,0.2,0.2,0.4,0.2,0.6c0.1,0.3,0.2,0.6,0.3,0.9c0.4,1.2,0.7,2.4,0.9,3.6c0.1,0.3,0.1,0.6,0.2,0.9c0,0,0,0,0,0
		c0.1,0.6,0.1,1.2,0.1,1.8c0.1,1.2,0,2.5-0.1,3.7c0,0.1-0.1,0.8-0.1,0.9c-0.1,0.5-0.2,1-0.3,1.5c-0.3,1.3-0.7,2.6-1.1,3.8
		c0,0,0,0,0,0c0,0,0,0,0,0c0,0,0,0.1-0.1,0.2c-0.1,0.2-0.1,0.3-0.1,0.2c0,0.1-0.1,0.1-0.1,0.1c-0.3,0.5-0.5,1.1-0.8,1.6
		c-0.3,0.5-0.6,1-0.9,1.5c-0.2,0.3-0.3,0.5-0.5,0.7c0,0,0,0,0,0c-0.8,0.9-1.6,1.8-2.5,2.6c0,0-0.3,0.2-0.5,0.4
		c-0.1,0-0.1,0.1-0.3,0.2c-0.5,0.4-1.1,0.7-1.6,1.1c-0.7,0.4-1.4,0.8-2.2,1.1c-0.2,0.1-0.6,0.2-0.7,0.3c-0.4,0.1-0.7,0.3-1.1,0.4
		c-0.9,0.3-1.8,0.5-2.7,0.7c-0.4,0.1-0.8,0.2-1.2,0.2c-0.2,0-0.3,0.1-0.5,0.1c-0.1,0-0.1,0-0.2,0c-3.5,0.3-7,0.2-10.5-0.2
		c-0.3,0-0.6-0.1-0.9-0.1c0,0-1.1-0.1-1.2-0.2c-1-0.1-2-0.3-2.9-0.5c-1.8-0.3-3.6-0.7-5.4-1c-1.8-0.4-3.6-0.7-5.4-1.1
		c-1-0.2-1.9-0.4-2.9-0.5c-0.3,0-0.6-0.1-0.9-0.1c-0.1-0.5-0.3-0.9-0.4-1.4c-0.1-0.7-0.3-1.4-0.4-2c0,0,0-0.1,0-0.1
		c0-0.5-0.1-0.9-0.1-1.4c-0.2-2.8-0.2-5.6,0-8.4c0-0.4,0.1-0.7,0.1-1.1c0-0.1,0-0.1,0-0.1c0,0,0-0.1,0-0.1c0.1-0.6,0.2-1.2,0.3-1.7
		c0.3-1.5,0.7-3,1.2-4.4c0.2-0.4,0.3-0.9,0.5-1.3c0.1-0.2,0.2-0.5,0.2-0.5c0.1-0.3,0.3-0.6,0.5-0.9c0.6-1.3,1.3-2.5,2.1-3.6
		c0.2-0.3,0.4-0.6,0.6-0.9c0,0,0.1-0.1,0.1-0.1c0,0,0-0.1,0.1-0.1c0.5-0.5,0.9-1.1,1.4-1.6c0.9-1,1.8-1.8,2.8-2.6
		c0.1-0.1,0.3-0.3,0.4-0.3C240.2,148.9,240.4,148.7,240.7,148.5z M171.9,61.2c0.1,0,0.2,0.1,0.2,0.1
		C172.7,61.5,172.1,61.2,171.9,61.2z M141.4,166.1c0.2-3.2,0.5-6.4,0.9-9.6c0.2-2,0.5-4,0.8-6.1c0-0.3,0.1-0.5,0.1-0.8
		c0,0,0,0,0,0.1c0.1-0.6,0.2-1.1,0.2-1.7c0.2-1.2,0.3-2.3,0.5-3.5c1.5-10.3,3.3-20.6,5.4-30.8c2.1-10.2,4.4-20.5,7.4-30.5
		c1.3-4.2,2.6-8.3,4.2-12.4c0.1-0.2,0.2-0.4,0.3-0.7c0-0.1,0.1-0.2,0.1-0.3c0,0,0-0.1,0.1-0.1c0.1-0.2,0.2-0.5,0.3-0.7
		c0.4-0.8,0.7-1.6,1.1-2.4c0.7-1.4,1.4-2.7,2.3-4c0.2-0.3,0.3-0.5,0.5-0.8c0,0,0-0.1,0.1-0.1c0.4-0.4,0.7-0.8,1.1-1.2
		c0.1-0.1,0.2-0.2,0.3-0.3c0,0,0.1,0,0.1-0.1c0.1-0.1,0.2-0.1,0.3-0.2c0,0,0.1,0,0.1,0c0.2,0,0.5,0,0.7,0c0.6,0.1,1.1,0.2,1.7,0.4
		c0.6,0.2,1.1,0.4,1.7,0.6c0.1,0,0.1,0.1,0.2,0.1c0.1,0.2,0.9,0.4,1.1,0.5c1.4,0.7,2.7,1.4,4,2.2c1.4,0.9,2.8,1.8,4.1,2.7
		c0.7,0.5,1.3,0.9,2,1.4c0.1,0.1,0.6,0.4,0.7,0.5c0.3,0.2,0.6,0.5,1,0.8c2.8,2.2,5.4,4.5,8,6.9c4.3,4,8.5,8.2,12.3,12.7
		c0.7,0.9,1.4,1.7,2.1,2.6c0.3,0.4,0.6,0.8,0.9,1.2c0,0.1,0.1,0.1,0.1,0.1c0,0,0,0,0.1,0.1c0.2,0.3,0.4,0.6,0.6,0.8
		c1.4,1.8,2.7,3.6,3.9,5.5c2.5,3.7,4.8,7.6,7,11.6c1.1,2,2.1,4,3.1,6c0.5,0.9,0.9,1.9,1.3,2.9c0.6,1.2,1,2.4,1.4,3.3
		c1.6,3.7,3.1,8,4.6,12.1c1,2.7,2,5.4,2.8,8.2c-1,0.9-2,1.8-2.9,2.8c-2.4,2.7-4.4,5.8-5.9,9.2c-0.5-0.8-1.1-1.5-1.6-2.3
		c-1.2-1.7-2.5-3.3-3.8-4.9c-2.2-2.6-4.6-5.1-7.1-7.4c-4.9-4.6-10.3-8.5-15.9-12.1c-3.7-2.4-7.5-4.8-11.2-7.3
		c-1-0.7-2.3,0.9-1.3,1.7c10.6,8.8,21.7,17.3,30.2,28.2c1,1.3,2.4,3.1,3.5,4.7c0.6,0.9,1.2,1.7,1.8,2.6c0.9,1.2,1.6,2.6,2.9,3.4
		c0.1,0.1,0.2,0.1,0.3,0.2c-0.1,0.5-0.2,1-0.3,1.4c0,0.3-0.1,0.5-0.1,0.8c-0.8,0.3-1.6,0.6-2.4,0.9c-1.6,0.7-3.3,1.3-4.9,1.8
		c-3.5,1.2-7.1,2.2-10.8,2.9c-7.1,1.3-14.5,1.6-21.7,0.8c-2.5-0.3-3.1,3.9-0.6,4.4c7.8,1.6,15.8,1.9,23.7,0.8
		c3.8-0.5,7.5-1.4,11.1-2.5c1.7-0.5,3.4-1.2,5-1.9c0,0.6,0.1,1.2,0.1,1.8c0.4,3.1,1.2,6,2.5,8.8c-0.5,0.2-1,0.5-1.3,0.9
		c-0.4,0.5-0.9,1-1.4,1.4c-0.2,0.1-0.9,0.6-0.4,0.3c0.5-0.3-0.4,0.3-0.6,0.4c-0.6,0.4-1.2,0.8-1.8,1.1c-0.3,0.2-0.6,0.3-0.9,0.4
		c-0.2,0.1-0.5,0.2-0.7,0.3c-3,1.2-6.2,2-9.4,2.5c-0.8,0.1-1.7,0.3-2.5,0.4c0,0,0,0,0,0c-0.2,0-0.5,0.1-0.7,0.1
		c-0.5,0.1-1.1,0.1-1.6,0.2c-1.9,0.2-3.9,0.4-5.9,0.5c-4,0.2-8,0.3-12.1,0.4c-3.9,0-7.8,0.1-11.6,0.1c-1.9,0-3.8,0-5.7-0.2
		c-0.4,0-0.8-0.1-1.1-0.1c-0.1,0-0.2,0-0.2,0c-0.1,0-0.1,0-0.2,0c-0.8-0.1-1.6-0.3-2.4-0.4c-1.5-0.3-2.9-0.8-4.3-1.3
		c0,0-0.1,0-0.1,0c0,0-0.1,0-0.1-0.1c-0.3-0.1-0.6-0.3-0.8-0.4c-0.7-0.3-1.3-0.7-1.9-1.1c-0.6-0.3-1.1-0.7-1.6-1.1
		c-0.1-0.1-0.3-0.2-0.4-0.3c-0.1-0.1-0.1-0.1-0.2-0.1c-0.2-0.2-0.5-0.5-0.6-0.5c-1.1-1-2.1-2-3.1-3.1c-0.5-0.5-0.9-1.1-1.4-1.6
		c-0.2-0.2-0.4-0.5-0.6-0.7c0.2,0.3-0.4-0.5-0.5-0.7c-1-1.4-2-2.8-2.9-4.3c-1-1.6-2-3.2-3-4.8c0-0.3,0-0.6,0-0.9
		C141.2,168.2,141.3,167.1,141.4,166.1z M109.7,428.3c0.4-0.6,0.6-1.3,0.7-2.1c0.4-3.5,0.3-7,0.3-10.5c0-3.5,0-7,0-10.5
		c0-6.8,0-13.7,0.1-20.5c0-13.2,0.1-26.5,0.1-39.7c21.3,1.1,42.5,1.2,63.8,1.5c3,0,6.1,0.1,9.1,0.1c2.5,0,5.1,0.2,7.6-0.2
		c-0.3,12.7-0.6,25.4-0.9,38c-0.4,14.6-0.7,29.1-1.1,43.7c-9.2-0.1-18.5-0.2-27.7-0.3C144.4,427.6,127,427.6,109.7,428.3z
		 M196.8,428.2c0.5-26.9,1.3-53.9,1.9-80.8c0.7-27.9,1.3-55.9,1.9-83.8c0.2-8,0.4-15.9,0.4-23.9c0-4.1,0.1-8.2,0-12.3
		c-0.1-3.5-0.3-7-0.3-10.5c1.9,0,3.8,0,5.7,0c16.9,0.2,33.8,0.4,50.8,0.7c1.2,0,2.4,0,3.6,0.1c-0.7,7.7-1.5,15.3-2,23
		c-0.5,8.7-1,17.5-1.4,26.2c-0.6,15.9-1.2,31.8-1.8,47.7c-0.5,14-1,28-1.5,42c-0.4,12.5-0.8,24.9-1.1,37.4
		c-0.3,11.3-0.5,22.6-0.7,33.9c0,0.5,0,0.9,0,1.4C233.8,428.8,215.3,428.4,196.8,428.2z M314.5,430.2c-17-0.2-34.1-0.5-51.1-0.8
		c-1,0-2,0-3-0.1c0.1-10.3,0.3-20.7,0.5-31c0.3-12.3,0.6-24.6,0.9-36.9c0.2-5.4,0.3-10.8,0.5-16.2c12.6-0.2,25.2,0.2,37.8,0.4
		c12.9,0.2,25.8,0.5,38.8,0.5c7,0,14-0.1,21-0.4c-0.1,12.8-0.2,25.5-0.3,38.3c0,7.9,0,15.7,0,23.6c0,7.7-0.2,15.4,0.2,23
		c0,0,0,0,0,0.1c-6.6-0.2-13.3-0.2-19.9-0.2C331.5,430.4,323,430.3,314.5,430.2z M368.6,429.4c0-6.5-0.3-13-0.4-19.5
		c-0.1-6.9-0.2-13.9-0.2-20.8c-0.1-14.3-0.1-28.7-0.1-43c0-1.7,0-3.4,0-5.1c1.4-1,2.8-2,4.2-3c1.5-1.1,3-2.2,4.4-3.3
		c0,0,0.1,0,0.1-0.1c0.3,10.4,0.5,20.7,0.7,31.1c0.3,15.8,0.5,31.7,0.6,47.5c0,1.9,0,3.8,0.2,5.7c-1.5,1.6-2.9,3.3-4.4,4.9
		C372,425.7,370.3,427.5,368.6,429.4z M382.4,414.2c0-2.4-0.1-4.7-0.1-7.1c0-4-0.1-8.1-0.1-12.1c-0.1-7.8-0.2-15.7-0.3-23.5
		c-0.3-14.9-0.6-29.9-1-44.8c-0.4-14.3-0.9-28.6-1.3-42.9c-0.5-13.8-0.9-27.6-1.4-41.4c-0.5-13.7-1.2-27.5-1.8-41.2
		c0-0.1,0-0.1,0-0.2c0.4-0.5,0.8-1,1.2-1.5c3.4-4.1,6.6-8.3,9.8-12.6c-0.3,28,0.2,56,0.4,84c0.1,28.9,0.2,57.8,0.5,86.7
		c0.2,16.5,0.4,32.9,0.8,49.4C386.8,409.3,384.6,411.7,382.4,414.2z"/>
	<path class="st2" d="M276.3,174.2c0-0.1,0-0.1,0.1-0.2c-0.1,0.1-0.1,0.3-0.2,0.4C276.2,174.3,276.3,174.2,276.3,174.2z"/>
	<path class="st2" d="M143.1,149.7c0,0,0,0.1,0,0.1C143,150.5,143,150.2,143.1,149.7z"/>
	<path class="st2" d="M351.1,188.3c0.1-0.1,0.2-0.3,0.3-0.3c0,0,0,0,0,0C351.2,188.1,351.1,188.3,351.1,188.3z"/>
	<path class="st2" d="M356.4,72.8C356.4,72.8,356.4,72.8,356.4,72.8c-0.1-0.1-0.1-0.3-0.2-0.4C356.1,72.4,356.2,72.6,356.4,72.8z"/>
	<path class="st2" d="M353.1,68C353.1,68,353.1,68,353.1,68C353.1,68,353.1,68,353.1,68c-0.1-0.1-0.2-0.2-0.3-0.2
		C352.8,67.8,352.9,67.9,353.1,68z"/>
</g>
</svg>
