<?xml version="1.0" encoding="utf-8"?>
<!-- Generator: Adobe Illustrator 26.3.1, SVG Export Plug-In . SVG Version: 6.00 Build 0)  -->
<svg version="1.1" id="Sonne" xmlns="http://www.w3.org/2000/svg" xmlns:xlink="http://www.w3.org/1999/xlink" x="0px" y="0px"
	 viewBox="0 0 500.5 509" style="enable-background:new 0 0 500.5 509;" xml:space="preserve">
<style type="text/css">
	.st0{fill:#F1DCA0;}
	.st1{fill:#E9AD99;}
	.st2{fill:#211F1B;}
</style>
<g id="Farbe">
	<g>
		<path class="st0" d="M358.89,220.06c-6.93-24.44-22.21-50.47-44.98-63.08c-1.89-1.04-3.86-0.78-5.41,0.17
			c-39.29-26.97-94.78-24.45-132.06,5.12c-35.87,28.46-51.45,79.98-37.63,123.6c14.39,45.4,57.23,78.64,104.86,80.99
			c46.51,2.29,92.36-28.02,110.76-70.35C364.89,272.43,366.03,245.25,358.89,220.06z"/>
		<path class="st0" d="M247.73,113.44c0.44-8.85,1.22-17.82,2.51-26.59c0.64-4.35,1.27-8.69,2.13-13c0.91-4.63,1.85-9.01,1.99-13.75
			c0.12-4.01-5.88-5.81-7.75-2.1c-4.18,8.32-5.24,18.34-5.93,27.56c-0.7,9.39-0.45,18.55,0.72,27.89
			C241.9,117.39,247.52,117.62,247.73,113.44z"/>
		<path class="st0" d="M250.55,390.13c0-4.08-6.72-5.29-7.37-1c-1.44,9.59-2.72,19.52-2.13,29.23c0.6,9.86,1.2,20.81,5.64,29.76
			c2.6,5.24,11.32,2.76,11.03-2.99c-0.47-9.19-3.6-18.15-4.76-27.29C251.78,408.59,250.55,399.48,250.55,390.13z"/>
		<path class="st0" d="M436.78,230.48c-10.15-0.35-20.4,1.87-30.35,3.73c-9.81,1.84-19.46,4.08-29.16,6.42
			c-4.89,1.18-3.94,9.15,1.2,8.88c9.95-0.54,19.82-1.16,29.73-2.22c10.07-1.07,20.55-1.86,30.17-5.1
			C444.69,240.07,443.66,230.72,436.78,230.48z"/>
		<path class="st0" d="M113.52,243.7c-8.75-0.8-17.7-0.48-26.32,1.26c-8.57,1.73-17.33,4.35-24.45,9.53
			c-2.16,1.57-3.35,4.1-2.2,6.72c1.02,2.32,3.76,3.98,6.34,3.11c7.7-2.6,15.13-5.87,23.08-7.71c7.79-1.8,15.55-2.76,23.55-2.6
			c2.78,0.06,5.15-2.41,5.15-5.15C118.67,245.85,116.3,243.95,113.52,243.7z"/>
		<path class="st0" d="M345.52,156.94c4.51-2.58,8.18-6.3,12.02-9.76c3.79-3.4,7.46-6.92,11.16-10.41
			c7.41-6.98,14.56-14.19,21.71-21.43c2.65-2.68-1.22-6.22-4.03-4.03c-8.06,6.32-16.09,12.63-23.92,19.23
			c-3.79,3.19-7.61,6.34-11.32,9.62c-4,3.54-8.07,6.83-11.26,11.15C337.33,154.78,342.2,158.84,345.52,156.94z"/>
		<path class="st0" d="M124.24,134.86c3.4,3.17,6.86,6.25,10.36,9.31c3.87,3.38,7.57,6.67,12.26,8.86c1.64,0.77,3.53,0.72,4.87-0.63
			c1.18-1.18,1.66-3.45,0.63-4.87c-1.51-2.09-2.97-4.03-4.93-5.73c-1.76-1.53-3.61-2.95-5.45-4.39c-3.99-3.12-7.98-6.21-12.06-9.2
			c-7.81-5.7-15.7-11.26-23.62-16.81c-2.17-1.52-4.64,1.82-2.79,3.62C110.36,121.69,117.24,128.33,124.24,134.86z"/>
		<path class="st0" d="M155.41,360.42c-7.36,6.68-14.3,14.11-19.91,22.34c-2.76,4.05-5.32,8.25-7.65,12.57
			c-2.46,4.55-5.2,9.35-5.27,14.62c-0.05,3.12,4.14,5.01,6.33,2.62c3.3-3.61,4.79-8.24,6.88-12.6c2.06-4.31,4.33-8.51,6.81-12.59
			c4.97-8.18,10.24-16.02,16.54-23.24C161.33,361.59,157.93,358.13,155.41,360.42z"/>
		<path class="st0" d="M394.06,364.93c-4.17-2.76-8.3-5.58-12.54-8.22c-8.76-5.46-17.52-10.9-26.3-16.33
			c-1.93-1.19-4.62-0.42-5.75,1.51c-1.25,2.14-0.32,4.39,1.51,5.75c8.33,6.18,16.68,12.34,25.03,18.5
			c8.31,6.13,16.8,12.69,26.34,16.67c4.57,1.91,7.58-4.77,4.57-7.85C403.04,370.97,398.69,368,394.06,364.93z"/>
	</g>
	<path class="st1" d="M193.8,232.17c-12.83-0.78-17.61,10.18-12.45,16.39c5.16,6.21,22.84,2.95,27.97-3.79
		S206.86,232.96,193.8,232.17z"/>
	<path class="st1" d="M330.57,212.33c-12.82,0.92-16.12,12.41-10.19,17.88s28.03,0.99,27.23-7.44
		C346.79,214.17,343.62,211.4,330.57,212.33z"/>
</g>
<g id="ol">
	<path class="st2" d="M334.15,300.11C333.18,301.3,333.89,300.45,334.15,300.11L334.15,300.11z"/>
	<path class="st2" d="M367.28,249.5c0.98-11.52,0.05-23.21-2.37-34.51c-4.83-22.62-16.34-44.11-32.93-60.3
		c-1.88-1.84-3.9-3.53-5.96-5.16c-0.6-0.47-2.6-2.02-0.85-0.66c-0.66-0.51-1.19-0.93-1.86-1.36c-0.5-0.31-1.01-0.62-1.51-0.93
		c-0.61-0.37-1.23-0.73-1.84-1.08c-0.31-0.18-0.62-0.36-0.93-0.53c-0.1-0.06-0.21-0.12-0.31-0.17c-1.56-0.6-1.77-0.72-0.63-0.34
		c-1.56-1.12-3.81-0.94-5.51,0.03c-18.89-13.09-41.82-19.43-64.87-18.68c-23.96,0.77-47.53,8.69-66.49,23.46
		c-18,14.02-30.95,34-37.78,55.67c-6.87,21.79-7.42,45.94-0.64,67.82c0.82,2.65,1.75,5.26,2.79,7.83c0.32,0.78,0.65,1.56,0.98,2.34
		c0,0,0.23,0.56,0.28,0.67c0.22,0.53,0.44,1.05,0.67,1.58c0.6,1.39,1.22,2.76,1.88,4.12c2.41,4.99,5.22,9.79,8.37,14.35
		c6.64,9.59,14.65,18.2,23.8,25.43c18.57,14.66,41.39,23.74,65.06,25.19c23.27,1.43,46.91-5.55,66.49-17.99
		c19.5-12.38,35.88-30.36,45.19-51.6C363.23,273.44,366.24,261.73,367.28,249.5z M354.07,250.21c-0.12,1.31-0.29,2.61-0.44,3.91
		c0.26-2.31,0.01-0.16-0.07,0.38c-0.13,0.83-0.26,1.65-0.4,2.47c-0.45,2.59-1,5.16-1.65,7.71c-0.68,2.67-1.48,5.32-2.38,7.93
		c-0.43,1.25-0.89,2.49-1.37,3.72c-0.22,0.55-0.44,1.1-0.66,1.65c-0.16,0.37-0.32,0.74-0.48,1.11c-2.19,4.93-4.78,9.68-7.7,14.22
		c-1.49,2.32-3.07,4.58-4.74,6.78c-0.01,0.01-0.01,0.02-0.02,0.03c0.05-0.06,0.1-0.12,0.16-0.19c-0.19,0.23-0.37,0.47-0.55,0.71
		c-0.41,0.52-0.82,1.03-1.24,1.54c-0.91,1.12-1.85,2.21-2.8,3.29c-3.58,4.05-7.45,7.85-11.57,11.37c-1.01,0.86-2.03,1.7-3.06,2.53
		c-0.24,0.19-0.49,0.38-0.73,0.58c-0.57,0.43-1.13,0.86-1.71,1.28c-2.23,1.64-4.52,3.19-6.87,4.67c-4.58,2.88-9.36,5.44-14.29,7.64
		c-0.66,0.29-1.32,0.57-1.98,0.86c1.89-0.85-0.05,0.01-0.49,0.19c-1.34,0.54-2.68,1.05-4.04,1.53c-2.6,0.93-5.23,1.76-7.89,2.48
		c-2.54,0.7-5.11,1.3-7.7,1.8c-1.29,0.25-2.59,0.48-3.9,0.68c-0.52,0.08-3.04,0.34-0.83,0.13c-0.72,0.07-1.43,0.18-2.15,0.26
		c-5.51,0.6-11.08,0.76-16.61,0.47c-2.65-0.14-5.27-0.5-7.92-0.72c2.1,0.17-0.39-0.06-0.89-0.14c-0.6-0.09-1.19-0.19-1.79-0.29
		c-1.43-0.25-2.85-0.52-4.26-0.82c-5.42-1.16-10.75-2.75-15.94-4.71c-1.17-0.44-2.31-0.97-3.49-1.4c-0.27-0.12-0.54-0.24-0.81-0.35
		c-0.66-0.29-1.32-0.59-1.98-0.9c-2.52-1.17-5-2.44-7.43-3.79c-4.85-2.7-9.53-5.75-13.98-9.07c-0.48-0.36-0.99-0.7-1.44-1.09
		c1.23,1.07-0.44-0.36-0.75-0.6c-1.09-0.87-2.16-1.76-3.21-2.67c-2.1-1.82-4.14-3.71-6.11-5.67c-1.96-1.96-3.85-3.99-5.67-6.09
		c-0.87-1-1.71-2.02-2.54-3.05c-0.34-0.43-0.69-0.86-1.03-1.3c-0.08-0.11-0.16-0.22-0.2-0.27c-0.29-0.39-0.58-0.77-0.87-1.16
		c-3.21-4.37-6.1-8.99-8.6-13.8c-0.61-1.18-1.2-2.36-1.77-3.56c-0.26-0.55-0.5-1.09-0.75-1.64c-0.02-0.04-0.03-0.06-0.04-0.09
		c-0.02-0.05-0.04-0.1-0.07-0.17c-0.18-0.45-0.37-0.9-0.54-1.34c-1.02-2.58-1.93-5.2-2.73-7.85c-1.54-5.09-2.66-10.31-3.4-15.57
		c-0.02-0.17-0.05-0.37-0.06-0.44c-0.04-0.3-0.07-0.59-0.11-0.89c-0.08-0.65-0.14-1.31-0.21-1.96c-0.14-1.43-0.25-2.86-0.33-4.29
		c-0.15-2.69-0.2-5.38-0.16-8.07c0.05-2.69,0.19-5.39,0.43-8.07c0.12-1.31,0.26-2.62,0.42-3.93c0.01-0.11,0.07-0.55,0.09-0.69
		c0.03-0.21,0.06-0.43,0.09-0.64c0.1-0.71,0.21-1.42,0.33-2.13c0.89-5.39,2.17-10.71,3.79-15.92c0.8-2.58,1.69-5.13,2.67-7.64
		c0.26-0.67,0.53-1.34,0.8-2c0.05-0.12,0.1-0.23,0.14-0.35c-0.1,0.23,0.21-0.51,0.26-0.61c0.57-1.32,1.17-2.63,1.79-3.93
		c2.35-4.92,5.05-9.67,8.08-14.19c0.7-1.04,1.42-2.07,2.15-3.09c0.42-0.58,0.84-1.16,1.28-1.73c0.16-0.22,0.33-0.43,0.49-0.65
		c0.07-0.08,0.28-0.37,0.38-0.49c1.7-2.16,3.49-4.25,5.36-6.27c3.66-3.96,7.64-7.6,11.86-10.96c0.07-0.06,0.13-0.1,0.17-0.14
		c0.05-0.04,0.1-0.08,0.18-0.13c0.3-0.22,0.6-0.45,0.9-0.67c0.5-0.37,1-0.74,1.51-1.1c1.21-0.87,2.45-1.71,3.7-2.52
		c2.4-1.56,4.86-3.01,7.37-4.36c2.51-1.35,5.08-2.6,7.7-3.74c0.23-0.1,0.46-0.2,0.68-0.3c0.09-0.04,0.15-0.07,0.21-0.09
		c0.06-0.02,0.13-0.05,0.22-0.09c0.69-0.28,1.38-0.56,2.08-0.83c1.27-0.5,2.56-0.97,3.85-1.41c5.4-1.87,10.95-3.33,16.58-4.36
		c1.35-0.25,2.7-0.47,4.05-0.67c1.27-0.19,2.02-0.28,3.8-0.47c2.73-0.29,5.46-0.48,8.2-0.57c5.72-0.2,11.47-0.03,17.15,0.55
		c2.92,0.3,4.86,0.57,7.93,1.13c2.69,0.49,5.36,1.08,8.01,1.77c5.5,1.43,10.97,3.19,16.21,5.39c4.22,1.77,8.3,3.87,12.24,6.21
		c-0.29,2.11,0.71,4.1,2.6,5.45c-1.33-0.95,0.42,0.56,0.72,0.85c0.43,0.41,0.85,0.82,1.27,1.24c1.02,1.01,2.02,2.01,3.08,2.97
		c2.03,1.84,4.01,3.75,5.94,5.69c1.94,1.94,3.8,3.96,5.58,6.04c0.85,1,1.69,2.01,2.5,3.04c0.12,0.15,0.24,0.31,0.37,0.46
		c0.41,0.54,0.82,1.09,1.23,1.64c3.25,4.43,6.16,9.11,8.73,13.97c1.28,2.43,2.48,4.91,3.59,7.43c0.22,0.49,0.97,2.44,0.19,0.42
		c0.24,0.61,0.5,1.22,0.75,1.83c0.51,1.28,1,2.57,1.46,3.86c1.86,5.18,3.34,10.5,4.45,15.89c0.26,1.29,0.51,2.58,0.73,3.88
		c0.1,0.59,0.2,1.18,0.29,1.77c0.05,0.35,0.11,0.71,0.16,1.06c0.01,0.04,0.01,0.06,0.01,0.1c0.31,2.59,0.57,5.18,0.72,7.79
		C354.67,239.24,354.58,244.75,354.07,250.21z"/>
	<path class="st2" d="M248.74,104.08c1.78,0,3.08-1.45,3.16-3.16c0.22-4.51,0.7-8.97,1.12-13.45c0.21-2.24,0.35-4.48,0.59-6.72
		c0.12-1.12,0.25-2.24,0.38-3.35c0.04-0.32,0.08-0.64,0.12-0.96c0.02-0.14,0.03-0.25,0.04-0.33c0.01-0.08,0.02-0.18,0.04-0.31
		c0.04-0.32,0.09-0.63,0.13-0.95c0.64-4.43,1.29-8.86,2.15-13.26c0.43-2.2,0.99-4.38,1.39-6.58c0.46-2.49,0.57-4.92,0.65-7.44
		c0.13-4.02-5.88-5.8-7.75-2.1c-1.15,2.29-2.25,4.54-2.87,7.04c-0.55,2.25-0.9,4.57-1.29,6.86c-0.78,4.7-1.47,9.44-1.81,14.19
		c-0.32,4.46-0.52,8.95-0.47,13.42c0.05,4.64,0.65,9.34,1.23,13.94C245.79,102.61,246.88,104.08,248.74,104.08z"/>
	<path class="st2" d="M260.75,424.35c-0.48-2.18-0.99-4.35-1.46-6.53c-0.5-2.33-0.95-4.67-1.34-7.03c-0.18-1.1-0.36-2.19-0.52-3.29
		c-0.07-0.45-0.13-0.91-0.2-1.36c-0.04-0.27-0.07-0.55-0.1-0.82c-0.32-2.57-0.68-5.12-1.05-7.68c-0.03-0.2-0.05-0.39-0.08-0.59
		c-0.01-0.08-0.02-0.18-0.04-0.32c-0.07-0.56-0.14-1.12-0.21-1.67c-0.14-1.19-0.27-2.39-0.38-3.59c-0.44-4.61-0.65-9.23-0.65-13.86
		c0-1.87-1.43-3.44-3.25-3.68c-1.66-0.22-3.83,0.84-4.12,2.69c-1.44,9.48-2.71,19.35-2.15,28.95c0.3,5.1,0.87,10.17,1.58,15.22
		c0.34,2.38,0.72,4.74,1.24,7.08c0.24,1.08,0.43,2.2,0.76,3.26c0.47,1.53,1.36,3.04,2.07,4.48c2.6,5.23,11.33,2.77,11.03-2.99
		c-0.09-1.66-0.05-3.36-0.38-5C261.29,426.52,260.99,425.44,260.75,424.35z"/>
	<path class="st2" d="M446.81,223.13c-0.4-2.97-2.86-5.07-5.86-5.17c-2.5-0.09-4.93-0.22-7.41,0.07c-2.94,0.33-5.85,0.81-8.77,1.28
		c-4.84,0.79-9.68,1.54-14.49,2.45c-4.8,0.9-9.62,1.72-14.38,2.87c-4.82,1.17-9.64,2.33-14.46,3.5c-2.19,0.53-3.52,2.82-3.24,4.96
		c0.28,2.11,2.18,4.04,4.44,3.92c4.94-0.27,9.88-0.54,14.82-0.8c4.88-0.26,9.72-0.86,14.58-1.38c4.87-0.52,9.72-1.19,14.58-1.82
		c2.93-0.38,5.87-0.72,8.78-1.24c2.47-0.44,4.77-1.27,7.14-2.07C445.37,228.72,447.22,226.16,446.81,223.13z"/>
	<path class="st2" d="M117.69,231.18c-8.74-0.82-17.71-0.48-26.32,1.26c-4.1,0.83-8.15,1.93-12.1,3.3c-2.34,0.81-4.65,1.7-6.88,2.77
		c-1.97,0.95-3.71,2.16-5.48,3.45c-2.19,1.6-3.31,4.08-2.2,6.72c0.98,2.33,3.79,3.98,6.34,3.11c1.96-0.67,3.93-1.24,5.86-1.99
		c0.42-0.16,0.83-0.32,1.25-0.48c0.64-0.24,1.27-0.5,1.9-0.78c-0.79,0.33-0.87,0.37-0.24,0.1c0.97-0.39,1.94-0.78,2.92-1.14
		c3.78-1.41,7.66-2.56,11.59-3.46c1.96-0.45,3.93-0.88,5.91-1.24c0.95-0.18,1.9-0.34,2.86-0.48c0.29-0.04,0.59-0.09,0.88-0.13
		c0.65-0.09,0.59-0.08-0.18,0.02c0.37-0.12,0.95-0.12,1.34-0.16c4.16-0.47,8.35-0.65,12.54-0.56c2.7,0.06,5.27-2.41,5.15-5.15
		C122.71,233.32,120.57,231.45,117.69,231.18z"/>
	<path class="st2" d="M349.69,144.42c4.66-2.67,8.46-6.55,12.43-10.12c3.7-3.32,7.28-6.77,10.9-10.18
		c7.36-6.93,14.46-14.1,21.56-21.3c1.08-1.09,1.09-2.93,0-4.03c-1.2-1.2-2.81-0.95-4.03,0c-8.01,6.27-15.99,12.54-23.76,19.1
		c-3.81,3.21-7.66,6.38-11.39,9.68c-1.86,1.65-3.73,3.3-5.59,4.95c-0.99,0.88-2.02,1.73-2.93,2.69c-1.04,1.11-1.91,2.36-2.82,3.58
		c-1.03,1.4-0.59,3.85,0.64,4.98C346.07,145.02,348.06,145.35,349.69,144.42z"/>
	<path class="st2" d="M128.27,122.21c3.45,3.22,6.97,6.35,10.52,9.46c1.75,1.53,3.49,3.06,5.3,4.52c1.11,0.89,2.21,1.79,3.41,2.57
		c1.1,0.71,2.34,1.2,3.53,1.76c1.58,0.74,3.6,0.76,4.87-0.63c1.13-1.23,1.69-3.4,0.63-4.87c-0.88-1.21-1.7-2.54-2.7-3.65
		c-0.77-0.85-1.68-1.61-2.55-2.36c-1.78-1.51-3.61-2.93-5.45-4.37c-3.98-3.11-7.97-6.19-12.04-9.16
		c-7.71-5.63-15.51-11.12-23.32-16.59c-2.17-1.52-4.64,1.82-2.79,3.62C114.49,109.12,121.32,115.72,128.27,122.21z"/>
	<path class="st2" d="M159.59,347.89c-5.63,5.1-10.85,10.63-15.6,16.56c-4.84,6.05-8.97,12.66-12.59,19.51
		c-1,1.89-1.92,3.81-2.78,5.76c-0.54,1.22-1.06,2.44-1.45,3.71c-0.4,1.3-0.4,2.64-0.42,3.99c-0.04,3.12,4.14,5.01,6.33,2.62
		c1.41-1.55,2.54-3.07,3.4-4.98c0.76-1.69,1.52-3.38,2.29-5.06c1.53-3.38,3.19-6.69,4.98-9.94c3.58-6.51,7.55-12.89,11.91-18.91
		c2.39-3.3,4.95-6.47,7.64-9.54C165.51,349.06,162.1,345.61,159.59,347.89z"/>
	<path class="st2" d="M404.54,356.58c-2.03-1.42-4.14-2.74-6.2-4.11c-4.27-2.83-8.51-5.71-12.86-8.42
		c-8.69-5.41-17.38-10.82-26.09-16.2c-1.87-1.16-4.71-0.46-5.75,1.51c-1.16,2.2-0.38,4.35,1.51,5.75
		c8.27,6.13,16.54,12.24,24.83,18.35c4.13,3.05,8.39,5.92,12.6,8.85c2.03,1.41,4.03,2.92,6.12,4.25c2.45,1.57,5.15,2.6,7.83,3.72
		c1.82,0.76,4.43-0.49,5.31-2.16c0.99-1.87,0.77-4.15-0.73-5.7C409.04,360.31,406.98,358.3,404.54,356.58z"/>
	<path class="st2" d="M234.57,214.28c-0.54-0.75-1.21-1.42-1.89-2.04c-1.37-1.24-2.89-2.36-4.52-3.22c-3.2-1.7-6.76-2.67-10.39-2.76
		c-7.45-0.18-14.22,3.75-18.29,9.89c-2.24,3.38-3.46,7.39-3.56,11.43c-0.05,1.83,1.59,3.39,3.39,3.39c1.93,0,3.28-1.56,3.39-3.39
		c0.16-2.72,1.51-6.22,3.23-8.24c1.2-1.4,2.39-2.5,3.47-3.22c0.79-0.53,1.61-0.98,2.46-1.4c0.06-0.03,0.1-0.05,0.15-0.07
		c0.21-0.08,0.41-0.16,0.62-0.23c0.39-0.14,0.79-0.25,1.19-0.36c0.4-0.11,0.81-0.18,1.21-0.27c0.18-0.03,0.27-0.04,0.31-0.05
		c0.15-0.02,0.31-0.03,0.46-0.05c0.88-0.07,1.77-0.07,2.66-0.01c0.1,0.01,0.7,0.08,0.82,0.08c0.4,0.06,0.79,0.14,1.18,0.23
		c0.87,0.2,1.72,0.47,2.55,0.78c0.09,0.04,0.14,0.05,0.15,0.06c0.15,0.07,0.29,0.13,0.44,0.2c0.43,0.2,0.85,0.42,1.26,0.66
		c0.41,0.24,0.81,0.49,1.21,0.75c0.18,0.12,0.36,0.25,0.54,0.38c0.68,0.56,1.33,1.16,1.92,1.81c0.46,0.51,0.9,0.94,1.52,1.26
		c0.02,0.01,1.25,0.38,1.74,0.53c1.75,0.47,3.33-0.85,3.53-2.54c0.01-0.08,0.02-0.18,0.03-0.35c0.05-0.47,0.07-0.73,0.01-1.2
		C235.29,215.56,235.03,214.92,234.57,214.28z"/>
	<path class="st2" d="M231.81,220.43c-0.02,0-0.04,0-0.05-0.01C232.11,220.52,232.05,220.5,231.81,220.43z"/>
	<path class="st2" d="M235.37,217.66c0,0.08-0.03,0.15-0.03,0.22C235.3,218.27,235.36,217.81,235.37,217.66z"/>
	<path class="st2" d="M325.98,197.34c-2.98-2.3-6.5-4-10.2-4.74c-7.58-1.52-15.11,0.66-20.98,5.61c-3.2,2.7-5.47,6.32-6.87,10.23
		c-0.64,1.8,0.73,3.88,2.48,4.36c2.05,0.56,3.61-0.7,4.36-2.48c-0.22,0.51,0.34-0.67,0.4-0.78c0.22-0.42,0.46-0.84,0.71-1.24
		c0.25-0.41,0.53-0.8,0.8-1.19c0.05-0.07,0.08-0.11,0.12-0.16c0.14-0.17,0.27-0.34,0.42-0.5c0.62-0.72,1.3-1.41,2-2.06
		c0.26-0.24,0.54-0.47,0.81-0.71c0.16-0.13,0.24-0.2,0.27-0.22c0.13-0.1,0.26-0.19,0.39-0.29c0.78-0.55,1.6-1.05,2.45-1.5
		c0.36-0.19,0.73-0.36,1.1-0.53c0.09-0.02,0.85-0.33,0.94-0.36c0.79-0.27,1.6-0.5,2.42-0.67c0.11-0.02,0.89-0.15,0.99-0.17
		c0.39-0.04,0.79-0.08,1.18-0.09c0.91-0.04,1.81,0,2.71,0.08c0.1,0.02,0.74,0.11,0.85,0.13c0.42,0.08,0.84,0.18,1.26,0.29
		c0.48,0.12,0.95,0.27,1.42,0.42c0.1,0.03,0.86,0.33,0.97,0.36c0.84,0.37,1.66,0.8,2.44,1.28c0.42,0.26,0.84,0.53,1.24,0.81
		c0.03,0.02,0.45,0.35,0.54,0.42c0.7,0.59,1.37,1.2,1.99,1.87c0.34,0.36,0.65,0.74,0.97,1.11c0.06,0.07,0.1,0.12,0.13,0.16
		c0.12,0.17,0.24,0.33,0.36,0.5c0.11,0.15,0.95,1.28,1.02,1.39c0.51,0.66,0.98,1.18,1.71,1.67c2.38,1.56,5.46-0.51,5.5-3.15
		c0.03-2.35-1.64-4.48-3.06-6.22C328.72,199.59,327.39,198.43,325.98,197.34z"/>
	<path class="st2" d="M325.69,208.69c-0.05-0.06-0.1-0.12-0.14-0.18C325.68,208.67,325.71,208.71,325.69,208.69z"/>
	<path class="st2" d="M279.78,226.32c-1.51,1.21-2.19,2.97-3.27,4.53c-0.98,1.42-2.19,2.7-3.5,3.83c-2.57,2.24-5.72,3.8-9.05,4.54
		c-7.2,1.59-15-0.94-20.03-6.27c-1.67-1.77-4.16,0.83-2.63,2.63c4.42,5.23,11.02,8.4,17.84,8.83c6.72,0.42,13.49-2.51,18.31-7.1
		c1.34-1.28,2.53-2.72,3.57-4.25c1.12-1.64,2.16-3.38,1.9-5.44C282.71,225.98,281.08,225.28,279.78,226.32z"/>
</g>
</svg>
