<?xml version="1.0" encoding="utf-8"?>
<!-- Generator: Adobe Illustrator 26.3.1, SVG Export Plug-In . SVG Version: 6.00 Build 0)  -->
<svg version="1.1" id="Herz_x5F_Gesicht" xmlns="http://www.w3.org/2000/svg" xmlns:xlink="http://www.w3.org/1999/xlink" x="0px"
	 y="0px" viewBox="0 0 500.5 509" style="enable-background:new 0 0 500.5 509;" xml:space="preserve">
<style type="text/css">
	.st0{fill:#DE80AF;}
	.st1{fill:#E9AD99;}
	.st2{fill:#211F1B;}
</style>
<g id="Farbe">
	<path class="st0" d="M402.4,120.6c-23.8-23.5-58-35.1-90.9-28.3c-18,3.7-34.7,12.9-48.3,25.2c-11.7,10.7-19.9,23.6-24.7,38.3
		c-12.2-31.8-44.7-51.1-78.2-52c-36.8-1-69.7,22.7-87.3,53.9c-20,35.3-19.1,78.3-4.1,115.3c16,39.5,46.5,70.4,82,93.1
		c21.2,13.6,44.2,24.1,67.6,33.2c12.2,4.8,24.5,9.1,37,13.1c11.3,3.7,23,8.4,34.9,10.1c2.1,3.5,7,5.5,10.6,1.6
		c27.6-29.8,54.7-60.1,77.9-93.5c22.8-32.9,43.9-69.9,51.2-109.7C436.7,184.6,429.3,147.2,402.4,120.6z"/>
	<path class="st1" d="M152.8,253.8c-15.9-1-21.8,12.6-15.4,20.3c6.4,7.7,28.3,3.7,34.6-4.7C178.3,261.1,168.9,254.8,152.8,253.8z"/>
	<path class="st1" d="M379.6,225.1c-15.9,1.1-20,15.4-12.6,22.2c7.3,6.8,34.7,1.2,33.7-9.2C399.7,227.4,395.7,224,379.6,225.1z"/>
</g>
<g id="ol">
	<path class="st2" d="M445.4,152.4c-4.4-16.2-13.2-31.1-24.9-43.1c-11.7-12-26.2-21.1-42-26.5c-15.9-5.4-33-6.5-49.5-3.2
		c-16.4,3.3-31.6,11.1-44.6,21.6c-6.4,5.2-12.2,11.2-17.1,17.9c-2.4,3.2-4.5,6.6-6.4,10.1c-0.2,0.4-0.4,0.8-0.7,1.2
		c-0.2,0.3-1,2.2-0.6,1.3c-0.5,1.2-1.1,2.5-1.6,3.7c-0.7,1.8-1.4,3.6-2,5.4c-0.3,0.8-0.5,1.6-0.8,2.4c-5.8-15.4-16.7-28.3-30.5-37.2
		c-14.4-9.3-31.6-14.4-48.7-14.7c-17.9-0.3-35.5,5.4-50.4,15.1c-15.3,10.1-28,24.1-36.8,40.2c-9.4,17.1-14.2,36.1-14.6,55.6
		c-0.4,21.2,4.4,42.2,12.7,61.6c8.2,19.2,20,36.5,34.2,51.8c14.1,15.1,30.4,27.9,47.8,38.9c18.6,11.7,38.5,21.2,58.9,29.4
		c21.5,8.7,43.5,16.1,65.7,22.8c2.6,0.8,5.2,1.6,7.8,2.3c1.8,0.5,3.4,1,5.3,1.1c0.1,0,0.1,0,0.2,0c0.3,0.5,0.7,1,1.1,1.4
		c2.6,2.4,7.1,2.8,9.6,0c13.4-14.5,26.7-29.1,39.5-44.1c13-15.3,25.6-31,37.1-47.5c11.2-16,21.5-32.6,30.4-50
		c9.2-18,17-37.1,21.2-57C450.2,193,450.8,172.3,445.4,152.4z M430.1,145.2c-0.1-0.2-0.2-0.4-0.2-0.5C430,144.8,430,145,430.1,145.2
		z M125.5,119.3C125.3,119.4,125,119.6,125.5,119.3L125.5,119.3z M436.5,186.3c-0.1,2.4-0.3,4.7-0.6,7.1c-0.1,0.6-0.1,1.1-0.2,1.7
		c0,0.4-0.1,0.8-0.1,1.1c0,0,0,0.1,0,0.3c0,0.1,0,0.3,0,0.3c0,0.3-0.1,0.6-0.1,0.8c-0.1,0.7-0.2,1.3-0.3,2c-1.6,9.5-4,18.8-7.1,27.9
		c-1.6,4.7-3.4,9.3-5.3,13.9c0,0,0,0,0,0.1c-0.1,0.1-0.1,0.3-0.2,0.4c-0.2,0.5-0.5,1.1-0.7,1.6c-0.5,1.1-1,2.3-1.5,3.4
		c-1,2.2-2,4.3-3,6.5c-8.3,17.2-17.8,33.7-28.4,49.5c-5.3,8-10.9,15.7-16.7,23.4c-1.4,1.9-2.9,3.8-4.3,5.7c-0.3,0.5-0.7,0.9-1,1.4
		c-0.1,0.1-0.1,0.2-0.2,0.2c0,0-0.1,0.1-0.1,0.1c-0.8,1-1.5,2-2.3,2.9c-2.9,3.7-5.9,7.5-8.9,11.2c-12.2,14.9-24.9,29.4-37.8,43.6
		c-2.3,2.5-4.5,5-6.8,7.5c-4.1-2.2-9-3.2-13.3-4.5c-5.4-1.7-10.7-3.3-16.1-4.9c-10.8-3.3-21.6-6.8-32.2-10.6
		c-5.3-1.9-10.5-3.8-15.7-5.8c-2.7-1.1-5.4-2.1-8.1-3.2c-0.6-0.3-1.2-0.5-1.9-0.8c0,0,0,0-0.1,0c-0.3-0.1-0.6-0.3-0.9-0.4
		c-1.3-0.6-2.7-1.1-4-1.7c-9.7-4.2-19.2-8.8-28.4-13.9c-8.7-4.8-17.2-10-25.3-15.6c-2-1.4-4-2.8-6-4.3c-1-0.7-1.9-1.4-2.8-2.1
		c-0.5-0.4-0.9-0.7-1.4-1.1c0,0,0,0,0,0c0,0,0,0,0,0c-0.3-0.2-0.5-0.4-0.8-0.6c-3.9-3.1-7.7-6.3-11.5-9.6
		c-7.3-6.6-14.3-13.6-20.6-21.2c-0.8-0.9-1.5-1.8-2.2-2.7c-0.4-0.5-0.7-0.9-1.1-1.4c-0.1-0.2-0.7-0.8-0.8-1
		c-1.5-1.9-2.9-3.8-4.2-5.8c-2.9-4.1-5.7-8.4-8.2-12.8c-2.5-4.3-4.8-8.8-6.9-13.3c-0.5-1.1-1-2.2-1.5-3.3c-0.1-0.3-0.2-0.5-0.3-0.8
		c0,0,0,0,0,0c-0.3-0.6-0.5-1.3-0.8-1.9c-1-2.4-1.9-4.8-2.7-7.2c-1.6-4.7-3-9.5-4.1-14.3c-0.6-2.4-1.1-4.8-1.5-7.3
		c-0.2-1.2-0.4-2.4-0.6-3.5c-0.1-0.6-0.2-1.2-0.3-1.8c0,0,0,0,0-0.1c0,0,0,0,0,0c-0.1-0.4-0.1-0.8-0.2-1.3
		c-1.2-9.8-1.3-19.7-0.2-29.6c0.1-0.6,0.1-1.2,0.2-1.7c0-0.1,0.1-0.7,0.1-0.9c0.2-1.4,0.4-2.7,0.7-4.1c0.4-2.1,0.8-4.3,1.4-6.4
		c1-4.2,2.3-8.3,3.8-12.3c0.4-1,0.8-2.1,1.2-3.1c0.1-0.3,0.4-0.9,0.3-0.7c0.2-0.5,0.5-1,0.7-1.6c0.9-2,1.8-3.9,2.8-5.8
		c2-3.8,4.2-7.5,6.6-11.1c1.2-1.8,2.5-3.5,3.8-5.2c0.1-0.1,0.3-0.4,0.4-0.5c0.4-0.5,0.7-0.9,1.1-1.4c0.7-0.9,1.4-1.7,2.1-2.5
		c2.8-3.2,5.8-6.3,9-9.2c1.6-1.4,3.2-2.8,4.9-4.1c0.2-0.2,0.4-0.3,0.6-0.5c0,0,0,0,0,0c0.4-0.3,0.7-0.5,1.1-0.8
		c0.9-0.7,1.9-1.4,2.9-2c3.5-2.4,7.2-4.6,10.9-6.5c0.9-0.5,1.8-0.9,2.8-1.3c0.5-0.2,0.9-0.4,1.4-0.6c0.3-0.1,0.5-0.2,0.8-0.4
		c0,0,0,0,0,0c0.1,0,0.1,0,0.2-0.1c2-0.8,4-1.5,6-2.2c3.9-1.3,7.9-2.3,12-3c0.5-0.1,1-0.2,1.4-0.2c0.2,0,0.3,0,0.5-0.1
		c1-0.1,2.1-0.2,3.1-0.3c2.1-0.2,4.1-0.3,6.2-0.3c3.9,0,7.8,0.2,11.7,0.7c0.2,0,0.6,0.1,0.8,0.1c0.5,0.1,1,0.2,1.4,0.2
		c1,0.2,2,0.4,3.1,0.6c2,0.4,3.9,0.9,5.9,1.4c2,0.6,4,1.2,5.9,1.9c0.9,0.3,1.8,0.7,2.7,1c0.4,0.2,0.9,0.4,1.3,0.5
		c0.1,0,0.1,0,0.2,0.1c0.1,0,0.5,0.2,0.6,0.2c3.7,1.6,7.3,3.5,10.8,5.6c1.7,1,3.3,2.1,4.9,3.3c0.4,0.3,0.8,0.6,1.2,0.8
		c0.2,0.1,0.3,0.2,0.5,0.4c0,0,0,0,0,0c0.8,0.6,1.6,1.3,2.4,1.9c3,2.6,5.9,5.2,8.5,8.1c0.6,0.7,1.3,1.4,1.9,2.1
		c0.3,0.4,0.7,0.8,1,1.3c0,0,0.1,0.1,0.1,0.2c0.1,0.2,0.4,0.6,0.4,0.6c1.2,1.6,2.3,3.2,3.3,4.9c1,1.6,1.9,3.3,2.8,5
		c0.4,0.9,0.8,1.7,1.2,2.6c0.2,0.4,0.4,0.8,0.5,1.2c0,0,0.4,1,0.4,1.1c0.8,1.9,2.6,3.3,4.7,2.7c-0.2,0.7-0.4,1.4-0.5,2.1
		c-1,4.4,5.3,6.1,6.7,1.9c1.2-3.6,2.5-6.8,4.3-10.1c0.9-1.7,1.9-3.3,3-4.9c0.3-0.5,0.6-0.9,0.9-1.4c0.1-0.2,0.7-1.2,0.3-0.5
		c0.7-1.1,1.4-2.1,2.1-3.2c1-1.6,2.1-3.2,3.3-4.8c0.3-0.4,0.6-0.7,0.8-1.1c0.1-0.1,0.1-0.1,0.1-0.2c0,0,0.1-0.1,0.2-0.2
		c0.6-0.8,1.2-1.6,1.9-2.3c2.5-3,5-5.9,7.8-8.6c2.7-2.7,5.7-5.2,8.7-7.7c0.1-0.1,0.4-0.3,0.5-0.4c0.4-0.3,0.7-0.6,1.1-0.8
		c0.8-0.6,1.6-1.2,2.5-1.7c1.6-1.1,3.2-2.1,4.9-3.1c3.3-2,6.7-3.8,10.2-5.4c0.4-0.2,0.8-0.4,1.3-0.6c0.2-0.1,0.4-0.2,0.6-0.3
		c0.8-0.3,1.7-0.7,2.5-1c1.9-0.7,3.8-1.4,5.7-2c3.7-1.1,7.4-2.1,11.2-2.8c0.9-0.2,1.8-0.3,2.7-0.5c0.1,0,0.7-0.1,0.9-0.1
		c0.3,0,0.8-0.1,0.9-0.1c1.9-0.2,3.8-0.4,5.8-0.5c3.9-0.2,7.7-0.1,11.6,0.3c1,0.1,2,0.2,3,0.3c0,0,0.1,0,0.1,0c0,0,0.1,0,0.1,0
		c0.5,0.1,1.1,0.2,1.6,0.2c1.9,0.3,3.8,0.7,5.7,1.1c3.8,0.9,7.5,2,11.1,3.3c0.9,0.3,1.7,0.6,2.6,1c0.4,0.2,0.9,0.3,1.3,0.5
		c0,0,0,0,0.1,0c0.2,0.1,0.4,0.2,0.4,0.2c1.8,0.8,3.5,1.6,5.2,2.5c3.5,1.8,6.9,3.8,10.2,6c1.6,1.1,3.2,2.2,4.7,3.4
		c0.4,0.3,1.1,0.8,0.2,0.2c0.4,0.3,0.7,0.6,1.1,0.9c0.8,0.6,1.6,1.3,2.3,1.9c2.9,2.5,5.7,5.2,8.4,8c1.4,1.5,2.7,3,4,4.5
		c0.3,0.4,0.6,0.7,0.9,1.1c0.1,0.1,0.4,0.5,0.6,0.7c0.2,0.2,0.4,0.5,0.5,0.6c0.3,0.4,0.6,0.9,1,1.3c2.2,3.1,4.3,6.4,6.2,9.8
		c0.9,1.7,1.8,3.4,2.6,5.2c0.4,0.8,0.8,1.7,1.1,2.5c0,0.1,0,0.1,0.1,0.1c0,0.1,0,0.1,0,0.1c0.2,0.5,0.4,1,0.6,1.5
		c1.5,4,2.8,8.2,3.7,12.4c0.5,2.3,0.9,4.6,1.3,7c0,0.2,0,0.3,0.1,0.3c0,0.1,0,0.1,0,0.3c0.1,0.6,0.1,1.1,0.2,1.7
		c0.1,1.2,0.2,2.4,0.3,3.7C436.7,176.9,436.7,181.6,436.5,186.3z"/>
	<path class="st2" d="M218.5,209.6C218.5,209.6,218.5,209.6,218.5,209.6c0.1-0.1,0.2-0.2,0.4-0.3
		C218.7,209.4,218.6,209.5,218.5,209.6z"/>
	<path class="st2" d="M300.3,232.4c-0.2,0.6-0.4,1.2-0.6,1.9c-0.1,0.3-0.3,0.6-0.4,0.9c-0.1,0.3-0.2,0.6-0.3,0.9
		c-0.1,0.3-0.2,0.6-0.3,0.9c-0.1,0.2-0.2,0.4-0.2,0.5c-0.2,0.5-0.5,1-0.8,1.5c-0.3,0.6-0.7,1.1-1.1,1.6c0,0-0.1,0.1-0.1,0.1
		c-0.2,0.3-0.5,0.6-0.7,0.8c-0.4,0.5-0.9,1-1.4,1.4c-0.2,0.2-0.5,0.4-0.7,0.7c-0.1,0.1-0.4,0.3-0.5,0.4c-1,0.7-2.1,1.4-3.2,2
		c-0.3,0.2-0.6,0.3-0.9,0.4c-0.2,0.1-0.5,0.2-0.6,0.2c-0.5,0.2-1.1,0.4-1.6,0.6c-1.3,0.4-2.7,0.6-4,0.9c-0.1,0-0.2,0-0.2,0
		c0,0,0,0-0.1,0c-0.3,0-0.7,0.1-1,0.1c-0.7,0-1.3,0.1-2,0c-0.4,0-0.7,0-1.1-0.1c0,0-0.1,0-0.2,0c-0.1,0-0.2,0-0.3,0
		c-0.7-0.1-1.4-0.3-2.2-0.6c-0.1,0-0.7-0.3-0.8-0.3c-0.1,0-0.6-0.3-0.8-0.4c-0.7-0.4-1.4-0.8-2.1-1.3c-2.6-1.9-5.9,2.4-3.5,4.5
		c5.2,4.5,12.2,6.1,18.9,4.7c6.6-1.4,12.7-5.4,16.4-11c1-1.6,1.8-3.4,2.4-5.2c0.7-2.2,0.5-4.2,0.1-6.4
		C306,229.1,301.1,229.4,300.3,232.4z M299.8,234c0,0.1-0.1,0.2-0.1,0.3C299.7,234.2,299.9,233.6,299.8,234z"/>
	<path class="st2" d="M195.8,250.5c-1-2.5-2-4.9-3.1-7.4c-0.3-0.7-0.6-1.3-1.3-1.7c-0.6-0.3-1.5-0.5-2.1-0.3c-1.3,0.4-2.5,2-1.9,3.4
		c1,2.5,1.9,5,2.9,7.4c0.5,1.4,1,2.8,1.7,4.2c0.3,0.7,0.6,1.4,1,2c0.7,0.9,1.9,1.4,3.1,1.1c0.9-0.3,1.6-1.2,1.8-2.1
		c0.3-1.1-0.2-2-0.5-3C196.9,253,196.3,251.7,195.8,250.5z"/>
	<path class="st2" d="M236.7,228.3c-0.8-0.6-1.4-1-2.3-1.4c-0.7-0.3-1.4-0.5-2.1-0.8c-1.3-0.5-2.6-0.9-3.9-1.3
		c-2.3-0.7-4.5-1.5-6.8-2.2c0.2-0.3,0.4-0.7,0.6-1c1.8-3.3,3.9-7.8,2-11.4c-1.2-2.3-4-2.1-5.8-0.8c-0.4,0.3-0.8,0.7-1.1,1.2
		c-0.2,0.4-0.4,0.9-0.6,1.3c-0.1,0.2-0.5,1.2-0.1,0.3c-0.2,0.4-0.3,0.8-0.5,1.2c-0.3,0.7-0.5,1.3-0.8,2c0,0,0,0.1,0,0.1
		c-0.2,0.3-0.3,0.6-0.5,1c-0.6,1.1-1.2,2.2-1.9,3.2c-0.2,0.2-0.3,0.5-0.5,0.7c0,0-0.2,0.3-0.3,0.4c-0.1,0.2-0.3,0.3-0.3,0.3
		c-0.2,0.3-0.5,0.5-0.7,0.8c-0.8,0.9-1.7,1.8-2.6,2.6c-0.2,0.2-0.4,0.4-0.7,0.6c0,0-0.2,0.2-0.4,0.3c-0.2,0.1-0.4,0.3-0.4,0.3
		c-0.3,0.2-0.6,0.4-0.9,0.6c-1,0.7-2.1,1.3-3.2,1.9c-0.5,0.3-1.1,0.5-1.6,0.8c0,0-0.1,0-0.2,0.1c-0.3,0.1-0.6,0.2-0.9,0.4
		c-1.2,0.4-2.4,0.8-3.6,1c-0.6,0.1-1.2,0.2-1.7,0.3c0,0-0.1,0-0.1,0c-0.4,0-0.7,0.1-1.1,0.1c-1.2,0.1-2.5,0.1-3.7,0
		c-0.3,0-0.6-0.1-0.9-0.1c0,0,0,0-0.1,0c0,0,0,0-0.1,0c-0.6-0.1-1.3-0.2-1.9-0.4c-1.2-0.3-2.4-0.6-3.5-1.1c-0.2-0.1-0.4-0.1-0.6-0.2
		c-0.1,0-0.3-0.1-0.4-0.2c-0.6-0.3-1.3-0.6-1.9-1c-1-0.6-2-1.2-3-1.9c-0.2-0.2-0.5-0.3-0.7-0.5c0,0-0.3-0.2-0.5-0.3
		c-0.2-0.1-0.5-0.4-0.5-0.4c-0.3-0.3-0.6-0.5-0.9-0.8c-4.1-3.7-6.8-7.9-8-13.3c-0.4-1.6-2.2-2.6-3.8-2.2c-1.7,0.5-2.4,2.2-2.2,3.8
		c0.2,1.1,0.5,2.2,0.8,3.3c-3.1,2.7-6.3,5.3-9.4,8c-1.6,1.3-3.1,2.6-4.7,4c-0.7,0.7-1.5,1.3-2.2,2c-0.9,0.8-1.5,1.7-2.1,2.8
		c-0.7,1.3,0.5,3.2,2,2.6c1.1-0.4,2.2-0.8,3.1-1.6c0.8-0.7,1.6-1.4,2.4-2c1.6-1.4,3.2-2.7,4.8-4.1c2.6-2.3,5.3-4.6,7.9-6.8
		c1.7,3.5,4,6.6,6.8,9.3c-1.2,2.4-2.4,4.7-3.7,7.1c-0.7,1.3-1.4,2.7-2.1,4c-0.3,0.7-0.6,1.3-1,2c-0.5,1-0.6,1.9-0.7,3
		c-0.1,0.8,0.6,1.6,1.3,1.9c0.8,0.3,1.6,0.1,2.2-0.4c0.7-0.6,1.3-1.2,1.7-2c0.4-0.7,0.8-1.4,1.1-2.1c0.7-1.3,1.3-2.6,2-3.9
		c1-2.1,2.1-4.1,3.1-6.2c2.7,1.9,5.6,3.4,8.8,4.5c8,2.7,16.5,1.8,23.9-1.8c2.1,2.6,4.1,5.1,6.2,7.7c1.1,1.4,2.2,2.7,3.3,4
		c0.6,0.7,1.1,1.4,1.7,2c0.8,1,1.8,1.5,3,1.8c1.5,0.4,3.4-0.8,3.2-2.5c-0.1-0.6-0.1-1.3-0.3-1.9c-0.2-0.6-0.5-1-0.9-1.5
		c-0.6-0.8-1.2-1.5-1.9-2.3c-1.2-1.4-2.4-2.8-3.6-4.2c-1.9-2.1-3.7-4.3-5.6-6.4c1.3-1,2.6-2,3.8-3.2c0.6-0.6,1.2-1.2,1.8-1.9
		c0.2,0.1,0.4,0.2,0.7,0.3c2.7,0.9,5.4,1.9,8.1,2.8c1.3,0.5,2.6,0.9,3.9,1.3c0.7,0.2,1.4,0.5,2.1,0.7c0.9,0.2,1.7,0.2,2.6,0.2
		c1.1,0,2.2-0.8,2.5-1.9C238.2,230,237.7,229,236.7,228.3z M201.2,229.3C200.9,229.4,200.6,229.5,201.2,229.3L201.2,229.3z"/>
	<path class="st2" d="M382.4,200.8c-0.8-0.4-1.7-0.7-2.5-1c-1.4-0.5-2.9-1-4.4-1.5c-2.9-0.9-5.8-1.8-8.6-2.8
		c-0.8-0.2-1.6-0.1-2.4,0.3c0.3-0.8,0.7-1.7,0.9-2.5c1-3,1.6-6.4,1.1-9.5c-0.8-4.5-7.8-4.3-8.9,0c-0.2,0.8-0.3,1.5-0.3,2.3
		c0,0.2,0,0.5,0,0.7c0,0,0,0.1,0,0.2c0,0.1,0,0.4-0.1,0.5c0,0.2-0.1,0.5-0.1,0.7c-0.1,0.5-0.2,1-0.4,1.6c-0.3,1-0.6,1.9-0.9,2.9
		c0,0,0,0,0,0c-0.1,0.2-0.2,0.3-0.2,0.5c-0.2,0.5-0.5,1-0.7,1.4c-0.5,0.9-1,1.7-1.6,2.6c-0.1,0.2-0.3,0.4-0.4,0.5
		c-0.3,0.4-0.7,0.8-1,1.2c-0.7,0.7-1.4,1.5-2.1,2.1c-0.3,0.3-0.7,0.6-1,0.9c-0.2,0.2-0.5,0.3-0.7,0.5c-0.8,0.6-1.7,1.1-2.6,1.6
		c-0.4,0.2-0.8,0.4-1.3,0.6c-0.3,0.1-0.5,0.2-0.8,0.3c-1,0.3-1.9,0.6-2.9,0.8c-0.4,0.1-0.9,0.2-1.3,0.2c-0.3,0-0.6,0.1-0.9,0.1
		c-1,0.1-2,0.1-3,0c-0.5,0-0.9-0.1-1.4-0.1c-0.2,0-0.5,0-0.7-0.1c-0.1,0-0.6-0.1-0.8-0.1c-0.1,0-0.2,0-0.2,0c-0.2,0-0.5-0.1-0.7-0.1
		c-0.5-0.1-0.9-0.2-1.4-0.3c-1-0.3-2.1-0.6-3.1-1c0,0-0.2-0.1-0.3-0.1c-0.2-0.1-0.5-0.2-0.6-0.2c-0.5-0.3-1.1-0.5-1.6-0.8
		c-1-0.5-2-1.1-2.9-1.7c-1.6-1-3.1-2.6-4.3-4.1c-1-1.3-2.6-2-4.1-1.1c-1.4,0.8-1.9,2.7-1.1,4.1c1.6,2.7,3.7,5.2,6.2,7.4
		c-1.7,3.4-3.4,6.9-5.2,10.3c-0.7,1.3-0.4,3.2,1,3.9c1.3,0.7,3.2,0.4,3.9-1c1.6-3.3,3.3-6.6,4.9-9.9c4.1,2.3,8.8,3.6,13.5,3.7
		c0,0,0.1,0,0.1,0c0,2.2,0,4.4,0,6.6c0,1.6,0,3.2,0,4.8c0,0.8,0.1,1.6,0.2,2.4c0.1,1.1,0.4,1.9,0.9,2.8c0.6,1.3,2.8,1.3,3.5,0
		c0.8-1.6,1.1-3.3,1.1-5c0-1.6,0-3.3,0-4.9c0-2.4,0-4.7,0-7.1c4.8-0.9,9.2-3.1,13-6.1c-0.2,0.8-0.2,1.6,0.3,2.3
		c1.3,1.8,2.6,3.5,3.9,5.3c1.4,1.9,2.7,4,4.4,5.7c1.1,1.1,2.9,1.2,4.1,0.2c1.2-1,1.6-2.7,0.8-4c-1.1-1.9-2.5-3.5-3.8-5.2
		c-1.3-1.7-2.6-3.4-3.9-5.1c-0.5-0.7-1-1.2-1.9-1.4c-0.4-0.1-0.8-0.1-1.3-0.1c1.5-1.5,2.9-3.2,4.1-5c0.4-0.6,0.8-1.3,1.2-2
		c0.2,1.2,1,2.1,2.2,2.5c2.8,1,5.6,1.9,8.4,2.9c1.4,0.5,2.8,1,4.2,1.4c0.7,0.2,1.4,0.5,2.1,0.6c1.2,0.3,2.2,0.1,3.2-0.6
		c0.8-0.6,1.4-1.5,1-2.5C383.9,202.2,383.4,201.4,382.4,200.8z"/>
</g>
</svg>
