<?xml version="1.0" encoding="utf-8"?>
<!-- Generator: Adobe Illustrator 26.3.1, SVG Export Plug-In . SVG Version: 6.00 Build 0)  -->
<svg version="1.1" id="herzen" xmlns="http://www.w3.org/2000/svg" xmlns:xlink="http://www.w3.org/1999/xlink" x="0px" y="0px"
	 viewBox="0 0 500.5 509" style="enable-background:new 0 0 500.5 509;" xml:space="preserve">
<style type="text/css">
	.st0{fill:#DE80AF;}
	.st1{fill:#211F1B;}
</style>
<g id="Farbe">
	<path class="st0" d="M273.77,89.96c-7.05-7.67-17.7-1.83-23.43,4.49c-5.5,6.08-10.84,13.85-12.91,22.15
		c-2.91-7.9-6.83-15.36-13.66-20.72c-7.23-5.68-17.79-7.44-26.23-3.47c-10.47,4.92-12.07,17.37-7.59,27.06
		c5.15,11.15,17.1,17.54,26.22,25.03c5.68,4.67,11.12,9.64,16.28,14.88c2.7,2.75,5.32,5.57,7.86,8.46c1.22,1.38,2.39,2.81,3.59,4.2
		c0.83,0.96,1.72,1.67,2.68,2.33c1.32,2.93,6.22,3.56,7.11-0.35c4.57-19.99,18.91-35.97,23.79-55.84
		C279.7,109.09,280.61,97.39,273.77,89.96z"/>
	<path class="st0" d="M357.05,353.66c-4.85-9.22-16.64-6.3-23.8-1.65c-6.88,4.47-14.03,10.61-18.15,18.11
		c-0.79-8.39-2.67-16.6-7.9-23.53c-5.54-7.34-15.3-11.74-24.47-10.07c-11.38,2.08-16.11,13.7-14.27,24.21
		c2.13,12.1,12.04,21.33,18.94,30.91c4.3,5.97,8.29,12.16,11.93,18.55c1.91,3.34,3.71,6.75,5.43,10.19c0.82,1.65,1.59,3.32,2.4,4.98
		c0.56,1.14,1.23,2.05,1.99,2.93c0.52,3.17,5.1,5.04,6.97,1.48c9.53-18.16,27.49-29.93,37.29-47.89
		C357.88,373.68,361.75,362.6,357.05,353.66z"/>
	<path class="st0" d="M242.68,265.14c-7.91-5.79-19.27-6.16-28.09-2.36c-11.9,5.13-19.42,16.74-25.78,27.67
		c-2.88-11.14-11.73-20.52-21.9-25.58c-11.98-5.97-27-5.09-38.03,2.63c-4.92,3.44-9.04,8.25-9.87,14.37
		c-0.86,6.36,2.14,12.29,6,17.14c4.8,6.03,11.07,10.71,16.97,15.6c7.05,5.84,14.1,11.68,21.15,17.52c7.86,6.51,15.72,13,23.61,19.48
		c7.84,6.44,15.45,13.42,23.95,18.96c2.19,1.43,4.52-1.21,3.65-3.27c0.59-2.87,0.53-5.92,0.97-8.81c0.53-3.46,1.33-6.88,2.32-10.23
		c2.08-6.99,5.04-13.68,8.52-20.08c3.39-6.23,7.28-12.18,11.38-17.97c3.84-5.43,7.88-10.82,10.58-16.93
		C252.46,283.48,251.9,271.89,242.68,265.14z"/>
</g>
<g id="ol">
	<path class="st1" d="M271.51,81.28c-0.01,0-0.02-0.01-0.03-0.01c-0.09,0-0.18-0.01-0.27-0.01
		C271.2,81.27,271.28,81.29,271.51,81.28z"/>
	<path class="st1" d="M280.65,80.39c-2.6-3.68-6.53-6.18-11.16-5.47c-5.23,0.8-9.97,4.08-13.5,7.9c-4.07,4.41-7.62,9.5-10.26,14.89
		c-1.17,2.38-2.17,4.9-2.85,7.5c-2.81-7.68-6.57-14.97-13.08-20.25c-7.47-6.06-18.35-8.09-27.17-3.78
		c-4.46,2.18-7.81,6.29-9.1,11.08c-1.57,5.83-0.19,12.11,2.63,17.34c2.88,5.33,7.46,9.48,12.15,13.2
		c4.86,3.85,9.91,7.44,14.67,11.42c5.47,4.57,10.72,9.43,15.69,14.54c2.44,2.51,4.81,5.08,7.11,7.71c1.18,1.34,2.34,2.7,3.48,4.07
		c0.72,0.86,1.34,1.63,2.32,2.24c0.13,0.08,0.27,0.16,0.41,0.24c0.4,1.07,1.21,1.95,2.43,2.23c1.92,0.44,4.2-0.58,4.66-2.65
		c0.52-2.34,1.19-4.65,1.97-6.92c0.39-1.14,0.8-2.27,1.23-3.39c0.2-0.53,0.41-1.06,0.63-1.59c0.11-0.28,0.23-0.57,0.35-0.85
		c0.07-0.17,0.14-0.33,0.22-0.5c1.97-4.53,4.25-8.91,6.57-13.27c4.61-8.66,9.38-17.32,12.14-26.79
		C284.82,100.3,286.4,88.53,280.65,80.39z M277.55,95.37c-0.06,1.02-0.15,2.05-0.28,3.07c-0.01,0.1-0.03,0.24-0.04,0.28
		c-0.05,0.3-0.1,0.61-0.15,0.91c-0.1,0.61-0.22,1.21-0.34,1.82c-0.44,2.11-1.02,4.2-1.7,6.25c-0.35,1.06-0.73,2.11-1.13,3.15
		c-0.44,1.14-0.76,1.92-1.05,2.57c-0.91,2.08-1.89,4.12-2.92,6.14c-2.06,4.05-4.2,8.06-6.35,12.07c-3.75,6.99-7.49,14.12-9.94,21.68
		c-0.25-0.28-0.51-0.55-0.76-0.83c-2.01-2.19-4.07-4.33-6.18-6.43c-4.27-4.25-8.71-8.33-13.32-12.21
		c-4.65-3.91-9.47-7.63-14.44-11.15c-4.45-3.15-9.01-6.15-12.84-10.06c-3.54-3.62-6.36-8.13-7.04-13.16
		c-0.32-2.39-0.15-4.79,0.75-7.07c0.77-1.95,1.64-3.04,3.16-4.37c1-0.87,2.93-1.9,4.28-2.34c0.96-0.31,1.94-0.54,2.93-0.71
		c0.03-0.01,0.15-0.02,0.24-0.03c0.22-0.02,0.43-0.05,0.65-0.07c0.57-0.05,1.13-0.07,1.7-0.08c3.89-0.03,7.73,0.9,11.15,2.93
		c4.72,2.8,8.16,7.41,10.95,12.04c2.77,4.59,5.01,9.49,7.14,14.41c0.02,0.26,0.04,0.52,0.08,0.78c0.14,1.15,0.88,2.14,2.14,2.14
		c1.14,0,2.16-0.98,2.14-2.14c-0.09-4.71,1.58-9.12,3.71-13.25c2.21-4.29,5.05-8.26,8.14-11.95c2.84-3.41,6.18-6.72,10.42-8.03
		c0.57-0.18,1.14-0.31,1.73-0.43c0.08-0.02,0.13-0.03,0.16-0.04c0.02,0,0.03,0,0.06,0c0.16-0.01,0.33,0,0.5-0.02
		c0.03,0,0.07,0,0.11,0.01c0.01-0.02,0.13-0.03,0.25,0.01c0,0,0.01,0,0.02,0.01c0.04,0,0.08,0.01,0.11,0c-0.03,0-0.06,0-0.08,0.01
		c0.22,0.07,0.82,0.27,0.83,0.24c0.23,0.11,0.45,0.22,0.67,0.35c0.17,0.1,0.33,0.22,0.49,0.33c0.01,0.01,0.01,0.01,0.03,0.03
		c0.3,0.3,0.62,0.57,0.91,0.89c0.09,0.09,0.17,0.19,0.25,0.29c-0.07-0.08,0.31,0.42,0.34,0.46c0.41,0.61,0.96,1.6,1.18,2.09
		c0.01,0.04,0.18,0.43,0.19,0.48c0.1,0.28,0.2,0.55,0.29,0.83c0.19,0.58,0.35,1.17,0.49,1.77c0.25,1.11,0.31,1.5,0.38,2.58
		C277.65,92.85,277.62,94.12,277.55,95.37z"/>
	<path class="st1" d="M366.59,347.57c-1.13-4.22-4.11-8.54-8.68-9.38c-5.85-1.09-12.08,1.23-16.88,4.45
		c-6.62,4.45-13.69,10.43-17.76,17.75c-0.78-8.3-2.63-16.45-7.79-23.29c-5.84-7.74-16.54-12.55-26.17-9.85
		c-4.9,1.38-9.06,4.89-11.15,9.55c-2.32,5.18-2.46,11.05-1.03,16.51c1.52,5.76,4.86,10.84,8.4,15.55c3.69,4.91,7.6,9.63,11.15,14.65
		c4.07,5.75,7.85,11.71,11.31,17.85c1.77,3.14,3.45,6.32,5.05,9.55c0.8,1.61,1.58,3.24,2.34,4.87c0.54,1.15,1.18,2.03,1.91,2.85
		c0.1,1.14,0.68,2.21,1.79,2.86c1.7,1,4.24,0.46,5.19-1.36c1.09-2.09,2.29-4.11,3.6-6.07c0.66-0.98,1.33-1.95,2.01-2.91
		c0.31-0.43,0.62-0.86,0.94-1.29c0.18-0.24,0.36-0.47,0.53-0.71c0.06-0.08,0.09-0.13,0.12-0.16c0.03-0.04,0.07-0.09,0.14-0.17
		c2.96-3.76,6.15-7.32,9.4-10.83c6.48-7.01,13.14-13.91,18.31-21.98C364.47,367.94,369.19,357.28,366.59,347.57z M360.45,355.4
		c-0.26,1.87-1.07,4.43-1.84,6.47c-0.45,1.19-0.45,1.19-0.99,2.35c-0.46,0.99-0.95,1.96-1.48,2.92c-1.02,1.87-2.15,3.68-3.36,5.43
		c-0.59,0.86-1.21,1.71-1.84,2.54c-0.09,0.13-0.19,0.25-0.28,0.37c-0.06,0.07-0.25,0.32-0.3,0.39c-0.36,0.46-0.73,0.91-1.1,1.36
		c-1.38,1.69-2.82,3.32-4.28,4.94c-2.95,3.29-5.97,6.52-8.99,9.76c-5.22,5.6-10.44,11.36-14.59,17.81
		c-0.15-0.29-0.31-0.58-0.46-0.87c-1.4-2.65-2.85-5.28-4.36-7.87c-2.99-5.12-6.18-10.12-9.58-14.98
		c-3.48-4.97-7.17-9.79-11.05-14.45c-3.51-4.22-7.2-8.3-9.95-13.07c-2.5-4.33-3.96-8.93-3.67-13.83c0.12-2.03,0.68-4.3,1.7-6.13
		c1.02-1.85,2.4-3.29,3.96-4.25c3.05-1.87,6.9-2.2,10.36-1.48c4.13,0.86,7.82,2.73,10.79,5.63c3.93,3.85,6.12,9.14,7.68,14.32
		c1.59,5.29,2.53,10.77,3.35,16.24c-0.04,0.24-0.1,0.47-0.13,0.7c-0.16,1.14,0.28,2.3,1.5,2.63c1.09,0.3,2.36-0.37,2.63-1.5
		c1.09-4.47,3.73-8.23,6.76-11.63c3.15-3.54,6.84-6.62,10.65-9.37c3.95-2.84,8.34-5.48,13.3-5.47c0.46,0,0.92,0.02,1.38,0.07
		c-0.05,0.02,0.64,0.17,0.8,0.22c0.01,0,0.01,0,0.02,0c0.01,0.01,0.01,0.01,0.02,0.01c0.15,0.09,0.3,0.16,0.45,0.25
		c0.06,0.04,0.12,0.08,0.17,0.11c-0.08-0.04,0.3,0.23,0.4,0.32c0.12,0.12,0.69,0.82,0.65,0.72c0.18,0.27,0.36,0.54,0.52,0.83
		c0.1,0.17,0.18,0.35,0.28,0.53c0.03,0.06,0.05,0.09,0.07,0.13c0.01,0.02,0.01,0.03,0.02,0.07c0.22,0.55,0.39,1.12,0.54,1.69
		c0.1,0.4,0.18,0.81,0.25,1.21c0.02,0.12,0.06,0.39,0.06,0.47c0.03,0.3,0.05,0.61,0.07,0.91
		C360.63,353.07,360.61,354.26,360.45,355.4z"/>
	<path class="st1" d="M249.9,251.29c-7.88-5.76-19.79-6.78-29.64-2.53c-11.23,4.85-18.7,15.25-24.72,25.28
		c-3.58-9.59-11.45-18.08-21.63-23.15c-12.67-6.31-28.23-5.23-39.63,2.75c-6.1,4.26-9.73,9.61-10.52,15.45
		c-0.79,5.89,1.33,12.05,6.32,18.33c4.11,5.17,9.27,9.37,14.25,13.42c0.99,0.8,1.97,1.6,2.94,2.41l21.15,17.52
		c7.86,6.51,15.73,13.01,23.61,19.49c1.96,1.61,3.9,3.25,5.85,4.9c5.79,4.9,11.78,9.96,18.24,14.17c0.68,0.45,1.42,0.67,2.16,0.67
		c0.88,0,1.76-0.32,2.51-0.95c1.32-1.1,1.88-2.85,1.46-4.41c0.29-1.58,0.42-3.19,0.53-4.74c0.1-1.3,0.19-2.52,0.37-3.73
		c0.5-3.25,1.26-6.62,2.28-10.03c1.91-6.42,4.65-12.89,8.4-19.77c3.01-5.53,6.59-11.19,11.28-17.81l1.24-1.74
		c3.45-4.85,7.02-9.86,9.5-15.46C261.07,269.55,258.73,257.75,249.9,251.29z M197.28,283.11c5.86-9.4,12.51-20.02,22.67-25.78
		c8.3-4.71,18.74-4.51,25.37,0.48c9.53,7.17,4.41,19.41-1.57,28.41c-1.79,2.7-3.66,5.4-5.46,8.01c-5.11,7.39-10.39,15.02-14.5,23.39
		c-3.24,6.6-5.58,12.75-7.15,18.8l-0.06,0.24c-0.76,2.94-1.67,6.45-2.16,9.98c-2.33-1.96-4.71-3.86-7.04-5.71
		c-1.22-0.97-2.43-1.94-3.64-2.91l-5.16-4.17c-4.19-3.39-8.37-6.77-12.57-10.14c-7.99-6.41-15.99-12.82-23.99-19.23l-11.58-9.28
		c-0.69-0.55-1.43-1.13-2.21-1.74c-8.42-6.61-21.15-16.59-15.61-27.13c4.26-8.09,14.64-11.99,24.28-11.99
		c2.61,0,5.17,0.29,7.53,0.85c13.61,3.26,25.2,15.06,26.96,27.44c0.11,0.76,0.5,1.42,1.11,1.85c0.68,0.48,1.59,0.66,2.42,0.5
		l0.22-0.05C196.18,284.67,196.95,284.01,197.28,283.11z"/>
</g>
</svg>
