<?xml version="1.0" encoding="utf-8"?>
<!-- Generator: Adobe Illustrator 26.3.1, SVG Export Plug-In . SVG Version: 6.00 Build 0)  -->
<svg version="1.1" id="Hufeisen" xmlns="http://www.w3.org/2000/svg" xmlns:xlink="http://www.w3.org/1999/xlink" x="0px" y="0px"
	 viewBox="0 0 500.5 509" style="enable-background:new 0 0 500.5 509;" xml:space="preserve">
<style type="text/css">
	.st0{fill:#D5D6D5;}
	.st1{fill:#211F1B;}
</style>
<g id="farbe">
	<path class="st0" d="M338.09,19.97c-0.27-0.36-0.61-0.56-0.96-0.69c-0.01-0.01-0.01-0.02-0.02-0.02
		c-4.02-2.95-10.84-0.46-13.09,3.66c-1.67,3.07-1.02,7.04-0.07,10.22c1.17,3.93,2.79,7.74,4.13,11.61
		c5.18,14.88,9.48,33.22,0.72,47.68c-3.58,5.9-9.32,10.61-16.14,12.11c-6.56,1.44-13.5-0.76-18.42-5.23
		c-12.39-11.26-11.77-28.96-8.7-44.07c1.45-7.11,4.3-13.85,5.69-20.95c0.83-4.25,1.35-10.71-3.44-12.5
		c-0.15-0.31-0.42-0.58-0.84-0.73c-9.43-3.24-15.48,5.63-17.85,13.47c-3.13,10.33-5.23,21.25-5.91,32.02
		c-1.17,18.61,3.44,38.18,17.43,51.33c12.85,12.09,30.96,14.28,46.8,6.9c17.03-7.94,26.87-25.07,29.27-43.23
		C359.64,59.23,351.46,37.56,338.09,19.97z"/>
	<path class="st0" d="M233.09,132.95c-0.23-0.39-0.53-0.63-0.86-0.81c-0.01-0.01-0.01-0.02-0.02-0.03c-3.62-3.43-10.7-1.81-13.44,2
		c-2.04,2.83-1.89,6.86-1.35,10.13c0.67,4.05,1.8,8.03,2.65,12.04c3.28,15.41,5.25,34.15-5.25,47.4
		c-4.29,5.41-10.57,9.36-17.53,9.99c-6.69,0.61-13.3-2.44-17.62-7.49c-10.88-12.72-8.06-30.21-3.12-44.81
		c2.33-6.88,6-13.2,8.27-20.07c1.36-4.12,2.67-10.45-1.85-12.83c-0.11-0.33-0.34-0.63-0.74-0.82c-8.96-4.39-16.06,3.65-19.4,11.13
		c-4.39,9.86-7.85,20.43-9.87,31.03c-3.49,18.31-1.36,38.31,10.87,53.11c11.24,13.6,28.93,18.04,45.57,12.7
		c17.89-5.75,29.8-21.51,34.45-39.23C249.56,174.6,244.15,152.07,233.09,132.95z"/>
	<path class="st0" d="M354.63,254.06c-0.27-0.36-0.61-0.56-0.96-0.69c-0.01-0.01-0.01-0.02-0.02-0.02
		c-4.02-2.95-10.84-0.46-13.09,3.66c-1.67,3.07-1.02,7.04-0.07,10.22c1.17,3.93,2.79,7.74,4.13,11.61
		c5.18,14.88,9.48,33.22,0.72,47.68c-3.58,5.9-9.32,10.61-16.14,12.11c-6.56,1.44-13.5-0.76-18.42-5.23
		c-12.39-11.26-11.77-28.96-8.7-44.07c1.45-7.11,4.3-13.85,5.69-20.95c0.83-4.25,1.35-10.71-3.44-12.5
		c-0.15-0.31-0.42-0.58-0.84-0.73c-9.43-3.24-15.48,5.63-17.85,13.47c-3.13,10.33-5.23,21.25-5.91,32.02
		c-1.17,18.61,3.44,38.18,17.43,51.33c12.85,12.09,30.96,14.28,46.8,6.9c17.03-7.94,26.87-25.07,29.27-43.23
		C376.18,293.32,368,271.65,354.63,254.06z"/>
	<path class="st0" d="M246.28,388.14c-0.23-0.39-0.53-0.63-0.86-0.81c-0.01-0.01-0.01-0.02-0.02-0.03c-3.62-3.43-10.7-1.81-13.44,2
		c-2.04,2.83-1.89,6.86-1.35,10.13c0.67,4.05,1.8,8.03,2.65,12.04c3.28,15.41,5.25,34.15-5.25,47.4
		c-4.29,5.41-10.57,9.36-17.53,9.99c-6.69,0.61-13.3-2.44-17.62-7.49c-10.88-12.72-8.06-30.21-3.12-44.81
		c2.33-6.88,6-13.2,8.27-20.07c1.36-4.12,2.67-10.45-1.85-12.83c-0.11-0.33-0.34-0.63-0.74-0.82c-8.96-4.39-16.06,3.65-19.4,11.13
		c-4.39,9.86-7.85,20.43-9.87,31.03c-3.49,18.31-1.36,38.31,10.87,53.11c11.24,13.6,28.93,18.04,45.57,12.7
		c17.89-5.75,29.8-21.51,34.45-39.23C262.75,429.79,257.34,407.26,246.28,388.14z"/>
</g>
<g id="ol">
	<path class="st1" d="M307.77,122.99c8.58,1.02,17.39-0.96,25.05-4.86c7.92-4.03,14.54-10.24,19.26-17.75
		c4.95-7.88,7.71-16.93,8.76-26.14c1.08-9.45,0.09-19.06-2.31-28.24c-1.22-4.68-3.07-9.19-5.14-13.55
		c-2.03-4.27-4.27-8.58-6.94-12.5c-1.39-2.04-2.9-3.99-4.39-5.95c-0.35-0.46-0.83-0.8-1.34-0.92c-4.55-2.7-11.76,0.2-13.29,5.25
		c-1.2,3.98,0.18,8.19,1.54,11.94c1.48,4.07,2.99,8.12,4.34,12.23c4.74,14.45,7.59,32.17-1.57,45.57
		c-3.66,5.34-9.36,9.43-15.77,10.64c-6.07,1.15-12.59-0.87-17.23-4.88c-4.96-4.29-8.37-10.17-9.94-16.52
		c-2.06-8.32-1.34-17.06,0.19-25.4c0.67-3.67,1.42-7.34,2.49-10.92c0.88-2.94,1.89-5.83,2.75-8.78c1.33-4.53,3.13-11.27-0.51-15.21
		c-0.54-0.59-1.25-0.97-2-1.21c-0.15-0.29-0.41-0.54-0.79-0.68c-4.27-1.57-8.76-0.25-12.01,2.78c-3.52,3.29-5.16,8.08-6.38,12.6
		c-2.81,10.37-4.97,21.04-5.46,31.8c-0.45,9.9,0.59,20.05,4.19,29.34c3.04,7.85,7.67,15.18,13.94,20.85
		C291.52,118.2,299.28,121.98,307.77,122.99z M271.27,72.68c-0.77-10.2,0.5-20.41,2.58-30.39c1.01-4.8,2.03-9.69,3.6-14.35
		c1.34-3.96,3.5-7.5,7.35-9.4c1.75-0.86,3.47-1.29,5.38-0.75c0.21,0.06,0.39,0.07,0.57,0.05c3.13,3.19,1.18,8.85,0.12,12.57
		c-0.85,2.96-1.87,5.87-2.78,8.81c-1.05,3.37-1.81,6.82-2.5,10.28c-1.67,8.43-2.6,17.09-1.21,25.63c1.12,6.88,4.02,13.36,8.62,18.63
		c4.21,4.82,9.97,8.67,16.39,9.66c7.07,1.08,14.18-1.26,19.79-5.58c12.7-9.78,15.26-27.05,12.15-41.94
		c-1.73-8.32-4.61-16.32-7.51-24.28c-1.3-3.57-3.45-7.87-2.53-11.76c0.51-2.14,3.05-3.46,5.24-3.83c0.78-0.13,1.52-0.1,2.21,0.2
		c2.31,3.93,4.6,7.88,6.85,11.85c2.15,3.79,4.14,7.7,5.77,11.75c3.35,8.33,5.5,16.93,5.67,25.94c0.31,16.68-5.78,34.42-19.56,44.66
		c-6.31,4.68-13.88,7.88-21.74,8.58c-7.84,0.69-15.55-1.1-22.22-5.29C279.62,104.97,272.47,88.56,271.27,72.68z"/>
	<path class="st1" d="M278.44,52.73c0.01,0,0.02,0,0.03,0.01C278.58,52.73,278.28,52.58,278.44,52.73z"/>
	<path class="st1" d="M277.72,55.21c1.39,0.49,2.99-0.19,4.08-1.06c2.21-1.77,2.95-4.98,2.79-7.69c-0.09-1.52-0.45-3.13-1.3-4.41
		c-0.83-1.25-2.73-2.84-4.27-1.77c-0.4,0.28-0.61,0.65-0.65,1.04c-1.04,0.77-1.76,2.56-2.1,3.43c-0.94,2.37-1.45,5.3-0.75,7.81
		C275.83,53.73,276.54,54.79,277.72,55.21z M278.4,52.71C278.31,52.67,278.27,52.6,278.4,52.71L278.4,52.71z M277.8,46.23
		c0.12-0.91,0.37-2.16,0.77-3.11c0.08-0.2,0.19-0.4,0.3-0.59c0.05,0.05,0.09,0.09,0.15,0.14c-0.28-0.21-0.13-0.08,0.07,0.06
		c0.22,0.16,0.44,0.23,0.69,0.31c0.08,0.02,0.17,0.05,0.26,0.07c0.01,0.01,0.01,0.01,0.02,0.01c0.06,0.04,0.13,0.09,0.2,0.13
		c0,0,0,0,0,0c0.07,0.08,0.16,0.16,0.24,0.24c0.01,0.01,0.02,0.02,0.03,0.03c0.11,0.18,0.23,0.35,0.34,0.54
		c0.05,0.1,0.1,0.2,0.15,0.3c0.01,0.02,0.02,0.03,0.02,0.04c0.01,0.02,0.02,0.05,0.03,0.09c0.17,0.51,0.31,1.01,0.41,1.54
		c0.02,0.11,0.04,0.22,0.06,0.33c0.01,0.05,0.01,0.1,0.02,0.15c0.02,0.29,0.04,0.57,0.05,0.86c0.01,0.29,0,0.58-0.02,0.86
		c-0.01,0.13-0.02,0.27-0.03,0.4c0,0.05-0.01,0.08-0.01,0.1c0,0.02-0.01,0.04-0.01,0.08c-0.1,0.56-0.22,1.1-0.42,1.63
		c-0.04,0.12-0.17,0.37-0.04,0.11c-0.05,0.11-0.11,0.23-0.16,0.34c-0.13,0.25-0.28,0.49-0.44,0.72c0,0,0,0,0,0
		c-0.02,0.03-0.05,0.06-0.07,0.08c-0.08,0.09-0.16,0.18-0.24,0.26c-0.08,0.08-0.17,0.16-0.26,0.24c0,0,0,0,0,0
		c-0.06,0.04-0.12,0.08-0.18,0.12c-0.1,0.07-0.21,0.12-0.31,0.18c-0.04,0.02-0.09,0.04-0.14,0.07c-0.2,0.07-0.41,0.14-0.63,0.18
		c0.02,0.01,0.04,0.01,0.07,0.02c-0.03-0.01-0.06-0.01-0.1-0.02c0,0,0,0,0,0c0,0,0,0,0,0c-0.04-0.01-0.08-0.02-0.12-0.03
		c0,0,0,0,0,0c-0.02,0-0.04-0.01-0.06-0.02c-0.09-0.09-0.22-0.26-0.23-0.25c-0.09-0.14-0.17-0.28-0.25-0.43c0-0.01,0-0.01-0.01-0.01
		c0-0.01-0.01-0.02-0.01-0.05c-0.03-0.1-0.07-0.2-0.1-0.3c-0.07-0.24-0.12-0.49-0.17-0.74c-0.01-0.05-0.02-0.11-0.03-0.16
		c-0.01-0.11-0.02-0.22-0.03-0.33c-0.02-0.29-0.04-0.58-0.04-0.87C277.53,48.37,277.65,47.35,277.8,46.23z"/>
	<path class="st1" d="M278.58,52.77C278.59,52.77,278.59,52.77,278.58,52.77c0.01,0,0.02,0,0.03-0.01c-0.01,0-0.01,0-0.02-0.01
		C278.6,52.76,278.59,52.76,278.58,52.77z"/>
	<path class="st1" d="M278.6,52.76C278.6,52.72,278.43,52.7,278.6,52.76L278.6,52.76z"/>
	<path class="st1" d="M283.71,84.87c0.71-0.79,1.28-1.83,1.26-2.92c0-0.28-0.07-0.57-0.12-0.85c0-0.01,0-0.02,0-0.03
		c0-0.03-0.01-0.06-0.01-0.09c-0.02-0.18-0.04-0.37-0.07-0.55c-0.08-0.6-0.17-1.2-0.25-1.81c-0.34-2.32-0.83-5.13-2.77-6.69
		c-0.53-0.43-1.13-0.76-1.8-0.92c-0.76-0.18-1.91,0.11-2.08,0.93c-2.42,0.99-2.99,3.59-2.77,5.99c0.18,1.99,0.65,4.2,1.78,5.89
		c0.87,1.3,2.1,2.46,3.74,2.53C281.81,86.39,282.94,85.74,283.71,84.87z M284.85,81.04C284.84,80.99,284.84,80.96,284.85,81.04
		L284.85,81.04z M282.56,82.08C282.55,82.01,282.58,81.88,282.56,82.08L282.56,82.08z M282.52,82.41c-0.03,0.11-0.07,0.22-0.11,0.34
		c-0.02,0.04-0.04,0.08-0.06,0.12c-0.05,0.09-0.1,0.18-0.15,0.27c-0.06,0.1-0.13,0.2-0.2,0.3c0.15-0.2-0.12,0.13-0.18,0.18
		c-0.26,0.25-0.53,0.41-0.91,0.51c-0.04,0.01-0.08,0.02-0.12,0.02c-0.01,0-0.02,0-0.04,0c-0.05,0-0.35-0.01-0.23,0
		c-0.13-0.01-0.43-0.12-0.58-0.2c-0.58-0.33-1.07-0.91-1.45-1.51c-0.12-0.18-0.23-0.36-0.32-0.56c-0.03-0.07-0.06-0.13-0.09-0.2
		c-0.01-0.01,0-0.01-0.01-0.01c-0.01-0.01,0-0.01-0.01-0.04c-0.17-0.42-0.32-0.85-0.45-1.29c-0.33-1.11-0.54-2.12-0.58-3.18
		c-0.01-0.27-0.01-0.53,0-0.8c0.01-0.14,0.02-0.28,0.03-0.42c0-0.01,0.02-0.15,0.05-0.3c0.11-0.57,0.21-0.84,0.5-1.28
		c0.01-0.01,0.03-0.05,0.05-0.07c0.03-0.04,0.06-0.07,0.09-0.11c0.08-0.08,0.16-0.16,0.25-0.24c0.02-0.01,0.16-0.11,0.18-0.13
		c0.06-0.04,0.31-0.17,0.28-0.15c0.16-0.07,0.29-0.17,0.41-0.28c0.26,0.1,0.53,0.17,0.79,0.25c0.05,0.03,0.1,0.05,0.16,0.08
		c0.1,0.05,0.19,0.12,0.28,0.18c-0.27-0.16,0.03,0.03,0.1,0.1c0.11,0.1,0.2,0.21,0.3,0.31c0.02,0.03,0.04,0.04,0.05,0.05
		c0.01,0.02,0.02,0.04,0.05,0.07c0.07,0.11,0.15,0.23,0.22,0.34c0.06,0.1,0.12,0.21,0.17,0.32c0.03,0.06,0.14,0.3,0.16,0.34
		c0.21,0.53,0.38,1.08,0.51,1.63c0.28,1.16,0.45,2.34,0.63,3.52c0.04,0.26,0.09,0.52,0.14,0.77c0.03,0.13,0.06,0.59,0.15,0.7
		c-0.01,0.09-0.01,0.18-0.01,0.26C282.54,82.04,282.56,82.28,282.52,82.41z"/>
	<path class="st1" d="M285.9,98.25c-0.05,0.02-0.1,0.04-0.16,0.05c-0.01,0-0.02,0.01-0.03,0.01
		C285.8,98.32,285.87,98.28,285.9,98.25z"/>
	<path class="st1" d="M290.84,107.01c1.06,0.41,2.29,0.54,3.34,0.01c1.28-0.65,1.77-2.14,1.82-3.49c0.11-3.08-2.37-5.7-4.86-7.14
		c-1.37-0.79-2.97-1.35-4.58-1.36c-1.56,0-4,0.81-3.89,2.74c0.02,0.4,0.24,0.82,0.55,1.1c0.12,1.19,1.1,2.59,1.61,3.29
		C286.37,104.25,288.4,106.07,290.84,107.01z M292.22,104.85C292.11,104.84,292.1,104.82,292.22,104.85L292.22,104.85z
		 M292.86,104.81C292.93,104.77,293,104.78,292.86,104.81L292.86,104.81z M293.09,104.65c-0.01,0-0.02,0.02-0.05,0.07c0,0,0,0,0,0
		c0.03-0.04,0.05-0.07,0.06-0.1C293.09,104.63,293.09,104.64,293.09,104.65z M284.53,99.07c0.34-0.14,0.65-0.29,0.93-0.56
		c0.03-0.03,0.1-0.09,0.16-0.14c0.03-0.02,0.05-0.03,0.08-0.05c0.01,0,0.01-0.01,0.02-0.01c-0.01,0-0.02,0.01-0.04,0
		c0.01,0,0.04-0.01,0.06-0.02c0.04-0.02,0.08-0.04,0.11-0.06c0.07-0.04,0.07-0.02,0.05,0.01c0.02-0.01,0.05-0.02,0.06-0.02
		c0.07-0.02,0.14-0.03,0.21-0.05c0.06-0.01,0.13-0.02,0.14-0.02c0.22-0.01,0.45-0.01,0.67,0.01c0.04,0,0.09,0.01,0.13,0.01
		c0.13,0.03,0.26,0.04,0.39,0.07c0.52,0.12,1.02,0.29,1.52,0.49c0.05,0.02,0.14,0.06,0.2,0.09c0.12,0.06,0.25,0.12,0.37,0.18
		c0.28,0.14,0.55,0.3,0.81,0.47c0.13,0.08,0.26,0.17,0.39,0.26c0.03,0.02,0.2,0.14,0.25,0.18c0.01,0.01,0.03,0.02,0.03,0.03
		c0.07,0.06,0.13,0.11,0.2,0.17c0.12,0.1,0.23,0.21,0.35,0.31c0.21,0.2,0.41,0.41,0.6,0.63c0.06,0.06,0.14,0.17,0.16,0.19
		c0.07,0.1,0.15,0.2,0.22,0.31c0.14,0.22,0.27,0.44,0.38,0.67c0.01,0.01,0.03,0.07,0.05,0.12c0,0.01,0.01,0.02,0.01,0.03
		c0.05,0.15,0.1,0.29,0.14,0.45c0.03,0.12,0.06,0.24,0.08,0.36c0,0.01,0,0.02,0,0.02c0,0.05,0.01,0.11,0.01,0.12
		c0,0.12,0.01,0.25,0.01,0.37c0,0.06-0.01,0.13-0.01,0.19c0,0.01,0,0.01,0,0.02c0,0,0,0,0,0c-0.05,0.23-0.11,0.45-0.18,0.67
		c-0.03,0.04-0.08,0.1-0.11,0.14c-0.04,0.02-0.1,0.05-0.15,0.08c-0.02,0-0.02,0.01-0.04,0.01c-0.03,0.01-0.11,0.02-0.16,0.03
		c-0.04,0-0.09,0.01-0.1,0.01c-0.09,0-0.17,0-0.26-0.01c-0.03,0-0.05,0-0.07-0.01c-0.1-0.02-0.2-0.04-0.29-0.06
		c-0.2-0.05-0.39-0.11-0.59-0.17c-0.11-0.04-0.21-0.08-0.32-0.12c-0.07-0.03-0.13-0.06-0.2-0.09c-0.48-0.22-0.94-0.49-1.38-0.77
		c-1.02-0.65-1.65-1.16-2.51-1.88c-0.81-0.68-1.63-1.48-2.17-2.29C284.66,99.31,284.59,99.19,284.53,99.07z"/>
	<path class="st1" d="M301.23,110.67c0.14,2.64,2.53,4,4.86,4.55c1.97,0.47,4.23,0.68,6.21,0.13c1.29-0.37,2.67-1.07,3.29-2.33
		c0.53-1.08,0.46-2.26-0.01-3.34c-0.39-0.89-1.02-1.68-1.83-2.22c-0.84-0.55-1.97-0.6-2.94-0.78c-2.61-0.48-5.87-1.22-8.3,0.27
		c-0.62,0.38-1.16,0.9-1.54,1.53C300.58,109.14,300.56,110.26,301.23,110.67z M310.87,113.54
		C310.77,113.56,310.79,113.55,310.87,113.54L310.87,113.54z M312.24,109.42c-0.03,0-0.05-0.01-0.05-0.01
		C312.19,109.41,312.21,109.41,312.24,109.42z M303.38,109.6C303.39,109.58,303.39,109.58,303.38,109.6L303.38,109.6z
		 M303.33,109.68c0-0.01,0-0.01,0.01-0.01c0.06-0.07,0.12-0.14,0.19-0.21c0.05-0.05,0.22-0.18,0.21-0.18
		c0.09-0.06,0.17-0.11,0.26-0.16c0.05-0.03,0.23-0.1,0.25-0.12c0.14-0.05,0.27-0.1,0.42-0.13c0.14-0.04,0.28-0.07,0.43-0.1
		c0.06-0.01,0.12-0.02,0.18-0.03c0.01,0,0.01,0,0.03,0c0.33-0.02,0.66-0.05,1-0.04c0.66,0,1.32,0.06,1.97,0.14
		c0.06,0.01,0.26,0.04,0.32,0.04c0.16,0.02,0.32,0.05,0.48,0.08c0.35,0.06,0.7,0.12,1.05,0.18c0.65,0.11,1.3,0.21,1.95,0.28
		c0.06,0.01,0.12,0.01,0.18,0.02c0.01,0,0.02,0,0.03,0c0.05,0.01,0.1,0.03,0.11,0.03c0.01,0,0.01,0,0.02,0
		c0.07,0.05,0.16,0.08,0.23,0.13c0.01,0.01,0.07,0.05,0.12,0.08c0.05,0.04,0.13,0.1,0.15,0.12c0.14,0.12,0.26,0.26,0.37,0.4
		c0.03,0.04,0.09,0.11,0.11,0.15c0.06,0.09,0.11,0.18,0.16,0.27c0.02,0.05,0.06,0.13,0.07,0.17c0.03,0.1,0.07,0.19,0.09,0.29
		c0.02,0.07,0.03,0.14,0.04,0.2c0,0.01,0.01,0.12,0.01,0.19c0,0.07-0.01,0.13-0.01,0.2c0-0.02-0.03,0.16-0.05,0.24
		c-0.01,0.04-0.02,0.08-0.04,0.11c0,0,0,0,0,0c-0.06,0.1-0.11,0.2-0.17,0.29c0,0,0,0,0,0c-0.04,0.04-0.08,0.09-0.12,0.13
		c-0.03,0.03-0.33,0.3-0.2,0.19c-0.56,0.44-1.22,0.66-1.91,0.83c-0.13,0.03-0.26,0.06-0.4,0.09c0,0,0,0,0,0
		c-0.16,0.01-0.31,0.03-0.47,0.04c-0.44,0.03-0.88,0.03-1.32,0.01c-0.53-0.02-1.06-0.06-1.59-0.13c-0.05-0.01-0.22-0.03-0.26-0.04
		c-0.14-0.02-0.28-0.05-0.41-0.07c-0.31-0.06-0.62-0.13-0.92-0.22c-0.61-0.17-0.93-0.29-1.45-0.59c-0.11-0.06-0.22-0.13-0.33-0.2
		c-0.15-0.1-0.1-0.07-0.18-0.13c-0.09-0.08-0.18-0.16-0.27-0.25c-0.04-0.04-0.08-0.09-0.12-0.13c-0.02-0.03-0.03-0.04-0.04-0.04
		c0,0,0,0-0.01-0.01c-0.07-0.1-0.13-0.2-0.19-0.3c-0.03-0.05-0.06-0.11-0.08-0.16c0-0.01,0,0,0-0.01c0-0.01,0,0-0.01-0.02
		c-0.1-0.29-0.13-0.45-0.14-0.64c-0.01-0.17-0.06-0.3-0.13-0.42c0.05-0.06,0.1-0.11,0.14-0.17
		C303.18,109.93,303.26,109.8,303.33,109.68z"/>
	<path class="st1" d="M346.83,46.64c0.01-0.01,0.01-0.01,0.02-0.02c-0.01,0.01-0.02,0.01-0.03,0.03
		C346.82,46.65,346.83,46.65,346.83,46.64z"/>
	<path class="st1" d="M346.63,49.34c1.37-0.06,2.41-1.01,2.84-2.27c0.41-1.19,0.29-2.51,0.09-3.73c-0.22-1.38-0.65-2.71-1.27-3.96
		c-0.59-1.18-1.3-2.38-2.24-3.32c-0.23-0.23-0.51-0.46-0.81-0.64c-0.07-0.38-0.27-0.72-0.64-0.9c-0.88-0.43-1.69-0.29-2.48,0.25
		c-0.56,0.38-1.01,0.87-1.35,1.45c-0.69,1.14-0.95,2.54-1,3.85c-0.09,2.7,0.86,5.89,2.93,7.74
		C343.75,48.76,345.16,49.4,346.63,49.34z M346.8,46.67c0,0,0.01,0,0.01,0C346.78,46.7,346.78,46.7,346.8,46.67z M344.08,37.25
		c0,0-0.06,0.03-0.12,0.05C344.02,37.27,344.07,37.24,344.08,37.25z M342.86,40.12c0.01-0.14,0.01-0.28,0.03-0.43
		c0.01-0.08,0.03-0.21,0.04-0.28c0.04-0.24,0.08-0.47,0.15-0.7c0.03-0.12,0.07-0.24,0.11-0.36c0.01-0.04,0.03-0.08,0.05-0.13
		c0.1-0.19,0.2-0.38,0.32-0.57c0.01-0.01,0.01-0.01,0.01-0.02c0.01-0.01,0.01-0.01,0.02-0.01c0.07-0.07,0.15-0.14,0.22-0.22
		c0.01,0,0.01-0.01,0.03-0.01c0.02-0.01,0.06-0.04,0.11-0.07c0.15-0.05,0.31-0.1,0.45-0.18c0.23-0.13,0.33-0.27,0.5-0.44
		c0.01-0.01,0.02-0.03,0.03-0.04c0.05,0.06,0.1,0.12,0.14,0.18c0.56,0.78,0.93,1.69,1.23,2.6c0.36,1.09,0.66,2.23,0.88,3.35
		c0.02,0.13,0.05,0.26,0.07,0.39c0.01,0.08,0.05,0.37,0.04,0.29c-0.01-0.09,0.02,0.22,0.03,0.28c0.02,0.16,0.03,0.32,0.04,0.48
		c0.01,0.25,0.02,0.51,0.01,0.76c0,0.11-0.01,0.23-0.02,0.34c0,0.05-0.01,0.09-0.01,0.14c0,0,0,0,0,0.01
		c-0.04,0.21-0.08,0.41-0.14,0.61c-0.01,0.02-0.03,0.09-0.05,0.14c-0.03,0.05-0.07,0.13-0.08,0.16c-0.04,0.07-0.09,0.14-0.14,0.21
		c0.18-0.3,0.05-0.08-0.03,0.01c0,0,0,0,0,0c0.01,0,0.02-0.01,0.02-0.01c0,0-0.01,0.02-0.04,0.03c-0.01,0.01-0.01,0.01-0.02,0.02
		c0,0-0.01,0-0.01,0c0,0,0.01-0.01,0.01-0.01c-0.01,0.01-0.02,0.01-0.04,0.02c-0.04,0.01-0.12,0.03-0.16,0.05
		c-0.04,0-0.09,0-0.1-0.01c-0.03-0.01-0.13-0.02-0.18-0.02c-0.14-0.03-0.27-0.05-0.41-0.09c-0.11-0.03-0.21-0.07-0.31-0.1
		c-0.04-0.02-0.08-0.04-0.12-0.06c-0.1-0.06-0.21-0.11-0.3-0.17c-0.05-0.03-0.21-0.15-0.26-0.18c-0.15-0.13-0.3-0.26-0.43-0.4
		c-0.08-0.09-0.16-0.18-0.24-0.27c-0.04-0.06-0.09-0.12-0.13-0.18c-0.14-0.21-0.27-0.42-0.39-0.64c-0.07-0.13-0.13-0.26-0.2-0.39
		c-0.02-0.05-0.04-0.1-0.07-0.15c0,0,0-0.01,0-0.01c-0.19-0.53-0.36-1.06-0.48-1.62c-0.03-0.13-0.05-0.26-0.07-0.39
		c-0.01-0.06-0.02-0.12-0.02-0.17c-0.03-0.27-0.05-0.55-0.06-0.82C342.84,40.74,342.85,40.43,342.86,40.12z"/>
	<path class="st1" d="M348.28,64.87c-2.83,0.87-3.48,4.21-3.61,6.76c-0.06,1.23-0.04,2.46-0.01,3.69c0.03,1.05,0.06,1.93,0.7,2.82
		c0.64,0.9,1.55,1.64,2.62,1.97c1.25,0.39,2.53,0.02,3.51-0.82c1.78-1.54,2.25-4.08,2.38-6.31c0.14-2.22-0.06-5.1-1.93-6.61
		c-0.49-0.39-1.05-0.67-1.66-0.81c-0.02-0.01-0.04,0-0.06,0c-0.06-0.16-0.15-0.29-0.28-0.42C349.5,64.73,348.82,64.7,348.28,64.87z
		 M351.5,69.03c0.39,1.12,0.43,2.04,0.38,3.26c-0.01,0.26-0.03,0.53-0.05,0.79c-0.01,0.13-0.02,0.25-0.04,0.38
		c-0.01,0.06-0.01,0.12-0.02,0.19c0,0.02,0,0.03-0.01,0.05c0,0.01,0,0.02-0.01,0.04c-0.06,0.44-0.14,0.87-0.24,1.3
		c-0.24,1.02-0.74,1.99-1.48,2.67c-0.01,0.01-0.05,0.04-0.09,0.07c-0.04,0.03-0.15,0.1-0.14,0.09c-0.04,0.03-0.2,0.1-0.22,0.12
		c-0.09,0.03-0.17,0.05-0.26,0.08c-0.02,0-0.03,0.01-0.05,0.01c0,0-0.11,0.01-0.15,0.01c-0.08,0-0.15-0.01-0.23-0.01
		c-0.01-0.01-0.13-0.02-0.2-0.04c-0.07-0.02-0.14-0.05-0.21-0.07c0.04,0.01-0.2-0.09-0.26-0.13c-0.09-0.05-0.18-0.11-0.27-0.17
		c0,0,0,0,0,0c-0.03-0.02-0.06-0.05-0.09-0.08c-0.08-0.07-0.15-0.15-0.23-0.23c-0.05-0.05-0.16-0.2-0.17-0.21
		c-0.09-0.14-0.18-0.28-0.26-0.43c-0.01-0.02-0.02-0.04-0.03-0.05c0-0.01,0-0.01,0-0.02c-0.03-0.09-0.05-0.19-0.08-0.28
		c0,0,0,0,0-0.01c0,0,0,0,0,0c0.01-0.07,0-0.16,0.01-0.24c0.02-0.26,0.04-0.53,0.05-0.79c0.03-0.58,0.02-1.16,0.02-1.74
		c0-0.65,0.01-1.3,0.05-1.96c0.02-0.3,0.04-0.6,0.08-0.9c0.01-0.05,0.01-0.1,0.02-0.14c0-0.02,0.01-0.05,0.01-0.07
		c0.03-0.18,0.06-0.36,0.1-0.54c0.06-0.28,0.13-0.55,0.21-0.82c0.04-0.13,0.09-0.26,0.13-0.39c0,0,0,0,0-0.01
		c0.04-0.08,0.07-0.15,0.11-0.23c0.06-0.11,0.12-0.23,0.19-0.34c0.04-0.06,0.13-0.18,0.14-0.2c0.07-0.08,0.14-0.16,0.21-0.23
		c0.04-0.04,0.09-0.08,0.14-0.13c0,0,0,0,0,0c0.12-0.07,0.24-0.15,0.36-0.22c0.02-0.01,0.04-0.02,0.05-0.03
		c0.02,0,0.04-0.01,0.1-0.03c0.14-0.05,0.25-0.11,0.36-0.17c0.09,0.07,0.2,0.13,0.34,0.16C350.67,67.58,351.2,68.19,351.5,69.03z
		 M350.29,66.09C350.38,65.81,350.33,66.33,350.29,66.09L350.29,66.09z"/>
	<path class="st1" d="M339,100.65c0.01,0,0.01,0,0.02,0c0.01,0,0.02,0,0.03-0.01c-0.03,0-0.05,0-0.07,0.01
		C338.99,100.65,339,100.65,339,100.65z"/>
	<path class="st1" d="M338.83,100.65c0.01,0,0.02,0,0.03,0c-0.03-0.01-0.06-0.02-0.09-0.02
		C338.79,100.64,338.81,100.64,338.83,100.65z"/>
	<path class="st1" d="M343.98,92.43c-0.06-0.01-0.11-0.02-0.17-0.04c-0.01,0-0.02,0-0.03,0C343.92,92.45,343.99,92.45,343.98,92.43z
		"/>
	<path class="st1" d="M337.44,102.86c1.11,0.56,2.34,0.35,3.39-0.25c1.02-0.59,1.86-1.47,2.58-2.38c0.87-1.1,1.56-2.25,2.1-3.54
		c0.48-1.14,0.88-2.36,0.96-3.6c0.02-0.26,0-0.54-0.04-0.82c0.25-0.35,0.35-0.82,0.26-1.23c-0.41-1.75-2.63-1.95-4.08-1.66
		c-1.38,0.28-2.67,1.1-3.72,2.02c-2.09,1.84-3.91,4.78-3.6,7.67C335.42,100.49,336.08,102.18,337.44,102.86z M338.59,100.53
		C338.59,100.53,338.59,100.53,338.59,100.53c-0.01,0-0.02-0.01-0.02-0.01C338.51,100.49,338.41,100.38,338.59,100.53z
		 M338.72,100.64c0-0.01,0.01-0.01,0.02-0.01c0.02,0.01,0.04,0.01,0.05,0.02C338.74,100.65,338.72,100.64,338.72,100.64z
		 M338.02,98.52c0-0.09,0.03-0.25,0.04-0.31c0.05-0.24,0.09-0.47,0.16-0.7c0.04-0.12,0.08-0.25,0.12-0.37
		c0.02-0.06,0.05-0.12,0.07-0.18c0-0.01,0-0.01,0-0.01c0,0,0,0,0.01-0.01c0.27-0.53,0.54-1.05,0.89-1.53
		c0.04-0.06,0.08-0.12,0.13-0.17c0.08-0.1,0.16-0.2,0.24-0.29c0.2-0.23,0.41-0.46,0.63-0.67c0.24-0.24,0.5-0.45,0.76-0.67
		c0,0,0,0,0,0c0.05-0.04,0.1-0.08,0.15-0.11c0.13-0.09,0.26-0.19,0.39-0.28c0.26-0.17,0.52-0.33,0.8-0.46
		c0.05-0.03,0.11-0.05,0.16-0.08c0.06-0.03,0.08-0.05,0.1-0.06c0.09-0.03,0.19-0.05,0.25-0.07c0.13-0.04,0.26-0.08,0.39-0.11
		c0.04-0.01,0.07-0.01,0.11-0.02c0.1-0.01,0.2-0.02,0.3-0.01c0.02,0,0.04,0,0.06,0c-0.02-0.01-0.03-0.01-0.05-0.02
		c0.02,0.01,0.05,0.02,0.08,0.02c0.02,0,0.04,0,0.05,0c0.08,0,0.11,0.02,0.12,0.04c0.02,0,0.04,0.01,0.05,0.01
		c0.01,0,0.02,0,0.03,0.01c0.39,0.23,0.75,0.31,1.18,0.35c-0.01,0.04-0.02,0.08-0.03,0.13c-0.22,0.89-0.59,1.6-1.08,2.42
		c-0.29,0.48-0.59,0.95-0.92,1.4c-0.15,0.21-0.3,0.41-0.45,0.62c-0.08,0.12-0.17,0.23-0.25,0.35c-0.02,0.03-0.12,0.16-0.16,0.22
		c-0.33,0.43-0.69,0.84-1.07,1.23c-0.17,0.18-0.35,0.35-0.54,0.51c-0.09,0.08-0.19,0.16-0.29,0.25c-0.03,0.03-0.05,0.05-0.07,0.06
		c-0.02,0.01-0.04,0.03-0.07,0.05c-0.17,0.12-0.33,0.23-0.51,0.33c-0.09,0.05-0.19,0.1-0.28,0.15c-0.03,0.01-0.04,0.02-0.06,0.03
		c-0.01,0-0.01,0-0.02,0c-0.03,0.01-0.28,0.08-0.42,0.12c0.08,0,0.16,0.01-0.03,0.01c-0.03,0.01-0.06,0.02-0.06,0.01
		c0-0.01,0.01-0.01,0.02-0.01c-0.03,0-0.07,0-0.13,0c0.05,0.02,0.08,0.03-0.03,0c-0.02,0-0.03,0-0.04,0
		c-0.01-0.01-0.02-0.01-0.02-0.02c0,0,0,0,0.01,0c0,0-0.01,0-0.01,0c-0.05-0.03-0.1-0.07-0.16-0.09c0,0,0,0,0,0
		c-0.13-0.18-0.24-0.37-0.34-0.56c-0.01-0.01-0.03-0.07-0.05-0.12c0-0.01-0.01-0.03-0.01-0.03c-0.05-0.15-0.09-0.29-0.13-0.44
		c-0.02-0.1-0.06-0.55-0.03-0.13c-0.01-0.12-0.02-0.24-0.02-0.36C338.01,98.76,338.01,98.64,338.02,98.52z"/>
	<path class="st1" d="M320.37,112.64c2.05,1.07,4.43,0.78,6.57,0.21c2.22-0.59,4.89-1.7,5.75-4.04c0.19-0.53,0.26-1.11,0.2-1.67
		c0-0.03-0.02-0.05-0.02-0.08c0.69-0.53,0.37-1.72-0.16-2.33c-2.08-2.42-5.74-1.58-8.36-0.74c-1.17,0.38-2.38,0.73-3.51,1.22
		c-0.83,0.36-1.49,1.11-1.89,1.91C317.96,109.11,318.24,111.54,320.37,112.64z M330.49,106.22
		C330.57,106.27,330.53,106.25,330.49,106.22L330.49,106.22z M320.71,108.67c0.01-0.02,0.01-0.04,0.01-0.05
		c0.01-0.01,0.02-0.03,0.03-0.06c0.09-0.18,0.19-0.34,0.3-0.51c0.01-0.02,0.03-0.04,0.05-0.06c0.07-0.07,0.13-0.15,0.19-0.22
		c0.06-0.06,0.13-0.12,0.19-0.18c0.06-0.03,0.13-0.08,0.19-0.12c0,0,0.01,0,0.01-0.01c0,0,0,0,0,0c0.52-0.08,1.05-0.27,1.55-0.43
		c1.35-0.45,2.7-0.92,4.1-1.18c0.15-0.03,0.3-0.05,0.46-0.08c0.04,0,0.28-0.03,0.34-0.03c0.34-0.03,0.68-0.02,1.03-0.01
		c0.07,0,0.11,0,0.12,0c0.02,0,0.04,0.01,0.1,0.02c0.15,0.03,0.29,0.06,0.44,0.11c0.07,0.02,0.14,0.05,0.21,0.07
		c0.14,0.07,0.28,0.16,0.42,0.24c0.01,0.01,0.01,0.01,0.02,0.01c0.05,0.05,0.1,0.09,0.15,0.14c0.11,0.11,0.21,0.23,0.31,0.35
		c0.05,0.05,0.1,0.09,0.15,0.14c-0.04,0.1-0.06,0.21-0.06,0.32c0.01,0.14,0.01,0.27,0.01,0.41c0,0.05,0,0.11-0.01,0.17
		c0,0.02-0.01,0.05-0.01,0.06c-0.05,0.27-0.14,0.49-0.2,0.6c-0.13,0.23-0.24,0.39-0.33,0.49c-0.18,0.2-0.38,0.4-0.6,0.56
		c0.09-0.07-0.18,0.12-0.21,0.14c-0.11,0.08-0.23,0.15-0.35,0.22c-0.26,0.15-0.53,0.29-0.8,0.41c-0.37,0.17-1.01,0.39-1.53,0.54
		c-0.53,0.15-1.07,0.28-1.61,0.37c-0.2,0.04-0.39,0.07-0.59,0.09c-0.05,0.01-0.15,0.02-0.18,0.02c-0.12,0.01-0.24,0.02-0.35,0.03
		c-0.35,0.03-0.69,0.03-1.04,0c-0.62-0.06-1.32-0.24-1.73-0.45c-0.12-0.06-0.23-0.13-0.34-0.2c-0.01-0.01-0.01-0.01-0.02-0.01
		c-0.04-0.03-0.08-0.07-0.12-0.1c-0.02-0.02-0.12-0.12-0.16-0.17c-0.03-0.05-0.12-0.18-0.14-0.22c-0.03-0.04-0.03-0.05-0.04-0.06
		c0-0.01,0,0,0-0.02c-0.03-0.1-0.06-0.19-0.08-0.29c-0.01-0.03-0.01-0.05-0.02-0.08c0-0.11,0-0.22-0.01-0.33
		c0-0.04,0.01-0.08,0.01-0.13c0.02-0.08,0.03-0.16,0.05-0.24C320.65,108.86,320.69,108.77,320.71,108.67z"/>
	<path class="st1" d="M189.34,231.18c8.42,2.22,17.49,1.57,25.67-1.3c8.4-2.95,15.84-8.11,21.53-14.96
		c5.79-6.98,9.77-15.3,12.05-24.07c2.41-9.31,2.8-19.02,1.63-28.54c-0.6-4.92-1.76-9.71-3.29-14.42c-1.53-4.72-3.32-9.5-5.55-13.94
		c-1.14-2.27-2.43-4.45-3.71-6.64c-0.24-0.41-0.62-0.69-1.05-0.85c-3.97-3.31-11.66-1.3-13.77,3.28c-1.74,3.77-1.05,8-0.18,11.89
		c0.93,4.2,1.94,8.38,2.78,12.59c2.89,14.58,3.8,32.58-6.47,44.7c-4.3,5.07-10.51,8.92-17.26,9.36c-6.32,0.41-12.36-2.19-16.69-6.77
		c-11.01-11.62-9.08-28.75-4.69-42.78c1.1-3.51,2.26-7.04,3.74-10.41c1.27-2.89,2.68-5.71,3.93-8.6c1.88-4.33,4.65-10.89,1.44-15.27
		c-0.47-0.64-1.08-1.08-1.76-1.41c-0.09-0.3-0.28-0.57-0.6-0.74c-3.99-2.07-8.61-1.58-12.22,1.03c-3.92,2.83-6.14,7.15-7.96,11.51
		c-4.08,9.77-7.53,19.94-9.4,30.38c-1.76,9.8-2.11,19.95,0.14,29.7c1.91,8.28,5.61,16.18,11.03,22.74
		C173.99,224.11,181.21,229.04,189.34,231.18z M160.29,175.42c0.65-9.93,3.25-19.63,6.5-29c1.55-4.47,3.1-9.05,5.22-13.29
		c1.85-3.7,4.43-7.03,8.52-8.31c1.93-0.61,3.59-0.78,5.49,0.02c0.13,0.05,0.25,0.08,0.37,0.09c2.64,3.59,0.15,8.79-1.4,12.43
		c-1.22,2.86-2.62,5.63-3.9,8.46c-1.48,3.28-2.7,6.67-3.84,10.08c-4.85,14.56-7.28,31.49,2.05,44.84c3.77,5.4,9.05,9.88,15.51,11.59
		c6.84,1.81,14.29,0.1,20.24-3.54c13.48-8.24,18.06-25.02,16.75-39.98c-0.75-8.64-2.63-17.09-4.55-25.53
		c-0.81-3.57-2.29-7.94-0.81-11.53c0.79-1.91,3.42-2.8,5.42-2.91c0.79-0.04,1.7,0.02,2.36,0.46c0,0,0,0,0,0
		c1.85,4.3,3.7,8.63,5.46,12.97c1.75,4.33,3.26,8.75,4.4,13.28c2.21,8.8,3.06,17.69,1.9,26.72c-2.1,16.39-10.66,32.5-25.46,40.66
		c-6.96,3.84-14.96,5.83-22.91,5.41c-7.73-0.41-15.16-3.38-21.03-8.43C163.88,208.98,159.22,191.67,160.29,175.42z"/>
	<path class="st1" d="M169.78,157.98c0.01,0.01,0.03,0.01,0.05,0.01c-0.01-0.01-0.01-0.01-0.02-0.02
		C169.79,157.98,169.78,157.98,169.78,157.98z"/>
	<path class="st1" d="M169.13,160.5c1.26,0.45,2.88-0.02,3.95-0.75c2.42-1.64,3.48-4.68,3.63-7.5c0.08-1.52-0.17-3.11-0.87-4.48
		c-0.73-1.42-2.43-2.84-4.06-1.99c-0.34,0.18-0.55,0.51-0.63,0.87c-1.14,0.66-2.11,2.42-2.54,3.21c-1.25,2.34-2.12,5.26-1.63,7.92
		C167.21,159,167.95,160.07,169.13,160.5z M172.27,156.76C172.23,156.82,172.18,156.87,172.27,156.76L172.27,156.76z M169.3,154.87
		c0.04-0.47,0.11-0.89,0.24-1.51c0.12-0.57,0.26-1.15,0.41-1.71c0.28-1.11,0.64-2.22,1.22-3.21c0.1-0.17,0.21-0.34,0.32-0.49
		c0.01,0.01,0.01,0.01,0.01,0.02c0.29,0.28,0.56,0.47,0.94,0.61c0.07,0.05,0.15,0.1,0.23,0.13c0,0,0,0,0.01,0.01
		c0.06,0.07,0.13,0.14,0.19,0.2c0,0,0,0,0.01,0.01c0.05,0.08,0.11,0.16,0.16,0.25c0.06,0.1,0.11,0.21,0.16,0.31
		c0.01,0.01,0.01,0.02,0.01,0.03c0.05,0.22,0.15,0.43,0.21,0.65c0.06,0.24,0.09,0.49,0.15,0.73c0,0.02,0.01,0.05,0.01,0.07
		c0.01,0.14,0.02,0.28,0.03,0.43c0.04,0.55,0.03,1.11-0.01,1.66c-0.01,0.11-0.02,0.22-0.03,0.33c-0.01,0.04-0.02,0.15-0.04,0.23
		c-0.05,0.28-0.11,0.56-0.18,0.83c-0.07,0.27-0.15,0.54-0.25,0.8c-0.03,0.08-0.06,0.17-0.1,0.25c-0.01,0.01-0.09,0.19-0.12,0.27
		c-0.12,0.24-0.25,0.48-0.39,0.7c-0.07,0.1-0.14,0.2-0.21,0.31c0,0.01-0.01,0.01-0.01,0.02c-0.03,0.04-0.06,0.07-0.09,0.1
		c-0.17,0.19-0.35,0.37-0.54,0.54c-0.03,0.03-0.03,0.03-0.05,0.05c-0.01,0-0.01,0-0.03,0.02c-0.11,0.07-0.22,0.15-0.34,0.22
		c-0.09,0.05-0.18,0.09-0.27,0.14c-0.03,0.01-0.12,0.05-0.2,0.07c-0.11,0.04-0.23,0.07-0.35,0.1c-0.06,0.01-0.19,0.03-0.25,0.04
		c-0.17,0-0.36-0.05-0.06,0.04c-0.07-0.02-0.16-0.04-0.24-0.06c0,0,0,0,0,0c-0.01,0-0.02-0.01-0.03-0.01c0,0-0.01,0-0.01,0
		c0,0,0,0,0,0c0,0,0,0,0,0c0,0,0,0,0,0c-0.03-0.01-0.05-0.01-0.05-0.02c-0.07-0.05-0.08-0.12,0.03,0c0,0,0,0,0,0
		c-0.05-0.05-0.11-0.11-0.16-0.15c0-0.01,0,0,0-0.01c-0.04-0.08-0.09-0.15-0.13-0.23c-0.01-0.02-0.01-0.02-0.02-0.04
		c0-0.01,0-0.01-0.01-0.03c-0.06-0.21-0.12-0.41-0.17-0.62c-0.01-0.05-0.02-0.12-0.03-0.16c-0.01-0.1-0.02-0.2-0.03-0.31
		C169.23,155.92,169.25,155.39,169.3,154.87z"/>
	<path class="st1" d="M169.81,157.98c0.01,0.01,0.01,0.01,0.02,0.02c0,0,0.01,0,0.01,0c0.01,0,0.01,0,0.02,0c0.01,0,0.01,0,0.02,0
		C169.97,158,169.87,157.98,169.81,157.98z"/>
	<path class="st1" d="M172.58,188.12c0.1-0.51,0.05-1.03,0.06-1.55c0-0.58-0.01-1.16-0.02-1.74c-0.04-2.51-0.13-5.6-2.03-7.5
		c-0.49-0.49-1.16-0.92-1.83-1.11c-0.71-0.2-1.64,0.08-1.9,0.74c-0.01,0-0.02,0-0.04,0c-2.61,0.64-3.41,3.39-3.49,5.77
		c-0.07,2.03,0.19,4.26,1.14,6.09c0.64,1.25,1.71,2.49,3.16,2.75c1.24,0.22,2.37-0.22,3.33-0.99
		C171.71,189.98,172.39,189.09,172.58,188.12z M168.97,179.43C168.89,179.34,168.93,179.38,168.97,179.43L168.97,179.43z
		 M168.78,189.37C168.75,189.38,168.75,189.38,168.78,189.37L168.78,189.37z M170.09,188.09
		C170.08,188.1,170.08,188.11,170.09,188.09L170.09,188.09z M170.11,188.03c-0.1,0.18-0.2,0.35-0.3,0.52
		c-0.01,0.02-0.01,0.02-0.01,0.03c-0.01,0.01-0.02,0.02-0.05,0.06c-0.07,0.08-0.14,0.16-0.22,0.24c-0.06,0.05-0.12,0.1-0.17,0.16
		c-0.02,0.01-0.2,0.14-0.24,0.17c-0.09,0.05-0.18,0.1-0.27,0.14c-0.04,0.01-0.08,0.03-0.13,0.04c-0.1,0.03-0.2,0.05-0.3,0.07
		c0,0,0,0,0,0c-0.07,0-0.14,0-0.2,0.01c-0.06,0-0.08,0.01-0.09,0.01c0,0,0-0.01-0.03-0.01c-0.11-0.03-0.22-0.06-0.33-0.09
		c-0.01,0-0.01,0-0.02,0c-0.01,0-0.01-0.01-0.02-0.01c-0.06-0.03-0.11-0.06-0.17-0.09c-0.06-0.03-0.11-0.07-0.17-0.11
		c-0.03-0.02-0.03-0.02-0.02-0.01c-0.01-0.01-0.02-0.02-0.05-0.04c-0.57-0.49-0.9-1.09-1.24-1.77c-0.03-0.07-0.05-0.1-0.06-0.13
		c0-0.01-0.01-0.02-0.02-0.06c-0.02-0.06-0.04-0.11-0.06-0.17c-0.05-0.17-0.1-0.33-0.15-0.5c-0.11-0.43-0.2-0.87-0.27-1.31
		c-0.02-0.11-0.04-0.23-0.05-0.34c0-0.03-0.03-0.23-0.03-0.26c-0.03-0.3-0.06-0.59-0.08-0.89c-0.03-0.58-0.03-1.16,0.02-1.74
		c0.03-0.34,0.03-0.34,0.09-0.63c0.05-0.29,0.12-0.57,0.22-0.84c0.01-0.04,0.08-0.21,0.09-0.24c0.04-0.1,0.09-0.2,0.14-0.29
		c0.06-0.1,0.12-0.21,0.19-0.31c0.02-0.03,0.05-0.07,0.07-0.1c0.01-0.01,0.09-0.1,0.11-0.12c0.36-0.35,0.57-0.49,1.06-0.62
		c0.14-0.04,0.26-0.1,0.35-0.17c0.1,0.05,0.2,0.1,0.29,0.14c0.07,0.03,0.25,0.1,0.25,0.1c0.11,0.06,0.21,0.13,0.32,0.18
		c0.01,0.01,0.01,0.01,0.02,0.01c0.03,0.02,0.06,0.05,0.09,0.07c0.09,0.09,0.18,0.17,0.26,0.26c0.03,0.03,0.05,0.06,0.07,0.09
		c0,0.01,0.01,0.01,0.01,0.02c0.08,0.14,0.17,0.27,0.25,0.41c0.05,0.08,0.09,0.17,0.13,0.26c-0.03-0.05,0.08,0.19,0.1,0.25
		c0.11,0.3,0.19,0.6,0.26,0.91c0.07,0.3,0.12,0.61,0.17,0.92c0,0.01,0,0.01,0,0.01c0.01,0.07,0.02,0.14,0.02,0.2
		c0.02,0.19,0.04,0.37,0.05,0.56c0.1,1.21,0.07,2.42,0.15,3.63c0.02,0.25,0.04,0.5,0.07,0.75c0.01,0.08,0.01,0.17,0.02,0.25
		c0,0.02,0,0.04,0,0.06c-0.03,0.07-0.04,0.16-0.06,0.23C170.15,187.95,170.13,187.99,170.11,188.03z"/>
	<path class="st1" d="M171.69,204.08c-0.05,0-0.11,0-0.16,0c-0.01,0-0.01,0-0.02,0C171.6,204.09,171.66,204.08,171.69,204.08z"/>
	<path class="st1" d="M177.14,207.23c-0.01-0.02-0.03-0.05-0.06-0.08c-0.01-0.01-0.02-0.02-0.03-0.04
		C177.06,207.16,177.13,207.23,177.14,207.23z"/>
	<path class="st1" d="M178.51,213.86c1.38-0.45,2.13-1.81,2.34-3.17c0.5-3.21-1.62-6.06-4.05-7.89c-1.3-0.98-2.82-1.66-4.44-1.84
		c-0.66-0.07-1.36-0.03-1.99,0.18c-0.35,0.12-0.69,0.27-0.99,0.48c-0.65,0.45-0.96,0.96-1.02,1.76c-0.03,0.42,0.17,0.77,0.46,1.02
		c0,0.2,0.02,0.4,0.05,0.59c0.17,1.03,0.65,2.03,1.15,2.93c1.2,2.16,2.99,4.25,5.2,5.42C176.22,213.87,177.4,214.23,178.51,213.86z
		 M177.65,211.46C177.65,211.46,177.65,211.46,177.65,211.46C177.65,211.46,177.65,211.46,177.65,211.46z M177.93,211.24
		c-0.02,0.02-0.04,0.05-0.07,0.07C177.9,211.15,178.04,211.12,177.93,211.24z M175.56,205.65c0.01,0.01,0.02,0.02,0.03,0.03
		C175.51,205.61,175.41,205.52,175.56,205.65z M174.73,210.18c-0.11-0.09-0.22-0.18-0.33-0.27c-0.85-0.71-1.64-1.51-2.39-2.32
		c-0.74-0.8-1.32-1.5-1.82-2.53c-0.07-0.15-0.1-0.2-0.14-0.32c0.02,0,0.05,0,0.07-0.01c0.09-0.02,0.18-0.04,0.27-0.06
		c0.29-0.09,0.47-0.22,0.69-0.4c0,0,0,0,0,0c0.04-0.02,0.07-0.05,0.09-0.06c0.03-0.02,0.06-0.03,0.09-0.05
		c0.06-0.02,0.13-0.04,0.19-0.06c0.02,0,0.04-0.01,0.06-0.01c-0.03,0-0.04,0-0.08,0c0.03,0,0.06,0,0.1,0
		c0.04-0.01,0.08-0.02,0.12-0.03c0.09-0.02,0.11,0.01,0.04,0.02c0.15-0.01,0.3-0.02,0.45-0.01c0.03,0,0.06,0.01,0.09,0.01
		c0.08,0.02,0.16,0.03,0.25,0.05c0.28,0.06,0.55,0.14,0.82,0.24c0.06,0.02,0.14,0.04,0.21,0.07c0.02,0.01,0.03,0.02,0.05,0.03
		c0.07,0.03,0.13,0.06,0.2,0.09c0.27,0.13,0.54,0.27,0.8,0.43c0.24,0.14,0.47,0.29,0.7,0.45c0.09,0.06,0.23,0.2,0.34,0.25
		c0.06,0.05,0.12,0.09,0.17,0.14c0.46,0.39,0.88,0.83,1.27,1.29c0-0.01-0.01-0.02-0.01-0.02c0,0,0.02,0.03,0.04,0.06
		c0,0.01,0.01,0.01,0.01,0.02c0.04,0.04,0.05,0.06,0.04,0.06c0,0,0.01,0.01,0.01,0.01c0.09,0.12,0.18,0.25,0.26,0.38
		c0.16,0.25,0.31,0.51,0.44,0.78c0.02,0.05,0.04,0.09,0.07,0.14c0,0,0,0,0,0c0.03,0.11,0.08,0.22,0.11,0.33
		c0.04,0.14,0.08,0.27,0.11,0.41c0.01,0.05,0.02,0.11,0.04,0.17c0,0.02,0.01,0.03,0.01,0.05c0.01,0.25,0.03,0.5,0.02,0.75
		c0,0.02,0,0.05,0,0.08c0,0.01-0.01,0.01-0.01,0.02c-0.03,0.15-0.07,0.31-0.11,0.46c-0.01,0.03-0.05,0.15-0.08,0.23
		c-0.04,0.06-0.12,0.24-0.13,0.27c-0.01,0.01-0.02,0.02-0.03,0.03c-0.01,0.01-0.02,0.02-0.03,0.03c-0.04,0.02-0.08,0.04-0.12,0.07
		c-0.01,0-0.02,0.01-0.02,0.01c-0.01,0-0.02,0-0.03,0c0.01,0,0.01,0,0.02,0.01c0,0-0.01,0.01-0.01,0.01c-0.01,0-0.02,0.01-0.05,0.01
		c-0.03,0-0.06,0-0.1,0c-0.03,0.01-0.05,0.01-0.06,0.02c0.01-0.01,0.02-0.01,0.04-0.02c-0.02,0-0.05,0-0.07,0
		c-0.06,0-0.12-0.01-0.18-0.01c-0.02,0-0.04-0.01-0.06-0.01c-0.21-0.05-0.41-0.11-0.61-0.18c-0.02-0.01-0.04-0.01-0.05-0.02
		c-0.01-0.01-0.02-0.01-0.04-0.02c-0.09-0.04-0.17-0.08-0.26-0.12c-0.23-0.12-0.46-0.25-0.68-0.39c-0.21-0.13-0.42-0.28-0.62-0.43
		C174.84,210.27,174.76,210.2,174.73,210.18z"/>
	<path class="st1" d="M177.47,211.48c0.01,0,0.01,0,0.02,0c0.05-0.01,0.11-0.02,0.14-0.03
		C177.59,211.44,177.52,211.44,177.47,211.48z"/>
	<path class="st1" d="M185.18,218.35c0,0.02-0.02,0.04-0.02,0.07c-0.21,2.68,2.22,4.28,4.43,5.1c1.93,0.71,4.11,1.13,6.16,0.81
		c1.32-0.21,2.63-0.78,3.41-1.91c0.6-0.88,0.69-2.01,0.45-3.03c-0.22-0.89-0.69-1.78-1.35-2.43c-0.76-0.75-1.79-0.98-2.78-1.29
		c-2.68-0.85-5.84-2.03-8.58-0.84c-0.63,0.27-1.19,0.69-1.62,1.23C184.76,216.67,184.49,217.84,185.18,218.35z M197.24,221.37
		C197.2,221.43,197.22,221.41,197.24,221.37L197.24,221.37z M187.23,217.77c0.04-0.04,0.07-0.09,0.11-0.13
		c0.06-0.05,0.42-0.35,0.19-0.2c0.12-0.08,0.24-0.16,0.37-0.23c0.04-0.02,0.09-0.05,0.14-0.07c0.02-0.01,0.04-0.02,0.05-0.02
		c0.14-0.04,0.28-0.09,0.43-0.12c0.07-0.02,0.15-0.03,0.22-0.05c0.03-0.01,0.04-0.01,0.05-0.01c0.02,0,0.03,0,0.06,0
		c0.3-0.02,0.59-0.03,0.89-0.02c0.17,0.01,0.33,0.02,0.49,0.03c0.08,0.01,0.17,0.02,0.25,0.03c0.03,0,0.03,0,0.03,0
		c0.01,0,0.03,0.01,0.07,0.01c0.71,0.12,1.41,0.28,2.1,0.47c1.2,0.33,2.4,0.83,3.63,1.01c0.01,0,0.01,0,0.02,0
		c0.05,0.03,0.11,0.06,0.15,0.08c0.06,0.03,0.12,0.08,0.18,0.12c-0.31-0.19-0.03-0.01,0.06,0.07c0.08,0.07,0.32,0.39,0.29,0.32
		c0.09,0.14,0.19,0.28,0.27,0.42c0.03,0.06,0.07,0.14,0.08,0.17c0.02,0.06,0.05,0.13,0.07,0.2c0.03,0.1,0.05,0.2,0.07,0.29
		c0.01,0.04,0.02,0.06,0.02,0.08c0,0.02,0,0.04,0,0.07c0,0.1,0,0.2,0,0.3c0,0.03,0,0.06-0.01,0.09c-0.02,0.08-0.04,0.17-0.06,0.25
		c-0.01,0.04-0.03,0.08-0.04,0.12c0,0,0,0,0,0.01c-0.05,0.09-0.1,0.18-0.16,0.26c-0.03,0.04-0.06,0.08-0.1,0.11
		c-0.03,0.03-0.15,0.14-0.17,0.16c-0.1,0.08-0.21,0.15-0.32,0.21c-0.46,0.26-1.09,0.43-1.73,0.51c-0.36,0.05-0.71,0.05-1.08,0.03
		c-0.2-0.01-0.4-0.03-0.59-0.05c-0.1-0.01-0.21-0.02-0.31-0.04c-0.01,0,0,0-0.01,0c-0.08-0.01-0.15-0.02-0.23-0.03
		c-0.55-0.09-1.09-0.2-1.63-0.34c-0.26-0.07-0.51-0.14-0.77-0.23c-0.23-0.07-0.68-0.24-0.77-0.28c-0.51-0.22-1-0.48-1.45-0.81
		c-0.31-0.23-0.64-0.6-0.87-0.98c-0.07-0.12-0.07-0.14-0.08-0.15c-0.04-0.12-0.08-0.24-0.11-0.36c-0.05-0.19-0.02-0.02-0.04-0.22
		c-0.01-0.15-0.01-0.3,0-0.46c0.01-0.14-0.01-0.25-0.05-0.36c0.04-0.03,0.08-0.06,0.11-0.1
		C187.09,217.95,187.45,217.53,187.23,217.77z"/>
	<path class="st1" d="M238.24,163.17c1.24-0.05,2.27-0.85,2.77-1.96c1.05-2.34,0.59-5.47-0.25-7.81c-0.46-1.26-1.02-2.54-1.87-3.59
		c-0.18-0.23-0.4-0.44-0.64-0.62c-0.07-0.43-0.33-0.86-0.67-1.08c-1.44-0.95-3.16,0.34-4.01,1.5c-0.81,1.1-1.2,2.48-1.37,3.81
		c-0.34,2.75,0.27,5.93,2.21,8C235.34,162.41,236.83,163.23,238.24,163.17z M238.32,160.55c0.01,0,0.02,0,0.02,0
		C238.32,160.56,238.31,160.56,238.32,160.55z M238.48,160.46C238.55,160.4,238.56,160.41,238.48,160.46L238.48,160.46z
		 M236.75,150.87c0.01,0.01-0.05,0.03-0.11,0.05C236.69,150.88,236.74,150.86,236.75,150.87z M235.18,154.36
		c0-0.05,0.02-0.19,0.03-0.28c0.01-0.09,0.05-0.31,0.05-0.36c0.05-0.28,0.11-0.56,0.18-0.84c0.07-0.26,0.18-0.51,0.26-0.77
		c0.03-0.05,0.05-0.11,0.08-0.16c0.06-0.11,0.12-0.22,0.18-0.33c0.06-0.1,0.13-0.2,0.19-0.3c0.02-0.02,0.03-0.03,0.05-0.05
		c0.08-0.08,0.16-0.15,0.24-0.23c0,0,0,0,0,0c0.01-0.01,0.02-0.01,0.03-0.01c0.02-0.01,0.07-0.05,0.13-0.08
		c0.04-0.01,0.09-0.03,0.13-0.04c0.4-0.11,0.7-0.3,1.01-0.54c0.05,0.08,0.1,0.17,0.15,0.26c0.44,0.83,0.68,1.77,0.87,2.69
		c0.24,1.19,0.36,2.06,0.43,3.25c0.03,0.55,0.04,1.1,0.01,1.65c-0.01,0.12-0.02,0.24-0.03,0.36c0,0.04-0.02,0.13-0.02,0.18
		c-0.04,0.23-0.08,0.46-0.14,0.69c-0.05,0.18-0.11,0.35-0.17,0.52c-0.01,0.03-0.03,0.06-0.05,0.09c-0.05,0.09-0.13,0.19-0.18,0.29
		c-0.01,0,0,0-0.01,0c-0.04,0.03-0.09,0.08-0.14,0.13c-0.01,0.01-0.02,0.01-0.03,0.02c-0.02,0.01-0.02,0.01-0.04,0.02c0,0,0,0,0,0
		c0,0-0.01,0.01-0.03,0.01c0,0,0,0-0.01,0c0,0,0,0-0.01,0c-0.01,0-0.02,0.01-0.03,0.01c0,0,0.01,0,0.01-0.01
		c-0.04,0-0.09,0.01-0.11,0.02c-0.21-0.04-0.43-0.11-0.63-0.17c-0.03-0.01-0.05-0.01-0.06-0.02c-0.01-0.01-0.02-0.02-0.05-0.03
		c-0.12-0.06-0.24-0.13-0.36-0.2c-0.03-0.02-0.14-0.09-0.2-0.13c-0.05-0.05-0.18-0.15-0.21-0.19c-0.09-0.08-0.17-0.17-0.25-0.26
		c-0.03-0.03-0.13-0.17-0.17-0.21c-0.13-0.19-0.25-0.37-0.36-0.57c-0.06-0.11-0.12-0.22-0.17-0.34c-0.02-0.05-0.05-0.1-0.07-0.15
		c0-0.01,0,0,0-0.01c-0.09-0.27-0.19-0.52-0.26-0.79c-0.08-0.27-0.14-0.55-0.19-0.83c-0.01-0.04-0.03-0.19-0.04-0.27
		c-0.01-0.09-0.03-0.25-0.03-0.3C235.13,155.5,235.13,154.93,235.18,154.36z"/>
	<path class="st1" d="M238.34,160.54c0.01,0,0.01,0,0.02,0c0,0,0.01,0,0.01,0c0.01,0,0.02-0.01,0.03-0.02
		C238.43,160.48,238.38,160.51,238.34,160.54z"/>
	<path class="st1" d="M239.42,179.7c-0.19-0.79-1.32-1.08-2.07-0.88c-2.66,0.69-3.71,3.51-4.15,5.94c-0.23,1.26-0.38,2.55-0.51,3.83
		c-0.02,0.23-0.05,0.47-0.07,0.7c0,0,0,0.01,0,0.01c-0.01,0.07-0.03,0.25-0.03,0.21c-0.02,0.14-0.04,0.27-0.04,0.41
		c0,0.56,0.19,1.12,0.44,1.62c1.07,2.17,3.78,3.47,5.93,1.96c1.97-1.38,2.79-3.78,3.19-6.04c0.39-2.22,0.56-5.11-1.19-6.83
		C240.49,180.19,239.98,179.91,239.42,179.7z M240.34,185.81c-0.03,0.31-0.04,0.34-0.09,0.69c-0.17,0.98-0.42,1.96-0.77,2.9
		c-0.03,0.08-0.06,0.15-0.09,0.23c0,0.01,0,0.01-0.01,0.02c-0.1,0.19-0.19,0.37-0.3,0.56c-0.37,0.61-0.87,1.24-1.42,1.56
		c-0.06,0.04-0.13,0.07-0.19,0.1c-0.02,0.01-0.01,0.01-0.02,0.01c-0.01,0,0,0-0.01,0c-0.11,0.04-0.22,0.07-0.33,0.1
		c-0.01,0-0.01,0-0.02,0.01c-0.05,0-0.1,0.01-0.15,0.01c-0.06,0-0.12,0-0.18,0c-0.01,0-0.02,0-0.03,0c-0.01,0-0.02-0.01-0.03-0.01
		c-0.11-0.03-0.23-0.06-0.34-0.1c-0.03-0.01-0.03-0.01-0.04-0.01c-0.01-0.01-0.02-0.02-0.06-0.04c-0.1-0.06-0.2-0.12-0.3-0.18
		c-0.01-0.01-0.03-0.02-0.05-0.04c-0.03-0.03-0.1-0.08-0.11-0.1c-0.09-0.08-0.17-0.17-0.25-0.25c-0.03-0.03-0.03-0.03-0.04-0.03
		c-0.01-0.02-0.02-0.04-0.06-0.09c-0.06-0.1-0.13-0.19-0.18-0.29c-0.02-0.04-0.09-0.17-0.12-0.23c-0.02-0.05-0.06-0.14-0.06-0.17
		c-0.03-0.1-0.05-0.2-0.08-0.3c0-0.01-0.01-0.02-0.01-0.03c0,0,0,0,0-0.01c0-0.03,0.01-0.13,0.01-0.19
		c0.01-0.06,0.02-0.12,0.03-0.14c0.02-0.12,0.05-0.23,0.07-0.35c0.07-0.35,0.12-0.7,0.16-1.05c0.04-0.28,0.07-0.55,0.11-0.83
		c0.02-0.14,0.04-0.29,0.06-0.43c0,0,0-0.02,0-0.03c0.01-0.05,0.02-0.16,0.03-0.18c0.17-1.23,0.39-2.47,0.83-3.64
		c0.02-0.05,0.04-0.1,0.06-0.15c0.01-0.01,0.01-0.01,0.02-0.03c0.05-0.11,0.1-0.22,0.16-0.33c0.06-0.12,0.13-0.24,0.2-0.35
		c0.03-0.05,0.13-0.19,0.16-0.24c0.13-0.15,0.27-0.3,0.42-0.43c0.04-0.03,0.13-0.1,0.18-0.13c0.05-0.03,0.21-0.11,0.27-0.14
		c0.07-0.02,0.24-0.08,0.27-0.09c0.16-0.04,0.32-0.09,0.47-0.15c0.11,0.11,0.24,0.2,0.39,0.26c0.12,0.05,0.37,0.18,0.56,0.32
		c-0.12-0.09,0.14,0.14,0.16,0.16c0.04,0.04,0.08,0.09,0.12,0.14c0.02,0.02,0.03,0.03,0.03,0.04c0,0,0,0,0.02,0.03
		c0.31,0.45,0.41,0.72,0.53,1.31c0.08,0.41,0.12,0.94,0.11,1.5C240.38,185.24,240.36,185.53,240.34,185.81z"/>
	<path class="st1" d="M223.62,213.02c0.03,0.01,0.07,0.03,0.1,0.05c0,0,0,0-0.01,0c0.01,0,0.02,0,0.03,0.01
		c0.01,0.01,0.02,0.01,0.03,0.02c0,0,0.01,0,0.01,0c0,0,0-0.01-0.01-0.01c0,0,0.01,0,0.01,0c0,0,0.02,0,0.04,0.01
		c0.02,0,0.05,0,0.07,0c-0.05-0.03-0.1-0.05-0.15-0.04C223.7,213.03,223.65,213.02,223.62,213.02z"/>
	<path class="st1" d="M226.01,206.94c-0.05,0.03-0.1,0.06-0.15,0.08c0,0,0,0,0,0C226.03,206.95,226.05,206.93,226.01,206.94z"/>
	<path class="st1" d="M230,205.63c-0.05-0.02-0.09-0.05-0.14-0.08c-0.01,0-0.02-0.01-0.03-0.01C229.94,205.63,230,205.65,230,205.63
		z"/>
	<path class="st1" d="M224.36,208.51c-0.02,0.04-0.05,0.07-0.08,0.1c-0.01,0.01-0.01,0.01-0.01,0.02
		C224.34,208.58,224.38,208.5,224.36,208.51z"/>
	<path class="st1" d="M226.2,212.04c0.02-0.02,0.05-0.03,0.07-0.05c0,0,0,0,0,0C226.19,212.04,226.18,212.05,226.2,212.04z"/>
	<path class="st1" d="M224.02,213.11c0.04,0,0.08-0.01,0.13-0.01c0.01,0,0.02,0,0.03-0.01
		C224.12,213.09,224.04,213.09,224.02,213.11z"/>
	<path class="st1" d="M222.19,215.19c1.06,0.68,2.32,0.51,3.41,0.03c1.05-0.46,1.98-1.23,2.79-2.03c0.95-0.94,1.77-1.99,2.44-3.15
		c0.6-1.06,1.18-2.22,1.4-3.43c0.05-0.27,0.08-0.58,0.08-0.89c0.28-0.24,0.47-0.57,0.42-0.99c-0.08-0.73-0.31-1.22-0.92-1.67
		c-0.3-0.22-0.62-0.36-0.97-0.49c-0.56-0.2-1.19-0.27-1.79-0.22c-1.42,0.12-2.8,0.65-3.98,1.45c-2.43,1.65-4.68,4.36-4.69,7.44
		C220.38,212.69,220.93,214.38,222.19,215.19z M223.26,210.6c0.03-0.12,0.07-0.24,0.11-0.36c0.04-0.12,0.13-0.55,0.04-0.14
		c0.05-0.26,0.27-0.55,0.4-0.78c0.14-0.24,0.3-0.46,0.46-0.69c-0.01,0-0.01,0.01-0.02,0.01c0.01,0,0.02-0.02,0.03-0.04
		c0.01-0.01,0.02-0.03,0.03-0.04c0.03-0.04,0.04-0.05,0.05-0.06c0.01-0.01,0.02-0.03,0.03-0.04c0.11-0.13,0.22-0.26,0.33-0.38
		c0.2-0.22,0.41-0.42,0.62-0.62c0.1-0.09,0.21-0.19,0.31-0.28c0.07-0.06,0.14-0.11,0.2-0.17c0,0,0,0-0.01,0c0,0,0.01,0,0.01-0.01
		c0,0,0,0,0.01-0.01c0.05-0.04,0.11-0.07,0.14-0.07c0.23-0.14,0.45-0.35,0.66-0.48c0.27-0.17,0.55-0.33,0.84-0.47
		c0.11-0.06,0.23-0.11,0.35-0.16c0.07-0.02,0.13-0.05,0.2-0.07c0.27-0.09,0.55-0.17,0.83-0.23c0.04-0.01,0.08-0.01,0.11-0.02
		c0.11-0.01,0.22-0.02,0.33-0.02c0.09,0,0.2,0.02,0.31,0.02c0.02,0,0.04,0.01,0.07,0.01c0.04,0.01,0.08,0.02,0.12,0.03
		c-0.03-0.02-0.04-0.02-0.08-0.05c0.03,0.02,0.07,0.04,0.11,0.06c0.01,0,0.02,0.01,0.03,0.01c0.07,0.02,0.11,0.05,0.11,0.07
		c0.02,0.01,0.03,0.02,0.05,0.03c0.03,0.02,0.06,0.04,0.09,0.06c0.06,0.05,0.12,0.1,0.18,0.14c0.25,0.15,0.4,0.16,0.65,0.21
		c0.04,0.01,0.07,0.01,0.11,0.01c-0.02,0.06-0.04,0.13-0.06,0.19c-0.04,0.12-0.08,0.19-0.18,0.4c-0.11,0.22-0.23,0.44-0.36,0.65
		c-0.12,0.19-0.24,0.37-0.36,0.56c-0.07,0.11-0.15,0.21-0.22,0.32c-0.03,0.04-0.06,0.08-0.09,0.13c-0.03,0.04-0.06,0.08-0.08,0.11
		c-0.67,0.86-1.44,1.68-2.22,2.45c-0.39,0.39-0.8,0.75-1.23,1.1c0.02-0.01,0.02-0.01,0.04-0.03c-0.02,0.01-0.03,0.02-0.05,0.03
		c0,0,0,0,0,0c-0.02,0.02-0.05,0.04-0.07,0.05c-0.01,0.01-0.03,0.02-0.04,0.03c-0.09,0.07-0.19,0.13-0.28,0.2
		c-0.21,0.14-0.43,0.28-0.65,0.41c-0.09,0.05-0.18,0.1-0.28,0.15c-0.06,0.03-0.12,0.06-0.18,0.09c-0.16,0.08,0.11-0.06,0.11-0.05
		c-0.01,0.07-0.51,0.18-0.59,0.2c-0.01,0-0.06,0.02-0.12,0.03c0.05,0,0.08,0.01-0.03,0.01c0,0,0,0-0.01,0
		c-0.07,0.02-0.13,0.03-0.14,0.02c0-0.01,0-0.01,0.01-0.01c0,0,0,0,0,0c-0.04,0-0.08,0-0.12,0c0.01,0.01,0.03,0.01,0.04,0.02
		c-0.01-0.01-0.07-0.02-0.11-0.02c-0.01,0-0.03,0-0.04,0c0.01,0.01,0.02,0.01,0.02,0.03c0-0.01-0.02-0.02-0.03-0.03
		c-0.01,0-0.02,0-0.03,0c-0.06,0-0.05-0.01-0.03-0.02c-0.02-0.01-0.04-0.01-0.06-0.02c-0.02,0-0.02-0.01-0.03-0.01
		c-0.01-0.01-0.01-0.01-0.02-0.02c0,0,0.01,0,0.01,0c-0.01-0.01-0.02-0.01-0.03-0.01c-0.01-0.01-0.03-0.03-0.04-0.04
		c0,0.01,0.01,0.02,0.01,0.02c0,0,0,0,0,0c0,0-0.01-0.02-0.02-0.03c-0.01-0.01-0.02-0.02-0.02-0.02c-0.12-0.1-0.04-0.06,0.01-0.01
		c-0.05-0.1-0.15-0.27-0.17-0.31c0.01,0.02,0.01,0.03,0.02,0.06c-0.01-0.02-0.02-0.05-0.03-0.07c0,0,0-0.01,0-0.01
		c-0.02-0.04-0.04-0.09-0.04-0.1c0-0.01-0.01-0.01-0.01-0.02c-0.04-0.12-0.08-0.24-0.11-0.36c-0.02-0.07-0.03-0.14-0.04-0.2
		c0-0.01,0-0.01,0-0.01c0-0.24-0.02-0.48-0.01-0.73c0-0.03,0-0.05,0-0.07c0-0.02,0.01-0.03,0.01-0.05
		C223.18,210.9,223.22,210.75,223.26,210.6z"/>
	<path class="st1" d="M223.52,212.93c0.01,0.02,0.01,0.02,0.02,0.03c0,0,0.01,0.01,0.01,0.01
		C223.54,212.96,223.54,212.95,223.52,212.93z"/>
	<path class="st1" d="M223.35,212.61c0,0,0,0.01,0.01,0.01c-0.03-0.08-0.04-0.12-0.04-0.12
		C223.32,212.54,223.33,212.57,223.35,212.61z"/>
	<path class="st1" d="M203.98,222.72c1.91,1.34,4.38,1.27,6.59,0.96c2.17-0.3,4.96-1.07,6.03-3.2c0.28-0.57,0.42-1.17,0.44-1.8
		c0.66-0.43,0.62-1.57,0.18-2.22c-1.79-2.62-5.19-2.39-7.96-1.92c-1.24,0.21-2.46,0.5-3.69,0.75c-0.96,0.2-1.71,0.85-2.28,1.62
		c-0.59,0.79-0.98,1.79-0.98,2.78C202.3,220.95,202.97,222.01,203.98,222.72z M214.57,217.4
		C214.61,217.43,214.63,217.45,214.57,217.4L214.57,217.4z M214.09,217.12C214.11,217.13,214.11,217.13,214.09,217.12L214.09,217.12
		z M204.63,219.05c0.01-0.03,0.01-0.05,0.02-0.07c0-0.01,0.01-0.01,0.01-0.03c0.1-0.19,0.21-0.37,0.33-0.55
		c0.03-0.03,0.06-0.07,0.09-0.1c0.07-0.07,0.13-0.14,0.2-0.21c0.07-0.07,0.15-0.12,0.21-0.19c0.01-0.01,0,0,0-0.01
		c0.02-0.01,0.02-0.01,0.06-0.03c0.07-0.04,0.15-0.08,0.22-0.13c0,0,0,0,0,0c0.05-0.01,0.15-0.03,0.19-0.05
		c0.03,0,0.06-0.01,0.09-0.01c0.68-0.08,1.34-0.19,2.01-0.33c0.66-0.13,1.31-0.26,1.97-0.36c0.44-0.07,0.33-0.06,0.77-0.1
		c0.35-0.04,0.69-0.06,1.04-0.07c0.32-0.01,0.63,0,0.95,0.02c0.05,0,0.27,0.03,0.31,0.03c0.15,0.03,0.31,0.05,0.46,0.09
		c0.14,0.04,0.27,0.09,0.41,0.12c0.01,0,0.03,0.01,0.05,0.02c0.04,0.02,0.08,0.04,0.12,0.06c0.12,0.07,0.24,0.15,0.36,0.21
		c0.01,0,0.02,0.01,0.03,0.02c0.05,0.04,0.1,0.09,0.15,0.13c0.03,0.03,0.17,0.19,0.21,0.23c0.02,0.03,0.05,0.07,0.06,0.08
		c0.04,0.06,0.08,0.13,0.12,0.19c0.06,0.08,0.12,0.16,0.19,0.23c-0.06,0.12-0.11,0.25-0.11,0.42c-0.02,0.41-0.12,0.76-0.4,1.16
		c-0.02,0.02-0.14,0.17-0.16,0.19c-0.08,0.09-0.17,0.17-0.27,0.26c-0.13,0.12-0.09,0.08-0.18,0.14c-0.12,0.08-0.24,0.16-0.37,0.23
		c-0.52,0.3-0.82,0.42-1.41,0.6c-0.57,0.17-1.16,0.3-1.75,0.39c-0.2,0.03-0.32,0.05-0.64,0.08c-0.27,0.03-0.54,0.05-0.81,0.06
		c-0.44,0.02-0.88,0.03-1.32,0.01c-0.15-0.01-0.3-0.02-0.46-0.03c-0.17-0.05-0.34-0.07-0.51-0.11c-0.67-0.16-1.25-0.35-1.8-0.76
		c0,0,0,0,0,0c-0.01-0.01,0,0-0.02-0.02c-0.05-0.04-0.1-0.08-0.14-0.13c-0.03-0.03-0.13-0.15-0.18-0.19
		c-0.03-0.05-0.11-0.19-0.13-0.21c-0.01-0.01-0.02-0.03-0.03-0.05c-0.01-0.04-0.03-0.08-0.04-0.1c-0.03-0.1-0.05-0.2-0.08-0.3
		c0.07,0.27,0,0.02,0-0.09c0-0.1,0.01-0.19,0.01-0.28c0.01-0.06,0.02-0.12,0.04-0.18C204.57,219.25,204.6,219.15,204.63,219.05z"/>
	<path class="st1" d="M375.07,280.09c-1.22-4.68-3.07-9.19-5.14-13.55c-2.03-4.27-4.27-8.58-6.94-12.5
		c-1.39-2.04-2.9-3.99-4.39-5.95c-0.35-0.46-0.83-0.8-1.34-0.92c-4.55-2.7-11.76,0.2-13.29,5.25c-1.2,3.98,0.18,8.19,1.54,11.94
		c1.48,4.07,2.99,8.12,4.34,12.23c4.74,14.45,7.59,32.17-1.57,45.57c-3.66,5.34-9.36,9.43-15.77,10.64
		c-6.07,1.15-12.59-0.87-17.23-4.88c-4.96-4.29-8.37-10.17-9.94-16.52c-2.06-8.32-1.34-17.06,0.19-25.4
		c0.67-3.67,1.42-7.34,2.49-10.92c0.88-2.94,1.89-5.83,2.75-8.78c1.33-4.53,3.13-11.27-0.51-15.21c-0.54-0.59-1.25-0.97-2-1.21
		c-0.15-0.29-0.41-0.54-0.79-0.68c-4.27-1.57-8.76-0.25-12.01,2.78c-3.52,3.29-5.16,8.08-6.38,12.6
		c-2.81,10.37-4.97,21.04-5.46,31.8c-0.45,9.9,0.59,20.05,4.19,29.34c3.04,7.85,7.67,15.18,13.94,20.85
		c6.32,5.72,14.08,9.5,22.58,10.51c8.58,1.02,17.39-0.96,25.05-4.86c7.92-4.03,14.54-10.24,19.26-17.75
		c4.95-7.88,7.71-16.93,8.76-26.14C378.47,298.88,377.47,289.27,375.07,280.09z M354.01,344.5c-6.31,4.68-13.88,7.88-21.74,8.58
		c-7.84,0.69-15.55-1.1-22.22-5.29c-13.89-8.73-21.04-25.14-22.24-41.02c-0.77-10.2,0.5-20.41,2.58-30.39
		c1.01-4.8,2.03-9.69,3.6-14.35c1.34-3.96,3.5-7.5,7.35-9.4c1.75-0.86,3.47-1.29,5.38-0.75c0.21,0.06,0.39,0.07,0.57,0.05
		c3.13,3.19,1.18,8.85,0.12,12.57c-0.85,2.96-1.87,5.87-2.78,8.81c-1.05,3.37-1.81,6.82-2.5,10.28c-1.67,8.43-2.6,17.09-1.21,25.63
		c1.12,6.88,4.02,13.36,8.62,18.63c4.21,4.82,9.97,8.67,16.39,9.66c7.07,1.08,14.18-1.26,19.79-5.58
		c12.7-9.78,15.26-27.05,12.15-41.94c-1.73-8.32-4.61-16.32-7.51-24.28c-1.3-3.57-3.45-7.87-2.53-11.76
		c0.51-2.14,3.05-3.46,5.24-3.83c0.78-0.13,1.52-0.1,2.21,0.2c2.31,3.93,4.6,7.88,6.85,11.85c2.15,3.79,4.14,7.7,5.77,11.75
		c3.35,8.33,5.5,16.93,5.67,25.94C373.88,316.53,367.79,334.27,354.01,344.5z"/>
	<path class="st1" d="M295.14,286.85C295.15,286.81,294.97,286.79,295.14,286.85L295.14,286.85z"/>
	<path class="st1" d="M294.99,286.82c0.01,0,0.02,0,0.03,0.01C295.12,286.82,294.82,286.67,294.99,286.82z"/>
	<path class="st1" d="M295.13,286.86C295.13,286.86,295.13,286.86,295.13,286.86c0.01,0,0.02,0,0.03-0.01c-0.01,0-0.01,0-0.02-0.01
		C295.14,286.85,295.13,286.85,295.13,286.86z"/>
	<path class="st1" d="M294.26,289.3c1.39,0.49,2.99-0.19,4.08-1.06c2.21-1.77,2.95-4.98,2.79-7.69c-0.09-1.52-0.45-3.13-1.3-4.41
		c-0.83-1.25-2.73-2.84-4.27-1.77c-0.4,0.28-0.61,0.65-0.65,1.04c-1.04,0.77-1.76,2.56-2.1,3.43c-0.94,2.37-1.45,5.3-0.75,7.81
		C292.37,287.82,293.08,288.88,294.26,289.3z M294.94,286.8C294.85,286.76,294.81,286.69,294.94,286.8L294.94,286.8z M294.34,280.32
		c0.12-0.91,0.37-2.16,0.77-3.11c0.08-0.2,0.19-0.4,0.3-0.59c0.05,0.05,0.09,0.09,0.15,0.14c-0.28-0.21-0.13-0.08,0.07,0.06
		c0.22,0.16,0.44,0.23,0.69,0.31c0.08,0.02,0.17,0.05,0.26,0.07c0.01,0.01,0.01,0.01,0.02,0.01c0.06,0.04,0.13,0.09,0.2,0.13
		c0,0,0,0,0,0c0.07,0.08,0.16,0.16,0.24,0.24c0.01,0.01,0.02,0.02,0.03,0.03c0.11,0.18,0.23,0.35,0.34,0.54
		c0.05,0.1,0.1,0.2,0.15,0.3c0.01,0.02,0.02,0.03,0.02,0.04c0.01,0.02,0.02,0.05,0.03,0.09c0.17,0.51,0.31,1.01,0.41,1.54
		c0.02,0.11,0.04,0.22,0.06,0.33c0.01,0.05,0.01,0.1,0.02,0.15c0.02,0.29,0.04,0.57,0.05,0.86c0.01,0.29,0,0.58-0.02,0.86
		c-0.01,0.13-0.02,0.27-0.03,0.4c0,0.05-0.01,0.08-0.01,0.1c0,0.02-0.01,0.04-0.01,0.08c-0.1,0.56-0.22,1.1-0.42,1.63
		c-0.04,0.12-0.17,0.37-0.04,0.11c-0.05,0.11-0.11,0.23-0.16,0.34c-0.13,0.25-0.28,0.49-0.44,0.72c0,0,0,0,0,0
		c-0.02,0.03-0.05,0.06-0.07,0.08c-0.08,0.09-0.16,0.18-0.24,0.26c-0.08,0.08-0.17,0.16-0.26,0.24c0,0,0,0,0,0
		c-0.06,0.04-0.12,0.08-0.18,0.12c-0.1,0.07-0.21,0.12-0.31,0.18c-0.04,0.03-0.09,0.04-0.14,0.07c-0.2,0.07-0.41,0.14-0.63,0.18
		c0.02,0.01,0.04,0.01,0.07,0.02c-0.03-0.01-0.06-0.01-0.1-0.02c0,0,0,0,0,0c0,0,0,0,0,0c-0.04-0.01-0.08-0.02-0.12-0.03
		c0,0,0,0,0,0c-0.02,0-0.04-0.01-0.06-0.02c-0.09-0.09-0.22-0.26-0.23-0.25c-0.09-0.14-0.17-0.28-0.25-0.43c0-0.01,0-0.01-0.01-0.01
		c0-0.01-0.01-0.02-0.01-0.05c-0.03-0.1-0.07-0.2-0.1-0.3c-0.07-0.24-0.12-0.49-0.17-0.74c-0.01-0.05-0.02-0.11-0.03-0.16
		c-0.01-0.11-0.02-0.22-0.03-0.33c-0.02-0.29-0.04-0.58-0.04-0.87C294.07,282.46,294.19,281.44,294.34,280.32z"/>
	<path class="st1" d="M300.26,318.96c0.71-0.79,1.28-1.83,1.26-2.92c0-0.28-0.07-0.57-0.12-0.85c0-0.01,0-0.02,0-0.03
		c0-0.03-0.01-0.06-0.01-0.09c-0.02-0.18-0.04-0.37-0.07-0.55c-0.08-0.6-0.17-1.2-0.25-1.81c-0.34-2.32-0.83-5.13-2.77-6.69
		c-0.53-0.43-1.13-0.76-1.8-0.92c-0.76-0.18-1.91,0.11-2.08,0.93c-2.42,0.99-2.99,3.59-2.77,5.99c0.18,1.99,0.65,4.2,1.78,5.89
		c0.87,1.3,2.1,2.46,3.74,2.53C298.35,320.48,299.48,319.83,300.26,318.96z M301.39,315.13
		C301.38,315.08,301.38,315.05,301.39,315.13L301.39,315.13z M299.1,316.17C299.1,316.1,299.12,315.97,299.1,316.17L299.1,316.17z
		 M299.06,316.5c-0.03,0.11-0.07,0.22-0.11,0.33c-0.02,0.04-0.04,0.08-0.06,0.12c-0.05,0.09-0.1,0.18-0.15,0.27
		c-0.06,0.1-0.13,0.2-0.2,0.3c0.15-0.2-0.12,0.13-0.18,0.18c-0.26,0.25-0.53,0.41-0.91,0.51c-0.04,0.01-0.08,0.02-0.12,0.02
		c-0.01,0-0.02,0-0.04,0c-0.05,0-0.35-0.01-0.23,0c-0.13-0.01-0.43-0.12-0.58-0.2c-0.58-0.33-1.07-0.91-1.45-1.51
		c-0.12-0.18-0.23-0.36-0.32-0.56c-0.03-0.07-0.06-0.13-0.09-0.2c-0.01-0.01,0-0.01-0.01-0.01c-0.01-0.01,0-0.01-0.01-0.04
		c-0.17-0.42-0.32-0.85-0.45-1.29c-0.33-1.11-0.54-2.12-0.58-3.18c-0.01-0.27-0.01-0.53,0-0.8c0.01-0.14,0.02-0.28,0.03-0.42
		c0-0.01,0.02-0.15,0.05-0.3c0.11-0.57,0.21-0.84,0.5-1.28c0.01-0.01,0.03-0.05,0.05-0.07c0.03-0.04,0.06-0.07,0.09-0.11
		c0.08-0.08,0.16-0.16,0.25-0.24c0.02-0.01,0.16-0.11,0.18-0.13c0.06-0.04,0.31-0.17,0.28-0.15c0.16-0.07,0.29-0.17,0.41-0.28
		c0.26,0.1,0.53,0.17,0.79,0.25c0.05,0.03,0.1,0.05,0.16,0.08c0.1,0.05,0.19,0.12,0.28,0.18c-0.27-0.16,0.03,0.03,0.1,0.1
		c0.11,0.1,0.2,0.21,0.3,0.31c0.02,0.03,0.04,0.04,0.05,0.05c0.01,0.02,0.02,0.04,0.05,0.07c0.07,0.11,0.15,0.23,0.22,0.34
		c0.06,0.1,0.12,0.21,0.17,0.32c0.03,0.06,0.14,0.3,0.16,0.34c0.21,0.53,0.38,1.08,0.51,1.63c0.28,1.16,0.45,2.34,0.63,3.52
		c0.04,0.26,0.09,0.52,0.14,0.77c0.03,0.13,0.06,0.59,0.15,0.7c-0.01,0.09-0.01,0.18-0.01,0.26
		C299.08,316.12,299.1,316.37,299.06,316.5z"/>
	<path class="st1" d="M302.44,332.34c-0.05,0.02-0.1,0.04-0.16,0.05c-0.01,0-0.02,0.01-0.03,0.01
		C302.34,332.41,302.41,332.37,302.44,332.34z"/>
	<path class="st1" d="M307.68,330.48c-1.37-0.79-2.97-1.35-4.58-1.36c-1.56,0-4,0.81-3.89,2.74c0.02,0.4,0.24,0.82,0.55,1.1
		c0.12,1.19,1.1,2.59,1.61,3.29c1.53,2.09,3.56,3.91,6,4.85c1.06,0.41,2.29,0.54,3.34,0.01c1.28-0.65,1.77-2.14,1.82-3.49
		C312.65,334.54,310.17,331.92,307.68,330.48z M308.76,338.94C308.65,338.93,308.64,338.91,308.76,338.94L308.76,338.94z
		 M309.4,338.9C309.47,338.86,309.54,338.87,309.4,338.9L309.4,338.9z M309.63,338.74c-0.01,0-0.02,0.02-0.05,0.07c0,0,0,0,0,0
		c0.03-0.04,0.05-0.07,0.06-0.1C309.63,338.72,309.63,338.73,309.63,338.74z M309.64,338.69c-0.03,0.04-0.08,0.1-0.11,0.14
		c-0.04,0.02-0.1,0.05-0.15,0.08c-0.02,0-0.02,0.01-0.04,0.01c-0.03,0.01-0.11,0.02-0.16,0.03c-0.04,0-0.09,0.01-0.1,0.01
		c-0.09,0-0.17,0-0.26-0.01c-0.03,0-0.05,0-0.07-0.01c-0.1-0.02-0.2-0.04-0.3-0.06c-0.2-0.05-0.39-0.11-0.59-0.17
		c-0.11-0.04-0.21-0.08-0.32-0.12c-0.07-0.03-0.13-0.06-0.2-0.09c-0.48-0.22-0.94-0.49-1.38-0.77c-1.02-0.65-1.65-1.16-2.51-1.88
		c-0.81-0.68-1.63-1.48-2.17-2.29c-0.1-0.15-0.17-0.27-0.24-0.39c0.34-0.14,0.65-0.29,0.93-0.56c0.03-0.03,0.1-0.09,0.16-0.14
		c0.03-0.02,0.05-0.03,0.08-0.05c0.01,0,0.01-0.01,0.02-0.01c-0.01,0-0.02,0.01-0.04,0c0.01,0,0.04-0.01,0.06-0.02
		c0.04-0.02,0.08-0.04,0.11-0.06c0.07-0.04,0.07-0.02,0.05,0.01c0.02-0.01,0.05-0.02,0.06-0.02c0.07-0.02,0.14-0.03,0.21-0.05
		c0.06-0.01,0.13-0.02,0.14-0.02c0.22-0.01,0.45-0.01,0.67,0.01c0.04,0,0.09,0.01,0.13,0.01c0.13,0.03,0.26,0.04,0.39,0.07
		c0.52,0.12,1.02,0.3,1.52,0.49c0.05,0.02,0.14,0.06,0.2,0.09c0.12,0.06,0.25,0.12,0.37,0.18c0.28,0.14,0.55,0.3,0.81,0.47
		c0.13,0.08,0.26,0.17,0.39,0.26c0.03,0.02,0.2,0.14,0.25,0.18c0.01,0.01,0.03,0.02,0.03,0.03c0.07,0.06,0.13,0.11,0.2,0.17
		c0.12,0.1,0.23,0.21,0.35,0.31c0.21,0.2,0.41,0.41,0.6,0.63c0.06,0.06,0.14,0.17,0.16,0.19c0.07,0.1,0.15,0.2,0.22,0.31
		c0.14,0.22,0.27,0.44,0.38,0.67c0.01,0.01,0.03,0.07,0.05,0.12c0,0.01,0.01,0.02,0.01,0.03c0.05,0.15,0.1,0.29,0.14,0.45
		c0.03,0.12,0.06,0.24,0.08,0.36c0,0.01,0,0.02,0,0.02c0,0.05,0.01,0.11,0.01,0.12c0,0.12,0.01,0.25,0.01,0.37
		c0,0.06-0.01,0.13-0.01,0.19c0,0.01,0,0.01,0,0.02c0,0,0,0,0,0C309.77,338.24,309.71,338.46,309.64,338.69z"/>
	<path class="st1" d="M330.28,341.56c-0.84-0.55-1.97-0.6-2.94-0.78c-2.61-0.48-5.87-1.22-8.3,0.27c-0.62,0.38-1.16,0.9-1.54,1.53
		c-0.4,0.66-0.41,1.78,0.25,2.19c0.14,2.64,2.53,4,4.86,4.55c1.97,0.47,4.23,0.68,6.21,0.13c1.29-0.37,2.67-1.07,3.29-2.33
		c0.53-1.08,0.46-2.26-0.01-3.34C331.73,342.89,331.1,342.1,330.28,341.56z M328.78,343.51c-0.03,0-0.05-0.01-0.05-0.01
		C328.73,343.5,328.76,343.5,328.78,343.51z M319.92,343.69C319.93,343.67,319.93,343.67,319.92,343.69L319.92,343.69z
		 M327.41,347.63C327.31,347.65,327.33,347.64,327.41,347.63L327.41,347.63z M330.31,345.74c0-0.02-0.03,0.16-0.05,0.24
		c-0.01,0.04-0.02,0.08-0.04,0.11c0,0,0,0,0,0c-0.06,0.1-0.11,0.2-0.17,0.29c0,0,0,0,0,0c-0.04,0.04-0.08,0.09-0.12,0.13
		c-0.03,0.03-0.33,0.3-0.2,0.19c-0.56,0.44-1.22,0.66-1.91,0.83c-0.13,0.03-0.26,0.06-0.4,0.09c0,0,0,0,0,0
		c-0.16,0.01-0.31,0.03-0.47,0.04c-0.44,0.03-0.88,0.03-1.32,0.01c-0.53-0.02-1.06-0.06-1.59-0.13c-0.05-0.01-0.22-0.03-0.27-0.04
		c-0.14-0.02-0.28-0.05-0.41-0.07c-0.31-0.06-0.62-0.13-0.92-0.22c-0.61-0.17-0.93-0.29-1.45-0.59c-0.11-0.06-0.22-0.13-0.33-0.2
		c-0.15-0.1-0.1-0.07-0.18-0.13c-0.09-0.08-0.18-0.16-0.27-0.25c-0.04-0.04-0.08-0.09-0.12-0.13c-0.02-0.03-0.03-0.04-0.04-0.04
		c0,0,0,0-0.01-0.01c-0.07-0.1-0.13-0.2-0.19-0.3c-0.03-0.05-0.06-0.11-0.08-0.16c0-0.01,0,0,0-0.01c0-0.01,0,0-0.01-0.02
		c-0.1-0.29-0.13-0.45-0.14-0.64c-0.01-0.17-0.06-0.3-0.13-0.42c0.05-0.06,0.1-0.11,0.14-0.17c0.08-0.12,0.16-0.25,0.24-0.37
		c0-0.01,0-0.01,0.01-0.01c0.06-0.07,0.12-0.14,0.19-0.21c0.05-0.05,0.22-0.18,0.21-0.18c0.09-0.06,0.17-0.11,0.26-0.16
		c0.05-0.03,0.23-0.1,0.25-0.12c0.14-0.05,0.27-0.1,0.42-0.13c0.14-0.04,0.28-0.07,0.43-0.1c0.06-0.01,0.12-0.02,0.18-0.03
		c0.01,0,0.01,0,0.03,0c0.33-0.02,0.66-0.05,1-0.04c0.66,0,1.32,0.06,1.97,0.14c0.06,0.01,0.26,0.04,0.32,0.04
		c0.16,0.02,0.32,0.05,0.48,0.08c0.35,0.06,0.7,0.12,1.05,0.18c0.65,0.11,1.3,0.21,1.95,0.28c0.06,0.01,0.12,0.01,0.18,0.02
		c0.01,0,0.02,0,0.03,0c0.05,0.01,0.1,0.03,0.11,0.03c0.01,0,0.01,0,0.02,0c0.07,0.05,0.16,0.08,0.23,0.13
		c0.01,0.01,0.07,0.05,0.12,0.08c0.05,0.04,0.13,0.1,0.15,0.12c0.14,0.12,0.26,0.26,0.37,0.4c0.03,0.04,0.09,0.11,0.11,0.15
		c0.06,0.09,0.11,0.18,0.16,0.27c0.02,0.05,0.06,0.13,0.07,0.17c0.03,0.1,0.07,0.19,0.09,0.29c0.02,0.07,0.03,0.13,0.04,0.2
		c0,0.01,0.01,0.12,0.01,0.19C330.32,345.61,330.32,345.67,330.31,345.74z"/>
	<path class="st1" d="M363.37,280.73c0.01-0.01,0.01-0.01,0.02-0.02c-0.01,0.01-0.02,0.01-0.03,0.03
		C363.36,280.74,363.37,280.74,363.37,280.73z"/>
	<path class="st1" d="M363.17,283.43c1.37-0.06,2.41-1.01,2.84-2.27c0.41-1.19,0.29-2.51,0.09-3.73c-0.22-1.38-0.65-2.71-1.27-3.96
		c-0.59-1.18-1.3-2.38-2.24-3.32c-0.23-0.23-0.51-0.46-0.81-0.64c-0.07-0.38-0.27-0.72-0.64-0.9c-0.88-0.43-1.69-0.29-2.48,0.25
		c-0.56,0.38-1.01,0.87-1.35,1.45c-0.69,1.14-0.95,2.54-1,3.85c-0.09,2.7,0.86,5.89,2.93,7.74
		C360.29,282.85,361.7,283.49,363.17,283.43z M363.34,280.76c0,0,0.01,0,0.01,0C363.32,280.79,363.32,280.79,363.34,280.76z
		 M360.63,271.34c0,0-0.06,0.03-0.12,0.05C360.56,271.36,360.62,271.33,360.63,271.34z M359.4,274.21c0.01-0.14,0.01-0.28,0.03-0.43
		c0.01-0.08,0.03-0.21,0.04-0.28c0.04-0.24,0.08-0.47,0.15-0.7c0.03-0.12,0.07-0.24,0.11-0.36c0.01-0.04,0.03-0.08,0.05-0.13
		c0.1-0.19,0.2-0.38,0.32-0.57c0.01-0.01,0.01-0.01,0.01-0.02c0.01-0.01,0.01-0.01,0.02-0.01c0.07-0.07,0.15-0.14,0.22-0.22
		c0.01,0,0.01-0.01,0.03-0.01c0.02-0.01,0.06-0.04,0.11-0.07c0.15-0.05,0.31-0.1,0.45-0.18c0.23-0.13,0.33-0.27,0.5-0.44
		c0.01-0.01,0.02-0.03,0.03-0.04c0.05,0.06,0.1,0.12,0.14,0.17c0.56,0.78,0.93,1.69,1.23,2.6c0.36,1.09,0.66,2.23,0.88,3.35
		c0.02,0.13,0.05,0.26,0.07,0.39c0.01,0.08,0.05,0.37,0.04,0.29c-0.01-0.09,0.02,0.22,0.03,0.28c0.02,0.16,0.03,0.32,0.04,0.48
		c0.01,0.25,0.02,0.51,0.01,0.76c0,0.11-0.01,0.23-0.02,0.34c0,0.05-0.01,0.09-0.01,0.14c0,0,0,0,0,0.01
		c-0.04,0.21-0.08,0.41-0.14,0.61c-0.01,0.02-0.03,0.09-0.05,0.14c-0.03,0.05-0.07,0.13-0.08,0.16c-0.04,0.07-0.09,0.14-0.14,0.21
		c0.18-0.3,0.05-0.08-0.03,0.01c0,0,0,0,0,0c0.01,0,0.02-0.01,0.02-0.01c0,0-0.01,0.02-0.04,0.03c-0.01,0.01-0.01,0.01-0.02,0.02
		c0,0-0.01,0-0.01,0c0,0,0.01-0.01,0.01-0.01c-0.01,0.01-0.02,0.01-0.04,0.02c-0.04,0.01-0.12,0.03-0.16,0.05
		c-0.04,0-0.09,0-0.1-0.01c-0.03-0.01-0.13-0.02-0.18-0.02c-0.14-0.03-0.27-0.05-0.41-0.09c-0.11-0.03-0.21-0.07-0.31-0.1
		c-0.04-0.02-0.08-0.04-0.12-0.06c-0.1-0.06-0.21-0.11-0.3-0.17c-0.05-0.03-0.21-0.15-0.26-0.18c-0.15-0.13-0.3-0.26-0.43-0.4
		c-0.08-0.09-0.16-0.18-0.24-0.27c-0.04-0.06-0.09-0.12-0.13-0.18c-0.14-0.21-0.27-0.42-0.39-0.64c-0.07-0.13-0.13-0.26-0.2-0.39
		c-0.02-0.05-0.04-0.1-0.07-0.15c0,0,0-0.01,0-0.01c-0.19-0.53-0.36-1.06-0.48-1.62c-0.03-0.13-0.05-0.26-0.07-0.39
		c-0.01-0.06-0.02-0.12-0.02-0.17c-0.03-0.27-0.05-0.55-0.06-0.82C359.38,274.83,359.39,274.52,359.4,274.21z"/>
	<path class="st1" d="M366.75,299.66c-0.06-0.16-0.15-0.29-0.28-0.42c-0.43-0.42-1.11-0.44-1.65-0.28
		c-2.83,0.87-3.48,4.21-3.61,6.76c-0.06,1.23-0.04,2.46-0.01,3.69c0.03,1.05,0.06,1.93,0.7,2.82c0.64,0.9,1.55,1.64,2.62,1.97
		c1.25,0.39,2.53,0.02,3.51-0.82c1.78-1.54,2.25-4.08,2.38-6.31c0.14-2.22-0.06-5.1-1.93-6.61c-0.49-0.39-1.05-0.67-1.66-0.81
		C366.79,299.65,366.77,299.66,366.75,299.66z M368.04,303.12c0.39,1.12,0.43,2.04,0.38,3.26c-0.01,0.26-0.03,0.53-0.05,0.79
		c-0.01,0.13-0.02,0.25-0.04,0.38c-0.01,0.06-0.01,0.12-0.02,0.19c0,0.02,0,0.03-0.01,0.05c0,0.01,0,0.02-0.01,0.04
		c-0.06,0.44-0.14,0.87-0.24,1.3c-0.24,1.02-0.74,1.99-1.48,2.67c-0.01,0.01-0.05,0.04-0.09,0.07c-0.04,0.03-0.15,0.1-0.14,0.09
		c-0.04,0.03-0.2,0.1-0.22,0.12c-0.09,0.03-0.17,0.05-0.26,0.08c-0.01,0-0.03,0.01-0.05,0.01c0,0-0.11,0.01-0.15,0.01
		c-0.08,0-0.15-0.01-0.23-0.01c-0.01-0.01-0.13-0.02-0.2-0.04c-0.07-0.02-0.14-0.05-0.21-0.07c0.04,0.01-0.2-0.09-0.26-0.13
		c-0.09-0.05-0.18-0.11-0.27-0.17c0,0,0,0,0,0c-0.03-0.02-0.06-0.05-0.09-0.08c-0.08-0.07-0.15-0.15-0.23-0.23
		c-0.05-0.05-0.16-0.2-0.17-0.21c-0.09-0.14-0.18-0.28-0.26-0.43c-0.01-0.02-0.02-0.04-0.03-0.05c0-0.01,0-0.01,0-0.02
		c-0.03-0.09-0.05-0.19-0.08-0.28c0,0,0,0,0-0.01c0,0,0,0,0,0c0.01-0.07,0-0.16,0.01-0.24c0.02-0.26,0.04-0.53,0.05-0.79
		c0.03-0.58,0.02-1.16,0.02-1.74c0-0.65,0.01-1.3,0.05-1.96c0.02-0.3,0.04-0.6,0.08-0.9c0.01-0.05,0.01-0.09,0.02-0.14
		c0-0.02,0.01-0.05,0.01-0.07c0.03-0.18,0.06-0.36,0.1-0.54c0.06-0.28,0.13-0.55,0.21-0.82c0.04-0.13,0.09-0.26,0.13-0.39
		c0,0,0,0,0-0.01c0.04-0.08,0.07-0.15,0.11-0.23c0.06-0.11,0.12-0.23,0.19-0.34c0.04-0.06,0.13-0.18,0.14-0.2
		c0.07-0.08,0.14-0.16,0.21-0.23c0.04-0.04,0.09-0.08,0.14-0.13c0,0,0,0,0,0c0.12-0.07,0.24-0.15,0.36-0.22
		c0.02-0.01,0.04-0.02,0.05-0.03c0.02,0,0.04-0.01,0.1-0.03c0.14-0.05,0.25-0.11,0.36-0.17c0.09,0.07,0.2,0.13,0.34,0.16
		C367.21,301.67,367.74,302.28,368.04,303.12z M366.83,300.18C366.92,299.9,366.87,300.42,366.83,300.18L366.83,300.18z"/>
	<path class="st1" d="M363.22,325.13c-0.41-1.75-2.63-1.95-4.08-1.66c-1.38,0.28-2.67,1.1-3.72,2.02c-2.09,1.84-3.91,4.78-3.6,7.67
		c0.15,1.42,0.81,3.12,2.17,3.8c1.11,0.56,2.34,0.35,3.39-0.25c1.02-0.59,1.86-1.47,2.58-2.38c0.87-1.1,1.56-2.25,2.1-3.54
		c0.48-1.14,0.88-2.36,0.96-3.6c0.02-0.26,0-0.54-0.04-0.82C363.21,326.01,363.31,325.54,363.22,325.13z M355.13,334.62
		C355.13,334.62,355.13,334.62,355.13,334.62c-0.01,0-0.02-0.01-0.02-0.01C355.05,334.58,354.95,334.47,355.13,334.62z
		 M355.26,334.73c0-0.01,0.01-0.01,0.02-0.01c0.02,0.01,0.04,0.01,0.05,0.02C355.29,334.74,355.26,334.73,355.26,334.73z
		 M360.69,329.43c-0.29,0.48-0.59,0.95-0.92,1.4c-0.15,0.21-0.3,0.41-0.45,0.62c-0.08,0.12-0.17,0.23-0.25,0.35
		c-0.02,0.03-0.12,0.16-0.16,0.22c-0.33,0.43-0.69,0.84-1.07,1.23c-0.17,0.18-0.35,0.35-0.54,0.51c-0.09,0.08-0.19,0.16-0.29,0.25
		c-0.03,0.03-0.05,0.05-0.07,0.06c-0.02,0.01-0.04,0.03-0.07,0.05c-0.17,0.12-0.33,0.23-0.51,0.33c-0.09,0.05-0.19,0.1-0.28,0.15
		c-0.03,0.01-0.04,0.02-0.06,0.03c-0.01,0-0.01,0-0.02,0c-0.03,0.01-0.28,0.08-0.42,0.12c0.08,0,0.16,0.01-0.03,0.01
		c-0.03,0.01-0.06,0.02-0.06,0.01c0-0.01,0.01-0.01,0.02-0.01c-0.03,0-0.07,0-0.13,0c0.05,0.02,0.08,0.03-0.03,0
		c-0.02,0-0.03,0-0.04,0c-0.01-0.01-0.02-0.01-0.02-0.02c0,0,0,0,0.01,0c0,0-0.01,0-0.01,0c-0.05-0.03-0.1-0.07-0.16-0.09
		c0,0,0,0,0,0c-0.13-0.18-0.24-0.37-0.34-0.56c-0.01-0.01-0.03-0.07-0.05-0.12c0-0.01-0.01-0.03-0.01-0.03
		c-0.05-0.15-0.09-0.29-0.13-0.44c-0.02-0.1-0.06-0.55-0.03-0.13c-0.01-0.12-0.02-0.24-0.02-0.36c0-0.12,0-0.25,0-0.37
		c0-0.09,0.03-0.26,0.04-0.31c0.05-0.24,0.09-0.47,0.16-0.7c0.04-0.12,0.08-0.25,0.12-0.37c0.02-0.06,0.05-0.12,0.07-0.18
		c0-0.01,0-0.01,0-0.01c0,0,0,0,0-0.01c0.27-0.53,0.54-1.04,0.89-1.53c0.04-0.06,0.08-0.12,0.13-0.17c0.08-0.1,0.16-0.2,0.24-0.29
		c0.2-0.23,0.41-0.46,0.63-0.67c0.24-0.24,0.5-0.45,0.76-0.67c0,0,0,0,0.01,0c0.05-0.04,0.1-0.08,0.15-0.11
		c0.13-0.09,0.26-0.19,0.39-0.28c0.26-0.17,0.52-0.33,0.8-0.46c0.05-0.03,0.11-0.05,0.16-0.08c0.06-0.03,0.08-0.05,0.1-0.06
		c0.09-0.03,0.19-0.05,0.25-0.07c0.13-0.04,0.26-0.08,0.39-0.11c0.04-0.01,0.07-0.01,0.11-0.02c0.1-0.01,0.2-0.02,0.3-0.01
		c0.02,0,0.04,0,0.06,0c-0.02-0.01-0.03-0.01-0.05-0.02c0.02,0.01,0.05,0.02,0.08,0.02c0.02,0,0.04,0,0.05,0
		c0.08,0,0.11,0.02,0.12,0.04c0.02,0,0.04,0.01,0.05,0.01c0.01,0,0.02,0,0.03,0.01c0.39,0.23,0.75,0.31,1.18,0.35
		c-0.01,0.04-0.02,0.08-0.03,0.13C361.55,327.9,361.18,328.61,360.69,329.43z"/>
	<path class="st1" d="M360.52,326.52c-0.06-0.01-0.11-0.02-0.17-0.04c-0.01,0-0.02,0-0.03,0
		C360.47,326.54,360.53,326.54,360.52,326.52z"/>
	<path class="st1" d="M355.37,334.74c0.01,0,0.02,0,0.03,0c-0.03-0.01-0.06-0.02-0.09-0.02
		C355.34,334.73,355.35,334.73,355.37,334.74z"/>
	<path class="st1" d="M355.54,334.74c0.01,0,0.01,0,0.02,0c0.01,0,0.02,0,0.03-0.01c-0.03,0-0.05,0-0.07,0.01
		C355.53,334.74,355.54,334.74,355.54,334.74z"/>
	<path class="st1" d="M349.25,338.82c-2.08-2.42-5.74-1.58-8.36-0.74c-1.17,0.38-2.38,0.73-3.51,1.22
		c-0.83,0.36-1.49,1.11-1.89,1.91c-0.99,1.99-0.71,4.42,1.42,5.52c2.05,1.07,4.43,0.78,6.57,0.21c2.22-0.59,4.89-1.7,5.75-4.04
		c0.19-0.53,0.26-1.11,0.2-1.67c0-0.03-0.02-0.05-0.02-0.08C350.1,340.63,349.78,339.43,349.25,338.82z M347.03,340.31
		C347.11,340.36,347.08,340.34,347.03,340.31L347.03,340.31z M347.57,341.81c0,0.02-0.01,0.05-0.01,0.06
		c-0.05,0.27-0.14,0.49-0.2,0.6c-0.13,0.23-0.24,0.39-0.33,0.49c-0.18,0.2-0.38,0.4-0.6,0.56c0.09-0.07-0.18,0.12-0.21,0.14
		c-0.11,0.08-0.23,0.15-0.35,0.22c-0.26,0.15-0.53,0.29-0.8,0.41c-0.37,0.17-1.01,0.39-1.53,0.54c-0.53,0.15-1.07,0.28-1.61,0.37
		c-0.2,0.04-0.39,0.07-0.59,0.09c-0.05,0.01-0.15,0.02-0.18,0.02c-0.12,0.01-0.24,0.02-0.35,0.03c-0.35,0.03-0.69,0.03-1.04,0
		c-0.62-0.06-1.32-0.24-1.73-0.45c-0.12-0.06-0.23-0.13-0.34-0.2c-0.01-0.01-0.01-0.01-0.02-0.01c-0.04-0.03-0.08-0.07-0.12-0.1
		c-0.02-0.02-0.12-0.12-0.16-0.17c-0.03-0.05-0.12-0.18-0.14-0.22c-0.03-0.04-0.03-0.05-0.04-0.06c0-0.01,0,0,0-0.02
		c-0.03-0.1-0.06-0.19-0.08-0.29c-0.01-0.03-0.01-0.05-0.02-0.08c0-0.11,0-0.22-0.01-0.33c0-0.04,0.01-0.08,0.01-0.13
		c0.02-0.08,0.03-0.16,0.05-0.24c0.02-0.1,0.06-0.19,0.08-0.29c0.01-0.02,0.01-0.04,0.01-0.05c0.01-0.01,0.02-0.03,0.03-0.06
		c0.09-0.18,0.19-0.34,0.3-0.51c0.01-0.02,0.03-0.04,0.05-0.06c0.07-0.07,0.13-0.15,0.19-0.22c0.06-0.06,0.13-0.12,0.19-0.18
		c0.06-0.03,0.13-0.08,0.19-0.12c0,0,0.01,0,0.01-0.01c0,0,0,0,0,0c0.52-0.08,1.05-0.27,1.55-0.43c1.35-0.45,2.7-0.92,4.1-1.18
		c0.15-0.03,0.3-0.05,0.46-0.07c0.04,0,0.28-0.03,0.34-0.03c0.34-0.03,0.68-0.02,1.03-0.01c0.07,0,0.11,0,0.12,0
		c0.02,0,0.04,0.01,0.1,0.02c0.15,0.03,0.29,0.06,0.44,0.11c0.07,0.02,0.14,0.05,0.21,0.07c0.14,0.07,0.28,0.16,0.42,0.24
		c0.01,0.01,0.01,0.01,0.02,0.01c0.05,0.05,0.1,0.09,0.15,0.14c0.11,0.11,0.21,0.23,0.31,0.35c0.05,0.05,0.1,0.09,0.15,0.14
		c-0.04,0.1-0.06,0.21-0.06,0.32c0.01,0.14,0.01,0.27,0.01,0.41C347.58,341.7,347.57,341.76,347.57,341.81z"/>
	<path class="st1" d="M260.12,403.07c-1.53-4.72-3.32-9.5-5.55-13.94c-1.14-2.27-2.43-4.45-3.71-6.64
		c-0.24-0.41-0.62-0.69-1.05-0.85c-3.97-3.31-11.66-1.3-13.77,3.28c-1.74,3.77-1.05,8-0.18,11.89c0.93,4.2,1.94,8.38,2.78,12.59
		c2.89,14.58,3.8,32.58-6.47,44.7c-4.3,5.07-10.51,8.92-17.26,9.36c-6.32,0.41-12.36-2.19-16.69-6.77
		c-11.01-11.62-9.08-28.75-4.69-42.78c1.1-3.51,2.26-7.04,3.74-10.41c1.27-2.89,2.68-5.71,3.93-8.6c1.88-4.33,4.65-10.89,1.44-15.27
		c-0.47-0.64-1.08-1.08-1.76-1.41c-0.09-0.3-0.28-0.57-0.6-0.74c-3.99-2.07-8.61-1.58-12.22,1.03c-3.92,2.83-6.14,7.15-7.96,11.51
		c-4.08,9.77-7.53,19.94-9.4,30.38c-1.76,9.8-2.11,19.95,0.14,29.7c1.91,8.28,5.61,16.18,11.03,22.74
		c5.33,6.46,12.54,11.38,20.68,13.53c8.42,2.22,17.49,1.57,25.67-1.3c8.4-2.95,15.84-8.11,21.53-14.96
		c5.79-6.98,9.77-15.3,12.05-24.07c2.41-9.31,2.8-19.02,1.63-28.54C262.8,412.57,261.65,407.78,260.12,403.07z M259.18,437.47
		c-2.1,16.39-10.66,32.5-25.46,40.66c-6.96,3.84-14.96,5.83-22.91,5.41c-7.73-0.41-15.16-3.38-21.03-8.43
		c-12.71-10.94-17.37-28.25-16.3-44.49c0.65-9.93,3.25-19.63,6.5-29c1.55-4.47,3.1-9.05,5.22-13.29c1.85-3.7,4.43-7.03,8.52-8.31
		c1.93-0.61,3.59-0.78,5.49,0.02c0.13,0.05,0.25,0.08,0.37,0.09c2.64,3.59,0.15,8.79-1.4,12.43c-1.22,2.86-2.62,5.63-3.9,8.46
		c-1.48,3.28-2.7,6.67-3.84,10.08c-4.85,14.56-7.28,31.49,2.05,44.84c3.77,5.4,9.05,9.88,15.51,11.59
		c6.84,1.81,14.29,0.1,20.24-3.54c13.48-8.24,18.06-25.02,16.75-39.98c-0.75-8.64-2.63-17.09-4.55-25.53
		c-0.81-3.57-2.29-7.94-0.81-11.53c0.79-1.91,3.42-2.8,5.42-2.91c0.79-0.04,1.7,0.02,2.36,0.46c0,0,0,0,0,0
		c1.85,4.3,3.7,8.63,5.46,12.97c1.75,4.33,3.26,8.75,4.4,13.28C259.48,419.55,260.34,428.44,259.18,437.47z"/>
	<path class="st1" d="M182.32,415.69c1.26,0.45,2.88-0.02,3.95-0.75c2.42-1.64,3.48-4.68,3.63-7.5c0.08-1.52-0.17-3.11-0.87-4.48
		c-0.73-1.42-2.43-2.84-4.06-1.99c-0.34,0.18-0.55,0.51-0.63,0.87c-1.14,0.66-2.11,2.42-2.54,3.21c-1.25,2.34-2.12,5.26-1.63,7.92
		C180.4,414.18,181.14,415.26,182.32,415.69z M185.46,411.95C185.42,412.01,185.37,412.06,185.46,411.95L185.46,411.95z
		 M182.49,410.06c0.04-0.47,0.11-0.89,0.24-1.51c0.12-0.57,0.26-1.15,0.41-1.71c0.28-1.11,0.64-2.22,1.22-3.21
		c0.1-0.17,0.21-0.34,0.32-0.49c0.01,0.01,0.01,0.01,0.01,0.02c0.29,0.28,0.56,0.47,0.94,0.61c0.07,0.05,0.15,0.1,0.23,0.13
		c0,0,0,0,0.01,0.01c0.06,0.07,0.13,0.14,0.19,0.2c0,0,0,0,0.01,0.01c0.05,0.08,0.11,0.16,0.16,0.25c0.06,0.1,0.11,0.21,0.16,0.31
		c0.01,0.01,0.01,0.02,0.01,0.03c0.05,0.22,0.15,0.43,0.21,0.65c0.06,0.24,0.09,0.49,0.15,0.73c0,0.02,0.01,0.05,0.01,0.07
		c0.01,0.14,0.02,0.28,0.03,0.43c0.04,0.55,0.03,1.11-0.01,1.66c-0.01,0.11-0.02,0.22-0.03,0.33c-0.01,0.04-0.02,0.15-0.04,0.23
		c-0.05,0.28-0.11,0.56-0.18,0.83c-0.07,0.27-0.15,0.54-0.25,0.8c-0.03,0.08-0.06,0.17-0.1,0.25c-0.01,0.01-0.09,0.19-0.12,0.27
		c-0.12,0.24-0.25,0.48-0.39,0.7c-0.07,0.1-0.14,0.2-0.21,0.31c0,0.01-0.01,0.01-0.01,0.02c-0.03,0.04-0.06,0.07-0.09,0.1
		c-0.17,0.19-0.35,0.37-0.54,0.54c-0.03,0.03-0.03,0.03-0.05,0.05c-0.01,0-0.01,0-0.03,0.02c-0.11,0.07-0.22,0.15-0.34,0.22
		c-0.09,0.05-0.18,0.09-0.27,0.14c-0.03,0.01-0.12,0.05-0.2,0.07c-0.11,0.04-0.23,0.07-0.35,0.1c-0.06,0.01-0.19,0.03-0.25,0.04
		c-0.17,0-0.36-0.05-0.06,0.04c-0.07-0.02-0.16-0.04-0.24-0.06c0,0,0,0,0,0c-0.01,0-0.02-0.01-0.03-0.01c0,0-0.01,0-0.01,0
		c0,0,0,0,0,0c0,0,0,0,0,0c0,0,0,0,0,0c-0.03-0.01-0.05-0.01-0.05-0.02c-0.07-0.05-0.08-0.12,0.03,0c0,0,0,0,0,0
		c-0.05-0.05-0.11-0.11-0.16-0.15c0-0.01,0,0,0-0.01c-0.04-0.08-0.09-0.15-0.13-0.23c-0.01-0.02-0.01-0.02-0.02-0.04
		c0-0.01,0-0.01-0.01-0.03c-0.06-0.21-0.12-0.41-0.17-0.62c-0.01-0.05-0.02-0.12-0.03-0.16c-0.01-0.1-0.02-0.2-0.03-0.31
		C182.42,411.11,182.44,410.58,182.49,410.06z"/>
	<path class="st1" d="M183,413.17c0.01,0.01,0.01,0.01,0.02,0.02c0,0,0.01,0,0.01,0c0.01,0,0.01,0,0.02,0c0.01,0,0.01,0,0.02,0
		C183.16,413.19,183.06,413.17,183,413.17z"/>
	<path class="st1" d="M182.97,413.17c0.01,0.01,0.03,0.01,0.05,0.01c-0.01-0.01-0.01-0.01-0.02-0.02
		C182.98,413.17,182.97,413.17,182.97,413.17z"/>
	<path class="st1" d="M185.77,443.31c0.1-0.51,0.05-1.03,0.06-1.55c0-0.58-0.01-1.16-0.02-1.74c-0.04-2.51-0.13-5.6-2.03-7.5
		c-0.49-0.49-1.16-0.92-1.83-1.11c-0.71-0.2-1.64,0.08-1.9,0.74c-0.01,0-0.02,0-0.04,0c-2.61,0.64-3.41,3.39-3.49,5.77
		c-0.07,2.03,0.19,4.26,1.14,6.09c0.64,1.25,1.71,2.49,3.16,2.75c1.24,0.22,2.37-0.22,3.33-0.99
		C184.9,445.16,185.58,444.28,185.77,443.31z M182.16,434.62C182.08,434.52,182.12,434.57,182.16,434.62L182.16,434.62z
		 M181.97,444.56C181.94,444.57,181.94,444.57,181.97,444.56L181.97,444.56z M183.28,443.27
		C183.27,443.29,183.27,443.29,183.28,443.27L183.28,443.27z M183.3,443.22c-0.1,0.18-0.2,0.35-0.3,0.52
		c-0.01,0.02-0.01,0.02-0.01,0.03c-0.01,0.01-0.02,0.02-0.05,0.06c-0.07,0.08-0.14,0.16-0.22,0.24c-0.06,0.05-0.12,0.1-0.17,0.15
		c-0.02,0.01-0.2,0.14-0.25,0.17c-0.09,0.05-0.18,0.1-0.27,0.14c-0.04,0.01-0.08,0.03-0.13,0.04c-0.1,0.03-0.2,0.05-0.3,0.07
		c0,0,0,0,0,0c-0.07,0-0.14,0-0.2,0.01c-0.06,0-0.08,0.01-0.09,0.01c0,0,0-0.01-0.03-0.01c-0.11-0.03-0.22-0.06-0.33-0.09
		c-0.01,0-0.01,0-0.02,0c-0.01,0-0.01-0.01-0.02-0.01c-0.06-0.03-0.11-0.06-0.17-0.09c-0.06-0.03-0.11-0.07-0.17-0.11
		c-0.03-0.02-0.03-0.02-0.02-0.01c-0.01-0.01-0.02-0.02-0.05-0.04c-0.57-0.49-0.9-1.09-1.24-1.77c-0.03-0.07-0.05-0.1-0.06-0.13
		c0-0.01-0.01-0.02-0.02-0.06c-0.02-0.06-0.04-0.11-0.06-0.17c-0.05-0.17-0.1-0.33-0.15-0.5c-0.11-0.43-0.2-0.87-0.27-1.31
		c-0.02-0.12-0.04-0.23-0.05-0.35c0-0.03-0.03-0.23-0.03-0.26c-0.03-0.3-0.06-0.59-0.08-0.89c-0.03-0.58-0.03-1.16,0.02-1.74
		c0.03-0.34,0.03-0.34,0.09-0.63c0.05-0.29,0.12-0.57,0.22-0.84c0.01-0.04,0.08-0.21,0.09-0.24c0.04-0.1,0.09-0.2,0.14-0.29
		c0.06-0.1,0.12-0.21,0.19-0.31c0.02-0.03,0.05-0.07,0.07-0.1c0.01-0.01,0.09-0.1,0.11-0.12c0.36-0.35,0.57-0.49,1.06-0.62
		c0.14-0.04,0.26-0.1,0.35-0.17c0.1,0.05,0.19,0.1,0.29,0.14c0.07,0.03,0.25,0.1,0.25,0.1c0.11,0.06,0.21,0.13,0.32,0.18
		c0.01,0.01,0.01,0.01,0.02,0.01c0.03,0.02,0.06,0.05,0.09,0.07c0.09,0.09,0.18,0.17,0.26,0.26c0.03,0.03,0.05,0.06,0.07,0.09
		c0,0.01,0.01,0.01,0.01,0.02c0.08,0.14,0.17,0.27,0.25,0.41c0.05,0.08,0.09,0.17,0.13,0.26c-0.03-0.05,0.08,0.19,0.1,0.25
		c0.11,0.3,0.19,0.6,0.26,0.91c0.07,0.3,0.12,0.61,0.17,0.92c0,0.01,0,0.01,0,0.01c0.01,0.07,0.02,0.14,0.02,0.2
		c0.02,0.19,0.04,0.37,0.05,0.56c0.1,1.21,0.07,2.42,0.15,3.63c0.02,0.25,0.04,0.5,0.07,0.75c0.01,0.08,0.01,0.17,0.02,0.25
		c0,0.02,0,0.04,0,0.06c-0.03,0.07-0.04,0.16-0.06,0.23C183.34,443.14,183.32,443.18,183.3,443.22z"/>
	<path class="st1" d="M190.66,466.67c0.01,0,0.01,0,0.02,0c0.05-0.01,0.11-0.02,0.14-0.03
		C190.78,466.63,190.71,466.63,190.66,466.67z"/>
	<path class="st1" d="M189.99,457.98c-1.3-0.98-2.82-1.66-4.44-1.84c-0.66-0.07-1.36-0.03-1.99,0.18c-0.35,0.12-0.69,0.27-0.99,0.48
		c-0.65,0.45-0.96,0.96-1.02,1.76c-0.03,0.42,0.17,0.77,0.46,1.02c0,0.2,0.02,0.4,0.05,0.59c0.17,1.03,0.65,2.03,1.15,2.93
		c1.2,2.16,2.99,4.25,5.2,5.42c0.99,0.52,2.18,0.88,3.28,0.52c1.38-0.45,2.13-1.81,2.34-3.17
		C194.55,462.67,192.42,459.82,189.99,457.98z M188.75,460.83c0.01,0.01,0.02,0.02,0.03,0.03
		C188.71,460.8,188.6,460.71,188.75,460.83z M190.84,466.65C190.84,466.65,190.84,466.65,190.84,466.65
		C190.84,466.65,190.84,466.65,190.84,466.65z M191.12,466.43c-0.02,0.02-0.04,0.05-0.07,0.07
		C191.09,466.34,191.23,466.31,191.12,466.43z M191.36,464.63c0,0.02,0.01,0.03,0.01,0.05c0.01,0.25,0.03,0.5,0.02,0.75
		c0,0.02,0,0.05,0,0.08c0,0.01-0.01,0.01-0.01,0.02c-0.03,0.15-0.07,0.31-0.11,0.46c-0.01,0.03-0.05,0.15-0.08,0.23
		c-0.04,0.06-0.12,0.24-0.13,0.27c-0.01,0.01-0.02,0.02-0.03,0.03c-0.01,0.01-0.02,0.02-0.03,0.03c-0.04,0.02-0.08,0.04-0.12,0.07
		c-0.01,0-0.02,0.01-0.02,0.01c-0.01,0-0.02,0-0.03,0c0.01,0,0.01,0,0.02,0.01c0,0-0.01,0.01-0.01,0.01c-0.01,0-0.02,0.01-0.05,0.01
		c-0.03,0-0.06,0-0.1,0c-0.03,0.01-0.05,0.01-0.06,0.02c0.01-0.01,0.02-0.01,0.04-0.02c-0.02,0-0.05,0-0.07,0
		c-0.06,0-0.12-0.01-0.18-0.01c-0.02,0-0.04-0.01-0.06-0.01c-0.21-0.05-0.41-0.11-0.61-0.18c-0.02-0.01-0.04-0.01-0.05-0.02
		c-0.01-0.01-0.02-0.01-0.04-0.02c-0.09-0.04-0.17-0.08-0.26-0.12c-0.23-0.12-0.46-0.25-0.68-0.39c-0.21-0.13-0.42-0.28-0.62-0.43
		c-0.05-0.04-0.13-0.1-0.16-0.12c-0.11-0.09-0.22-0.18-0.33-0.27c-0.85-0.71-1.64-1.51-2.39-2.32c-0.74-0.8-1.32-1.5-1.82-2.53
		c-0.07-0.15-0.1-0.2-0.14-0.32c0.02,0,0.05,0,0.07-0.01c0.09-0.02,0.18-0.04,0.27-0.06c0.29-0.09,0.47-0.22,0.69-0.4c0,0,0,0,0,0
		c0.04-0.02,0.07-0.05,0.09-0.06c0.03-0.02,0.06-0.03,0.09-0.05c0.06-0.02,0.13-0.04,0.19-0.06c0.02,0,0.04-0.01,0.06-0.01
		c-0.03,0-0.04,0-0.08,0c0.03,0,0.06,0,0.1,0c0.04-0.01,0.08-0.02,0.12-0.03c0.09-0.02,0.11,0.01,0.04,0.02
		c0.15-0.01,0.3-0.02,0.45-0.01c0.03,0,0.06,0.01,0.09,0.01c0.08,0.02,0.16,0.03,0.25,0.05c0.28,0.06,0.55,0.14,0.82,0.24
		c0.06,0.02,0.14,0.04,0.21,0.07c0.02,0.01,0.03,0.02,0.05,0.03c0.07,0.03,0.13,0.06,0.2,0.09c0.27,0.13,0.54,0.27,0.8,0.43
		c0.24,0.14,0.47,0.29,0.7,0.45c0.09,0.06,0.23,0.2,0.34,0.25c0.06,0.05,0.12,0.09,0.17,0.14c0.46,0.39,0.88,0.83,1.27,1.29
		c0-0.01-0.01-0.02-0.01-0.02c0,0,0.02,0.03,0.04,0.06c0,0.01,0.01,0.01,0.01,0.02c0.04,0.04,0.05,0.06,0.04,0.06
		c0,0,0.01,0.01,0.01,0.01c0.09,0.12,0.18,0.25,0.26,0.38c0.16,0.25,0.31,0.51,0.44,0.78c0.02,0.05,0.04,0.09,0.07,0.14c0,0,0,0,0,0
		c0.03,0.11,0.08,0.22,0.11,0.33c0.04,0.14,0.08,0.27,0.11,0.41C191.34,464.52,191.35,464.58,191.36,464.63z"/>
	<path class="st1" d="M184.88,459.26c-0.05,0-0.11,0-0.16,0c-0.01,0-0.01,0-0.02,0C184.79,459.27,184.85,459.27,184.88,459.26z"/>
	<path class="st1" d="M190.33,462.42c-0.01-0.02-0.03-0.05-0.06-0.08c-0.01-0.01-0.02-0.02-0.03-0.04
		C190.25,462.35,190.32,462.42,190.33,462.42z"/>
	<path class="st1" d="M211.44,472.14c-0.76-0.75-1.79-0.98-2.78-1.29c-2.68-0.85-5.84-2.03-8.58-0.84
		c-0.63,0.27-1.19,0.69-1.62,1.23c-0.5,0.62-0.78,1.79-0.08,2.3c0,0.02-0.02,0.04-0.02,0.07c-0.21,2.68,2.22,4.28,4.43,5.1
		c1.93,0.71,4.11,1.13,6.16,0.81c1.32-0.21,2.63-0.78,3.41-1.91c0.6-0.88,0.69-2.01,0.45-3.03
		C212.58,473.68,212.1,472.79,211.44,472.14z M210.43,476.56C210.39,476.62,210.41,476.6,210.43,476.56L210.43,476.56z
		 M210.62,476.26C210.62,476.26,210.62,476.26,210.62,476.26c-0.06,0.09-0.11,0.18-0.16,0.27c-0.03,0.04-0.06,0.08-0.1,0.11
		c-0.03,0.03-0.15,0.14-0.17,0.16c-0.1,0.08-0.21,0.15-0.32,0.21c-0.46,0.26-1.09,0.43-1.73,0.51c-0.36,0.05-0.71,0.05-1.08,0.03
		c-0.2-0.01-0.4-0.03-0.59-0.05c-0.1-0.01-0.21-0.02-0.31-0.04c-0.01,0,0,0-0.01,0c-0.08-0.01-0.15-0.02-0.23-0.03
		c-0.55-0.09-1.09-0.2-1.63-0.34c-0.26-0.07-0.51-0.14-0.77-0.23c-0.23-0.07-0.68-0.24-0.77-0.28c-0.51-0.22-1-0.48-1.45-0.81
		c-0.31-0.23-0.64-0.6-0.87-0.98c-0.07-0.12-0.07-0.14-0.08-0.15c-0.04-0.12-0.08-0.24-0.11-0.36c-0.05-0.19-0.02-0.02-0.04-0.22
		c-0.01-0.15-0.01-0.3,0-0.46c0.01-0.14-0.01-0.25-0.05-0.36c0.04-0.03,0.08-0.06,0.11-0.1c0,0,0.36-0.42,0.15-0.18
		c0.04-0.04,0.07-0.09,0.11-0.13c0.06-0.05,0.42-0.35,0.19-0.2c0.12-0.08,0.24-0.16,0.37-0.23c0.04-0.02,0.09-0.05,0.14-0.07
		c0.02-0.01,0.04-0.02,0.05-0.02c0.14-0.04,0.28-0.09,0.43-0.12c0.07-0.02,0.15-0.03,0.22-0.05c0.03-0.01,0.04-0.01,0.05-0.01
		c0.02,0,0.03,0,0.06,0c0.3-0.02,0.59-0.03,0.89-0.02c0.17,0.01,0.33,0.02,0.49,0.03c0.08,0.01,0.17,0.02,0.25,0.03
		c0.03,0,0.03,0,0.03,0c0.01,0,0.03,0.01,0.07,0.01c0.71,0.12,1.41,0.28,2.1,0.47c1.2,0.33,2.4,0.83,3.63,1.01c0.01,0,0.01,0,0.02,0
		c0.05,0.03,0.11,0.06,0.15,0.08c0.06,0.03,0.12,0.08,0.18,0.12c-0.31-0.19-0.03-0.01,0.06,0.07c0.08,0.07,0.32,0.39,0.29,0.32
		c0.09,0.14,0.19,0.28,0.27,0.42c0.03,0.06,0.07,0.14,0.08,0.17c0.02,0.06,0.05,0.13,0.07,0.2c0.03,0.1,0.05,0.2,0.07,0.29
		c0.01,0.04,0.02,0.06,0.02,0.08c0,0.02,0,0.04,0,0.07c0,0.1,0,0.2,0,0.3c0,0.03,0,0.06-0.01,0.09c-0.02,0.08-0.04,0.17-0.06,0.25
		C210.65,476.17,210.63,476.21,210.62,476.26z"/>
	<path class="st1" d="M251.53,415.72c0.01,0,0.01,0,0.02,0c0,0,0.01,0,0.01,0c0.01,0,0.02-0.01,0.03-0.02
		C251.62,415.67,251.57,415.7,251.53,415.72z"/>
	<path class="st1" d="M251.43,418.36c1.24-0.05,2.27-0.85,2.77-1.96c1.05-2.34,0.59-5.47-0.25-7.81c-0.46-1.26-1.02-2.54-1.87-3.59
		c-0.18-0.23-0.4-0.44-0.64-0.62c-0.07-0.43-0.33-0.86-0.67-1.08c-1.44-0.95-3.16,0.34-4.01,1.5c-0.81,1.1-1.2,2.48-1.37,3.81
		c-0.34,2.75,0.27,5.93,2.21,8C248.53,417.6,250.02,418.42,251.43,418.36z M251.51,415.74c0.01,0,0.02,0,0.02,0
		C251.51,415.75,251.5,415.75,251.51,415.74z M251.67,415.65C251.74,415.59,251.75,415.6,251.67,415.65L251.67,415.65z
		 M249.94,406.06c0.01,0.01-0.05,0.03-0.11,0.05C249.88,406.07,249.93,406.05,249.94,406.06z M248.37,409.54
		c0-0.05,0.02-0.19,0.03-0.29c0.01-0.09,0.05-0.31,0.05-0.36c0.05-0.28,0.11-0.56,0.18-0.84c0.07-0.26,0.18-0.51,0.26-0.77
		c0.03-0.05,0.05-0.11,0.08-0.16c0.06-0.11,0.12-0.22,0.18-0.33c0.06-0.1,0.13-0.2,0.19-0.3c0.02-0.02,0.03-0.03,0.05-0.05
		c0.08-0.08,0.16-0.15,0.24-0.23c0,0,0,0,0,0c0.01-0.01,0.02-0.01,0.03-0.01c0.02-0.01,0.07-0.05,0.13-0.08
		c0.04-0.01,0.09-0.03,0.13-0.04c0.4-0.11,0.7-0.3,1.01-0.54c0.05,0.08,0.1,0.17,0.15,0.26c0.44,0.83,0.68,1.77,0.87,2.69
		c0.24,1.19,0.36,2.06,0.43,3.25c0.03,0.55,0.04,1.1,0.01,1.65c-0.01,0.12-0.02,0.24-0.03,0.36c0,0.04-0.02,0.13-0.02,0.18
		c-0.04,0.23-0.08,0.46-0.14,0.69c-0.05,0.18-0.11,0.35-0.17,0.52c-0.01,0.03-0.03,0.06-0.05,0.09c-0.05,0.09-0.13,0.19-0.18,0.29
		c-0.01,0,0,0-0.01,0c-0.04,0.03-0.09,0.08-0.14,0.13c-0.01,0.01-0.02,0.01-0.03,0.02c-0.02,0.01-0.02,0.01-0.04,0.02c0,0,0,0,0,0
		c0,0-0.01,0.01-0.03,0.01c0,0,0,0-0.01,0c0,0,0,0-0.01,0c-0.01,0-0.02,0.01-0.03,0.01c0,0,0.01,0,0.01-0.01
		c-0.04,0-0.09,0.01-0.11,0.02c-0.21-0.04-0.43-0.11-0.63-0.17c-0.03-0.01-0.05-0.01-0.06-0.02c-0.01-0.01-0.02-0.02-0.05-0.03
		c-0.12-0.06-0.24-0.13-0.36-0.2c-0.03-0.02-0.14-0.09-0.2-0.13c-0.05-0.05-0.18-0.15-0.21-0.19c-0.09-0.08-0.17-0.17-0.25-0.26
		c-0.03-0.03-0.13-0.17-0.17-0.21c-0.13-0.19-0.25-0.37-0.36-0.57c-0.06-0.11-0.12-0.22-0.17-0.34c-0.02-0.05-0.05-0.1-0.07-0.15
		c0-0.01,0,0,0-0.01c-0.09-0.27-0.19-0.52-0.26-0.79c-0.08-0.27-0.14-0.55-0.19-0.83c-0.01-0.04-0.03-0.19-0.04-0.27
		c-0.01-0.09-0.03-0.25-0.03-0.3C248.32,410.69,248.33,410.12,248.37,409.54z"/>
	<path class="st1" d="M252.61,434.89c-0.19-0.79-1.32-1.08-2.07-0.88c-2.66,0.69-3.71,3.51-4.15,5.94
		c-0.23,1.26-0.38,2.55-0.51,3.83c-0.02,0.23-0.05,0.47-0.07,0.7c0,0,0,0.01,0,0.01c-0.01,0.07-0.03,0.25-0.03,0.21
		c-0.02,0.14-0.04,0.27-0.04,0.41c0,0.56,0.19,1.12,0.44,1.62c1.07,2.17,3.78,3.47,5.93,1.96c1.97-1.38,2.79-3.78,3.19-6.04
		c0.39-2.22,0.56-5.11-1.19-6.84C253.68,435.38,253.17,435.1,252.61,434.89z M253.53,441c-0.03,0.31-0.04,0.34-0.09,0.69
		c-0.17,0.98-0.42,1.96-0.77,2.9c-0.03,0.08-0.06,0.15-0.09,0.23c0,0.01,0,0.01-0.01,0.02c-0.1,0.19-0.19,0.37-0.3,0.56
		c-0.37,0.61-0.87,1.24-1.42,1.56c-0.06,0.04-0.13,0.07-0.19,0.1c-0.02,0.01-0.01,0.01-0.02,0.01c-0.01,0,0,0-0.01,0
		c-0.11,0.04-0.22,0.07-0.33,0.1c-0.01,0-0.01,0-0.02,0.01c-0.05,0-0.1,0.01-0.15,0.01c-0.06,0-0.12,0-0.18,0c-0.01,0-0.02,0-0.03,0
		c-0.01,0-0.02-0.01-0.03-0.01c-0.11-0.03-0.23-0.06-0.34-0.1c-0.03-0.01-0.03-0.01-0.04-0.01c-0.01-0.01-0.02-0.02-0.06-0.04
		c-0.1-0.06-0.2-0.12-0.3-0.18c-0.01-0.01-0.03-0.02-0.05-0.04c-0.03-0.03-0.1-0.08-0.11-0.09c-0.09-0.08-0.17-0.17-0.25-0.25
		c-0.03-0.03-0.03-0.03-0.04-0.03c-0.01-0.02-0.02-0.04-0.06-0.09c-0.06-0.1-0.13-0.19-0.18-0.29c-0.02-0.04-0.09-0.17-0.12-0.23
		c-0.02-0.05-0.06-0.14-0.06-0.17c-0.03-0.1-0.05-0.2-0.08-0.3c0-0.01-0.01-0.02-0.01-0.03c0,0,0,0,0-0.01
		c0-0.03,0.01-0.13,0.01-0.19c0.01-0.06,0.02-0.12,0.03-0.14c0.02-0.12,0.05-0.23,0.07-0.35c0.07-0.35,0.12-0.7,0.16-1.05
		c0.04-0.28,0.07-0.55,0.11-0.83c0.02-0.14,0.04-0.29,0.06-0.43c0,0,0-0.02,0-0.03c0.01-0.05,0.02-0.16,0.03-0.18
		c0.17-1.23,0.39-2.47,0.83-3.64c0.02-0.05,0.04-0.1,0.06-0.15c0.01-0.01,0.01-0.01,0.02-0.03c0.05-0.11,0.1-0.22,0.16-0.33
		c0.06-0.12,0.13-0.24,0.2-0.35c0.03-0.05,0.13-0.19,0.16-0.24c0.13-0.15,0.27-0.3,0.42-0.43c0.04-0.03,0.13-0.1,0.18-0.13
		c0.05-0.03,0.21-0.11,0.27-0.14c0.07-0.02,0.24-0.08,0.27-0.09c0.16-0.04,0.32-0.09,0.47-0.15c0.11,0.11,0.24,0.2,0.39,0.26
		c0.12,0.05,0.37,0.18,0.56,0.32c-0.12-0.09,0.14,0.14,0.16,0.16c0.04,0.04,0.08,0.09,0.12,0.14c0.02,0.02,0.03,0.03,0.03,0.04
		c0,0,0,0.01,0.02,0.03c0.31,0.45,0.41,0.72,0.53,1.31c0.08,0.41,0.12,0.94,0.11,1.5C253.57,440.43,253.55,440.71,253.53,441z"/>
	<path class="st1" d="M239.39,467.23c0.02-0.02,0.05-0.03,0.07-0.05c0,0,0,0,0,0C239.38,467.23,239.37,467.24,239.39,467.23z"/>
	<path class="st1" d="M239.2,462.12c-0.05,0.03-0.1,0.06-0.15,0.08c0,0,0,0,0,0C239.22,462.14,239.24,462.12,239.2,462.12z"/>
	<path class="st1" d="M245,458.26c-0.3-0.22-0.62-0.36-0.97-0.49c-0.56-0.2-1.19-0.27-1.79-0.22c-1.42,0.12-2.8,0.65-3.98,1.45
		c-2.43,1.65-4.68,4.36-4.69,7.44c-0.01,1.43,0.54,3.13,1.8,3.93c1.06,0.68,2.32,0.51,3.41,0.03c1.05-0.46,1.98-1.23,2.79-2.03
		c0.95-0.94,1.77-1.99,2.44-3.15c0.6-1.06,1.18-2.22,1.4-3.43c0.05-0.27,0.08-0.58,0.08-0.89c0.28-0.24,0.47-0.57,0.42-0.99
		C245.84,459.19,245.61,458.7,245,458.26z M244.04,461.86c-0.11,0.22-0.23,0.44-0.36,0.65c-0.12,0.19-0.24,0.37-0.36,0.56
		c-0.07,0.11-0.15,0.21-0.22,0.32c-0.03,0.04-0.06,0.08-0.09,0.13c-0.03,0.04-0.06,0.07-0.08,0.11c-0.68,0.86-1.44,1.68-2.22,2.45
		c-0.39,0.39-0.8,0.75-1.23,1.1c0.02-0.01,0.02-0.01,0.04-0.03c-0.02,0.01-0.03,0.02-0.05,0.03c0,0,0,0,0,0
		c-0.02,0.02-0.05,0.04-0.07,0.05c-0.01,0.01-0.03,0.02-0.04,0.03c-0.09,0.07-0.19,0.13-0.28,0.2c-0.21,0.14-0.43,0.28-0.65,0.41
		c-0.09,0.05-0.18,0.1-0.28,0.15c-0.06,0.03-0.12,0.06-0.18,0.09c-0.16,0.08,0.11-0.06,0.11-0.05c-0.01,0.07-0.51,0.18-0.59,0.2
		c-0.01,0-0.06,0.02-0.12,0.03c0.05,0,0.08,0.01-0.03,0.01c0,0,0,0-0.01,0c-0.07,0.02-0.13,0.03-0.14,0.02c0-0.01,0-0.01,0.01-0.01
		c0,0,0,0,0,0c-0.04,0-0.08,0-0.12,0c0.01,0.01,0.03,0.01,0.04,0.02c-0.01-0.01-0.07-0.02-0.11-0.02c-0.01,0-0.03,0-0.04,0
		c0.01,0.01,0.02,0.01,0.02,0.03c0-0.01-0.02-0.02-0.03-0.03c-0.01,0-0.02,0-0.03,0c-0.06,0-0.05-0.01-0.03-0.02
		c-0.02-0.01-0.04-0.01-0.06-0.02c-0.02,0-0.02-0.01-0.03-0.01c-0.01-0.01-0.01-0.01-0.02-0.02c0,0,0.01,0,0.01,0
		c-0.01-0.01-0.02-0.01-0.03-0.01c-0.01-0.01-0.03-0.03-0.04-0.04c0,0.01,0.01,0.02,0.01,0.02c0,0,0,0,0,0c0,0-0.01-0.02-0.02-0.03
		c-0.01-0.01-0.02-0.02-0.02-0.02c-0.12-0.1-0.04-0.06,0.01-0.01c-0.05-0.1-0.15-0.27-0.17-0.31c0.01,0.02,0.01,0.03,0.02,0.06
		c-0.01-0.02-0.02-0.05-0.03-0.07c0,0,0,0,0-0.01c-0.02-0.04-0.04-0.09-0.04-0.1c0-0.01-0.01-0.01-0.01-0.02
		c-0.04-0.12-0.08-0.24-0.11-0.36c-0.02-0.07-0.03-0.14-0.04-0.2c0-0.01,0-0.01,0-0.01c0-0.24-0.02-0.48-0.01-0.73
		c0-0.03,0-0.05,0-0.07c0-0.02,0.01-0.03,0.01-0.05c0.03-0.15,0.06-0.3,0.1-0.45c0.03-0.12,0.07-0.24,0.11-0.36
		c0.04-0.12,0.13-0.55,0.04-0.14c0.05-0.26,0.27-0.55,0.4-0.78c0.14-0.24,0.3-0.46,0.46-0.69c-0.01,0-0.01,0.01-0.02,0.01
		c0.01,0,0.02-0.02,0.03-0.04c0.01-0.01,0.02-0.03,0.03-0.04c0.03-0.04,0.04-0.05,0.05-0.06c0.01-0.01,0.02-0.03,0.03-0.04
		c0.11-0.13,0.22-0.26,0.33-0.38c0.2-0.22,0.41-0.42,0.62-0.62c0.1-0.09,0.21-0.19,0.31-0.28c0.07-0.06,0.14-0.11,0.2-0.17
		c0,0,0,0-0.01,0c0,0,0.01,0,0.01-0.01c0,0,0,0,0.01-0.01c0.05-0.04,0.11-0.07,0.14-0.07c0.23-0.14,0.45-0.35,0.66-0.48
		c0.27-0.17,0.55-0.33,0.84-0.47c0.11-0.06,0.23-0.11,0.35-0.16c0.07-0.02,0.13-0.05,0.2-0.07c0.27-0.09,0.55-0.17,0.83-0.23
		c0.04-0.01,0.08-0.01,0.11-0.02c0.11-0.01,0.22-0.02,0.33-0.02c0.09,0,0.2,0.02,0.31,0.02c0.02,0,0.04,0.01,0.07,0.01
		c0.04,0.01,0.08,0.02,0.12,0.03c-0.03-0.02-0.04-0.02-0.08-0.05c0.03,0.02,0.07,0.04,0.11,0.06c0.01,0,0.02,0.01,0.03,0.01
		c0.07,0.02,0.11,0.05,0.11,0.07c0.02,0.01,0.03,0.02,0.05,0.03c0.03,0.02,0.06,0.04,0.09,0.06c0.06,0.05,0.12,0.1,0.18,0.14
		c0.25,0.15,0.4,0.16,0.65,0.21c0.04,0.01,0.07,0.01,0.11,0.01c-0.02,0.06-0.04,0.13-0.06,0.19
		C244.17,461.59,244.14,461.66,244.04,461.86z"/>
	<path class="st1" d="M236.54,467.8c0,0,0,0.01,0.01,0.01c-0.03-0.08-0.04-0.12-0.04-0.12C236.51,467.73,236.52,467.76,236.54,467.8
		z"/>
	<path class="st1" d="M237.55,463.7c-0.02,0.04-0.05,0.07-0.08,0.1c-0.01,0.01-0.01,0.01-0.01,0.02
		C237.53,463.77,237.57,463.69,237.55,463.7z"/>
	<path class="st1" d="M243.19,460.82c-0.05-0.02-0.09-0.05-0.14-0.08c-0.01,0-0.02-0.01-0.03-0.01
		C243.13,460.81,243.19,460.84,243.19,460.82z"/>
	<path class="st1" d="M236.71,468.12c0.01,0.02,0.01,0.02,0.02,0.03c0,0,0.01,0.01,0.01,0.01
		C236.73,468.14,236.73,468.13,236.71,468.12z"/>
	<path class="st1" d="M237.21,468.29c0.04,0,0.08-0.01,0.13-0.01c0.01,0,0.02,0,0.03-0.01
		C237.31,468.28,237.23,468.28,237.21,468.29z"/>
	<path class="st1" d="M236.81,468.21c0.03,0.01,0.07,0.03,0.1,0.05c0,0,0,0-0.01,0c0.01,0,0.02,0,0.03,0.01
		c0.01,0.01,0.02,0.01,0.03,0.02c0,0,0.01,0,0.01,0c0,0,0-0.01-0.01-0.01c0,0,0.01,0,0.01,0c0,0,0.02,0,0.04,0.01
		c0.02,0,0.05,0,0.07,0c-0.05-0.03-0.1-0.05-0.15-0.04C236.89,468.21,236.84,468.2,236.81,468.21z"/>
	<path class="st1" d="M222.44,469.73c-1.24,0.21-2.46,0.5-3.69,0.75c-0.96,0.2-1.71,0.85-2.28,1.62c-0.59,0.79-0.98,1.79-0.98,2.78
		c0,1.25,0.67,2.32,1.68,3.02c1.91,1.34,4.38,1.27,6.59,0.96c2.17-0.3,4.96-1.07,6.03-3.2c0.28-0.57,0.42-1.17,0.44-1.8
		c0.66-0.43,0.62-1.57,0.18-2.22C228.61,469.03,225.21,469.26,222.44,469.73z M227.76,472.59
		C227.8,472.62,227.82,472.64,227.76,472.59L227.76,472.59z M227.28,472.31C227.3,472.32,227.3,472.32,227.28,472.31L227.28,472.31z
		 M227.96,475.02c-0.02,0.02-0.14,0.17-0.16,0.19c-0.08,0.09-0.17,0.17-0.27,0.26c-0.13,0.12-0.09,0.08-0.18,0.14
		c-0.12,0.08-0.24,0.16-0.37,0.23c-0.52,0.3-0.82,0.42-1.41,0.6c-0.57,0.17-1.16,0.3-1.75,0.39c-0.2,0.03-0.32,0.05-0.64,0.08
		c-0.27,0.03-0.54,0.05-0.81,0.06c-0.44,0.02-0.88,0.03-1.32,0.01c-0.15-0.01-0.3-0.02-0.46-0.03c-0.17-0.05-0.34-0.07-0.51-0.11
		c-0.67-0.16-1.25-0.35-1.8-0.76c0,0,0,0,0,0c-0.01-0.01,0,0-0.02-0.02c-0.05-0.04-0.1-0.08-0.14-0.13
		c-0.03-0.03-0.13-0.15-0.18-0.19c-0.03-0.05-0.11-0.19-0.13-0.21c-0.01-0.01-0.02-0.03-0.03-0.05c-0.01-0.04-0.03-0.08-0.04-0.1
		c-0.03-0.1-0.05-0.2-0.08-0.3c0.07,0.27,0,0.02,0-0.09c0-0.1,0.01-0.19,0.01-0.28c0.01-0.06,0.02-0.12,0.04-0.18
		c0.02-0.1,0.06-0.2,0.09-0.29c0.01-0.03,0.01-0.05,0.02-0.07c0-0.01,0.01-0.01,0.01-0.03c0.1-0.19,0.21-0.37,0.33-0.55
		c0.03-0.03,0.06-0.07,0.09-0.11c0.07-0.07,0.13-0.14,0.2-0.21c0.07-0.07,0.15-0.12,0.21-0.19c0.01-0.01,0,0,0-0.01
		c0.02-0.01,0.02-0.01,0.06-0.03c0.07-0.04,0.15-0.08,0.22-0.13c0,0,0,0,0,0c0.05-0.01,0.15-0.03,0.19-0.05
		c0.03,0,0.06-0.01,0.09-0.01c0.68-0.08,1.34-0.19,2.01-0.33c0.66-0.13,1.31-0.26,1.97-0.36c0.44-0.07,0.33-0.06,0.77-0.1
		c0.35-0.04,0.69-0.06,1.04-0.07c0.32-0.01,0.63,0,0.95,0.02c0.05,0,0.27,0.03,0.31,0.03c0.15,0.03,0.31,0.05,0.46,0.09
		c0.14,0.04,0.27,0.09,0.41,0.12c0.01,0,0.03,0.01,0.05,0.02c0.04,0.02,0.08,0.04,0.12,0.06c0.12,0.07,0.24,0.15,0.36,0.21
		c0.01,0,0.02,0.01,0.03,0.02c0.05,0.04,0.1,0.09,0.15,0.13c0.03,0.03,0.17,0.19,0.21,0.23c0.02,0.03,0.05,0.07,0.06,0.08
		c0.04,0.06,0.08,0.13,0.12,0.19c0.06,0.08,0.12,0.16,0.19,0.23c-0.06,0.12-0.11,0.25-0.11,0.42
		C228.34,474.27,228.23,474.62,227.96,475.02z"/>
</g>
</svg>
