<?xml version="1.0" encoding="utf-8"?>
<!-- Generator: Adobe Illustrator 26.3.1, SVG Export Plug-In . SVG Version: 6.00 Build 0)  -->
<svg version="1.1" id="Blätter" xmlns="http://www.w3.org/2000/svg" xmlns:xlink="http://www.w3.org/1999/xlink" x="0px" y="0px"
	 viewBox="0 0 500.5 509" style="enable-background:new 0 0 500.5 509;" xml:space="preserve">
<style type="text/css">
	.st0{fill:#D7E6B8;}
	.st1{fill:#211F1B;}
</style>
<path id="farben" class="st0" d="M313.31,368.11c0.75-0.91,0.61-2.68-0.22-3.51c-18.57-18.46-37.37-37.17-61.62-48.06
	c-18.83-8.46-42.03-8.43-61.85-3.82c-10.76,2.5-21.32,6.53-29.75,13.83c-0.11,0.1-0.16,0.21-0.25,0.32
	c-5.58,1.5-11.07,3.42-16.42,5.8c15.57-17.27,31.93-33.75,49-49.47c18.86-3.61,38.11-5.35,57.36-5.57
	c8.85,20.72,31.61,32.78,52.31,38.49c22.47,6.19,45.52,5.79,66.45-5.32c11.29-5.99,21-14.54,28.49-24.88
	c0.84-1.16,0.54-3.26-0.79-3.97c-24.11-12.82-49.28-26.29-76.68-30.17c-24.08-3.41-48.76,3.08-67.33,18.92
	c-0.29,0.25-0.46,0.53-0.57,0.81c-1.21-0.07-2.44,0.74-2.85,1.99c-16.67,0.02-33.29,1.12-49.81,3.76
	c18.91-17.03,38.63-33.15,59.03-48.39c0.26,0.01,0.51,0.04,0.82-0.03c13.86-3.24,27.68-2.3,41.78-2.27
	c13.47,0.03,26.28-1.93,38.67-7.37c25.9-11.37,45.05-33.29,59.51-56.99c8.92-14.62,16.27-30.12,23.6-45.58
	c1.1-2.32-1.49-4.53-3.65-4.21c-29.08,4.27-58.27,8.68-85.82,19.43c-25.15,9.82-46.72,26.22-60.49,49.76
	c-7.26,12.4-11.99,25.68-14.25,39.83c-22.09,16.12-43.31,33.47-63.57,51.81c2.73-15.57,6.25-31.05,10.63-46.27
	c0.34-0.02,0.69-0.11,1.03-0.3c36.03-19.55,57.65-61.47,54.99-102.09c-0.74-11.27-3.32-22.56-7.26-33.13
	c-0.55-1.48-2.78-1.87-3.88-0.81c-19.89,19.21-40.84,38.79-51.04,65.18c-8,20.69-12.63,48.71,0.05,68.53
	c0.43,0.67,1.01,1.04,1.63,1.27c-5.14,17.3-8.95,35.04-11.82,52.83c-5.14,4.74-10.24,9.52-15.25,14.38
	c-9.1,8.82-17.94,17.89-26.62,27.12c1.44-4.21,2.34-8.59,2.75-13.05c11.03-21.28,9.94-48.82,4.66-71.58
	c-2.53-10.9-6.39-22-13.36-30.91c-8.37-10.71-20.21-18.71-32.89-23.4c-14.48-5.35-30.41-6.13-45.36-2.25
	c-3.23,0.84-3.23,4.7-0.43,6.07c12.53,6.13,14.89,22.23,17.13,34.51c2.37,12.95,5.49,25.57,10.94,37.61
	c10.55,23.29,29.09,44.46,53.04,54.42c0.1,0.04,0.2,0.03,0.3,0.05c-1.21,7.26-3.83,14.23-8.2,20.38c-0.23,0.32-0.34,0.64-0.39,0.95
	c-1.75,1.93-3.51,3.85-5.24,5.79c-2.95,3.32,1.63,7.45,4.59,4.04c1.22-1.4,2.47-2.78,3.69-4.17c8.02-3.26,16.46-5.68,25.09-7.28
	c0.35,0.56,0.81,1.07,1.53,1.42c11.36,5.46,18.04,14.98,24.93,25.12c6.82,10.04,14.4,19.37,24.57,26.2
	c19.79,13.28,44.47,15.9,66.7,7.53C293.56,386.65,304.77,378.5,313.31,368.11z"/>
<g id="ol">
	<path class="st1" d="M433.16,117.21c-1.17-1.51-2.8-1.83-4.61-1.57c-0.02,0-1.49,0.18-0.63,0.08c-0.45,0.05-0.9,0.1-1.34,0.15
		c-0.9,0.1-1.79,0.2-2.69,0.3c-2.22,0.25-4.44,0.51-6.64,0.85c-3.74,0.59-7.49,1.18-11.22,1.81c-7.47,1.25-14.93,2.62-22.34,4.21
		c-14.56,3.12-29.03,7.07-42.83,12.74c-6.61,2.72-13.17,5.67-19.31,9.33c-5.63,3.35-10.94,7.27-15.9,11.55
		c-9.68,8.38-18.03,18.43-24.34,29.57c-3.55,6.26-6.54,12.85-8.94,19.63c-2.26,6.35-3.55,12.99-4.49,19.66
		c-14.61,10.71-28.89,21.9-42.75,33.56c-6.25,5.26-12.41,10.63-18.5,16.07c2.37-13.13,5.25-26.17,8.8-39.03
		c0.38-1.38,0.78-2.75,1.17-4.12c0.27-0.08,0.53-0.17,0.79-0.31c18.24-9.39,32.85-24.89,42.42-42.93
		c4.83-9.09,8.66-18.82,10.89-28.88c2.21-9.96,3.05-20.49,2.26-30.67c-0.44-5.75-1.54-11.48-2.73-17.12
		c-1.17-5.52-2.8-10.95-4.82-16.22c-0.9-2.34-3.71-3.4-5.66-1.5c-7.84,7.64-15.85,15.1-23.25,23.18
		c-7.43,8.12-14.22,16.78-19.92,26.21c-4.98,8.25-8.78,17.16-11.35,26.44c-2.6,9.38-4.32,19.16-4.37,28.92
		c-0.05,10.34,2.04,21.52,7.83,30.27c0.29,0.43,0.65,0.81,1.07,1.13c-2.44,8.35-4.58,16.78-6.49,25.24
		c-2.02,8.98-3.72,18.01-5.15,27.1c-4.97,4.58-9.91,9.19-14.76,13.89c-7.92,7.67-15.64,15.54-23.23,23.53
		c0.03-0.12,0.07-0.25,0.1-0.37c0.72-3.09,1.18-6.24,1.43-9.4c2.18-4.14,4.14-8.64,5.18-13.15c1.36-5.92,2.12-11.99,2.49-18.05
		c0.78-12.75-0.19-25.78-2.87-38.28c-1.24-5.77-2.87-11.48-5.06-16.97c-2.03-5.07-4.39-10.04-7.64-14.46
		c-8.49-11.54-20.59-20.03-33.88-25.18c-13.42-5.2-27.99-6.25-42.11-3.61c-1.7,0.32-3.38,0.71-5.04,1.15
		c-1.64,0.44-2.84,1.9-3.06,3.56c-0.21,1.56,0.51,3.55,2.04,4.26c1.07,0.5,2.11,1.06,3.09,1.7c0.34,0.22,0.66,0.46,0.99,0.7
		c0.13,0.1,0.32,0.25,0.39,0.3c0.24,0.2,0.47,0.4,0.7,0.61c0.83,0.76,1.61,1.57,2.34,2.43c0.13,0.16,0.26,0.32,0.39,0.47
		c0.01,0.02,0.02,0.02,0.03,0.04c0.02,0.03,0.03,0.04,0.05,0.08c0.35,0.51,0.72,1.01,1.05,1.53c0.62,0.97,1.2,1.97,1.72,3
		c0.24,0.47,0.48,0.95,0.7,1.44c0.11,0.24,0.22,0.49,0.33,0.73c0.03,0.08,0.06,0.14,0.09,0.19c0.01,0.04,0.03,0.08,0.06,0.15
		c0.89,2.28,1.67,4.59,2.32,6.96c2.7,9.78,3.73,19.93,6.29,29.74c5.45,20.9,15.78,40.73,31.13,56.06
		c8.39,8.38,18.42,15.83,29.44,20.37c-0.61,3.27-1.43,6.53-2.59,9.65c-0.58,1.55-1.13,2.79-2.05,4.56
		c-0.93,1.77-1.98,3.48-3.13,5.11c-0.34,0.48-0.49,0.98-0.51,1.47c-0.06,0.07-0.12,0.13-0.18,0.2c-1.54,1.7-3.08,3.41-4.61,5.13
		c-1.39,1.55-1.53,3.92,0,5.45c1.39,1.39,4.09,1.58,5.45,0c1.34-1.55,2.7-3.1,4.05-4.64c3.13-1.15,6.31-2.11,9.55-2.92
		c4.13-1.02,8.25-2.14,12.43-2.96c0.65-0.13,1.3-0.25,1.95-0.38c0.26,0.25,0.55,0.47,0.89,0.64c2.56,1.25,5.1,2.65,7.44,4.26
		c0.57,0.39,1.22,0.77,1.72,1.24c-1.05-0.99,0.36,0.31,0.6,0.51c1.05,0.88,2.02,1.84,2.96,2.84c0.85,0.91,1.66,1.85,2.46,2.81
		c0.44,0.52,0.88,1.03,1.31,1.55c0.39,0.47,0.78,1.22,1.26,1.57c0.17,0.22,0.33,0.44,0.5,0.67c0.37,0.5,0.74,1.01,1.11,1.52
		c0.8,1.12,1.59,2.26,2.37,3.4c6.61,9.7,13.18,19.56,22.42,27.01c10.12,8.17,22.1,13.9,34.98,15.96c6.27,1,12.57,1.37,18.89,0.66
		c6.3-0.71,12.42-2.15,18.37-4.34c13-4.77,25.06-12.9,33.82-23.68c1.34-1.65,1.64-3.95,0-5.58c-4.68-4.66-9.13-9.52-13.94-14.05
		c-4.81-4.52-9.72-8.92-14.83-13.1c-10.29-8.4-21.36-16.01-33.6-21.3c-9.38-4.05-19.52-5.83-29.69-6.37
		c-10.91-0.58-21.93,0.36-32.57,2.88c-5.68,1.34-11.22,3.19-16.55,5.59c-4.45,2.01-8.48,4.53-12.18,7.67
		c-4.36,1.08-8.77,2.48-12.82,4.34c-0.15,0.07-0.3,0.15-0.46,0.22c8.39-9.18,17.03-18.15,25.85-26.92
		c6.24-6.19,12.58-12.27,19.02-18.25c10.47-2.05,21.03-3.5,31.67-4.37c8.39-0.69,16.86-1.2,25.3-1.43
		c4.06,9.14,11.15,16.69,19.1,22.65c9,6.75,19.5,11.48,30.21,14.78c10.77,3.32,22.34,5.61,33.65,5.34
		c12.18-0.29,24.19-3.41,35.1-8.81c12.27-6.07,22.84-15.23,30.85-26.3c1.2-1.67,0.32-4.4-1.4-5.33
		c-18.69-10.1-37.94-20.01-58.39-26.05c-9.79-2.89-19.9-4.88-30.14-5.04c-9.52-0.15-19.18,1.3-28.24,4.24
		c-5.14,1.67-10.31,3.75-14.99,6.47c-4.72,2.75-9.16,6.07-13.26,9.68c-0.1,0.08-0.17,0.18-0.25,0.27c-0.54-0.01-1.07,0.07-1.52,0.27
		c-0.72,0.32-1.34,0.88-1.75,1.56c-6.96-0.09-13.9-0.04-20.88,0.43c-8.49,0.58-16.97,1.5-25.39,2.78c4.1-3.69,8.24-7.36,12.42-10.96
		c14.04-12.12,28.49-23.74,43.28-34.79c0.59,0.12,1.22,0.13,1.86-0.02c7.43-1.72,14.09-2.35,21.89-2.41
		c7.56-0.05,15.12,0.37,22.69,0.27c7.07-0.09,14.11-0.73,21-2.39c6.35-1.53,12.51-3.91,18.37-6.77
		c24.95-12.16,43.25-33.99,57.35-57.36c8.42-13.95,15.46-28.68,22.46-43.37C434.28,120.45,434.31,118.7,433.16,117.21z
		 M237.93,201.94c0,0,0.01-0.02,0.02-0.03C237.94,201.93,237.93,201.94,237.93,201.94z M212.98,219.53
		c-0.05-0.11-0.1-0.23-0.15-0.35c-0.03-0.07-0.07-0.16-0.09-0.21c-0.2-0.53-0.42-1.06-0.61-1.6c-0.35-0.98-0.67-1.97-0.97-2.96
		c-0.63-2.15-1.12-4.34-1.5-6.54c-0.08-0.47-0.16-0.95-0.23-1.42c0,0.01-0.07-0.49-0.09-0.66c-0.02-0.2-0.05-0.41-0.05-0.4
		c-0.07-0.61-0.15-1.21-0.22-1.82c0-0.08-0.02-0.29-0.03-0.37c-0.03-0.37-0.07-0.73-0.11-1.1c-0.42-4.6-0.42-9.24-0.09-13.85
		c0.34-4.81,0.9-8.73,2.03-13.53c2.11-8.97,5.13-17.08,9.47-25c5.03-9.17,11.51-17.47,18.5-25.21c6.82-7.55,14.12-14.69,21.61-21.59
		c0.81,2.91,1.49,5.86,2.01,8.84c0.21,1.19,0.39,2.39,0.57,3.59c0,0.03,0.01,0.04,0.01,0.06c0,0.03,0.01,0.07,0.01,0.11
		c0.03,0.28,0.07,0.57,0.11,0.85c0.07,0.63,0.12,1.25,0.16,1.88c0.15,2.4,0.21,4.8,0.19,7.2c-0.04,4.83-0.22,9.68-0.75,14.48
		c-0.06,0.57-0.13,1.15-0.2,1.72c0,0,0,0.01,0,0.01c0-0.01,0.01-0.03,0.01-0.04c-0.07,0.27-0.08,0.57-0.12,0.85
		c-0.17,1.19-0.36,2.38-0.57,3.57c-0.42,2.38-0.94,4.74-1.45,7.1c-1.03,4.74-2.37,9.41-3.88,14.01c-0.76,2.3-1.58,4.59-2.48,6.84
		c-0.22,0.55-0.45,1.1-0.67,1.65c-0.09,0.22-0.19,0.43-0.28,0.65c-0.49,1.11-0.99,2.22-1.51,3.31c-2.08,4.38-4.42,8.63-7.03,12.71
		c-1.3,2.03-2.63,4.05-4.02,6.03c-0.69,0.99-1.4,1.96-2.13,2.92c-0.03,0.04-0.22,0.29-0.36,0.47c-0.02,0.03-0.03,0.04-0.06,0.08
		c-0.39,0.5-0.79,1-1.19,1.49c-3.44,4.24-7.22,8.2-11.16,11.97c-1.76,1.69-3.6,3.3-5.48,4.86c3.5-10.93,7.48-21.72,12-32.23
		c3.81-8.85,7.51-17.74,11.94-26.31c0.9-1.74-1.54-3.16-2.62-1.53c-4.68,7.09-9.38,14.38-13.12,22.03
		c-3.84,7.85-7.43,15.88-10.52,24.06c-1.7,4.5-3.29,9.05-4.79,13.62C213.06,219.69,213.02,219.61,212.98,219.53z M138.27,297.85
		C137.77,297.47,138.11,297.73,138.27,297.85L138.27,297.85z M139.9,299.07c-0.53-0.39-1.06-0.79-1.59-1.18
		c-0.01-0.01-0.01-0.01-0.02-0.01c-0.37-0.29-0.74-0.58-1.1-0.87c-2.05-1.64-4.03-3.37-5.94-5.17c-3.72-3.51-7.18-7.3-10.34-11.31
		c-0.05-0.06-0.36-0.47-0.43-0.55c-0.15-0.19-0.29-0.38-0.44-0.58c-0.36-0.48-0.71-0.96-1.06-1.44c-0.77-1.06-1.52-2.14-2.26-3.23
		c-1.47-2.18-2.86-4.42-4.18-6.7c-1.32-2.29-2.57-4.63-3.73-7.01c-0.53-1.08-1.05-2.18-1.55-3.28c-0.3-0.66-0.6-1.33-0.88-1.99
		c-0.1-0.22-0.19-0.45-0.29-0.67c0.38,0.88-0.22-0.53-0.28-0.68c-1.99-4.87-3.68-9.86-5.06-14.94c-2.71-9.96-3.76-20.25-6.31-30.24
		c-1.91-7.47-4.96-15.09-10.19-20.71c3.22-0.33,6.47-0.36,9.7-0.21c1.67,0.08,3.31,0.26,4.97,0.44c0.01,0,0.01,0,0.02,0
		c0.14,0.02,0.28,0.04,0.41,0.06c0.36,0.05,0.73,0.11,1.09,0.17c0.85,0.14,1.7,0.27,2.55,0.41c3.28,0.57,6.52,1.36,9.7,2.35
		c1.59,0.5,3.16,1.05,4.71,1.65c0.4,0.16,0.8,0.31,1.2,0.48c0.16,0.06,0.36,0.15,0.49,0.21c0.71,0.32,1.43,0.63,2.13,0.96
		c3.01,1.41,5.92,3.03,8.72,4.83c1.39,0.9,2.76,1.85,4.09,2.85c0.05,0.04,0.19,0.15,0.31,0.23c0.03,0.03,0.06,0.05,0.08,0.06
		c0.29,0.23,0.58,0.46,0.86,0.69c0.67,0.54,1.33,1.1,1.98,1.66c2.5,2.19,4.85,4.55,7,7.08c0.46,0.54,0.9,1.1,1.35,1.64
		c0.01,0.01,0.02,0.02,0.02,0.03c0.2,0.27,0.4,0.54,0.6,0.82c0.65,0.92,1.27,1.87,1.86,2.84c1.33,2.18,2.5,4.46,3.55,6.78
		c0.12,0.27,0.24,0.53,0.35,0.8c0.02,0.04,0.04,0.09,0.06,0.13c0,0,0-0.01,0-0.01c0,0,0,0.01,0,0.01c0.04,0.09,0.08,0.18,0.12,0.27
		c0.2,0.47-0.06,0.18-0.11-0.12c0.07,0.49,0.63,1.41,0.77,1.78c0.5,1.28,0.96,2.58,1.4,3.88c0.92,2.71,1.71,5.47,2.41,8.25
		c0.72,2.89,1.35,5.81,1.88,8.74c0.27,1.49,0.52,2.99,0.74,4.49c0.05,0.34,0.1,0.67,0.15,1.01c0.03,0.18,0.04,0.37,0.07,0.55
		c0.09,0.71,0.18,1.42,0.26,2.13c0.69,6.07,1.01,12.18,0.92,18.28c-0.04,2.95-0.18,5.91-0.43,8.85c-0.12,1.43-0.27,2.85-0.45,4.27
		c-0.01,0.08-0.02,0.15-0.02,0.21c0,0.01,0,0.02-0.01,0.04c-2.89-12.18-8.49-23.58-15.22-34.19c-2.45-3.87-5.05-7.65-7.71-11.38
		c-1.43-2-2.88-3.97-4.4-5.9c-0.73-0.93-1.46-1.85-2.19-2.78c-0.75-0.95-1.6-1.66-2.54-2.42c-1.45-1.18-3.38-1.54-4.94-0.29
		c-1.59,1.26-1.73,3.07-0.97,4.86c1.52,3.57,4.09,6.68,6.39,9.79c2.33,3.16,4.62,6.35,6.81,9.6c4.32,6.39,8.32,13.03,11.56,20.04
		c0.38,0.83,0.75,1.66,1.11,2.5c0.05,0.13,0.26,0.62,0.3,0.72c0.22,0.54,0.44,1.09,0.65,1.64c0.67,1.72,1.28,3.46,1.84,5.22
		c1.04,3.32,1.86,6.71,2.43,10.14c0.07,0.39,0.13,0.78,0.19,1.17c0.03,0.2,0.06,0.39,0.09,0.59c-0.01-0.05-0.01-0.09-0.02-0.12
		c0.01,0.08,0.02,0.16,0.03,0.2c0.1,0.85,0.2,1.7,0.27,2.56c0.16,1.77,0.25,3.54,0.27,5.32c0.01,0.74,0,1.48-0.02,2.22
		c-3.64-1.96-7.25-3.99-10.68-6.3C141.96,300.54,140.92,299.82,139.9,299.07z M208.96,322.37
		C209.17,322.35,209.5,322.31,208.96,322.37L208.96,322.37z M205.95,322.84c0.63-0.11,1.26-0.21,1.89-0.3
		c0.35-0.05,0.69-0.1,1.04-0.15c0.01,0,0.01,0,0.02,0c1.37-0.17,2.74-0.33,4.12-0.46c5.23-0.49,10.48-0.75,15.73-0.61
		c2.51,0.07,5.02,0.22,7.51,0.45c1.13,0.11,2.25,0.24,3.38,0.38c0.25,0.04,0.97,0.13,1.14,0.16c0.75,0.11,1.5,0.24,2.25,0.37
		c4.42,0.78,8.8,1.89,13.01,3.47c0.51,0.19,1.02,0.4,1.52,0.6c0.29,0.13,0.59,0.26,0.88,0.39c1.56,0.7,3.1,1.43,4.63,2.2
		c2.79,1.41,5.52,2.92,8.19,4.54c2.79,1.69,5.52,3.48,8.2,5.36c2.57,1.8,5,3.63,7.01,5.22c5.62,4.44,10.99,9.2,16.21,14.09
		c4.46,4.17,8.98,8.29,13.39,12.52c-1.12,1.25-2.27,2.46-3.48,3.62c-1.04,1-2.11,1.96-3.21,2.89c-1.26,1.07-1.85,1.54-2.91,2.32
		c-2.43,1.79-4.96,3.44-7.62,4.86c-1.16,0.62-2.34,1.2-3.53,1.75c-0.36,0.17-0.72,0.33-1.08,0.49c-0.02,0.01-0.47,0.2-0.65,0.28
		c-0.67,0.28-1.35,0.55-2.02,0.81c-2.76,1.05-5.57,1.92-8.45,2.58c-1.34,0.31-2.7,0.58-4.06,0.8c-0.39,0.07-0.78,0.13-1.17,0.19
		c-0.08,0.01-0.45,0.06-0.66,0.09c-0.68,0.08-1.36,0.16-2.04,0.22c-2.89,0.27-5.79,0.33-8.69,0.24c-1.47-0.05-2.94-0.11-4.41-0.24
		c-0.73-0.06-1.47-0.14-2.2-0.23c-0.05-0.01-0.12-0.01-0.19-0.02c-0.48-0.05-0.96-0.14-1.44-0.22c-2.9-0.48-5.77-1.13-8.59-1.97
		c-1.41-0.42-2.81-0.88-4.2-1.38c-0.63-0.23-1.26-0.47-1.88-0.7c-0.38-0.14-0.75-0.29-1.12-0.43c-0.26-0.1-1.95-0.72-0.57-0.22
		c-2.73-0.99-5.38-2.51-7.88-3.96c-2.49-1.45-5.13-3-7.32-4.89c-0.07-0.06-0.14-0.12-0.18-0.15c-0.31-0.25-0.62-0.5-0.93-0.76
		c-0.51-0.43-1.02-0.86-1.52-1.3c-1.2-1.06-2.37-2.16-3.5-3.31c-2-2.03-3.87-4.18-5.64-6.41c-0.21-0.26-0.43-0.52-0.63-0.79
		c-0.05-0.07-0.09-0.13-0.12-0.16c-0.37-0.49-0.74-0.99-1.1-1.49c-0.86-1.18-1.7-2.37-2.53-3.57c-1.48-2.14-2.94-4.3-4.43-6.44
		c-3.44-4.94-6.96-9.98-11.41-14.07c-0.59-0.54-1.18-1.06-1.8-1.57c-0.18-0.15-0.35-0.29-0.53-0.43c-1.21-0.93-1.39-1.07-0.54-0.43
		c-0.18-0.15-0.35-0.29-0.53-0.44c-0.74-0.59-1.5-1.18-2.26-1.74c2.2-0.14,4.41-0.24,6.61-0.3c4.2-0.12,8.41-0.03,12.6,0.27
		c2.1,0.15,4.19,0.35,6.28,0.6c0.42,0.05,0.83,0.1,1.25,0.16c0.12,0.02,0.9,0.13,1.07,0.15c1.04,0.15,2.08,0.32,3.11,0.5
		c8.34,1.45,16.53,3.72,24.4,6.82c0.55,0.22,1.1,0.44,1.64,0.66c0.17,0.07,0.33,0.14,0.5,0.21c0.09,0.04,0.25,0.1,0.4,0.17
		c1.08,0.47,2.16,0.95,3.23,1.45c2.14,1,4.25,2.06,6.32,3.18c2.08,1.12,4.12,2.31,6.12,3.56c1.11,0.69,2.23,1.4,3.43,1.91
		c0.88,0.37,1.74,0.72,2.72,0.72c0.93,0,1.74-0.42,2.58-0.77c1.02-0.44,1.52-1.72,1.57-2.74c0.16-3.31-2.48-5.07-4.94-6.7
		c-1.8-1.19-3.71-2.25-5.6-3.29c-4.03-2.21-8.19-4.15-12.43-5.91c-7.93-3.31-16.2-5.78-24.64-7.39
		c-10.79-2.06-21.72-2.79-32.58-2.11c1.88-0.59,3.78-1.14,5.7-1.61C200.89,323.77,203.41,323.26,205.95,322.84z M289.2,266.17
		c4.35-1.5,8.82-2.63,13.36-3.39c0.53-0.09,1.07-0.18,1.61-0.26c0.27-0.04,0.54-0.08,0.81-0.12c0.02,0,0.03,0,0.05-0.01
		c0.03,0,0.09-0.01,0.18-0.02c1.14-0.14,2.29-0.26,3.44-0.36c2.31-0.19,4.62-0.29,6.94-0.32c19.32-0.26,38.74,6.51,56.31,14.52
		c9.31,4.24,18.33,9.04,27.38,13.78c0,0,0,0.01-0.01,0.01c-0.07,0.1-0.12,0.17-0.16,0.22c-0.04,0.05-0.09,0.11-0.16,0.2
		c-0.23,0.29-0.47,0.59-0.7,0.88c-0.47,0.58-0.95,1.16-1.45,1.73c-1.88,2.17-3.95,4.18-6.09,6.09c-4.09,3.64-8.21,6.56-13.28,9.41
		c-2.48,1.39-5.04,2.65-7.65,3.77c-0.19,0.08-0.59,0.25-0.59,0.25c-0.23,0.09-0.46,0.19-0.7,0.28c-0.7,0.28-1.4,0.54-2.11,0.8
		c-1.41,0.51-2.84,0.99-4.27,1.42c-2.63,0.8-5.31,1.46-8.01,1.98c-3.13,0.6-4.78,0.82-7.93,1.06c-2.87,0.21-5.74,0.26-8.61,0.15
		c-1.37-0.06-2.75-0.15-4.12-0.29c-0.61-0.06-1.22-0.13-1.83-0.2c-0.25-0.03-0.49-0.06-0.74-0.09c0.06,0.01-0.68-0.09-0.8-0.11
		c-5.25-0.75-10.45-1.83-15.56-3.24c-2.64-0.73-5.25-1.55-7.83-2.45c-1.18-0.42-2.35-0.85-3.52-1.3c-0.61-0.24-1.22-0.48-1.82-0.73
		c-0.03-0.01-0.6-0.25-0.65-0.27c-0.25-0.11-0.51-0.22-0.76-0.33c-4.94-2.17-9.72-4.72-14.2-7.73c-1.19-0.8-2.36-1.64-3.51-2.51
		c-0.06-0.04-0.09-0.06-0.11-0.08c-0.03-0.02-0.04-0.03-0.08-0.06c-0.36-0.28-0.71-0.57-1.07-0.85c-0.53-0.43-1.05-0.87-1.56-1.32
		c-2.2-1.91-4.28-3.97-6.18-6.18c-0.44-0.5-0.86-1.02-1.28-1.54c-0.04-0.05-0.34-0.44-0.4-0.51c-0.14-0.19-0.29-0.38-0.43-0.57
		c-0.85-1.16-1.65-2.35-2.4-3.58c-0.3-0.49-0.58-0.99-0.86-1.49c10.34,0,20.72,0.7,31.01,1.55c10.74,0.88,21.45,2.14,32.12,3.63
		c6.03,0.84,12.04,1.75,18.05,2.7c3.1,0.49,6.19,1.02,9.28,1.5c1.47,0.23,2.95,0.44,4.42,0.66c1.76,0.26,3.4,0.28,5.18,0.22
		c2.69-0.09,2.98-3.6,0.61-4.51c-1.24-0.48-2.44-1-3.75-1.24c-1.46-0.27-2.92-0.53-4.39-0.79c-2.76-0.48-5.54-0.89-8.32-1.32
		c-5.37-0.83-10.75-1.62-16.13-2.36c-10.95-1.51-21.94-2.82-32.95-3.88c-10.92-1.05-21.88-1.78-32.85-2.05
		c-0.67-0.02-1.35-0.03-2.02-0.05C274.66,272.33,281.91,268.68,289.2,266.17z M406.94,156.38c-6.8,12.26-14.3,23.66-23.69,33.81
		c-8.88,9.59-18.09,17.09-29.54,23.24c-1.4,0.75-2.81,1.47-4.24,2.15c-0.71,0.34-1.43,0.67-2.16,0.99
		c-0.36,0.16-0.72,0.32-1.09,0.48c-0.08,0.04-0.15,0.06-0.2,0.09c-0.06,0.02-0.14,0.06-0.25,0.1c-2.98,1.21-6.01,2.28-9.11,3.17
		c-3.09,0.88-6.23,1.61-9.4,2.13c-0.56,0.09-1.13,0.18-1.69,0.26c-0.19,0.02-0.64,0.08-0.7,0.09c-0.39,0.05-0.79,0.09-1.18,0.13
		c-1.85,0.19-3.71,0.3-5.57,0.37c-11.85,0.47-23.96-0.72-35.82,0.25c10.4-7.38,20.96-14.52,31.61-21.55
		c7.8-5.15,15.71-10.12,23.67-15.03c7.95-4.91,15.81-9.95,23.85-14.72c1.98-1.17,3.96-2.34,5.94-3.49c1.91-1.11,0.23-3.89-1.71-2.93
		c-8.4,4.11-16.73,8.37-24.98,12.78c-8.3,4.43-16.39,9.26-24.43,14.16c-14.11,8.62-27.83,17.86-41.26,27.5
		c0.19-0.61,0.37-1.23,0.57-1.83c1.07-3.15,2.14-5.78,3.21-8.53c0.28-0.71,0.56-1.42,0.85-2.12c0-0.01,0.26-0.61,0.29-0.69
		c0.12-0.28,0.24-0.57,0.37-0.85c0.61-1.39,1.25-2.77,1.91-4.13c1.39-2.85,2.89-5.65,4.5-8.39c1.55-2.63,3.21-5.21,4.96-7.71
		c0.44-0.63,0.9-1.24,1.33-1.87c0.08-0.1,0.15-0.21,0.23-0.31c-0.48,0.6-0.32,0.4,0.46-0.61c0.23-0.31,0.44-0.62,0.67-0.93
		c0.45-0.62,0.9-1.23,1.36-1.84c0.17-0.23,0.35-0.45,0.52-0.68c0.14-0.17,0.27-0.35,0.41-0.52c3.85-4.88,8.09-9.45,12.68-13.65
		c1.12-1.02,2.26-2.02,3.42-3c0.58-0.49,1.16-0.97,1.75-1.44c0.2-0.16,0.39-0.32,0.59-0.47c0.08-0.07,0.51-0.4,0.73-0.57
		c2.45-1.86,4.96-3.62,7.56-5.27c5.52-3.49,11.4-6.35,17.39-8.93c0.04-0.02,0.74-0.31,0.82-0.34c0.32-0.13,0.65-0.27,0.97-0.4
		c0.83-0.34,1.67-0.68,2.51-1.01c1.82-0.72,3.64-1.41,5.48-2.08c3.39-1.23,6.81-2.38,10.26-3.44c7.06-2.18,14.22-4.04,21.43-5.66
		c7.98-1.8,16.02-3.32,24.08-4.7c4.04-0.69,8.08-1.35,12.12-1.98c1.27-0.2,2.54-0.43,3.81-0.67
		C417.42,136.07,412.48,146.38,406.94,156.38z"/>
	<path class="st1" d="M153.14,297.26C153.11,297.08,153.09,296.91,153.14,297.26L153.14,297.26z"/>
	<path class="st1" d="M262.57,141.66C262.21,143.04,262.52,142.05,262.57,141.66L262.57,141.66z"/>
	<path class="st1" d="M152.07,225.61c-0.01-0.05-0.01-0.11-0.01-0.15c0,0,0,0,0,0C152.05,225.5,152.06,225.55,152.07,225.61z"/>
</g>
</svg>
