<?xml version="1.0" encoding="utf-8"?>
<!-- Generator: Adobe Illustrator 26.3.1, SVG Export Plug-In . SVG Version: 6.00 Build 0)  -->
<svg version="1.1" id="Brille" xmlns="http://www.w3.org/2000/svg" xmlns:xlink="http://www.w3.org/1999/xlink" x="0px" y="0px"
	 viewBox="0 0 500.5 509" style="enable-background:new 0 0 500.5 509;" xml:space="preserve">
<style type="text/css">
	.st0{fill:#EFC6E1;}
	.st1{fill:#F8F4B7;}
	.st2{fill:#211F1B;}
</style>
<g id="Farbe">
	<path class="st0" d="M433.81,203.83c-0.34-0.55-0.92-0.97-1.56-1.19c-17.42-19.61-39.09-35.91-60.82-50.39
		c-25.3-16.86-52.26-31.04-80.29-42.79c-3.52-1.48-7.06-2.91-10.61-4.31c-2.44-0.96-4.97-2.26-7.53-2.85
		c-1.42-0.33-2.9-0.19-4.33-0.02c-5.23,0.6-10.39,1.87-15.48,3.15c-16.01,4.01-31.77,9.01-47.38,14.34
		c-16.32,5.58-32.79,11.33-48.52,18.42c-5.35,2.42-10.67,4.97-15.68,8.04c-4.09,2.51-7.9,5.8-7.83,11.12
		c0.11,8.6,11.59,11.38,18.35,9.57c3.47-0.93,6.74-3.22,9.98-4.75c4.3-2.03,8.67-3.9,13.08-5.69c20.18-8.22,41.11-15.06,62.26-20.32
		c8.38-2.09,16.92-4.05,25.53-4.86c2.9-0.27,5.98-0.53,8.88-0.11c4.73,0.69,9.66,3.83,14.02,5.86
		c25.65,11.93,50.72,25.72,73.77,42.16c2.71,1.93,5.37,3.94,8,5.98c-3.47,0.75-6.88,1.89-10.13,3.44
		c-13.42,6.43-24.73,18.77-30.04,32.67c-0.38,0.99-0.64,1.97-0.84,2.96c-9.44-11.45-21.28-21.35-36.92-21.56
		c-9.16-0.13-19.04,2.8-26.45,8.25c-6.33,4.66-10.41,11.16-12.97,18.51c-1.83,5.26-2.99,10.59-3.42,15.89
		c-2.38-0.51-4.92-0.45-7.2-0.07c-2.3,0.38-4.48,1.17-6.48,2.28c-1.3-6.1-3.54-11.96-7.1-17.08c-10.3-14.8-29.32-20.82-46.47-15.81
		c-15.04,4.39-29.01,15.88-36.12,29.89c-0.5,0.98-0.88,1.97-1.2,2.97c-7.05-10.77-16.03-20.84-28.72-24.38
		c9.13-5.39,17.49-12.05,26.42-17.75c7.42-4.73,15.1-9.03,22.95-13c5.28-2.67,10.64-5.19,16.03-7.62c1.81-0.81,2.42-0.88,4.62-0.62
		c12.56,1.5,25.16,6.32,37.08,10.3c11.47,3.83,22.99,7.76,34.03,12.7c6.28,2.81,15.29-0.07,17.67-6.96
		c1.81-5.26-2.41-9.01-6.28-11.73c-10.51-7.39-23.52-11.66-35.55-15.83c-12.76-4.42-25.96-8.95-39.27-11.37
		c-3.57-0.65-7.85-1.68-11.49-0.88c-3.86,0.85-7.71,3.26-11.3,4.91c-5.74,2.63-11.44,5.34-17.1,8.13
		c-20.29,10-40.12,20.98-59.06,33.36c-14.42,9.41-28.74,19.5-41.23,31.4c-2.12,2.02-4.17,4.12-6.19,6.25
		c-1.04,0.27-1.81,1.17-1.98,2.52c-0.45,3.54-0.12,7.18,0.04,10.73c0.08,1.91,0.17,3.83,0.16,5.75c-0.01,2.04-0.56,3.79,0.81,5.5
		c4.98,6.25,11.09,11.39,17.7,15.82c0.5,1.72,1.08,3.43,1.77,5.13c7.83,19.08,24.17,34.8,40.94,46.26
		c8.07,5.51,16.7,10.18,25.61,14.17c4.21,1.88,8.48,3.63,12.8,5.26c2.06,0.78,4.14,1.53,6.22,2.25c2.88,1,4.09,0.53,6.78-0.69
		c19.31-8.75,38.86-19.57,53.14-35.6c12.37-13.87,22.31-31.3,24.93-49.9c0.11-0.75,0.16-1.52,0.24-2.28
		c4.97-2.13,10.35-2.76,15.63-1.49c1.41,4.01,3.33,7.91,5.79,11.68c11.36,17.36,29.61,30.64,48.11,39.52
		c8.73,4.19,17.84,7.58,27.13,10.31c4.53,1.33,9.11,2.5,13.72,3.56c2.54,0.58,3.92,0.91,6.23-0.4c2.46-1.39,4.86-2.9,7.26-4.39
		c17.64-11.01,34.92-24.5,46.09-42.33c8.38-13.36,14.77-28.48,16.06-44.28c6.84-2.9,16.38-5.08,17.83-12.94
		C439.41,220.52,438.07,210.87,433.81,203.83z"/>
	<g>
		<path class="st1" d="M206.51,233.21c-6.35-3.21-14.55-4.76-21.6-3.64c-7.14,1.13-13.51,5.05-18.92,9.7
			c-6,5.17-11.08,11.48-15.32,18.15c-2.66,4.19-5.15,8.58-6.82,13.26c-6.11-12.02-15-23.77-27.12-29.94
			c-13.23-6.73-29.44-4.86-37.41,8.65c-7.54,12.8-6.39,28.91,1.17,41.3c9.46,15.51,21.96,28.58,37.86,37.49
			c7.04,3.94,14.49,7.12,22.04,9.95c1.91,0.71,3.82,1.4,5.74,2.08c1.7,0.6,3.94,1.85,5.74,1.97c1.66,0.11,3.24-0.99,4.72-1.68
			c2.53-1.17,5.03-2.39,7.5-3.68c16.77-8.73,30.67-20.28,41.51-35.79c7.92-11.33,14.44-24.34,14.39-38.46
			C219.96,251.34,217.43,238.73,206.51,233.21z"/>
		<path class="st1" d="M405.23,228.43c-1.78-11.66-6.4-22.86-18.66-26.3c-6.97-1.96-15.14-2.26-21.97,0.34
			c-6.79,2.58-12.46,7.5-17.11,12.98c-7.36,8.69-14.22,20.1-16.76,31.58c-7.68-11.65-18.24-22.61-31.6-27.17
			c-7.17-2.44-15.48-2.75-22.49,0.4c-6.4,2.88-10.84,8.52-13.24,15c-5.04,13.61-1.7,28.29,7.07,39.41
			c11.42,14.48,25.35,25.88,42.47,32.91c8.17,3.35,16.69,5.76,25.27,7.79c3.28,0.78,7.52,2.78,10.6,1.04
			c4.49-2.52,8.82-5.42,13-8.42c15.39-11.06,27.22-24.57,35.7-41.55C403.43,254.61,407.27,241.72,405.23,228.43z"/>
	</g>
</g>
<g id="ol">
	<path class="st2" d="M440.67,222.97c0.01-0.01,0.02-0.02,0.03-0.03c0,0,0-0.01,0-0.01C440.69,222.94,440.68,222.95,440.67,222.97z"
		/>
	<path class="st2" d="M446.14,209.67c-0.64-3.98-1.86-7.96-3.97-11.41c-0.33-0.54-0.9-0.95-1.53-1.18
		c-8.17-9.2-17.44-17.52-26.94-25.33c-10.78-8.86-22.03-17.15-33.63-24.89c-25.18-16.8-52-30.95-79.89-42.69
		c-3.54-1.49-7.09-2.94-10.66-4.35c-2.62-1.03-5.34-2.38-8.07-3.08c-1.4-0.36-2.92-0.21-4.34-0.05c-5.16,0.6-10.25,1.84-15.29,3.09
		c-15.94,3.98-31.62,8.97-47.18,14.25c-8.61,2.92-17.17,6.04-25.68,9.22c-7.63,2.85-15.27,5.76-22.7,9.09
		c-5.41,2.42-10.74,5.01-15.84,8.04c-4.4,2.62-8.8,6.26-8.23,12.05c0.91,9.26,14.38,11.35,21.17,7.75
		c7.97-4.23,15.82-7.58,23.92-10.77c19.93-7.86,40.52-14.53,61.36-19.52c4.5-1.08,9.03-2.07,13.6-2.88
		c1.02-0.18,2.05-0.36,3.07-0.52c0.45-0.07,0.9-0.14,1.34-0.21c0.17-0.03,1.03-0.15,1.17-0.17c1.72-0.23,3.45-0.42,5.19-0.54
		c1.5-0.11,3-0.17,4.51-0.14c0.62,0.01,1.23,0.04,1.85,0.09c0.27,0.02,0.54,0.06,0.81,0.08c0.12,0.02,0.25,0.04,0.37,0.06
		c0.44,0.08,0.88,0.17,1.32,0.3c0.22,0.07,0.45,0.18,0.68,0.23c0.58,0.25,1.15,0.5,1.73,0.76c3.75,1.66,7.49,3.35,11.2,5.09
		c25.43,11.91,50.3,25.64,73.15,42.02c2.47,1.77,4.9,3.58,7.3,5.44c-1.6,0.36-3.19,0.81-4.74,1.36
		c-7.56,2.67-14.35,7.14-20.15,12.64c-5.33,5.04-9.67,10.65-13,17.31c-0.72,1.43-1.37,2.9-1.96,4.39c-0.43,1.08-0.95,2.24-1.13,3.41
		c-3.97-4.84-8.26-9.37-13.3-13.16c-6.53-4.91-14.33-7.95-22.52-8.3c-9.13-0.39-19.15,2.4-26.67,7.64
		c-6.61,4.61-10.93,11.14-13.62,18.66c-1.85,5.17-3.2,10.7-3.75,16.25c-2.33-0.47-4.81-0.39-7.04-0.02
		c-2.29,0.38-4.46,1.16-6.46,2.27c-1.21-5.7-3.29-11.17-6.48-16.07c-9.98-15.33-29.25-21.82-46.68-16.92
		c-8.24,2.32-15.75,6.76-22.24,12.28c-5.69,4.84-10.72,10.8-14.16,17.45c-0.32,0.61-0.62,1.23-0.9,1.85
		c-0.22,0.48-0.38,0.93-0.52,1.34c-7.06-10.74-16-20.79-28.66-24.32c9.03-5.32,17.28-11.9,26.09-17.55
		c7.33-4.69,14.92-8.96,22.68-12.9c5.07-2.58,10.2-5.02,15.38-7.36c0.74-0.34,1.48-0.67,2.23-1c0.01,0,0.6-0.21,0.82-0.31
		c0.66,0,1.3-0.02,1.96,0.03c0.39,0.03,0.78,0.08,1.18,0.13c0.09,0.01,0.22,0.03,0.32,0.05c0.28,0.04,0.57,0.09,0.85,0.14
		c1.17,0.2,2.33,0.43,3.49,0.69c2.84,0.62,5.65,1.34,8.45,2.11c6.96,1.9,13.84,4.05,20.7,6.3c6.96,2.29,13.87,4.7,20.76,7.21
		c2.86,1.04,5.7,2.1,8.53,3.21c1.19,0.46,2.37,0.94,3.55,1.42c0.26,0.11,0.53,0.22,0.79,0.33c0.01,0.01,0.02,0.01,0.03,0.01
		c0.08,0.03,0.17,0.07,0.25,0.11c0.47,0.2,0.95,0.41,1.42,0.62c1.1,0.49,2.17,1.08,3.32,1.46c2.06,0.67,4.32,0.64,6.41,0.18
		c3.7-0.82,7.51-3.32,9.18-6.81c1.58-3.3,0.8-6.57-1.61-9.19c-1.46-1.58-3.24-2.89-5.02-4.08c-4.79-3.2-10.09-5.65-15.38-7.91
		c-6.77-2.9-13.68-5.43-20.65-7.81c-6.87-2.35-13.83-4.5-20.79-6.59c-5.77-1.74-11.68-3.37-17.63-4.41
		c-2.23-0.39-4.48-0.74-6.74-0.92c-1.52-0.12-3.14-0.21-4.63,0.16c-1.79,0.44-3.53,1.47-5.21,2.22c-2.91,1.3-5.81,2.62-8.7,3.97
		c-5.56,2.58-11.09,5.24-16.58,7.97c-19.8,9.85-39.14,20.66-57.63,32.79c-14.2,9.32-28.28,19.3-40.59,31.06
		c-2.04,1.95-4.02,3.95-5.95,6c-1.02,0.28-1.77,1.17-1.94,2.51c-0.74,5.56,0.27,11.29,0.19,16.88c-0.02,1.23-0.42,2.82,0.04,3.97
		c0.38,0.95,1.36,1.87,2.02,2.66c0.64,0.75,1.29,1.49,1.96,2.22c2.53,2.76,5.29,5.26,8.22,7.58c2.04,1.61,4.15,3.13,6.3,4.57
		c0.67,2.24,1.48,4.44,2.41,6.6c4.23,9.8,11.04,18.46,18.35,26.16c6.8,7.17,14.46,13.51,22.65,19.03
		c7.77,5.24,16.04,9.7,24.59,13.54c4.25,1.91,8.57,3.69,12.93,5.33c2.07,0.78,4.14,1.53,6.23,2.25c1.64,0.57,3.01,1.11,4.73,0.36
		c1.27-0.55,2.52-1.14,3.78-1.71c9.61-4.38,18.98-9.29,27.82-15.08c8.51-5.57,16.67-11.94,23.5-19.52
		c6.94-7.7,12.98-16.56,17.51-25.89c3.58-7.38,6.3-15.2,7.52-23.33c0.16-1.08,0.3-2.17,0.42-3.26c4.92-2.1,10.27-2.73,15.5-1.49
		c1.34,3.65,3.07,7.17,5.14,10.49c5.61,9.02,13.35,16.75,21.55,23.43c7.63,6.21,15.89,11.56,24.67,15.99
		c8.42,4.25,17.24,7.72,26.23,10.54c4.33,1.36,8.7,2.56,13.1,3.65c2.1,0.52,4.21,1.05,6.33,1.47c1.24,0.25,2.08,0.23,3.2-0.38
		c0.57-0.31,1.13-0.67,1.69-1c1.13-0.67,2.26-1.34,3.38-2.02c17.47-10.6,34.57-23.36,46.48-40.2c5.96-8.43,10.82-17.89,14.24-27.63
		c2.34-6.66,3.9-13.62,4.47-20.66c6.03-2.64,13.18-4.18,16.81-9.99c1.14-1.82,1.29-4.26,1.45-6.34
		C446.96,216.28,446.67,212.93,446.14,209.67z M282.56,126.2C282.7,126.24,283.07,126.42,282.56,126.2L282.56,126.2z M320.49,138.42
		c-6.84-3.61-13.76-7.09-20.74-10.42c-3.69-1.76-7.4-3.48-11.13-5.16c-1.88-0.84-3.77-1.89-5.78-2.39
		c-6.1-1.51-12.96-0.34-19.05,0.59c-9.25,1.41-18.38,3.6-27.41,6.01c-10.47,2.8-20.84,5.97-31.07,9.53
		c-9.88,3.43-19.69,7.13-29.27,11.36c-3.91,1.73-7.78,3.54-11.57,5.5c-0.82,0.42-1.63,0.85-2.43,1.29c-0.4,0.22-0.8,0.44-1.21,0.67
		c-0.22,0.12-1.3,0.65-0.79,0.44c-1.85,0.74-2.87,0.78-4.89,0.69c-1.54-0.07-3.74-0.54-5.03-1.22c-0.95-0.5-1.21-0.65-1.82-1.26
		c-0.47-0.47-0.8-1-0.94-1.57c-0.14-0.58-0.17-1.03,0-1.72c0.23-0.95,0.63-1.72,1.1-2.57c0.03-0.05,0.04-0.07,0.05-0.1
		c0.03-0.03,0.06-0.06,0.12-0.11c0.24-0.24,0.47-0.48,0.72-0.71c0.25-0.23,0.51-0.43,0.77-0.65c0.06-0.05,0.12-0.09,0.19-0.14
		c0.21-0.15,0.41-0.3,0.62-0.44c0.83-0.57,1.68-1.11,2.55-1.62c2.31-1.37,4.77-2.51,7.21-3.63c1.39-0.64,2.79-1.26,4.2-1.87
		c0.39-0.17,0.78-0.33,1.17-0.5c0.02-0.01,0.02-0.01,0.03-0.01c0.03-0.01,0.04-0.02,0.07-0.03c0.22-0.09,0.44-0.18,0.66-0.28
		c0.83-0.34,1.66-0.68,2.48-1.02c1.1-0.45,1.12-0.47,2.34-0.97c0.97-0.4,1.94-0.79,2.91-1.18c1.77-0.71,3.55-1.41,5.34-2.1
		c8.09-3.12,16.24-6.18,24.49-8.83c16.36-5.26,32.73-10.44,49.3-15.01c6.06-1.67,12.15-3.29,18.31-4.56c1.1-0.23,2.2-0.44,3.3-0.63
		c0.47-0.08,0.93-0.16,1.4-0.23c0.1-0.02,0.22-0.02,0.33-0.04c0.04-0.01,0.09-0.02,0.13-0.02c0.05-0.01,0.11-0.01,0.16-0.03
		c-0.02,0.01-0.03,0.01-0.04,0.01c0.67-0.07,1.35-0.14,2.03-0.15c0.16,0,0.33,0.01,0.49,0.01c2.98,1.32,6.14,2.32,9.17,3.53
		c3.54,1.41,7.06,2.85,10.57,4.34c6.97,2.97,13.88,6.1,20.71,9.39c13.42,6.45,26.57,13.49,39.37,21.08
		c23.24,13.78,45.24,29.59,65.43,47.56c3.67,3.27,7.28,6.6,10.89,9.93c-0.06,0.03-0.12,0.06-0.18,0.09c-0.9,0.4-2.32,0.79-3.43,1.1
		c-1.5,0.42-3.01,0.79-4.5,1.22c-1.56,0.44-3.21,0.82-4.52,1.79c-1.63-3.57-3.64-6.95-6.11-10.04
		c-8.17-10.22-21.09-15.38-33.88-14.81C364.09,162.82,342.39,149.98,320.49,138.42z M249.01,245.28
		C248.97,245.28,248.98,245.28,249.01,245.28L249.01,245.28z M71.15,229.28c6.42-5.28,12.99-10.16,19.88-14.96
		c16.86-11.74,34.59-22.26,52.7-31.96c10.44-5.59,21.05-10.89,31.77-15.92c2.88-1.35,5.76-2.68,8.66-3.98
		c1.32-0.6,2.64-1.19,3.96-1.78c0.28-0.13,0.57-0.25,0.85-0.38c0.08-0.01,0.2-0.05,0.26-0.08c0.05-0.02,0.11-0.03,0.17-0.04
		c0.27-0.01,0.54-0.04,0.81-0.05c0.73-0.01,1.46,0.02,2.19,0.08c0.46,0.03,0.92,0.08,1.37,0.13c0.22,0.02,0.44,0.05,0.67,0.08
		c0.11,0.01,0.22,0.03,0.33,0.04c1.11,0.17,2.21,0.33,3.31,0.53c2.69,0.47,5.37,0.95,8.05,1.51c6.61,1.37,13.22,2.9,19.7,4.82
		c13.2,3.91,26.38,8.37,38.59,14.66c2.33,1.2,4.63,2.48,6.81,3.93c0.46,0.3,0.91,0.62,1.36,0.94c0.2,0.14,0.4,0.29,0.6,0.44
		c0.02,0.01,0.02,0.01,0.03,0.02c0.01,0.01,0.02,0.01,0.03,0.03c0.12,0.1,0.24,0.19,0.36,0.29c0.69,0.56,1.35,1.16,1.95,1.81
		c0.14,0.15,0.27,0.31,0.41,0.47c0.04,0.04,0.07,0.09,0.11,0.13c0.37,0.58,0.7,1.23,0.74,1.49c0.11,0.76,0.04,1.02-0.22,1.74
		c-0.16,0.44-0.68,1.28-1.09,1.73c-2.2,2.48-5.95,3.93-9.14,3.04c-1.85-0.52-3.65-1.61-5.43-2.37c-2.57-1.09-5.16-2.13-7.77-3.13
		c-6.38-2.47-12.82-4.76-19.3-6.96c-6.94-2.36-13.92-4.62-20.95-6.69c-5.62-1.66-11.3-3.28-17.07-4.37
		c-1.92-0.36-3.9-0.72-5.87-0.74c-3.1-0.04-5.88,1.8-8.61,3.06c-9.15,4.21-18.15,8.74-26.85,13.8c-6.02,3.5-11.87,7.29-17.59,11.27
		c-4.38,3.05-8.68,6.21-13.16,9.12c-2.08,1.35-4.2,2.64-6.36,3.85c-0.71,0.39-1.04,0.98-1.11,1.59c-8.29-1.02-16.94,0.44-24.51,3.87
		c-7.2,3.26-12.77,9.09-16.42,16.03c-2.09,3.97-3.83,8.21-5.12,12.57c-0.22-0.33-0.51-0.64-0.85-0.89c-1.73-1.29-3.5-2.54-5.29-3.75
		c-1.91-1.3-3.87-2.64-5.91-3.77C62.42,236.54,66.85,232.82,71.15,229.28z M56.74,260.37c0.49-4.89-0.33-9.83-0.34-14.74
		c1.72,1.02,3.38,2.15,5.01,3.26c1.79,1.22,3.56,2.46,5.29,3.75c0.73,0.54,1.73,0.47,2.53,0.06c-0.5,2.16-0.9,4.34-1.16,6.52
		c-0.5,4.24-0.36,8.47,0.28,12.64C64.13,268.41,60.22,264.58,56.74,260.37z M233.97,271.85c-0.48,1.87-1.04,3.72-1.67,5.55
		c-0.33,0.97-0.68,1.92-1.05,2.88c-0.17,0.43-0.34,0.87-0.51,1.3c0.02-0.06-0.17,0.42-0.24,0.59c-0.07,0.17-0.21,0.49-0.23,0.54
		c-4,9.21-9.52,17.88-15.88,25.64c-12.82,15.65-30.8,26.06-48.82,34.89c-1.84,0.9-3.69,1.77-5.55,2.62
		c-7.54-2.6-14.54-5.34-21.59-8.66c-7.74-3.65-15.23-7.84-22.29-12.68c-7.24-4.96-13.95-10.62-20.14-17.11
		c-6.6-6.92-12.58-14.48-16.68-23.19c-1.68-3.56-3.05-7.69-3.85-11.81c-0.09-0.47-0.17-0.94-0.25-1.41
		c-0.04-0.23-0.07-0.47-0.11-0.7c-0.01-0.04-0.01-0.05-0.01-0.08c0-0.02,0-0.02-0.01-0.04c-0.12-0.98-0.21-1.96-0.27-2.94
		c-0.11-1.91-0.1-3.82,0.02-5.72c0.05-0.82,0.14-1.63,0.23-2.45c0.02-0.16,0.11-0.75,0.12-0.86c0.08-0.48,0.16-0.96,0.25-1.44
		c0.33-1.74,0.76-3.45,1.28-5.14c0.53-1.75,1.14-3.48,1.78-5.19c0.3-0.79,0.61-1.57,0.92-2.36c0.02-0.04,0.06-0.13,0.09-0.21
		c0.06-0.13,0.11-0.26,0.17-0.39c0.19-0.42,0.38-0.85,0.57-1.27c0.7-1.51,1.47-2.98,2.32-4.41c0.41-0.68,0.83-1.34,1.28-1.99
		c0.22-0.32,0.46-0.64,0.68-0.96c0.03-0.04,0.04-0.06,0.06-0.09c0.16-0.2,0.31-0.4,0.47-0.59c1.04-1.26,2.17-2.43,3.4-3.5
		c0.3-0.26,0.61-0.52,0.92-0.77c0.02-0.02,0.03-0.02,0.04-0.04c0.15-0.11,0.3-0.23,0.46-0.34c0.72-0.52,1.46-1,2.22-1.46
		c0.74-0.44,1.51-0.85,2.29-1.23c0.4-0.2,0.81-0.38,1.22-0.57c0.64-0.29,0.25-0.1,0.11-0.05c0.33-0.13,0.65-0.26,0.98-0.38
		c1.95-0.73,3.96-1.29,5.99-1.72c3.87-0.83,7.77-1.17,12.03-0.76c0.11,0.01,0.87,0.1,0.95,0.1c0.37,0.05,0.75,0.11,1.12,0.18
		c0.96,0.17,1.92,0.39,2.86,0.64c0.82,0.22,1.63,0.47,2.43,0.75c0.39,0.14,0.78,0.28,1.17,0.44c0.13,0.05,0.27,0.11,0.4,0.16
		c0.07,0.03,0.21,0.09,0.33,0.15c1.52,0.7,3,1.49,4.42,2.39c0.68,0.43,1.35,0.88,2,1.35c0.27,0.19,0.54,0.39,0.8,0.59
		c0.04,0.03,0.71,0.57,0.85,0.68c2.52,2.09,4.82,4.44,6.92,6.95c0.51,0.6,1,1.22,1.49,1.83c0.02,0.03,0.04,0.04,0.05,0.07
		c0.1,0.13,0.2,0.26,0.29,0.38c0.29,0.39,0.58,0.78,0.87,1.17c0.93,1.28,1.83,2.58,2.7,3.9c0.84,1.28,1.67,2.57,2.47,3.87
		c0.98,1.6,3.11,2.21,4.76,1.25c1.26-0.74,1.91-2.28,1.65-3.68c0.35-0.71,0.73-1.41,1.16-2.07c0.11-0.17,0.34-0.47,0.59-0.91
		c0.18-0.33,0.33-0.67,0.51-1c0.39-0.73,0.8-1.45,1.23-2.15c1.93-3.17,3.69-5.41,6.1-8.06c5.4-5.94,11.53-10.78,18.76-14.31
		c3.47-1.7,7.29-3.01,11.3-3.8c1.96-0.38,3.52-0.56,5.72-0.63c1.05-0.03,2.11-0.02,3.16,0.03c0.47,0.02,0.94,0.05,1.41,0.09
		c0.24,0.02,0.47,0.04,0.71,0.07c-0.02,0,0.61,0.07,0.69,0.08c4.32,0.59,8.52,1.96,12.17,3.88c3.77,1.98,6.45,4.05,9.32,7.21
		c0.59,0.65,1.17,1.33,1.71,2.03c0.02,0.04,0.5,0.68,0.59,0.82c0.31,0.43,0.6,0.87,0.89,1.32c1.03,1.59,1.94,3.26,2.74,4.99
		c0.11,0.24,0.22,0.48,0.32,0.72c0.01,0.03,0.05,0.11,0.08,0.18c0.14,0.35,0.28,0.7,0.42,1.05c0.35,0.93,0.68,1.86,0.97,2.81
		c0.57,1.83,1.02,3.69,1.37,5.58c0.08,0.4,0.15,0.81,0.21,1.21c0.03,0.2,0.06,0.41,0.09,0.61c0.01,0.06,0.02,0.09,0.02,0.14
		c0,0.01,0,0.01,0,0.02c0.02,0.19,0.04,0.37,0.06,0.56c-0.96,1.22-0.58,2.63,0.32,3.38c0.06,0.88,0.11,1.77,0.14,2.65
		c0.1,3.07,0.01,6.14-0.3,9.19c-0.01,0.06-0.01,0.13-0.02,0.19c0,0,0,0,0,0c-0.89,0.73-0.84,1.78-0.33,2.59
		c-0.08,0.53-0.16,1.05-0.25,1.58C234.81,268.34,234.43,270.1,233.97,271.85z M248.63,256.66c-2,0.29-3.92,0.81-5.75,1.53
		c0.14-3.53,0.03-7.08-0.38-10.6c2.03-1.19,4.22-1.98,6.59-2.32c0.03,0,0.07-0.01,0.11-0.01c0.27-0.02,0.53-0.05,0.8-0.06
		c0.43-0.02,0.87-0.03,1.3-0.02c0.42,0.01,0.84,0.03,1.26,0.06c0.16,0.01,0.33,0.03,0.49,0.04c0.02,0,0.02,0,0.04,0
		c0.01,0,0.01,0,0.03,0.01c0.58,0.1,1.15,0.24,1.71,0.4c0.01,0.34-0.01,0.68,0.01,1.01c0.13,3.34,0.61,6.63,1.39,9.85
		C253.72,256.23,251.16,256.29,248.63,256.66z M421.28,238c-0.02,0.2-0.05,0.4-0.08,0.61c0,0,0,0.01,0,0.01
		c-0.01,0.04-0.01,0.08-0.02,0.13c-0.06,0.41-0.12,0.83-0.19,1.24c-0.17,1.06-0.37,2.12-0.58,3.17c-0.41,2-0.91,3.99-1.47,5.96
		c-2.83,9.88-7.28,18.83-12.82,27.66c-2.64,4.2-5.23,7.59-8.48,11.24c-3.37,3.79-7.01,7.34-10.82,10.69
		c-7.95,6.99-16.59,13.06-25.58,18.78c-1.84,1.17-3.7,2.31-5.57,3.43c-15.81-3.57-31.16-8.5-45.31-16
		c-7.72-4.09-15.17-8.96-21.76-14.44c-7.25-6.03-14.2-12.86-19.26-20.88c-2.34-3.72-4.09-7.27-5.38-11.19
		c-0.59-1.81-1.08-3.65-1.44-5.52c-0.09-0.45-0.17-0.91-0.25-1.37c-0.02-0.1-0.11-0.74-0.14-0.9c-0.11-0.91-0.2-1.82-0.26-2.73
		c-0.11-1.82-0.12-3.64-0.02-5.46c0.05-0.87,0.12-1.73,0.21-2.6c0.01-0.13,0.08-0.65,0.1-0.82c0.02-0.12,0.04-0.29,0.05-0.33
		c0.04-0.27,0.08-0.53,0.13-0.8c0.59-3.48,1.44-6.95,2.5-10.32c0.25-0.79,0.51-1.57,0.79-2.35c0.14-0.38,0.28-0.77,0.43-1.15
		c0.05-0.14,0.22-0.55,0.29-0.71c0.63-1.46,1.34-2.89,2.15-4.26c0.4-0.68,0.83-1.35,1.28-2c0.22-0.31,0.44-0.62,0.67-0.92
		c0.01-0.01,0.01-0.02,0.03-0.03c0.16-0.19,0.31-0.39,0.48-0.58c1.09-1.29,2.29-2.48,3.58-3.56c0.09-0.08,0.47-0.38,0.54-0.44
		c0.3-0.23,0.6-0.45,0.91-0.66c0.83-0.58,1.68-1.11,2.56-1.61c1.75-1,3.21-1.67,4.79-2.26c4.17-1.57,8.32-2.56,12.36-2.76
		c1.89-0.1,3.76,0,5.65,0.16c0.07,0.01,0.13,0.01,0.18,0.02c0.19,0.03,0.38,0.05,0.56,0.08c0.44,0.07,0.88,0.15,1.32,0.24
		c0.91,0.18,1.82,0.4,2.72,0.66c0.83,0.24,1.65,0.51,2.46,0.81c0.39,0.14,0.78,0.3,1.17,0.46c0.02,0.01,0.03,0.01,0.06,0.03
		c0.24,0.11,0.48,0.22,0.72,0.33c1.53,0.71,3,1.53,4.43,2.42c0.71,0.44,1.41,0.91,2.09,1.39c0.34,0.24,0.68,0.49,1.01,0.73
		c0.1,0.07,0.19,0.15,0.29,0.22c0.01,0.01,0.44,0.35,0.48,0.38c1.3,1.04,2.54,2.14,3.75,3.28c2.43,2.31,4.69,4.8,6.84,7.38
		c1,1.2,1.97,2.41,2.93,3.64c1.16,1.48,3.71,1.21,4.92,0c1.01-1.01,1.16-2.25,0.8-3.41c0.26-0.75,0.53-1.41,0.9-2.14
		c0.51-1.02,1.17-2.81,1.73-4.02c1.41-3.05,3.15-5.94,5.08-8.69c4.01-5.7,9.65-11.47,15.4-15.42c1.69-1.16,3.44-2.23,5.24-3.19
		c1.79-0.95,3.24-1.62,4.87-2.23c3.81-1.44,7.65-2.28,11.26-2.51c2.02-0.13,4.05-0.09,6.07,0.11c0.29,0.03,0.57,0.06,0.86,0.1
		c0.07,0.01,0.11,0.01,0.14,0.02c0.06,0.01,0.12,0.02,0.21,0.04c0.52,0.09,1.04,0.17,1.56,0.27c1.26,0.24,2.5,0.54,3.73,0.89
		c4.02,1.16,7.41,2.84,10.95,5.41c0.06,0.04,0.3,0.23,0.38,0.28c0.13,0.1,0.26,0.21,0.39,0.32c0.34,0.28,0.67,0.56,1,0.85
		c0.81,0.72,1.59,1.47,2.33,2.25c0.66,0.7,1.3,1.42,1.91,2.17c0.11,0.13,0.22,0.27,0.33,0.41c0.05,0.07,0.12,0.15,0.14,0.18
		c0.31,0.43,0.63,0.86,0.93,1.29c1.14,1.65,2.15,3.39,3.05,5.18c0.3,0.61,0.79,1.66,0.97,2.07c0.01,0.03,0.25,0.61,0.24,0.57
		c0.08,0.19,0.15,0.39,0.23,0.58c0.19,0.49,0.37,0.97,0.54,1.47c1.11,3.17,1.87,6.45,2.43,9.76c0.11,0.63,0.2,1.27,0.29,1.9
		c0.02,0.14,0.05,0.37,0.07,0.52c0.05,0.41,0.1,0.82,0.14,1.23c0.16,1.58,0.27,3.17,0.32,4.77C421.86,231,421.7,234.51,421.28,238z
		 M441.18,218.37c-0.02,1.08-0.08,2.16-0.2,3.24c-0.02,0.08-0.13,0.74-0.17,0.93c-0.03,0.13-0.07,0.26-0.1,0.39
		c0.02-0.02,0.04-0.04,0.06-0.06c-0.02,0.02-0.04,0.05-0.06,0.07c0,0.01-0.01,0.02-0.01,0.03c-0.12,0.49-0.16,0.21-0.02,0
		c-0.3,0.3-0.54,0.9-0.81,1.21c-0.43,0.5-0.95,1.01-1.44,1.4c-1.25,1-2.74,1.72-4.18,2.39c-1.81,0.85-3.72,1.53-5.49,2.47
		c-0.02,0.01-0.03,0.02-0.05,0.03c0.06-7.67-1.06-15.52-3.65-22.78c1.67-0.07,3.43-0.86,5.02-1.26c1.53-0.39,3.08-0.74,4.61-1.15
		c1.37-0.37,2.84-0.83,4.17-1.5C440.78,208.34,441.28,213.45,441.18,218.37z"/>
	<path class="st2" d="M277.27,103.49c-0.02,0-0.04,0-0.05,0.01c-0.02,0-0.04,0.01-0.06,0.01c-0.04,0.01-0.08,0.02-0.13,0.02
		C276.66,103.62,276.36,103.79,277.27,103.49z"/>
	<path class="st2" d="M214.24,227.34c-2.92-1.37-6.03-2.26-9.2-2.85c-3.41-0.63-6.9-1.08-10.36-0.68
		c-6.59,0.77-12.58,3.82-17.78,7.83c-10.21,7.87-18.18,19.03-23.6,30.65c-0.42,0.89-0.77,1.8-1.1,2.71
		c-5.91-11.61-14.42-22.82-25.88-29.17c-6.63-3.68-14.45-5.53-21.99-4.14c-7.32,1.34-13.33,6.25-16.92,12.66
		c-3.68,6.55-5.13,14.53-4.79,21.99c0.34,7.41,3.19,14.07,7.16,20.24c4.87,7.59,10.41,15.01,16.9,21.29
		c6.12,5.92,13.11,10.91,20.55,15.02c7.23,4,14.87,7.21,22.62,10.07c1.9,0.7,3.81,1.38,5.73,2.05c0.87,0.3,1.73,0.6,2.6,0.9
		c1.19,0.41,2.27,0.99,3.51,0.52c2.15-0.81,4.24-1.92,6.31-2.93c2.14-1.04,4.26-2.1,6.35-3.24c8.03-4.35,15.74-9.37,22.66-15.35
		c7.07-6.11,12.9-13.39,18.12-21.11c7.39-10.92,13.3-23.39,13.24-36.82c-0.03-6.15-0.76-12.65-3.2-18.34
		C223.01,233.61,219.18,229.66,214.24,227.34z M209.81,294.68c-5.54,7.76-11.78,14.71-19.3,20.59c-7.41,5.8-15.63,10.56-24.03,14.76
		c-1.93,0.96-3.87,1.89-5.83,2.78c-13.37-4.55-26.68-9.57-38.54-17.39c-6.33-4.18-12.13-9.13-17.18-14.79
		c-2.77-3.11-5.24-6.45-7.68-9.82c-2.11-2.92-4.18-5.88-5.98-9.01c-3.13-5.43-4.97-11.22-4.92-17.52c0.06-6.4,1.35-13.02,4.64-18.57
		c3.14-5.3,8.06-9.16,14.17-10.32c6.32-1.2,13.05,0.44,18.64,3.42c10.97,5.86,19.02,16.53,24.73,27.33
		c0.63,1.19,1.23,2.39,1.81,3.61c1.03,2.19,4.27,0.28,3.25-1.9c-0.03-0.07-0.07-0.13-0.1-0.2c0.78-1.56,1.62-3.1,2.42-4.65
		c1.38-2.68,2.91-5.29,4.53-7.83c3.68-5.77,7.9-11.24,12.8-16.03c4.79-4.68,10.41-8.87,16.89-10.87c6.41-1.98,13.32-1.06,19.59,1.06
		c5.19,1.76,9.41,5.02,11.8,10.01c2.55,5.34,3.12,11.78,3.12,17.62C224.65,270.9,217.73,283.59,209.81,294.68z"/>
	<path class="st2" d="M407.68,205.43c-3.25-4.72-8.04-7.72-13.57-9.09c-6.28-1.56-13.54-1.94-19.75,0.07
		c-6.08,1.97-11.34,5.89-15.74,10.44c-8.67,8.94-14.98,20.46-18.9,32.22c-0.26,0.78-0.46,1.56-0.65,2.35
		c-7.54-11.45-17.86-22.13-30.86-26.87c-7.37-2.68-15.88-3.06-23.14,0.14c-6.69,2.95-11.27,9.05-13.57,15.85
		c-2.34,6.91-2.55,14.88-1.05,22c1.47,6.96,5.32,12.89,9.81,18.3c5.79,6.98,12.11,13.61,19.38,19.07
		c6.93,5.22,14.62,9.28,22.66,12.5c7.78,3.12,15.87,5.39,24.01,7.33c2.01,0.48,4.02,0.94,6.04,1.39c0.94,0.21,2.15,0.69,3.11,0.56
		c1.12-0.15,2.35-1.2,3.31-1.78c4.07-2.45,8.06-5.04,11.9-7.83c7.4-5.36,14.41-11.35,20.4-18.27c6.1-7.05,10.98-15.16,15.09-23.5
		c5.73-11.63,9.4-24.27,7.45-37.28C412.71,216.96,411.19,210.54,407.68,205.43z M400,263.74c-4.66,8.43-10.04,16.15-16.92,22.93
		c-6.81,6.72-14.51,12.48-22.53,17.67c-1.87,1.21-3.76,2.38-5.67,3.53c-13.88-3.06-27.81-6.58-40.5-13.15
		c-6.84-3.54-13.22-7.9-18.9-13.11c-3-2.75-5.75-5.75-8.48-8.76c-2.31-2.55-4.6-5.14-6.62-7.92c-3.44-4.72-5.92-9.91-6.7-15.74
		c-0.82-6.15-0.39-12.71,1.79-18.55c2.06-5.52,6.03-10.33,11.52-12.67c6.09-2.6,13.24-2.11,19.39-0.02
		c12.19,4.12,21.98,14.4,29.05,24.8c0.76,1.12,1.5,2.27,2.22,3.42c1.26,2.06,4.52,0.17,3.25-1.9c-0.08-0.12-0.16-0.24-0.23-0.37
		c0.59-1.6,1.24-3.18,1.84-4.77c1.02-2.7,2.19-5.34,3.46-7.94c2.94-6.01,6.4-11.85,10.59-17.08c4.09-5.1,8.93-9.8,14.82-12.77
		c6.01-3.03,12.72-3.26,19.27-2.11c5.41,0.95,10.54,3.2,13.77,7.83c3.49,5.01,4.97,11.64,5.7,17.43
		C411.86,238.4,406.62,251.77,400,263.74z"/>
</g>
</svg>
