<?xml version="1.0" encoding="utf-8"?>
<!-- Generator: Adobe Illustrator 26.3.1, SVG Export Plug-In . SVG Version: 6.00 Build 0)  -->
<svg version="1.1" id="Flieger" xmlns="http://www.w3.org/2000/svg" xmlns:xlink="http://www.w3.org/1999/xlink" x="0px" y="0px"
	 viewBox="0 0 500.5 509" style="enable-background:new 0 0 500.5 509;" xml:space="preserve">
<style type="text/css">
	.st0{fill:#FFFFFF;}
	.st1{fill:#211F1B;}
</style>
<path id="farbe" class="st0" d="M453.18,177.05c-22.71-0.49-45.45-3.54-67.98-6.27c-25.21-3.05-50.41-6.36-75.7-8.68
	c-11.83-1.09-23.69-2.03-35.58-1.86c-0.48,0.01-0.67,0.39-0.62,0.75c-1.14-1.22-3.42,0.54-2.39,1.96
	c3.63,5.01,6.88,10.34,10.16,15.58c1.62,2.6,3.19,5.23,4.69,7.9c0.73,1.29,1.44,2.59,2.14,3.9c0.37,0.69,0.7,1.47,1.1,2.18
	c-4.64,10.25-9.4,20.41-13.52,30.9c-1.56,3.97-3.01,7.99-4.31,12.05c-0.69,2.15-1.34,4.32-1.95,6.5c-0.49,1.76-1.81,4.56-1.19,6.48
	c-1.11,0.84-0.49,2.88,1.08,2.41c6.02-1.82,12.6-1.47,18.83-1.74c3.22-0.14,6.41-0.35,9.61-0.79c1.49-0.21,2.98-0.46,4.44-0.82
	c0.04-0.01,0.06-0.02,0.1-0.03c0.19,1.55,0.37,3.1,0.56,4.65c0.76,6.06,1.56,12.12,2.34,18.18c0.73,5.66,1.2,11.46,2.26,17.08
	c-1.09,2.13,2.11,4.82,4.43,2.93c36.23-29.46,72.58-58.84,110.24-86.46c10.67-7.83,21.35-15.65,32.24-23.18
	C455.7,179.6,455.19,177.09,453.18,177.05z"/>
<g id="ol">
	<path class="st1" d="M458,167.02c-10.43-0.2-20.86-1.16-31.24-2.17c-12.28-1.19-24.53-2.61-36.78-4.09
		c-12.84-1.55-25.68-3.14-38.52-4.64c-12.33-1.44-24.66-2.84-37.03-3.95c-10.71-0.96-21.49-1.91-32.25-1.77
		c-1.15,0.02-2.3,0.04-3.44,0.07c-0.34,0.01-0.56,0.18-0.67,0.4c-1.43-0.98-3.76,0.98-2.61,2.59c3.62,5.07,6.85,10.46,10.14,15.75
		c1.62,2.59,3.17,5.22,4.67,7.88c0.79,1.4,1.55,2.81,2.31,4.22c0.29,0.54,0.55,1.13,0.85,1.69c-1.12,2.4-2.37,4.72-3.49,7.12
		c-1.02,2.2-1.95,4.44-2.93,6.65c-1.67,3.8-3.3,7.63-4.89,11.47c-2.57,6.21-4.96,12.49-6.97,18.9c-0.55,1.75-1.06,3.5-1.56,5.27
		c-0.27,0.95-0.52,1.89-0.78,2.84c-0.31,1.16-0.83,2.43-0.42,3.6c-0.87,1.13-0.1,3.11,1.62,2.6c4.57-1.35,9.54-1.32,14.27-1.42
		c5.19-0.1,10.39-0.3,15.52-1.13c0.78-0.12,1.75-0.25,2.73-0.46c1.01,8.05,2.03,16.1,3.07,24.15c0.35,2.72,0.7,5.44,1.05,8.16
		c0.3,2.35,0.53,4.72,0.96,7.05c-0.31,1.1,0.02,2.43,0.79,3.2c1.31,1.31,3.14,1.08,4.47,0c17.69-14.39,35.4-28.74,53.29-42.88
		c18.75-14.82,37.64-29.46,56.9-43.61c9.86-7.24,19.71-14.49,29.73-21.5c0.18-0.04,0.35-0.08,0.53-0.12
		c0.67-0.15,1.02-0.57,1.13-1.05c0.24-0.17,0.48-0.34,0.73-0.51C461.02,170.07,460.42,167.07,458,167.02z M309.98,155.19
		c12.27,1.36,24.53,2.89,36.78,4.47c12.84,1.65,25.68,3.37,38.52,4.97c12.33,1.53,24.67,3.02,37.03,4.3
		c1.64,0.17,3.29,0.33,4.94,0.48c-1.47,0.11-2.95,0.22-4.42,0.32c-10.89,0.74-21.8,1.3-32.7,1.85c-17.61,0.88-35.29,1.62-52.86,3.27
		c-1.17-0.88-2.83-1.23-4.15-1.68c-1.93-0.66-3.85-1.32-5.78-1.98c-3.9-1.34-7.79-2.72-11.66-4.17c-7.85-2.94-15.66-6.09-23.27-9.63
		c-3.59-1.67-7.2-3.29-10.74-5.07C291.11,153.2,300.55,154.15,309.98,155.19z M290,166.37c-2.39-3.71-5.05-7.18-7.8-10.58
		c13.29,7.99,27.82,13.65,42.43,18.76c1.2,0.42,2.41,0.83,3.62,1.24c-0.4,0.05-0.8,0.08-1.21,0.13c-9.6,1.13-19.11,2.6-28.46,5.08
		c-0.37-0.86-0.92-1.69-1.33-2.42c-0.77-1.41-1.56-2.8-2.36-4.19C293.33,171.68,291.69,169,290,166.37z M285.88,212.21
		c1.6-4.02,3.3-8,4.95-12c1-2.42,2-4.85,3-7.28c1.03-2.5,1.86-5.08,2.79-7.62c0.52-0.03,0.99-0.22,1.37-0.55
		c0.2,0.03,0.42,0.03,0.65-0.01c8.48-1.56,17.1-2.57,25.67-3.44c10.02-1.02,20.08-1.77,30.14-2.38c20.81-1.27,41.65-2.02,62.46-3.31
		c-8.07,1.24-16.15,2.46-24.22,3.73c-20.25,3.19-40.57,6.69-60.34,12.17c-9.55,2.65-19,5.81-27.98,10.05
		c-0.66,0.31-1.06,0.96-1.2,1.66c-4.4,5.28-9.34,10.12-14.01,15.16c-3.45,3.73-6.63,7.64-9.53,11.76
		C281.47,224.08,283.54,218.1,285.88,212.21z M316.67,269.55c-0.03,0.1-0.06,0.21-0.1,0.31c-0.31-2.03-0.64-4.05-0.92-6.06
		c-0.64-4.7-1.29-9.39-1.93-14.09c-1.3-9.46-2.63-18.92-4.16-28.35c-0.76-4.67-1.63-9.31-2.47-13.96c0.11-0.13,0.22-0.25,0.33-0.38
		c0.38-0.45,0.63-0.98,0.75-1.52c8.7-4,17.9-7.05,27.27-9.56c-5.21,21.49-9.78,43.11-16,64.35
		C318.54,263.39,317.61,266.47,316.67,269.55z M289.5,234.78c-3.76,0.38-7.5,0.9-11.14,1.84c1.97-2.11,4.02-4.15,6.12-6.13
		c2.93-2.76,5.74-5.65,8.58-8.5c3.55-3.56,7.18-7.06,10.61-10.74c0.62,7.16,1.28,14.3,2.14,21.44c-0.62,0.15-1.24,0.33-1.85,0.45
		C299.21,234.13,294.32,234.3,289.5,234.78z M398.58,208.52c-19.2,14.44-38.06,29.33-56.8,44.35c-6.97,5.58-13.92,11.19-20.86,16.8
		c0.62-1.98,1.25-3.96,1.85-5.95c1.66-5.55,3.23-11.12,4.73-16.72c2.96-11.09,5.73-22.32,7.74-33.63
		c1.06-5.99,1.91-11.98,2.55-18.03c7.23-1.86,14.53-3.44,21.76-4.9c20.9-4.22,42.01-7.32,63.06-10.72
		c5.88-0.95,11.74-1.98,17.6-3.09c1.3-0.25,2.59-0.51,3.88-0.78C428.63,186.35,413.51,197.29,398.58,208.52z"/>
	<path class="st1" d="M77.48,302.79c-4.35-0.51-7.96-0.93-11.56-1.27c-0.89-0.06-1.67,0.57-1.75,1.45
		c-0.08,0.88,0.57,1.67,1.45,1.75c3.57,0.34,7.16,0.75,11.49,1.27c0.06,0.01,0.13,0.01,0.19,0.01c0.8,0,1.5-0.6,1.59-1.42
		C78.99,303.69,78.36,302.89,77.48,302.79z"/>
	<path class="st1" d="M106.06,224.29c0.45,0,0.9-0.19,1.22-0.56c2.31-2.7,5.37-4.66,8.85-5.67c0.85-0.25,1.34-1.14,1.1-1.99
		c-0.25-0.85-1.14-1.34-1.99-1.1c-4.08,1.19-7.68,3.49-10.4,6.66c-0.58,0.67-0.5,1.69,0.18,2.27
		C105.32,224.17,105.69,224.29,106.06,224.29z"/>
	<path class="st1" d="M34.6,303.91c-3.84,1.61-7.04,3.85-9.78,6.82c-0.6,0.65-0.56,1.67,0.09,2.27c0.31,0.29,0.7,0.43,1.09,0.43
		c0.43,0,0.87-0.17,1.18-0.52c2.43-2.63,5.26-4.61,8.67-6.04c0.82-0.34,1.2-1.29,0.86-2.1C36.36,303.95,35.42,303.56,34.6,303.91z"
		/>
	<path class="st1" d="M102.77,236.55c0-1.7,0.19-3.37,0.56-4.94c0.2-0.86-0.33-1.73-1.2-1.93c-0.86-0.2-1.73,0.33-1.93,1.2
		c-0.43,1.82-0.65,3.73-0.65,5.68c0,2.12,0.26,4.32,0.77,6.54c0.17,0.74,0.83,1.25,1.56,1.25c0.12,0,0.24-0.01,0.36-0.04
		c0.87-0.2,1.41-1.06,1.21-1.93C103,240.39,102.77,238.43,102.77,236.55z"/>
	<path class="st1" d="M98.54,304.9c-3.45-0.23-7.1-0.55-11.48-1.02c-0.88-0.11-1.67,0.54-1.77,1.43s0.54,1.67,1.43,1.77
		c4.43,0.47,8.12,0.8,11.62,1.03c0.04,0,0.07,0,0.11,0c0.84,0,1.55-0.65,1.6-1.5C100.1,305.73,99.43,304.96,98.54,304.9z"/>
	<path class="st1" d="M56.17,300.86c-1.01-0.03-2.01-0.05-2.99-0.05c-3.26,0-6.16,0.18-8.84,0.54c-0.88,0.12-1.5,0.93-1.38,1.81
		c0.11,0.81,0.8,1.39,1.59,1.39c0.07,0,0.15,0,0.22-0.01c2.54-0.35,5.29-0.52,8.41-0.52c0.95,0,1.92,0.02,2.9,0.05
		c0.89,0.05,1.63-0.67,1.66-1.56C57.75,301.63,57.05,300.89,56.17,300.86z"/>
	<path class="st1" d="M173.5,208.59c3.72,0,7.32,0.84,10.43,2.43c0.23,0.12,0.48,0.18,0.73,0.18c0.58,0,1.15-0.32,1.43-0.88
		c0.4-0.79,0.09-1.76-0.7-2.16c-3.56-1.82-7.67-2.78-11.89-2.78h-0.03c-0.89,0-1.59,0.72-1.59,1.61S172.62,208.59,173.5,208.59z"/>
	<path class="st1" d="M182.51,254.78c-1.87,3.26-3.93,6.52-6.12,9.7c-0.5,0.73-0.32,1.73,0.41,2.24c0.28,0.19,0.6,0.28,0.91,0.28
		c0.51,0,1.01-0.24,1.32-0.69c2.25-3.25,4.35-6.59,6.26-9.93c0.44-0.77,0.17-1.75-0.6-2.19C183.93,253.74,182.95,254,182.51,254.78z
		"/>
	<path class="st1" d="M125,217.56c3.45,0.55,6.82,1.93,10,4.09c0.28,0.19,0.59,0.28,0.9,0.28c0.51,0,1.02-0.25,1.33-0.7
		c0.5-0.73,0.31-1.73-0.43-2.23c-3.57-2.43-7.37-3.98-11.3-4.61c-0.88-0.14-1.7,0.46-1.84,1.33
		C123.52,216.59,124.12,217.42,125,217.56z"/>
	<path class="st1" d="M192.41,219.98c0.5,1.22,0.76,2.78,0.76,4.63c0,0.64-0.03,1.32-0.09,2.03c-0.08,0.88,0.58,1.66,1.46,1.74
		c0.05,0,0.09,0.01,0.14,0.01c0.82,0,1.53-0.63,1.6-1.47c0.07-0.8,0.1-1.57,0.1-2.31c0-2.27-0.34-4.24-1-5.86
		c-0.56-1.36-1.28-2.67-2.13-3.88c-0.51-0.73-1.52-0.9-2.24-0.39c-0.73,0.51-0.9,1.51-0.39,2.24
		C191.34,217.74,191.94,218.83,192.41,219.98z"/>
	<path class="st1" d="M154.3,216.48c0.4,0,0.8-0.15,1.11-0.45c2.7-2.59,5.79-4.54,9.18-5.81c0.83-0.31,1.25-1.24,0.94-2.07
		c-0.31-0.83-1.24-1.25-2.07-0.94c-3.8,1.42-7.26,3.61-10.28,6.5c-0.64,0.61-0.66,1.63-0.05,2.27
		C153.45,216.31,153.87,216.48,154.3,216.48z"/>
	<path class="st1" d="M143.96,230.66c0.3,0.43,0.79,0.68,1.31,0.68c0.08,0,0.16-0.01,0.24-0.02c0.6-0.09,1.1-0.51,1.29-1.09
		c0.82-2.49,1.84-4.82,3.04-6.94c0.44-0.77,0.16-1.75-0.61-2.19c-0.77-0.44-1.75-0.16-2.19,0.61c-0.83,1.48-1.59,3.06-2.26,4.71
		c-0.18-0.22-0.35-0.43-0.53-0.64c-0.57-0.68-1.58-0.76-2.26-0.19c-0.68,0.57-0.76,1.59-0.19,2.26
		C142.53,228.74,143.26,229.68,143.96,230.66z"/>
	<path class="st1" d="M111.86,262.88c0.37,0,0.73-0.12,1.03-0.38c0.68-0.57,0.77-1.59,0.19-2.26c-2.58-3.07-4.72-6.18-6.35-9.26
		c-0.42-0.78-1.39-1.08-2.17-0.67c-0.78,0.42-1.08,1.39-0.67,2.17c1.74,3.28,4,6.59,6.73,9.83
		C110.95,262.68,111.4,262.88,111.86,262.88z"/>
	<path class="st1" d="M186.55,285.67c-3.44,1.47-7.05,2.52-10.73,3.12c-0.88,0.14-1.47,0.97-1.33,1.84
		c0.13,0.79,0.81,1.35,1.58,1.35c0.09,0,0.17-0.01,0.26-0.02c3.94-0.64,7.8-1.76,11.48-3.33c0.82-0.35,1.2-1.29,0.85-2.11
		C188.31,285.7,187.37,285.32,186.55,285.67z"/>
	<path class="st1" d="M203.17,273.83c-2.47,2.74-5.31,5.21-8.44,7.35c-0.73,0.5-0.92,1.5-0.42,2.23c0.31,0.46,0.82,0.7,1.33,0.7
		c0.31,0,0.63-0.09,0.91-0.28c3.33-2.28,6.37-4.92,9.01-7.85c0.59-0.66,0.54-1.68-0.12-2.27
		C204.78,273.12,203.77,273.17,203.17,273.83z"/>
	<path class="st1" d="M193.14,234.68c-0.85-0.27-1.75,0.2-2.02,1.05c-1.04,3.31-2.45,6.87-4.2,10.58c-0.38,0.8-0.03,1.76,0.77,2.14
		c0.22,0.1,0.45,0.15,0.68,0.15c0.6,0,1.18-0.34,1.46-0.92c1.81-3.84,3.27-7.54,4.36-10.99
		C194.46,235.85,193.99,234.95,193.14,234.68z"/>
	<path class="st1" d="M217.1,257.56c-3.21,2.63-6,5.53-8.27,8.64c-0.52,0.72-0.37,1.72,0.35,2.25c0.29,0.21,0.62,0.31,0.95,0.31
		c0.5,0,0.98-0.23,1.3-0.66c2.12-2.89,4.71-5.6,7.72-8.05c0.69-0.56,0.79-1.57,0.23-2.26C218.8,257.1,217.79,257,217.1,257.56z"/>
	<path class="st1" d="M235.94,246.86c-3.86,1.54-7.45,3.26-10.66,5.11c-0.77,0.44-1.03,1.43-0.59,2.19c0.3,0.52,0.84,0.81,1.39,0.81
		c0.27,0,0.55-0.07,0.8-0.21c3.08-1.77,6.52-3.42,10.25-4.91c0.82-0.33,1.23-1.26,0.9-2.09
		C237.7,246.93,236.77,246.53,235.94,246.86z"/>
	<path class="st1" d="M256.54,240.7c-4.1,0.92-7.81,1.88-11.34,2.94c-0.85,0.26-1.33,1.15-1.07,2c0.21,0.69,0.85,1.14,1.54,1.14
		c0.15,0,0.31-0.02,0.47-0.07c3.45-1.04,7.09-1.99,11.11-2.89c0.87-0.19,1.41-1.05,1.22-1.92
		C258.26,241.05,257.4,240.5,256.54,240.7z"/>
	<path class="st1" d="M147.33,286.84c0.34-0.82-0.04-1.76-0.86-2.1c-3.34-1.4-6.75-3.13-10.12-5.15c-0.76-0.46-1.75-0.21-2.2,0.55
		c-0.46,0.76-0.21,1.75,0.55,2.2c3.5,2.1,7.05,3.9,10.53,5.36c0.2,0.08,0.41,0.12,0.62,0.12
		C146.48,287.83,147.07,287.46,147.33,286.84z"/>
	<path class="st1" d="M139.27,299.35c-3.52,1.79-7.04,3.15-10.47,4.05c-0.86,0.23-1.37,1.1-1.15,1.96c0.19,0.72,0.84,1.2,1.55,1.2
		c0.13,0,0.27-0.02,0.41-0.05c3.65-0.96,7.38-2.4,11.11-4.29c0.79-0.4,1.11-1.37,0.7-2.16
		C141.03,299.27,140.07,298.95,139.27,299.35z"/>
	<path class="st1" d="M172.95,271.9c-0.69-0.55-1.71-0.44-2.26,0.26c-2.42,3.04-4.95,5.95-7.52,8.66c-0.61,0.64-0.59,1.66,0.06,2.27
		c0.31,0.3,0.71,0.44,1.11,0.44c0.43,0,0.85-0.17,1.17-0.5c2.64-2.78,5.23-5.76,7.71-8.87C173.76,273.46,173.65,272.45,172.95,271.9
		z"/>
	<path class="st1" d="M128.79,276.55c0.53-0.71,0.38-1.72-0.34-2.25c-0.88-0.65-1.75-1.31-2.64-2.01c-2.2-1.72-4.27-3.49-6.17-5.24
		c-0.65-0.6-1.67-0.56-2.27,0.09c-0.6,0.65-0.56,1.67,0.09,2.27c1.96,1.82,4.11,3.64,6.37,5.41c0.91,0.71,1.81,1.4,2.71,2.06
		c0.29,0.21,0.62,0.31,0.95,0.31C127.99,277.2,128.47,276.98,128.79,276.55z"/>
	<path class="st1" d="M119.55,304.86c-3.29,0.28-6.65,0.42-10.27,0.42l-1.16,0c0,0-0.01,0-0.01,0c-0.88,0-1.6,0.71-1.61,1.6
		c-0.01,0.89,0.71,1.61,1.6,1.62l1.19,0c3.71,0,7.16-0.14,10.55-0.43c0.88-0.08,1.54-0.85,1.46-1.74
		C121.21,305.44,120.42,304.78,119.55,304.86z"/>
	<path class="st1" d="M166.51,289.36c-2.47-0.09-4.98-0.37-7.51-0.83c-0.03-0.34-0.16-0.67-0.4-0.95c-0.59-0.66-1.61-0.72-2.27-0.13
		c-0.15,0.14-0.31,0.27-0.46,0.41c-0.16-0.04-0.31-0.08-0.47-0.12c-0.86-0.22-1.74,0.3-1.95,1.16c-0.08,0.33-0.06,0.67,0.06,0.97
		c-2.03,1.68-4.08,3.23-6.12,4.63c-0.73,0.5-0.92,1.5-0.41,2.24c0.31,0.45,0.81,0.7,1.33,0.7c0.31,0,0.63-0.09,0.91-0.28
		c2.51-1.73,5.04-3.68,7.53-5.8c3.25,0.7,6.48,1.11,9.66,1.22c0.9,0.04,1.63-0.66,1.66-1.55
		C168.09,290.13,167.39,289.39,166.51,289.36z"/>
</g>
</svg>
