<?xml version="1.0" encoding="utf-8"?>
<!-- Generator: Adobe Illustrator 26.3.1, SVG Export Plug-In . SVG Version: 6.00 Build 0)  -->
<svg version="1.1" id="Stifte" xmlns="http://www.w3.org/2000/svg" xmlns:xlink="http://www.w3.org/1999/xlink" x="0px" y="0px"
	 viewBox="0 0 500.5 509" style="enable-background:new 0 0 500.5 509;" xml:space="preserve">
<style type="text/css">
	.st0{fill:#F8E9CB;}
	.st1{fill:#C7E3EE;}
	.st2{fill:#EFC6E1;}
	.st3{fill:#211F1B;}
</style>
<g id="farbe">
	<path class="st0" d="M459.8,212.89c-4.93,0.44-9.85,0.87-14.78,1.31c-2.41,0.21-4.81,0.46-7.22,0.73c-2.5,0.28-4.95,0.82-7.45,1.11
		c-0.38,0.04-0.62,0.27-0.75,0.56c-0.17-0.03-0.35-0.03-0.54,0.05c-29.9,12.17-59.17,25.87-88.63,39.04
		c-29.4,13.14-58.81,26.24-88.08,39.66c-8.16,3.74-16.36,7.43-24.46,11.3c-7.99,3.82-16.16,7.45-23.94,11.7
		c-0.42-0.24-0.94-0.31-1.52-0.04c-5.51,2.58-11.17,4.85-16.84,7.08c-2.58,1.01-5.16,2.02-7.68,3.14c-1.42,0.63-2.82,1.29-4.22,1.97
		c-1.56,0.76-3.35,1.45-4.52,2.78c-0.53,0.61-0.63,1.33-0.42,1.93c-1.22,0.41-2.43,0.83-3.61,1.33c-1.23,0.52-2.46,1.03-3.69,1.55
		c-0.97,0.41-1.94,0.82-2.9,1.25c-0.54,0.24-1.03,0.46-1.51,0.82c-0.17,0.13-0.34,0.25-0.5,0.39c-0.21,0.19-0.35,0.41-0.47,0.64
		c-0.03,0.03-0.06,0.05-0.08,0.08c-2.56,3.9-2.35,9.2-1,13.48c0.91,2.89,2.1,5.43,4.6,7.27c1.07,0.79,2.38,1.46,3.67,1.77
		c0.77,0.18,1.5,0.25,2.28,0.24c0.43-0.01,0.81-0.09,1.17-0.22c0.29,0.19,0.66,0.28,1.1,0.17c2.6-0.67,5.07-2.2,7.3-3.67
		c1.02-0.67,1.57-1.08,2.67-1.73c0.94-0.55,1.91-1.04,2.89-1.52c0.33,0.17,0.73,0.24,1.22,0.11c2.72-0.74,5.34-2.17,7.94-3.24
		c2.54-1.06,5.1-2.1,7.65-3.14c5.22-2.13,10.28-4.47,15.31-7.01c1.1-0.55,0.71-1.82-0.17-2.15c15.5-7.57,31.31-14.42,47.15-21.23
		c15.23-6.55,30.33-13.42,45.45-20.22c29.03-13.05,58-26.23,86.94-39.5c15.5-7.11,30.91-14.31,45.98-22.3
		c0.19-0.02,0.39-0.07,0.59-0.17c2.45-1.23,4.66-3.09,6.76-4.84c2.01-1.68,3.95-3.45,5.81-5.3c3.82-3.82,7.29-8,10.38-12.44
		C462.65,214.22,461.24,212.76,459.8,212.89z"/>
	<path class="st1" d="M453.42,186.99c-4.9-0.68-9.8-1.35-14.7-2.03c-2.4-0.33-4.8-0.63-7.2-0.91c-2.5-0.29-5.01-0.31-7.51-0.58
		c-0.38-0.04-0.66,0.13-0.86,0.38c-0.16-0.07-0.33-0.1-0.54-0.07c-31.86,5.17-63.45,11.98-95.12,18.23
		c-31.59,6.23-63.19,12.42-94.71,18.96c-8.79,1.82-17.6,3.58-26.37,5.54c-8.64,1.93-17.42,3.65-25.95,6.05
		c-0.35-0.32-0.85-0.51-1.48-0.38c-5.95,1.29-11.98,2.23-17.99,3.13c-2.74,0.41-5.48,0.81-8.19,1.34c-1.52,0.3-3.04,0.62-4.55,0.97
		c-1.7,0.39-3.59,0.67-5.03,1.7c-0.66,0.47-0.91,1.16-0.84,1.78c-1.28,0.13-2.56,0.26-3.82,0.49c-1.31,0.23-2.63,0.46-3.94,0.69
		c-1.04,0.18-2.07,0.37-3.1,0.57c-0.58,0.11-1.11,0.22-1.65,0.47c-0.19,0.09-0.39,0.17-0.57,0.27c-0.25,0.14-0.43,0.32-0.6,0.52
		c-0.03,0.03-0.07,0.03-0.1,0.06c-3.37,3.23-4.34,8.44-3.99,12.91c0.24,3.02,0.83,5.76,2.86,8.11c0.87,1.01,1.99,1.96,3.18,2.55
		c0.71,0.35,1.41,0.58,2.17,0.75c0.42,0.09,0.81,0.09,1.19,0.05c0.24,0.25,0.58,0.42,1.04,0.41c2.68-0.07,5.44-1.01,7.93-1.94
		c1.14-0.43,1.77-0.7,2.99-1.09c1.04-0.33,2.09-0.59,3.15-0.83c0.28,0.24,0.66,0.4,1.16,0.38c2.81-0.12,5.69-0.92,8.47-1.39
		c2.72-0.46,5.44-0.9,8.16-1.35c5.57-0.91,11.02-2.05,16.49-3.41c1.19-0.3,1.1-1.61,0.31-2.14c16.8-3.91,33.74-7.06,50.7-10.15
		c16.31-2.98,32.56-6.3,48.82-9.54c31.21-6.23,62.4-12.6,93.57-19.06c16.7-3.46,33.33-7.04,49.8-11.46c0.19,0.02,0.4,0.02,0.62-0.03
		c2.66-0.65,5.24-1.97,7.68-3.21c2.34-1.19,4.62-2.48,6.85-3.87c4.58-2.87,8.9-6.16,12.89-9.8
		C455.9,188.92,454.85,187.19,453.42,186.99z"/>
	<path class="st2" d="M358.24,135.82c-4.63-1.73-9.26-3.46-13.9-5.19c-2.27-0.85-4.54-1.66-6.83-2.46c-2.38-0.83-4.82-1.4-7.2-2.21
		c-0.36-0.12-0.68-0.02-0.92,0.18c-0.14-0.1-0.3-0.18-0.51-0.19c-32.22-1.93-64.54-2.19-96.8-3.03
		c-32.19-0.83-64.37-1.71-96.57-2.23c-8.98-0.14-17.96-0.36-26.94-0.36c-8.86-0.01-17.79-0.25-26.64,0.22
		c-0.27-0.39-0.71-0.68-1.36-0.69c-6.09-0.05-12.17-0.44-18.24-0.88c-2.76-0.2-5.52-0.41-8.29-0.48c-1.55-0.04-3.1-0.06-4.66-0.05
		c-1.74,0.01-3.65-0.14-5.28,0.56c-0.74,0.32-1.14,0.93-1.21,1.56c-1.28-0.15-2.55-0.3-3.83-0.36c-1.33-0.06-2.66-0.13-3.99-0.19
		c-1.05-0.05-2.1-0.1-3.15-0.13c-0.59-0.02-1.13-0.03-1.72,0.09c-0.2,0.04-0.42,0.08-0.62,0.14c-0.27,0.08-0.49,0.22-0.7,0.38
		c-0.04,0.02-0.07,0.02-0.11,0.04c-4,2.41-6.09,7.29-6.72,11.73c-0.43,3-0.45,5.8,1.02,8.54c0.63,1.17,1.51,2.35,2.55,3.19
		c0.62,0.5,1.25,0.88,1.95,1.2c0.39,0.18,0.77,0.27,1.15,0.31c0.18,0.3,0.48,0.54,0.92,0.63c2.63,0.52,5.53,0.21,8.17-0.16
		c1.21-0.17,1.88-0.29,3.15-0.41c1.08-0.09,2.17-0.12,3.26-0.12c0.22,0.3,0.55,0.54,1.05,0.62c2.77,0.5,5.76,0.35,8.57,0.5
		c2.75,0.15,5.5,0.31,8.25,0.47c5.63,0.33,11.2,0.41,16.84,0.28c1.23-0.03,1.42-1.33,0.77-2.02c17.25-0.14,34.46,0.5,51.7,1.19
		c16.57,0.66,33.15,0.98,49.72,1.37c31.82,0.75,63.65,1.36,95.47,1.88c17.05,0.27,34.06,0.42,51.1-0.28
		c0.18,0.06,0.38,0.11,0.61,0.1c2.74-0.05,5.54-0.78,8.19-1.45c2.54-0.65,5.05-1.4,7.53-2.28c5.1-1.8,10.03-4.07,14.73-6.74
		C360.24,138.25,359.59,136.33,358.24,135.82z"/>
</g>
<g id="ol">
	<path class="st3" d="M461.79,206.65c-4.93,0.44-9.86,0.87-14.79,1.31c-2.47,0.22-4.93,0.47-7.39,0.75
		c-2.48,0.27-4.92,0.82-7.39,1.1c-0.28,0.03-0.49,0.16-0.66,0.31c-0.64-0.23-1.43-0.01-1.69,0.67
		c-29.59,12.09-58.58,25.64-87.76,38.68c-29.49,13.18-58.99,26.31-88.34,39.78c-8.29,3.8-16.62,7.55-24.85,11.48
		c-7.81,3.74-15.8,7.28-23.41,11.42c-0.44-0.22-0.99-0.27-1.56,0c-5.45,2.56-11.06,4.8-16.67,7c-2.67,1.05-5.34,2.1-7.96,3.27
		c-1.43,0.64-2.85,1.3-4.26,1.99c-1.54,0.75-3.2,1.41-4.36,2.73c-0.42,0.48-0.52,1.22-0.35,1.85c-0.33,0.12-0.67,0.23-1,0.35
		c-0.75,0.26-1.77,0.64-2.26,0.85c-1.23,0.52-2.46,1.03-3.68,1.55c-1.09,0.46-2.18,0.92-3.26,1.4c-0.93,0.41-1.93,0.9-2.44,1.82
		c-0.05,0.06-0.09,0.11-0.14,0.17c-2.78,4.25-2.22,10.04-0.57,14.58c0.98,2.71,2.34,4.91,4.8,6.49c1.06,0.69,2.29,1.24,3.54,1.48
		c0.65,0.13,1.3,0.15,1.97,0.14c0.42-0.01,0.78-0.1,1.12-0.23c0.31,0.19,0.69,0.27,1.11,0.16c1.57-0.4,3.14-1.24,4.56-2.01
		c0.94-0.51,1.84-1.09,2.73-1.68c1.76-1.16,3.54-2.23,5.41-3.16c0.1,0.01,0.2,0.01,0.31,0.01c0.32,0.12,0.68,0.14,1.08,0.04
		c1.39-0.36,2.73-1.09,4.06-1.65c1.3-0.55,2.6-1.09,3.9-1.63c2.54-1.05,5.09-2.09,7.63-3.13c5.21-2.12,10.26-4.46,15.28-7
		c0.93-0.47,0.64-1.8-0.14-2.18c15.44-7.54,31.2-14.37,46.99-21.16c15.4-6.62,30.66-13.57,45.95-20.44
		c14.67-6.6,29.34-13.19,43.98-19.86c14.22-6.49,28.44-12.98,42.65-19.5c13.91-6.38,27.88-12.68,41.4-19.86
		c1.45-0.77,2.91-1.55,4.36-2.32c0.7,0.25,1.59-0.22,1.94-0.82c0.03-0.05,0.05-0.1,0.07-0.15c1.9-1.15,3.65-2.63,5.34-4.03
		c2.07-1.72,4.07-3.53,5.97-5.44c3.82-3.82,7.27-8,10.34-12.44C464.08,208.28,463.1,206.53,461.79,206.65z M455.48,213.68
		c-0.04-0.01-0.08-0.02-0.12-0.03c-0.1-0.04-0.2-0.06-0.3-0.09c-0.08-0.04-0.15-0.09-0.23-0.13c-0.08-0.07-0.16-0.15-0.23-0.24
		c-0.06-0.09-0.12-0.19-0.17-0.29c-0.03-0.08-0.05-0.17-0.07-0.26c0-0.05,0-0.09,0-0.14c0.01-0.04,0.02-0.08,0.03-0.11
		c0.01-0.01,0.01-0.02,0.01-0.03c0.26-0.42,0.33-1.02,0.2-1.49c0-0.01-0.01-0.03-0.02-0.04c1.15-0.09,2.29-0.19,3.44-0.28
		C457.2,211.61,456.35,212.66,455.48,213.68z M175.44,351.43c-0.89,0.56-1.79,1.12-2.73,1.61c-1.2,0.63-2.49,1.08-3.72,1.66
		c-0.34-0.21-0.66-0.42-1.06-0.53c-0.51-0.15-0.99-0.31-1.5-0.48c-0.83-0.28-1.65-0.57-2.41-1.02c-1.84-1.09-2.71-2.76-3.41-4.72
		c-1.14-3.18-2.07-7.21-0.62-10.45c0.71-0.13,1.38-0.45,2.09-0.78c0.95-0.45,1.91-0.88,2.87-1.31c1.22-0.54,2.44-1.08,3.65-1.62
		c1.06-0.47,2.08-1.02,3.1-1.57c-0.21,3.48,0.74,7.02,2.18,10.19c0.96,2.11,2.29,4.09,3.91,5.74c0.39,0.39,0.88,0.86,1.43,1.3
		C177.93,350.02,176.66,350.66,175.44,351.43z M192.58,343.25c-0.94-0.54-1.93-1.04-2.73-1.73c-1.07-0.93-1.92-2.01-2.59-3.27
		c-1.28-2.42-1.76-5.2-1-7.86c0.45-1.59-1.9-2.19-2.44-0.67c-1.17,3.28-0.79,7.01,0.79,10.08c0.92,1.8,2.42,3.71,4.24,4.97
		c-0.8,0.33-1.61,0.66-2.41,0.99c-1.01,0.42-2.12,0.8-3.13,1.28c-0.12-0.1-0.25-0.2-0.38-0.31c-0.8-0.67-1.26-0.9-2.03-1.68
		c-1.34-1.36-2.36-2.94-3.25-4.69c-1.66-3.27-2.64-7.41-1.88-11.06c0.03-0.17,0.04-0.32,0.04-0.47c0.34-0.16,0.67-0.33,1.02-0.5
		c1.43-0.68,2.87-1.34,4.32-1.97c2.59-1.13,5.19-2.21,7.8-3.28c4.69-1.92,9.27-3.92,13.72-6.3c-0.7,3.27-0.45,6.58,0.62,9.8
		c0.59,1.77,1.39,3.5,2.44,5.05c1,1.5,2.42,3.48,4.09,4.28c0.87,0.42,1.68,0.26,2.23-0.2c0.06,0.03,0.12,0.06,0.18,0.08
		c-3.76,1.33-7.51,2.67-11.23,4.1c-2.01-1.46-3.69-3.2-4.66-5.57c-1.06-2.59-1.34-5.39-0.5-8.08c0.44-1.42-1.68-1.94-2.19-0.6
		c-1.18,3.08-1.13,6.67,0.1,9.73c0.88,2.19,2.26,4.26,4.1,5.75c-0.02,0.01-0.03,0.01-0.05,0.02
		C196.06,341.85,194.32,342.55,192.58,343.25z M397.34,247.88c-14.24,6.51-28.5,12.99-42.76,19.46
		c-14.58,6.62-29.15,13.27-43.72,19.92c-15.08,6.89-30.15,13.79-45.19,20.77c-15.69,7.27-31.2,14.89-47.06,21.8
		c-2.08,0.9-4.19,1.71-6.28,2.58c-0.1,0.04-0.18,0.09-0.27,0.14c-0.45-0.49-1-0.91-1.45-1.39c-0.48-0.52-0.92-1.04-1.32-1.61
		c-0.89-1.29-1.63-2.69-2.15-4.17c-1-2.87-1.43-6.25-0.85-9.25c0.1-0.52-0.01-0.97-0.24-1.31c0.24-0.24,0.39-0.51,0.44-0.8
		c7.06-2.73,13.95-5.98,20.89-9c7.47-3.25,14.89-6.61,22.33-9.93c14.69-6.55,29.39-13.09,44.09-19.62
		c29.52-13.12,58.99-26.34,88.41-39.67c16.04-7.26,31.98-14.7,47.63-22.78c0.18,3.67,0.79,7.27,2.22,10.69
		c0.72,1.72,1.75,3.24,2.96,4.66c0.64,0.75,1.37,1.56,2.18,2.26C423.75,236.02,410.52,241.86,397.34,247.88z M444.54,224.43
		c-1.5,1.23-3.11,2.35-4.63,3.57c-0.19-0.15-0.38-0.29-0.55-0.45c-0.62-0.55-1.22-1.13-1.77-1.75c-1.02-1.14-1.89-2.45-2.61-3.8
		c-1.62-3.01-2.21-6.51-2.49-9.89c2.37-0.11,4.74-0.01,7.12-0.15c2.47-0.15,4.93-0.31,7.39-0.51c1.24-0.1,2.48-0.2,3.72-0.3
		c-0.43,1.22-0.25,2.58,0.35,3.73c0.18,0.34,0.43,0.65,0.67,0.95c0.15,0.18,0.32,0.35,0.51,0.5c0.17,0.14,0.34,0.27,0.52,0.39
		c-0.83,0.89-1.67,1.76-2.54,2.61C448.41,221.11,446.51,222.81,444.54,224.43z"/>
	<path class="st3" d="M430.63,227.11c-28.53,12.06-56.77,24.81-85.06,37.41c-28.28,12.59-56.56,25.18-84.8,37.86
		c-15.94,7.15-32.03,14-47.85,21.4c-0.45,0.21-0.12,1.01,0.34,0.81c14.31-6.01,28.41-12.53,42.63-18.76
		c14.19-6.22,28.39-12.4,42.55-18.67c28.32-12.52,56.65-25.04,84.96-37.59c15.97-7.08,31.93-14.18,47.77-21.54
		C431.81,227.75,431.26,226.85,430.63,227.11z"/>
	<path class="st3" d="M153.28,259.8c1.45-0.04,2.91-0.43,4.34-0.68c1.39-0.25,2.79-0.49,4.19-0.72c2.71-0.46,5.43-0.9,8.14-1.35
		c5.55-0.91,10.99-2.05,16.45-3.4c1-0.25,1.08-1.63,0.42-2.16c16.71-3.89,33.57-7.02,50.45-10.1c16.49-3.01,32.91-6.36,49.35-9.64
		c15.77-3.15,31.55-6.3,47.3-9.53c15.31-3.14,30.63-6.29,45.93-9.47c14.99-3.11,30.03-6.13,44.82-10.11
		c1.62-0.44,3.25-0.87,4.87-1.31c0.37,0.18,0.79,0.28,1.19,0.12c0.37-0.15,0.66-0.31,0.89-0.59c2.07-0.68,4.08-1.7,6.01-2.67
		c2.44-1.22,4.82-2.56,7.13-4.01c4.57-2.87,8.88-6.16,12.87-9.8c0.91-0.83,0.55-2.81-0.79-3c-4.98-0.69-9.97-1.38-14.95-2.06
		c-2.44-0.34-4.88-0.64-7.32-0.92c-2.53-0.29-5.07-0.32-7.59-0.6c-0.23-0.03-0.41,0.04-0.58,0.14c-0.57-0.34-1.33-0.29-1.69,0.32
		c-31.68,5.18-63.1,11.94-94.59,18.15c-31.69,6.25-63.38,12.46-95.01,19.02c-8.77,1.82-17.57,3.57-26.31,5.54
		c-8.45,1.9-17.04,3.56-25.38,5.91c-0.37-0.32-0.88-0.49-1.5-0.35c-5.94,1.29-11.96,2.23-17.97,3.13c-2.78,0.42-5.56,0.82-8.31,1.37
		c-1.54,0.3-3.07,0.63-4.6,0.99c-1.67,0.39-3.47,0.66-4.88,1.68c-0.66,0.48-0.88,1.14-0.8,1.75c-1.25,0.13-2.5,0.26-3.73,0.48
		c-1.34,0.24-2.69,0.47-4.03,0.7c-1.03,0.18-2.07,0.36-3.09,0.56c-1.01,0.2-1.87,0.46-2.58,1.08c-0.12,0.07-0.24,0.15-0.36,0.26
		c-3.59,3.45-4.41,9.04-3.89,13.77c0.33,2.93,1.08,5.5,3.18,7.67c0.87,0.9,1.91,1.72,3.06,2.24c1.05,0.48,2.03,0.72,3.08,0.63
		c0.25,0.27,0.6,0.45,1.07,0.44c2.68-0.07,5.45-1.02,7.94-1.95c1.99-0.75,3.97-1.39,6.02-1.88c0.07,0.03,0.15,0.04,0.22,0.06
		C152.49,259.7,152.84,259.81,153.28,259.8z M448.64,186.58c-0.06-0.06-0.12-0.12-0.18-0.18c-0.07-0.1-0.13-0.2-0.18-0.31
		c-0.04-0.11-0.07-0.23-0.09-0.34c0-0.08,0-0.15,0-0.23c0.01-0.04,0.02-0.08,0.03-0.11c0.03-0.05,0.06-0.1,0.09-0.15
		c0.31-0.35,0.51-0.83,0.51-1.3c0-0.05-0.01-0.09-0.01-0.14c1.14,0.17,2.28,0.33,3.43,0.5c-1.04,0.86-2.11,1.69-3.19,2.5
		C448.89,186.73,448.76,186.66,448.64,186.58z M441.19,182.71c1.26,0.18,2.52,0.36,3.78,0.55c-0.08,0.12-0.16,0.24-0.22,0.37
		c-0.26,0.58-0.38,1.03-0.45,1.66c-0.09,0.88,0.15,1.73,0.5,2.53c0.22,0.5,0.55,0.94,0.93,1.32c-0.99,0.67-2,1.32-3.02,1.95
		c-2.14,1.32-4.34,2.54-6.59,3.66c-1.77,0.88-3.62,1.63-5.41,2.49c-0.63-0.84-1.28-1.66-1.79-2.59c-0.74-1.34-1.3-2.8-1.71-4.28
		c-0.92-3.31-0.73-6.88-0.23-10.26c2.32,0.42,4.58,1.05,6.91,1.43C436.31,181.96,438.75,182.35,441.19,182.71z M230.22,220.15
		c15.78-3.1,31.57-6.19,47.35-9.27c31.7-6.19,63.38-12.49,95.04-18.89c17.28-3.5,34.51-7.19,51.58-11.57
		c-0.63,3.55-0.87,7.14-0.27,10.72c0.3,1.8,0.91,3.48,1.73,5.11c0.48,0.95,1.06,2.03,1.75,2.98c-14.43,2.26-28.73,5.02-43.04,7.96
		c-15.34,3.16-30.69,6.29-46.04,9.41c-15.7,3.19-31.39,6.41-47.08,9.64c-16.25,3.34-32.49,6.71-48.72,10.14
		c-16.93,3.58-33.77,7.54-50.78,10.72c-2.18,0.41-4.38,0.71-6.57,1.08c-0.65-1.18-1.5-2.23-2.02-3.51
		c-0.58-1.41-0.98-2.95-1.15-4.46c-0.34-3.01-0.02-6.46,1.21-9.25c0.22-0.49,0.2-0.97,0.05-1.38c0.29-0.18,0.49-0.42,0.61-0.69
		c7.49-1.08,14.93-2.7,22.36-4.09C214.24,223.33,222.23,221.72,230.22,220.15z M152.17,236.17c1.53-0.34,3.07-0.65,4.62-0.94
		c2.76-0.51,5.52-0.98,8.29-1.44c4.9-0.8,9.72-1.73,14.49-3.03c-1.39,3.01-1.92,6.26-1.59,9.61c0.19,1.9,0.56,3.77,1.25,5.55
		c0.65,1.68,1.55,3.87,2.98,5.04c0.74,0.61,1.61,0.64,2.28,0.32c0.06,0.05,0.12,0.1,0.19,0.15c-3.98,0.46-7.95,0.92-11.91,1.48
		c-1.66-1.92-2.88-3.99-3.31-6.56c-0.45-2.69-0.06-5.49,1.31-7.86c0.74-1.28-1.15-2.35-1.96-1.15c-1.89,2.82-2.58,6.31-2.08,9.64
		c0.34,2.27,1.24,4.58,2.68,6.42c0,0,0,0,0,0c-1.87,0.29-3.73,0.59-5.6,0.89c-0.8-0.74-1.65-1.44-2.3-2.33
		c-0.81-1.11-1.39-2.35-1.74-3.67c-0.71-2.65-0.59-5.47,0.75-7.91c0.79-1.43-1.31-2.65-2.19-1.28c-1.87,2.93-2.37,6.65-1.52,10
		c0.5,1.95,1.52,4.18,3.02,5.83c-0.84,0.14-1.67,0.27-2.51,0.41c-1.08,0.18-2.24,0.3-3.34,0.54c-0.62-0.85-1.44-1.62-1.94-2.43
		c-1-1.63-1.64-3.36-2.11-5.23c-0.89-3.56-0.98-7.83,0.59-11.23c0.07-0.16,0.12-0.32,0.15-0.47
		C151.17,236.41,151.67,236.28,152.17,236.17z M145.33,258.42c-0.98,0.34-1.97,0.68-2.97,0.95c-1.36,0.36-2.78,0.51-4.15,0.82
		c-0.67-0.54-1.34-1.02-2.09-1.5c-0.82-0.53-1.63-1-2.33-1.69c-1.53-1.51-1.98-3.39-2.21-5.47c-0.36-3.28-0.34-7.37,1.76-10.13
		c0.7,0.03,1.4-0.1,2.16-0.27c1.02-0.22,2.04-0.42,3.06-0.62c1.29-0.25,2.58-0.5,3.88-0.76c1.18-0.23,2.35-0.55,3.51-0.88
		c-0.98,3.33-0.89,6.97-0.19,10.37c0.46,2.25,1.29,4.47,2.49,6.44c0.3,0.49,0.69,1.09,1.16,1.68
		C148.04,257.61,146.68,257.95,145.33,258.42z"/>
	<path class="st3" d="M188.24,240.72c15.25-2.65,30.42-5.85,45.63-8.73c15.22-2.89,30.44-5.74,45.64-8.68
		c30.4-5.87,60.81-11.73,91.21-17.63c17.15-3.33,34.3-6.68,51.39-10.32c0.68-0.15,0.39-1.16-0.29-1.04
		c-30.5,5.37-60.87,11.49-91.26,17.43c-30.38,5.94-60.76,11.9-91.12,17.94c-17.14,3.41-34.35,6.49-51.43,10.16
		C187.44,239.99,187.69,240.82,188.24,240.72z"/>
	<path class="st3" d="M135.33,141.6c16.74,0.67,33.5,0.99,50.25,1.39c16.08,0.38,32.16,0.76,48.24,1.06
		c15.63,0.29,31.26,0.56,46.89,0.81c15.32,0.25,30.67,0.59,45.98-0.06c1.7-0.07,3.4-0.14,5.1-0.22c0.63,0.48,1.53,0.48,2.14,0
		c2.18-0.22,4.37-0.76,6.48-1.29c2.62-0.66,5.2-1.43,7.74-2.33c5.09-1.8,10.02-4.05,14.72-6.73c1.43-0.82,0.95-2.76-0.43-3.28
		c-4.63-1.73-9.27-3.46-13.9-5.2c-2.32-0.87-4.64-1.7-6.97-2.51c-2.33-0.82-4.73-1.37-7.07-2.17c-0.23-0.08-0.43-0.08-0.6-0.05
		c-0.51-0.39-1.29-0.48-1.76-0.02c-31.95-1.88-63.99-2.15-95.99-2.98c-32.23-0.83-64.45-1.71-96.68-2.23
		c-9.11-0.15-18.22-0.36-27.33-0.36c-8.65,0-17.38-0.25-26.03,0.21c-0.27-0.39-0.71-0.67-1.36-0.68
		c-6.13-0.04-12.27-0.45-18.39-0.89c-2.87-0.21-5.75-0.42-8.63-0.48c-1.51-0.04-3.01-0.05-4.52-0.03c-1.88,0.02-3.62-0.02-5.37,0.73
		c-0.64,0.27-0.88,0.81-0.86,1.37c-1.23-0.15-2.47-0.29-3.71-0.35c-1.35-0.06-2.71-0.13-4.06-0.2c-1.04-0.05-2.08-0.1-3.13-0.12
		c-1-0.03-1.92,0.03-2.76,0.46c-0.12,0.04-0.25,0.09-0.38,0.17c-4.14,2.51-6.16,7.48-6.78,12.07c-0.4,2.94-0.36,5.69,1.13,8.34
		c0.67,1.2,1.57,2.33,2.65,3.18c0.91,0.72,1.82,1.18,2.88,1.34c0.17,0.31,0.46,0.56,0.93,0.65c2.73,0.54,5.69,0.2,8.42-0.18
		c0.99-0.14,1.77-0.27,2.91-0.37c1.06-0.09,2.11-0.12,3.17-0.12c0.12,0.07,0.23,0.14,0.36,0.19c0.21,0.21,0.46,0.36,0.76,0.42
		c2.77,0.54,5.8,0.37,8.62,0.52c2.75,0.15,5.49,0.31,8.24,0.47c5.63,0.33,11.2,0.41,16.83,0.28c1.22-0.03,1.45-1.34,0.81-2.02
		C101.03,140.27,118.17,140.91,135.33,141.6z M353.78,134.5c0.04,0.03,0.08,0.06,0.12,0.09c-0.11-0.08-0.19-0.18-0.28-0.28
		c-0.05-0.07-0.09-0.15-0.13-0.23c-0.04-0.13-0.08-0.27-0.11-0.41c0-0.07,0-0.13,0-0.2c0.02-0.09,0.05-0.19,0.07-0.28
		c0.02-0.03,0.03-0.06,0.05-0.09c0.05-0.05,0.09-0.1,0.15-0.15c0.34-0.26,0.61-0.61,0.73-1.03c0.02-0.07,0.03-0.15,0.04-0.23
		c1.08,0.41,2.15,0.82,3.23,1.23c-1.2,0.61-2.42,1.19-3.65,1.74C353.93,134.61,353.86,134.56,353.78,134.5z M340.69,126.37
		c2.3,0.93,4.6,1.85,6.91,2.73c1.07,0.41,2.15,0.82,3.22,1.23c-0.95,0.95-1.45,2.3-1.29,3.67c0.09,0.79,0.29,1.57,0.72,2.24
		c-1.09,0.43-2.19,0.84-3.3,1.22c-2.41,0.82-4.86,1.54-7.33,2.15c-1.93,0.47-3.9,0.79-5.84,1.25c-1.02-2.38-1.73-4.76-1.86-7.39
		c-0.17-3.48,0.79-6.91,2.02-10.15C336.22,124.27,338.4,125.44,340.69,126.37z M109.14,118.67c8.12,0.29,16.24,0.46,24.36,0.67
		c16.04,0.43,32.08,0.87,48.12,1.32c32.22,0.9,64.45,1.68,96.68,2.36c17.62,0.37,35.24,0.54,52.86-0.01
		c-2.27,5.45-3.58,11.28-1.67,17.07c0.19,0.58,0.41,1.29,0.67,1.98c-14.53-0.95-29.06-1.38-43.63-1.63
		c-15.66-0.28-31.32-0.58-46.98-0.89c-16.02-0.32-32.03-0.61-48.05-0.89c-16.59-0.29-33.18-0.56-49.77-0.76
		c-17.31-0.21-34.61-0.03-51.92-0.65c-2.24-0.08-4.48-0.27-6.72-0.39c0,0,0,0,0,0c-0.2-0.57-0.47-1.12-0.65-1.69
		c-0.24-0.79-0.44-1.59-0.58-2.41c-0.26-1.52-0.25-3.13-0.08-4.67c0.34-3.07,1.56-6.27,3.39-8.75c0.27-0.37,0.33-0.76,0.25-1.12
		c0.22-0.11,0.41-0.27,0.55-0.45C93.68,118.36,101.44,118.4,109.14,118.67z M81.76,139.77c0.03,0.04,0.06,0.08,0.09,0.12
		c-0.22-0.02-0.44-0.05-0.67-0.07C81.38,139.82,81.57,139.81,81.76,139.77z M41.99,138.11c-1.02,0.12-2.05,0.23-3.08,0.27
		c-1.42,0.05-2.84-0.12-4.26-0.11c-0.55-0.7-1.11-1.33-1.77-1.98c-0.74-0.73-1.46-1.45-1.99-2.35c-1.12-1.89-1.01-3.95-0.75-6.07
		c0.39-3.11,1.37-6.91,3.91-9.01c0.61,0.17,1.25,0.21,1.95,0.21c1.07,0.01,2.13,0.03,3.2,0.06c1.32,0.03,2.63,0.07,3.95,0.11
		c1.24,0.03,2.49-0.02,3.73-0.09c-1.67,3.01-2.4,6.53-2.46,9.98c-0.04,2.32,0.27,4.71,1.02,6.91c0.18,0.54,0.44,1.22,0.77,1.91
		C44.81,137.91,43.41,137.94,41.99,138.11z M69.97,138.73c-1.19-2.21-1.93-4.47-1.79-7.05c0.14-2.73,1.1-5.4,2.97-7.42
		c0.99-1.07-0.54-2.62-1.61-1.61c-2.45,2.32-3.91,5.56-4.17,8.91c-0.18,2.29,0.19,4.78,1.2,6.91c-0.04,0-0.09-0.01-0.13-0.01
		c-1.84-0.12-3.68-0.23-5.53-0.35c-0.63-0.92-1.31-1.8-1.76-2.84c-0.52-1.2-0.81-2.52-0.87-3.82c-0.12-2.74,0.58-5.51,2.42-7.6
		c1.07-1.21-0.62-2.95-1.79-1.79c-2.45,2.44-3.8,5.93-3.7,9.39c0.06,2.02,0.56,4.45,1.66,6.41c-0.81-0.05-1.62-0.09-2.43-0.14
		c-1.14-0.06-2.33-0.21-3.48-0.21c-0.41-0.96-1.03-1.87-1.34-2.77c-0.63-1.85-0.88-3.68-0.92-5.62c-0.07-3.87,0.88-7.99,3.26-11.1
		c0.03-0.04,0.05-0.08,0.08-0.13c0.46-0.01,0.92-0.03,1.38-0.02c1.57,0,3.14,0.04,4.71,0.1c2.8,0.11,5.61,0.25,8.41,0.41
		c4.99,0.29,9.93,0.44,14.9,0.21c-0.89,1.13-1.67,2.36-2.23,3.69c-0.75,1.81-1.21,3.69-1.45,5.64c-0.24,1.93-0.19,3.85,0.1,5.77
		c0.28,1.9,0.82,4.01,2.02,5.54c0.23,0.3,0.6,0.47,0.98,0.54C77.23,139.4,73.61,139.02,69.97,138.73z"/>
	<path class="st3" d="M87.71,130.22c15.46,0.75,30.95,0.95,46.43,1.47c15.48,0.51,30.95,1.06,46.43,1.52
		c30.95,0.93,61.9,1.86,92.85,2.75c17.47,0.51,34.94,0.99,52.42,1.18c0.7,0.01,0.69-1.04,0-1.08c-30.93-1.44-61.9-2.11-92.85-2.96
		c-30.95-0.85-61.9-1.68-92.85-2.43c-17.47-0.42-34.94-1.19-52.42-1.34C87.14,129.33,87.14,130.2,87.71,130.22z"/>
</g>
</svg>
