<?xml version="1.0" encoding="utf-8"?>
<!-- Generator: Adobe Illustrator 26.3.1, SVG Export Plug-In . SVG Version: 6.00 Build 0)  -->
<svg version="1.1" id="Regenbogen" xmlns="http://www.w3.org/2000/svg" xmlns:xlink="http://www.w3.org/1999/xlink" x="0px" y="0px"
	 viewBox="0 0 500.5 509" style="enable-background:new 0 0 500.5 509;" xml:space="preserve">
<style type="text/css">
	.st0{fill:#F9ECA7;}
	.st1{fill:#F4DAEB;}
	.st2{fill:#C4C4E4;}
	.st3{fill:#FFFFFF;}
	.st4{fill:#211F1B;}
</style>
<g id="FaRBE">
	<path class="st0" d="M425.3,313.27c-6.02-2.6-12.27-3-18.52-2.4c5.82-42.4,7.97-87.85-11.66-127.19
		c-16.35-32.77-46.39-57.42-80.33-70.32c-36.45-13.86-76.79-12.85-113.32,0.21c-38.21,13.65-71.16,39.25-95.05,71.9
		c-24.41,33.35-39.63,73.39-45.15,114.26c-0.69,5.12-1.09,10.28-1.5,15.43c-0.07,0.9,0.45,1.39,1.1,1.54
		c-6.95,2.68-12.98,7.65-16.37,14.56c-7.4,15.08-0.44,34.99,14.68,42.26c1.25,0.6,2.44,0.27,3.26-0.47
		c7.33,3.41,16.16,4.4,23.82,5.12c15.19,1.42,30.55,1.12,45.78,0.53c7.14-0.27,14.28-0.65,21.42-1.07
		c8.79-0.52,17.68-0.98,26.2-3.39c14.91-4.23,29.87-16.2,28.53-33.23c-0.62-7.83-4.77-15.23-12.2-18.37
		c-5.19-2.19-11.18-2.12-16.13,0.3c7.01-26.96,19.88-55.73,45.52-69.42c11.81-6.31,25.87-9.26,39.07-6.14
		c13.35,3.15,24.4,12.36,31.86,23.64c9.05,13.69,12.69,29.84,14.5,45.95c-7.84-2.7-17.29,1.46-22.49,8.23
		c-6.69,8.71-7.64,20.82-3.56,30.87c4.61,11.38,14.87,17.65,26.62,19.86c13.85,2.6,28.61,2.3,42.65,2.02
		c7.28-0.15,14.58-0.55,21.83-1.28c7.25-0.73,14.31-2.08,21.45-3.33c0.54,1.06,1.68,1.79,3.23,1.38
		c9.18-2.43,18.95-4.59,26.46-10.75c6.21-5.09,10.46-13.2,12.13-20.98C441.51,331.81,436.23,317.99,425.3,313.27z"/>
	<path class="st1" d="M425.3,313.27c-9.91-4.29-20.44-2.65-30.59-0.29c-3.06-5.92-10.22-8.9-16.6-6.99
		c-1.96-2.83-4.29-5.35-6.91-7.52c2.88-29.04-2.27-59.27-16.34-84.97c-12.64-23.09-32.88-42.1-57.22-52.34
		c-52.88-22.24-111.1,5.5-143.34,49.12c-18.12,24.51-30.61,52.98-39.46,82.01c-6.54,3.23-12.35,7.95-16.74,13.86
		c-7.21-2.74-14.92,2.33-15.73,9.6c-14.15-4.27-31.17,1.85-37.88,15.51c-7.4,15.08-0.44,34.99,14.68,42.26
		c1.25,0.6,2.44,0.27,3.26-0.47c7.33,3.41,16.16,4.4,23.82,5.12c15.19,1.42,30.55,1.12,45.78,0.53c7.14-0.27,14.28-0.65,21.42-1.07
		c8.79-0.52,17.68-0.98,26.2-3.39c14.91-4.23,29.87-16.2,28.53-33.23c-0.62-7.83-4.77-15.23-12.2-18.37
		c-5.19-2.19-11.18-2.12-16.13,0.3c7.01-26.96,19.88-55.73,45.52-69.42c11.81-6.31,25.87-9.26,39.07-6.14
		c13.35,3.15,24.4,12.36,31.86,23.64c9.05,13.69,12.69,29.84,14.5,45.95c-7.84-2.7-17.29,1.46-22.49,8.23
		c-6.69,8.71-7.64,20.82-3.56,30.87c4.61,11.38,14.87,17.65,26.62,19.86c13.85,2.6,28.61,2.3,42.65,2.02
		c7.28-0.15,14.58-0.55,21.83-1.28c7.25-0.73,14.31-2.08,21.45-3.33c0.54,1.06,1.68,1.79,3.23,1.38
		c9.18-2.43,18.95-4.59,26.46-10.75c6.21-5.09,10.46-13.2,12.13-20.98C441.51,331.81,436.23,317.99,425.3,313.27z"/>
	<path class="st2" d="M425.3,313.27c-9.91-4.29-20.44-2.65-30.59-0.29c-3.06-5.92-10.22-8.9-16.6-6.99
		c-4.04-5.82-9.61-10.38-16.16-13.18c-5.82-2.49-13.02-3.96-19.42-2.64c-2.88-37.03-24.38-72.58-59.56-86.88
		c-17.25-7.02-36.4-7.92-54.12-2.09c-17.83,5.88-33.45,17.51-45.53,31.74c-14.28,16.82-24.07,37.14-31.33,57.85
		c-2.13-0.91-4.33-1.66-6.62-2.21c-17.58-4.24-36.6,3.2-47.27,17.57c-7.21-2.74-14.92,2.33-15.73,9.6
		c-14.15-4.27-31.17,1.85-37.88,15.51c-7.4,15.08-0.44,34.99,14.68,42.26c1.25,0.6,2.44,0.27,3.26-0.47
		c7.33,3.41,16.16,4.4,23.82,5.12c15.19,1.42,30.55,1.12,45.78,0.53c7.14-0.27,14.28-0.65,21.42-1.07
		c8.79-0.52,17.68-0.98,26.2-3.39c14.91-4.23,29.87-16.2,28.53-33.23c-0.62-7.83-4.77-15.23-12.2-18.37
		c-5.19-2.19-11.18-2.12-16.13,0.3c7.01-26.96,19.88-55.73,45.52-69.42c11.81-6.31,25.87-9.26,39.07-6.14
		c13.35,3.15,24.4,12.36,31.86,23.64c9.05,13.69,12.69,29.84,14.5,45.95c-7.84-2.7-17.29,1.46-22.49,8.23
		c-6.69,8.71-7.64,20.82-3.56,30.87c4.61,11.38,14.87,17.65,26.62,19.86c13.85,2.6,28.61,2.3,42.65,2.02
		c7.28-0.15,14.58-0.55,21.83-1.28c7.25-0.73,14.31-2.08,21.45-3.33c0.54,1.06,1.68,1.79,3.23,1.38
		c9.18-2.43,18.95-4.59,26.46-10.75c6.21-5.09,10.46-13.2,12.13-20.98C441.51,331.81,436.23,317.99,425.3,313.27z"/>
	<g>
		<path class="st3" d="M196.51,321.41c-5.53-2.33-11.69-2.26-16.84,0.12c-4.39-16.93-17.57-30.27-33.99-34.23
			c-17.56-4.23-36.74,2.71-48.05,17.3c-3.48-1.03-7.2-0.53-10.37,1.4c-2.99,1.83-5.13,4.78-5.93,8.09
			c-15.02-3.8-31.49,3.29-38.02,16.58c-3.67,7.48-4.1,16.6-1.19,25.02c2.93,8.45,8.93,15.38,16.48,19c1.33,0.64,2.77,0.58,3.98-0.14
			c7.21,3.17,15.58,4.16,23.55,4.91c7.93,0.74,15.83,1.03,24.17,1.03c6.87,0,14.04-0.19,21.78-0.49c6.46-0.25,13.27-0.59,21.44-1.07
			l0.93-0.05c8.46-0.5,17.2-1.01,25.55-3.38c15.68-4.44,30.88-16.87,29.48-34.6C208.8,331.96,203.82,324.5,196.51,321.41z"/>
		<path class="st3" d="M425.83,312.07c-10.28-4.44-21.04-2.73-30.45-0.59c-3.4-5.59-10.29-8.47-16.72-6.99
			c-4.14-5.67-9.72-10.12-16.19-12.88c-8.07-3.45-16.37-4.2-22.78-2.04c-13.36,4.48-21.59,18.52-25.61,27.43
			c-9.02-5.31-20.71-0.53-26.8,7.4c-6.67,8.68-8.14,21.31-3.74,32.16c4.38,10.8,14.18,18.13,27.59,20.65
			c9.52,1.79,19.39,2.22,29.26,2.22c4.56,0,9.13-0.09,13.66-0.18c7.54-0.15,14.92-0.58,21.93-1.29c6.19-0.62,12.33-1.71,18.26-2.77
			l2.45-0.43c1,1.16,2.55,1.64,4.17,1.21l2.28-0.6c8.63-2.25,17.56-4.57,24.68-10.4c6.02-4.93,10.72-13.05,12.58-21.72
			C442.75,332.29,437.84,317.26,425.83,312.07z"/>
	</g>
</g>
<path id="ol" class="st4" d="M449.86,324.05c-0.33-1.51-0.96-2.93-1.61-4.32c-0.01-0.02-0.01-0.02-0.02-0.05
	c-0.08-0.21-0.17-0.41-0.25-0.62c-0.27-0.66-0.55-1.32-0.83-1.98c-2.17-5.04-5.71-9.18-10.8-11.45c-4.63-2.07-9.81-3.02-14.87-3.01
	c-1.4,0-2.79,0.09-4.17,0.23c2.96-21.46,4.95-43.16,3.69-64.84c-1.25-21.51-5.75-42.97-15.44-62.33
	c-8.16-16.31-19.86-30.82-33.69-42.67c-14.03-12.02-30.16-21.41-47.46-27.87c-17.41-6.5-35.96-9.84-54.55-9.79
	c-19.95,0.05-39.87,3.81-58.62,10.59c-18.88,6.83-36.66,16.61-52.6,28.82c-16.12,12.34-30.21,26.99-42.14,43.4
	c-12.13,16.69-21.84,35.03-29.36,54.22c-7.55,19.29-12.69,39.43-15.43,59.95c-0.66,4.95-1.04,9.96-1.44,14.94
	c-0.07,0.9,0.44,1.4,1.09,1.55c-3.59,1.43-6.95,3.47-9.86,6.06c-10.09,9.02-11.78,23.52-6.42,35.53c2.91,6.52,8.1,12.18,14.6,15.21
	c1.18,0.55,2.57,0.44,3.47-0.46c1.77,0.75,3.6,1.37,5.41,1.92c5.71,1.73,11.62,2.55,17.55,3.13c14.34,1.39,28.83,1.19,43.21,0.71
	c7.07-0.24,14.13-0.59,21.2-0.99c7.96-0.45,16.01-0.74,23.86-2.23c8.57-1.63,16.85-4.83,23.54-10.53
	c6.09-5.2,10.21-12.39,10.79-20.44c0.55-7.64-2.43-15.7-8.84-20.17c-5.53-3.85-13.34-4.59-19.45-1.67
	c1.76-6.71,3.93-13.33,6.41-19.81c2.66-6.92,5.79-13.63,9.55-20.02c7.22-12.26,17.07-22.83,29.71-29.54
	c11.82-6.27,25.9-9.16,39.06-5.98c13.3,3.21,24.29,12.41,31.71,23.68c8.69,13.19,12.56,28.93,14.31,44.46
	c0.05,0.48,0.1,0.97,0.15,1.45c-3.07-1.05-6.48-1.23-9.63-0.56c-6.08,1.31-11.15,5.77-14.4,10.91c-5.86,9.25-5.72,21.43-0.97,31.09
	c2.42,4.92,6.19,9.08,10.82,12.01c5.42,3.43,11.76,5.12,18.06,5.99c6.88,0.95,13.85,1.15,20.79,1.39
	c6.67,0.23,13.35,0.23,20.02,0.06c7.1-0.17,14.25-0.55,21.3-1.35c3.76-0.42,7.52-0.91,11.27-1.44c1.97-0.28,3.92-0.53,5.84-1.03
	c1.13-0.29,2.25-0.53,3.39-0.75c0.54,1.06,1.68,1.78,3.23,1.37c9.06-2.42,18.62-4.52,26.13-10.47c6.23-4.94,10.44-12.84,12.28-20.48
	C450.37,332.02,450.73,327.95,449.86,324.05z M73.62,307.28c2.42-20,7.01-39.95,13.26-59.09c6.22-19.02,14.6-37.33,25.22-54.29
	c10.56-16.86,23.33-32.32,38.21-45.54c14.54-12.92,31.02-23.68,48.72-31.76c17.57-8.03,36.54-13.38,55.79-15.21
	c18.46-1.76,37.07-0.33,54.95,4.59c17.16,4.72,33.45,12.43,47.98,22.72c14.4,10.19,27.02,23.06,36.54,37.93
	c10.83,16.92,17.1,36.17,19.9,55.99c3.05,21.62,2.05,43.7-0.35,65.33c-0.58,5.24-1.25,10.47-1.99,15.69
	c-2.21,0.41-4.41,0.92-6.6,1.44c-2.97-5.86-10.36-8.95-16.64-7.02c-1.94-2.82-4.28-5.32-6.91-7.48c1.44-14.29,0.84-28.76-1.68-42.9
	c-2.57-14.4-7.32-28.45-14.27-41.34c-6.38-11.85-14.73-22.65-24.65-31.75c-9.65-8.86-20.73-16.14-32.81-21.24
	c-12.34-5.21-25.6-8.03-39.01-8.07c-13.82-0.05-27.62,2.72-40.52,7.62c-13.14,4.99-25.38,12.06-36.42,20.74
	c-10.68,8.4-19.9,18.33-27.92,29.27c-8.25,11.25-15.23,23.39-21.34,35.92c-6.06,12.41-11.41,25.24-15.69,38.38
	c-0.77,2.35-1.41,4.75-2.08,7.13c-0.03,0.01-0.06,0.02-0.08,0.04c-6.56,3.18-12.31,7.96-16.62,13.83c-3.84-1.48-8.41-0.82-11.65,1.8
	c-2.35,1.89-3.8,4.78-4.14,7.78c-6.37-1.96-13.25-1.71-19.56,0.37C73.45,307.9,73.58,307.62,73.62,307.28z M353.09,282.39
	c-1.35-18.27-7.26-36.29-17.27-51.65c-10.35-15.89-25.15-28.43-42.79-35.51c-17.29-6.94-36.48-7.7-54.17-1.74
	c-17.73,5.97-33.22,17.59-45.23,31.79c-12.81,15.16-22.3,33.39-29.13,51.96c-0.7,1.89-1.36,3.79-2.02,5.69
	c-10.76-4.53-22.92-4.33-33.82-0.05c1.78-4.81,3.72-9.56,5.56-14.34c2.41-6.25,5-12.44,7.78-18.54
	c5.71-12.51,12.21-24.68,19.78-36.17c7.23-10.96,15.5-21.25,25.22-30.11c9.96-9.08,21.24-16.73,33.4-22.54
	c24.05-11.49,51.72-15.09,77.36-6.93c24.1,7.67,45,24.53,58.71,45.66c15.53,23.95,22.14,52.95,21.21,81.3
	c-0.07,2.09-0.17,4.18-0.3,6.27c-5.37-3.29-11.55-5.26-17.88-5.57C357.3,281.82,355.16,281.97,353.09,282.39z M204.69,319.93
	c5.81,2.72,8.79,8.97,8.8,15.34c0.01,7.13-3.68,13.39-8.93,18.01c-5.91,5.19-13.47,7.94-21.08,9.47
	c-7.34,1.47-14.85,1.92-22.31,2.48c-6.62,0.49-13.24,0.9-19.86,1.21c-13.7,0.65-27.43,0.89-41.14,0.24
	c-5.77-0.28-11.57-0.75-17.29-1.57c-2.97-0.43-6.02-0.94-8.92-1.83c0.03-1.04-0.42-2.12-1.38-2.57
	c-9.88-4.61-15.5-15.42-14.81-26.09c0.33-5.04,2.5-10.2,6.05-13.99c3.71-3.96,8.44-6.55,13.74-7.81c5.68-1.35,11.95-0.88,17.17,1.81
	c2.02,1.04,5.1-0.72,4.19-3.22c-0.91-2.48-0.45-5.42,1.82-7.16c2.17-1.67,5.16-1.44,7.36,0.1c1.3,0.91,3.12,0.19,3.89-1.02
	c6.88-10.74,19.37-17.53,31.95-18.12c12.75-0.6,24.96,5.48,32.69,15.71c4.32,5.71,7.27,12.63,7.97,19.68
	c0.11,1.12,0.6,2.09,1.7,2.53c0.98,0.39,2.28,0.27,3.03-0.57C193.12,318.27,199.65,317.57,204.69,319.93z M314.26,264.94
	c-7.17-12.84-18.25-23.81-32.19-28.98c-13.91-5.16-29.44-3.5-42.9,2.21c-13.98,5.93-25.35,16.22-33.82,28.72
	c-4.36,6.42-7.81,13.36-10.71,20.55c-2.93,7.27-4.85,14.77-6.5,22.41c-0.06,0.27-0.11,0.54-0.16,0.81
	c-3.56-10.5-10.92-19.63-20.58-25.28c-0.89-0.52-1.81-1-2.73-1.45c7.26-17.57,15.41-34.94,26.99-50.11
	c11.01-14.43,24.95-26.67,41.71-33.95c16.42-7.14,34.63-8.25,51.76-2.98c17.19,5.28,32.43,16.27,43.18,30.66
	c5.47,7.31,9.92,15.41,13.22,23.91c3.35,8.63,5.49,17.61,6.95,26.74c0.28,1.77,0.51,3.55,0.71,5.33c-1.66,0.64-3.27,1.47-4.81,2.52
	c-4.85,3.31-8.79,7.75-12.16,12.52c-2.12,2.99-4,6.16-5.63,9.45C325.02,293.09,321.62,278.11,314.26,264.94z M444.43,329.85
	c-0.05,0.94-0.12,1.51-0.24,2.22c-1.16,6.79-4.47,13.66-9.3,18.28c-6.86,6.58-16.78,7.85-25.41,10.82
	c-1.12,0.38-1.73,1.19-1.95,2.08c-0.85,0.07-1.7,0.11-2.56,0.11c-1.71-0.01-3.36,0.05-5.07,0.19c-3.21,0.27-6.42,0.5-9.63,0.69
	c-5.91,0.35-11.81,0.68-17.73,0.8c-12.56,0.25-25.16-0.15-37.7-0.89c-10.86-0.64-23.06-2.28-30.47-11.05
	c-5.86-6.94-7.57-17.13-4.79-25.65c1.66-5.08,5.31-9.96,10.31-12.44c4.83-2.4,10.95-1.61,14.37,2.79c1.39,1.79,3.99,0.5,4.62-1.22
	c3.24-8.95,9.05-18.4,16.73-24.59c3.55-2.86,7.39-4.45,11.68-4.54c5.18-0.11,10.37,1.13,14.98,3.5c5.31,2.74,9.81,6.81,12.86,11.97
	c0.77,1.3,2.49,1.74,3.8,1c0.74-0.42,0.95-0.52,1.85-0.74c0.66-0.16,0.76-0.18,1.64-0.19c1.21-0.01,2.48,0.24,3.65,0.75
	c2.37,1.03,4.15,2.92,4.75,5.4c0.37,1.51,2.01,2.3,3.45,1.96c9.12-2.16,18.35-4.17,27.53-1.09c1.43,0.48,2.42,0.91,3.87,1.8
	c0.26,0.16,0.51,0.32,0.77,0.5c0.14,0.1,0.28,0.19,0.41,0.29c0.03,0.02,0.11,0.09,0.19,0.14c0.1,0.08,0.38,0.32,0.46,0.39
	c0.26,0.23,0.51,0.47,0.76,0.71c0.39,0.39,0.74,0.81,1.11,1.22c0.03,0.03,0.04,0.05,0.06,0.06c0.03,0.04,0.07,0.1,0.13,0.19
	c0.18,0.25,0.35,0.5,0.52,0.76c0.54,0.84,1.02,1.73,1.44,2.64c0.1,0.22,0.21,0.45,0.31,0.67c0.02,0.05,0.07,0.17,0.12,0.27
	c0.06,0.14,0.16,0.37,0.18,0.42c0.1,0.24,0.19,0.47,0.29,0.71c0.39,0.96,0.81,1.91,1.22,2.86c0.01,0.02,0.02,0.05,0.04,0.13
	c0.07,0.18,0.13,0.37,0.19,0.55c0.11,0.33,0.2,0.66,0.28,1c0.23,0.98,0.24,1.05,0.3,1.95C444.48,328.13,444.48,328.99,444.43,329.85
	z"/>
</svg>
