<?xml version="1.0" encoding="utf-8"?>
<!-- Generator: Adobe Illustrator 26.3.1, SVG Export Plug-In . SVG Version: 6.00 Build 0)  -->
<svg version="1.1" id="Rucksack" xmlns="http://www.w3.org/2000/svg" xmlns:xlink="http://www.w3.org/1999/xlink" x="0px" y="0px"
	 viewBox="0 0 500.5 509" style="enable-background:new 0 0 500.5 509;" xml:space="preserve">
<style type="text/css">
	.st0{fill:#D8ECF9;}
	.st1{fill:#EFC6E1;}
	.st2{fill:#211F1B;}
</style>
<g id="farbe">
	<path class="st0" d="M406.6,364.1c-0.4-0.5-0.8-0.7-1.2-0.7c4.2-14.6,5.8-30.4,5.4-45.5c-0.4-16-3.3-32-8.7-47.1
		c-3.1-8.6-7-16.9-11.7-24.7c-0.2-0.3-0.4-0.5-0.6-0.6c0.3-1.9,0.6-3.7,0.8-5.6c0.4,0.7,0.8,1.4,1.3,2.1c1.4,1.9,3.1,3.5,5.1,4.7
		c1.9,1.2,4.1,2,6.3,2.4c1.1,0.2,2.7,0.5,3.7-0.1c1-0.6,1.6-2.2,2.2-3.1c1.4-2.4,3.1-5.4,2.3-8.3c-0.7-2.4-3.1-3.8-5.2-4.9
		c-4.3-2.2-8.7-4.2-12.8-6.7c-0.3-0.2-0.5-0.2-0.8-0.2c2-14,3.3-28.2,1.6-42.3c-1.9-15.7-7.8-30.9-19.5-41.9
		c-1.2-1.1-2.5-2.2-3.8-3.3c0.3-0.3,0.5-0.6,0.4-1.2c-0.3-5.8-2.1-11.9-4.3-17.3c-1.8-4.4-4.1-8.6-7.3-12.2
		c-6.8-7.6-16.9-11.1-26.7-13c-6.8-1.3-13.6-1.9-20.5-2.4c-8.7-0.6-17.5-0.8-26.2,0.1c-13.2,1.3-26.8,4.9-37.4,13.2
		c-9.3,7.2-14.7,17.5-15.1,29.2c-1.1,0.8-2.2,1.6-3.2,2.4c-1.7,1.4-3.3,3-4.7,4.7c-10.2,4.8-18.2,13.8-24.9,22.6
		c-7.5,9.9-14,20.8-19,32.2c-2.9,6.7-5.4,13.5-8.3,20.1c-3.1,7.1-6.3,14.2-9.7,21.2c-6.9,14.2-14.5,28.2-22.6,41.7
		c-8.1,13.4-16.7,26.6-25.9,39.3C107,331,97.4,342.1,89,354.2c-3.6,5.2-7.2,11-5.7,17.5c0.6,2.9,2,5.6,3.2,8.3
		c2.4,5.2,5.6,9.3,10.4,12.5c5.1,3.3,11,5.3,16.9,6.7c7.7,1.8,15.7,2.9,23.5,3.6c16.8,1.6,33.7,1,50.3-2c4.2-0.8,8.3-1.7,12.4-2.7
		c0.2-0.1,0.4-0.2,0.6-0.3c2.7,4,6.2,7.4,10.1,9.9c8.2,5.3,18,7.5,27.6,8.5c10.7,1.1,21.5,1.1,32.2,1.4c23.4,0.6,46.8,1.2,70.1,1.8
		c18.7,0.5,40.6,1.5,56.3-10.5C410.3,398.9,417.8,378.4,406.6,364.1z M349.3,126.6c-6-2.1-12.2-3.5-18.5-4.4
		c-18.9-2.6-38.4-1-57.3,0.8c-4.4,0.4-8.8,1-13.3,1.8c6-17.2,24.6-22.4,41.3-22.5c12,0,25.6-1.5,36.1,5.6c3.1,2.1,5.6,4.9,7.6,8.2
		c1.1,1.9,2.1,4,2.8,6.1C348.6,123.6,348.9,125.1,349.3,126.6z M214,199.8c-0.2,0.1-0.3,0.3-0.4,0.6c-9.3,28-27.4,52.1-39.7,78.7
		c-11,23.9-17.8,51.1-8.5,76.6c3.8,10.3,10.2,20.5,19.2,27.1c-11.3-0.1-22.6,1-33.9,1.7c-13.8,0.9-28.3,2.1-42-0.9
		c-5.7-1.2-11.2-3.3-15.7-6.9c8.7-7.7,16.1-16.9,23.1-26.1c10-13.1,19.2-26.9,28-40.9c19.4-30.9,37.1-62.9,53.3-95.5
		c5.9-11.9,11.4-23.9,16.5-36.1c0,0.3,0,0.6-0.1,0.9C213.5,185.9,213.7,192.8,214,199.8z M194.9,378c-11-17.9-22.2-37.8-19.4-59.5
		c2.9-22,17.5-40.1,28.2-58.9c4.2-7.4,8.2-14.9,11.7-22.7c0.1,3.3,0.2,6.6,0.4,9.9c-6.2,16.8-11.9,33.7-16.6,50.9
		c-2.4,8.7-4.5,17.5-6.4,26.3c-1.7,7.8-3.4,15.7-3.2,23.8c0.1,4,0.7,8,2.2,11.7c1.3,3.1,3.3,7,6.5,8.5c-0.1,0.1-0.1,0.1-0.2,0.2
		C196.2,371.1,195.2,374.5,194.9,378z"/>
	<path class="st1" d="M353.1,247.4c-4.5-4.3-11.5-6.9-17.6-4.8c-5.3,1.8-10.1,5.9-13.8,10c-3.9,4.3-6.8,9.1-9.4,14.2
		c-3.5-8.7-8-17.4-15.3-23.4c-3.9-3.2-8.6-5.5-13.7-5.4c-6,0.1-11.6,3.1-16,6.9c-17.7,15.3-3.3,41.7,11.2,53.5
		c6.1,4.9,12.8,9.1,19.4,13.2c2.7,1.7,5.4,3.4,7.9,5.3c2.3,1.7,4.4,3.8,6.7,5.6c0.4,1.3,1.9,2.4,3.2,1.4
		c9.3-6.9,18.5-14.1,26.3-22.7c7.8-8.5,15.1-19.2,17.3-30.8C361,262.3,359.4,253.3,353.1,247.4z"/>
</g>
<g id="ol">
	<path class="st2" d="M415.9,364.7c-0.8-1.8-1.9-3.3-3.1-4.8c-0.3-0.3-0.6-0.5-1-0.6c2-6.9,3.1-14.1,4-21.2c1-8,1.4-16.1,1.2-24.2
		c-0.5-16-3.4-32.1-8.8-47.2c-3.1-8.6-7-16.9-11.7-24.7c-0.1-0.2-0.3-0.4-0.5-0.6c0.2-1.4,0.4-2.7,0.6-4.1c0.2,0.3,0.4,0.7,0.7,1
		c1.4,1.9,3.2,3.6,5.3,4.9c1.9,1.2,4.1,2.1,6.4,2.4c1.2,0.2,3,0.6,4.1-0.1c1-0.6,1.7-2.2,2.3-3.3c1.5-2.5,3.2-5.6,2.3-8.6
		c-0.7-2.5-3.2-4-5.4-5.1c-4.3-2.2-8.7-4.1-12.8-6.6c-0.2-0.1-0.3-0.2-0.5-0.2c1.9-13.6,3.2-27.3,1.7-41
		c-1.8-16.1-7.6-31.8-19.5-43.1c-1.2-1.1-2.5-2.2-3.8-3.3c0.2-0.3,0.2-0.6,0.2-1c-0.1-3.2-0.9-6.3-1.7-9.4c-0.7-2.7-1.5-5.3-2.5-7.9
		c-1.8-4.6-4.2-8.9-7.5-12.6c-6.9-7.6-16.9-11.2-26.7-13c-6.9-1.3-13.9-2-20.9-2.4c-8.5-0.5-17-0.8-25.5,0.1
		c-13.6,1.3-27.5,5-38.4,13.5c-4.2,3.3-7.9,7.3-10.5,12c-2.6,4.7-4,9.7-4.4,15c-0.1,0.7-0.1,1.4-0.1,2.1c-1.3,0.9-2.5,1.8-3.7,2.9
		c-1.6,1.4-3,2.8-4.3,4.4c-10,4.9-17.9,13.6-24.5,22.3c-7.5,9.8-14,20.7-19,32c-2.9,6.5-5.3,13.2-8.1,19.7
		c-3.1,7.2-6.3,14.3-9.8,21.4c-6.8,14-14.2,27.8-22.2,41.2c-8,13.4-16.5,26.4-25.6,39.1c-4.5,6.3-9.1,12.4-13.9,18.5
		c-4.4,5.6-8.8,11.1-12.9,16.8c-3.9,5.5-8.2,11.7-6.8,18.7c0.6,2.9,1.9,5.6,3.1,8.3c1,2.3,2,4.5,3.5,6.5c1.9,2.5,4.2,4.6,6.8,6.4
		c5.2,3.6,11.5,5.7,17.6,7.1c7.9,1.8,16,2.9,24,3.7c16.8,1.6,33.7,0.9,50.3-2.1c4.1-0.7,8.1-1.6,12.2-2.7c0.2,0,0.3-0.1,0.5-0.2
		c2.9,4.1,6.7,7.7,10.8,10.2c8.4,5.1,18.2,7.2,27.9,8.1c10.5,1,21.2,1,31.8,1.3c23.1,0.6,46.3,1.2,69.4,1.8
		c9.8,0.3,19.7,0.6,29.5-0.7c9.2-1.2,18.8-3.7,26.4-9.3C414.8,397.1,422.8,379.4,415.9,364.7z M336.2,117.8
		c-9.9-1.3-19.9-1.4-29.8-1c-9.1,0.4-18.2,1-27.3,1.9c-4.1,0.4-8.3,0.9-12.4,1.6c2.8-7.3,8.3-13,15.4-16.5c7.8-3.8,16.4-4.9,25-4.9
		c6.3,0,12.5-0.3,18.8,0.2c6,0.5,12.2,1.9,17.4,5.4c1.4,0.9,2.6,2,3.9,3.4c1.4,1.4,2.3,2.7,3.4,4.5c1.1,1.9,2,3.8,2.7,5.9
		c0.4,1.2,0.8,2.5,1.1,3.7C348.5,120,342.4,118.6,336.2,117.8z M270.3,134.9c0.9-3.4,1.8-6.9,2.3-10.3c6.4-0.9,12.9-1.3,19.4-1.8
		c9.7-0.7,19.5-1.3,29.2-1c9.8,0.3,19.6,1.5,29,4.3c0.5,14.1,3.2,27.8,7.6,41.2c2.6,7.9,5.8,15.5,9.5,23c-2.8-1.9-5.9-3.6-9.1-4.9
		c-12.3-5.1-26.2-5.6-39.4-5.7c-16.3-0.1-33.2-0.2-48.8,4.8c-9.3,3-18.4,8-25.3,15c1-2,2-4,3-5.9c7.3-14.9,13.9-30.2,18.9-46
		C268,143.3,269.3,139.1,270.3,134.9z M391.2,249.2c-0.6-4.7-1.3-9.4-2-14.1c-0.7-4.9-1.6-9.8-2.8-14.6c2.1,2.7,4.3,5.4,6.6,8
		c0.2,0.2,0.4,0.4,0.7,0.5C392.8,235.8,391.8,242.5,391.2,249.2z M229.6,305.6c-0.1,8.5-0.1,17-0.2,25.6c0,2.1,0,4.2-0.1,6.3
		c-0.3-9.2-0.6-18.5-0.9-27.7c-0.7-20-1.4-39.9-2.1-59.9c-0.2-5.8-0.4-11.6-0.6-17.4c2.5-3.8,4.9-7.7,7.3-11.7
		c-2.8,10.8-2.6,22.4-2.7,33.4C230,271.4,229.8,288.5,229.6,305.6z M222.1,268.3c-6.8,11.9-12.2,24.5-16.1,37.6
		c2.8-11.4,6-22.8,9.5-34c2-6.6,4-13.1,6-19.7C221.6,257.5,221.9,262.9,222.1,268.3z M219.3,195.9c-0.1,0.1-0.2,0.3-0.2,0.4
		c-2.3,6.8-5.4,13.5-8.6,19.9c-3.2,6.5-6.7,12.9-10.2,19.3c-7,12.7-14.5,25.2-20.6,38.3c-6.1,13.2-11,26.9-12.8,41.4
		c-1.5,12.1-0.4,24.5,3.6,36c2.2,6.2,5.2,12.2,9.2,17.4c2.6,3.5,5.7,6.8,9.1,9.6c-10.9,0-21.8,1-32.6,1.8c-13.9,0.9-28.5,2.1-42-0.9
		c-5.3-1.2-10.4-3.1-14.6-6.4c8.6-7.7,16-16.9,22.9-26.1c10-13.1,19.1-26.8,27.9-40.8c9.8-15.5,19-31.4,28-47.4
		c8.8-15.7,17.1-31.7,25.1-47.8c3.6-7.3,7.1-14.7,10.5-22.1c1.8-4,3.5-8,5.2-12.1C218.8,183,219,189.5,219.3,195.9z M197.8,378.6
		c-0.2-0.4-0.5-0.7-0.9-1c-4.5-3.2-8.7-6.7-12.1-11c-3.4-4.2-6.1-9-8.1-14c-4.3-10.7-5.8-22.3-4.8-33.7
		c2.4-28.2,17.9-53.2,31.2-77.4c3.9-7,7.7-14.2,10.9-21.5c2.1-4.9,4-9.8,5.7-14.8c0.2,5.8,0.4,11.6,0.7,17.4c0,0.1-0.1,0.1-0.1,0.2
		c-3.8,9.9-8.7,19.4-13.9,28.6c-5.2,9.3-11,18.2-16.3,27.4c-5.8,9.9-10.8,20.6-12.8,31.9c-2,11.5-0.6,23,3.5,33.9
		c4.6,12.1,11.9,22.8,19.4,33.3c0.1,0.1,0.1,0.2,0.2,0.2c0,0.2,0,0.4,0.1,0.6C199.5,378.7,198.6,378.6,197.8,378.6z M200.4,373.1
		c-10.7-17.7-21.5-37.5-18.5-58.7c1.5-11,6.1-21.4,11.6-31c5.2-9.2,11.1-17.9,16.3-27.1c3.9-6.9,7.7-13.9,11-21.1
		c0.1,2.7,0.2,5.4,0.3,8.1c-3.1,8.3-6.2,16.6-8.9,25c-2.6,8.2-5.2,16.5-7.5,24.8c-2.4,8.6-4.5,17.4-6.4,26.1
		c-1.7,7.9-3.5,15.8-3.4,23.9c0.1,4,0.6,8.2,2.1,12c1.3,3.3,3.3,7.3,6.6,9C201.9,367,200.8,370,200.4,373.1z M206.7,362.2
		c0-0.1-0.1-0.2-0.1-0.3c-0.8-1.5-2.1-2.6-3.1-4c-0.4-0.6-0.8-1.3-1.2-1.9c0.7-2.5,0.4-5.5,0.5-8c0.2-3,0.4-6,0.7-8.9
		c0.6-6,1.5-11.9,2.7-17.8c2.4-11.8,5.9-23.3,10.4-34.5c1.7-4.3,3.6-8.5,5.7-12.6c0.3,6.6,0.5,13.3,0.8,19.9
		c0.8,20.3,1.5,40.6,2.3,60.9c0.2,4.3,0.3,8.7,0.5,13c-0.1,0-0.2-0.1-0.3-0.1C219.3,366,212.9,364.2,206.7,362.2z M233.9,344.3
		c0.2-8.3,0.3-16.6,0.4-24.9c0.3-16.7,0.4-33.4,0.6-50.1c0.1-8.3,0.1-16.7,0.3-25c0.2-7.4,0.6-14.8,2.4-21.9
		c1.7-6.7,4.7-13,9.4-18.2c4.4-4.9,9.8-8.7,15.7-11.6c13.8-6.8,29.6-7.9,44.7-8.1c13.5-0.2,27.3-0.5,40.5,2.6
		c6,1.4,11.8,3.5,16.9,6.9c5.4,3.7,9.5,8.7,12.5,14.5c3.1,6.1,4.8,12.7,6.1,19.4c1.5,7.7,2.5,15.5,3.5,23.2
		c2.1,16.9,3.6,33.8,4.5,50.8c0.9,17,1.1,34,0.7,51c-0.1,4-0.2,8-0.4,12.1c-7.4,2.4-14.9,4.6-22.5,6.4c-13.3,3.1-26.7,5.3-40.3,6.4
		c-27.1,2.3-54.4,0.8-81-4.5c-5-1-10-2.2-14.9-3.4C233.3,361.3,233.7,352.8,233.9,344.3z M396.5,313.2c-0.4-11.6-1.1-23.2-2.1-34.8
		c3.5,6.6,6.3,13.5,8.6,20.6c3.5,10.8,5.5,22,6.2,33.4c0.2,3.2,0.3,6.4,0.2,9.6c0,2.7-0.2,5.4-0.1,8c-0.7,3.2-1.4,6.4-2.2,9.6
		c-3.6,1.3-7.1,2.6-10.7,3.8C397,346.7,397,329.9,396.5,313.2z M409.6,287.9c2.3,11.1,3.2,22.5,3,33.9c-0.2-1.7-0.5-3.3-0.8-5
		c-2-11.3-5.4-22.4-10.5-32.7c-2.2-4.4-4.8-8.6-7.6-12.5c-0.1-1.3-0.2-2.6-0.4-3.9c0.1-2.2,0.2-4.3,0.3-6.5
		c0.3-4.6,0.8-9.1,1.5-13.6C401.9,260.2,406.8,273.8,409.6,287.9z M412.9,237C412.9,237,412.9,237,412.9,237L412.9,237z
		 M413.3,235.6C413.3,235.4,413.3,235.4,413.3,235.6L413.3,235.6z M405,229.7c1.8,1,3.7,1.9,5.5,2.9c0.7,0.4,1.3,0.8,1.9,1.2
		c0,0,0,0,0,0c0,0,0,0,0,0c0.1,0.1,0.2,0.2,0.3,0.3c0.1,0.1,0.2,0.2,0.3,0.3c0,0,0,0,0,0c0,0.1,0.1,0.2,0.2,0.3c0,0,0,0,0,0
		c0,0.1,0,0.1,0.1,0.2c0,0,0,0,0,0c0,0.2,0,0.4,0,0.7c0,0,0,0,0,0c0,0.2-0.1,0.4-0.1,0.6c-0.1,0.2-0.1,0.4-0.2,0.6
		c0,0.1-0.1,0.2-0.1,0.2c0,0,0,0,0,0c-0.3,0.5-0.5,1-0.8,1.5c-0.5,0.8-0.9,1.6-1.5,2.4c-2.5-0.3-5-1.3-6.9-2.8c-1.2-1-2.2-2.1-3-3.3
		c-0.4-0.7-0.8-1.4-1.1-2.1c-0.4-0.8-0.9-1.5-1.6-2.2c-0.1-0.1-0.2-0.2-0.3-0.2c0.2-1.6,0.5-3.2,0.7-4.8
		C400.5,227,402.7,228.5,405,229.7z M385.9,150.9c4.2,6.4,6.9,13.6,8.5,21.1c3.5,15.7,2.4,32.1,0.4,47.9c-0.1,1.2-0.3,2.3-0.4,3.5
		c-8.9-10.5-16.5-22.1-22.7-34.4c-6.7-13.2-11.7-27.3-15-41.8c-1.5-6.7-2.7-13.5-3.4-20.3c5.7,1.9,11.2,4.5,16.3,7.8
		C376.1,139,381.7,144.4,385.9,150.9z M254.8,107c9-8.1,21.6-12,33.5-13.7c8-1.2,16.2-1.3,24.2-0.9c7,0.3,14.1,0.8,21,1.8
		c5.4,0.8,10.8,2,16,3.9c1.8,0.7,3.9,1.6,5.9,2.8c0.9,0.5,1.8,1.1,2.6,1.7c0.2,0.1,0.4,0.3,0.6,0.4c0.1,0,0.3,0.2,0.4,0.3
		c0.5,0.4,0.9,0.7,1.3,1.1c3.3,3,5.4,6,7.4,10.1c1,2.1,1.8,4.1,2.6,6.6c0.9,2.7,1.5,5.4,2.1,8.2c0.1,0.5,0.2,1,0.3,1.6
		c-4.1-2.8-8.5-5.1-13.1-6.9c0-0.7-0.1-1.5-0.3-2.3c-0.3-1.3-0.7-2.5-1.1-3.7c-0.7-2.2-1.6-4.4-2.7-6.4c-1.8-3.4-4.2-6.5-7.1-9
		c-5.6-4.7-12.5-6.9-19.7-7.8c-6.6-0.8-13.2-0.6-19.9-0.5c-4.4,0.1-8.7,0.1-13.1,0.7c-4.7,0.7-9.2,1.9-13.6,3.7
		c-4.7,2-9.2,4.8-12.7,8.6c-3.7,3.9-6.2,8.7-7.4,14c-6.6,1.5-13.1,3.6-18.9,6.9C244.5,119.9,248.6,112.6,254.8,107z M267.8,125.3
		c-0.5,2.4-1,4.8-1.6,7.2c-0.9,3.7-2,7.5-3.1,11.2c-2.3,7.6-5,15.2-8,22.6c-6,15.1-13.2,29.9-21,44.2c-2.8,5.2-5.7,10.4-8.7,15.5
		c0-0.5,0-0.9-0.1-1.4c0-0.1,0.1-0.2,0.1-0.3c0.3-0.7,0.1-1.4-0.2-2c-0.4-10.5-0.7-21-1.1-31.5c-0.5-14.9-0.5-31.3,7.4-44.5
		C239.4,133.2,253.6,127.8,267.8,125.3z M93.2,366.4c0-0.2-0.1-0.6-0.1-0.7c0-0.5-0.1-0.9-0.1-1.4c0-0.3,0-0.5,0.1-0.8c0,0,0,0,0,0
		c0-0.1,0-0.3,0.1-0.4c0.1-0.6,0.3-1.2,0.5-1.8c0.1-0.3,0.2-0.7,0.4-1c0,0,0,0,0,0c0,0,0,0,0,0c0.1-0.2,0.2-0.4,0.3-0.6
		c0.8-1.6,1.7-3.2,2.7-4.7c3.1-4.8,6.6-9.3,10.1-13.7c4.8-6.1,9.6-12.2,14.2-18.4c9.1-12.3,17.7-24.9,25.8-37.9
		c8-13,15.5-26.3,22.4-40c6.9-13.6,13.2-27.5,18.9-41.7c2.2-5.5,4.3-10.8,6.9-16.1c2.8-5.5,5.8-10.9,9.2-16
		c3.4-5.3,7.1-10.4,11.3-15.1c3.1-3.5,6.3-6.9,10-9.9c-3.3,6.5-5.2,13.8-6.1,21.2c-2.3,4.9-4.6,9.7-7,14.6
		c-3.4,7.2-7,14.3-10.5,21.4c-7.9,15.8-16.2,31.4-24.7,46.9c-8.9,16.1-18.1,32.1-27.8,47.8c-8.8,14.2-17.9,28.2-27.9,41.6
		c-7.5,10.2-15.6,20.5-25.1,29.2c-0.7,0.7-1.5,1.4-2.3,2c-0.2-0.6-0.5-1.1-0.7-1.7c-0.2-0.6-0.4-1.2-0.6-1.8
		C93.3,367,93.2,366.7,93.2,366.4z M155.8,395.3c-8.2-0.2-16.3-1-24.4-2.2c-6.6-1-13.3-2.2-19.6-4.7c-5.2-2-10.4-5.2-13.5-10
		c-0.2-0.3-0.4-0.7-0.6-1c9.2,6.5,21.1,8.2,32.1,8.6c15.3,0.6,30.6-1.1,45.9-1.9c8.3-0.4,16.6-0.7,24.9,0c0.3,0,0.5,0,0.8-0.1
		c0.6,2,1.4,4,2.4,6C188.1,394,172,395.8,155.8,395.3z M402.4,400.1c-6.3,5.7-14.7,8.7-22.9,10.2c-9.1,1.7-18.4,1.7-27.6,1.5
		c-21.8-0.4-43.6-1-65.4-1.4c-10.6-0.2-21.2-0.4-31.8-0.7c-9.3-0.3-18.8-1.1-27.6-4.3c-7.7-2.7-14.5-7.5-18.9-14.4
		c-3.9-6-6.1-13.8-4.2-20.8c0.5-1.7,1.2-3.3,2.1-4.9c0.1-0.2,0.1-0.3,0.2-0.5c5.2,2.2,10.5,4.3,15.9,6c6.6,2.1,13.3,3.8,20,5.4
		c13.5,3.1,27.2,5.2,41.1,6.2c27.5,2.1,55.4,0.2,82.4-5.6c14.9-3.2,29.7-7.4,43.7-13.3C418.4,374.6,411.9,391.4,402.4,400.1z"/>
	<path class="st2" d="M282.4,293.3c5.6,4.5,11.7,8.4,17.9,12.1c4.7,2.9,9.3,5.8,13.4,9.5c0.7,0.7,1.5,1.3,2.2,1.9
		c0.6,1.6,2.4,2.9,4,1.7c9.2-6.8,18.4-14,26.2-22.4c4-4.3,7.6-9,10.6-14.1c3-5.1,5.7-10.7,7-16.5c1.8-8.6,0.4-18-6.2-24.3
		c-4.6-4.4-11.8-7.2-18.2-5.1c-2.6,0.9-5,2.4-7.2,4c-2.6,1.9-5,4.1-7.2,6.5c-3.6,4-6.3,8.5-8.7,13.3c-3.4-8.4-7.8-16.7-14.8-22.6
		c-4.1-3.4-9-5.9-14.4-5.8c-6.2,0.1-12.1,3.3-16.6,7.4c-4,3.6-6.8,8.5-7.6,13.9c-0.8,5.2,0,10.6,1.8,15.5
		C268.1,278.1,274.5,287,282.4,293.3z M355.5,246.8C355.6,246.9,355.6,246.9,355.5,246.8L355.5,246.8z M270.3,246.1
		c2.9-4.3,8-7.9,13-9.3c4.6-1.3,8.9-0.4,12.9,2.2c4.1,2.6,7.3,6.5,10,10.5c2.7,4.1,5.2,8.4,7.3,12.9c0.4,0.9,0.8,1.8,1.2,2.7
		c0.2,0.5,0.7,0.8,1.2,0.8c0.6,0.1,1.3-0.1,1.7-0.8c5.5-8.8,11.7-18.1,21.1-23.2c0.5-0.3,1-0.5,1.5-0.7c0.1,0,0.3-0.1,0.4-0.2
		c0.6-0.2,1.2-0.3,1.9-0.5c0,0,0,0,0,0c0,0,0,0,0.1,0c0.1,0,0.2,0,0.4,0c0.3,0,0.6,0,0.9,0c0.3,0,0.6,0,1,0c0.2,0,0.4,0,0.6,0.1
		c0,0,0,0,0,0c0,0,0,0,0.1,0c0.7,0.1,1.3,0.3,2,0.5c0.3,0.1,0.7,0.2,1,0.3c0.2,0.1,0.3,0.1,0.5,0.2c0.1,0,0.2,0.1,0.3,0.1
		c0.6,0.3,1.3,0.6,1.9,1c0.3,0.2,0.6,0.4,0.9,0.6c0.2,0.1,0.3,0.2,0.4,0.3c0,0,0,0,0,0c0.1,0.1,0.2,0.1,0.2,0.2
		c0.6,0.5,1.1,1,1.7,1.5c0.3,0.3,0.5,0.6,0.8,0.9c0.1,0.1,0.2,0.2,0.3,0.4c0,0,0,0,0,0c0.1,0.1,0.2,0.3,0.3,0.4
		c0.5,0.7,0.9,1.3,1.3,2.1c0.2,0.4,0.4,0.7,0.6,1.1c0,0,0.1,0.1,0.1,0.2c0.1,0.2,0.2,0.5,0.3,0.7c1.3,3.7,1.6,7.4,0.9,11.3
		c-0.9,5.4-3.2,10.4-5.9,15.1c-2.6,4.6-5.7,9-9.2,12.9c-7.5,8.5-16.4,15.2-25.2,22.2c-1.3-1.4-2.8-2.6-4.3-3.8
		c-2.1-1.7-4.4-3.2-6.6-4.7c-5.2-3.3-10.6-6.4-15.7-9.9c-4.7-3.1-8.5-5.9-12.3-10.1c-3.3-3.6-6.1-7.6-8.3-11.9
		C267,264.2,264.9,254.1,270.3,246.1z"/>
</g>
</svg>
