<?xml version="1.0" encoding="utf-8"?>
<!-- Generator: Adobe Illustrator 26.3.1, SVG Export Plug-In . SVG Version: 6.00 Build 0)  -->
<svg version="1.1" id="schere" xmlns="http://www.w3.org/2000/svg" xmlns:xlink="http://www.w3.org/1999/xlink" x="0px" y="0px"
	 viewBox="0 0 500.5 509" style="enable-background:new 0 0 500.5 509;" xml:space="preserve">
<style type="text/css">
	.st0{fill:#EFC6E1;}
	.st1{fill:#211F1B;}
</style>
<path id="farbe" class="st0" d="M233.18,219c-0.8-0.8-1.79-1.32-2.94-1.27c-2.38,0.11-4.94,1-7.24,1.57
	c-5.62,1.39-11.18,3.02-16.71,4.72c-11.5,3.55-22.92,7.38-34.39,11.03c1.14-1.91,2.29-3.8,3.41-5.72
	c8.36-14.28,16.41-28.74,24.55-43.15c2.23-3.96,1.87-8.16-1.81-11.14c-3.96-3.21-9.5-3.07-13.83-0.68c-3.09,1.7-5.47,4.38-7.44,7.25
	c-2.72,3.98-5.26,8.11-7.69,12.27c-4.53,7.76-8.63,15.76-12.44,23.9c-3.81,8.12-7.33,16.37-10.86,24.62
	c-0.9-0.12-1.64,0.24-2.62,0.65c-1.04,0.44-2.09,0.88-3.13,1.32c-2.15,0.91-4.3,1.83-6.45,2.76c-4.15,1.79-8.26,3.62-12.32,5.59
	c-1.81-2.27-4.9-3.43-7.66-4.02c-4.99-1.06-9.23,0.48-13.96,1.85c-4.73,1.38-9.04,1.16-13.58-0.75c-4.15-1.74-7.92-4.28-11.91-6.35
	c-7.25-3.75-15.24-5.21-23.33-3.93c-7.7,1.22-15.11,5.14-19.87,11.39c-4.61,6.04-6.59,13.96-5.62,21.48
	c0.98,7.63,5.12,14.33,11.7,18.38c6.98,4.29,15.61,5.25,23.6,4.05c10.76-1.62,20.4-7.27,29.48-12.94
	c7.99-4.99,15.66-11.19,24.7-14.18c0.45,0.45,1.14,0.66,1.87,0.26c1.17-0.65,2.26-1.61,3.2-2.76c0.03,0,0.06,0.01,0.1,0.01
	c3.37-0.45,6.77-0.69,10.16-0.96c1.64-0.13,3.28-0.27,4.91-0.45c0.61-0.07,1.22-0.15,1.83-0.23c-1.04,2.57-2.08,5.14-3.22,7.67
	c-1.51,0.75-2.85,1.76-3.78,2.94c-0.34,0.44-0.42,0.92-0.33,1.37c-6.18,5.73-9.95,13.32-15.36,19.77
	c-6.14,7.31-12.74,14.18-17.16,22.75c-3.98,7.72-6.01,16.44-4.57,25.09c1.32,7.95,6.07,15.03,13.32,18.69
	c6.49,3.27,14.24,3.93,21.23,1.97c7.45-2.1,13.58-7.34,17.35-14.05c3.88-6.92,5.3-15.12,4.15-22.95
	c-1.33-9.06-8.01-17.96-6.32-27.34c0.99-5.53,5.13-9.89,5.92-15.49c0.41-2.88,0.29-6.56-1.02-9.44c3-4.56,5.96-9.15,8.9-13.75
	c13.23-2.7,26.54-5.1,39.63-8.46c6.31-1.62,12.58-3.47,18.65-5.83c5.22-2.03,10.84-4.3,15.25-7.83c3.52-2.82,5.95-6.75,6.27-11.31
	C235.98,224.51,235.26,221.09,233.18,219z M68.2,278.14c-3.09,1.89-6.64,3.04-10.23,3.5c-3.81,0.49-7.41-0.05-11.19-0.47
	c-5.08-2.31-8.26-8.49-7.21-13.98c1.34-7,7.74-11.86,14.52-12.89c6.76-1.03,15.58,0.97,20.13,6.43
	C79.42,266.95,73.9,274.64,68.2,278.14z M133.72,334.89c-1.19,7.06-5.83,13.43-13.02,15.18c-6.46,1.57-13.92-2.6-15.53-9.08
	c0.01-0.06,0.04-0.11,0.05-0.18c0.19-3.31,0.21-6.49,1.05-9.72c0.83-3.17,2.15-6.2,4.04-8.88c3.62-5.15,11.71-10.89,17.87-6.46
	C133.7,319.71,134.76,328.72,133.72,334.89z M230.4,221.02c0.18,0.06,0.09,0,0.16,0.06C230.53,221.07,230.48,221.05,230.4,221.02z"
	/>
<g id="ol">
	<path class="st1" d="M128.78,303.58c-4.37,0.48-8.45,2.8-11.59,5.81c-3.23,3.1-5.52,7.07-6.97,11.27c-1.46,4.2-2.3,9.07-1.59,13.5
		c0.12,0.76,0.64,1.12,1.24,1.19c1.23,6.36,7.12,11.17,13.75,11.51c8.8,0.45,16.35-6.06,19.21-14.02c2.75-7.68,2.01-17.9-3.14-24.45
		C137.04,305.03,133.07,303.11,128.78,303.58z M140.35,328.15c-1.3,7.06-6.08,13.31-13.32,14.92c-6.29,1.39-13.57-2.79-15.17-9.07
		c0.02-0.09,0.04-0.18,0.04-0.28c0.15-3.41,0.21-6.67,1.11-10c0.88-3.25,2.29-6.34,4.29-9.06c3.71-5.05,11.9-10.48,17.85-5.81
		C140.49,313.04,141.49,321.93,140.35,328.15z"/>
	<path class="st1" d="M125.41,297.74c1.18-0.16,2.33-0.53,3.52-0.64c1.19-0.11,2.4-0.05,3.57,0.2c2.36,0.5,4.59,1.64,6.27,3.38
		c0.81,0.83,1.97-0.39,1.25-1.25c-1.83-2.19-4.36-3.68-7.15-4.26c-2.67-0.55-6.04-0.59-8.26,1.2
		C123.89,296.95,124.71,297.84,125.41,297.74z"/>
	<path class="st1" d="M61.89,243.45c-8.44,0.75-16.41,6.05-18.75,14.49c-2.04,7.36,1.77,15.36,8.69,17.9
		c0.08,0.64,0.45,1.27,1.13,1.5c3.74,1.26,8.13,1.24,12,0.74c4.01-0.51,7.95-1.7,11.45-3.78c6.96-4.13,13.34-13.14,8.55-21.16
		C80.55,245.74,70,242.73,61.89,243.45z M75.38,270.74c-3.14,2.03-6.76,3.26-10.46,3.78c-3.9,0.55-7.62,0.03-11.49-0.45
		c-4.94-2.25-8.14-8.27-7.26-13.61c1.15-6.99,7.34-11.94,14.05-13.18c3.97-0.73,8.14-0.24,11.97,0.98c3.27,1.04,6.46,2.71,8.72,5.35
		C86.02,259.58,80.86,267.19,75.38,270.74z"/>
	<path class="st1" d="M92.06,251.91c-0.65-0.75-1.99,0.26-1.39,1.07c1.45,1.96,2.25,4.37,2.34,6.8c0.04,1.18-0.08,2.35-0.38,3.5
		c-0.33,1.22-0.9,2.35-1.27,3.55c-0.26,0.83,0.79,1.31,1.37,0.8c2.08-1.84,2.58-5.31,2.44-7.95
		C95.02,256.78,93.95,254.11,92.06,251.91z"/>
	<path class="st1" d="M236.47,210.69c-2.5,0.41-4.99,1.06-7.45,1.68c-5.66,1.42-11.26,3.08-16.83,4.81
		c-11.24,3.49-22.4,7.24-33.62,10.8c1-1.67,2.01-3.33,3-5.01c8.39-14.3,16.46-28.77,24.6-43.21c1.23-2.19,2.26-4.18,1.76-6.76
		c-0.38-1.97-1.59-3.74-3.13-4.99c-4.14-3.36-9.93-3.13-14.36-0.46c-3.25,1.95-5.59,4.9-7.65,8.02c-2.66,4.02-5.2,8.11-7.6,12.29
		c-4.46,7.72-8.49,15.66-12.26,23.74c-3.58,7.68-6.92,15.48-10.25,23.27c-0.06,0.14-0.12,0.28-0.18,0.42c-1-0.15-1.91,0.4-2.85,0.79
		c-1.12,0.47-2.24,0.94-3.36,1.41c-2.08,0.88-4.15,1.77-6.22,2.66c-4.06,1.75-8.09,3.53-12.07,5.46c-2.12-2.7-6.12-3.84-9.33-4.26
		c-5.02-0.65-9.37,1.48-14.13,2.61c-9.09,2.17-16.57-3.98-24.21-7.85c-7.24-3.67-15.33-4.97-23.34-3.57
		c-7.75,1.35-15.04,5.43-19.72,11.82c-4.49,6.13-6.22,14.1-5.14,21.58c1.11,7.66,5.6,14.34,12.34,18.18
		c7.16,4.08,15.83,4.86,23.84,3.45c9.47-1.66,18.09-6.38,26.19-11.35c3.91-2.4,7.76-4.88,11.58-7.42c3.38-2.25,6.74-4.45,10.43-6.17
		c1.63-0.76,3.27-1.46,4.97-2.03c0.46,0.47,1.16,0.69,1.9,0.28c1.16-0.65,2.25-1.61,3.18-2.75c0.04,0,0.07,0,0.11,0
		c3.37-0.45,6.77-0.69,10.16-0.96c1.64-0.13,3.28-0.27,4.91-0.45c0.58-0.07,1.17-0.14,1.75-0.22c-0.23,0.58-0.48,1.15-0.71,1.73
		c-0.82,2.04-1.6,4.07-2.51,6.07c-0.47,0.23-0.92,0.48-1.34,0.75c-0.88,0.56-1.72,1.23-2.37,2.05c-0.34,0.42-0.42,0.89-0.35,1.32
		c-2.57,2.33-4.74,4.96-6.77,7.84c-2.68,3.8-5.15,7.79-8.09,11.4c-2.99,3.67-6.27,7.08-9.23,10.78c-2.94,3.67-5.68,7.5-7.92,11.64
		c-4.22,7.82-6.46,16.66-5.12,25.54c1.19,7.89,5.71,15,12.79,18.82c6.49,3.5,14.37,4.27,21.47,2.37c7.48-2,13.67-7.16,17.51-13.83
		c3.95-6.87,5.44-15.06,4.37-22.9c-0.62-4.53-2.28-8.77-3.82-13.04c-1.57-4.32-3.11-8.85-2.7-13.51c0.42-4.82,3.52-8.74,5.2-13.13
		c1.5-3.94,1.51-8.98-0.18-12.9c3.01-4.58,5.98-9.18,8.94-13.79c13.05-2.67,26.17-5.03,39.09-8.32c6.13-1.56,12.21-3.33,18.13-5.56
		c5.44-2.05,11.27-4.37,15.92-7.93c3.66-2.81,6.25-6.73,6.66-11.39c0.26-2.94-0.46-6.44-2.6-8.61
		C238.92,210.95,237.77,210.48,236.47,210.69z M237.18,213.93c0,0-0.01,0-0.02,0C237.16,213.93,237.17,213.93,237.18,213.93
		C237.18,213.93,237.17,213.93,237.18,213.93z M121.73,258.07c-0.44,0.24-0.67,0.59-0.76,0.96c-3.44,0.7-6.71,1.65-9.92,3.19
		c-3.49,1.67-6.75,3.72-9.99,5.82c-7.45,4.81-15.12,9.69-23.36,13.02c-7.35,2.97-15.38,4.55-23.26,2.96
		c-7.1-1.44-13.57-5.4-16.84-12.04c-3.01-6.1-2.93-13.46-0.6-19.76c2.45-6.64,7.79-11.76,14.3-14.42c6.74-2.75,14.4-3.04,21.37-1.02
		c7.66,2.23,13.82,7.74,21.4,10.15c4.13,1.31,8.29,1.26,12.45,0.11c4.32-1.19,8.38-3.08,12.95-2.13c2.71,0.56,6.48,1.67,6.71,4.95
		c0.16,2.27-1.05,4.64-2.45,6.34C123.13,256.96,122.49,257.65,121.73,258.07z M143.59,253.27c-0.85,0.13-1.7,0.25-2.55,0.35
		c-1.57,0.19-3.15,0.34-4.72,0.49c-2.65,0.25-5.29,0.55-7.91,0.99c1.04-2.29,1.44-4.82,0.8-7.07c4.11-1.47,8.14-3.06,12.18-4.71
		c2.1-0.85,4.19-1.71,6.28-2.58c1-0.42,1.99-0.83,2.99-1.25c-1.95,4.52-3.9,9.04-5.8,13.59
		C144.45,253.11,144.03,253.21,143.59,253.27z M150.97,278.21c-1.25,4.23-4.14,7.8-5.26,12.11c-2.29,8.91,2.63,17.26,5.03,25.57
		c2.01,6.99,1.65,14.46-0.98,21.24c-2.53,6.5-7.42,12.23-13.87,15.06c-6.07,2.66-13.19,2.74-19.38,0.47
		c-6.63-2.43-11.43-7.87-13.3-14.64c-2.11-7.63-0.75-15.96,2.52-23.06c3.7-8.04,9.41-14.93,15.17-21.56
		c2.89-3.33,5.65-6.77,7.95-10.55c2.13-3.51,4.14-7.1,6.52-10.45c0.63-0.88,1.26-1.75,1.93-2.58c0.5,0.2,1.08,0.13,1.54-0.45
		c2.05-2.57,8.19-4.97,10.92-2.02c1.03,1.11,1.35,2.71,1.58,4.16C151.71,273.72,151.61,276.04,150.97,278.21z M151.55,264.47
		c-2.39-1.94-5.81-2.04-8.92-1.12c1.63-2.99,3.34-5.93,4.79-9.01c1.76-3.73,3.47-7.48,5.16-11.24c3.31-7.36,6.38-14.83,9.69-22.2
		c3.44-7.67,7.06-15.27,11.01-22.69c2.07-3.88,4.23-7.71,6.49-11.49c2.33-3.89,4.65-7.88,7.34-11.54c3.02-4.11,8.16-7.81,13.46-5.86
		c1.63,0.6,2.96,1.7,3.74,3.16c0.7,1.31,0.66,2.72-0.11,4.13c-7.55,13.8-15.42,27.46-23.38,41.03c-5.11,8.7-10.4,17.28-15.78,25.81
		c0.14-0.78,0.11-1.6-0.17-2.41c-0.8-2.38-3.05-4.06-5.52-4.29c-2.46-0.23-4.52,1.38-5.39,3.59c-0.93,2.36-0.26,5.12,1.78,6.65
		c0,0,0.01,0,0.01,0c0.47,1.24,2.2,1.52,3.38,1.45c1.17-0.07,2.34-0.44,3.31-1.11c0.1-0.07,0.18-0.15,0.27-0.22
		c-2.84,4.46-5.69,8.9-8.58,13.33C153.26,261.76,152.41,263.12,151.55,264.47z M162.67,242.77c0,0.08-0.02,0.19-0.02,0.17
		c-0.02,0.08-0.03,0.17-0.05,0.25c-0.02,0.1-0.05,0.19-0.08,0.29c-0.01,0.03-0.05,0.13-0.07,0.18c-0.03,0.06-0.09,0.18-0.1,0.2
		c-0.06,0.1-0.11,0.2-0.18,0.3c-0.01,0.02-0.07,0.1-0.1,0.15c-0.04,0.04-0.1,0.12-0.12,0.15c-0.16,0.17-0.32,0.33-0.5,0.49
		c-0.03,0.02-0.06,0.05-0.09,0.07c-0.01,0-0.01,0.01-0.02,0.01c-0.1,0.07-0.19,0.13-0.29,0.2c-0.19,0.12-0.39,0.22-0.59,0.32
		c-0.03,0.01-0.13,0.06-0.19,0.08c-0.11,0.04-0.22,0.07-0.34,0.11c-0.13,0.04-0.26,0.07-0.39,0.09c-0.04,0.01-0.09,0.01-0.13,0.02
		c-0.22,0.01-0.44,0.03-0.67,0.02c-0.07,0-0.13-0.01-0.2-0.01c-0.01,0-0.05-0.01-0.08-0.01c-0.07-0.01-0.18-0.04-0.21-0.04
		c-0.23-0.05-0.44-0.14-0.66-0.22c-0.28-0.1-0.54-0.11-0.81-0.09c-0.29-0.27-0.4-0.42-0.6-0.8c-0.04-0.07-0.07-0.14-0.11-0.21
		c-0.01-0.02-0.05-0.12-0.06-0.15c-0.07-0.21-0.13-0.42-0.18-0.63c-0.01-0.07-0.03-0.14-0.04-0.22c0-0.02-0.01-0.11-0.01-0.16
		c-0.02-0.22-0.01-0.44,0-0.67c0.01-0.18,0.02-0.35,0.03-0.52c0-0.04,0.01-0.09,0.02-0.13c0.02-0.13,0.05-0.25,0.08-0.37
		c0.05-0.19,0.11-0.36,0.17-0.55c0.01-0.03,0.01-0.04,0.01-0.05c0.01-0.01,0.01-0.01,0.02-0.03c0.06-0.11,0.11-0.23,0.17-0.34
		c0.09-0.17,0.2-0.32,0.3-0.48c0.02-0.02,0.01-0.02,0.02-0.03c0.01-0.01,0.01-0.01,0.03-0.03c0.09-0.09,0.17-0.19,0.25-0.27
		c0.07-0.07,0.14-0.13,0.21-0.19c0.02-0.02,0.02-0.02,0.03-0.03c0.01-0.01,0.01,0,0.03-0.02c0.19-0.12,0.37-0.23,0.57-0.34
		c0.03-0.02,0.03-0.02,0.04-0.03c0.01,0,0.02,0,0.05-0.01c0.1-0.03,0.2-0.07,0.3-0.09c0.1-0.03,0.2-0.05,0.3-0.07
		c0,0,0.02,0,0.03-0.01c0.04,0,0.1-0.01,0.12-0.01c0.22-0.01,0.44,0,0.67,0.01c0.04,0,0.04,0,0.05,0c0.01,0,0.01,0.01,0.05,0.01
		c0.12,0.03,0.24,0.05,0.35,0.08c0.2,0.05,0.4,0.12,0.6,0.2c0.04,0.02,0.11,0.05,0.15,0.07c0.11,0.05,0.22,0.11,0.32,0.18
		c0.11,0.06,0.21,0.13,0.31,0.2c0.03,0.02,0.1,0.07,0.13,0.1c0.16,0.13,0.32,0.27,0.47,0.43c0.07,0.08,0.14,0.15,0.21,0.23
		c0.01,0.01,0.06,0.07,0.08,0.1c0.01,0.01,0.02,0.02,0.02,0.03c0.13,0.19,0.25,0.37,0.35,0.57c0.01,0.03,0.06,0.13,0.09,0.18
		c0.02,0.05,0.07,0.2,0.09,0.24c0.03,0.1,0.06,0.2,0.08,0.3c0.01,0.04,0.04,0.18,0.05,0.24c0,0.06,0.01,0.17,0.02,0.2
		C162.67,242.53,162.67,242.65,162.67,242.77z M161.36,245.01C161.41,244.97,161.42,244.97,161.36,245.01L161.36,245.01z
		 M235.07,228.62c-2.02,1.84-4.49,3.13-6.91,4.37c-2.48,1.27-5.02,2.4-7.61,3.43c-5.57,2.21-11.32,3.97-17.1,5.52
		c-12.91,3.46-26.05,5.96-39.06,9.02c3.7-5.81,7.35-11.65,10.93-17.54c0.21,0,0.43-0.03,0.66-0.1c10.44-3.34,20.71-7.15,31.09-10.67
		c5.44-1.84,10.92-3.58,16.43-5.2c2.52-0.74,5.05-1.44,7.59-2.1c1.17-0.3,2.35-0.59,3.53-0.86c0.51-0.12,1.02-0.23,1.54-0.34
		c0.3-0.06,0.6-0.12,0.9-0.19c0.02-0.01,0.03-0.01,0.05-0.01c0.16,0.12,0.51,0.34,0.21,0.09c0.5,0.42,0.59,0.54,0.84,0.97
		c0.64,1.07,1.02,2.14,1.19,3.48C239.85,222.41,237.92,226.03,235.07,228.62z"/>
	<path class="st1" d="M193.07,209.43c-2.25,2.56-4.38,5.23-6.34,7.96c-0.54,0.75-0.37,1.79,0.38,2.33c0.29,0.21,0.63,0.31,0.97,0.31
		c0.52,0,1.03-0.24,1.36-0.7c1.89-2.64,3.96-5.23,6.13-7.71c0.61-0.69,0.54-1.75-0.15-2.36
		C194.73,208.67,193.68,208.73,193.07,209.43z"/>
	<path class="st1" d="M204.73,200.19c0.33,0.39,0.8,0.59,1.28,0.59c0.38,0,0.76-0.13,1.07-0.39c4.8-4.04,10.1-7.81,15.75-11.21
		c0.79-0.48,1.05-1.5,0.57-2.29c-0.48-0.79-1.5-1.05-2.29-0.57c-5.8,3.49-11.25,7.36-16.18,11.51
		C204.23,198.43,204.14,199.48,204.73,200.19z"/>
	<path class="st1" d="M368.3,133.02c5.28-0.38,10.63-0.41,15.87-0.1c1.12,0.07,2.26,0.18,3.38,0.33c0.08,0.01,0.15,0.02,0.23,0.02
		c0.82,0,1.54-0.61,1.65-1.45c0.12-0.91-0.52-1.75-1.43-1.88c-1.2-0.16-2.42-0.28-3.62-0.35c-5.39-0.32-10.88-0.29-16.31,0.1
		c-0.92,0.07-1.61,0.86-1.55,1.78C366.58,132.4,367.37,133.09,368.3,133.02z"/>
	<path class="st1" d="M303.09,160.25c0.26,0.15,0.54,0.22,0.83,0.22c0.58,0,1.14-0.3,1.45-0.84c2.57-4.49,7.2-8.65,13.77-12.37
		c0.8-0.45,1.09-1.47,0.63-2.27c-0.45-0.8-1.47-1.09-2.27-0.63c-7.1,4.01-12.16,8.6-15.02,13.62
		C302.01,158.78,302.29,159.8,303.09,160.25z"/>
	<path class="st1" d="M333.17,140.69c0.2,0,0.39-0.03,0.59-0.11c6.01-2.26,12.26-4.06,18.58-5.36c0.9-0.19,1.48-1.07,1.3-1.97
		s-1.07-1.48-1.97-1.3c-6.49,1.33-12.91,3.18-19.08,5.51c-0.86,0.32-1.3,1.29-0.97,2.15C331.86,140.28,332.49,140.69,333.17,140.69z
		"/>
	<path class="st1" d="M396.94,163.08c-3.42,1.24-7.36,1.82-12.38,1.82c-2.25,0-4.48-0.11-6.36-0.22c-0.92-0.06-1.71,0.65-1.76,1.57
		c-0.05,0.92,0.65,1.71,1.57,1.76c1.93,0.11,4.22,0.23,6.55,0.23c5.42,0,9.71-0.64,13.51-2.02c0.87-0.31,1.31-1.27,1-2.14
		C398.77,163.21,397.81,162.77,396.94,163.08z"/>
	<path class="st1" d="M361.89,163.69c-7.61-0.44-13.85-0.73-19.63-0.94c-0.02,0-0.04,0-0.06,0c-0.89,0-1.64,0.71-1.67,1.61
		c-0.03,0.92,0.69,1.69,1.61,1.73c5.76,0.2,11.97,0.5,19.56,0.93c0.03,0,0.07,0,0.1,0c0.88,0,1.61-0.69,1.67-1.57
		C363.51,164.53,362.81,163.75,361.89,163.69z"/>
	<path class="st1" d="M387.39,189.84c-6.47,0.48-13.04,0.81-19.51,1c-0.92,0.03-1.65,0.79-1.62,1.72c0.03,0.91,0.77,1.62,1.67,1.62
		c0.02,0,0.03,0,0.05,0c6.53-0.19,13.14-0.53,19.67-1.01c0.92-0.07,1.61-0.87,1.54-1.79C389.11,190.46,388.32,189.76,387.39,189.84z
		"/>
	<path class="st1" d="M408.47,148.42c0.01,0.21,0.02,0.41,0.02,0.61c0,1.43-0.28,2.86-0.83,4.26c-0.34,0.86,0.08,1.83,0.94,2.16
		c0.2,0.08,0.41,0.12,0.61,0.12c0.67,0,1.29-0.4,1.55-1.06c0.7-1.79,1.06-3.64,1.06-5.48c0-0.26-0.01-0.53-0.02-0.8
		c-0.28-5.02-2.97-9.4-7.78-12.67c-0.76-0.52-1.8-0.32-2.32,0.44c-0.52,0.76-0.32,1.8,0.44,2.32
		C406.12,141.03,408.25,144.42,408.47,148.42z"/>
	<path class="st1" d="M422.97,185.73c-6.41,1.01-12.92,1.89-19.37,2.6c-0.92,0.1-1.58,0.93-1.47,1.84c0.1,0.85,0.82,1.48,1.66,1.48
		c0.06,0,0.12,0,0.19-0.01c6.49-0.73,13.06-1.61,19.51-2.62c0.91-0.14,1.53-1,1.39-1.91C424.74,186.21,423.88,185.58,422.97,185.73z
		"/>
	<path class="st1" d="M458.09,178.7c-6.3,1.53-12.72,2.94-19.09,4.19c-0.9,0.18-1.49,1.05-1.32,1.96c0.16,0.8,0.85,1.35,1.64,1.35
		c0.11,0,0.21-0.01,0.32-0.03c6.41-1.26,12.88-2.68,19.23-4.22c0.9-0.22,1.45-1.12,1.23-2.02C459.89,179.03,459,178.48,458.09,178.7
		z"/>
	<path class="st1" d="M254.29,171.63c-6.41,2-12.64,4.37-18.52,7.03c-0.84,0.38-1.21,1.37-0.83,2.21c0.28,0.62,0.89,0.98,1.52,0.98
		c0.23,0,0.46-0.05,0.69-0.15c5.75-2.61,11.86-4.92,18.14-6.88c0.88-0.27,1.37-1.21,1.1-2.09
		C256.1,171.85,255.17,171.36,254.29,171.63z"/>
	<path class="st1" d="M289.76,164.3c-5.38,0.63-10.66,1.43-15.7,2.39c-1.27,0.24-2.55,0.5-3.82,0.77c-0.9,0.19-1.48,1.08-1.29,1.98
		c0.17,0.79,0.86,1.32,1.63,1.32c0.12,0,0.23-0.01,0.35-0.04c1.25-0.27,2.5-0.52,3.75-0.76c4.96-0.94,10.16-1.74,15.46-2.36
		c0.92-0.11,1.57-0.94,1.46-1.85C291.51,164.85,290.68,164.2,289.76,164.3z"/>
	<path class="st1" d="M316.86,186.58c-0.31-0.14-0.63-0.29-0.94-0.45c-5.39-2.68-9.77-7.24-11.72-12.21
		c-0.34-0.86-1.31-1.28-2.16-0.95c-0.86,0.34-1.28,1.31-0.94,2.16c2.24,5.72,7.23,10.95,13.34,13.98c0.34,0.17,0.69,0.34,1.04,0.49
		c0.23,0.1,0.46,0.15,0.69,0.15c0.63,0,1.24-0.36,1.52-0.98C318.06,187.95,317.7,186.96,316.86,186.58z"/>
	<path class="st1" d="M325.85,162.43l-0.94,0c-6.65,0-12.79,0.16-18.76,0.48c-0.92,0.05-1.63,0.84-1.58,1.76
		c0.05,0.89,0.79,1.58,1.67,1.58c0.03,0,0.06,0,0.09,0c5.91-0.32,11.99-0.48,18.58-0.48l0.94,0c0,0,0,0,0,0
		c0.92,0,1.67-0.75,1.67-1.67C327.52,163.18,326.78,162.44,325.85,162.43z"/>
	<path class="st1" d="M351.59,191c-3.62-0.03-7.28-0.11-10.88-0.24c-2.55-0.09-5.56-0.22-8.57-0.5c-0.91-0.09-1.73,0.58-1.82,1.5
		c-0.09,0.92,0.58,1.73,1.5,1.82c3.1,0.3,6.17,0.43,8.77,0.52c3.63,0.12,7.32,0.2,10.97,0.24c0,0,0.01,0,0.01,0
		c0.92,0,1.66-0.74,1.67-1.65C353.26,191.76,352.51,191.01,351.59,191z"/>
	<path class="st1" d="M485.59,172.79c-0.27-0.88-1.21-1.37-2.09-1.1c-3.16,0.98-6.38,1.93-9.57,2.84c-0.89,0.25-1.4,1.18-1.15,2.06
		c0.21,0.73,0.88,1.21,1.6,1.21c0.15,0,0.3-0.02,0.46-0.06c3.21-0.91,6.46-1.87,9.64-2.86
		C485.37,174.61,485.87,173.67,485.59,172.79z"/>
</g>
</svg>
