<?xml version="1.0" encoding="utf-8"?>
<!-- Generator: Adobe Illustrator 26.3.1, SVG Export Plug-In . SVG Version: 6.00 Build 0)  -->
<svg version="1.1" id="Einhorn" xmlns="http://www.w3.org/2000/svg" xmlns:xlink="http://www.w3.org/1999/xlink" x="0px" y="0px"
	 viewBox="0 0 500.5 509" style="enable-background:new 0 0 500.5 509;" xml:space="preserve">
<style type="text/css">
	.st0{fill:#F5DCE4;}
	.st1{fill:#FFFFFF;}
	.st2{fill:#211F1B;}
	.st3{fill:#F8F4B7;}
</style>
<g id="Farbe_00000003794609113452334110000010095268546570273164_">
	<path class="st0" d="M367.38,215.44c-8.36-20.49-24.29-37.36-45.33-44.47c-3.03-12.3-9.64-23.66-19.89-31.27
		c-6.95-5.16-16.01-9.24-24.9-9.11c4.74-14.57-4.4-30.58-14.13-41.13c-12.01-13.04-27.51-22.95-42.89-31.53
		c-5.72-3.19-11.68-6.09-17.18-9.64c-3.55-2.29-7.2,2.12-5.47,5.47c2.89,5.59,1.57,14.4,0.27,20.5
		c-2.16,10.12-6.62,19.95-13.67,27.61c-7.12,7.74-15.92,11.75-25.97,14.15c-8.12,1.94-16.85,3.21-23.86,8.08
		c-8.5,5.91-10.76,15.1-10.77,24.74c-4.17,1.01-8.25,2.32-12.17,4.3c-13.08,6.6-22.55,18.37-28.18,31.7
		c-8.43,19.95-8.51,43.2-2.97,63.96c-8.18,7.41-13.23,17.03-12.19,29.32c-0.13,0.33-0.21,0.72-0.18,1.17
		c0.71,13.72,9,26.19,21.79,31.53c1.53,0.64,3.08,1.14,4.66,1.55c-0.71,0.44-1.19,1.21-0.84,2.14c6.04,16.21,12.5,32.23,19.08,48.23
		c6.46,15.7,12.56,31.69,19.68,47.1c0.37,0.8,0.99,1.26,1.69,1.47c0.18,0.39,0.44,0.74,0.88,0.98
		c22.62,12.09,46.55,18.37,72.1,19.88c26.17,1.55,52.73,1.8,77.92-6.46c13.47-4.42,28.84-11.02,38.32-21.96
		c0.37-0.23,0.67-0.57,0.91-0.99c0.04-0.04,0.08-0.08,0.12-0.13c0.73-0.91,0.88-1.98,0.69-2.97c5.86-32.77,15.19-65.07,27.76-95.88
		c0.28-0.69,0.07-1.3-0.33-1.76c2.72-2.81,5.19-5.89,7.29-9.26c1.16-1.85,0.8-3.65-0.25-4.93c2.95-3.93,5.05-9.19,6.7-13.07
		c2.64-6.23,4.51-12.74,5.53-19.43C373.62,241.99,372.49,227.96,367.38,215.44z"/>
	<path class="st1" d="M371.61,211.82c-8.84-21.87-25.44-38.5-45.67-45.79c-3.55-13.22-10.94-24.44-20.9-31.7
		c-7.15-5.22-15.24-8.48-22.61-9.18c5.13-22.66-19.25-44.77-27.11-51.19c-8.59-7.03-18.29-13.63-28.84-19.63
		c-2.5-1.42-5.04-2.78-7.58-4.13c-4.3-2.3-8.75-4.67-12.87-7.32c-2.63-1.7-5.69-1.45-7.99,0.63c-2.5,2.26-3.21,5.87-1.72,8.78
		c1.92,3.75,1.88,10.18-0.13,19.12c-2.33,10.36-6.92,19.4-13.3,26.14c-6.11,6.47-13.71,10.4-25.4,13.14l-2.7,0.62
		c-7.27,1.65-14.78,3.36-21.11,7.96c-7.2,5.23-10.78,12.86-11.19,23.94c-4.04,1.2-7.57,2.57-10.75,4.15
		c-12.75,6.36-23.29,18.14-29.68,33.15c-8.03,18.86-9.27,42.24-3.43,64.36c-8.7,8.41-12.69,18.42-11.87,29.77
		c-0.18,0.6-0.25,1.22-0.22,1.86c0.76,15.03,9.54,27.99,22.92,33.82c11.86,5.17,25.57,3.86,37.02-3.45
		c11.44,9.3,25.85,14.89,40.77,15.77c8.77,0.53,17.66-0.65,25.69-3.39c2.21-0.76,4.42-1.76,6.75-2.82
		c5.42-2.47,11.03-5.01,16.15-4.03c2.69,0.52,5.17,2.17,7.8,3.91c1.61,1.06,3.27,2.17,5.02,3.02c5.92,2.89,12.4,4.19,20.92,4.19
		c0.25,0,0.5,0,0.75,0c10.1-0.09,22.23-1.25,28.35-9.11c28.99,15.1,67.46,4.88,84.91-22.94c1.36-2.17,1.55-4.59,0.59-6.73
		c2.05-3.17,3.63-6.77,4.93-9.73l0.41-0.94c2.97-6.74,5.04-13.66,6.16-20.57C378.07,238.74,376.66,224.32,371.61,211.82z"/>
</g>
<g id="ol_00000062895740130555251240000001915575621212891827_">
	<path class="st2" d="M282.38,303.16c0.05-0.05,0.09-0.09,0.13-0.14c0.02-0.04,0.04-0.07,0.07-0.12c0.02-0.03,0.03-0.06,0.05-0.09
		C282.55,302.87,282.44,303.04,282.38,303.16z"/>
	<path class="st2" d="M316.69,202.29C315.79,202.8,316.36,202.53,316.69,202.29L316.69,202.29z"/>
	<path class="st2" d="M121.14,159.7c-0.04,0.03-0.08,0.06-0.12,0.09C120.73,160,120.2,160.55,121.14,159.7z"/>
	<path class="st2" d="M273.25,128.38c0.03-0.01,0.05-0.03,0.08-0.04C271.92,128.82,272.89,128.54,273.25,128.38z"/>
	<path class="st2" d="M211.3,46.97c-0.07-0.12-0.04,0,0.25,0.53c-0.01-0.03-0.02-0.07-0.04-0.1
		C211.44,47.25,211.37,47.11,211.3,46.97z"/>
	<path class="st2" d="M275.95,93.52c-0.01-0.01-0.01-0.02-0.02-0.03C275.75,93.25,275.19,92.61,275.95,93.52z"/>
	<path class="st2" d="M386.86,224.5c-2.35-16.92-11.26-33.14-23.37-45.13c-3.78-3.74-8.01-7.17-12.55-9.97
		c-4.23-2.61-8.96-4.59-13.74-6.11c-2.56-10.35-7.76-20.52-15.63-27.67c-7.85-7.15-17.9-12.13-28.57-12.9
		c-0.06,0-0.13-0.01-0.19-0.01c0.17-0.53,0.31-1.08,0.39-1.63c0.32-2.25,0.51-4.49,0.42-6.77c-0.16-4.2-0.99-8.41-2.47-12.35
		c-3.12-8.31-8.42-15.55-14.56-21.89c-6.38-6.6-13.69-12.21-21.19-17.47c-6.82-4.78-13.92-9.07-21.2-13.1
		c-5.44-3.01-11.11-5.75-16.32-9.14c-1.72-1.12-4.46-0.76-5.84,0.75c-1.49,1.62-1.81,3.89-0.75,5.84c0,0,0,0.01,0.01,0.01
		c0.05,0.07,0.13,0.23,0.21,0.43c0.05,0.1,0.09,0.2,0.15,0.3c-0.05-0.08-0.07-0.14-0.11-0.2c0.02,0.05,0.04,0.09,0.05,0.14
		c0.23,0.65,0.41,1.32,0.56,1.99c0.09,0.38,0.16,0.76,0.23,1.15c0.02,0.12,0.04,0.24,0.06,0.36c0.06,0.78,0.16,1.57,0.21,2.35
		c0.11,2.01,0.06,4.02-0.08,6.03c-0.07,1.03-0.2,2.05-0.31,3.07c-0.04,0.27-0.08,0.53-0.12,0.8c-0.09,0.58-0.19,1.16-0.3,1.74
		c-0.44,2.37-1.01,4.72-1.7,7.04c-0.37,1.23-0.77,2.45-1.2,3.65c-0.21,0.57-0.42,1.13-0.64,1.7c-0.12,0.31-0.24,0.61-0.36,0.91
		c-0.02,0.04-0.03,0.08-0.05,0.12c-1.1,2.43-2.25,4.83-3.62,7.13c-0.67,1.13-1.38,2.24-2.12,3.33c-0.39,0.57-0.79,1.13-1.2,1.68
		c-0.17,0.23-0.33,0.51-0.53,0.71c-0.01,0.01,0.57-0.71,0.25-0.32c-0.16,0.19-0.31,0.39-0.46,0.58c-1.73,2.13-3.62,4.14-5.67,5.98
		c-0.49,0.44-0.99,0.87-1.5,1.29c-0.25,0.2-0.5,0.4-0.75,0.6c-0.14,0.11-0.29,0.22-0.43,0.32c-1.13,0.83-2.3,1.61-3.5,2.34
		c-1.27,0.77-2.58,1.47-3.92,2.11c-0.27,0.13-0.53,0.25-0.8,0.37c-0.13,0.06-1.07,0.45-0.38,0.17c0.66-0.26-0.21,0.08-0.39,0.16
		c-0.3,0.12-0.6,0.24-0.9,0.35c-2.08,0.78-4.21,1.43-6.35,2c-8.5,2.27-17.59,3.31-25.31,7.83c-3.86,2.26-7.2,5.43-9.4,9.35
		c-2.72,4.84-3.31,10.52-3.3,15.97c0,0.08,0,0.16,0,0.23c-0.07,0.02-0.15,0.03-0.22,0.05c-1.56,0.35-3.1,0.78-4.62,1.28
		c-0.73,0.24-1.45,0.5-2.17,0.77c-0.67,0.26-2.57,1.07-0.64,0.26c-0.49,0.2-0.98,0.41-1.47,0.62c-0.42,0.18-0.85,0.37-1.27,0.56
		c-13.54,6.2-23.68,18.07-29.6,31.53c-3.79,8.62-5.94,17.69-6.87,27.05c-1.06,10.81-0.7,22.19,1.76,32.78c0.46,1.99,1,3.95,1.58,5.9
		c-5.49,5.22-10.03,12.02-11.56,19.48c-0.67,3.27-0.84,6.53-0.55,9.82c-0.17,0.38-0.25,0.8-0.24,1.24
		c0.33,10.58,5.38,20.62,13.71,27.16c3.72,2.92,7.89,5.01,12.29,6.27c-0.36,0.52-0.51,1.17-0.25,1.89c2.25,6.21,4.36,12.5,6.8,18.64
		c2.48,6.25,5.06,12.45,7.59,18.68c5.03,12.38,10.16,24.73,15.28,37.07c2.93,7.06,5.64,14.26,8.9,21.18c0.4,0.84,1.16,1.4,2.02,1.69
		c0.22,0.32,0.5,0.61,0.9,0.83c3.42,1.9,6.84,3.92,10.39,5.56c3.43,1.59,6.99,2.96,10.53,4.3c6,2.27,12.12,4.29,18.35,5.8
		c11.11,2.67,22.48,4.02,33.87,4.69c5.58,0.33,11.16,0.48,16.75,0.62c6.51,0.16,13,0.37,19.51,0.08
		c13.86-0.62,27.77-2.84,40.98-7.15c13.21-4.32,26.34-10.63,36.95-19.72c0.65-0.56,1.73-1.63,1.95-2.54c0.05-0.22,0-0.19-0.06-0.11
		c0.18-0.27,0.44-0.54,0.63-0.78c0.05-0.05,0.09-0.11,0.13-0.17c0.24-0.32,0.48-0.65,0.72-0.97c0.61-0.83,0.68-2.03,0.38-3.1
		c4.53-25.24,11.28-50.05,19.56-74.31c2.41-7.07,5.02-14.07,7.81-21c0.19-0.47,0.2-0.91,0.09-1.31c2.72-2.85,5.16-5.97,7.24-9.38
		c1.09-1.78,0.91-4.2-0.24-5.93c0.28-0.44,0.56-0.88,0.82-1.32c1.39-2.23,2.67-4.53,3.82-6.9c2.34-4.8,4.26-9.82,5.65-14.97
		C387.71,246.3,388.37,235.33,386.86,224.5z M284.36,122.52c-0.01,0-0.01,0.01-0.02,0.01c0.02-0.07,0.04-0.14,0.07-0.24
		C284.38,122.37,284.37,122.45,284.36,122.52z M142.81,136.29c0.34-1.31,0.76-2.59,1.24-3.85c0.04-0.1,0.06-0.15,0.06-0.17
		c0.01-0.03,0.03-0.07,0.06-0.13c0.12-0.28,0.25-0.55,0.38-0.82c0.26-0.53,0.54-1.04,0.83-1.55c0.55-0.98,1.11-1.92,1.75-2.84
		c0.04-0.06,0.06-0.09,0.08-0.12c0.01-0.01,0.01-0.01,0.03-0.03c0.14-0.17,0.28-0.35,0.43-0.52c0.36-0.42,0.74-0.82,1.13-1.21
		c0.34-0.33,0.68-0.65,1.04-0.96c0.18-0.15,0.37-0.29,0.54-0.45c0.07-0.05,0.13-0.1,0.2-0.15c0.78-0.57,1.61-1.08,2.45-1.55
		c0.44-0.25,0.89-0.48,1.35-0.7c0.23-0.11,0.46-0.22,0.69-0.32c0.1-0.05,0.2-0.09,0.3-0.13c0.4-0.19-0.02-0.03-0.2,0.07
		c0.31-0.24,1.04-0.39,1.37-0.51c0.49-0.18,0.98-0.35,1.48-0.51c2.05-0.66,4.13-1.22,6.22-1.7c4.35-1.01,8.75-1.76,13.1-2.78
		c10.82-2.54,20.69-7.74,28.14-16.13c7.38-8.31,12.42-18.66,14.94-29.46c1.07-4.6,1.76-9.37,1.8-14.1c0.01-0.51,0-1.02-0.01-1.53
		c1.51,0.83,3.02,1.66,4.52,2.5c6.8,3.84,13.58,7.78,20.17,11.98c3.69,2.35,7.29,4.83,10.79,7.46c0.37,0.28,0.74,0.56,1.11,0.84
		c0.18,0.14,0.36,0.28,0.54,0.43c0.94,0.74,1.87,1.49,2.78,2.25c1.61,1.34,3.19,2.72,4.73,4.14c3.11,2.89,6.06,5.96,8.71,9.28
		c0.16,0.2,0.31,0.41,0.48,0.61c-0.03-0.04-0.05-0.06-0.08-0.1c0.28,0.37,0.55,0.73,0.82,1.11c0.61,0.85,1.21,1.72,1.78,2.61
		c1.06,1.66,2.04,3.38,2.9,5.16c0.21,0.44,0.41,0.88,0.61,1.32c0.07,0.16,0.12,0.24,0.15,0.29c0.05,0.17,0.1,0.33,0.13,0.4
		c0.38,0.97,0.72,1.94,1.02,2.94c0.32,1.06,0.59,2.14,0.81,3.22c0.09,0.46,0.18,0.93,0.25,1.4c0.02,0.13,0.02,0.48,0.08,0.64
		c0,0.01,0,0.03,0,0.04c0.22,2.16,0.23,4.35,0.02,6.51c-0.1,1.08-0.25,2.13-0.22,3.21c0,0.06,0,0.13-0.01,0.19
		c-3.04,2.05-6.35,3.62-9.66,5.19c-0.43,0.21-0.87,0.4-1.31,0.6c0.03-0.01,0.06-0.02,0.09-0.03c-0.19,0.07-0.39,0.16-0.58,0.24
		c-1.09,0.44-2.18,0.84-3.29,1.22c-2.22,0.76-4.47,1.4-6.74,1.96c-2.42,0.6-4.86,1.1-7.31,1.54c-1.22,0.22-2.44,0.41-3.67,0.6
		c-0.4,0.06-0.82,0.15-1.23,0.21c-0.09,0-0.21,0-0.31,0.01c-0.51,0.06-1.02,0.13-1.53,0.19c-5.6,0.68-11.23,1.11-16.87,1.41
		c-12.2,0.65-24.43,0.84-36.64,0.78c-7.77-0.04-15.54-0.33-23.32-0.23c-7.02,0.09-13.97,0.83-20.9,1.94
		c-2.98,0.48-5.95,1.01-8.92,1.59C142.3,138.61,142.51,137.45,142.81,136.29z M98.47,209.94c0.11-2.48,0.31-4.97,0.61-7.44
		c0.03-0.23,0.06-0.46,0.08-0.68c0.01-0.06,0.01-0.1,0.02-0.15c0.01-0.03,0.01-0.06,0.02-0.11c0.08-0.56,0.16-1.11,0.25-1.67
		c0.18-1.15,0.39-2.29,0.61-3.43c0.84-4.24,2-8.41,3.51-12.46c0.17-0.46,0.35-0.92,0.53-1.38c0.1-0.25,0.63-1.82,0.23-0.59
		c0.32-0.98,0.85-1.95,1.3-2.88c0.81-1.68,1.69-3.31,2.66-4.9c0.98-1.61,2.03-3.18,3.15-4.69c0.22-0.29,1.2-1.42,0.24-0.33
		c0.29-0.32,0.54-0.68,0.81-1.02c0.6-0.73,1.21-1.44,1.84-2.14c1.15-1.28,2.37-2.5,3.63-3.66c0.61-0.56,1.23-1.1,1.86-1.63
		c0.31-0.26,0.63-0.52,0.95-0.78c0.16-0.13,0.33-0.24,0.48-0.38c-0.04,0.04-0.06,0.06-0.1,0.09c2.64-1.94,5.42-3.68,8.38-5.11
		c0.61-0.3,1.23-0.57,1.85-0.84c0.07-0.03,0.14-0.06,0.21-0.09c0.39-0.16,0.79-0.31,1.18-0.45c1.51-0.56,3.03-1.08,4.57-1.51
		c4.07-1.14,8.29-1.79,12.44-2.5c2.02-0.34,4.05-0.67,6.08-0.95c0.11-0.01,0.21-0.03,0.32-0.04c0.39-0.05,0.78-0.1,1.17-0.15
		c0.91-0.11,1.82-0.21,2.73-0.3c3.07-0.31,6.15-0.49,9.23-0.56c7.13-0.15,14.26,0.2,21.38,0.28c11.79,0.14,23.6-0.01,35.38-0.47
		c11.43-0.45,22.92-1.25,34.17-3.42c8.95-1.72,18.39-4.33,25.73-9.93c1.76-1.34,3.38-2.82,4.87-4.44c0.13,0.02,0.25,0.04,0.35,0.05
		c0.49,0.09,0.97,0.16,1.46,0.26c2.12,0.43,4.19,1.06,6.24,1.78c0.53,0.19,1.07,0.38,1.59,0.59c0.18,0.07,0.93,0.51,0.45,0.18
		c-0.47-0.32,0.38,0.17,0.56,0.25c1.09,0.49,2.15,1.02,3.2,1.59c1.13,0.61,2.23,1.27,3.3,1.98c0.53,0.35,1.06,0.71,1.57,1.08
		c0.22,0.16,0.45,0.32,0.67,0.49c0.02,0.01,0.07,0.05,0.13,0.08c0.03,0.02,0.06,0.05,0.12,0.1c2.15,1.73,4.16,3.59,6,5.64
		c0.99,1.1,1.95,2.22,2.89,3.37c0.03,0.04,0.05,0.05,0.07,0.08c0.03,0.04,0.04,0.06,0.08,0.11c0.22,0.3,0.44,0.59,0.66,0.89
		c0.44,0.61,0.86,1.23,1.27,1.86c0.88,1.35,1.69,2.73,2.44,4.16c0.38,0.71,0.73,1.43,1.08,2.16c0.17,0.37,0.35,0.74,0.51,1.11
		c0.07,0.16,0.14,0.32,0.21,0.49c0,0.01,0,0.01,0.01,0.01c0.01,0.02,0.01,0.03,0.02,0.04c1.25,3.12,2.26,6.32,3.01,9.6
		c0.29,1.28,0.54,2.57,0.75,3.86c0.01,0.08,0.03,0.23,0.05,0.37c0.03,0.22,0.06,0.48,0.07,0.6c0.08,0.74,0.14,1.48,0.19,2.22
		c0.09,1.54,0.1,3.08,0.02,4.62c-0.04,0.79-0.11,1.58-0.2,2.37c0,0.01,0,0.01,0,0.02c-0.01,0.04-0.01,0.08-0.02,0.14
		c-0.07,0.44-0.14,0.87-0.23,1.3c-0.33,1.71-0.8,3.4-1.39,5.04c-0.13,0.37-0.28,0.73-0.42,1.1c-0.07,0.16-0.14,0.33-0.22,0.49
		c-0.41,0.88-0.86,1.75-1.34,2.59c-0.49,0.85-1.01,1.68-1.57,2.49c-0.27,0.39-0.55,0.78-0.84,1.16c-0.18,0.21-0.35,0.43-0.53,0.64
		c-1.48,1.77-3.11,3.4-4.85,4.9c-0.46,0.4-0.93,0.79-1.41,1.17c-0.02,0.02-0.05,0.04-0.08,0.06c0.02-0.01,0.03-0.02,0.05-0.03
		c-0.31,0.17-0.6,0.45-0.88,0.66c-1.08,0.79-2.19,1.54-3.33,2.25c-2.57,1.61-5.27,3.03-8.02,4.31c-0.37,0.17-0.74,0.34-1.11,0.5
		c-0.08,0.04-0.39,0.17-0.63,0.28c-0.02,0-0.8,0.34-0.91,0.38c-0.46,0.19-0.91,0.37-1.37,0.54c-1.69,0.65-3.39,1.26-5.1,1.83
		c-3.96,1.31-7.98,2.39-12.04,3.35c-4.27,1.02-8.57,1.9-12.89,2.66c-2.1,0.37-4.2,0.7-6.31,1c-0.41,0.06-0.82,0.12-1.23,0.17
		c-0.1,0.01-0.58,0.08-0.75,0.1c-1.05,0.13-2.11,0.26-3.16,0.38c-7.57,0.85-15.18,1.29-22.8,1.37c-13.68,0.14-27.32-0.95-40.95-2.01
		c-12.56-0.98-25.19-1.78-37.78-1.01c-13.93,0.85-27.79,3.64-40.78,8.81c-5.96,2.38-11.74,5.28-16.94,9.04
		c-0.34-3.71-0.64-7.43-0.95-11.14C98.36,220.48,98.22,215.2,98.47,209.94z M163.6,404.52c-3.32-1.23-6.71-2.26-10.05-3.42
		c0.02-0.41-0.02-0.82-0.17-1.23c-2.38-6.38-5.28-12.6-7.96-18.87c-2.64-6.18-5.29-12.37-7.93-18.55
		c-5.25-12.28-10.62-24.52-15.96-36.77c-2.83-6.48-6.02-12.81-9.11-19.18c4.6,0.69,9.34,0.52,14.02-0.54
		c4.79-1.09,9.29-3.16,13.27-6c5,4.32,10.65,7.82,16.68,10.45c0.39,6.18,0.87,12.35,1.48,18.51c0.68,6.86,1.8,13.69,2.95,20.49
		c2.25,13.31,5.05,26.49,8.49,39.55c0.94,3.57,1.91,7.13,2.93,10.68c0.53,1.85,1.21,3.67,1.85,5.48c0.42,1.21,0.79,2.36,1.37,3.37
		c-0.21-0.06-0.42-0.12-0.63-0.18C171.04,407.17,167.3,405.9,163.6,404.52z M202.12,414.44c-0.05-0.01-0.09-0.02-0.13-0.02
		c-0.33-0.05-0.66-0.09-0.99-0.14c-0.67-0.1-1.33-0.2-1.99-0.31c-1.46-0.23-2.92-0.49-4.38-0.76c-4.47-0.84-8.9-1.86-13.3-3.03
		c0.11-0.14,0.21-0.28,0.28-0.45c0.44-0.96,0.76-1.79,0.73-2.86c-0.03-0.97-0.3-1.93-0.53-2.86c-0.43-1.71-0.83-3.43-1.26-5.15
		c-0.81-3.27-1.84-6.49-2.72-9.74c-1.76-6.51-3.35-13.06-4.91-19.62c-1.52-6.4-2.96-12.81-4.26-19.26
		c-1.33-6.6-2.36-13.25-3.62-19.87c-1.12-5.92-2.16-11.86-3.09-17.81c14.61,4.92,30.87,4.98,45.37-0.45
		c-0.03,0.16-0.04,0.33-0.03,0.51c0.46,6.87,0.76,13.77,1.45,20.62c0.7,6.87,1.39,13.75,2.08,20.62
		c1.37,13.59,2.82,27.17,4.31,40.74c0.78,7.09,1.63,14.15,2.66,21.2c-2.65-0.13-5.29-0.3-7.93-0.53
		C207.31,415.05,204.65,414.92,202.12,414.44z M226.07,416.1c-0.59-0.01-1.18-0.04-1.77-0.05c-0.98-13.31-2.59-26.56-4.06-39.83
		c-1.5-13.59-3.22-27.16-4.84-40.74c-0.94-7.86-2.25-15.67-3.45-23.49c-0.1-0.65-0.45-1.1-0.91-1.38c2.61-1.11,4.96-2.16,7.78-3.14
		c3.09-1.08,5.77-1.82,8.76-1.73c0.26,0.01,0.6-0.01,0.91,0.01c0.06,0.02,0.13,0.05,0.21,0.07c0.21,0.05,0.42,0.08,0.63,0.13
		c0.62,0.14,1.53,0.3,2.19,0.61c0.08,0.06,0.18,0.13,0.29,0.18c0.22,0.11,0.45,0.21,0.67,0.32c0.37,0.19,0.73,0.38,1.1,0.59
		c0.82,0.46,1.61,0.95,2.4,1.45c3.83,2.44,7.66,4.73,12.02,6.13c5.64,1.81,11.62,1.89,17.49,1.76c1.32-0.03,2.65-0.09,3.97-0.17
		c-0.9,5.48-1.79,10.97-2.49,16.48c-0.91,7.11-1.82,14.21-2.73,21.32c-1.81,14.12-3.44,28.26-5.09,42.39
		c-0.46,3.97-0.93,7.93-1.39,11.9c-0.29,2.48-0.68,5.01-0.85,7.54C246.64,416.84,236.33,416.36,226.07,416.1z M325.76,394.78
		c-2.71,1.94-5.52,3.74-8.41,5.41c-2.77,1.6-5.61,3.08-8.51,4.44c-0.6,0.28-1.21,0.56-1.82,0.83c-0.79-0.49-1.72-0.78-2.75-0.78
		c-2.32,0-4.56,1.68-5.21,3.91c-5.76,2.04-11.67,3.68-17.65,4.92c-3.31,0.69-6.65,1.25-10,1.73c-0.03,0-0.05,0.01-0.08,0.01
		c-0.05,0.01-0.11,0.01-0.18,0.02c-0.4,0.05-0.81,0.1-1.21,0.15c-0.81,0.1-1.62,0.19-2.43,0.27c-1.36,0.14-2.71,0.25-4.07,0.36
		c0.25-1.8,0.43-3.62,0.64-5.41c0.41-3.47,0.82-6.94,1.24-10.41c0.84-7.11,1.69-14.21,2.53-21.32c1.68-14.12,3.18-28.26,4.71-42.39
		c0.72-6.72,1.25-13.45,1.75-20.18c3.2-0.46,6.35-1.22,9.33-2.52c3.25-1.42,5.82-3.67,7.48-6.49c9.46,5.34,20.54,7.79,31.36,7.5
		c-1.06,3.9-2.1,7.8-3.02,11.73c-1.44,6.13-2.88,12.26-4.32,18.39c-1.42,6.05-2.82,12.11-4.15,18.18
		c-1.33,6.06-2.86,12.12-3.94,18.24c-0.61,3.44-1.16,6.89-1.86,10.31c-0.36,1.79-0.73,3.58-1.09,5.37
		c-0.18,0.87-0.45,1.76-0.49,2.65c-0.05,0.95,0.13,1.97,0.21,2.92c0.14,1.67,2.39,2.54,3.32,0.9c0.76-1.34,1.51-2.57,1.86-4.08
		c0.38-1.61,0.76-3.23,1.13-4.84c0.72-3.06,1.53-6.1,2.32-9.15c1.59-6.09,2.84-12.28,4.19-18.43c2.66-12.16,5.1-24.36,7.58-36.56
		c1.07-5.28,2-10.59,2.91-15.9c11.45-1.09,22.72-5.04,32.02-11.83c-9.95,21.72-17.96,44.31-23.29,67.62
		c-1.55,6.77-2.92,13.59-4.13,20.43c-0.62,0.26-1.2,0.56-1.75,0.97C328.58,392.76,327.18,393.77,325.76,394.78z M283.13,301.95
		c0.03-0.08,0.07-0.16,0.11-0.26C283.24,301.73,283.19,301.84,283.13,301.95z M378.96,244.43c-0.09,1.09-0.21,2.18-0.35,3.27
		c-0.03,0.21-0.08,0.58-0.09,0.62c-0.04,0.25-0.08,0.51-0.12,0.76c-0.11,0.7-0.23,1.4-0.36,2.09c-0.51,2.72-1.16,5.41-1.95,8.07
		c-0.4,1.35-0.84,2.7-1.32,4.03c-0.24,0.66-0.48,1.33-0.74,1.98c-0.12,0.3-0.23,0.6-0.35,0.9c0-0.01-0.22,0.54-0.27,0.65
		c-1.09,2.56-2.33,5.06-3.69,7.48c-0.8,1.41-1.8,2.81-2.6,4.29c-0.71,0.44-1.35,1.04-1.83,1.83c-0.76,1.25-1.56,2.47-2.43,3.65
		c-0.17,0.23-0.34,0.5-0.54,0.73c-0.06,0.06-0.12,0.12-0.16,0.17c-0.53,0.66-1.09,1.3-1.65,1.93c-1.94,2.16-4.08,4.1-6.32,5.94
		c-0.02,0.02-0.03,0.03-0.05,0.04c-0.29,0.21-0.57,0.43-0.86,0.63c-0.59,0.43-1.18,0.84-1.79,1.24c-1.21,0.81-2.45,1.57-3.71,2.28
		c-1.27,0.71-2.56,1.38-3.88,2c-0.44,0.21-0.91,0.48-1.39,0.68c-0.08,0.01-0.21,0.04-0.32,0.09c-0.45,0.18-0.9,0.36-1.36,0.53
		c-2.85,1.08-5.77,1.97-8.74,2.65c-1.31,0.3-2.62,0.55-3.95,0.77c-0.34,0.06-0.68,0.1-1.03,0.16c-0.03,0-0.06,0.01-0.1,0.01
		c-0.85,0.09-1.7,0.19-2.55,0.25c-2.91,0.23-5.84,0.25-8.75,0.06c-0.73-0.05-1.45-0.11-2.17-0.18c-0.36-0.04-0.72-0.08-1.08-0.12
		c-0.02,0-0.02,0-0.04,0c-0.01,0-0.02,0-0.03,0c-1.44-0.23-2.86-0.48-4.28-0.8c-1.65-0.37-3.28-0.82-4.89-1.35
		c-0.8-0.26-1.6-0.54-2.39-0.84c-0.28-0.11-0.56-0.22-0.84-0.33c-0.08-0.03-0.15-0.06-0.2-0.08c-0.03-0.01-0.06-0.03-0.1-0.05
		c-3.11-1.41-6.07-3.04-8.86-5.01c-3.14-2.21-7.36,0.77-7.38,4.24c0,0.26-0.02,0.51-0.02,0.77c-0.15,0.35-0.17,0.98-0.27,1.31
		c-0.03,0.09-0.06,0.18-0.09,0.27c-0.01,0.02-0.01,0.04-0.02,0.06c-0.02,0.03-0.03,0.06-0.04,0.07c-0.12,0.21-0.25,0.42-0.36,0.63
		c0.02-0.01,0.05-0.02,0.06-0.01c0.01,0.01-0.07,0.1-0.18,0.22c-0.18,0.31-0.19,0.27-0.13,0.14c-0.26,0.28-0.6,0.62-0.63,0.65
		c-0.12,0.11-0.25,0.22-0.38,0.33c-0.4,0.25-0.78,0.51-1.2,0.74c-0.22,0.12-0.44,0.24-0.66,0.35c-0.14,0.07-0.27,0.13-0.41,0.2
		c-0.47,0.21-0.37,0.17,0.29-0.11c0,0.27-2.72,0.93-3.06,1.02c-1.21,0.33-2.44,0.58-3.68,0.78c-0.23,0.04-0.46,0.07-0.7,0.11
		c-0.04,0.01-0.06,0.01-0.09,0.02c-0.02,0-0.04,0-0.07,0.01c-0.54,0.06-1.07,0.12-1.61,0.18c-1.26,0.12-2.53,0.21-3.8,0.27
		c-2.58,0.13-5.19,0.22-7.77,0.17c-0.75-0.01-1.49-0.05-2.24-0.1c-0.42-0.03-0.85-0.08-1.27-0.12c-0.04,0-0.11-0.01-0.19-0.02
		c-1.31-0.19-2.61-0.46-3.88-0.81c-1.08-0.3-2.13-0.67-3.19-1.06c-0.02-0.01-0.03-0.01-0.05-0.02c-0.21-0.09-0.41-0.18-0.62-0.27
		c-0.54-0.25-1.08-0.52-1.61-0.79c-1.64-0.85-3.2-1.82-4.77-2.79c-3.25-1.99-6.62-3.91-10.44-4.47c-6.71-0.99-13.15,1.39-19.23,3.97
		c-5.52,2.34-11.13,4.59-17.32,5.68c-0.64,0.11-1.29,0.22-1.94,0.31c-0.16,0.02-0.44,0.06-0.53,0.07c-0.35,0.04-0.71,0.08-1.06,0.11
		c-1.56,0.15-3.13,0.25-4.7,0.29c-2.93,0.07-5.86-0.06-8.77-0.38c-0.28-0.03-0.56-0.07-0.84-0.1c-0.11-0.02-0.7-0.1-0.8-0.12
		c-0.85-0.13-1.69-0.28-2.54-0.44c-1.68-0.33-3.36-0.72-5.01-1.18c-1.52-0.42-3.02-0.89-4.5-1.42c-1.79-0.64-2.81-1.05-4.17-1.67
		c-6.24-2.84-11.43-6.34-16.13-10.79c-1.67-1.58-4.12-1.52-5.8,0c-1.61,1.46-2.94,2.42-5.08,3.62c-2.16,1.2-3.5,1.77-5.96,2.49
		c-1.03,0.3-2.08,0.56-3.13,0.76c-1.45,0.28-1.58,0.29-2.99,0.4c-1.14,0.08-2.29,0.11-3.44,0.08c-0.5-0.01-1-0.04-1.5-0.07
		c-0.29-0.02-0.57-0.04-0.86-0.07c0.02,0-0.76-0.1-0.8-0.1c-4.56-0.7-8.06-2.07-11.82-4.62c-3.26-2.21-6.26-5.54-8.46-8.94
		c-2.61-4.02-4.33-8.47-4.77-13.2c-0.07-0.74-0.34-1.43-0.76-1.98c0.07-1.11,0.2-2.21,0.43-3.31c0.19-0.9,0.43-1.79,0.7-2.67
		c0.14-0.44,0.28-0.88,0.44-1.32c0.07-0.19,0.14-0.37,0.21-0.56c0.03-0.07,0.2-0.51,0.21-0.55c0.72-1.73,1.6-3.45,2.52-5.08
		c0.43-0.76,0.88-1.5,1.36-2.23c0.26-0.39,0.53-0.78,0.8-1.17c0.16-0.22,0.32-0.44,0.48-0.65c0.08-0.11,0.11-0.15,0.11-0.15
		c0.04-0.06,0.08-0.11,0.15-0.19c1.18-1.47,2.45-2.86,3.8-4.16c0.68-0.65,1.39-1.28,2.11-1.89c0.96-0.8,1.22-1,2.04-1.59
		c3.33-2.41,6.94-4.42,10.67-6.14c0.45-0.21,0.91-0.41,1.37-0.61c0.1-0.04,0.52-0.22,0.67-0.29c1.02-0.42,2.04-0.82,3.06-1.21
		c1.87-0.7,3.75-1.39,5.65-2.02c3.48-1.16,6.99-2.2,10.55-3.07c3.26-0.8,6.55-1.46,9.87-1.98c0.78-0.12,1.57-0.24,2.35-0.35
		c0.03,0,0.05-0.01,0.07-0.01c0.03,0,0.05-0.01,0.09-0.01c0.45-0.06,0.89-0.11,1.34-0.17c1.61-0.19,3.21-0.35,4.83-0.48
		c12.74-1.05,25.5-0.29,38.21,0.68c13.54,1.03,27.08,2.22,40.66,2.3c16.29,0.09,32.58-1.48,48.52-4.87
		c14.06-3,28.76-7.21,40.42-15.99c7.58-5.7,13.67-13.12,16.32-22.35c1.51-5.25,1.77-10.7,1.24-16.09c2.2,1.11,4.38,2.37,6.48,3.74
		c1.94,1.27,3.86,2.56,5.71,3.95c0.17,0.13,0.52,0.4,0.65,0.5c0.44,0.35,0.88,0.71,1.31,1.08c0.85,0.72,1.68,1.45,2.49,2.21
		c1.52,1.41,2.98,2.9,4.37,4.44c0.65,0.72,1.29,1.45,1.91,2.2c0.29,0.35,0.57,0.69,0.86,1.04c0.21,0.26,1.35,1.51,0.51,0.63
		c1.23,1.28,2.21,2.99,3.19,4.46c0.94,1.4,1.83,2.83,2.68,4.29c1.73,2.94,3.36,5.98,4.74,9.1c0.05,0.12,0.1,0.24,0.15,0.35
		c0.03,0.07,0.17,0.4,0.22,0.53c0.22,0.53,0.42,1.07,0.62,1.6c0.45,1.19,0.89,2.39,1.29,3.6c0.79,2.42,1.45,4.89,1.97,7.39
		c0.24,1.12,0.44,2.25,0.63,3.39c0.04,0.25,0.08,0.5,0.12,0.76c0.01,0.07,0.07,0.49,0.09,0.67c0.07,0.54,0.13,1.07,0.19,1.61
		c0.26,2.48,0.39,4.98,0.39,7.48C379.29,239.43,379.17,241.94,378.96,244.43z"/>
</g>
<path id="Farbe" class="st3" d="M333.17,116.87c-0.12-0.12-0.27-0.18-0.4-0.27c-0.49-0.93-1.37-1.64-2.76-1.63
	c-9.04,0.07-18.01,0.7-27.01,1.43c-0.22,0.02-0.4,0.09-0.59,0.16c0-0.26,0.04-0.49-0.03-0.77c-2.55-10.82-6.71-21.49-11.45-31.53
	c-1.23-2.61-4.74-1.48-5.57,0.73c-3.68,9.72-7.3,19.41-10.61,29.26c-2.61,0.07-5.16,0.13-7.77,0.56c-2.68,0.43-5.36,0.83-8.03,1.3
	c-2.67,0.47-5.33,0.96-7.99,1.45c-2.11,0.38-5.07,0.78-6.63,2.51c-0.74,0.36-1.23,1.27-0.85,2.05c0.03,0.43,0.18,0.84,0.52,1.16
	c0.41,0.39,0.89,0.65,1.38,0.85c1.16,1.18,2.3,2.39,3.57,3.48c1.84,1.59,3.64,3.23,5.56,4.72c1.86,1.43,3.71,2.87,5.57,4.3
	c1.49,1.15,2.98,2.39,4.54,3.48c-0.21,0.34-0.38,0.72-0.41,1.2c-0.66,8.83-0.99,17.64-1.3,26.49c-0.08,2.19,2.59,3.76,4.45,2.55
	c4.06-2.62,8.12-5.24,12.17-7.87c1.99-1.29,3.98-2.59,5.97-3.88c0.76-0.49,1.52-0.99,2.28-1.48c0.2,0.23,0.42,0.46,0.74,0.65
	c4.46,2.67,8.91,5.3,13.51,7.72c4.6,2.41,9.19,4.83,13.78,7.24c2.39,1.26,5.06-0.32,5.2-2.99c0.32-5.81-0.02-11.57-0.92-17.32
	c-0.77-4.92-1.95-9.94-3.77-14.61c0.16-0.15,0.31-0.29,0.47-0.44c0.79-0.78,1.57-1.55,2.36-2.33c1.62-1.6,3.23-3.19,4.85-4.79
	c3.2-3.16,6.19-6.48,9.19-9.82C334.07,119.41,334.16,117.87,333.17,116.87z"/>
<path id="ol" class="st2" d="M336.77,109.67c-0.09-0.09-0.18-0.15-0.27-0.22c-0.58-0.98-1.64-1.64-2.84-1.66
	c-8.97-0.21-17.98,0.68-26.92,1.4c-0.01-0.26-0.05-0.52-0.11-0.78c-1.24-5.38-3.07-10.68-4.96-15.86c-1.96-5.36-4.14-10.65-6.6-15.8
	c-0.62-1.29-2.34-1.95-3.66-1.76c-1.53,0.23-2.52,1.21-3.06,2.63c-1.87,4.97-3.73,9.95-5.6,14.92c-1.74,4.63-3.22,9.33-4.73,14.03
	c-0.96-0.05-1.91-0.14-2.87-0.07c-1.46,0.11-2.92,0.23-4.36,0.44c-2.62,0.38-5.24,0.78-7.85,1.22c-2.6,0.44-5.2,0.93-7.8,1.4
	c-2.78,0.5-5.75,0.89-7.73,3.11c-0.08,0.09-0.15,0.2-0.22,0.31c-0.45,0.46-0.7,1.11-0.55,1.74c-0.01,0.94,0.39,1.86,1.34,2.34
	c0.33,0.16,0.65,0.29,0.98,0.41c1.03,1.13,2.04,2.28,3.19,3.31c1.73,1.54,3.41,3.17,5.23,4.59c1.84,1.43,3.68,2.87,5.52,4.3
	c1.49,1.16,2.97,2.49,4.54,3.62c-0.08,0.26-0.15,0.54-0.17,0.82c-0.37,4.42-0.77,8.81-0.93,13.24c-0.16,4.41-0.32,8.83-0.47,13.24
	c-0.09,2.64,3.12,4.53,5.37,3.08c4.12-2.65,8.24-5.3,12.35-7.97c2.02-1.31,4.04-2.62,6.06-3.94c0.56-0.36,1.12-0.73,1.68-1.09
	c0.15,0.13,0.31,0.25,0.48,0.36c4.42,2.73,8.83,5.41,13.43,7.84c4.59,2.42,9.18,4.84,13.77,7.26c2.89,1.52,6.09-0.39,6.27-3.6
	c0.34-5.98-0.02-11.9-0.97-17.81c-0.44-2.75-1.03-5.48-1.75-8.18c-0.38-1.42-0.81-2.83-1.27-4.23c-0.24-0.74-0.48-1.54-0.77-2.33
	c0.73-0.72,1.46-1.44,2.19-2.16c1.62-1.6,3.23-3.19,4.85-4.79c3.2-3.16,6.19-6.48,9.19-9.82
	C337.68,112.2,337.77,110.66,336.77,109.67z M318.18,123.01c-0.81,0.76-1.62,1.51-2.42,2.27c-0.38,0.36-0.74,0.7-1.07,1.07
	c-0.09,0.03-0.19,0.06-0.28,0.09c-1.63,0.69-2.31,2.06-2.52,3.74c-0.19,1.54,0.7,3.2,1.18,4.65c0.41,1.25,0.79,2.51,1.15,3.78
	c0.74,2.69,1.34,5.41,1.8,8.16c0.39,2.34,0.62,4.58,0.81,7.4c0.04,0.54,0.06,1.07,0.09,1.61c-2.62-1.31-5.24-2.62-7.86-3.92
	c-4.41-2.2-8.92-4.13-13.47-6.03c0.01-0.08,0.02-0.14,0.02-0.22c0.05-1.53-1.06-2.6-2.37-3.11c-2.6-1.02-5.65,1.87-7.71,3.22
	c-1.95,1.28-3.89,2.55-5.84,3.83c-2.18,1.43-4.36,2.88-6.54,4.32c0.05-2.17,0.1-4.34,0.15-6.52c0.1-4.42-0.03-8.82-0.14-13.23
	c1.78-1.28,2.58-3.93,0.6-5.81c-1.85-1.76-4.17-3.13-6.26-4.61c-1.9-1.35-3.81-2.71-5.71-4.06c-1.3-0.92-2.67-1.75-4.04-2.57
	c2.25-0.44,4.5-0.88,6.75-1.34c2.58-0.53,5.15-1.12,7.71-1.71c1.28-0.29,2.54-0.68,3.8-1.07c1.29-0.39,2.43-1.05,3.67-1.54
	c0.41-0.16,0.77-0.39,1.06-0.67c0.62-0.12,1.18-0.48,1.52-1.19c2.37-4.97,4.75-9.9,6.88-14.98c0.9-2.14,1.79-4.29,2.69-6.43
	c0.88,2.29,1.73,4.6,2.52,6.9c1.74,5.11,3.11,10.3,4.59,15.48c0.57,2,2.83,3.44,4.89,2.77c0.43-0.14,0.8-0.34,1.14-0.58
	c0.34,0.42,0.87,0.72,1.59,0.77c6.94,0.43,13.93,0.96,20.9,1.01c-1.51,1.3-3.01,2.63-4.48,4
	C321.41,119.99,319.79,121.5,318.18,123.01z"/>
</svg>
