<?xml version="1.0" encoding="utf-8"?>
<!-- Generator: Adobe Illustrator 26.3.1, SVG Export Plug-In . SVG Version: 6.00 Build 0)  -->
<svg version="1.1" id="daumen_x5F_hoch" xmlns="http://www.w3.org/2000/svg" xmlns:xlink="http://www.w3.org/1999/xlink" x="0px"
	 y="0px" viewBox="0 0 500.5 509" style="enable-background:new 0 0 500.5 509;" xml:space="preserve">
<style type="text/css">
	.st0{fill:#F0CAE3;}
	.st1{fill:#211F1B;}
</style>
<path id="farbe" class="st0" d="M334,263c0.9-9.5-3.5-16-8.9-22.7c10.4-10.3,4.7-28.6-1.8-40.3c4.2-8.7,3.5-19.1-1.5-27.5
	c-5.5-9.2-16.3-10.2-26-8.5c-8,1.4-16.1,3.9-23.8,6.9c2.4-5.3,3.6-11.5,4.2-16.6c1.3-9.4,0.7-19-1.8-28.2
	c-2.4-8.9-6.6-18.5-13.7-24.6c-6.5-5.6-16.1-7.2-22.2-0.1c-5.2,6-5.4,14.8-6,22.3c-0.8,11.3-3.7,22.4-8.6,32.5
	c-4.6,9.6-10.8,18.3-18.5,25.6c-7.5,7.2-16.7,12.6-23.5,20.5c-5.3,6.2-9.8,13.2-13.7,20.3c-0.9,1.6-1.8,3.3-2.7,5
	c-0.3,0-0.6-0.1-1,0c-15.6,2.8-30.8,7-45.7,12.4c-1.3,0.5-2.5,1.7-2.4,3.2c1.6,34.6,7.1,69,15.8,102.4c0.3,1.3,1.8,2.5,3.2,2.4
	c17.8-1.1,35.4-4.6,52.2-10.6c1.4,1.7,4.6,0.8,4.5-1.6c0-0.1,0-0.2,0-0.3c0.1-0.1,0.1-0.1,0.2-0.2c12.2,1.8,24.8,2.7,37.2,3.5
	c11.3,0.8,22.6,0.3,33.8-1.2c13.8-1.8,28.1-3.5,41.5-7.3c8.5-2.4,16.5-6.5,20-15.1c2.3-5.8,4.1-12.5,3-18.7
	c-0.8-4.5-3.2-8.3-6.2-11.6C327.9,279.3,333.2,271.1,334,263z"/>
<g id="ol">
	<path class="st1" d="M340.7,273c2.8-3.6,5.2-7.4,6.8-11.6c2.9-7.4,1.5-16.6-2.9-23.1c-1.3-1.9-2.9-3.7-4.4-5.4
		c7.6-7.6,6.2-20.9,2.7-30.4c-1.2-3.4-2.8-6.7-4.6-9.8c3.7-7.3,3.6-16,0.4-23.6c-1.2-2.8-2.6-5.7-4.8-7.8c-3.3-3.2-7.7-4.8-12.2-5.3
		c-4.3-0.5-8.6,0.1-12.8,0.9c-4.7,1-9.3,2.4-13.8,3.8c-2.9,0.9-5.7,1.9-8.6,3c0.6-1.3,1.1-2.5,1.6-3.8c1.7-4.5,2.7-9.3,3.3-14.1
		c1.2-9.4,0.4-19.1-2.2-28.2c-2.6-9.3-7.2-19.1-15.1-25c-4.1-3.1-9.5-4.7-14.5-2.8c-4,1.5-6.9,4.5-8.6,8.4
		c-3.6,8.2-2.8,17.7-4.2,26.2c-1.6,9.7-4.8,19.2-9.5,27.8c-4.7,8.8-10.9,16.8-18.3,23.5c-4.1,3.8-8.6,7.1-12.9,10.7
		c-3.2,2.7-6.5,5.4-9.2,8.6c-4.6,5.5-8.5,11.6-12.1,17.7c-1.4,2.3-2.8,4.8-4.1,7.3c-0.3,0-0.7,0-1,0c-15.6,2.8-30.8,7-45.7,12.4
		c-1.3,0.5-2.5,1.7-2.4,3.2c1.2,27,4.9,53.9,10.5,80.3c1.6,7.4,3.4,14.8,5.3,22.1c0.3,1.3,1.7,2.5,3.2,2.4
		c17.8-1,35.4-4.6,52.2-10.5c0,0.1,0.1,0.1,0.1,0.1c0.6,0.8,2,0.9,2.8,0.5c1-0.5,1.4-1.3,1.6-2.4c0-0.1,0-0.2,0-0.3
		c0.1-0.1,0.2-0.1,0.2-0.2c6.9,1,13.8,1.4,20.7,2c5.3,0.5,10.6,1,15.9,1.4c10.4,0.7,20.8,0.4,31.2-0.8c7.7-0.9,15.4-2.1,23.1-3.4
		c6.3-1,12.5-2,18.7-3.5c8.4-2,17.9-5.5,21.9-13.8c1.4-2.8,2.3-5.9,3.1-9c0.7-2.9,1.2-5.9,1.1-8.9c-0.2-5.6-2.7-10.4-6.5-14.4
		C338,276.1,339.4,274.6,340.7,273z M341,254.9c0-0.1,0-0.3,0-0.3C341,254.6,341,254.8,341,254.9z M329.7,167.3c0,0-0.1-0.1-0.2-0.2
		C329.6,167.2,329.7,167.3,329.7,167.3z M258.1,98.5C258,98.6,257.8,98.8,258.1,98.5L258.1,98.5z M199.7,201.2
		C199.6,201.4,199.6,201.3,199.7,201.2L199.7,201.2z M139.6,258.3c-0.6-6.8-1.1-13.6-1.5-20.4c13-4.7,26.3-8.7,39.8-11.9
		c-0.2,0.5-0.3,0.9-0.5,1.4c-1.3-0.6-3.1,0.4-2.7,2.2c0.4,1.5,0.7,2.9,1.1,4.4c0,0.1,0,0.2,0,0.3c-0.1,0.5-0.1,1-0.1,1.5
		c0,0.7,0.4,1.4,1,1.8c0.9,4,1.9,7.9,2.9,11.8c1.7,6.6,3.5,13.2,5.4,19.7c3.6,13,7.3,25.9,10.9,38.9c1,3.7,2.1,7.4,3.1,11
		c0.5,1.7,0.9,3.3,1.4,5c-15.3,5.3-31.2,8.7-47.3,9.8C146.6,309,142.1,283.8,139.6,258.3z M334.3,294.7c0,0.1,0,0.1,0,0.2
		c0,0.4-0.1,0.8-0.2,1.1c-0.6,3-1.5,5.9-2.6,8.8c0,0,0,0,0.1-0.1c0,0-0.1,0.1-0.1,0.2c0,0,0,0.1,0,0.1c0,0.1-0.1,0.2-0.1,0.2
		c0,0,0,0.1,0,0.1c-0.2,0.4-0.4,0.7-0.6,1.1c-0.2,0.3-0.4,0.7-0.6,1c-0.1,0.1-0.2,0.2-0.3,0.4c0,0,0,0,0,0c-0.5,0.6-1.1,1.2-1.7,1.7
		c-0.1,0.1-0.2,0.2-0.4,0.3c-0.4,0.3-0.7,0.5-1.1,0.8c-0.8,0.5-1.5,0.9-2.4,1.3c-0.4,0.2-0.8,0.4-1.2,0.6c-0.3,0.1-0.6,0.2-0.8,0.3
		c-2.2,0.8-4.4,1.5-6.6,2c-5.8,1.4-11.7,2.3-17.5,3.2c-1.5,0.2-3.1,0.4-4.6,0.6c-0.9,0.1-1.8,0.2-2.7,0.4c-0.4,0.1-0.8,0.1-1.2,0.2
		c0,0-1.2,0.2-1.3,0.2c-3.6,0.5-7.2,0.9-10.8,1.2c-10.3,1-20.6,1.3-30.9,0.4c-5.6-0.5-11.1-1.2-16.6-1.8c-7.6-0.8-15.2-1.8-22.8-1.7
		c-0.9,0-1.7,0.3-2.4,0.6c-0.9-3.2-1.8-6.4-2.7-9.6c-1.8-6.4-3.6-12.8-5.5-19.2c-3.7-12.9-7.3-25.9-11.2-38.8
		c-1.6-5.3-3.3-10.5-5.1-15.7c0.1-0.5,0.3-1,0.5-1.5c0-0.1,0.2-0.6,0.3-0.6c0.1-0.2,0.2-0.4,0.3-0.7c0.3-0.7,0.7-1.4,1-2
		c1.5-3.1,3-6.2,4.8-9.3c3.6-6.3,7.4-12.5,11.8-18.3c0.2-0.3,0.4-0.5,0.6-0.8c0.1-0.1,0.1-0.1,0.2-0.2c0-0.1,0.1-0.1,0.1-0.2
		c0.4-0.5,0.8-1,1.3-1.6c0.8-1,1.7-1.9,2.7-2.8c3.9-3.8,8.3-7.1,12.6-10.5c8-6.4,15-13.4,20.8-21.8c5.6-8.1,9.9-17.1,12.8-26.5
		c1.4-4.6,2.5-9.4,3.2-14.2c0.6-4.5,0.8-9,1.3-13.5c0.1-1.2,0.1-1.2,0.3-2.4c0.2-1,0.4-1.9,0.6-2.9c0.2-0.9,0.5-1.8,0.8-2.7
		c0-0.1,0.3-0.7,0.3-0.8c0.2-0.4,0.4-0.8,0.6-1.2c0.2-0.4,0.5-0.8,0.7-1.2c0.1-0.1,0.2-0.3,0.3-0.4c0,0,0,0,0,0
		c0.3-0.3,0.6-0.6,0.9-0.9c0.1-0.1,0.3-0.3,0.4-0.4c0,0,0.1-0.1,0.1-0.1c0,0,0.1,0,0.1-0.1c0.4-0.2,0.7-0.5,1.1-0.7
		c0.1-0.1,0.3-0.1,0.4-0.2c0.1,0,0.2-0.1,0.2-0.1c1.3-0.4,1.8-0.5,3.1-0.5c1.8,0.1,3.6,0.9,5.4,2.1c1.8,1.2,3.5,2.9,4.9,4.7
		c1.2,1.5,2.4,3.4,3.3,5.2c1,1.8,2,3.9,2.6,5.5c3.3,8.5,4.6,16.8,4.3,25.7c-0.2,4.7-0.6,8.3-1.8,13c-0.5,2.1-1.2,4.2-1.9,6.2
		c-0.4,1-0.7,1.8-0.9,2.3c-0.5,1-0.9,2-1.5,3c-0.5,0.9-1.1,1.8-1.6,2.8c-0.3,0.5-0.5,1.1-0.7,1.7c-3,1.3-5.9,2.7-8.8,4.2
		c-4.9,2.5-9.6,5.2-14.3,8.1c-2.4,1.5-4.6,3.1-6.9,4.7c-1.1,0.8-2.1,1.6-3.2,2.4c-1.2,0.9-2.1,2.1-3.1,3.2c-1.2,1.3,0.3,3.1,1.8,2.3
		c1-0.5,2-0.9,3-1.4c1.1-0.5,2.1-1.3,3.2-1.9c1.9-1.2,3.9-2.4,5.8-3.5c4-2.3,8-4.6,12.1-6.6c8.1-4,16.4-7.5,25-10.3
		c4.4-1.5,8.8-2.7,13.2-3.9c2.1-0.5,4.2-1,6.3-1.4c2.1-0.4,3.1-0.5,5.2-0.7c1.8-0.1,3.7-0.1,5.6,0.1c0,0,0.8,0.2,1,0.2
		c0.4,0.1,0.8,0.2,1.2,0.3c0.5,0.1,0.9,0.3,1.3,0.4c0.1,0,0.2,0.1,0.3,0.1c-0.1,0,0.6,0.3,0.6,0.3c1.6,0.8,2.2,1.2,3.4,2.5
		c0,0,0.1,0.1,0.1,0.2c0,0,0,0,0.1,0.1c0.1,0.1,0.2,0.2,0.2,0.3c0.4,0.5,0.7,1.1,1,1.6c0.4,0.7,0.8,1.5,1.1,2.2c0,0,0,0.1,0.1,0.1
		c0.1,0.2,0.1,0.4,0.2,0.6c0.2,0.4,0.3,0.9,0.5,1.4c0.3,0.9,0.6,1.8,0.8,2.7c0.1,0.5,0.2,1,0.3,1.5c0,0,0,0.2,0,0.3
		c0,0.2,0.1,0.5,0.1,0.7c0.1,1,0.1,2.1,0.1,3.1c0,0.6-0.1,1.1-0.1,1.7c0,0,0,0,0,0.1c0,0,0,0.1,0,0.1c-0.1,0.3-0.1,0.6-0.2,1
		c-0.5,2.5-1.2,4.2-2.6,6.3c-0.7,1.1-0.7,2.6,0,3.7c2.2,3.6,4,7.1,5.3,11c0.6,1.9,1.2,3.7,1.5,5.7c0.1,0.4,0.1,0.7,0.2,1.1
		c0,0.1,0.1,0.9,0.2,1c0.1,0.8,0.2,1.6,0.2,2.5c0,0.8,0,1.7,0,2.5c0,0.4,0,0.8-0.1,1.1c0,0.1-0.1,0.6-0.1,0.7
		c-0.2,1.3-0.5,2.6-1,3.8c0,0.1-0.3,0.6-0.3,0.7c-0.1,0.3-0.3,0.5-0.4,0.7c-0.2,0.3-0.4,0.6-0.6,0.9c0,0,0,0,0,0
		c-0.1,0.1-0.2,0.2-0.3,0.3c-0.4,0.5-0.9,0.9-1.4,1.4c0,0,0,0,0,0c-0.1,0.1-0.2,0.2-0.4,0.3c-0.3,0.2-0.7,0.4-1,0.6
		c-2.3,1.3-2.2,4.1-0.8,5.9c0.9,1.1,1.8,2.2,2.8,3.3c0.4,0.5,0.9,1,1.3,1.5c0.2,0.2,0.4,0.5,0.6,0.7c0.1,0.1,0.2,0.3,0.3,0.4
		c0.9,1.2,1.6,2.5,2.3,3.8c0,0,0,0,0,0c0,0.1,0.1,0.2,0.1,0.3c0,0,0,0,0,0c0,0,0,0.1,0,0.1c0,0,0,0,0-0.1c0.1,0.4,0.3,0.7,0.4,1.1
		c0.3,0.8,0.5,1.7,0.7,2.6c0.1,0.4,0.1,0.8,0.2,1.2c0,0.1,0.1,1,0.1,1.1c0.1,1.1,0.1,2.2,0.1,3.2c0,0.2,0,0.3,0,0.5
		c0,0.1,0,0.2,0,0.2c-0.1,0.2-0.1,0.4-0.1,0.5c-0.2,0.8-0.4,1.6-0.7,2.3c0,0.1-0.2,0.6-0.3,0.9c0,0.1-0.1,0.2-0.1,0.3
		c-0.1,0.2-0.1,0.3-0.2,0.5c-0.4,0.9-0.9,1.7-1.4,2.6c-0.9,1.6-2,3.1-3.1,4.6c0,0,0,0,0,0c-0.2,0.2-0.4,0.5-0.6,0.7
		c-0.3,0.4-0.7,0.8-1,1.2c-0.7,0.8-1.4,1.5-2.1,2.2c-0.6,0.6-1.3,1.2-2,1.8c-0.1,0.1-0.2,0.2-0.4,0.3c0,0,0,0,0,0
		c-0.4,0.3-0.7,0.5-1.1,0.7c-2.2,1.4-3,4.8-0.9,6.7c1,0.9,2,1.8,3,2.8c0.4,0.4,0.8,0.9,1.2,1.4c0.1,0.2,0.5,0.5,0.6,0.7
		c-0.4-0.5-0.4-0.6-0.2-0.2c0.1,0.2,0.2,0.3,0.3,0.5c0.6,0.9,1.1,1.8,1.6,2.7c0.1,0.2,0.2,0.5,0.2,0.7c0.2,0.6,0.3,1.2,0.4,1.7
		c0,0,0,0,0,0c0-0.1,0-0.1,0-0.1c0,0.3,0.1,0.5,0.1,0.8c0,0.5,0.1,1.1,0,1.6C334.4,293.5,334.3,294.1,334.3,294.7z M335.1,266.7
		C334.6,267.3,335,266.8,335.1,266.7L335.1,266.7z"/>
	<path class="st1" d="M339.5,245.1C339.5,245.1,339.5,245.1,339.5,245.1c-0.1-0.1-0.1-0.2-0.1-0.3
		C339.3,244.7,339.3,244.7,339.5,245.1z"/>
	<path class="st1" d="M331.4,305.2c0-0.1,0.1-0.2,0.1-0.3c0,0,0-0.1,0-0.1C331.1,305.3,331.2,305.4,331.4,305.2z"/>
	<path class="st1" d="M334.2,290.6C334.2,291.5,334.3,291,334.2,290.6L334.2,290.6z"/>
</g>
</svg>
