<?xml version="1.0" encoding="utf-8"?>
<!-- Generator: Adobe Illustrator 26.3.1, SVG Export Plug-In . SVG Version: 6.00 Build 0)  -->
<svg version="1.1" id="Bliz" xmlns="http://www.w3.org/2000/svg" xmlns:xlink="http://www.w3.org/1999/xlink" x="0px" y="0px"
	 viewBox="0 0 500.5 509" style="enable-background:new 0 0 500.5 509;" xml:space="preserve">
<style type="text/css">
	.st0{fill:#F4F1AF;}
	.st1{fill:#211F1B;}
</style>
<path id="farbe" class="st0" d="M290.7,203.46c0.2-2.1-2.11-3.35-3.89-2.96c-16.46,3.56-33.24,5.1-49.85,7.77
	c2.49-32.22,2.34-64.7,6.14-96.8c0.29-2.42-3.93-3.02-4.29-0.58c-0.07,0.45-0.11,0.9-0.17,1.35
	c-16.15,36.57-31.73,73.39-48.34,109.76c-5.99,13.1-12.07,26.16-18.3,39.15c-0.85,1.76,0.18,3.7,2.18,3.8
	c19.42,1.02,38.24-1.47,57.3-4.59c7.41,43.09,15.46,86.14,26.21,128.54c1.09,4.29,7.77,2.47,6.64-1.83
	c-0.09-0.35-0.18-0.71-0.27-1.07c8.79-45.3,16.26-91.05,21.78-136.87C287.67,233.94,289.26,218.71,290.7,203.46z"/>
<path id="ol" class="st1" d="M298.28,189.03c-16.44,3.59-33.24,5.07-49.83,7.75c2-25.42,2.59-50.92,4.26-76.36
	c0.45-6.82,1.05-13.64,1.86-20.42c0.29-2.42-3.93-3.02-4.29-0.58c-0.07,0.46-0.12,0.92-0.19,1.37
	c-7.86,17.79-15.58,35.64-23.31,53.48c-8.19,18.9-16.55,37.73-25.12,56.47c-5.95,13.03-12,26.02-18.21,38.93
	c-0.85,1.76,0.18,3.69,2.18,3.8c16.48,0.9,32.81-0.52,49.07-3.19c2.75-0.45,5.49-0.92,8.24-1.39c2.91,16.93,5.94,33.83,9.18,50.7
	c3.28,17.05,6.76,34.07,10.6,51c2.03,8.96,4.16,17.91,6.43,26.82c1.09,4.29,7.77,2.47,6.64-1.83c-0.1-0.36-0.18-0.73-0.28-1.09
	c1.1-5.9,2.05-11.84,3.07-17.75c1.08-6.25,2.54-12.43,3.59-18.69c1.88-11.3,3.77-22.59,5.6-33.9c3.62-22.33,6.92-44.71,9.62-67.17
	c1.8-14.98,3.37-29.98,4.77-44.99C302.36,189.89,300.06,188.64,298.28,189.03z M287,266.63c-3.21,22.1-6.94,44.13-10.65,66.15
	c-0.55,3.26-1.09,6.52-1.58,9.79c-0.54,3.58-0.83,7.19-1.4,10.76c-0.41,2.6-0.83,5.19-1.25,7.79c-2.77-11.25-5.38-22.55-7.84-33.87
	c-3.78-17.36-7.26-34.78-10.57-52.24c-1.91-10.07-3.75-20.15-5.56-30.24c-0.3-1.66-2.17-2.3-3.61-2.05
	c-14.42,2.51-28.79,5.12-43.45,5.71c-3.86,0.15-7.72,0.19-11.57,0.11c9.42-20.48,18.85-40.96,27.94-61.59
	c7.9-17.93,15.59-35.94,23.23-53.98c2.6-6.14,5.14-12.32,7.68-18.49c-0.78,7.12-1.4,14.27-1.81,21.42
	c-0.75,12.89-1.26,25.79-2.09,38.67c-0.55,8.55-1.2,17.09-2,25.62c-0.19,2.03,1.97,3.03,3.62,2.76c16.47-2.72,33.15-4,49.55-7.14
	C293.25,219.48,290.42,243.1,287,266.63z"/>
</svg>
