<?xml version="1.0" encoding="utf-8"?>
<!-- Generator: Adobe Illustrator 26.3.1, SVG Export Plug-In . SVG Version: 6.00 Build 0)  -->
<svg version="1.1" id="Einhorn" xmlns="http://www.w3.org/2000/svg" xmlns:xlink="http://www.w3.org/1999/xlink" x="0px" y="0px"
	 viewBox="0 0 500.5 509" style="enable-background:new 0 0 500.5 509;" xml:space="preserve">
<style type="text/css">
	.st0{fill:#FFFFFF;}
	.st1{fill:#E6C6DE;}
	.st2{fill:#211F1B;}
</style>
<g id="farbe">
	<path class="st0" d="M397.67,244.01c-9.28-30.61-27.34-57.84-44.87-84.3c-10.46-26.57-28.25-51.08-49.65-69.32
		c-0.02-0.02-0.04-0.02-0.07-0.04c-0.97-5.52-2.28-10.99-3.74-16.37c-0.73-2.7-1.51-5.39-2.29-8.08c-0.67-2.31-1.12-5.18-2.74-7.07
		c-3-3.49-7.57-1.28-11.1,0.03c-6.49,2.4-12.86,5.12-18.66,8.9c0.11-0.65-0.04-1.31-0.66-1.81c-8.53-6.89-17.83-11.6-28.47-14.26
		c-10.71-2.68-21.91-3.39-32.91-3.75c-8.81-0.29-17.62,0.42-26.24,2.19c-0.61-0.61-1.25-1.21-1.73-1.92
		c-1.13-1.68-2.03-3.5-2.88-5.33c-1.64-3.54-2.9-7.31-5.75-10.11c-2.94-2.9-7.49-4.84-11.35-2.46c-4.11,2.54-4.86,8.38-6.06,12.63
		c-1.78,6.31-3.43,12.65-5.11,18.99c-0.06,0.22-0.05,0.41-0.04,0.6c-2.12,1.26-4.17,2.6-6.12,4.05c-0.22,0.16-0.4,0.35-0.56,0.54
		c-10.31-10.48-20.32-21.21-30.46-31.84c-1.92-2.02-6.16,0.07-4.98,2.9c3.18,7.61,5.69,15.54,8.61,23.25
		c2.8,7.38,5.69,14.74,8.72,22.03c0.07,0.16,0.14,0.32,0.2,0.48c-7.49,9.63-13.29,19.75-17.57,31.25
		c-4.31,11.57-6.83,23.75-7.63,36.07c-1.57,24.07,4.02,48.37,15.67,69.48c6.04,10.95,13.67,20.59,22.64,29.2
		c-0.63,3.02-1.35,6.01-2.19,8.96c-0.65,2.29-1.27,4.69-3.25,6.15c-2.06,1.52-3.4,2.85-4.4,5.32c-2.72,6.7-3.52,15.03-1.42,22.01
		c1.91,6.35,6,10.82,12.08,13.25c-0.12,9.88,11.88,15.37,19.95,18.17c6.12,2.12,12.64,3.2,19.12,2.57c1.33-0.13,2.62-0.36,3.89-0.63
		c-3.74,7.97-7.38,15.99-10.99,24.03c-0.14,0.32-0.21,0.65-0.23,0.98c-8.1,11.31-13.32,24.63-15.31,38.41
		c-2.93,20.27,0.78,40.77,11.74,58.15c0.23,0.37,0.53,0.6,0.85,0.77c0.18,1.86,0.44,3.73,0.79,5.62c0.15,0.78,2.68,9.78,5.35,13.2
		c1.2,1.54,3.94-0.13,3.28-1.91c-2.38-6.41-3.38-12.12-1.18-18.78c2.35-7.12,7.1-13.36,12.14-18.8
		c11.16-12.05,25.06-21.59,39.31-29.63c4.06-2.29,8.33-4.67,12.77-6.32c-5.8,11.09-9.84,23.56-8.54,36.13
		c0.68,6.59,2.59,13.13,6.06,18.81c3.14,5.15,8.4,11.61,14.59,12.93c1.53,0.33,2.85-1.55,1.6-2.74c-2.09-1.99-4.6-3.41-6.7-5.43
		c-1.74-1.68-3.21-3.6-4.52-5.62c-1.19-10.74,1.91-22.21,6.63-31.71c5.35-10.77,12.89-19.18,23.54-24.84
		c25.45-13.53,55.33-13.04,81.96-23.14c12.01-4.55,23.06-11.26,31.68-20.87c7.56-8.44,13.1-18.46,16.82-29.14
		C405.31,292.77,404.7,267.21,397.67,244.01z"/>
	<path class="st1" d="M397.67,244.01c-9.28-30.61-27.34-57.84-44.87-84.3c-10.46-26.57-28.25-51.08-49.65-69.32
		c-0.02-0.02-0.04-0.02-0.07-0.04c-0.01-0.03-0.01-0.06-0.02-0.1c1.13,6.42,1.8,12.9,1.62,19.42c-0.28,10.15-2.37,21.37-8.22,29.93
		c0.33,0.16,0.65,0.33,0.98,0.49c-1.94,1.06-4.45,1.97-7.69,2.63c-0.99-0.46-1.99-0.93-2.98-1.38
		c-19.95-9.23-43.04-21.64-45.01-46.02c-0.58-0.48-0.87-1.27-0.35-2.15c5.25-8.96,25.75-28.12,25.58-28.23
		c-17.04-12.19-36.95-19.56-57.31-20.22c-10.79-0.35-24.83,0.48-41.85,5.4c-10.52,3.04-20.46,10.32-30.6,16.46
		c9.13,9.16,21.83,23.22,30.35,32.95c1.02,1.16,1.23,3.05,0,4.18c-8.22,7.56-16.42,15.16-24.55,22.82
		c-0.55,0.51-1.15,0.76-1.74,0.81c-1.07,0.22-2.22-0.15-2.9-1.41c-7.37-13.61-13.79-27.64-19.7-41.89
		c-7.45,9.6-13.23,19.69-17.49,31.14c-4.31,11.57-6.83,23.75-7.63,36.07c-1.57,24.07,4.02,48.37,15.67,69.48
		c2.39,4.33,17.15,31.46,22.64,29.2c6.8-2.8,5.78-21.86,6.42-26.57c1.11-8.2,0.2-20.13-2.23-34.61c9.01-7.71,11.7-10.66,22.85-14.01
		c11.94-3.59,23.8-7.09,35.2-12.22c9.17-4.12,16.85-9.35,20.69-19.02c0.05-0.13,0.14-0.22,0.21-0.33
		c-1.26-5.3,7.54,13.83,20.57,21.5c18.1,10.66,40.3,8.84,59.67,15.86c1.14,3.2,2.65,6.72,4.67,10.51
		c3.57,13.67,3.33,28.3,2.35,42.27c-0.6,8.51-1.6,17-2.91,25.44c-0.62,4.02-1.32,8.02-2.09,12.01c-0.38,1.96-0.71,3.91-1.19,5.8
		c0.03-0.02,0.06-0.05,0.09-0.07c-1.04,2.41-2.16,4.71-3.34,6.88c-25,18.98-58.23,26.12-85.94,39.86
		c-17.14,8.5-37.26,17.59-46.92,34.45c-8.85,15.43-17.35,36.38-13.85,53.79c4.97,24.71,19.28,52.3,21.72,55.43
		c1.2,1.54,3.94-0.13,3.28-1.91c-2.38-6.41-3.38-12.12-1.18-18.78c2.35-7.12,7.1-13.36,12.14-18.8
		c11.16-12.05,25.06-21.59,39.31-29.63c4.06-2.29,8.33-4.67,12.77-6.32c-5.8,11.09-9.84,23.56-8.54,36.13
		c0.68,6.59,2.59,13.13,6.06,18.81c3.14,5.15,8.4,11.61,14.59,12.93c1.53,0.33,2.85-1.55,1.6-2.74c-2.09-1.99-4.6-3.41-6.7-5.43
		c-1.74-1.68-3.21-3.6-4.52-5.62c-1.19-10.74,1.91-22.21,6.63-31.71c5.35-10.77,12.89-19.18,23.54-24.84
		c25.45-13.53,55.33-13.04,81.96-23.14c12.01-4.55,23.06-11.26,31.68-20.87c7.56-8.44,13.1-18.46,16.82-29.14
		C405.31,292.77,404.7,267.21,397.67,244.01z"/>
</g>
<g id="ol">
	<path class="st2" d="M151.22,198.39c0.01,0.04,0.01,0.09,0.02,0.13C151.23,198.43,151.22,198.4,151.22,198.39z"/>
	<path class="st2" d="M277.82,190.36c-1.23,0.63-2.47,1.25-3.71,1.88c-0.68,0.35-1.36,0.67-2.06,0.98c-0.38,0.17-0.75,0.33-1.13,0.5
		c-0.03,0.01-0.26,0.11-0.31,0.14c-0.17,0.07-0.33,0.14-0.5,0.2c-1.46,0.58-2.95,1.08-4.48,1.43c-0.36,0.08-0.73,0.14-1.09,0.21
		c-0.03,0.01-0.06,0.01-0.09,0.01c-0.05,0.01-0.1,0.01-0.15,0.01c-0.38-1.24-0.89-2.45-1.53-3.57c0.08-0.63-0.03-1.29-0.31-1.91
		c-0.44-0.95-0.96-1.85-1.56-2.71c1.52-0.21,3.03-0.55,4.44-1.11c1.51-0.6,2.87-1.49,4.08-2.57c1.18-1.05,2.78-2.85,2.6-4.53
		c-0.1-0.96-0.99-2.03-2.11-1.6c-0.95,0.36-1.43,0.9-2.07,1.63c-0.41,0.47-0.86,0.92-1.32,1.35c-0.13,0.13-0.27,0.25-0.41,0.37
		c-0.02,0.02-0.13,0.11-0.2,0.17c-0.08,0.06-0.19,0.15-0.22,0.16c-0.15,0.1-0.29,0.2-0.44,0.3c-0.52,0.34-1.07,0.62-1.63,0.9
		c-0.26,0.13-0.53,0.26-0.8,0.39c-0.02,0.01-0.03,0.01-0.04,0.02c-0.02,0.01-0.03,0.01-0.06,0.02c-0.17,0.06-0.34,0.13-0.51,0.2
		c-0.62,0.22-1.24,0.42-1.88,0.58c-0.74,0.19-1.55,0.35-2.33,0.48c-3.7-3.4-8.68-5.57-13.62-6.14c-0.5-2.46-0.43-4.96,0.15-7.41
		c0.43-1.83-2.25-2.56-2.81-0.77c-0.81,2.57-1.13,5.35-0.96,8.05c-2.37,0.12-4.61,0.61-6.7,1.42c-1.64,0.26-3.25,0.81-4.73,1.47
		c0,0,0,0,0,0c-0.17-0.26-0.35-0.52-0.51-0.79c-1.53-2.57-2.36-5.48-2.39-8.47c-0.02-1.71-2.52-1.68-2.63,0
		c-0.23,3.51,0.56,7.02,2.13,10.16c0.12,0.23,0.25,0.47,0.38,0.7c-2.66,1.63-5.08,3.69-7.27,5.87c-2.95,2.93-5.67,6.28-7.6,9.98
		c-2.41,4.6-3.62,9.89-3.93,15.06c-0.19,3.16,0.02,6.32,0.61,9.43c0.56,2.99,1.47,6.22,3.16,8.78c0.79,1.2,2.66,0.45,2.32-0.98
		c-0.59-2.5-1.41-4.93-1.91-7.46c-0.49-2.51-0.71-5.08-0.72-7.64c-0.01-4.87,0.88-9.9,2.87-14.37c1.95-4.39,5.1-8.4,8.76-11.74
		c-0.68,1.17-1.29,2.41-1.78,3.7c-3.2,8.34-1.14,17.91,5.38,24.04c6.63,6.24,16.56,8.59,25.02,4.87c0.78-0.34,1.53-0.75,2.27-1.2
		c-2.46,2.64-5.41,4.83-8.75,6.45c-3.97,1.92-8.26,2.82-12.64,3.17c-2.24,0.18-2.15,3.14,0,3.42c8.94,1.16,18.27-3.4,24.36-9.74
		c5.95-6.2,9.61-15.41,8.73-24.06c2.11-0.2,4.2-0.79,6.18-1.49c3.24-1.14,6.45-2.61,9.03-4.92c0.78-0.7,0.79-2.01,0.17-2.79
		C279.88,190.06,278.79,189.87,277.82,190.36z M264.41,195.73C264.35,195.74,264.34,195.74,264.41,195.73L264.41,195.73z
		 M233.08,189.28c0.09,0.04,0.17,0.09,0.26,0.13c0.46,0.18,0.89,0.11,1.25-0.11c2.89,0.39,5.12,2.86,5.12,5.86
		c0,3.27-2.65,5.92-5.92,5.92c-3.27,0-5.92-2.65-5.92-5.92C227.87,192.13,230.15,189.63,233.08,189.28z M255.16,207.81
		c0,2.17-1.76,3.93-3.93,3.93c-2.17,0-3.93-1.76-3.93-3.93s1.76-3.93,3.93-3.93C253.4,203.88,255.16,205.64,255.16,207.81z"/>
	<path class="st2" d="M407.88,242c-4.26-14.22-10.58-27.77-17.72-40.75c-7.08-12.88-14.91-25.36-23.03-37.6
		c-1.44-2.18-2.89-4.35-4.33-6.53c-9.22-23.09-23.98-43.94-41.24-61.68c-2.62-2.69-5.5-5.14-8.36-7.57
		c-0.02-0.01-0.04-0.02-0.05-0.04c-0.85-4.86-1.98-9.69-3.24-14.44c-0.78-2.96-1.61-5.9-2.46-8.84c-0.71-2.47-1.17-5.48-2.62-7.65
		c-3.12-4.66-8.92-1.57-12.96-0.05c-5.99,2.25-11.87,4.79-17.23,8.28c0.07-0.61-0.12-1.23-0.69-1.7
		c-6.72-5.49-14.03-9.76-22.29-12.48c-8.04-2.65-16.43-3.94-24.83-4.71c-8.66-0.79-17.48-1.29-26.15-0.65
		c-4.81,0.36-9.6,1.03-14.33,2c-0.62-0.64-1.28-1.25-1.76-1.96c-1.06-1.59-1.93-3.31-2.74-5.04c-1.63-3.49-2.86-7.22-5.57-10.07
		c-2.95-3.1-7.82-5.3-11.79-2.66c-4.05,2.69-4.78,8.52-6,12.83c-1.75,6.21-3.38,12.45-5.02,18.69c-0.06,0.24-0.08,0.47-0.06,0.68
		c-2.11,1.21-4.17,2.52-6.1,3.97c-0.22,0.16-0.41,0.35-0.59,0.55c-5.72-5.77-11.46-11.53-17.08-17.39
		c-2.27-2.37-4.51-4.75-6.73-7.16c-2.22-2.41-4.31-4.98-6.62-7.3c-1.04-1.04-2.77-1.14-3.91-0.23c-1.25,1-1.37,2.43-0.77,3.84
		c1.25,2.93,2.19,6.02,3.28,9.01c1.08,2.95,2.16,5.89,3.26,8.83c2.16,5.79,4.37,11.56,6.67,17.3c1.32,3.3,2.67,6.59,4.03,9.88
		c-1.78,2.22-3.6,4.37-5.2,6.75c-1.72,2.56-3.39,5.17-4.85,7.89c-2.97,5.51-5.54,11.25-7.7,17.13c-4.25,11.58-6.73,23.76-7.49,36.08
		c-1.48,24.14,4.24,48.5,16.03,69.59c3.26,5.83,6.96,11.49,11.14,16.7c3.39,4.22,7.16,8.15,11.09,11.87
		c-0.44,2.12-0.9,4.24-1.43,6.37c-0.54,2.19-1.06,4.56-2.09,6.59c-1.19,0.66-2.28,1.48-3.19,2.54c-0.52,0.61-1.02,1.28-1.43,1.99
		c-1.97,2.53-2.79,6.04-3.39,9.09c-0.74,3.74-1.04,7.6-0.56,11.39c0.9,7.16,4.41,13.83,11.15,16.97c0.59,0.28,1.2,0.51,1.8,0.75
		c-0.07,4.44,2.57,8.24,6.08,11c4.43,3.48,9.71,5.84,15.05,7.57c6.56,2.13,13.43,2.89,20.26,1.89c0.53-0.08,1.04-0.17,1.56-0.27
		c-3.73,7.95-7.36,15.94-10.96,23.96c-0.14,0.31-0.22,0.63-0.24,0.95c-7.93,11.07-13.11,24.07-15.17,37.57
		c-2.75,17.99-0.55,37.17,8.26,53.28c1.07,1.95,2.16,3.88,3.35,5.76c0.23,0.36,0.51,0.6,0.81,0.77c0.19,1.88,0.46,3.75,0.83,5.61
		c0.15,0.76,0.68,1.21,1.31,1.4c0.09,1.97,0.39,3.95,0.94,5.84c0.66,2.25,1.65,4.13,3.1,5.96c1.2,1.52,3.96-0.12,3.28-1.91
		c-0.61-1.61-1.22-3.25-1.71-4.9c-0.22-0.73-0.41-1.48-0.55-2.23c-0.04-0.2-0.07-0.41-0.11-0.61c-0.01-0.04-0.03-0.19-0.04-0.3
		c-0.05-0.44-0.09-0.88-0.12-1.32c-0.04-0.75-0.05-1.51-0.02-2.26c0.02-0.41,0.04-0.83,0.08-1.24c0.02-0.21,0.04-0.41,0.06-0.62
		c0.01-0.06,0.02-0.21,0.04-0.31c0.24-1.64,0.63-3.27,1.14-4.84c0.25-0.77,0.53-1.53,0.83-2.28c0.01-0.02,0.13-0.3,0.16-0.39
		c0.07-0.17,0.14-0.33,0.22-0.49c0.22-0.49,0.45-0.97,0.69-1.45c0.81-1.62,1.72-3.2,2.7-4.72c2.22-3.45,4.52-6.28,7.33-9.34
		c11.25-12.24,25.27-21.86,39.7-29.98c3.1-1.74,6.25-3.4,9.48-4.88c1.04-0.48,2.07-0.94,3.15-1.36
		c-5.51,10.51-9.38,22.14-8.71,34.04c0.7,12.35,6.11,24.79,16.53,31.93c1.39,0.95,2.63,1.57,4.28,1.91c1.51,0.31,2.87-1.55,1.6-2.74
		c-2.13-1.99-4.64-3.44-6.75-5.48c-1.76-1.71-3.28-3.62-4.61-5.67c-0.2-1.87-0.16-3.82-0.08-5.63c0.11-2.61,0.39-5.26,0.83-7.84
		c0.98-5.71,2.79-11.3,5.24-16.55c2.37-5.07,5.3-9.96,8.9-14.27c3.64-4.37,7.83-7.82,12.73-10.67
		c24.85-14.47,54.69-14.24,81.38-23.45c12.45-4.3,24.11-10.71,33.29-20.27c8.15-8.49,14.11-18.83,18.09-29.86
		C415.32,291.24,414.89,265.4,407.88,242z M294.55,61c0.8-0.3,1.61-0.59,2.41-0.88c0.93-0.34,2.17-1,3.19-0.91
		c0.6,0.05,0.73,0.44,0.95,0.99c0.48,1.22,0.77,2.54,1.13,3.8c0.78,2.71,1.56,5.41,2.3,8.13c2.85,10.48,5.22,21.2,5.3,32.1
		c0.04,5.54-0.48,11.08-1.8,16.46c-1.24,5.05-3.27,9.66-5.65,14.24c-6.38-2.97-12.83-5.83-18.96-9.26
		c8.72-15.18,12.83-32.91,11.55-50.38c-0.13-1.74-1.93-3.02-3.57-2.05c-11.24,6.68-20.97,16.92-26.3,28.95
		c-0.97,2.18-1.81,4.4-2.55,6.66c-0.12-0.15-0.25-0.3-0.38-0.45c-3.69-4.62-6.66-10.03-7.64-15.89c0.02-0.02,0.03-0.03,0.05-0.06
		c0.82-1.16,1.65-2.32,2.5-3.47c0.17-0.13,0.28-0.29,0.33-0.45c4.39-5.93,9.2-11.6,15.01-16.17c5.24-4.12,11.4-7.19,17.44-9.59
		C291.42,62.16,292.99,61.57,294.55,61z M337.75,217.48c-0.97-6.86-3.23-13.49-6.87-19.41c-4.09-6.66-9.77-12.15-16.57-16
		c-6.69-3.79-14.14-6.04-21.62-7.68c-7.56-1.65-15.24-2.72-22.83-4.26c-7.21-1.46-14.52-3.27-21.06-6.65
		c-6.95-3.59-12.7-8.88-16.46-15.78c-3.74-6.86-5.72-15.28-4.54-23.08c1.01-6.63,5.14-12.77,9.26-17.88
		c4.22-5.22,9.09-10.17,14.51-14.19c0.06,0.08,0.13,0.15,0.21,0.22c0.37,5.29,1.76,10.66,4.35,15.27
		c2.84,5.04,6.65,9.53,11.03,13.29c9.44,8.11,20.58,13.24,31.76,18.44c11.11,5.17,22.55,10.72,30.9,19.95
		c7.07,7.82,11.16,18.15,12.46,28.47c0.75,5.95,0.58,12.05-0.68,17.92c-0.65,3.03-1.55,6.02-2.74,8.89
		C338.51,215.85,338.13,216.67,337.75,217.48z M138.75,185.18c1-1.42,2.2-2.74,3.54-3.95c4.43-3.98,10.1-6.78,15.56-9.27
		c6.93-3.17,14.06-5.89,21.05-8.93c7.96-3.46,15.82-7.21,23.26-11.71c7.84-4.75,14.97-10.5,21.09-17.29
		c0.19,2.18,0.55,4.35,1.06,6.46c0.09,0.37,0.19,0.74,0.29,1.1c-1.79,4.03-4.47,7.66-7.75,10.62c-3.25,2.93-7.15,5.05-11.09,6.88
		c-10.81,5.02-22.1,8.61-33.51,11.97c-6.24,1.84-12.47,3.74-18.51,6.15C148.44,179.32,143.31,181.77,138.75,185.18z M290.41,79.51
		c0.32,15.27-3.53,30.44-11.16,43.69c-0.93-0.58-1.85-1.18-2.76-1.8c-4.03-2.76-7.92-5.97-11.31-9.56
		C270.05,98.86,278.95,87.32,290.41,79.51z M161.76,45.22c0.78-2.53,1.51-5.07,2.26-7.61c0.5-1.7,0.91-3.64,2.04-5.06
		c2.26-2.84,5.83-0.11,7.49,1.99c2.1,2.66,3.07,6.26,4.49,9.29c0.82,1.74,1.71,3.47,2.84,5.04c-2.18,0.57-4.34,1.2-6.47,1.9
		c-4.78,1.57-9.46,3.47-13.99,5.66c-0.84,0.41-1.69,0.84-2.53,1.26C159.17,53.54,160.47,49.38,161.76,45.22z M161.59,62.74
		c3.7-1.86,7.5-3.49,11.4-4.89c7.95-2.84,16.26-4.79,24.67-5.62c8.46-0.83,16.97-0.49,25.43,0.12c8.01,0.58,15.82,1.64,23.63,3.7
		c8.63,2.28,17.18,5.77,24.44,11.01c0.15,0.1,0.29,0.18,0.44,0.24c-6.63,4.97-12.16,11.18-16.77,18.04
		c-0.09-0.04-0.19-0.08-0.29-0.11c-1.65-0.41-3.29-0.88-4.94-1.3c-1.73-0.44-3.56-0.61-5.33-0.82c-3.35-0.41-6.73-0.54-10.11-0.55
		c-6.66-0.01-13.32,0.61-19.88,1.78c-13.09,2.32-25.72,7.09-37.26,13.65c-0.04-0.07-0.08-0.14-0.14-0.21
		c-3.63-4.54-7.26-9.04-11.14-13.37c-3.85-4.3-7.84-8.45-11.87-12.58c-0.97-0.99-1.95-1.98-2.92-2.97
		C154.46,66.76,157.91,64.59,161.59,62.74z M124.21,54.39c-0.8-2.19-1.58-4.39-2.37-6.59c0.58,0.61,1.16,1.21,1.74,1.82
		c3.97,4.18,8,8.29,12.07,12.38c8.17,8.23,16.42,16.39,24.68,24.51c4.51,4.43,9.08,8.83,13.46,13.39
		c-8.03,4.88-15.54,10.65-22.21,17.27C140.88,96.96,132.05,75.88,124.21,54.39z M113.34,188.42c-6.23-22.81-5.4-46.89,1.59-69.43
		c1.97-6.35,4.43-12.54,7.4-18.49c1.5-3.01,3.07-6.01,4.74-8.93c1.16-2.03,2.3-4.1,3.51-6.11c2.73,6.44,5.56,12.83,8.57,19.14
		c2.7,5.64,5.53,11.2,8.48,16.71c-0.37,0.41-0.76,0.8-1.12,1.22c-8.26,9.42-15.08,20.11-20.09,31.6c-1.45,3.33-2.64,6.69-3.63,10.19
		c-0.92,3.27-1.93,6.51-2.72,9.82c-1.66,6.92-2.65,13.9-2.77,21.01c-0.03,1.85,2.62,1.76,2.82,0c0.69-6.07,1.73-12.16,3.2-18.09
		c0.72-2.92,1.55-5.81,2.5-8.66c0.93-2.8,2.24-5.43,3.41-8.12c4.79-10.97,10.76-21.27,18.52-30.43
		c16.27-19.21,38.66-33.1,63.2-38.82c6.93-1.62,14-2.53,21.11-2.72c3.65-0.09,7.29,0.06,10.94,0.26c1.83,0.1,3.66,0.33,5.49,0.41
		c1.12,0.05,2.22,0.08,3.33,0.15c-4.9,2.75-9.31,6.43-13.27,10.37c-5.23,5.21-10.05,11.35-12.98,18.17
		c-1.91,4.47-2.63,9.35-2.45,14.21c-12.6,12.11-28.27,20.54-44.25,27.33c-7.27,3.09-14.64,5.94-21.84,9.18
		c-5.83,2.62-11.67,5.52-16.57,9.67c-4.1,3.47-6.97,7.89-7.9,13.07c-1.14,1.5-2.11,3.14-2.8,4.95c-1.34,3.51-2.02,7.28-2.53,10.99
		c-0.56,4.04-0.89,8.12-0.88,12.19C120.67,209.61,116.29,199.22,113.34,188.42z M132.75,229.25c-0.01-0.02-0.01-0.04-0.02-0.07
		c-0.17-0.72-0.3-1.46-0.42-2.19c-0.03-0.17-0.05-0.33-0.08-0.5c-0.01-0.05-0.01-0.11-0.02-0.14c-0.05-0.4-0.1-0.8-0.15-1.21
		c-0.11-0.96-0.19-1.92-0.24-2.88c-0.23-4.17-0.02-8.37,0.44-12.51c0.37-3.36,1.05-7.4,2.2-10.97c0.11-0.36,0.24-0.71,0.36-1.06
		c0.04-0.12,0.26-0.63,0.28-0.72c0.24-0.53,0.5-1.05,0.81-1.54c1.3-2.04,3.19-3.79,5.04-5.32c1.11-0.92,2.28-1.75,3.49-2.53
		c0.44,1.71,0.59,3.08,0.74,4.81c0.2,2.52,0.31,5.04,0.46,7.56c0.37,6.02,0.26,12.06-0.09,18.08c-0.47,8.16-1.29,16.01-2.65,23.87
		C139.26,237.93,135.87,233.68,132.75,229.25z M298.87,230.02c-0.11-1.25-1.82-1.24-1.94,0c-0.6,6.06-2.39,11.89-5.66,17.06
		c-3.26,5.14-7.24,9.96-11.66,14.16c-9.86,9.37-22.22,15.24-34.41,20.95c-6.51,3.05-13.06,6.07-19.33,9.59
		c-6.31,3.54-12.1,7.74-17.79,12.21c-2.87,2.25-5.73,4.53-8.7,6.65c-2.83,2.02-5.77,4.08-8.99,5.42
		c-6.07,2.53-12.89,2.91-19.31,1.73c-5.69-1.05-11.21-2.93-16.15-5.8c-2.33-1.36-4.15-2.73-5.93-4.78c-0.74-0.85-1.28-1.7-1.59-2.65
		c4.05,1.01,8.24,1.55,12.33,2.42c8.68,1.86,17.16,4.32,26.12,2.93c6.85-1.06,13.7-4.88,17.32-10.94c1-1.68,1.5-3.23,1.4-5.19
		c-0.1-1.94-2.5-2.55-3.57-0.97c-0.43,0.63-0.96,1.2-1.29,1.89c-0.36,0.75-0.73,1.48-1.18,2.17c-0.82,1.26-1.86,2.36-3,3.34
		c-2.38,2.05-5.35,3.42-8.37,4.21c-7.99,2.08-16.47-0.1-24.26-1.99c-6.03-1.46-12.36-1.83-18.21-4c-2.45-0.91-4.83-2.28-6.42-4.39
		c-1.88-2.49-3.04-5.73-3.49-8.87c-0.49-3.47-0.19-7.03,0.6-10.43c0.39-1.69,0.84-3.43,1.54-5.02c0.11-0.26,0.24-0.52,0.38-0.77
		c0.23-0.25,0.43-0.52,0.64-0.79c0.02-0.02,0.03-0.04,0.04-0.06c0,0,0,0,0.01,0c0.14-0.12,0.26-0.3,0.39-0.43
		c0.06-0.06,0.13-0.11,0.19-0.17c0.94-0.59,1.79-1.2,2.55-1.92c0.67-0.43,1.37-0.8,2.09-1.15c0.03-0.02,0.04-0.02,0.06-0.03
		c0.02-0.01,0.03-0.01,0.05-0.02c0.21-0.08,0.41-0.16,0.62-0.23c0.41-0.15,0.83-0.28,1.26-0.39c0.42-0.11,0.84-0.21,1.27-0.29
		c0.11-0.02,0.23-0.04,0.34-0.06c0.08-0.01,0.31-0.04,0.4-0.05c0.83-0.07,1.64-0.05,2.47,0c0.03,0,0.04,0,0.06,0
		c0.03,0.01,0.06,0.01,0.11,0.03c0.19,0.04,0.38,0.07,0.57,0.12c0.4,0.1,0.79,0.22,1.17,0.37c1.19,0.46,2.63-0.41,3.07-1.51
		c0.44-1.09,0.13-2.71-1.07-3.25c-2.68-1.21-5.66-1.47-8.56-1.05c0.28-0.85,0.55-1.7,0.81-2.54c0.55-1.79,1.03-3.61,1.48-5.44
		c0.87-0.62,1.32-1.78,0.66-2.8c1.93-8.8,2.84-17.91,3.36-26.82c0.34-5.92,0.46-11.87,0.17-17.8c-0.03-0.7-0.07-1.4-0.12-2.1
		c-0.02-0.29-0.04-0.59-0.06-0.88c-0.01-0.14-0.02-0.29-0.03-0.44c-0.01-0.09-0.11-0.87-0.11-0.85c-0.18-1.34-0.36-2.68-0.6-4.02
		c-0.37-2.14-0.94-4.25-1.66-6.3c-0.3-0.85-0.63-1.7-0.98-2.53c2.33-1.23,4.74-2.29,7.14-3.26c6.04-2.43,12.26-4.35,18.49-6.23
		c11.47-3.47,22.84-7.16,33.71-12.28c4.61-2.17,9.08-4.78,12.82-8.27c2.67-2.5,4.7-5.44,6.27-8.66c2.43,5.78,6.17,11.06,10.85,15.16
		c11.92,10.43,27.82,13.03,42.89,15.68c8.83,1.55,18.09,3.25,26.36,6.82c0.86,5.34,1.28,10.81,1.67,16.2
		c0.45,6.24,0.46,12.51,0.3,18.76c-0.33,12.99-1.75,25.95-3.89,38.76c-0.58,3.43-1.21,6.85-1.89,10.27
		c-0.32,1.57-0.65,3.14-0.99,4.71c-0.18,0.82-0.37,1.64-0.51,2.47c-0.06,0.37-0.05,0.72-0.02,1.07c-3.82,2.75-7.81,5.28-11.92,7.64
		c-16.93,9.71-35.48,15.75-53.57,22.85c-18.65,7.32-37.35,15.94-51.88,30.09c2.05-4.77,4.07-9.55,6.06-14.35
		c0.13-0.31,0.14-0.6,0.09-0.87c5.17-1.78,9.79-4.75,14.28-8.08c6.11-4.54,11.88-9.53,18.29-13.66c6.35-4.09,13.13-7.47,19.95-10.71
		c13.12-6.23,26.58-12.06,37.77-21.52c5.11-4.31,9.77-9.26,13.09-15.1c3.13-5.5,5.08-11.85,5.58-18.15
		C299.02,233.25,299.01,231.65,298.87,230.02z M163.73,391.61c1.62-17.35,8.61-34.44,20.44-47.33
		c13.35-14.55,31.41-23.52,49.47-30.79c18.15-7.31,36.88-13.25,54.17-22.53c8.22-4.41,16.06-9.6,23.08-15.76
		c3.43-3.01,6.58-6.4,9.41-9.98s5.54-7.46,7.18-11.74c0.78-2.05,1.54-4.09,2.35-6.13c0.29-0.72-0.93-1.24-1.27-0.53
		c-1.02,2.15-2.24,4.08-3.73,5.94c-1.43,1.79-2.65,3.72-4.07,5.52c-2.76,3.54-5.8,6.86-9.09,9.92c-1.7,1.58-3.45,3.09-5.24,4.55
		c0.16-0.77,0.31-1.54,0.47-2.31c0.61-3.01,1.17-6.03,1.69-9.06c1.13-6.57,2.06-13.18,2.78-19.8c1.41-12.93,2.08-25.99,1.04-38.97
		c-0.27-3.36-0.62-6.69-1.29-9.99c-0.47-2.31-1.05-4.54-1.75-6.76c4.36,2.2,8.39,5,11.84,8.72c10.03,10.8,13.43,26.67,11.1,41.06
		c-0.3,1.85-0.69,3.7-1.07,5.53c-0.33,1.58,1.85,2.68,2.7,1.14c2.92-5.29,4.23-11.58,4.29-17.7c3.78-3.74,5.93-9.43,7.43-14.41
		c1.62-5.38,2.42-11.06,2.46-16.67c0.07-11.29-3.25-22.67-9.61-32.03c-7.11-10.46-17.74-17.45-28.88-23.05
		c-0.99-0.5-1.98-0.98-2.98-1.46c2.7-4,4.48-8.68,5.74-13.3c0.47-1.73,0.86-3.48,1.18-5.24c11.34,7.83,20.49,18.7,25.88,31.43
		c1.69,3.99,3.03,8.15,4.32,12.28c0.66,2.11,3.62,1.22,3.26-0.9c-1.34-7.84-4.55-15.39-8.65-22.18c-3.92-6.5-8.84-12.43-14.61-17.36
		c-3.02-2.58-6.25-4.92-9.63-7.02c0.3-2.33,0.48-4.68,0.56-7.02c0.15-4.54-0.11-9.07-0.65-13.58c9.37,10.07,18.3,20.49,26.07,31.87
		c6.35,9.3,11.94,19.17,16.39,29.52c-0.26,0.64-0.24,1.4,0.25,2.19c0.61,0.97,1.22,1.95,1.83,2.92c0.82,2.13,1.61,4.27,2.34,6.43
		c9.31,27.91,9.18,58.86-0.98,86.53c-5.08,13.81-12.8,26.61-22.9,37.33c-10.58,11.24-23.29,20.16-36.59,27.88
		c-27.69,16.07-58.26,27.1-84.2,46.16c-22.94,16.85-43.44,42.24-44.78,71.75C164.82,422.81,162.3,406.82,163.73,391.61z
		 M246.58,384.49c-5.23,1.21-10.27,3.76-15.04,6.16c-7.28,3.67-14.23,7.9-20.9,12.58c-7.36,5.17-14.44,10.84-20.71,17.31
		c-5.45,5.63-10.41,11.97-13.48,19.23c1.33-26.73,17.63-50.43,38.45-66.95c21.93-17.39,48.01-28.12,72.75-40.9
		c-0.08,0.07-0.16,0.14-0.24,0.21c-6.7,5.87-12.63,12.39-18.07,19.44c-3.29,4.26-6.43,8.64-9.51,13.06
		c-3.94,5.66-7.95,11.31-11.56,17.18c-0.54,0.87-1.06,1.76-1.58,2.65C246.65,384.48,246.61,384.48,246.58,384.49z M403.52,306.83
		c-3.07,10.83-8.07,21.26-15.29,29.95c-8.08,9.73-18.61,16.7-30.36,21.27c-26.52,10.3-56.39,9.89-81.88,23.17
		c-5.31,2.77-10.38,6.04-14.58,10.34c-4.01,4.1-7.37,8.87-10.13,13.89c-4.84,8.82-8.61,19.29-8.63,29.54
		c-1.13-3.07-1.91-6.28-2.27-9.52c-1.55-13.75,3.6-27.19,10.42-38.88c3.5-5.99,7.51-11.68,11.45-17.39c3.03-4.4,6.1-8.77,9.31-13.03
		c5.04-6.7,10.68-13.13,16.82-18.97c6.1-5.81,12.74-11.01,19.2-16.41c10.51-6.44,20.56-13.7,29.39-22.31
		c10.69-10.43,19.26-22.88,25.2-36.58c11.4-26.35,13.73-56.47,7.13-84.38c0.19,0.3,0.37,0.59,0.56,0.89
		c5.5,16.49,7.77,34.15,6.77,51.45c-1.19,20.46-6.74,40.65-16.7,58.6c-5.56,10.02-12.4,19.36-20.15,27.79
		c-1.05,1.14,0.56,2.75,1.7,1.7c15.48-14.28,26.16-33.2,32.42-53.19c6.27-20.01,8.1-41.64,4.63-62.36c-0.93-5.57-2.28-11.05-4-16.41
		c9.47,15.55,18.28,31.48,24.62,48.54c4.51,12.11,7.55,24.71,8.17,37.64C407.88,283.83,406.72,295.57,403.52,306.83z"/>
	<path class="st2" d="M187.15,78.31c16.41-8.35,36.58-9.56,53.97-3.62c2.47,0.84,4.88,1.83,7.22,2.98c2.35,1.15,4.52,2.63,6.85,3.8
		c1.42,0.71,3.2-1.21,1.81-2.34c-1.91-1.55-4.19-2.71-6.38-3.81c-2.1-1.05-4.27-1.99-6.47-2.82c-4.52-1.71-9.23-2.91-14.01-3.62
		c-9.5-1.41-19.5-0.93-28.7,1.89c-5.19,1.59-10.18,3.81-14.83,6.62C186.02,77.75,186.54,78.62,187.15,78.31z"/>
	<path class="st2" d="M195.46,263.72c-4.94-2.59-10.8-3.02-15.83-0.44c-1.35,0.69-1.74,2.58-1,3.83c0.83,1.41,2.45,1.64,3.83,1
		c0.08-0.03,0.13-0.06,0.16-0.08c0.03-0.01,0.05-0.02,0.1-0.03c0.28-0.09,0.55-0.19,0.83-0.27c0.47-0.14,0.96-0.24,1.45-0.31
		c0.1-0.01,0.25-0.03,0.35-0.03c0.25-0.02,0.49-0.03,0.74-0.03c0.5-0.01,0.99,0.03,1.49,0.06c0.05,0,0.08,0,0.11,0
		c0.03,0.01,0.05,0.01,0.09,0.02c0.24,0.05,0.49,0.09,0.73,0.14c0.53,0.12,1.06,0.26,1.57,0.43c0.24,0.08,0.47,0.2,0.71,0.26
		c0.02,0.01,0.02,0.01,0.04,0.02c0.09,0.04,0.18,0.08,0.27,0.12c0.46,0.22,0.9,0.45,1.34,0.71c0.44,0.26,0.85,0.55,1.27,0.83
		c0.04,0.03,0.06,0.04,0.08,0.06c0.02,0.02,0.04,0.04,0.08,0.07c0.19,0.17,0.38,0.32,0.57,0.49c0.4,0.36,0.79,0.75,1.16,1.14
		c0.17,0.18,0.34,0.36,0.51,0.55c0.06,0.07,0.28,0.36,0.35,0.45c1.12,1.59,2.05,3.31,2.99,5.01c0.88,1.58,3.41,1.24,3.86-0.5
		C204.79,271.54,200.21,266.21,195.46,263.72z"/>
	<path class="st2" d="M151.3,270.71c-0.28-0.47-0.66-0.85-1.13-1.13c-0.46-0.35-1-0.56-1.53-0.76c-0.54-0.21-1.13-0.26-1.71-0.32
		c-0.31-0.03-0.62-0.03-0.93,0.01c-0.6,0.07-1.19,0.13-1.76,0.33c-1.21,0.41-2.14,0.97-3.11,1.78c-0.36,0.3-0.64,0.66-0.93,1.03
		c-0.18,0.24-0.37,0.47-0.53,0.72c-0.04,0.07-0.08,0.14-0.12,0.21c-0.18,0.33-0.36,0.7-0.46,1.06c-0.13,0.47-0.17,0.98-0.21,1.47
		c-0.01,0.17-0.01,0.34,0,0.52c0.05,0.69,0.16,1.33,0.51,1.94c0.32,0.55,0.83,1.01,1.36,1.34c0.1,0.06,0.2,0.11,0.31,0.16
		c0.24,0.1,0.48,0.2,0.73,0.31c0.4,0.13,0.81,0.15,1.21,0.05c0.65-0.09,1.29-0.35,1.75-0.84c0.08-0.09,0.17-0.16,0.26-0.23
		c-0.08,0.06-0.16,0.12-0.24,0.19c0.34-0.28,0.66-0.59,0.89-0.98c0.2-0.34,0.33-0.72,0.41-1.1c0.04-0.19,0.11-0.38,0.18-0.56
		c-0.13,0.3-0.25,0.6-0.38,0.9c0.13-0.3,0.25-0.6,0.37-0.9c0.06-0.14,0.15-0.26,0.23-0.39c0.1-0.11,0.2-0.22,0.31-0.32
		c0.05-0.03,0.1-0.05,0.14-0.07c0.04-0.01,0.08-0.02,0.12-0.03c0.11,0.03,0.22,0.05,0.32,0.09c0.65,0.26,1.35,0.34,2.04,0.15
		c0.73-0.2,1.52-0.76,1.88-1.44c0.39-0.73,0.58-1.61,0.32-2.42C151.51,271.21,151.4,270.96,151.3,270.71z"/>
	<path class="st2" d="M190.27,276.17c-0.75-0.61-1.32-0.94-2.22-1.3c-0.58-0.23-1.22-0.3-1.84-0.35c-0.73-0.06-1.73,0.38-2.22,0.92
		c-0.48,0.52-0.77,1.1-0.86,1.8c-0.2,1.5,0.73,3.06,2.25,3.45c0,0,0.01,0,0.01,0c0.02,0.01,0.04,0.02,0.05,0.03
		c0.04,0.04,0.07,0.07,0.11,0.11c0.01,0.02,0.02,0.05,0.04,0.07c0.03,0.1,0.06,0.2,0.08,0.3c0,0.1,0,0.21,0,0.31
		c-0.05,0.19-0.11,0.38-0.19,0.57c0.06-0.14,0.12-0.28,0.18-0.42c0,0.01,0,0.01,0,0.02c-0.07,0.18-0.15,0.36-0.22,0.54
		c-0.1,0.2-0.2,0.4-0.29,0.61c-0.11,0.15-0.17,0.32-0.19,0.5c-0.15,0.57-0.16,1.14-0.04,1.71c0.16,1.26,0.99,2.22,2.2,2.63
		c1.03,0.35,2.25,0.25,3.19-0.3c0.76-0.45,1.35-1.2,1.84-1.92c0.56-0.83,0.64-1.69,0.76-2.65c0.04-0.32,0.05-0.63,0.02-0.95
		C192.76,279.74,191.96,277.54,190.27,276.17z M185.7,281.57c0.01-0.02,0.02-0.05,0.03-0.07c0,0,0,0,0,0.01
		c-0.01,0.03-0.02,0.06-0.04,0.09C185.7,281.58,185.7,281.58,185.7,281.57z M185.74,281.48
		C185.74,281.48,185.74,281.48,185.74,281.48c0.04-0.1,0.08-0.2,0.12-0.3C185.82,281.28,185.78,281.38,185.74,281.48z"/>
</g>
</svg>
