<?xml version="1.0" encoding="utf-8"?>
<!-- Generator: Adobe Illustrator 26.3.1, SVG Export Plug-In . SVG Version: 6.00 Build 0)  -->
<svg version="1.1" id="Zauberstab" xmlns="http://www.w3.org/2000/svg" xmlns:xlink="http://www.w3.org/1999/xlink" x="0px" y="0px"
	 viewBox="0 0 500.5 509" style="enable-background:new 0 0 500.5 509;" xml:space="preserve">
<style type="text/css">
	.st0{fill:#E7ABCA;}
	.st1{fill:#F8F4B7;}
	.st2{fill:#211F1B;}
</style>
<g id="Farbe">
	<path class="st0" d="M248.33,223.2c-39.42,64.35-79.15,130.5-120.49,198.96c-4.82,7.98-9.38,16.24-14.67,23.91
		c-3.76,5.45-11.09,14.03-18.62,10.05c-8.02-4.23-6.27-15.17-3.11-21.8c3.84-8.06,9.21-15.57,13.96-23.12
		c19.62-31.19,39.84-62.05,60.82-92.35c23.01-33.23,47.33-65.5,70.46-98.64c4.41-0.45,8.8-1.01,13.14-1.71
		c0.02,0.08,0.02,0.17,0.05,0.25c0.28,0.85,0.55,1.7,0.83,2.55C249.8,221.58,248.96,222.17,248.33,223.2z M274.36,256.51
		c0,0,0.01,0,0.01,0c0.02,0.02,0,0.03,0.03,0.05C274.39,256.54,274.37,256.52,274.36,256.51z"/>
	<path class="st1" d="M250.76,252.87c2.71,7.58,5.13,20.83,15.49,20.79c8.5-0.03,12.26-9.63,15.54-15.9
		c3.68-7.04,7.68-14.04,11.14-21.23c2.6-0.21,5.27-0.71,7.69-1.05c3.82-0.52,7.62-1.17,11.39-1.94c7.55-1.54,15-3.57,22.28-6.1
		c6.61-2.3,14.68-6.48,14.81-14.57c0.13-8.36-8.28-12.37-14.37-16.13c-8.3-5.12-16.56-10.23-25.07-14.99
		c-0.83-0.46-1.63-0.64-2.39-0.63c1.38-2.56,2.52-5.28,3.65-7.94c1.61-3.77,3.05-7.62,4.3-11.53c2.11-6.58,4.57-13.91,4.04-20.91
		c-0.49-6.56-4.06-12.75-11.23-13.29c-7.13-0.53-13.89,5.24-19.54,8.78c-8.06,5.06-15.98,10.32-23.92,15.56
		c-3.94-2.66-7.64-5.59-11.82-7.9c-4.48-2.48-9.05-4.81-13.66-7.04c-6.54-3.17-15.55-8.44-22.92-4.56c-9.23,4.86-4.22,16.09-2,23.52
		c1.47,4.92,2.94,9.84,4.41,14.76c0.73,2.46,1.47,4.92,2.2,7.38c0.49,1.65,0.91,3.26,1.56,4.78c-12.53,5.77-23.89,14.76-31.55,26.3
		c-3.92,5.91-4.47,14.12,2.37,18.19c6.54,3.89,14.85,2.05,21.93,1.24c8.77-1.01,17.75-1.62,26.48-3.03c0.01,0.03,0.01,0.06,0.02,0.1
		C244.63,234.66,247.52,243.82,250.76,252.87z"/>
</g>
<g id="OL">
	<path class="st2" d="M236.39,137.06c-0.01,0-0.03,0-0.04,0c-0.11,0.04-0.28,0.08-0.45,0.11C236,137.2,236.23,137.2,236.39,137.06z"
		/>
	<path class="st2" d="M348.54,192.5c-3.96-2.45-7.93-4.89-11.89-7.34c-3.97-2.45-8.03-4.7-12.1-6.98c-0.69-0.39-1.49-0.56-2.29-0.56
		c1.23-2.29,2.26-4.7,3.27-7.07c1.6-3.74,3.07-7.53,4.35-11.39c1.2-3.61,2.24-7.27,3.12-10.97c0.73-3.04,1.32-6.15,1.33-9.29
		c0.02-6.24-2.61-13.24-9.39-14.71c-4.18-0.9-8.25,0.55-11.87,2.56c-3.52,1.96-6.88,4.25-10.29,6.39
		c-7.83,4.91-15.51,10.03-23.22,15.11c-2.72-1.85-5.31-3.86-8.09-5.63c-3.07-1.96-6.29-3.66-9.52-5.34
		c-3.23-1.68-6.48-3.3-9.77-4.87c-3.04-1.45-6.13-3.04-9.38-3.99c-2.96-0.87-6.14-1.21-9.18-0.54c-3.51,0.78-6.37,3.44-7.45,6.85
		c-1.14,3.62-0.04,7.33,1,10.81c1.08,3.63,2.17,7.26,3.25,10.89c1.23,4.1,2.45,8.21,3.68,12.31c0.61,2.05,1.23,4.1,1.84,6.15
		c0.28,0.95,0.57,1.89,0.85,2.84c0.14,0.47,0.26,0.96,0.42,1.42c0,0.01,0.01,0.02,0.01,0.03c-2.06,0.93-4.09,1.93-6.07,3.02
		c-3.33,1.84-6.37,3.99-9.35,6.35c-5.78,4.58-10.94,10.01-15.3,15.96c-2.56,3.48-4.35,7.67-3.5,12.05c0.64,3.28,3.05,6.15,6.05,7.57
		c6.38,3,13.5,1.62,20.21,0.85c2.98-0.34,5.96-0.69,8.94-1.03c-4.76,5.45-9.46,10.95-13.95,16.62
		c-6.05,7.65-11.95,15.41-17.77,23.24c-11.45,15.42-22.7,30.99-33.74,46.71c-11.03,15.71-21.75,31.65-32.3,47.69
		c-10.59,16.11-20.87,32.42-30.89,48.89c-4.92,8.09-10.07,16.12-14.57,24.46c-3.93,7.29-6.79,15.85-3.47,23.92
		c1.39,3.37,3.62,6.38,6.8,8.25c3.26,1.92,7.27,2.36,10.89,1.35c7.48-2.09,12.87-9.05,16.85-15.3c5.35-8.41,10.53-16.94,15.82-25.38
		c5.4-8.62,10.8-17.23,16.2-25.85c10.8-17.23,21.93-34.26,32.7-51.52c10.73-17.18,21.47-34.35,32.11-51.57
		c10.65-17.22,21.29-34.45,31.94-51.67c1.93-3.13,3.87-6.25,5.8-9.38c0.89,2.75,1.8,5.5,2.76,8.23c1.19,3.36,2.4,6.72,3.6,10.08
		c1.18,3.31,2.21,6.73,3.74,9.9c1.48,3.06,3.77,5.53,6.95,6.8c3.22,1.29,7.02,0.53,9.74-1.52c2.59-1.94,4.51-4.55,6.02-7.4
		c1.65-3.11,3.26-6.24,4.88-9.35c1.83-3.5,3.66-7.01,5.49-10.51c1.36-2.61,2.84-5.2,4.17-7.84c0.48-0.06,0.95-0.11,1.42-0.17
		c2.34-0.25,4.67-0.55,6.99-0.88c3.89-0.55,7.77-1.22,11.61-2.03c7.53-1.58,15-3.62,22.24-6.21c6.36-2.27,14.17-6.9,13.8-14.71
		C363.67,200.28,354.86,196.4,348.54,192.5z M353.89,209.17c-0.01,0-0.01-0.02-0.02-0.03c0-0.01,0-0.03,0.01-0.05
		C353.89,209.14,353.89,209.17,353.89,209.17z M353.67,208.35c-0.03-0.07-0.05-0.11-0.08-0.19
		C353.61,208.17,353.64,208.25,353.67,208.35z M238.23,137.1c-0.09-0.01-0.27-0.04-0.56-0.08
		C237.8,136.99,238.03,137.05,238.23,137.1z M235.26,137.67C235.26,137.67,235.26,137.67,235.26,137.67
		C235.26,137.67,235.26,137.67,235.26,137.67C235.26,137.67,235.26,137.67,235.26,137.67z M255.12,226.59
		c-10.44,16.96-20.81,33.96-31.21,50.94c-10.36,16.91-20.69,33.84-30.97,50.79c-10.32,17.03-20.53,34.12-30.69,51.25
		c-10.12,17.05-20.42,34-30.67,50.97c-2.58,4.28-5.19,8.54-7.8,12.81c-2.07,3.38-4.09,6.79-6.67,9.81
		c-3.94,4.61-10.22,9.7-16.31,6.05c-5.86-3.52-6.12-11.66-4.23-17.49c1.32-4.08,3.58-7.8,5.81-11.43c2.47-4.02,4.97-8.02,7.47-12.02
		c9.99-15.94,20.22-31.73,30.5-47.48c10.32-15.82,20.85-31.5,31.59-47.04c10.69-15.47,21.51-30.85,32.56-46.06
		c11.08-15.26,22.49-30.27,33.23-45.77c1.98-2.86,3.95-5.72,5.93-8.58c0.04,0,0.08-0.01,0.11-0.01c4.26-0.49,8.58-0.84,12.83-1.47
		c0.02,0.09,0.03,0.18,0.06,0.27c0.29,0.86,0.56,1.72,0.84,2.58C256.55,225.02,255.7,225.65,255.12,226.59z M280.96,259.89
		C280.96,259.89,280.96,259.89,280.96,259.89C280.46,259.81,280.69,259.83,280.96,259.89z M281.1,259.93
		C281.09,259.92,281.09,259.92,281.1,259.93C281.09,259.92,281.1,259.92,281.1,259.93C281.1,259.92,281.1,259.92,281.1,259.93z
		 M281.23,260c0.01-0.01,0.02-0.01,0.02-0.02c0.04,0.02,0.07,0.04,0.07,0.07C281.28,260.03,281.25,260.01,281.23,260z
		 M352.47,210.94c-0.06,0.03-0.47,0.37-0.53,0.41c-0.58,0.4-1.19,0.76-1.81,1.09c-0.52,0.28-1.04,0.52-1.57,0.77
		c-0.02,0.01-0.04,0.01-0.07,0.02c-0.47,0.17-0.93,0.34-1.4,0.51c-6.68,2.33-13.51,4.24-20.42,5.73c-4,0.87-8.02,1.59-12.07,2.18
		c-0.34,0.05-0.68,0.1-1.01,0.14c-0.17,0.02-0.81,0.11-0.88,0.11c-1.09,0.14-2.19,0.26-3.28,0.38c-0.63,0.07-1.27,0.12-1.92,0.17
		c-2.51-1.26-5.55-0.56-7.04,1.89c-0.76,0.71-1.29,1.64-1.49,2.68c-1.06,2.03-2.04,4.11-3.08,6.14c-1.49,2.94-2.99,5.87-4.48,8.81
		c-2.77,5.45-5.29,11.17-8.57,16.34c-0.03,0.04-0.05,0.09-0.08,0.13c-0.12,0.14-0.25,0.27-0.36,0.39c-0.18,0.2-0.84,1.09-1.13,1.09
		c0.04-0.03,0.08-0.06,0.11-0.09c-0.07,0.02-0.15,0.04-0.23,0.07c-0.01,0.01-0.03,0.01-0.04,0.02c0,0-0.01,0-0.02,0c0,0,0,0,0.01,0
		c0,0-0.01,0-0.01,0c-0.01,0-0.03,0-0.04-0.01c-0.01-0.01-0.02-0.01-0.03-0.02c-0.04-0.03-0.05-0.03-0.09-0.06
		c-0.1-0.09-0.18-0.17-0.17-0.16c-0.08-0.08-0.87-0.79-0.27-0.25c0.57,0.5-0.11-0.17-0.21-0.33c-0.32-0.49-0.6-1.01-0.86-1.54
		c-0.16-0.32-0.3-0.64-0.45-0.97c-0.06-0.14-0.13-0.23-0.18-0.26c-0.22-0.5-0.36-1.14-0.52-1.55c-0.6-1.55-1.19-3.1-1.79-4.65
		c-1.19-3.1-2.39-6.21-3.58-9.31c-2.69-7-5.76-13.86-8.59-20.8c-0.43-1.06-1.21-2-2.19-2.52c0.02-0.29,0.02-0.57-0.02-0.84
		c-0.28-2.05-2.13-3.96-4.33-3.82c-3.94,0.24-7.88,0.93-11.8,1.42c-3.93,0.5-7.86,0.99-11.8,1.49c-3.93,0.5-7.86,1.01-11.8,1.49
		c-1.16,0.14-2.32,0.24-3.49,0.27c-0.65,0.02-1.31,0.01-1.96-0.02c-0.32-0.01-0.65-0.04-0.97-0.06c-0.13-0.01-0.27-0.03-0.4-0.04
		c-0.02,0-0.03,0-0.05-0.01c-0.56-0.12-1.11-0.22-1.66-0.38c-0.24-0.07-0.48-0.16-0.72-0.23c-0.02-0.01-0.03-0.01-0.05-0.01
		c-0.01,0-0.01-0.01-0.02-0.01c-0.25-0.14-0.51-0.26-0.75-0.41c-0.13-0.08-0.21-0.12-0.27-0.16c-0.16-0.16-0.35-0.37-0.39-0.41
		c-0.01-0.01-0.02-0.02-0.03-0.03c-0.05-0.08-0.11-0.15-0.15-0.23c-0.01-0.02-0.05-0.1-0.1-0.19c-0.07-0.2-0.2-0.56-0.19-0.55
		c-0.04-0.11-0.07-0.19-0.09-0.24c0.01-0.06,0.02-0.14,0.03-0.25c0.01-0.07,0.1-0.78,0.08-0.79c0.08-0.3,0.16-0.6,0.24-0.9
		c0.03-0.13,0.05-0.22,0.07-0.29c0.03-0.06,0.08-0.15,0.14-0.28c0.38-0.78,0.81-1.52,1.28-2.25c1.06-1.62,1.59-2.25,2.62-3.51
		c1.04-1.28,2.12-2.54,3.24-3.76c2.23-2.45,4.6-4.76,7.04-6.99c5.1-4.65,10.11-8.57,16.04-12.26c0.71,0.03,1.41-0.09,1.99-0.33
		c1.73-0.73,2.56-2.24,2.73-4.06c0.19-2.01-0.58-3.88-1.15-5.77c-0.5-1.66-1-3.31-1.49-4.97c-1-3.31-1.99-6.62-2.99-9.94
		s-1.99-6.62-2.99-9.94c-0.9-3.01-1.95-6.01-2.62-9.08c-0.02-0.16-0.1-0.63-0.11-0.76c0-0.01,0.01-0.29,0.02-0.52
		c0.03-0.12,0.06-0.27,0.09-0.4c0.01-0.01,0.01-0.02,0.02-0.04c0.08-0.06,0.19-0.15,0.27-0.21c0.05-0.01,0.15-0.03,0.27-0.05
		c-0.11-0.03-0.08-0.1,0.33-0.11c0.04,0,0.08,0,0.12,0c0.04-0.02,0.09-0.03,0.1-0.05c-0.02,0.02-0.04,0.03-0.06,0.05
		c0.47,0,0.94,0,1.41,0.01c0.05,0,0.11,0.01,0.16,0.01c0.18,0.02,0.28,0.03,0.31,0.03c0.08,0.02,0.15,0.04,0.21,0.05
		c0.6,0.12,1.2,0.26,1.79,0.44c0.59,0.17,1.16,0.36,1.73,0.58c0.22,0.08,0.57,0.15,0.75,0.3c-0.18-0.08-0.37-0.15-0.55-0.23
		c0.22,0.1,0.43,0.19,0.65,0.29c1.59,0.71,3.18,1.42,4.77,2.14c3.03,1.38,6.04,2.8,9.02,4.27c3.34,1.65,6.62,3.41,9.99,5
		c3.52,1.66,6.99,3.01,10.37,4.84c1.68,0.91,3.24,0.38,4.17-0.71c0.25-0.07,0.49-0.16,0.75-0.31c6.76-3.9,13.59-7.69,20.26-11.74
		c3.27-1.98,6.53-3.96,9.8-5.95c2.88-1.75,5.72-3.74,8.83-4.47c-0.03,0.01,0.71-0.1,0.82-0.14c0.3-0.02,0.61-0.02,0.91-0.01
		c0.06,0.03,0.81,0.13,0.8,0.13c0.13,0.02,0.22,0.04,0.29,0.04c0.03,0.02,0.09,0.06,0.17,0.1c0.18,0.09,0.35,0.18,0.52,0.29
		c0.12,0.07,0.43,0.34,0.46,0.35c0.11,0.1,0.22,0.2,0.33,0.31c0.06,0.06,0.11,0.13,0.17,0.2c0.03,0.04,0.05,0.08,0.1,0.15
		c0.17,0.33,0.36,0.64,0.53,0.97c0.05,0.14,0.16,0.41,0.19,0.49c0.09,0.29,0.17,0.58,0.25,0.87c0.05,0.21,0.21,1.11,0.22,1.11
		c0.07,0.65,0.11,1.3,0.12,1.95c0.01,1.12-0.07,2.23-0.19,3.34c-0.02,0.17-0.07,0.46-0.08,0.53c-0.05,0.32-0.11,0.63-0.17,0.94
		c-0.15,0.75-0.33,1.5-0.51,2.25c-0.82,3.4-1.77,6.77-2.86,10.1c-0.61,1.88-1.27,3.75-1.96,5.6c-0.37,1-0.76,1.99-1.16,2.98
		c-0.17,0.42-0.34,0.85-0.52,1.27c-0.24,0.57-0.08,0.21-0.32,0.74c-1.71,3.93-3.77,7.7-5.33,11.69c-0.67,1.7,0.6,3.77,2.16,4.4
		c0.74,0.3,1.47,0.35,2.15,0.21c0.14,1.35,0.9,2.59,2.15,3.46c6.31,4.37,12.72,8.52,19.21,12.62c3.24,2.04,6.47,4.09,9.71,6.13
		c0.65,0.41,1.29,0.81,1.93,1.23c0.26,0.17,0.52,0.35,0.77,0.53c0.1,0.07,0.2,0.15,0.3,0.22c0.45,0.33,0.4,0.3-0.14-0.11
		c0.49,0.2,0.99,0.86,1.35,1.25c0.07,0.08,0.14,0.15,0.21,0.23c0.1,0.15,0.19,0.29,0.28,0.44c0.05,0.1,0.08,0.15,0.11,0.21
		c0.02,0.08,0.05,0.17,0.07,0.24c0,0.03,0,0.07,0,0.1c-0.04,0.17-0.08,0.36-0.1,0.51c-0.11,0.15-0.21,0.34-0.3,0.5
		c-0.3,0.3-0.59,0.62-0.91,0.91C352.5,210.9,352.49,210.92,352.47,210.94z"/>
	<path class="st2" d="M281.76,259.53c-0.14,0.1-0.27,0.18-0.42,0.27c-0.03,0.02-0.05,0.02-0.07,0.04c0.07-0.03,0.13-0.05,0.18-0.06
		C281.56,259.69,281.66,259.61,281.76,259.53z"/>
	<path class="st2" d="M281.11,259.91c0.01,0,0.03-0.01,0.04-0.01c0.03-0.02,0.07-0.04,0.11-0.06
		C281.21,259.86,281.16,259.88,281.11,259.91z"/>
	<path class="st2" d="M281.45,259.77c-0.02,0.02-0.05,0.04-0.07,0.06c0.09-0.03,0.16-0.05,0.16-0.05
		C281.53,259.76,281.49,259.76,281.45,259.77z"/>
	<path class="st2" d="M337.42,103.84c0.97,0.73,2.57,0.8,3.42-0.2c4.81-5.62,8.64-11.95,12.66-18.14c3.19-4.91,6.31-9.86,9.38-14.84
		c2.4-3.88,4.8-7.77,7.19-11.65c1.37-2.22-1.96-4.03-3.43-2.01c-7.7,10.6-15.33,21.22-22.78,31.99c-2.58,3.73-5.05,7.44-7.12,11.49
		C336.16,101.63,336.35,103.04,337.42,103.84z"/>
	<path class="st2" d="M443.48,223.32c-13.61-2.62-27.37-4.37-41.11-6.2c-5.19-0.69-10.37-1.38-15.56-2.08
		c-1.49-0.2-2.86,1.32-3.02,2.67c-0.16,1.38,0.67,3.12,2.2,3.37c15.07,2.47,30.14,4.91,45.24,7.18c3.79,0.57,7.59,0.94,11.39,1.34
		c1.56,0.16,2.97-1.34,3.14-2.77C445.94,225.36,445.06,223.62,443.48,223.32z"/>
	<path class="st2" d="M207.88,113.23c3.95,4.45,7.79,8.93,12.25,12.88c1.71,1.52,4.83-0.49,3.37-2.6
		c-5.61-8.06-12.65-15.16-19.42-22.26c-5.24-5.5-10.76-10.71-16.55-15.63c-3.54-3-7.31-5.76-11.04-8.52
		c-1.2-0.89-2.65,1.05-1.58,2.05C186.47,89.95,197.38,101.4,207.88,113.23z"/>
	<path class="st2" d="M130.28,241.44c16.46-4.65,32.5-10.67,48.8-15.85c2.17-0.69,1.28-3.95-0.94-3.41
		c-16.81,4.05-33.61,8.46-49.15,16.2C127.27,239.23,128.48,241.95,130.28,241.44z"/>
	<path class="st2" d="M293.33,306.34c-1.37-6.86-2.71-13.72-4.21-20.56c-0.31-1.44-1.99-2.28-3.36-1.91
		c-1.55,0.43-2.15,1.9-1.91,3.36c1.13,6.94,2.08,13.91,3.03,20.88c0.48,3.51,0.94,7.01,1.55,10.5c0.61,3.53,0.96,7.34,3.5,10.09
		c1.29,1.4,3.3,0.51,3.89-1.03c1.3-3.41,0.13-7.3-0.46-10.75C294.74,313.39,294.03,309.87,293.33,306.34z"/>
	<path class="st2" d="M390.12,143.24c-9.03,2.75-17.72,6.52-26.47,10.03c-1.26,0.51-2.15,1.68-1.76,3.09
		c0.34,1.24,1.81,2.21,3.09,1.76c9.11-3.21,18.31-6.19,27.12-10.17C394.79,146.74,392.88,142.4,390.12,143.24z"/>
	<path class="st2" d="M272,93.38c1.02,3.34,2.08,6.66,3.16,9.97c1.15,3.51,2.41,6.9,3.84,10.3c0.5,1.19,1.58,2.04,2.94,1.67
		c1.28-0.35,1.98-1.68,1.67-2.94c-0.86-3.49-1.82-6.88-2.95-10.29c-1.13-3.39-2.28-6.78-3.47-10.15
		c-2.39-6.74-4.78-13.48-7.18-20.23c-0.94-2.64-5.09-1.57-4.25,1.17C267.84,79.73,269.92,86.55,272,93.38z"/>
	<path class="st2" d="M202.14,170.88c-1.81-0.29-3.63-0.54-5.45-0.81c-3.7-0.55-7.41-1.1-11.11-1.65c-1.41-0.21-2.84,0.35-3.25,1.84
		c-0.35,1.27,0.43,3.01,1.84,3.25c3.75,0.64,7.51,1.28,11.26,1.92c1.88,0.32,3.75,0.67,5.63,0.96c1.97,0.3,3.98,0.39,5.96,0.56
		c2.76,0.24,3.32-4.19,0.65-4.82C205.85,171.71,204.01,171.18,202.14,170.88z"/>
	<path class="st2" d="M342.91,267.81c-1.38-2.44-2.79-4.87-4.23-7.28c-2.84-4.75-5.68-9.49-8.52-14.24
		c-1.4-2.34-4.93-0.27-3.65,2.13c2.61,4.88,5.22,9.76,7.83,14.64c1.29,2.4,2.6,4.79,3.94,7.16c1.4,2.47,2.86,4.8,4.52,7.11
		c1.66,2.3,4.86,0.37,3.75-2.19C345.47,272.6,344.27,270.22,342.91,267.81z"/>
</g>
</svg>
