<svg height="64" viewBox="0 0 768 64" width="768" xmlns="http://www.w3.org/2000/svg"><path d="m0 26.5126708c14.4128042-14.1139315 39.0485681-22.62419453 73.9072918-25.53078911 34.8587232-2.90659458 69.7527252.63994986 104.6820052 10.63963331 18.123376 8.0006465 36.258711 14.2500075 54.406004 18.748083s36.2618 7.233775 54.34352 8.2070985c31.907337-2.1702735 60.92773-3.2554102 87.061179-3.2554102 39.200173 0 30.447919 6.1174711 75.733333 3.2554102 45.285414-2.862061 94.344566-24.6041612 105.080228-25.5766965 9.997348-.905652 21.304608-4.69757318 36.133328-4.99879468s26.303504 2.50845758 31.727591 3.62030968c.05729.0117436 17.122031 4.5042738 51.194224 13.4775907 28.811301 4.3195912 60.055066 8.8121215 93.731296 13.4775908v25.4233035h-768z" fill="#f9f9f9" fill-rule="evenodd" transform="matrix(-1 0 0 1 768 0)"/></svg>