<svg height="53" viewBox="0 0 768 53" width="768" xmlns="http://www.w3.org/2000/svg" xmlns:xlink="http://www.w3.org/1999/xlink"><mask id="a" fill="#fff"><path d="m0 0h768v64h-768z" fill="#fff" fill-rule="evenodd"/></mask><path d="m-336 26.5126708c27.025274-14.1139315 73.219496-22.62419453 138.582666-25.53078911s130.7924891.63994986 196.28795785 10.63963331c33.98292285 8.0006465 67.98826875 14.2500075 102.01603815 18.748083 34.027768 4.4980755 67.99406 7.233775 101.898876 8.2070985 60.495758-6.5306541 115.244894-9.7959811 164.247406-9.7959811 73.503769 0 56.092477 12.658042 141.006608 9.7959811 84.91413-2.862061 62.410865-8.6757947 119.33506-12.0640257 85.010326-3.8774925 132.552638-6.2856 142.626937-7.2243226 3.14342-.2929037 29.896118-2.1108242 52.133979-2.1791202.426848-.0013109-7.185 0-6.75564 0 22.798113 0 29.25933.2114196 43.521121.4954228 20.625845.9039484 87.48992 8.4878306 151.222801 5.5233907 24.95988-1.1609714 86.16837-7.752857 93.68335.6304074.50279.560886.26032 2.0615303.26032 2.7542219v5.7657426c0 3.0428729.112 7.9580535.04744 13.3987642-.03937 3.3174545-.05518 9.425062-.04744 18.3228224h-1440.06748z" fill="#c4d5df" fill-rule="evenodd" mask="url(#a)" transform="matrix(-1 0 0 1 768.134968 -11)"/></svg>