<svg height="48" viewBox="0 0 375 48" width="375" xmlns="http://www.w3.org/2000/svg" xmlns:xlink="http://www.w3.org/1999/xlink"><mask id="a" fill="#fff"><path d="m0 0h375v64h-375z" fill="#fff" fill-rule="evenodd"/></mask><g fill="#8eb85b" fill-rule="evenodd" mask="url(#a)" transform="translate(0 -16)"><path d="m0 26.5126708c17.2653384-14.1139315 46.7769306-22.62419453 88.5347766-25.53078911 41.7578464-2.90659458 83.5579524.63994986 125.4003184 10.63963331 21.710295 8.0006465 43.434914 14.2500075 65.173859 18.748083s43.438614 7.233775 65.099009 8.2070985c38.222331-2.1702735 72.986343-3.2554102 104.292037-3.2554102 46.958541 0 36.47407 6.1174711 90.722222 3.2554102 54.248153-2.862061 113.016927-24.6041612 125.877356-25.5766965 10.838448-.8196284 20.457795-4.46569393 38.861318-4.77776727s35.379172 2.19269417 42.430408 3.39928227c.068629.0117436 20.510767 4.5042738 61.326414 13.4775907 34.513538 4.3195912 71.940965 8.8121215 112.282282 13.4775908v25.4233035h-920z" transform="translate(-276)"/></g></svg>