<svg height="53" viewBox="0 0 768 53" width="768" xmlns="http://www.w3.org/2000/svg" xmlns:xlink="http://www.w3.org/1999/xlink"><mask id="a" fill="#fff"><path d="m0 0h768v64h-768z" fill="#fff" fill-rule="evenodd"/></mask><path d="m-336.067482 26.5126708c27.024008-14.1139315 73.216065-22.62419453 138.576172-25.53078911s130.7863601.63994986 196.27875968 10.63963331c33.98133042 8.0006465 67.98508282 14.2500075 102.01125732 18.748083 34.026174 4.4980755 67.990875 7.233775 101.894101 8.2070985 60.492924-6.5306541 115.239494-9.7959811 164.23971-9.7959811 73.500324 0 56.089849 12.658042 141 9.7959811 84.910151-2.862061 62.40794-8.6757947 119.329468-12.0640257 85.006342-3.8774925 132.546426-6.2856 142.620253-7.2243226 3.143273-.2929037 29.894717-2.1108242 52.131536-2.1791202.426829-.0013109-7.184663 0-6.755323 0 22.797045 0 29.257959.2114196 43.519081.4954228 20.624879.9039484 87.48582 8.4878306 151.215717 5.5233907 24.9587-1.1609714 86.16433-7.752857 93.67896.6304074.50276.560886.26031 2.0615303.26031 2.7542219v5.7657426c0 3.0428729.11199 7.9580535.04743 13.3987642-.03936 3.3174545-.05517 9.425062-.04743 18.3228224h-1440.000002z" fill="#ffcaaf" fill-rule="evenodd" mask="url(#a)" transform="translate(.067482 -11)"/></svg>