<svg height="64" viewBox="0 0 1440 64" width="1440" xmlns="http://www.w3.org/2000/svg"><path d="m0 26.5126708c27.0240079-14.1139315 73.2160653-22.62419453 138.576172-25.53078911 65.360107-2.90659458 130.78636.63994986 196.27876 10.63963331 33.98133 8.0006465 67.985083 14.2500075 102.011257 18.748083s67.990875 7.233775 101.894101 8.2070985c59.826257-2.1702735 114.239494-3.2554102 163.23971-3.2554102 73.500324 0 57.089849 6.1174711 142 3.2554102 84.910151-2.862061 176.89606-24.6041612 197.02543-25.5766965 16.96452-.8196284 32.02089-4.46569393 60.82641-4.77776727 28.80551-.31207334 55.37609 2.19269417 66.41281 3.39928227.10742.0117436 32.10381 4.5042738 95.98917 13.4775907 54.02119 4.3195912 112.60325 8.8121215 175.74618 13.4775908v25.4233035h-1440z" fill="#ff8ddf" fill-rule="evenodd"/></svg>