<svg height="64" viewBox="0 0 1680 64" width="1680" xmlns="http://www.w3.org/2000/svg"><path d="m0 26.5126708c31.5265318-14.1139315 85.41474-22.62419453 161.664625-25.53078911 76.249884-2.90659458 152.576936.63994986 228.981155 10.63963331 39.643028 8.0006465 79.312214 14.2500075 119.007557 18.748083s79.31897 7.233775 118.870881 8.2070985c70.57177-6.5306541 134.439775-9.7959811 191.604015-9.7959811 85.746361 0 65.435091 12.658042 164.492292 9.7959811 99.057205-2.862061 72.805855-8.6757947 139.211185-12.0640257 99.16942-3.8774925 154.63025-6.2856 166.3825-7.2243226 3.66698-.2929037 34.87554-2.1108242 60.81728-2.1791202.49794-.0013109-8.38172 0-7.88084 0 26.5953 0 34.13268.2114196 50.76988.4954228 24.06123.9039484 102.06201 8.4878306 176.41007 5.5233907 29.11712-1.1609714 100.52034-7.752857 109.28699.6304074.58654.560886.30368 2.0615303.30368 2.7542219v5.7657426c0 3.0428729.13065 7.9580535.05534 13.3987642-.04592 3.3174545-.06437 9.425062-.05534 18.3228224h-1679.92127z" fill="#c4d5df" fill-rule="evenodd" transform="matrix(-1 0 0 1 1680 0)"/></svg>